<?xml version="1.0" encoding="UTF-8" standalone="no"?>
<!DOCTYPE svg PUBLIC "-//W3C//DTD SVG 1.1//EN"
 "http://www.w3.org/Graphics/SVG/1.1/DTD/svg11.dtd">
<!-- Generated by graphviz version 2.46.1 (20210215.1649)
 -->
<!-- Title: ee/iopreboot/src/SifIopRebootBuffer.c Pages: 1 -->
<!--zoomable 319 -->
<svg id="main" version="1.1" xmlns="http://www.w3.org/2000/svg" xmlns:xlink="http://www.w3.org/1999/xlink" xml:space="preserve" onload="init(evt)">
<style type="text/css"><![CDATA[
.edge:hover path { stroke: red; }
.edge:hover polygon { stroke: red; fill: red; }
]]></style>
<script type="text/javascript"><![CDATA[
var edges = document.getElementsByTagName('g');
if (edges && edges.length) {
  for (var i=0;i<edges.length;i++) {
    if (edges[i].id.substr(0,4)=='edge') {
      edges[i].setAttribute('class','edge');
    }
  }
}
]]></script>
        <defs>
                <circle id="rim" cx="0" cy="0" r="7"/>
                <circle id="rim2" cx="0" cy="0" r="3.5"/>
                <g id="zoomPlus">
                        <use xlink:href="#rim" fill="#404040">
                                <set attributeName="fill" to="#808080" begin="zoomplus.mouseover" end="zoomplus.mouseout"/>
                        </use>
                        <path d="M-4,0h8M0,-4v8" fill="none" stroke="white" stroke-width="1.5" pointer-events="none"/>
                </g>
                <g id="zoomMin">
                        <use xlink:href="#rim" fill="#404040">
                                <set attributeName="fill" to="#808080" begin="zoomminus.mouseover" end="zoomminus.mouseout"/>
                        </use>
                        <path d="M-4,0h8" fill="none" stroke="white" stroke-width="1.5" pointer-events="none"/>
                </g>
                <g id="dirArrow">
                        <path fill="none" stroke="white" stroke-width="1.5" d="M0,-3.0v7 M-2.5,-0.5L0,-3.0L2.5,-0.5"/>
                </g>
               <g id="resetDef">
                       <use xlink:href="#rim2" fill="#404040">
                               <set attributeName="fill" to="#808080" begin="reset.mouseover" end="reset.mouseout"/>
                       </use>
               </g>
        </defs>

<script type="text/javascript">
var viewWidth = 752;
var viewHeight = 319;
var sectionId = 'dynsection-0';
</script>
<script xlink:href="svgpan.js"/>
<svg id="graph" class="graph">
<g id="viewport">
<title>ee/iopreboot/src/SifIopRebootBuffer.c</title>
<polygon fill="white" stroke="transparent" points="-4,4 -4,-315 748.49,-315 748.49,4 -4,4"/>
<!-- Node1 -->
<g id="node1" class="node">
<title>Node1</title>
<g id="a_node1"><a xlink:title=" ">
<polygon fill="#bfbfbf" stroke="black" points="278.49,-280.5 278.49,-310.5 424.49,-310.5 424.49,-280.5 278.49,-280.5"/>
<text text-anchor="start" x="286.49" y="-298.5" font-family="Helvetica,sans-Serif" font-size="10.00">ee/iopreboot/src/SifIopReboot</text>
<text text-anchor="middle" x="351.49" y="-287.5" font-family="Helvetica,sans-Serif" font-size="10.00">Buffer.c</text>
</a>
</g>
</g>
<!-- Node2 -->
<g id="node2" class="node">
<title>Node2</title>
<g id="a_node2"><a xlink:href="kernel_8h.html" target="_top" xlink:title=" ">
<polygon fill="white" stroke="black" points="29.49,-168.5 29.49,-187.5 79.49,-187.5 79.49,-168.5 29.49,-168.5"/>
<text text-anchor="middle" x="54.49" y="-175.5" font-family="Helvetica,sans-Serif" font-size="10.00">kernel.h</text>
</a>
</g>
</g>
<!-- Node1&#45;&gt;Node2 -->
<g id="edge1" class="edge">
<title>Node1&#45;&gt;Node2</title>
<path fill="none" stroke="midnightblue" d="M278.47,-288.37C231.95,-282.1 171.6,-269.46 123.49,-244 100.87,-232.03 80.28,-210.62 67.59,-195.66"/>
<polygon fill="midnightblue" stroke="midnightblue" points="70.12,-193.23 61.08,-187.71 64.71,-197.66 70.12,-193.23"/>
</g>
<!-- Node5 -->
<g id="node5" class="node">
<title>Node5</title>
<g id="a_node5"><a xlink:href="sifdma_8h.html" target="_top" xlink:title=" ">
<polygon fill="white" stroke="black" points="11.99,-112.5 11.99,-131.5 64.99,-131.5 64.99,-112.5 11.99,-112.5"/>
<text text-anchor="middle" x="38.49" y="-119.5" font-family="Helvetica,sans-Serif" font-size="10.00">sifdma.h</text>
</a>
</g>
</g>
<!-- Node1&#45;&gt;Node5 -->
<g id="edge11" class="edge">
<title>Node1&#45;&gt;Node5</title>
<path fill="none" stroke="midnightblue" d="M287.38,-280.42C256.68,-272.23 220.05,-260.26 189.49,-244 160.78,-228.73 89.14,-167.36 55.92,-138.34"/>
<polygon fill="midnightblue" stroke="midnightblue" points="58.17,-135.67 48.35,-131.71 53.56,-140.93 58.17,-135.67"/>
</g>
<!-- Node7 -->
<g id="node7" class="node">
<title>Node7</title>
<g id="a_node7"><a xlink:href="iopcontrol_8h.html" target="_top" xlink:title=" ">
<polygon fill="white" stroke="black" points="318.49,-224.5 318.49,-243.5 384.49,-243.5 384.49,-224.5 318.49,-224.5"/>
<text text-anchor="middle" x="351.49" y="-231.5" font-family="Helvetica,sans-Serif" font-size="10.00">iopcontrol.h</text>
</a>
</g>
</g>
<!-- Node1&#45;&gt;Node7 -->
<g id="edge6" class="edge">
<title>Node1&#45;&gt;Node7</title>
<path fill="none" stroke="midnightblue" d="M351.49,-280.4C351.49,-272.47 351.49,-262.46 351.49,-253.86"/>
<polygon fill="midnightblue" stroke="midnightblue" points="354.99,-253.66 351.49,-243.66 347.99,-253.66 354.99,-253.66"/>
</g>
<!-- Node8 -->
<g id="node8" class="node">
<title>Node8</title>
<g id="a_node8"><a xlink:href="iopcontrol__special_8h.html" target="_top" xlink:title=" ">
<polygon fill="white" stroke="black" points="402.49,-224.5 402.49,-243.5 504.49,-243.5 504.49,-224.5 402.49,-224.5"/>
<text text-anchor="middle" x="453.49" y="-231.5" font-family="Helvetica,sans-Serif" font-size="10.00">iopcontrol_special.h</text>
</a>
</g>
</g>
<!-- Node1&#45;&gt;Node8 -->
<g id="edge7" class="edge">
<title>Node1&#45;&gt;Node8</title>
<path fill="none" stroke="midnightblue" d="M375.66,-280.4C392.01,-270.86 413.5,-258.32 429.76,-248.84"/>
<polygon fill="midnightblue" stroke="midnightblue" points="431.77,-251.72 438.65,-243.66 428.25,-245.67 431.77,-251.72"/>
</g>
<!-- Node9 -->
<g id="node9" class="node">
<title>Node9</title>
<g id="a_node9"><a xlink:href="loadfile_8h.html" target="_top" xlink:title=" ">
<polygon fill="white" stroke="black" points="269.49,-56.5 269.49,-75.5 323.49,-75.5 323.49,-56.5 269.49,-56.5"/>
<text text-anchor="middle" x="296.49" y="-63.5" font-family="Helvetica,sans-Serif" font-size="10.00">loadfile.h</text>
</a>
</g>
</g>
<!-- Node1&#45;&gt;Node9 -->
<g id="edge8" class="edge">
<title>Node1&#45;&gt;Node9</title>
<path fill="none" stroke="midnightblue" d="M335.44,-280.26C326.11,-270.95 315.12,-257.96 309.49,-244 287.62,-189.81 291.02,-118.78 294.25,-85.59"/>
<polygon fill="midnightblue" stroke="midnightblue" points="297.74,-85.84 295.34,-75.52 290.78,-85.08 297.74,-85.84"/>
</g>
<!-- Node10 -->
<g id="node10" class="node">
<title>Node10</title>
<g id="a_node10"><a xlink:href="iopheap_8h.html" target="_top" xlink:title=" ">
<polygon fill="white" stroke="black" points="522.49,-224.5 522.49,-243.5 580.49,-243.5 580.49,-224.5 522.49,-224.5"/>
<text text-anchor="middle" x="551.49" y="-231.5" font-family="Helvetica,sans-Serif" font-size="10.00">iopheap.h</text>
</a>
</g>
</g>
<!-- Node1&#45;&gt;Node10 -->
<g id="edge10" class="edge">
<title>Node1&#45;&gt;Node10</title>
<path fill="none" stroke="midnightblue" d="M398.63,-280.47C433.59,-270.08 480.64,-256.08 513.26,-246.37"/>
<polygon fill="midnightblue" stroke="midnightblue" points="514.31,-249.71 522.9,-243.51 512.31,-243 514.31,-249.71"/>
</g>
<!-- Node11 -->
<g id="node11" class="node">
<title>Node11</title>
<g id="a_node11"><a xlink:title=" ">
<polygon fill="white" stroke="#bfbfbf" points="598.49,-224.5 598.49,-243.5 646.49,-243.5 646.49,-224.5 598.49,-224.5"/>
<text text-anchor="middle" x="622.49" y="-231.5" font-family="Helvetica,sans-Serif" font-size="10.00">sifrpc.h</text>
</a>
</g>
</g>
<!-- Node1&#45;&gt;Node11 -->
<g id="edge12" class="edge">
<title>Node1&#45;&gt;Node11</title>
<path fill="none" stroke="midnightblue" d="M422.81,-280.48C467.8,-271.37 527.35,-258.85 588.55,-244.13"/>
<polygon fill="midnightblue" stroke="midnightblue" points="589.48,-247.5 598.38,-241.75 587.84,-240.7 589.48,-247.5"/>
</g>
<!-- Node12 -->
<g id="node12" class="node">
<title>Node12</title>
<g id="a_node12"><a xlink:href="string_8h_source.html" target="_top" xlink:title=" ">
<polygon fill="white" stroke="black" points="198.49,-224.5 198.49,-243.5 246.49,-243.5 246.49,-224.5 198.49,-224.5"/>
<text text-anchor="middle" x="222.49" y="-231.5" font-family="Helvetica,sans-Serif" font-size="10.00">string.h</text>
</a>
</g>
</g>
<!-- Node1&#45;&gt;Node12 -->
<g id="edge13" class="edge">
<title>Node1&#45;&gt;Node12</title>
<path fill="none" stroke="midnightblue" d="M320.92,-280.4C299.56,-270.55 271.27,-257.5 250.5,-247.92"/>
<polygon fill="midnightblue" stroke="midnightblue" points="251.81,-244.67 241.26,-243.66 248.87,-251.02 251.81,-244.67"/>
</g>
<!-- Node17 -->
<g id="node17" class="node">
<title>Node17</title>
<g id="a_node17"><a xlink:href="sbv__patches_8h.html" target="_top" xlink:title=" ">
<polygon fill="white" stroke="black" points="664.49,-224.5 664.49,-243.5 744.49,-243.5 744.49,-224.5 664.49,-224.5"/>
<text text-anchor="middle" x="704.49" y="-231.5" font-family="Helvetica,sans-Serif" font-size="10.00">sbv_patches.h</text>
</a>
</g>
</g>
<!-- Node1&#45;&gt;Node17 -->
<g id="edge23" class="edge">
<title>Node1&#45;&gt;Node17</title>
<path fill="none" stroke="midnightblue" d="M424.64,-282.71C483.91,-273.07 569.85,-258.91 654.36,-244.18"/>
<polygon fill="midnightblue" stroke="midnightblue" points="655.14,-247.59 664.39,-242.42 653.93,-240.7 655.14,-247.59"/>
</g>
<!-- Node3 -->
<g id="node3" class="node">
<title>Node3</title>
<g id="a_node3"><a xlink:title=" ">
<polygon fill="white" stroke="#bfbfbf" points="43.99,-0.5 43.99,-19.5 94.99,-19.5 94.99,-0.5 43.99,-0.5"/>
<text text-anchor="middle" x="69.49" y="-7.5" font-family="Helvetica,sans-Serif" font-size="10.00">stddef.h</text>
</a>
</g>
</g>
<!-- Node2&#45;&gt;Node3 -->
<g id="edge2" class="edge">
<title>Node2&#45;&gt;Node3</title>
<path fill="none" stroke="midnightblue" d="M38.71,-168.47C26.29,-160.77 9.88,-148.18 2.49,-132 -1.21,-123.92 -0.08,-120.51 2.49,-112 12.6,-78.46 37.9,-45.82 54.36,-27.1"/>
<polygon fill="midnightblue" stroke="midnightblue" points="57.1,-29.29 61.21,-19.53 51.9,-24.6 57.1,-29.29"/>
</g>
<!-- Node4 -->
<g id="node4" class="node">
<title>Node4</title>
<g id="a_node4"><a xlink:title=" ">
<polygon fill="white" stroke="#bfbfbf" points="82.99,-112.5 82.99,-131.5 133.99,-131.5 133.99,-112.5 82.99,-112.5"/>
<text text-anchor="middle" x="108.49" y="-119.5" font-family="Helvetica,sans-Serif" font-size="10.00">stdarg.h</text>
</a>
</g>
</g>
<!-- Node2&#45;&gt;Node4 -->
<g id="edge3" class="edge">
<title>Node2&#45;&gt;Node4</title>
<path fill="none" stroke="midnightblue" d="M63.41,-168.08C71.27,-160.22 82.92,-148.57 92.41,-139.08"/>
<polygon fill="midnightblue" stroke="midnightblue" points="95.14,-141.3 99.74,-131.75 90.19,-136.35 95.14,-141.3"/>
</g>
<!-- Node2&#45;&gt;Node5 -->
<g id="edge4" class="edge">
<title>Node2&#45;&gt;Node5</title>
<path fill="none" stroke="midnightblue" d="M51.85,-168.08C49.7,-160.85 46.61,-150.41 43.94,-141.4"/>
<polygon fill="midnightblue" stroke="midnightblue" points="47.28,-140.34 41.08,-131.75 40.57,-142.33 47.28,-140.34"/>
</g>
<!-- Node6 -->
<g id="node6" class="node">
<title>Node6</title>
<g id="a_node6"><a xlink:href="tamtypes_8h.html" target="_top" xlink:title=" ">
<polygon fill="white" stroke="black" points="158.49,-0.5 158.49,-19.5 222.49,-19.5 222.49,-0.5 158.49,-0.5"/>
<text text-anchor="middle" x="190.49" y="-7.5" font-family="Helvetica,sans-Serif" font-size="10.00">tamtypes.h</text>
</a>
</g>
</g>
<!-- Node5&#45;&gt;Node6 -->
<g id="edge5" class="edge">
<title>Node5&#45;&gt;Node6</title>
<path fill="none" stroke="midnightblue" d="M49.33,-112.37C65.33,-99.71 96.32,-75.49 123.49,-56 138.38,-45.32 155.55,-33.8 168.78,-25.1"/>
<polygon fill="midnightblue" stroke="midnightblue" points="170.78,-27.97 177.23,-19.56 166.95,-22.11 170.78,-27.97"/>
</g>
<!-- Node9&#45;&gt;Node6 -->
<g id="edge9" class="edge">
<title>Node9&#45;&gt;Node6</title>
<path fill="none" stroke="midnightblue" d="M279.46,-56.32C262.46,-47.66 236.11,-34.24 216.5,-24.25"/>
<polygon fill="midnightblue" stroke="midnightblue" points="217.98,-21.08 207.48,-19.65 214.8,-27.31 217.98,-21.08"/>
</g>
<!-- Node13 -->
<g id="node13" class="node">
<title>Node13</title>
<g id="a_node13"><a xlink:href="sysclib_8h.html" target="_top" xlink:title=" ">
<polygon fill="white" stroke="black" points="180.49,-168.5 180.49,-187.5 234.49,-187.5 234.49,-168.5 180.49,-168.5"/>
<text text-anchor="middle" x="207.49" y="-175.5" font-family="Helvetica,sans-Serif" font-size="10.00">sysclib.h</text>
</a>
</g>
</g>
<!-- Node12&#45;&gt;Node13 -->
<g id="edge14" class="edge">
<title>Node12&#45;&gt;Node13</title>
<path fill="none" stroke="midnightblue" d="M220.01,-224.08C218,-216.85 215.1,-206.41 212.6,-197.4"/>
<polygon fill="midnightblue" stroke="midnightblue" points="215.97,-196.45 209.92,-187.75 209.22,-198.32 215.97,-196.45"/>
</g>
<!-- Node13&#45;&gt;Node4 -->
<g id="edge20" class="edge">
<title>Node13&#45;&gt;Node4</title>
<path fill="none" stroke="midnightblue" d="M191.58,-168.32C175.85,-159.74 151.55,-146.49 133.28,-136.52"/>
<polygon fill="midnightblue" stroke="midnightblue" points="134.81,-133.37 124.36,-131.65 131.46,-139.52 134.81,-133.37"/>
</g>
<!-- Node14 -->
<g id="node14" class="node">
<title>Node14</title>
<g id="a_node14"><a xlink:href="types_8h_source.html" target="_top" xlink:title=" ">
<polygon fill="white" stroke="black" points="132.99,-56.5 132.99,-75.5 179.99,-75.5 179.99,-56.5 132.99,-56.5"/>
<text text-anchor="middle" x="156.49" y="-63.5" font-family="Helvetica,sans-Serif" font-size="10.00">types.h</text>
</a>
</g>
</g>
<!-- Node13&#45;&gt;Node14 -->
<g id="edge15" class="edge">
<title>Node13&#45;&gt;Node14</title>
<path fill="none" stroke="midnightblue" d="M201.89,-168.26C196.31,-159.35 187.71,-145.03 181.49,-132 174.16,-116.66 167.34,-98.56 162.68,-85.36"/>
<polygon fill="midnightblue" stroke="midnightblue" points="165.88,-83.9 159.31,-75.59 159.26,-86.19 165.88,-83.9"/>
</g>
<!-- Node15 -->
<g id="node15" class="node">
<title>Node15</title>
<g id="a_node15"><a xlink:href="irx_8h.html" target="_top" xlink:title=" ">
<polygon fill="white" stroke="black" points="190.49,-112.5 190.49,-131.5 224.49,-131.5 224.49,-112.5 190.49,-112.5"/>
<text text-anchor="middle" x="207.49" y="-119.5" font-family="Helvetica,sans-Serif" font-size="10.00">irx.h</text>
</a>
</g>
</g>
<!-- Node13&#45;&gt;Node15 -->
<g id="edge18" class="edge">
<title>Node13&#45;&gt;Node15</title>
<path fill="none" stroke="midnightblue" d="M207.49,-168.08C207.49,-161.01 207.49,-150.86 207.49,-141.99"/>
<polygon fill="midnightblue" stroke="midnightblue" points="210.99,-141.75 207.49,-131.75 203.99,-141.75 210.99,-141.75"/>
</g>
<!-- Node16 -->
<g id="node16" class="node">
<title>Node16</title>
<g id="a_node16"><a xlink:href="setjmp_8h.html" target="_top" xlink:title=" ">
<polygon fill="white" stroke="black" points="197.99,-56.5 197.99,-75.5 250.99,-75.5 250.99,-56.5 197.99,-56.5"/>
<text text-anchor="middle" x="224.49" y="-63.5" font-family="Helvetica,sans-Serif" font-size="10.00">setjmp.h</text>
</a>
</g>
</g>
<!-- Node13&#45;&gt;Node16 -->
<g id="edge21" class="edge">
<title>Node13&#45;&gt;Node16</title>
<path fill="none" stroke="midnightblue" d="M214.38,-168.32C220.76,-159.68 229.8,-145.77 233.49,-132 237.64,-116.53 234.51,-98.44 230.85,-85.28"/>
<polygon fill="midnightblue" stroke="midnightblue" points="234.13,-84.04 227.8,-75.55 227.45,-86.14 234.13,-84.04"/>
</g>
<!-- Node14&#45;&gt;Node3 -->
<g id="edge16" class="edge">
<title>Node14&#45;&gt;Node3</title>
<path fill="none" stroke="midnightblue" d="M142.51,-56.32C128.94,-47.9 108.11,-34.97 92.16,-25.07"/>
<polygon fill="midnightblue" stroke="midnightblue" points="93.77,-21.95 83.43,-19.65 90.08,-27.9 93.77,-21.95"/>
</g>
<!-- Node14&#45;&gt;Node6 -->
<g id="edge17" class="edge">
<title>Node14&#45;&gt;Node6</title>
<path fill="none" stroke="midnightblue" d="M162.1,-56.08C166.86,-48.53 173.81,-37.49 179.64,-28.23"/>
<polygon fill="midnightblue" stroke="midnightblue" points="182.61,-30.08 184.98,-19.75 176.69,-26.35 182.61,-30.08"/>
</g>
<!-- Node15&#45;&gt;Node14 -->
<g id="edge19" class="edge">
<title>Node15&#45;&gt;Node14</title>
<path fill="none" stroke="midnightblue" d="M199.07,-112.08C191.64,-104.22 180.64,-92.57 171.68,-83.08"/>
<polygon fill="midnightblue" stroke="midnightblue" points="174.16,-80.62 164.75,-75.75 169.08,-85.42 174.16,-80.62"/>
</g>
<!-- Node16&#45;&gt;Node6 -->
<g id="edge22" class="edge">
<title>Node16&#45;&gt;Node6</title>
<path fill="none" stroke="midnightblue" d="M218.87,-56.08C214.12,-48.53 207.17,-37.49 201.34,-28.23"/>
<polygon fill="midnightblue" stroke="midnightblue" points="204.29,-26.35 196,-19.75 198.37,-30.08 204.29,-26.35"/>
</g>
</g>
</svg>
        <g id="navigator" transform="translate(0 0)" fill="#404254">
                <rect fill="#f2f5e9" fill-opacity="0.5" stroke="#606060" stroke-width=".5" x="0" y="0" width="60" height="60"/>
                <use id="zoomplus" xlink:href="#zoomPlus" x="17" y="9" onmousedown="handleZoom(evt,'in')"/>
                <use id="zoomminus" xlink:href="#zoomMin" x="42" y="9" onmousedown="handleZoom(evt,'out')"/>
                <use id="reset" xlink:href="#resetDef" x="30" y="36" onmousedown="handleReset()"/>
                <g id="arrowUp" xlink:href="#dirArrow" transform="translate(30 24)" onmousedown="handlePan(0,-1)">
                  <use xlink:href="#rim" fill="#404040">
                        <set attributeName="fill" to="#808080" begin="arrowUp.mouseover" end="arrowUp.mouseout"/>
                  </use>
                  <path fill="none" stroke="white" stroke-width="1.5" d="M0,-3.0v7 M-2.5,-0.5L0,-3.0L2.5,-0.5"/>
                </g>
                <g id="arrowRight" xlink:href="#dirArrow" transform="rotate(90) translate(36 -43)" onmousedown="handlePan(1,0)">
                  <use xlink:href="#rim" fill="#404040">
                        <set attributeName="fill" to="#808080" begin="arrowRight.mouseover" end="arrowRight.mouseout"/>
                  </use>
                  <path fill="none" stroke="white" stroke-width="1.5" d="M0,-3.0v7 M-2.5,-0.5L0,-3.0L2.5,-0.5"/>
                </g>
                <g id="arrowDown" xlink:href="#dirArrow" transform="rotate(180) translate(-30 -48)" onmousedown="handlePan(0,1)">
                  <use xlink:href="#rim" fill="#404040">
                        <set attributeName="fill" to="#808080" begin="arrowDown.mouseover" end="arrowDown.mouseout"/>
                  </use>
                  <path fill="none" stroke="white" stroke-width="1.5" d="M0,-3.0v7 M-2.5,-0.5L0,-3.0L2.5,-0.5"/>
                </g>
                <g id="arrowLeft" xlink:href="#dirArrow" transform="rotate(270) translate(-36 17)" onmousedown="handlePan(-1,0)">
                  <use xlink:href="#rim" fill="#404040">
                        <set attributeName="fill" to="#808080" begin="arrowLeft.mouseover" end="arrowLeft.mouseout"/>
                  </use>
                  <path fill="none" stroke="white" stroke-width="1.5" d="M0,-3.0v7 M-2.5,-0.5L0,-3.0L2.5,-0.5"/>
                </g>
        </g>
        <svg viewBox="0 0 15 15" width="100%" height="30px" preserveAspectRatio="xMaxYMin meet">
         <g id="arrow_out" transform="scale(0.3 0.3)">
          <a xlink:href="_sif_iop_reboot_buffer_8c__incl_org.svg" target="_base">
           <rect id="button" ry="5" rx="5" y="6" x="6" height="38" width="38"
                fill="#f2f5e9" fill-opacity="0.5" stroke="#606060" stroke-width="1.0"/>
           <path id="arrow"
             d="M 11.500037,31.436501 C 11.940474,20.09759 22.043105,11.32322 32.158766,21.979434 L 37.068811,17.246167 C 37.068811,17.246167 37.088388,32 37.088388,32 L 22.160133,31.978069 C 22.160133,31.978069 26.997745,27.140456 26.997745,27.140456 C 18.528582,18.264221 13.291696,25.230495 11.500037,31.436501 z"
             style="fill:#404040;"/>
          </a>
         </g>
        </svg>
</svg>
