<?xml version="1.0" encoding="UTF-8" standalone="no"?>
<!DOCTYPE svg PUBLIC "-//W3C//DTD SVG 1.1//EN"
 "http://www.w3.org/Graphics/SVG/1.1/DTD/svg11.dtd">
<!-- Generated by graphviz version 2.46.1 (20210215.1649)
 -->
<!-- Title: iop/system/alloc/src/alloc.c Pages: 1 -->
<svg width="543pt" height="319pt"
 viewBox="0.00 0.00 542.50 319.00" xmlns="http://www.w3.org/2000/svg" xmlns:xlink="http://www.w3.org/1999/xlink">
<g id="graph0" class="graph" transform="scale(1 1) rotate(0) translate(4 315)">
<title>iop/system/alloc/src/alloc.c</title>
<polygon fill="white" stroke="transparent" points="-4,4 -4,-315 538.5,-315 538.5,4 -4,4"/>
<!-- Node1 -->
<g id="node1" class="node">
<title>Node1</title>
<g id="a_node1"><a xlink:title=" ">
<polygon fill="#bfbfbf" stroke="black" points="366,-280.5 366,-310.5 470,-310.5 470,-280.5 366,-280.5"/>
<text text-anchor="start" x="374" y="-298.5" font-family="Helvetica,sans-Serif" font-size="10.00">iop/system/alloc/src</text>
<text text-anchor="middle" x="418" y="-287.5" font-family="Helvetica,sans-Serif" font-size="10.00">/alloc.c</text>
</a>
</g>
</g>
<!-- Node2 -->
<g id="node2" class="node">
<title>Node2</title>
<g id="a_node2"><a xlink:title=" ">
<polygon fill="white" stroke="#bfbfbf" points="262.5,-112.5 262.5,-131.5 313.5,-131.5 313.5,-112.5 262.5,-112.5"/>
<text text-anchor="middle" x="288" y="-119.5" font-family="Helvetica,sans-Serif" font-size="10.00">stdarg.h</text>
</a>
</g>
</g>
<!-- Node1&#45;&gt;Node2 -->
<g id="edge1" class="edge">
<title>Node1&#45;&gt;Node2</title>
<path fill="none" stroke="midnightblue" d="M427.22,-280.39C442.4,-255.22 468.54,-202.01 443,-168 428.65,-148.89 364.63,-135.27 323.49,-128.31"/>
<polygon fill="midnightblue" stroke="midnightblue" points="324,-124.85 313.56,-126.68 322.86,-131.75 324,-124.85"/>
</g>
<!-- Node3 -->
<g id="node3" class="node">
<title>Node3</title>
<g id="a_node3"><a xlink:title=" ">
<polygon fill="white" stroke="#bfbfbf" points="387.5,-168.5 387.5,-187.5 434.5,-187.5 434.5,-168.5 387.5,-168.5"/>
<text text-anchor="middle" x="411" y="-175.5" font-family="Helvetica,sans-Serif" font-size="10.00">types.h</text>
</a>
</g>
</g>
<!-- Node1&#45;&gt;Node3 -->
<g id="edge2" class="edge">
<title>Node1&#45;&gt;Node3</title>
<path fill="none" stroke="midnightblue" d="M417.14,-280.34C415.89,-259.62 413.55,-221.02 412.15,-197.9"/>
<polygon fill="midnightblue" stroke="midnightblue" points="415.62,-197.44 411.53,-187.67 408.64,-197.86 415.62,-197.44"/>
</g>
<!-- Node4 -->
<g id="node4" class="node">
<title>Node4</title>
<g id="a_node4"><a xlink:href="defs_8h.html" target="_top" xlink:title=" ">
<polygon fill="white" stroke="black" points="491.5,-224.5 491.5,-243.5 534.5,-243.5 534.5,-224.5 491.5,-224.5"/>
<text text-anchor="middle" x="513" y="-231.5" font-family="Helvetica,sans-Serif" font-size="10.00">defs.h</text>
</a>
</g>
</g>
<!-- Node1&#45;&gt;Node4 -->
<g id="edge3" class="edge">
<title>Node1&#45;&gt;Node4</title>
<path fill="none" stroke="midnightblue" d="M440.51,-280.4C455.6,-270.95 475.39,-258.56 490.47,-249.11"/>
<polygon fill="midnightblue" stroke="midnightblue" points="492.56,-251.93 499.18,-243.66 488.84,-246 492.56,-251.93"/>
</g>
<!-- Node8 -->
<g id="node8" class="node">
<title>Node8</title>
<g id="a_node8"><a xlink:href="alloc_8h.html" target="_top" xlink:title=" ">
<polygon fill="white" stroke="black" points="346,-224.5 346,-243.5 390,-243.5 390,-224.5 346,-224.5"/>
<text text-anchor="middle" x="368" y="-231.5" font-family="Helvetica,sans-Serif" font-size="10.00">alloc.h</text>
</a>
</g>
</g>
<!-- Node1&#45;&gt;Node8 -->
<g id="edge7" class="edge">
<title>Node1&#45;&gt;Node8</title>
<path fill="none" stroke="midnightblue" d="M406.15,-280.4C398.89,-271.75 389.55,-260.64 381.93,-251.58"/>
<polygon fill="midnightblue" stroke="midnightblue" points="384.39,-249.06 375.28,-243.66 379.03,-253.57 384.39,-249.06"/>
</g>
<!-- Node10 -->
<g id="node10" class="node">
<title>Node10</title>
<g id="a_node10"><a xlink:href="iop_2system_2alloc_2src_2irx__imports_8h_source.html" target="_top" xlink:title=" ">
<polygon fill="white" stroke="black" points="153.5,-224.5 153.5,-243.5 224.5,-243.5 224.5,-224.5 153.5,-224.5"/>
<text text-anchor="middle" x="189" y="-231.5" font-family="Helvetica,sans-Serif" font-size="10.00">irx_imports.h</text>
</a>
</g>
</g>
<!-- Node1&#45;&gt;Node10 -->
<g id="edge11" class="edge">
<title>Node1&#45;&gt;Node10</title>
<path fill="none" stroke="midnightblue" d="M365.75,-280.92C325.16,-270.38 269.56,-255.93 231.63,-246.08"/>
<polygon fill="midnightblue" stroke="midnightblue" points="232.47,-242.68 221.91,-243.55 230.71,-249.45 232.47,-242.68"/>
</g>
<!-- Node5 -->
<g id="node5" class="node">
<title>Node5</title>
<g id="a_node5"><a xlink:href="types_8h_source.html" target="_top" xlink:title=" ">
<polygon fill="white" stroke="black" points="210.5,-56.5 210.5,-75.5 257.5,-75.5 257.5,-56.5 210.5,-56.5"/>
<text text-anchor="middle" x="234" y="-63.5" font-family="Helvetica,sans-Serif" font-size="10.00">types.h</text>
</a>
</g>
</g>
<!-- Node4&#45;&gt;Node5 -->
<g id="edge4" class="edge">
<title>Node4&#45;&gt;Node5</title>
<path fill="none" stroke="midnightblue" d="M508.07,-224.36C499.97,-210.81 482.67,-184.41 462,-168 401.51,-119.97 314.6,-89.83 267.47,-75.97"/>
<polygon fill="midnightblue" stroke="midnightblue" points="268.34,-72.58 257.76,-73.19 266.41,-79.31 268.34,-72.58"/>
</g>
<!-- Node6 -->
<g id="node6" class="node">
<title>Node6</title>
<g id="a_node6"><a xlink:title=" ">
<polygon fill="white" stroke="#bfbfbf" points="208.5,-0.5 208.5,-19.5 259.5,-19.5 259.5,-0.5 208.5,-0.5"/>
<text text-anchor="middle" x="234" y="-7.5" font-family="Helvetica,sans-Serif" font-size="10.00">stddef.h</text>
</a>
</g>
</g>
<!-- Node5&#45;&gt;Node6 -->
<g id="edge5" class="edge">
<title>Node5&#45;&gt;Node6</title>
<path fill="none" stroke="midnightblue" d="M234,-56.08C234,-49.01 234,-38.86 234,-29.99"/>
<polygon fill="midnightblue" stroke="midnightblue" points="237.5,-29.75 234,-19.75 230.5,-29.75 237.5,-29.75"/>
</g>
<!-- Node7 -->
<g id="node7" class="node">
<title>Node7</title>
<g id="a_node7"><a xlink:href="tamtypes_8h.html" target="_top" xlink:title=" ">
<polygon fill="white" stroke="black" points="313,-0.5 313,-19.5 377,-19.5 377,-0.5 313,-0.5"/>
<text text-anchor="middle" x="345" y="-7.5" font-family="Helvetica,sans-Serif" font-size="10.00">tamtypes.h</text>
</a>
</g>
</g>
<!-- Node5&#45;&gt;Node7 -->
<g id="edge6" class="edge">
<title>Node5&#45;&gt;Node7</title>
<path fill="none" stroke="midnightblue" d="M251.83,-56.32C269.72,-47.62 297.48,-34.12 318.05,-24.11"/>
<polygon fill="midnightblue" stroke="midnightblue" points="319.75,-27.18 327.21,-19.65 316.69,-20.88 319.75,-27.18"/>
</g>
<!-- Node8&#45;&gt;Node3 -->
<g id="edge8" class="edge">
<title>Node8&#45;&gt;Node3</title>
<path fill="none" stroke="midnightblue" d="M375.1,-224.08C381.24,-216.38 390.27,-205.03 397.74,-195.65"/>
<polygon fill="midnightblue" stroke="midnightblue" points="400.54,-197.75 404.03,-187.75 395.06,-193.39 400.54,-197.75"/>
</g>
<!-- Node9 -->
<g id="node9" class="node">
<title>Node9</title>
<g id="a_node9"><a xlink:href="irx_8h.html" target="_top" xlink:title=" ">
<polygon fill="white" stroke="black" points="172,-112.5 172,-131.5 206,-131.5 206,-112.5 172,-112.5"/>
<text text-anchor="middle" x="189" y="-119.5" font-family="Helvetica,sans-Serif" font-size="10.00">irx.h</text>
</a>
</g>
</g>
<!-- Node8&#45;&gt;Node9 -->
<g id="edge9" class="edge">
<title>Node8&#45;&gt;Node9</title>
<path fill="none" stroke="midnightblue" d="M355.05,-224.38C335.96,-211.74 299.05,-187.54 267,-168 249.2,-157.15 228.79,-145.39 213.31,-136.62"/>
<polygon fill="midnightblue" stroke="midnightblue" points="214.8,-133.45 204.37,-131.58 211.36,-139.54 214.8,-133.45"/>
</g>
<!-- Node9&#45;&gt;Node5 -->
<g id="edge10" class="edge">
<title>Node9&#45;&gt;Node5</title>
<path fill="none" stroke="midnightblue" d="M196.43,-112.08C202.85,-104.38 212.31,-93.03 220.12,-83.65"/>
<polygon fill="midnightblue" stroke="midnightblue" points="222.99,-85.67 226.71,-75.75 217.62,-81.19 222.99,-85.67"/>
</g>
<!-- Node10&#45;&gt;Node9 -->
<g id="edge12" class="edge">
<title>Node10&#45;&gt;Node9</title>
<path fill="none" stroke="midnightblue" d="M158.75,-224.49C140.87,-217.73 119.7,-206.29 109,-188 93.73,-161.88 133.52,-141.91 162.31,-131.36"/>
<polygon fill="midnightblue" stroke="midnightblue" points="163.62,-134.61 171.92,-128.03 161.33,-128 163.62,-134.61"/>
</g>
<!-- Node11 -->
<g id="node11" class="node">
<title>Node11</title>
<g id="a_node11"><a xlink:href="loadcore_8h.html" target="_top" xlink:title=" ">
<polygon fill="white" stroke="black" points="197.5,-168.5 197.5,-187.5 258.5,-187.5 258.5,-168.5 197.5,-168.5"/>
<text text-anchor="middle" x="228" y="-175.5" font-family="Helvetica,sans-Serif" font-size="10.00">loadcore.h</text>
</a>
</g>
</g>
<!-- Node10&#45;&gt;Node11 -->
<g id="edge13" class="edge">
<title>Node10&#45;&gt;Node11</title>
<path fill="none" stroke="midnightblue" d="M195.44,-224.08C200.95,-216.46 209.03,-205.26 215.76,-195.94"/>
<polygon fill="midnightblue" stroke="midnightblue" points="218.66,-197.91 221.68,-187.75 212.99,-193.81 218.66,-197.91"/>
</g>
<!-- Node12 -->
<g id="node12" class="node">
<title>Node12</title>
<g id="a_node12"><a xlink:href="sysmem_8h.html" target="_top" xlink:title=" ">
<polygon fill="white" stroke="black" points="118.5,-168.5 118.5,-187.5 179.5,-187.5 179.5,-168.5 118.5,-168.5"/>
<text text-anchor="middle" x="149" y="-175.5" font-family="Helvetica,sans-Serif" font-size="10.00">sysmem.h</text>
</a>
</g>
</g>
<!-- Node10&#45;&gt;Node12 -->
<g id="edge16" class="edge">
<title>Node10&#45;&gt;Node12</title>
<path fill="none" stroke="midnightblue" d="M182.39,-224.08C176.74,-216.46 168.46,-205.26 161.55,-195.94"/>
<polygon fill="midnightblue" stroke="midnightblue" points="164.25,-193.7 155.48,-187.75 158.62,-197.87 164.25,-193.7"/>
</g>
<!-- Node13 -->
<g id="node13" class="node">
<title>Node13</title>
<g id="a_node13"><a xlink:href="sysclib_8h.html" target="_top" xlink:title=" ">
<polygon fill="white" stroke="black" points="315,-168.5 315,-187.5 369,-187.5 369,-168.5 315,-168.5"/>
<text text-anchor="middle" x="342" y="-175.5" font-family="Helvetica,sans-Serif" font-size="10.00">sysclib.h</text>
</a>
</g>
</g>
<!-- Node10&#45;&gt;Node13 -->
<g id="edge20" class="edge">
<title>Node10&#45;&gt;Node13</title>
<path fill="none" stroke="midnightblue" d="M213.24,-224.44C238.87,-215.4 279.49,-201.06 308.24,-190.92"/>
<polygon fill="midnightblue" stroke="midnightblue" points="309.61,-194.15 317.87,-187.52 307.28,-187.54 309.61,-194.15"/>
</g>
<!-- Node15 -->
<g id="node15" class="node">
<title>Node15</title>
<g id="a_node15"><a xlink:href="thsemap_8h.html" target="_top" xlink:title=" ">
<polygon fill="white" stroke="black" points="0,-168.5 0,-187.5 62,-187.5 62,-168.5 0,-168.5"/>
<text text-anchor="middle" x="31" y="-175.5" font-family="Helvetica,sans-Serif" font-size="10.00">thsemap.h</text>
</a>
</g>
</g>
<!-- Node10&#45;&gt;Node15 -->
<g id="edge26" class="edge">
<title>Node10&#45;&gt;Node15</title>
<path fill="none" stroke="midnightblue" d="M163.96,-224.44C137.38,-215.36 95.19,-200.94 65.48,-190.78"/>
<polygon fill="midnightblue" stroke="midnightblue" points="66.51,-187.44 55.92,-187.52 64.25,-194.06 66.51,-187.44"/>
</g>
<!-- Node11&#45;&gt;Node5 -->
<g id="edge14" class="edge">
<title>Node11&#45;&gt;Node5</title>
<path fill="none" stroke="midnightblue" d="M228.47,-168.37C229.44,-150.62 231.67,-109.67 232.99,-85.6"/>
<polygon fill="midnightblue" stroke="midnightblue" points="236.48,-85.77 233.53,-75.59 229.49,-85.39 236.48,-85.77"/>
</g>
<!-- Node11&#45;&gt;Node9 -->
<g id="edge15" class="edge">
<title>Node11&#45;&gt;Node9</title>
<path fill="none" stroke="midnightblue" d="M221.56,-168.08C216.05,-160.46 207.97,-149.26 201.24,-139.94"/>
<polygon fill="midnightblue" stroke="midnightblue" points="204.01,-137.81 195.32,-131.75 198.34,-141.91 204.01,-137.81"/>
</g>
<!-- Node12&#45;&gt;Node2 -->
<g id="edge19" class="edge">
<title>Node12&#45;&gt;Node2</title>
<path fill="none" stroke="midnightblue" d="M171.02,-168.44C194.1,-159.48 230.56,-145.31 256.64,-135.18"/>
<polygon fill="midnightblue" stroke="midnightblue" points="258.02,-138.4 266.08,-131.52 255.49,-131.88 258.02,-138.4"/>
</g>
<!-- Node12&#45;&gt;Node5 -->
<g id="edge17" class="edge">
<title>Node12&#45;&gt;Node5</title>
<path fill="none" stroke="midnightblue" d="M148.82,-168.17C148.98,-154.82 150.98,-129.23 163,-112 172.79,-97.96 188.52,-87.34 202.68,-79.95"/>
<polygon fill="midnightblue" stroke="midnightblue" points="204.24,-83.09 211.69,-75.56 201.17,-76.8 204.24,-83.09"/>
</g>
<!-- Node12&#45;&gt;Node9 -->
<g id="edge18" class="edge">
<title>Node12&#45;&gt;Node9</title>
<path fill="none" stroke="midnightblue" d="M155.61,-168.08C161.26,-160.46 169.54,-149.26 176.45,-139.94"/>
<polygon fill="midnightblue" stroke="midnightblue" points="179.38,-141.87 182.52,-131.75 173.75,-137.7 179.38,-141.87"/>
</g>
<!-- Node13&#45;&gt;Node2 -->
<g id="edge23" class="edge">
<title>Node13&#45;&gt;Node2</title>
<path fill="none" stroke="midnightblue" d="M333.08,-168.08C325.22,-160.22 313.57,-148.57 304.08,-139.08"/>
<polygon fill="midnightblue" stroke="midnightblue" points="306.3,-136.35 296.75,-131.75 301.35,-141.3 306.3,-136.35"/>
</g>
<!-- Node13&#45;&gt;Node5 -->
<g id="edge21" class="edge">
<title>Node13&#45;&gt;Node5</title>
<path fill="none" stroke="midnightblue" d="M341.46,-168.42C340.19,-154.94 335.97,-128.64 322,-112 307.88,-95.18 285.88,-83.93 267.41,-76.88"/>
<polygon fill="midnightblue" stroke="midnightblue" points="268.46,-73.54 257.86,-73.48 266.11,-80.14 268.46,-73.54"/>
</g>
<!-- Node13&#45;&gt;Node9 -->
<g id="edge22" class="edge">
<title>Node13&#45;&gt;Node9</title>
<path fill="none" stroke="midnightblue" d="M317.76,-168.44C289.99,-158.64 244.63,-142.63 215.82,-132.47"/>
<polygon fill="midnightblue" stroke="midnightblue" points="216.62,-129.04 206.02,-129.01 214.29,-135.64 216.62,-129.04"/>
</g>
<!-- Node14 -->
<g id="node14" class="node">
<title>Node14</title>
<g id="a_node14"><a xlink:href="setjmp_8h.html" target="_top" xlink:title=" ">
<polygon fill="white" stroke="black" points="335.5,-56.5 335.5,-75.5 388.5,-75.5 388.5,-56.5 335.5,-56.5"/>
<text text-anchor="middle" x="362" y="-63.5" font-family="Helvetica,sans-Serif" font-size="10.00">setjmp.h</text>
</a>
</g>
</g>
<!-- Node13&#45;&gt;Node14 -->
<g id="edge24" class="edge">
<title>Node13&#45;&gt;Node14</title>
<path fill="none" stroke="midnightblue" d="M345.35,-168.18C348.61,-159.21 353.44,-144.84 356,-132 359.05,-116.7 360.56,-99.06 361.3,-86.02"/>
<polygon fill="midnightblue" stroke="midnightblue" points="364.8,-86.07 361.77,-75.92 357.8,-85.74 364.8,-86.07"/>
</g>
<!-- Node14&#45;&gt;Node7 -->
<g id="edge25" class="edge">
<title>Node14&#45;&gt;Node7</title>
<path fill="none" stroke="midnightblue" d="M359.19,-56.08C356.92,-48.85 353.63,-38.41 350.79,-29.4"/>
<polygon fill="midnightblue" stroke="midnightblue" points="354.1,-28.24 347.75,-19.75 347.42,-30.34 354.1,-28.24"/>
</g>
<!-- Node15&#45;&gt;Node5 -->
<g id="edge27" class="edge">
<title>Node15&#45;&gt;Node5</title>
<path fill="none" stroke="midnightblue" d="M46.76,-168.34C69.52,-155.84 112.94,-132.05 150,-112 169.71,-101.34 192.07,-89.37 208.76,-80.45"/>
<polygon fill="midnightblue" stroke="midnightblue" points="210.7,-83.38 217.88,-75.59 207.41,-77.21 210.7,-83.38"/>
</g>
<!-- Node15&#45;&gt;Node9 -->
<g id="edge28" class="edge">
<title>Node15&#45;&gt;Node9</title>
<path fill="none" stroke="midnightblue" d="M56.04,-168.44C84.99,-158.55 132.47,-142.32 162.17,-132.17"/>
<polygon fill="midnightblue" stroke="midnightblue" points="163.54,-135.4 171.87,-128.85 161.28,-128.78 163.54,-135.4"/>
</g>
</g>
</svg>
