<?xml version="1.0" encoding="UTF-8" standalone="no"?>
<!DOCTYPE svg PUBLIC "-//W3C//DTD SVG 1.1//EN"
 "http://www.w3.org/Graphics/SVG/1.1/DTD/svg11.dtd">
<!-- Generated by graphviz version 2.46.1 (20210215.1649)
 -->
<!-- Title: iop/sound/audsrv/src/audsrv.c Pages: 1 -->
<svg width="1282pt" height="263pt"
 viewBox="0.00 0.00 1282.00 263.00" xmlns="http://www.w3.org/2000/svg" xmlns:xlink="http://www.w3.org/1999/xlink">
<g id="graph0" class="graph" transform="scale(1 1) rotate(0) translate(4 259)">
<title>iop/sound/audsrv/src/audsrv.c</title>
<polygon fill="white" stroke="transparent" points="-4,4 -4,-259 1278,-259 1278,4 -4,4"/>
<!-- Node1 -->
<g id="node1" class="node">
<title>Node1</title>
<g id="a_node1"><a xlink:title=" ">
<polygon fill="#bfbfbf" stroke="black" points="560.5,-224.5 560.5,-254.5 667.5,-254.5 667.5,-224.5 560.5,-224.5"/>
<text text-anchor="start" x="568.5" y="-242.5" font-family="Helvetica,sans-Serif" font-size="10.00">iop/sound/audsrv/src</text>
<text text-anchor="middle" x="614" y="-231.5" font-family="Helvetica,sans-Serif" font-size="10.00">/audsrv.c</text>
</a>
</g>
</g>
<!-- Node2 -->
<g id="node2" class="node">
<title>Node2</title>
<g id="a_node2"><a xlink:href="stdio_8h.html" target="_top" xlink:title=" ">
<polygon fill="white" stroke="black" points="384.5,-168.5 384.5,-187.5 429.5,-187.5 429.5,-168.5 384.5,-168.5"/>
<text text-anchor="middle" x="407" y="-175.5" font-family="Helvetica,sans-Serif" font-size="10.00">stdio.h</text>
</a>
</g>
</g>
<!-- Node1&#45;&gt;Node2 -->
<g id="edge1" class="edge">
<title>Node1&#45;&gt;Node2</title>
<path fill="none" stroke="midnightblue" d="M565.21,-224.47C526.43,-213.33 473.27,-198.05 439.53,-188.35"/>
<polygon fill="midnightblue" stroke="midnightblue" points="440.29,-184.93 429.71,-185.53 438.36,-191.66 440.29,-184.93"/>
</g>
<!-- Node8 -->
<g id="node8" class="node">
<title>Node8</title>
<g id="a_node8"><a xlink:href="thbase_8h.html" target="_top" xlink:title=" ">
<polygon fill="white" stroke="black" points="234.5,-168.5 234.5,-187.5 287.5,-187.5 287.5,-168.5 234.5,-168.5"/>
<text text-anchor="middle" x="261" y="-175.5" font-family="Helvetica,sans-Serif" font-size="10.00">thbase.h</text>
</a>
</g>
</g>
<!-- Node1&#45;&gt;Node8 -->
<g id="edge7" class="edge">
<title>Node1&#45;&gt;Node8</title>
<path fill="none" stroke="midnightblue" d="M560.46,-231.42C499.27,-223 395.93,-207.81 297.49,-187.94"/>
<polygon fill="midnightblue" stroke="midnightblue" points="298.17,-184.51 287.68,-185.94 296.78,-191.37 298.17,-184.51"/>
</g>
<!-- Node9 -->
<g id="node9" class="node">
<title>Node9</title>
<g id="a_node9"><a xlink:href="thsemap_8h.html" target="_top" xlink:title=" ">
<polygon fill="white" stroke="black" points="0,-168.5 0,-187.5 62,-187.5 62,-168.5 0,-168.5"/>
<text text-anchor="middle" x="31" y="-175.5" font-family="Helvetica,sans-Serif" font-size="10.00">thsemap.h</text>
</a>
</g>
</g>
<!-- Node1&#45;&gt;Node9 -->
<g id="edge10" class="edge">
<title>Node1&#45;&gt;Node9</title>
<path fill="none" stroke="midnightblue" d="M560.15,-235.79C464.05,-230.46 256.58,-216.68 72.51,-188.05"/>
<polygon fill="midnightblue" stroke="midnightblue" points="72.79,-184.56 62.37,-186.46 71.7,-191.47 72.79,-184.56"/>
</g>
<!-- Node10 -->
<g id="node10" class="node">
<title>Node10</title>
<g id="a_node10"><a xlink:href="loadcore_8h.html" target="_top" xlink:title=" ">
<polygon fill="white" stroke="black" points="80.5,-168.5 80.5,-187.5 141.5,-187.5 141.5,-168.5 80.5,-168.5"/>
<text text-anchor="middle" x="111" y="-175.5" font-family="Helvetica,sans-Serif" font-size="10.00">loadcore.h</text>
</a>
</g>
</g>
<!-- Node1&#45;&gt;Node10 -->
<g id="edge13" class="edge">
<title>Node1&#45;&gt;Node10</title>
<path fill="none" stroke="midnightblue" d="M560.26,-234.62C475.55,-228.06 305.66,-213.16 151.63,-187.91"/>
<polygon fill="midnightblue" stroke="midnightblue" points="151.94,-184.42 141.51,-186.24 150.8,-191.32 151.94,-184.42"/>
</g>
<!-- Node11 -->
<g id="node11" class="node">
<title>Node11</title>
<g id="a_node11"><a xlink:href="sysmem_8h.html" target="_top" xlink:title=" ">
<polygon fill="white" stroke="black" points="305.5,-168.5 305.5,-187.5 366.5,-187.5 366.5,-168.5 305.5,-168.5"/>
<text text-anchor="middle" x="336" y="-175.5" font-family="Helvetica,sans-Serif" font-size="10.00">sysmem.h</text>
</a>
</g>
</g>
<!-- Node1&#45;&gt;Node11 -->
<g id="edge16" class="edge">
<title>Node1&#45;&gt;Node11</title>
<path fill="none" stroke="midnightblue" d="M560.08,-227.26C513.98,-217.6 445.62,-203.17 376.34,-188.05"/>
<polygon fill="midnightblue" stroke="midnightblue" points="377.08,-184.63 366.57,-185.92 375.59,-191.47 377.08,-184.63"/>
</g>
<!-- Node12 -->
<g id="node12" class="node">
<title>Node12</title>
<g id="a_node12"><a xlink:href="intrman_8h.html" target="_top" xlink:title=" ">
<polygon fill="white" stroke="black" points="160,-168.5 160,-187.5 216,-187.5 216,-168.5 160,-168.5"/>
<text text-anchor="middle" x="188" y="-175.5" font-family="Helvetica,sans-Serif" font-size="10.00">intrman.h</text>
</a>
</g>
</g>
<!-- Node1&#45;&gt;Node12 -->
<g id="edge20" class="edge">
<title>Node1&#45;&gt;Node12</title>
<path fill="none" stroke="midnightblue" d="M560.22,-233.4C486.88,-226.03 351.24,-210.92 226.34,-188.07"/>
<polygon fill="midnightblue" stroke="midnightblue" points="226.68,-184.58 216.21,-186.2 225.41,-191.46 226.68,-184.58"/>
</g>
<!-- Node13 -->
<g id="node13" class="node">
<title>Node13</title>
<g id="a_node13"><a xlink:title=" ">
<polygon fill="white" stroke="#bfbfbf" points="520.5,-168.5 520.5,-187.5 573.5,-187.5 573.5,-168.5 520.5,-168.5"/>
<text text-anchor="middle" x="547" y="-175.5" font-family="Helvetica,sans-Serif" font-size="10.00">sifcmd.h</text>
</a>
</g>
</g>
<!-- Node1&#45;&gt;Node13 -->
<g id="edge23" class="edge">
<title>Node1&#45;&gt;Node13</title>
<path fill="none" stroke="midnightblue" d="M598.12,-224.4C587.98,-215.4 574.84,-203.72 564.41,-194.47"/>
<polygon fill="midnightblue" stroke="midnightblue" points="566.55,-191.68 556.75,-187.66 561.9,-196.92 566.55,-191.68"/>
</g>
<!-- Node14 -->
<g id="node14" class="node">
<title>Node14</title>
<g id="a_node14"><a xlink:title=" ">
<polygon fill="white" stroke="#bfbfbf" points="592,-168.5 592,-187.5 636,-187.5 636,-168.5 592,-168.5"/>
<text text-anchor="middle" x="614" y="-175.5" font-family="Helvetica,sans-Serif" font-size="10.00">libsd.h</text>
</a>
</g>
</g>
<!-- Node1&#45;&gt;Node14 -->
<g id="edge24" class="edge">
<title>Node1&#45;&gt;Node14</title>
<path fill="none" stroke="midnightblue" d="M614,-224.4C614,-216.47 614,-206.46 614,-197.86"/>
<polygon fill="midnightblue" stroke="midnightblue" points="617.5,-197.66 614,-187.66 610.5,-197.66 617.5,-197.66"/>
</g>
<!-- Node15 -->
<g id="node15" class="node">
<title>Node15</title>
<g id="a_node15"><a xlink:href="sysclib_8h.html" target="_top" xlink:title=" ">
<polygon fill="white" stroke="black" points="448,-168.5 448,-187.5 502,-187.5 502,-168.5 448,-168.5"/>
<text text-anchor="middle" x="475" y="-175.5" font-family="Helvetica,sans-Serif" font-size="10.00">sysclib.h</text>
</a>
</g>
</g>
<!-- Node1&#45;&gt;Node15 -->
<g id="edge25" class="edge">
<title>Node1&#45;&gt;Node15</title>
<path fill="none" stroke="midnightblue" d="M581.06,-224.4C557.84,-214.46 527.01,-201.26 504.58,-191.66"/>
<polygon fill="midnightblue" stroke="midnightblue" points="505.8,-188.38 495.23,-187.66 503.04,-194.81 505.8,-188.38"/>
</g>
<!-- Node17 -->
<g id="node17" class="node">
<title>Node17</title>
<g id="a_node17"><a xlink:title=" ">
<polygon fill="white" stroke="#bfbfbf" points="654.5,-168.5 654.5,-187.5 707.5,-187.5 707.5,-168.5 654.5,-168.5"/>
<text text-anchor="middle" x="681" y="-175.5" font-family="Helvetica,sans-Serif" font-size="10.00">audsrv.h</text>
</a>
</g>
</g>
<!-- Node1&#45;&gt;Node17 -->
<g id="edge31" class="edge">
<title>Node1&#45;&gt;Node17</title>
<path fill="none" stroke="midnightblue" d="M629.88,-224.4C640.02,-215.4 653.16,-203.72 663.59,-194.47"/>
<polygon fill="midnightblue" stroke="midnightblue" points="666.1,-196.92 671.25,-187.66 661.45,-191.68 666.1,-196.92"/>
</g>
<!-- Node18 -->
<g id="node18" class="node">
<title>Node18</title>
<g id="a_node18"><a xlink:href="audsrv__internal_8h.html" target="_top" xlink:title=" ">
<polygon fill="white" stroke="black" points="726,-168.5 726,-187.5 816,-187.5 816,-168.5 726,-168.5"/>
<text text-anchor="middle" x="771" y="-175.5" font-family="Helvetica,sans-Serif" font-size="10.00">audsrv_internal.h</text>
</a>
</g>
</g>
<!-- Node1&#45;&gt;Node18 -->
<g id="edge32" class="edge">
<title>Node1&#45;&gt;Node18</title>
<path fill="none" stroke="midnightblue" d="M651.21,-224.4C677.78,-214.33 713.19,-200.91 738.61,-191.28"/>
<polygon fill="midnightblue" stroke="midnightblue" points="740.04,-194.47 748.16,-187.66 737.56,-187.93 740.04,-194.47"/>
</g>
<!-- Node19 -->
<g id="node19" class="node">
<title>Node19</title>
<g id="a_node19"><a xlink:href="iop_2sound_2audsrv_2src_2common_8h.html" target="_top" xlink:title=" ">
<polygon fill="white" stroke="black" points="834,-168.5 834,-187.5 896,-187.5 896,-168.5 834,-168.5"/>
<text text-anchor="middle" x="865" y="-175.5" font-family="Helvetica,sans-Serif" font-size="10.00">common.h</text>
</a>
</g>
</g>
<!-- Node1&#45;&gt;Node19 -->
<g id="edge33" class="edge">
<title>Node1&#45;&gt;Node19</title>
<path fill="none" stroke="midnightblue" d="M667.54,-225.81C714.32,-214.72 781.26,-198.85 823.92,-188.74"/>
<polygon fill="midnightblue" stroke="midnightblue" points="824.77,-192.13 833.69,-186.42 823.16,-185.32 824.77,-192.13"/>
</g>
<!-- Node20 -->
<g id="node20" class="node">
<title>Node20</title>
<g id="a_node20"><a xlink:href="iop_2sound_2audsrv_2src_2rpc__server_8h.html" target="_top" xlink:title=" ">
<polygon fill="white" stroke="black" points="914,-168.5 914,-187.5 984,-187.5 984,-168.5 914,-168.5"/>
<text text-anchor="middle" x="949" y="-175.5" font-family="Helvetica,sans-Serif" font-size="10.00">rpc_server.h</text>
</a>
</g>
</g>
<!-- Node1&#45;&gt;Node20 -->
<g id="edge34" class="edge">
<title>Node1&#45;&gt;Node20</title>
<path fill="none" stroke="midnightblue" d="M667.72,-229.67C724.07,-220.3 815.47,-204.79 904.01,-188.14"/>
<polygon fill="midnightblue" stroke="midnightblue" points="904.78,-191.56 913.95,-186.27 903.48,-184.68 904.78,-191.56"/>
</g>
<!-- Node21 -->
<g id="node21" class="node">
<title>Node21</title>
<g id="a_node21"><a xlink:href="iop_2sound_2audsrv_2src_2rpc__client_8h.html" target="_top" xlink:title=" ">
<polygon fill="white" stroke="black" points="1002,-168.5 1002,-187.5 1068,-187.5 1068,-168.5 1002,-168.5"/>
<text text-anchor="middle" x="1035" y="-175.5" font-family="Helvetica,sans-Serif" font-size="10.00">rpc_client.h</text>
</a>
</g>
</g>
<!-- Node1&#45;&gt;Node21 -->
<g id="edge35" class="edge">
<title>Node1&#45;&gt;Node21</title>
<path fill="none" stroke="midnightblue" d="M667.55,-232.71C739.13,-224.67 870.15,-208.92 991.38,-188.17"/>
<polygon fill="midnightblue" stroke="midnightblue" points="992.32,-191.56 1001.58,-186.41 991.13,-184.66 992.32,-191.56"/>
</g>
<!-- Node22 -->
<g id="node22" class="node">
<title>Node22</title>
<g id="a_node22"><a xlink:href="upsamplers_8h.html" target="_top" xlink:title=" ">
<polygon fill="white" stroke="black" points="1086,-168.5 1086,-187.5 1160,-187.5 1160,-168.5 1086,-168.5"/>
<text text-anchor="middle" x="1123" y="-175.5" font-family="Helvetica,sans-Serif" font-size="10.00">upsamplers.h</text>
</a>
</g>
</g>
<!-- Node1&#45;&gt;Node22 -->
<g id="edge36" class="edge">
<title>Node1&#45;&gt;Node22</title>
<path fill="none" stroke="midnightblue" d="M667.66,-234.13C752.27,-226.92 922.02,-211.13 1075.79,-188.07"/>
<polygon fill="midnightblue" stroke="midnightblue" points="1076.53,-191.5 1085.89,-186.54 1075.48,-184.58 1076.53,-191.5"/>
</g>
<!-- Node23 -->
<g id="node23" class="node">
<title>Node23</title>
<g id="a_node23"><a xlink:href="hw_8h.html" target="_top" xlink:title=" ">
<polygon fill="white" stroke="black" points="1178.5,-168.5 1178.5,-187.5 1215.5,-187.5 1215.5,-168.5 1178.5,-168.5"/>
<text text-anchor="middle" x="1197" y="-175.5" font-family="Helvetica,sans-Serif" font-size="10.00">hw.h</text>
</a>
</g>
</g>
<!-- Node1&#45;&gt;Node23 -->
<g id="edge37" class="edge">
<title>Node1&#45;&gt;Node23</title>
<path fill="none" stroke="midnightblue" d="M667.76,-237.53C765.82,-234.91 980.19,-225.26 1168.67,-187.57"/>
<polygon fill="midnightblue" stroke="midnightblue" points="1169.37,-191 1178.48,-185.58 1167.98,-184.14 1169.37,-191"/>
</g>
<!-- Node24 -->
<g id="node24" class="node">
<title>Node24</title>
<g id="a_node24"><a xlink:href="spu_8h.html" target="_top" xlink:title=" ">
<polygon fill="white" stroke="black" points="1234,-168.5 1234,-187.5 1274,-187.5 1274,-168.5 1234,-168.5"/>
<text text-anchor="middle" x="1254" y="-175.5" font-family="Helvetica,sans-Serif" font-size="10.00">spu.h</text>
</a>
</g>
</g>
<!-- Node1&#45;&gt;Node24 -->
<g id="edge38" class="edge">
<title>Node1&#45;&gt;Node24</title>
<path fill="none" stroke="midnightblue" d="M667.66,-237.99C772.99,-236.13 1014.08,-227.71 1223.9,-187.79"/>
<polygon fill="midnightblue" stroke="midnightblue" points="1224.71,-191.2 1233.86,-185.87 1223.38,-184.33 1224.71,-191.2"/>
</g>
<!-- Node3 -->
<g id="node3" class="node">
<title>Node3</title>
<g id="a_node3"><a xlink:title=" ">
<polygon fill="white" stroke="#bfbfbf" points="357.5,-112.5 357.5,-131.5 408.5,-131.5 408.5,-112.5 357.5,-112.5"/>
<text text-anchor="middle" x="383" y="-119.5" font-family="Helvetica,sans-Serif" font-size="10.00">stdarg.h</text>
</a>
</g>
</g>
<!-- Node2&#45;&gt;Node3 -->
<g id="edge2" class="edge">
<title>Node2&#45;&gt;Node3</title>
<path fill="none" stroke="midnightblue" d="M403.04,-168.08C399.79,-160.77 395.08,-150.18 391.05,-141.1"/>
<polygon fill="midnightblue" stroke="midnightblue" points="394.15,-139.47 386.89,-131.75 387.75,-142.31 394.15,-139.47"/>
</g>
<!-- Node4 -->
<g id="node4" class="node">
<title>Node4</title>
<g id="a_node4"><a xlink:href="irx_8h.html" target="_top" xlink:title=" ">
<polygon fill="white" stroke="black" points="258,-112.5 258,-131.5 292,-131.5 292,-112.5 258,-112.5"/>
<text text-anchor="middle" x="275" y="-119.5" font-family="Helvetica,sans-Serif" font-size="10.00">irx.h</text>
</a>
</g>
</g>
<!-- Node2&#45;&gt;Node4 -->
<g id="edge3" class="edge">
<title>Node2&#45;&gt;Node4</title>
<path fill="none" stroke="midnightblue" d="M386.08,-168.44C363.21,-159.09 326.5,-144.07 301.59,-133.88"/>
<polygon fill="midnightblue" stroke="midnightblue" points="302.62,-130.52 292.04,-129.97 299.97,-137 302.62,-130.52"/>
</g>
<!-- Node5 -->
<g id="node5" class="node">
<title>Node5</title>
<g id="a_node5"><a xlink:href="types_8h_source.html" target="_top" xlink:title=" ">
<polygon fill="white" stroke="black" points="228.5,-56.5 228.5,-75.5 275.5,-75.5 275.5,-56.5 228.5,-56.5"/>
<text text-anchor="middle" x="252" y="-63.5" font-family="Helvetica,sans-Serif" font-size="10.00">types.h</text>
</a>
</g>
</g>
<!-- Node4&#45;&gt;Node5 -->
<g id="edge4" class="edge">
<title>Node4&#45;&gt;Node5</title>
<path fill="none" stroke="midnightblue" d="M271.2,-112.08C268.09,-104.77 263.58,-94.18 259.71,-85.1"/>
<polygon fill="midnightblue" stroke="midnightblue" points="262.87,-83.58 255.73,-75.75 256.43,-86.32 262.87,-83.58"/>
</g>
<!-- Node6 -->
<g id="node6" class="node">
<title>Node6</title>
<g id="a_node6"><a xlink:title=" ">
<polygon fill="white" stroke="#bfbfbf" points="226.5,-0.5 226.5,-19.5 277.5,-19.5 277.5,-0.5 226.5,-0.5"/>
<text text-anchor="middle" x="252" y="-7.5" font-family="Helvetica,sans-Serif" font-size="10.00">stddef.h</text>
</a>
</g>
</g>
<!-- Node5&#45;&gt;Node6 -->
<g id="edge5" class="edge">
<title>Node5&#45;&gt;Node6</title>
<path fill="none" stroke="midnightblue" d="M252,-56.08C252,-49.01 252,-38.86 252,-29.99"/>
<polygon fill="midnightblue" stroke="midnightblue" points="255.5,-29.75 252,-19.75 248.5,-29.75 255.5,-29.75"/>
</g>
<!-- Node7 -->
<g id="node7" class="node">
<title>Node7</title>
<g id="a_node7"><a xlink:href="tamtypes_8h.html" target="_top" xlink:title=" ">
<polygon fill="white" stroke="black" points="376,-0.5 376,-19.5 440,-19.5 440,-0.5 376,-0.5"/>
<text text-anchor="middle" x="408" y="-7.5" font-family="Helvetica,sans-Serif" font-size="10.00">tamtypes.h</text>
</a>
</g>
</g>
<!-- Node5&#45;&gt;Node7 -->
<g id="edge6" class="edge">
<title>Node5&#45;&gt;Node7</title>
<path fill="none" stroke="midnightblue" d="M275.69,-56.8C301.81,-47.76 344.04,-33.14 373.75,-22.85"/>
<polygon fill="midnightblue" stroke="midnightblue" points="375,-26.13 383.31,-19.55 372.71,-19.51 375,-26.13"/>
</g>
<!-- Node8&#45;&gt;Node4 -->
<g id="edge9" class="edge">
<title>Node8&#45;&gt;Node4</title>
<path fill="none" stroke="midnightblue" d="M263.31,-168.08C265.17,-160.93 267.84,-150.64 270.15,-141.69"/>
<polygon fill="midnightblue" stroke="midnightblue" points="273.61,-142.31 272.73,-131.75 266.83,-140.55 273.61,-142.31"/>
</g>
<!-- Node8&#45;&gt;Node5 -->
<g id="edge8" class="edge">
<title>Node8&#45;&gt;Node5</title>
<path fill="none" stroke="midnightblue" d="M257.91,-168.17C254.95,-159.2 250.68,-144.83 249,-132 246.98,-116.58 248,-98.95 249.37,-85.94"/>
<polygon fill="midnightblue" stroke="midnightblue" points="252.87,-86.22 250.61,-75.87 245.92,-85.37 252.87,-86.22"/>
</g>
<!-- Node9&#45;&gt;Node4 -->
<g id="edge12" class="edge">
<title>Node9&#45;&gt;Node4</title>
<path fill="none" stroke="midnightblue" d="M62.01,-170.01C65.04,-169.33 68.08,-168.65 71,-168 134.26,-153.91 208.61,-137.56 247.74,-128.98"/>
<polygon fill="midnightblue" stroke="midnightblue" points="248.78,-132.33 257.8,-126.77 247.28,-125.49 248.78,-132.33"/>
</g>
<!-- Node9&#45;&gt;Node5 -->
<g id="edge11" class="edge">
<title>Node9&#45;&gt;Node5</title>
<path fill="none" stroke="midnightblue" d="M48.34,-168.37C86.91,-149.17 179.99,-102.84 225.73,-80.07"/>
<polygon fill="midnightblue" stroke="midnightblue" points="227.35,-83.18 234.74,-75.59 224.23,-76.91 227.35,-83.18"/>
</g>
<!-- Node10&#45;&gt;Node4 -->
<g id="edge15" class="edge">
<title>Node10&#45;&gt;Node4</title>
<path fill="none" stroke="midnightblue" d="M136.99,-168.44C167.34,-158.45 217.29,-142 248.05,-131.87"/>
<polygon fill="midnightblue" stroke="midnightblue" points="249.28,-135.15 257.69,-128.7 247.09,-128.5 249.28,-135.15"/>
</g>
<!-- Node10&#45;&gt;Node5 -->
<g id="edge14" class="edge">
<title>Node10&#45;&gt;Node5</title>
<path fill="none" stroke="midnightblue" d="M122.06,-168.37C146.05,-149.65 203.1,-105.15 232.99,-81.83"/>
<polygon fill="midnightblue" stroke="midnightblue" points="235.26,-84.5 240.99,-75.59 230.95,-78.98 235.26,-84.5"/>
</g>
<!-- Node11&#45;&gt;Node3 -->
<g id="edge19" class="edge">
<title>Node11&#45;&gt;Node3</title>
<path fill="none" stroke="midnightblue" d="M343.76,-168.08C350.54,-160.3 360.54,-148.8 368.76,-139.37"/>
<polygon fill="midnightblue" stroke="midnightblue" points="371.46,-141.59 375.38,-131.75 366.18,-137 371.46,-141.59"/>
</g>
<!-- Node11&#45;&gt;Node4 -->
<g id="edge18" class="edge">
<title>Node11&#45;&gt;Node4</title>
<path fill="none" stroke="midnightblue" d="M326.2,-168.32C317.18,-160.34 303.59,-148.31 292.68,-138.65"/>
<polygon fill="midnightblue" stroke="midnightblue" points="294.79,-135.84 284.98,-131.83 290.15,-141.08 294.79,-135.84"/>
</g>
<!-- Node11&#45;&gt;Node5 -->
<g id="edge17" class="edge">
<title>Node11&#45;&gt;Node5</title>
<path fill="none" stroke="midnightblue" d="M332.51,-168.46C326.97,-155.5 315.32,-130.41 301,-112 292.45,-101 281.07,-90.37 271.43,-82.21"/>
<polygon fill="midnightblue" stroke="midnightblue" points="273.48,-79.36 263.53,-75.72 269.04,-84.77 273.48,-79.36"/>
</g>
<!-- Node12&#45;&gt;Node4 -->
<g id="edge22" class="edge">
<title>Node12&#45;&gt;Node4</title>
<path fill="none" stroke="midnightblue" d="M201.98,-168.32C215.55,-159.9 236.38,-146.97 252.32,-137.07"/>
<polygon fill="midnightblue" stroke="midnightblue" points="254.41,-139.9 261.06,-131.65 250.71,-133.95 254.41,-139.9"/>
</g>
<!-- Node12&#45;&gt;Node5 -->
<g id="edge21" class="edge">
<title>Node12&#45;&gt;Node5</title>
<path fill="none" stroke="midnightblue" d="M193.02,-168.37C203.54,-150.3 228.04,-108.18 241.93,-84.31"/>
<polygon fill="midnightblue" stroke="midnightblue" points="245,-86 247,-75.59 238.95,-82.47 245,-86"/>
</g>
<!-- Node15&#45;&gt;Node3 -->
<g id="edge28" class="edge">
<title>Node15&#45;&gt;Node3</title>
<path fill="none" stroke="midnightblue" d="M460.22,-168.32C445.73,-159.82 423.43,-146.73 406.51,-136.8"/>
<polygon fill="midnightblue" stroke="midnightblue" points="408.14,-133.7 397.74,-131.65 404.6,-139.74 408.14,-133.7"/>
</g>
<!-- Node15&#45;&gt;Node4 -->
<g id="edge27" class="edge">
<title>Node15&#45;&gt;Node4</title>
<path fill="none" stroke="midnightblue" d="M447.61,-169.6C409.28,-159.25 340.06,-140.57 301.96,-130.28"/>
<polygon fill="midnightblue" stroke="midnightblue" points="302.66,-126.84 292.09,-127.61 300.83,-133.6 302.66,-126.84"/>
</g>
<!-- Node15&#45;&gt;Node5 -->
<g id="edge26" class="edge">
<title>Node15&#45;&gt;Node5</title>
<path fill="none" stroke="midnightblue" d="M469.86,-168.39C461.04,-154.39 441.69,-126.78 418,-112 376.9,-86.36 321.24,-75.15 285.96,-70.37"/>
<polygon fill="midnightblue" stroke="midnightblue" points="286.07,-66.86 275.71,-69.09 285.2,-73.8 286.07,-66.86"/>
</g>
<!-- Node16 -->
<g id="node16" class="node">
<title>Node16</title>
<g id="a_node16"><a xlink:href="setjmp_8h.html" target="_top" xlink:title=" ">
<polygon fill="white" stroke="black" points="414.5,-56.5 414.5,-75.5 467.5,-75.5 467.5,-56.5 414.5,-56.5"/>
<text text-anchor="middle" x="441" y="-63.5" font-family="Helvetica,sans-Serif" font-size="10.00">setjmp.h</text>
</a>
</g>
</g>
<!-- Node15&#45;&gt;Node16 -->
<g id="edge29" class="edge">
<title>Node15&#45;&gt;Node16</title>
<path fill="none" stroke="midnightblue" d="M472.33,-168.37C466.82,-150.54 454.07,-109.3 446.65,-85.27"/>
<polygon fill="midnightblue" stroke="midnightblue" points="449.95,-84.11 443.66,-75.59 443.26,-86.18 449.95,-84.11"/>
</g>
<!-- Node16&#45;&gt;Node7 -->
<g id="edge30" class="edge">
<title>Node16&#45;&gt;Node7</title>
<path fill="none" stroke="midnightblue" d="M435.55,-56.08C430.99,-48.61 424.33,-37.72 418.71,-28.52"/>
<polygon fill="midnightblue" stroke="midnightblue" points="421.55,-26.46 413.35,-19.75 415.58,-30.11 421.55,-26.46"/>
</g>
</g>
</svg>
