<?xml version="1.0" encoding="UTF-8" standalone="no"?>
<!DOCTYPE svg PUBLIC "-//W3C//DTD SVG 1.1//EN"
 "http://www.w3.org/Graphics/SVG/1.1/DTD/svg11.dtd">
<!-- Generated by graphviz version 2.46.1 (20210215.1649)
 -->
<!-- Title: iop/fs/bdm/include/bdm.h Pages: 1 -->
<svg width="1380pt" height="240pt"
 viewBox="0.00 0.00 1379.50 240.00" xmlns="http://www.w3.org/2000/svg" xmlns:xlink="http://www.w3.org/1999/xlink">
<g id="graph0" class="graph" transform="scale(1 1) rotate(0) translate(4 236)">
<title>iop/fs/bdm/include/bdm.h</title>
<polygon fill="white" stroke="transparent" points="-4,4 -4,-236 1375.5,-236 1375.5,4 -4,4"/>
<!-- Node1 -->
<g id="node1" class="node">
<title>Node1</title>
<g id="a_node1"><a xlink:title=" ">
<polygon fill="#bfbfbf" stroke="black" points="588,-201.5 588,-231.5 684,-231.5 684,-201.5 588,-201.5"/>
<text text-anchor="start" x="596" y="-219.5" font-family="Helvetica,sans-Serif" font-size="10.00">iop/fs/bdm/include</text>
<text text-anchor="middle" x="636" y="-208.5" font-family="Helvetica,sans-Serif" font-size="10.00">/bdm.h</text>
</a>
</g>
</g>
<!-- Node2 -->
<g id="node2" class="node">
<title>Node2</title>
<g id="a_node2"><a xlink:href="bdm_8c_source.html" target="_top" xlink:title=" ">
<polygon fill="white" stroke="black" points="0,-140 0,-159 108,-159 108,-140 0,-140"/>
<text text-anchor="middle" x="54" y="-147" font-family="Helvetica,sans-Serif" font-size="10.00">iop/fs/bdm/src/bdm.c</text>
</a>
</g>
</g>
<!-- Node1&#45;&gt;Node2 -->
<g id="edge1" class="edge">
<title>Node1&#45;&gt;Node2</title>
<path fill="none" stroke="midnightblue" d="M577.67,-212.29C481.29,-206.43 282.95,-192.06 117,-165 107.36,-163.43 97,-161.25 87.52,-159.06"/>
<polygon fill="midnightblue" stroke="midnightblue" points="577.6,-215.79 587.79,-212.9 578.02,-208.8 577.6,-215.79"/>
</g>
<!-- Node3 -->
<g id="node3" class="node">
<title>Node3</title>
<g id="a_node3"><a xlink:href="iop_2fs_2bdm_2src_2irx__imports_8h_source.html" target="_top" xlink:title=" ">
<polygon fill="white" stroke="black" points="126,-134.5 126,-164.5 218,-164.5 218,-134.5 126,-134.5"/>
<text text-anchor="start" x="134" y="-152.5" font-family="Helvetica,sans-Serif" font-size="10.00">iop/fs/bdm/src/irx</text>
<text text-anchor="middle" x="172" y="-141.5" font-family="Helvetica,sans-Serif" font-size="10.00">_imports.h</text>
</a>
</g>
</g>
<!-- Node1&#45;&gt;Node3 -->
<g id="edge2" class="edge">
<title>Node1&#45;&gt;Node3</title>
<path fill="none" stroke="midnightblue" d="M577.49,-210.78C497.75,-203.77 350.71,-188.83 227,-165 224.09,-164.44 221.11,-163.81 218.11,-163.14"/>
<polygon fill="midnightblue" stroke="midnightblue" points="577.55,-214.3 587.82,-211.67 578.16,-207.32 577.55,-214.3"/>
</g>
<!-- Node4 -->
<g id="node4" class="node">
<title>Node4</title>
<g id="a_node4"><a xlink:href="iop_2fs_2bdm_2src_2main_8c_source.html" target="_top" xlink:title=" ">
<polygon fill="white" stroke="black" points="236,-140 236,-159 346,-159 346,-140 236,-140"/>
<text text-anchor="middle" x="291" y="-147" font-family="Helvetica,sans-Serif" font-size="10.00">iop/fs/bdm/src/main.c</text>
</a>
</g>
</g>
<!-- Node1&#45;&gt;Node4 -->
<g id="edge3" class="edge">
<title>Node1&#45;&gt;Node4</title>
<path fill="none" stroke="midnightblue" d="M578,-205.86C521.08,-196.22 431.87,-180.61 355,-165 346.07,-163.19 336.47,-161.09 327.49,-159.07"/>
<polygon fill="midnightblue" stroke="midnightblue" points="577.45,-209.32 587.89,-207.53 578.62,-202.42 577.45,-209.32"/>
</g>
<!-- Node5 -->
<g id="node5" class="node">
<title>Node5</title>
<g id="a_node5"><a xlink:href="fs_2bdm_2src_2part__driver_8c_source.html" target="_top" xlink:title=" ">
<polygon fill="white" stroke="black" points="364,-134.5 364,-164.5 462,-164.5 462,-134.5 364,-134.5"/>
<text text-anchor="start" x="372" y="-152.5" font-family="Helvetica,sans-Serif" font-size="10.00">iop/fs/bdm/src/part</text>
<text text-anchor="middle" x="413" y="-141.5" font-family="Helvetica,sans-Serif" font-size="10.00">_driver.c</text>
</a>
</g>
</g>
<!-- Node1&#45;&gt;Node5 -->
<g id="edge4" class="edge">
<title>Node1&#45;&gt;Node5</title>
<path fill="none" stroke="midnightblue" d="M577.95,-198.58C541.73,-188.02 495.65,-174.59 461.41,-164.61"/>
<polygon fill="midnightblue" stroke="midnightblue" points="577.31,-202.04 587.89,-201.48 579.27,-195.32 577.31,-202.04"/>
</g>
<!-- Node6 -->
<g id="node6" class="node">
<title>Node6</title>
<g id="a_node6"><a xlink:href="fs_2bdmfs__vfat_2src_2include_2fat__driver_8h_source.html" target="_top" xlink:title=" ">
<polygon fill="white" stroke="black" points="476.5,-67.5 476.5,-97.5 585.5,-97.5 585.5,-67.5 476.5,-67.5"/>
<text text-anchor="start" x="484.5" y="-85.5" font-family="Helvetica,sans-Serif" font-size="10.00">iop/fs/bdmfs_vfat/src</text>
<text text-anchor="middle" x="531" y="-74.5" font-family="Helvetica,sans-Serif" font-size="10.00">/include/fat_driver.h</text>
</a>
</g>
</g>
<!-- Node1&#45;&gt;Node6 -->
<g id="edge5" class="edge">
<title>Node1&#45;&gt;Node6</title>
<path fill="none" stroke="midnightblue" d="M577.97,-207.04C552.67,-200.15 525.33,-187.66 510,-165 496,-144.31 510.07,-114.89 520.96,-97.64"/>
<polygon fill="midnightblue" stroke="midnightblue" points="577.36,-210.49 587.9,-209.5 579.04,-203.7 577.36,-210.49"/>
</g>
<!-- Node8 -->
<g id="node8" class="node">
<title>Node8</title>
<g id="a_node8"><a xlink:href="fs_2bdmfs__vfat_2src_2include_2scache_8h_source.html" target="_top" xlink:title=" ">
<polygon fill="white" stroke="black" points="518.5,-134.5 518.5,-164.5 627.5,-164.5 627.5,-134.5 518.5,-134.5"/>
<text text-anchor="start" x="526.5" y="-152.5" font-family="Helvetica,sans-Serif" font-size="10.00">iop/fs/bdmfs_vfat/src</text>
<text text-anchor="middle" x="573" y="-141.5" font-family="Helvetica,sans-Serif" font-size="10.00">/include/scache.h</text>
</a>
</g>
</g>
<!-- Node1&#45;&gt;Node8 -->
<g id="edge7" class="edge">
<title>Node1&#45;&gt;Node8</title>
<path fill="none" stroke="midnightblue" d="M615.19,-194.02C605.8,-184.34 594.98,-173.17 586.64,-164.58"/>
<polygon fill="midnightblue" stroke="midnightblue" points="612.86,-196.65 622.33,-201.4 617.88,-191.78 612.86,-196.65"/>
</g>
<!-- Node9 -->
<g id="node9" class="node">
<title>Node9</title>
<g id="a_node9"><a xlink:href="iop_2fs_2bdmfs__vfat_2src_2irx__imports_8h_source.html" target="_top" xlink:title=" ">
<polygon fill="white" stroke="black" points="645.5,-134.5 645.5,-164.5 754.5,-164.5 754.5,-134.5 645.5,-134.5"/>
<text text-anchor="start" x="653.5" y="-152.5" font-family="Helvetica,sans-Serif" font-size="10.00">iop/fs/bdmfs_vfat/src</text>
<text text-anchor="middle" x="700" y="-141.5" font-family="Helvetica,sans-Serif" font-size="10.00">/irx_imports.h</text>
</a>
</g>
</g>
<!-- Node1&#45;&gt;Node9 -->
<g id="edge9" class="edge">
<title>Node1&#45;&gt;Node9</title>
<path fill="none" stroke="midnightblue" d="M657.15,-194.02C666.68,-184.34 677.67,-173.17 686.14,-164.58"/>
<polygon fill="midnightblue" stroke="midnightblue" points="654.41,-191.81 649.89,-201.4 659.4,-196.73 654.41,-191.81"/>
</g>
<!-- Node10 -->
<g id="node10" class="node">
<title>Node10</title>
<g id="a_node10"><a xlink:href="iop_2fs_2bdmfs__vfat_2src_2main_8c_source.html" target="_top" xlink:title=" ">
<polygon fill="white" stroke="black" points="772.5,-134.5 772.5,-164.5 881.5,-164.5 881.5,-134.5 772.5,-134.5"/>
<text text-anchor="start" x="780.5" y="-152.5" font-family="Helvetica,sans-Serif" font-size="10.00">iop/fs/bdmfs_vfat/src</text>
<text text-anchor="middle" x="827" y="-141.5" font-family="Helvetica,sans-Serif" font-size="10.00">/main.c</text>
</a>
</g>
</g>
<!-- Node1&#45;&gt;Node10 -->
<g id="edge10" class="edge">
<title>Node1&#45;&gt;Node10</title>
<path fill="none" stroke="midnightblue" d="M687.15,-198.09C717.99,-187.6 756.75,-174.41 785.64,-164.58"/>
<polygon fill="midnightblue" stroke="midnightblue" points="685.78,-194.86 677.44,-201.4 688.04,-201.49 685.78,-194.86"/>
</g>
<!-- Node11 -->
<g id="node11" class="node">
<title>Node11</title>
<g id="a_node11"><a xlink:href="iop_2i_link_2_i_e_e_e1394__bd_2src_2irx__imports_8h_source.html" target="_top" xlink:title=" ">
<polygon fill="white" stroke="black" points="899.5,-134.5 899.5,-164.5 1006.5,-164.5 1006.5,-134.5 899.5,-134.5"/>
<text text-anchor="start" x="907.5" y="-152.5" font-family="Helvetica,sans-Serif" font-size="10.00">iop/iLink/IEEE1394</text>
<text text-anchor="middle" x="953" y="-141.5" font-family="Helvetica,sans-Serif" font-size="10.00">_bd/src/irx_imports.h</text>
</a>
</g>
</g>
<!-- Node1&#45;&gt;Node11 -->
<g id="edge11" class="edge">
<title>Node1&#45;&gt;Node11</title>
<path fill="none" stroke="midnightblue" d="M694.03,-204.59C745.79,-194.73 823.59,-179.55 891,-165 893.7,-164.42 896.47,-163.81 899.26,-163.19"/>
<polygon fill="midnightblue" stroke="midnightblue" points="693.21,-201.19 684.04,-206.49 694.52,-208.06 693.21,-201.19"/>
</g>
<!-- Node12 -->
<g id="node12" class="node">
<title>Node12</title>
<g id="a_node12"><a xlink:href="i_link_2_i_e_e_e1394__bd_2src_2scsi_8c_source.html" target="_top" xlink:title=" ">
<polygon fill="white" stroke="black" points="1024,-134.5 1024,-164.5 1122,-164.5 1122,-134.5 1024,-134.5"/>
<text text-anchor="start" x="1032" y="-152.5" font-family="Helvetica,sans-Serif" font-size="10.00">iop/iLink/IEEE1394</text>
<text text-anchor="middle" x="1073" y="-141.5" font-family="Helvetica,sans-Serif" font-size="10.00">_bd/src/scsi.c</text>
</a>
</g>
</g>
<!-- Node1&#45;&gt;Node12 -->
<g id="edge12" class="edge">
<title>Node1&#45;&gt;Node12</title>
<path fill="none" stroke="midnightblue" d="M694.45,-209.88C769.36,-202.18 903.04,-186.8 1016,-165 1018.61,-164.5 1021.27,-163.95 1023.96,-163.36"/>
<polygon fill="midnightblue" stroke="midnightblue" points="693.88,-206.42 684.28,-210.91 694.58,-213.38 693.88,-206.42"/>
</g>
<!-- Node13 -->
<g id="node13" class="node">
<title>Node13</title>
<g id="a_node13"><a xlink:href="iop_2usb_2usbmass__bd_2src_2irx__imports_8h_source.html" target="_top" xlink:title=" ">
<polygon fill="white" stroke="black" points="1139.5,-134.5 1139.5,-164.5 1246.5,-164.5 1246.5,-134.5 1139.5,-134.5"/>
<text text-anchor="start" x="1147.5" y="-152.5" font-family="Helvetica,sans-Serif" font-size="10.00">iop/usb/usbmass_bd</text>
<text text-anchor="middle" x="1193" y="-141.5" font-family="Helvetica,sans-Serif" font-size="10.00">/src/irx_imports.h</text>
</a>
</g>
</g>
<!-- Node1&#45;&gt;Node13 -->
<g id="edge13" class="edge">
<title>Node1&#45;&gt;Node13</title>
<path fill="none" stroke="midnightblue" d="M694.09,-211.99C786.9,-205.85 974.15,-191.23 1131,-165 1133.73,-164.54 1136.51,-164.04 1139.32,-163.5"/>
<polygon fill="midnightblue" stroke="midnightblue" points="693.81,-208.51 684.06,-212.65 694.26,-215.49 693.81,-208.51"/>
</g>
<!-- Node14 -->
<g id="node14" class="node">
<title>Node14</title>
<g id="a_node14"><a xlink:href="usb_2usbmass__bd_2src_2scsi_8c_source.html" target="_top" xlink:title=" ">
<polygon fill="white" stroke="black" points="1264.5,-134.5 1264.5,-164.5 1371.5,-164.5 1371.5,-134.5 1264.5,-134.5"/>
<text text-anchor="start" x="1272.5" y="-152.5" font-family="Helvetica,sans-Serif" font-size="10.00">iop/usb/usbmass_bd</text>
<text text-anchor="middle" x="1318" y="-141.5" font-family="Helvetica,sans-Serif" font-size="10.00">/src/scsi.c</text>
</a>
</g>
</g>
<!-- Node1&#45;&gt;Node14 -->
<g id="edge14" class="edge">
<title>Node1&#45;&gt;Node14</title>
<path fill="none" stroke="midnightblue" d="M694.37,-213.63C804.69,-209.47 1051.09,-197.12 1256,-165 1258.73,-164.57 1261.52,-164.09 1264.33,-163.57"/>
<polygon fill="midnightblue" stroke="midnightblue" points="693.99,-210.15 684.13,-214.01 694.25,-217.14 693.99,-210.15"/>
</g>
<!-- Node7 -->
<g id="node7" class="node">
<title>Node7</title>
<g id="a_node7"><a xlink:href="fs_2bdmfs__vfat_2src_2include_2fat_8h_source.html" target="_top" xlink:title=" ">
<polygon fill="white" stroke="black" points="476.5,-0.5 476.5,-30.5 585.5,-30.5 585.5,-0.5 476.5,-0.5"/>
<text text-anchor="start" x="484.5" y="-18.5" font-family="Helvetica,sans-Serif" font-size="10.00">iop/fs/bdmfs_vfat/src</text>
<text text-anchor="middle" x="531" y="-7.5" font-family="Helvetica,sans-Serif" font-size="10.00">/include/fat.h</text>
</a>
</g>
</g>
<!-- Node6&#45;&gt;Node7 -->
<g id="edge6" class="edge">
<title>Node6&#45;&gt;Node7</title>
<path fill="none" stroke="midnightblue" d="M531,-57.11C531,-48.15 531,-38.32 531,-30.58"/>
<polygon fill="midnightblue" stroke="midnightblue" points="527.5,-57.4 531,-67.4 534.5,-57.4 527.5,-57.4"/>
</g>
<!-- Node8&#45;&gt;Node6 -->
<g id="edge8" class="edge">
<title>Node8&#45;&gt;Node6</title>
<path fill="none" stroke="midnightblue" d="M558.38,-125.87C552.3,-116.46 545.43,-105.83 540.1,-97.58"/>
<polygon fill="midnightblue" stroke="midnightblue" points="555.52,-127.9 563.89,-134.4 561.4,-124.1 555.52,-127.9"/>
</g>
</g>
</svg>
