<?xml version="1.0" encoding="UTF-8" standalone="no"?>
<!DOCTYPE svg PUBLIC "-//W3C//DTD SVG 1.1//EN"
 "http://www.w3.org/Graphics/SVG/1.1/DTD/svg11.dtd">
<!-- Generated by graphviz version 2.46.1 (20210215.1649)
 -->
<!-- Title: iop/sound/audsrv/src/cdrom.c Pages: 1 -->
<!--zoomable 263 -->
<svg id="main" version="1.1" xmlns="http://www.w3.org/2000/svg" xmlns:xlink="http://www.w3.org/1999/xlink" xml:space="preserve" onload="init(evt)">
<style type="text/css"><![CDATA[
.edge:hover path { stroke: red; }
.edge:hover polygon { stroke: red; fill: red; }
]]></style>
<script type="text/javascript"><![CDATA[
var edges = document.getElementsByTagName('g');
if (edges && edges.length) {
  for (var i=0;i<edges.length;i++) {
    if (edges[i].id.substr(0,4)=='edge') {
      edges[i].setAttribute('class','edge');
    }
  }
}
]]></script>
        <defs>
                <circle id="rim" cx="0" cy="0" r="7"/>
                <circle id="rim2" cx="0" cy="0" r="3.5"/>
                <g id="zoomPlus">
                        <use xlink:href="#rim" fill="#404040">
                                <set attributeName="fill" to="#808080" begin="zoomplus.mouseover" end="zoomplus.mouseout"/>
                        </use>
                        <path d="M-4,0h8M0,-4v8" fill="none" stroke="white" stroke-width="1.5" pointer-events="none"/>
                </g>
                <g id="zoomMin">
                        <use xlink:href="#rim" fill="#404040">
                                <set attributeName="fill" to="#808080" begin="zoomminus.mouseover" end="zoomminus.mouseout"/>
                        </use>
                        <path d="M-4,0h8" fill="none" stroke="white" stroke-width="1.5" pointer-events="none"/>
                </g>
                <g id="dirArrow">
                        <path fill="none" stroke="white" stroke-width="1.5" d="M0,-3.0v7 M-2.5,-0.5L0,-3.0L2.5,-0.5"/>
                </g>
               <g id="resetDef">
                       <use xlink:href="#rim2" fill="#404040">
                               <set attributeName="fill" to="#808080" begin="reset.mouseover" end="reset.mouseout"/>
                       </use>
               </g>
        </defs>

<script type="text/javascript">
var viewWidth = 1325;
var viewHeight = 263;
var sectionId = 'dynsection-0';
</script>
<script xlink:href="svgpan.js"/>
<svg id="graph" class="graph">
<g id="viewport">
<title>iop/sound/audsrv/src/cdrom.c</title>
<polygon fill="white" stroke="transparent" points="-4,4 -4,-259 1321,-259 1321,4 -4,4"/>
<!-- Node1 -->
<g id="node1" class="node">
<title>Node1</title>
<g id="a_node1"><a xlink:title=" ">
<polygon fill="#bfbfbf" stroke="black" points="609,-224.5 609,-254.5 716,-254.5 716,-224.5 609,-224.5"/>
<text text-anchor="start" x="617" y="-242.5" font-family="Helvetica,sans-Serif" font-size="10.00">iop/sound/audsrv/src</text>
<text text-anchor="middle" x="662.5" y="-231.5" font-family="Helvetica,sans-Serif" font-size="10.00">/cdrom.c</text>
</a>
</g>
</g>
<!-- Node2 -->
<g id="node2" class="node">
<title>Node2</title>
<g id="a_node2"><a xlink:href="stdio_8h.html" target="_top" xlink:title=" ">
<polygon fill="white" stroke="black" points="306,-168.5 306,-187.5 351,-187.5 351,-168.5 306,-168.5"/>
<text text-anchor="middle" x="328.5" y="-175.5" font-family="Helvetica,sans-Serif" font-size="10.00">stdio.h</text>
</a>
</g>
</g>
<!-- Node1&#45;&gt;Node2 -->
<g id="edge1" class="edge">
<title>Node1&#45;&gt;Node2</title>
<path fill="none" stroke="midnightblue" d="M608.97,-231.34C550.41,-223.11 453.64,-208.33 360.97,-187.89"/>
<polygon fill="midnightblue" stroke="midnightblue" points="361.67,-184.46 351.15,-185.7 360.15,-191.29 361.67,-184.46"/>
</g>
<!-- Node8 -->
<g id="node8" class="node">
<title>Node8</title>
<g id="a_node8"><a xlink:href="thbase_8h.html" target="_top" xlink:title=" ">
<polygon fill="white" stroke="black" points="154,-168.5 154,-187.5 207,-187.5 207,-168.5 154,-168.5"/>
<text text-anchor="middle" x="180.5" y="-175.5" font-family="Helvetica,sans-Serif" font-size="10.00">thbase.h</text>
</a>
</g>
</g>
<!-- Node1&#45;&gt;Node8 -->
<g id="edge7" class="edge">
<title>Node1&#45;&gt;Node8</title>
<path fill="none" stroke="midnightblue" d="M608.96,-234.74C526.78,-228.46 364.52,-214.07 217.28,-187.9"/>
<polygon fill="midnightblue" stroke="midnightblue" points="217.61,-184.41 207.15,-186.08 216.37,-191.3 217.61,-184.41"/>
</g>
<!-- Node9 -->
<g id="node9" class="node">
<title>Node9</title>
<g id="a_node9"><a xlink:href="thsemap_8h.html" target="_top" xlink:title=" ">
<polygon fill="white" stroke="black" points="225.5,-168.5 225.5,-187.5 287.5,-187.5 287.5,-168.5 225.5,-168.5"/>
<text text-anchor="middle" x="256.5" y="-175.5" font-family="Helvetica,sans-Serif" font-size="10.00">thsemap.h</text>
</a>
</g>
</g>
<!-- Node1&#45;&gt;Node9 -->
<g id="edge10" class="edge">
<title>Node1&#45;&gt;Node9</title>
<path fill="none" stroke="midnightblue" d="M608.79,-232.41C539.38,-224.24 414.61,-208.55 297.63,-187.89"/>
<polygon fill="midnightblue" stroke="midnightblue" points="298.25,-184.44 287.79,-186.13 297.02,-191.33 298.25,-184.44"/>
</g>
<!-- Node10 -->
<g id="node10" class="node">
<title>Node10</title>
<g id="a_node10"><a xlink:href="loadcore_8h.html" target="_top" xlink:title=" ">
<polygon fill="white" stroke="black" points="0,-168.5 0,-187.5 61,-187.5 61,-168.5 0,-168.5"/>
<text text-anchor="middle" x="30.5" y="-175.5" font-family="Helvetica,sans-Serif" font-size="10.00">loadcore.h</text>
</a>
</g>
</g>
<!-- Node1&#45;&gt;Node10 -->
<g id="edge13" class="edge">
<title>Node1&#45;&gt;Node10</title>
<path fill="none" stroke="midnightblue" d="M608.74,-236.37C506.11,-231.77 275.11,-218.85 71.41,-187.93"/>
<polygon fill="midnightblue" stroke="midnightblue" points="71.84,-184.45 61.43,-186.4 70.78,-191.37 71.84,-184.45"/>
</g>
<!-- Node11 -->
<g id="node11" class="node">
<title>Node11</title>
<g id="a_node11"><a xlink:href="sysmem_8h.html" target="_top" xlink:title=" ">
<polygon fill="white" stroke="black" points="369,-168.5 369,-187.5 430,-187.5 430,-168.5 369,-168.5"/>
<text text-anchor="middle" x="399.5" y="-175.5" font-family="Helvetica,sans-Serif" font-size="10.00">sysmem.h</text>
</a>
</g>
</g>
<!-- Node1&#45;&gt;Node11 -->
<g id="edge16" class="edge">
<title>Node1&#45;&gt;Node11</title>
<path fill="none" stroke="midnightblue" d="M608.96,-226.39C558.97,-215.08 485.46,-198.45 440.14,-188.19"/>
<polygon fill="midnightblue" stroke="midnightblue" points="440.88,-184.77 430.36,-185.98 439.34,-191.6 440.88,-184.77"/>
</g>
<!-- Node12 -->
<g id="node12" class="node">
<title>Node12</title>
<g id="a_node12"><a xlink:href="intrman_8h.html" target="_top" xlink:title=" ">
<polygon fill="white" stroke="black" points="79.5,-168.5 79.5,-187.5 135.5,-187.5 135.5,-168.5 79.5,-168.5"/>
<text text-anchor="middle" x="107.5" y="-175.5" font-family="Helvetica,sans-Serif" font-size="10.00">intrman.h</text>
</a>
</g>
</g>
<!-- Node1&#45;&gt;Node12 -->
<g id="edge20" class="edge">
<title>Node1&#45;&gt;Node12</title>
<path fill="none" stroke="midnightblue" d="M608.97,-235.66C514.77,-230.14 313.41,-215.95 145.5,-188 145.4,-187.98 145.3,-187.97 145.2,-187.95"/>
<polygon fill="midnightblue" stroke="midnightblue" points="146.12,-184.56 135.64,-186.11 144.8,-191.44 146.12,-184.56"/>
</g>
<!-- Node13 -->
<g id="node13" class="node">
<title>Node13</title>
<g id="a_node13"><a xlink:title=" ">
<polygon fill="white" stroke="#bfbfbf" points="603,-168.5 603,-187.5 656,-187.5 656,-168.5 603,-168.5"/>
<text text-anchor="middle" x="629.5" y="-175.5" font-family="Helvetica,sans-Serif" font-size="10.00">sifcmd.h</text>
</a>
</g>
</g>
<!-- Node1&#45;&gt;Node13 -->
<g id="edge23" class="edge">
<title>Node1&#45;&gt;Node13</title>
<path fill="none" stroke="midnightblue" d="M654.68,-224.4C650.03,-216.02 644.1,-205.33 639.16,-196.42"/>
<polygon fill="midnightblue" stroke="midnightblue" points="642.21,-194.71 634.3,-187.66 636.09,-198.1 642.21,-194.71"/>
</g>
<!-- Node14 -->
<g id="node14" class="node">
<title>Node14</title>
<g id="a_node14"><a xlink:title=" ">
<polygon fill="white" stroke="#bfbfbf" points="674.5,-168.5 674.5,-187.5 718.5,-187.5 718.5,-168.5 674.5,-168.5"/>
<text text-anchor="middle" x="696.5" y="-175.5" font-family="Helvetica,sans-Serif" font-size="10.00">libsd.h</text>
</a>
</g>
</g>
<!-- Node1&#45;&gt;Node14 -->
<g id="edge24" class="edge">
<title>Node1&#45;&gt;Node14</title>
<path fill="none" stroke="midnightblue" d="M670.56,-224.4C675.35,-216.02 681.46,-205.33 686.54,-196.42"/>
<polygon fill="midnightblue" stroke="midnightblue" points="689.63,-198.08 691.55,-187.66 683.55,-194.6 689.63,-198.08"/>
</g>
<!-- Node15 -->
<g id="node15" class="node">
<title>Node15</title>
<g id="a_node15"><a xlink:href="cdvdman_8h.html" target="_top" xlink:title=" ">
<polygon fill="white" stroke="black" points="520.5,-168.5 520.5,-187.5 584.5,-187.5 584.5,-168.5 520.5,-168.5"/>
<text text-anchor="middle" x="552.5" y="-175.5" font-family="Helvetica,sans-Serif" font-size="10.00">cdvdman.h</text>
</a>
</g>
</g>
<!-- Node1&#45;&gt;Node15 -->
<g id="edge25" class="edge">
<title>Node1&#45;&gt;Node15</title>
<path fill="none" stroke="midnightblue" d="M636.43,-224.4C618.63,-214.77 595.19,-202.09 577.6,-192.58"/>
<polygon fill="midnightblue" stroke="midnightblue" points="578.97,-189.34 568.51,-187.66 575.64,-195.49 578.97,-189.34"/>
</g>
<!-- Node17 -->
<g id="node17" class="node">
<title>Node17</title>
<g id="a_node17"><a xlink:href="sysclib_8h.html" target="_top" xlink:title=" ">
<polygon fill="white" stroke="black" points="448.5,-168.5 448.5,-187.5 502.5,-187.5 502.5,-168.5 448.5,-168.5"/>
<text text-anchor="middle" x="475.5" y="-175.5" font-family="Helvetica,sans-Serif" font-size="10.00">sysclib.h</text>
</a>
</g>
</g>
<!-- Node1&#45;&gt;Node17 -->
<g id="edge30" class="edge">
<title>Node1&#45;&gt;Node17</title>
<path fill="none" stroke="midnightblue" d="M618.18,-224.4C585.87,-214.12 542.6,-200.35 512.21,-190.68"/>
<polygon fill="midnightblue" stroke="midnightblue" points="513.03,-187.27 502.44,-187.57 510.91,-193.94 513.03,-187.27"/>
</g>
<!-- Node19 -->
<g id="node19" class="node">
<title>Node19</title>
<g id="a_node19"><a xlink:title=" ">
<polygon fill="white" stroke="#bfbfbf" points="737,-168.5 737,-187.5 790,-187.5 790,-168.5 737,-168.5"/>
<text text-anchor="middle" x="763.5" y="-175.5" font-family="Helvetica,sans-Serif" font-size="10.00">audsrv.h</text>
</a>
</g>
</g>
<!-- Node1&#45;&gt;Node19 -->
<g id="edge36" class="edge">
<title>Node1&#45;&gt;Node19</title>
<path fill="none" stroke="midnightblue" d="M686.44,-224.4C702.63,-214.86 723.91,-202.32 740,-192.84"/>
<polygon fill="midnightblue" stroke="midnightblue" points="741.96,-195.75 748.8,-187.66 738.41,-189.72 741.96,-195.75"/>
</g>
<!-- Node20 -->
<g id="node20" class="node">
<title>Node20</title>
<g id="a_node20"><a xlink:href="cdrom_8h.html" target="_top" xlink:title=" ">
<polygon fill="white" stroke="black" points="808,-168.5 808,-187.5 859,-187.5 859,-168.5 808,-168.5"/>
<text text-anchor="middle" x="833.5" y="-175.5" font-family="Helvetica,sans-Serif" font-size="10.00">cdrom.h</text>
</a>
</g>
</g>
<!-- Node1&#45;&gt;Node20 -->
<g id="edge37" class="edge">
<title>Node1&#45;&gt;Node20</title>
<path fill="none" stroke="midnightblue" d="M703.02,-224.4C732.23,-214.24 771.22,-200.67 798.95,-191.02"/>
<polygon fill="midnightblue" stroke="midnightblue" points="800.32,-194.25 808.62,-187.66 798.02,-187.64 800.32,-194.25"/>
</g>
<!-- Node21 -->
<g id="node21" class="node">
<title>Node21</title>
<g id="a_node21"><a xlink:href="iop_2sound_2audsrv_2src_2common_8h.html" target="_top" xlink:title=" ">
<polygon fill="white" stroke="black" points="877.5,-168.5 877.5,-187.5 939.5,-187.5 939.5,-168.5 877.5,-168.5"/>
<text text-anchor="middle" x="908.5" y="-175.5" font-family="Helvetica,sans-Serif" font-size="10.00">common.h</text>
</a>
</g>
</g>
<!-- Node1&#45;&gt;Node21 -->
<g id="edge38" class="edge">
<title>Node1&#45;&gt;Node21</title>
<path fill="none" stroke="midnightblue" d="M716.18,-225.52C761.76,-214.49 826.2,-198.91 867.67,-188.88"/>
<polygon fill="midnightblue" stroke="midnightblue" points="868.54,-192.27 877.44,-186.51 866.89,-185.46 868.54,-192.27"/>
</g>
<!-- Node22 -->
<g id="node22" class="node">
<title>Node22</title>
<g id="a_node22"><a xlink:href="iop_2sound_2audsrv_2src_2rpc__server_8h.html" target="_top" xlink:title=" ">
<polygon fill="white" stroke="black" points="957.5,-168.5 957.5,-187.5 1027.5,-187.5 1027.5,-168.5 957.5,-168.5"/>
<text text-anchor="middle" x="992.5" y="-175.5" font-family="Helvetica,sans-Serif" font-size="10.00">rpc_server.h</text>
</a>
</g>
</g>
<!-- Node1&#45;&gt;Node22 -->
<g id="edge39" class="edge">
<title>Node1&#45;&gt;Node22</title>
<path fill="none" stroke="midnightblue" d="M716.08,-229.48C771.47,-220.06 860.71,-204.61 947.44,-188.16"/>
<polygon fill="midnightblue" stroke="midnightblue" points="948.28,-191.57 957.45,-186.26 946.97,-184.69 948.28,-191.57"/>
</g>
<!-- Node23 -->
<g id="node23" class="node">
<title>Node23</title>
<g id="a_node23"><a xlink:href="iop_2sound_2audsrv_2src_2rpc__client_8h.html" target="_top" xlink:title=" ">
<polygon fill="white" stroke="black" points="1045.5,-168.5 1045.5,-187.5 1111.5,-187.5 1111.5,-168.5 1045.5,-168.5"/>
<text text-anchor="middle" x="1078.5" y="-175.5" font-family="Helvetica,sans-Serif" font-size="10.00">rpc_client.h</text>
</a>
</g>
</g>
<!-- Node1&#45;&gt;Node23 -->
<g id="edge40" class="edge">
<title>Node1&#45;&gt;Node23</title>
<path fill="none" stroke="midnightblue" d="M716.27,-232.56C787.12,-224.43 915.78,-208.67 1035.04,-188.15"/>
<polygon fill="midnightblue" stroke="midnightblue" points="1035.82,-191.56 1045.07,-186.4 1034.62,-184.67 1035.82,-191.56"/>
</g>
<!-- Node24 -->
<g id="node24" class="node">
<title>Node24</title>
<g id="a_node24"><a xlink:href="upsamplers_8h.html" target="_top" xlink:title=" ">
<polygon fill="white" stroke="black" points="1129.5,-168.5 1129.5,-187.5 1203.5,-187.5 1203.5,-168.5 1129.5,-168.5"/>
<text text-anchor="middle" x="1166.5" y="-175.5" font-family="Helvetica,sans-Serif" font-size="10.00">upsamplers.h</text>
</a>
</g>
</g>
<!-- Node1&#45;&gt;Node24 -->
<g id="edge41" class="edge">
<title>Node1&#45;&gt;Node24</title>
<path fill="none" stroke="midnightblue" d="M716.28,-234.04C800.21,-226.75 967.6,-210.92 1119.41,-188.05"/>
<polygon fill="midnightblue" stroke="midnightblue" points="1120.03,-191.5 1129.39,-186.54 1118.98,-184.58 1120.03,-191.5"/>
</g>
<!-- Node25 -->
<g id="node25" class="node">
<title>Node25</title>
<g id="a_node25"><a xlink:href="spu_8h.html" target="_top" xlink:title=" ">
<polygon fill="white" stroke="black" points="1221.5,-168.5 1221.5,-187.5 1261.5,-187.5 1261.5,-168.5 1221.5,-168.5"/>
<text text-anchor="middle" x="1241.5" y="-175.5" font-family="Helvetica,sans-Serif" font-size="10.00">spu.h</text>
</a>
</g>
</g>
<!-- Node1&#45;&gt;Node25 -->
<g id="edge42" class="edge">
<title>Node1&#45;&gt;Node25</title>
<path fill="none" stroke="midnightblue" d="M716.13,-237.29C813.38,-234.3 1025.25,-224.08 1211.39,-187.81"/>
<polygon fill="midnightblue" stroke="midnightblue" points="1212.23,-191.22 1221.36,-185.84 1210.87,-184.35 1212.23,-191.22"/>
</g>
<!-- Node26 -->
<g id="node26" class="node">
<title>Node26</title>
<g id="a_node26"><a xlink:href="hw_8h.html" target="_top" xlink:title=" ">
<polygon fill="white" stroke="black" points="1280,-168.5 1280,-187.5 1317,-187.5 1317,-168.5 1280,-168.5"/>
<text text-anchor="middle" x="1298.5" y="-175.5" font-family="Helvetica,sans-Serif" font-size="10.00">hw.h</text>
</a>
</g>
</g>
<!-- Node1&#45;&gt;Node26 -->
<g id="edge43" class="edge">
<title>Node1&#45;&gt;Node26</title>
<path fill="none" stroke="midnightblue" d="M716.34,-238.13C821.43,-236.52 1061.09,-228.51 1270.05,-187.58"/>
<polygon fill="midnightblue" stroke="midnightblue" points="1270.85,-190.99 1279.98,-185.6 1269.49,-184.12 1270.85,-190.99"/>
</g>
<!-- Node3 -->
<g id="node3" class="node">
<title>Node3</title>
<g id="a_node3"><a xlink:title=" ">
<polygon fill="white" stroke="#bfbfbf" points="320,-112.5 320,-131.5 371,-131.5 371,-112.5 320,-112.5"/>
<text text-anchor="middle" x="345.5" y="-119.5" font-family="Helvetica,sans-Serif" font-size="10.00">stdarg.h</text>
</a>
</g>
</g>
<!-- Node2&#45;&gt;Node3 -->
<g id="edge2" class="edge">
<title>Node2&#45;&gt;Node3</title>
<path fill="none" stroke="midnightblue" d="M331.31,-168.08C333.58,-160.85 336.87,-150.41 339.71,-141.4"/>
<polygon fill="midnightblue" stroke="midnightblue" points="343.08,-142.34 342.75,-131.75 336.4,-140.24 343.08,-142.34"/>
</g>
<!-- Node4 -->
<g id="node4" class="node">
<title>Node4</title>
<g id="a_node4"><a xlink:href="irx_8h.html" target="_top" xlink:title=" ">
<polygon fill="white" stroke="black" points="267.5,-112.5 267.5,-131.5 301.5,-131.5 301.5,-112.5 267.5,-112.5"/>
<text text-anchor="middle" x="284.5" y="-119.5" font-family="Helvetica,sans-Serif" font-size="10.00">irx.h</text>
</a>
</g>
</g>
<!-- Node2&#45;&gt;Node4 -->
<g id="edge3" class="edge">
<title>Node2&#45;&gt;Node4</title>
<path fill="none" stroke="midnightblue" d="M321.23,-168.08C314.96,-160.38 305.71,-149.03 298.07,-139.65"/>
<polygon fill="midnightblue" stroke="midnightblue" points="300.66,-137.29 291.63,-131.75 295.23,-141.71 300.66,-137.29"/>
</g>
<!-- Node5 -->
<g id="node5" class="node">
<title>Node5</title>
<g id="a_node5"><a xlink:href="types_8h_source.html" target="_top" xlink:title=" ">
<polygon fill="white" stroke="black" points="261,-56.5 261,-75.5 308,-75.5 308,-56.5 261,-56.5"/>
<text text-anchor="middle" x="284.5" y="-63.5" font-family="Helvetica,sans-Serif" font-size="10.00">types.h</text>
</a>
</g>
</g>
<!-- Node4&#45;&gt;Node5 -->
<g id="edge4" class="edge">
<title>Node4&#45;&gt;Node5</title>
<path fill="none" stroke="midnightblue" d="M284.5,-112.08C284.5,-105.01 284.5,-94.86 284.5,-85.99"/>
<polygon fill="midnightblue" stroke="midnightblue" points="288,-85.75 284.5,-75.75 281,-85.75 288,-85.75"/>
</g>
<!-- Node6 -->
<g id="node6" class="node">
<title>Node6</title>
<g id="a_node6"><a xlink:title=" ">
<polygon fill="white" stroke="#bfbfbf" points="259,-0.5 259,-19.5 310,-19.5 310,-0.5 259,-0.5"/>
<text text-anchor="middle" x="284.5" y="-7.5" font-family="Helvetica,sans-Serif" font-size="10.00">stddef.h</text>
</a>
</g>
</g>
<!-- Node5&#45;&gt;Node6 -->
<g id="edge5" class="edge">
<title>Node5&#45;&gt;Node6</title>
<path fill="none" stroke="midnightblue" d="M284.5,-56.08C284.5,-49.01 284.5,-38.86 284.5,-29.99"/>
<polygon fill="midnightblue" stroke="midnightblue" points="288,-29.75 284.5,-19.75 281,-29.75 288,-29.75"/>
</g>
<!-- Node7 -->
<g id="node7" class="node">
<title>Node7</title>
<g id="a_node7"><a xlink:href="tamtypes_8h.html" target="_top" xlink:title=" ">
<polygon fill="white" stroke="black" points="428.5,-0.5 428.5,-19.5 492.5,-19.5 492.5,-0.5 428.5,-0.5"/>
<text text-anchor="middle" x="460.5" y="-7.5" font-family="Helvetica,sans-Serif" font-size="10.00">tamtypes.h</text>
</a>
</g>
</g>
<!-- Node5&#45;&gt;Node7 -->
<g id="edge6" class="edge">
<title>Node5&#45;&gt;Node7</title>
<path fill="none" stroke="midnightblue" d="M308.24,-57.72C337.61,-48.7 388,-33.24 422.72,-22.59"/>
<polygon fill="midnightblue" stroke="midnightblue" points="423.97,-25.87 432.5,-19.59 421.92,-19.18 423.97,-25.87"/>
</g>
<!-- Node8&#45;&gt;Node4 -->
<g id="edge9" class="edge">
<title>Node8&#45;&gt;Node4</title>
<path fill="none" stroke="midnightblue" d="M197.21,-168.32C213.81,-159.7 239.5,-146.36 258.72,-136.39"/>
<polygon fill="midnightblue" stroke="midnightblue" points="260.57,-139.37 267.83,-131.65 257.34,-133.16 260.57,-139.37"/>
</g>
<!-- Node8&#45;&gt;Node5 -->
<g id="edge8" class="edge">
<title>Node8&#45;&gt;Node5</title>
<path fill="none" stroke="midnightblue" d="M188.66,-168.37C206.05,-149.97 246.99,-106.67 269.32,-83.05"/>
<polygon fill="midnightblue" stroke="midnightblue" points="272.05,-85.26 276.38,-75.59 266.96,-80.45 272.05,-85.26"/>
</g>
<!-- Node9&#45;&gt;Node4 -->
<g id="edge12" class="edge">
<title>Node9&#45;&gt;Node4</title>
<path fill="none" stroke="midnightblue" d="M261.12,-168.08C264.96,-160.69 270.52,-149.95 275.26,-140.81"/>
<polygon fill="midnightblue" stroke="midnightblue" points="278.47,-142.24 279.96,-131.75 272.25,-139.02 278.47,-142.24"/>
</g>
<!-- Node9&#45;&gt;Node5 -->
<g id="edge11" class="edge">
<title>Node9&#45;&gt;Node5</title>
<path fill="none" stroke="midnightblue" d="M255.45,-168.38C254.21,-155.74 252.94,-131.55 258.5,-112 261.31,-102.15 266.74,-92.18 271.92,-84.14"/>
<polygon fill="midnightblue" stroke="midnightblue" points="274.93,-85.93 277.7,-75.71 269.16,-81.97 274.93,-85.93"/>
</g>
<!-- Node10&#45;&gt;Node4 -->
<g id="edge15" class="edge">
<title>Node10&#45;&gt;Node4</title>
<path fill="none" stroke="midnightblue" d="M61.07,-170.08C64.25,-169.37 67.44,-168.67 70.5,-168 137.59,-153.4 216.68,-136.97 257.34,-128.58"/>
<polygon fill="midnightblue" stroke="midnightblue" points="258.2,-131.98 267.28,-126.53 256.78,-125.12 258.2,-131.98"/>
</g>
<!-- Node10&#45;&gt;Node5 -->
<g id="edge14" class="edge">
<title>Node10&#45;&gt;Node5</title>
<path fill="none" stroke="midnightblue" d="M49.19,-168.41C76.73,-155.79 129.89,-131.63 175.5,-112 201.75,-100.7 231.79,-88.34 253.68,-79.44"/>
<polygon fill="midnightblue" stroke="midnightblue" points="255.17,-82.61 263.12,-75.61 252.53,-76.12 255.17,-82.61"/>
</g>
<!-- Node11&#45;&gt;Node3 -->
<g id="edge19" class="edge">
<title>Node11&#45;&gt;Node3</title>
<path fill="none" stroke="midnightblue" d="M390.58,-168.08C382.72,-160.22 371.07,-148.57 361.58,-139.08"/>
<polygon fill="midnightblue" stroke="midnightblue" points="363.8,-136.35 354.25,-131.75 358.85,-141.3 363.8,-136.35"/>
</g>
<!-- Node11&#45;&gt;Node4 -->
<g id="edge18" class="edge">
<title>Node11&#45;&gt;Node4</title>
<path fill="none" stroke="midnightblue" d="M381.28,-168.44C362.27,-159.52 332.31,-145.45 310.75,-135.33"/>
<polygon fill="midnightblue" stroke="midnightblue" points="312.05,-132.07 301.51,-130.99 309.08,-138.41 312.05,-132.07"/>
</g>
<!-- Node11&#45;&gt;Node5 -->
<g id="edge17" class="edge">
<title>Node11&#45;&gt;Node5</title>
<path fill="none" stroke="midnightblue" d="M399.18,-168.37C398.23,-154.82 394.58,-128.43 380.5,-112 364.34,-93.14 338.55,-81.66 317.77,-75.02"/>
<polygon fill="midnightblue" stroke="midnightblue" points="318.61,-71.62 308.03,-72.14 316.63,-78.33 318.61,-71.62"/>
</g>
<!-- Node12&#45;&gt;Node4 -->
<g id="edge22" class="edge">
<title>Node12&#45;&gt;Node4</title>
<path fill="none" stroke="midnightblue" d="M135.55,-168.44C168.97,-158.25 224.43,-141.33 257.42,-131.26"/>
<polygon fill="midnightblue" stroke="midnightblue" points="258.75,-134.52 267.29,-128.25 256.7,-127.82 258.75,-134.52"/>
</g>
<!-- Node12&#45;&gt;Node5 -->
<g id="edge21" class="edge">
<title>Node12&#45;&gt;Node5</title>
<path fill="none" stroke="midnightblue" d="M121.39,-168.37C151.89,-149.41 224.96,-104 262.07,-80.94"/>
<polygon fill="midnightblue" stroke="midnightblue" points="264.03,-83.84 270.68,-75.59 260.33,-77.9 264.03,-83.84"/>
</g>
<!-- Node15&#45;&gt;Node4 -->
<g id="edge27" class="edge">
<title>Node15&#45;&gt;Node4</title>
<path fill="none" stroke="midnightblue" d="M520.3,-169.81C517.32,-169.18 514.36,-168.57 511.5,-168 422.93,-150.31 399.01,-154.34 311.5,-132 311.4,-131.97 311.3,-131.95 311.19,-131.92"/>
<polygon fill="midnightblue" stroke="midnightblue" points="312.11,-128.54 301.53,-129.09 310.14,-135.26 312.11,-128.54"/>
</g>
<!-- Node15&#45;&gt;Node5 -->
<g id="edge26" class="edge">
<title>Node15&#45;&gt;Node5</title>
<path fill="none" stroke="midnightblue" d="M537.76,-168.35C514.63,-155.02 468.13,-129.19 426.5,-112 390.15,-96.99 346.88,-83.93 317.74,-75.81"/>
<polygon fill="midnightblue" stroke="midnightblue" points="318.62,-72.42 308.05,-73.14 316.76,-79.17 318.62,-72.42"/>
</g>
<!-- Node16 -->
<g id="node16" class="node">
<title>Node16</title>
<g id="a_node16"><a xlink:href="libcdvd-common_8h.html" target="_top" xlink:title=" ">
<polygon fill="white" stroke="black" points="505,-56.5 505,-75.5 600,-75.5 600,-56.5 505,-56.5"/>
<text text-anchor="middle" x="552.5" y="-63.5" font-family="Helvetica,sans-Serif" font-size="10.00">libcdvd&#45;common.h</text>
</a>
</g>
</g>
<!-- Node15&#45;&gt;Node16 -->
<g id="edge28" class="edge">
<title>Node15&#45;&gt;Node16</title>
<path fill="none" stroke="midnightblue" d="M552.5,-168.37C552.5,-150.62 552.5,-109.67 552.5,-85.6"/>
<polygon fill="midnightblue" stroke="midnightblue" points="556,-85.59 552.5,-75.59 549,-85.59 556,-85.59"/>
</g>
<!-- Node16&#45;&gt;Node7 -->
<g id="edge29" class="edge">
<title>Node16&#45;&gt;Node7</title>
<path fill="none" stroke="midnightblue" d="M537.72,-56.32C523.23,-47.82 500.93,-34.73 484.01,-24.8"/>
<polygon fill="midnightblue" stroke="midnightblue" points="485.64,-21.7 475.24,-19.65 482.1,-27.74 485.64,-21.7"/>
</g>
<!-- Node17&#45;&gt;Node3 -->
<g id="edge33" class="edge">
<title>Node17&#45;&gt;Node3</title>
<path fill="none" stroke="midnightblue" d="M454.9,-168.44C433.51,-159.56 399.82,-145.56 375.48,-135.45"/>
<polygon fill="midnightblue" stroke="midnightblue" points="376.58,-132.12 366,-131.52 373.89,-138.58 376.58,-132.12"/>
</g>
<!-- Node17&#45;&gt;Node4 -->
<g id="edge32" class="edge">
<title>Node17&#45;&gt;Node4</title>
<path fill="none" stroke="midnightblue" d="M448.38,-170.04C415.76,-161.55 359.39,-146.54 311.5,-132 311.4,-131.97 311.3,-131.94 311.2,-131.91"/>
<polygon fill="midnightblue" stroke="midnightblue" points="312.19,-128.55 301.6,-128.85 310.06,-135.22 312.19,-128.55"/>
</g>
<!-- Node17&#45;&gt;Node5 -->
<g id="edge31" class="edge">
<title>Node17&#45;&gt;Node5</title>
<path fill="none" stroke="midnightblue" d="M467.35,-168.37C454.17,-154.82 426.9,-128.43 399.5,-112 373.6,-96.46 341.38,-84.4 317.64,-76.69"/>
<polygon fill="midnightblue" stroke="midnightblue" points="318.62,-73.33 308.03,-73.66 316.51,-80 318.62,-73.33"/>
</g>
<!-- Node18 -->
<g id="node18" class="node">
<title>Node18</title>
<g id="a_node18"><a xlink:href="setjmp_8h.html" target="_top" xlink:title=" ">
<polygon fill="white" stroke="black" points="434,-56.5 434,-75.5 487,-75.5 487,-56.5 434,-56.5"/>
<text text-anchor="middle" x="460.5" y="-63.5" font-family="Helvetica,sans-Serif" font-size="10.00">setjmp.h</text>
</a>
</g>
</g>
<!-- Node17&#45;&gt;Node18 -->
<g id="edge34" class="edge">
<title>Node17&#45;&gt;Node18</title>
<path fill="none" stroke="midnightblue" d="M474.32,-168.37C471.9,-150.62 466.32,-109.67 463.04,-85.6"/>
<polygon fill="midnightblue" stroke="midnightblue" points="466.49,-85.03 461.67,-75.59 459.55,-85.97 466.49,-85.03"/>
</g>
<!-- Node18&#45;&gt;Node7 -->
<g id="edge35" class="edge">
<title>Node18&#45;&gt;Node7</title>
<path fill="none" stroke="midnightblue" d="M460.5,-56.08C460.5,-49.01 460.5,-38.86 460.5,-29.99"/>
<polygon fill="midnightblue" stroke="midnightblue" points="464,-29.75 460.5,-19.75 457,-29.75 464,-29.75"/>
</g>
</g>
</svg>
        <g id="navigator" transform="translate(0 0)" fill="#404254">
                <rect fill="#f2f5e9" fill-opacity="0.5" stroke="#606060" stroke-width=".5" x="0" y="0" width="60" height="60"/>
                <use id="zoomplus" xlink:href="#zoomPlus" x="17" y="9" onmousedown="handleZoom(evt,'in')"/>
                <use id="zoomminus" xlink:href="#zoomMin" x="42" y="9" onmousedown="handleZoom(evt,'out')"/>
                <use id="reset" xlink:href="#resetDef" x="30" y="36" onmousedown="handleReset()"/>
                <g id="arrowUp" xlink:href="#dirArrow" transform="translate(30 24)" onmousedown="handlePan(0,-1)">
                  <use xlink:href="#rim" fill="#404040">
                        <set attributeName="fill" to="#808080" begin="arrowUp.mouseover" end="arrowUp.mouseout"/>
                  </use>
                  <path fill="none" stroke="white" stroke-width="1.5" d="M0,-3.0v7 M-2.5,-0.5L0,-3.0L2.5,-0.5"/>
                </g>
                <g id="arrowRight" xlink:href="#dirArrow" transform="rotate(90) translate(36 -43)" onmousedown="handlePan(1,0)">
                  <use xlink:href="#rim" fill="#404040">
                        <set attributeName="fill" to="#808080" begin="arrowRight.mouseover" end="arrowRight.mouseout"/>
                  </use>
                  <path fill="none" stroke="white" stroke-width="1.5" d="M0,-3.0v7 M-2.5,-0.5L0,-3.0L2.5,-0.5"/>
                </g>
                <g id="arrowDown" xlink:href="#dirArrow" transform="rotate(180) translate(-30 -48)" onmousedown="handlePan(0,1)">
                  <use xlink:href="#rim" fill="#404040">
                        <set attributeName="fill" to="#808080" begin="arrowDown.mouseover" end="arrowDown.mouseout"/>
                  </use>
                  <path fill="none" stroke="white" stroke-width="1.5" d="M0,-3.0v7 M-2.5,-0.5L0,-3.0L2.5,-0.5"/>
                </g>
                <g id="arrowLeft" xlink:href="#dirArrow" transform="rotate(270) translate(-36 17)" onmousedown="handlePan(-1,0)">
                  <use xlink:href="#rim" fill="#404040">
                        <set attributeName="fill" to="#808080" begin="arrowLeft.mouseover" end="arrowLeft.mouseout"/>
                  </use>
                  <path fill="none" stroke="white" stroke-width="1.5" d="M0,-3.0v7 M-2.5,-0.5L0,-3.0L2.5,-0.5"/>
                </g>
        </g>
        <svg viewBox="0 0 15 15" width="100%" height="30px" preserveAspectRatio="xMaxYMin meet">
         <g id="arrow_out" transform="scale(0.3 0.3)">
          <a xlink:href="cdrom_8c__incl_org.svg" target="_base">
           <rect id="button" ry="5" rx="5" y="6" x="6" height="38" width="38"
                fill="#f2f5e9" fill-opacity="0.5" stroke="#606060" stroke-width="1.0"/>
           <path id="arrow"
             d="M 11.500037,31.436501 C 11.940474,20.09759 22.043105,11.32322 32.158766,21.979434 L 37.068811,17.246167 C 37.068811,17.246167 37.088388,32 37.088388,32 L 22.160133,31.978069 C 22.160133,31.978069 26.997745,27.140456 26.997745,27.140456 C 18.528582,18.264221 13.291696,25.230495 11.500037,31.436501 z"
             style="fill:#404040;"/>
          </a>
         </g>
        </svg>
</svg>
