<?xml version="1.0" encoding="UTF-8" standalone="no"?>
<!DOCTYPE svg PUBLIC "-//W3C//DTD SVG 1.1//EN"
 "http://www.w3.org/Graphics/SVG/1.1/DTD/svg11.dtd">
<!-- Generated by graphviz version 2.46.1 (20210215.1649)
 -->
<!-- Title: iop/system/iopmgr/src/commandline.c Pages: 1 -->
<svg width="534pt" height="319pt"
 viewBox="0.00 0.00 533.50 319.00" xmlns="http://www.w3.org/2000/svg" xmlns:xlink="http://www.w3.org/1999/xlink">
<g id="graph0" class="graph" transform="scale(1 1) rotate(0) translate(4 315)">
<title>iop/system/iopmgr/src/commandline.c</title>
<polygon fill="white" stroke="transparent" points="-4,4 -4,-315 529.5,-315 529.5,4 -4,4"/>
<!-- Node1 -->
<g id="node1" class="node">
<title>Node1</title>
<g id="a_node1"><a xlink:title=" ">
<polygon fill="#bfbfbf" stroke="black" points="106,-280.5 106,-310.5 219,-310.5 219,-280.5 106,-280.5"/>
<text text-anchor="start" x="114" y="-298.5" font-family="Helvetica,sans-Serif" font-size="10.00">iop/system/iopmgr/src</text>
<text text-anchor="middle" x="162.5" y="-287.5" font-family="Helvetica,sans-Serif" font-size="10.00">/commandline.c</text>
</a>
</g>
</g>
<!-- Node2 -->
<g id="node2" class="node">
<title>Node2</title>
<g id="a_node2"><a xlink:href="defs_8h.html" target="_top" xlink:title=" ">
<polygon fill="white" stroke="black" points="0,-224.5 0,-243.5 43,-243.5 43,-224.5 0,-224.5"/>
<text text-anchor="middle" x="21.5" y="-231.5" font-family="Helvetica,sans-Serif" font-size="10.00">defs.h</text>
</a>
</g>
</g>
<!-- Node1&#45;&gt;Node2 -->
<g id="edge1" class="edge">
<title>Node1&#45;&gt;Node2</title>
<path fill="none" stroke="midnightblue" d="M129.08,-280.4C105.53,-270.46 74.26,-257.26 51.51,-247.66"/>
<polygon fill="midnightblue" stroke="midnightblue" points="52.59,-244.32 42.02,-243.66 49.87,-250.77 52.59,-244.32"/>
</g>
<!-- Node6 -->
<g id="node6" class="node">
<title>Node6</title>
<g id="a_node6"><a xlink:href="ioman_x_8h.html" target="_top" xlink:title=" ">
<polygon fill="white" stroke="black" points="203,-168.5 203,-187.5 260,-187.5 260,-168.5 203,-168.5"/>
<text text-anchor="middle" x="231.5" y="-175.5" font-family="Helvetica,sans-Serif" font-size="10.00">iomanX.h</text>
</a>
</g>
</g>
<!-- Node1&#45;&gt;Node6 -->
<g id="edge5" class="edge">
<title>Node1&#45;&gt;Node6</title>
<path fill="none" stroke="midnightblue" d="M170.96,-280.34C183.62,-259.15 207.46,-219.24 221.14,-196.34"/>
<polygon fill="midnightblue" stroke="midnightblue" points="224.2,-198.05 226.32,-187.67 218.19,-194.46 224.2,-198.05"/>
</g>
<!-- Node13 -->
<g id="node13" class="node">
<title>Node13</title>
<g id="a_node13"><a xlink:href="stdio_8h.html" target="_top" xlink:title=" ">
<polygon fill="white" stroke="black" points="140,-168.5 140,-187.5 185,-187.5 185,-168.5 140,-168.5"/>
<text text-anchor="middle" x="162.5" y="-175.5" font-family="Helvetica,sans-Serif" font-size="10.00">stdio.h</text>
</a>
</g>
</g>
<!-- Node1&#45;&gt;Node13 -->
<g id="edge14" class="edge">
<title>Node1&#45;&gt;Node13</title>
<path fill="none" stroke="midnightblue" d="M162.5,-280.34C162.5,-259.62 162.5,-221.02 162.5,-197.9"/>
<polygon fill="midnightblue" stroke="midnightblue" points="166,-197.67 162.5,-187.67 159,-197.67 166,-197.67"/>
</g>
<!-- Node15 -->
<g id="node15" class="node">
<title>Node15</title>
<g id="a_node15"><a xlink:href="sysclib_8h.html" target="_top" xlink:title=" ">
<polygon fill="white" stroke="black" points="67.5,-168.5 67.5,-187.5 121.5,-187.5 121.5,-168.5 67.5,-168.5"/>
<text text-anchor="middle" x="94.5" y="-175.5" font-family="Helvetica,sans-Serif" font-size="10.00">sysclib.h</text>
</a>
</g>
</g>
<!-- Node1&#45;&gt;Node15 -->
<g id="edge17" class="edge">
<title>Node1&#45;&gt;Node15</title>
<path fill="none" stroke="midnightblue" d="M154.16,-280.34C141.69,-259.15 118.19,-219.24 104.71,-196.34"/>
<polygon fill="midnightblue" stroke="midnightblue" points="107.69,-194.51 99.6,-187.67 101.66,-198.06 107.69,-194.51"/>
</g>
<!-- Node17 -->
<g id="node17" class="node">
<title>Node17</title>
<g id="a_node17"><a xlink:href="iopmgr_8h.html" target="_top" xlink:title=" ">
<polygon fill="white" stroke="black" points="321,-224.5 321,-243.5 374,-243.5 374,-224.5 321,-224.5"/>
<text text-anchor="middle" x="347.5" y="-231.5" font-family="Helvetica,sans-Serif" font-size="10.00">iopmgr.h</text>
</a>
</g>
</g>
<!-- Node1&#45;&gt;Node17 -->
<g id="edge23" class="edge">
<title>Node1&#45;&gt;Node17</title>
<path fill="none" stroke="midnightblue" d="M206.34,-280.4C238.31,-270.12 281.12,-256.35 311.18,-246.68"/>
<polygon fill="midnightblue" stroke="midnightblue" points="312.4,-249.96 320.85,-243.57 310.26,-243.3 312.4,-249.96"/>
</g>
<!-- Node3 -->
<g id="node3" class="node">
<title>Node3</title>
<g id="a_node3"><a xlink:href="types_8h_source.html" target="_top" xlink:title=" ">
<polygon fill="white" stroke="black" points="241,-56.5 241,-75.5 288,-75.5 288,-56.5 241,-56.5"/>
<text text-anchor="middle" x="264.5" y="-63.5" font-family="Helvetica,sans-Serif" font-size="10.00">types.h</text>
</a>
</g>
</g>
<!-- Node2&#45;&gt;Node3 -->
<g id="edge2" class="edge">
<title>Node2&#45;&gt;Node3</title>
<path fill="none" stroke="midnightblue" d="M23.15,-224.4C27.89,-202.1 43.71,-142.08 81.5,-112 133.06,-70.97 162.96,-91.29 230.92,-76.17"/>
<polygon fill="midnightblue" stroke="midnightblue" points="231.86,-79.54 240.76,-73.79 230.22,-72.74 231.86,-79.54"/>
</g>
<!-- Node4 -->
<g id="node4" class="node">
<title>Node4</title>
<g id="a_node4"><a xlink:title=" ">
<polygon fill="white" stroke="#bfbfbf" points="239,-0.5 239,-19.5 290,-19.5 290,-0.5 239,-0.5"/>
<text text-anchor="middle" x="264.5" y="-7.5" font-family="Helvetica,sans-Serif" font-size="10.00">stddef.h</text>
</a>
</g>
</g>
<!-- Node3&#45;&gt;Node4 -->
<g id="edge3" class="edge">
<title>Node3&#45;&gt;Node4</title>
<path fill="none" stroke="midnightblue" d="M264.5,-56.08C264.5,-49.01 264.5,-38.86 264.5,-29.99"/>
<polygon fill="midnightblue" stroke="midnightblue" points="268,-29.75 264.5,-19.75 261,-29.75 268,-29.75"/>
</g>
<!-- Node5 -->
<g id="node5" class="node">
<title>Node5</title>
<g id="a_node5"><a xlink:href="tamtypes_8h.html" target="_top" xlink:title=" ">
<polygon fill="white" stroke="black" points="121.5,-0.5 121.5,-19.5 185.5,-19.5 185.5,-0.5 121.5,-0.5"/>
<text text-anchor="middle" x="153.5" y="-7.5" font-family="Helvetica,sans-Serif" font-size="10.00">tamtypes.h</text>
</a>
</g>
</g>
<!-- Node3&#45;&gt;Node5 -->
<g id="edge4" class="edge">
<title>Node3&#45;&gt;Node5</title>
<path fill="none" stroke="midnightblue" d="M246.67,-56.32C228.78,-47.62 201.02,-34.12 180.45,-24.11"/>
<polygon fill="midnightblue" stroke="midnightblue" points="181.81,-20.88 171.29,-19.65 178.75,-27.18 181.81,-20.88"/>
</g>
<!-- Node6&#45;&gt;Node3 -->
<g id="edge6" class="edge">
<title>Node6&#45;&gt;Node3</title>
<path fill="none" stroke="midnightblue" d="M234.09,-168.37C239.44,-150.54 251.81,-109.3 259.02,-85.27"/>
<polygon fill="midnightblue" stroke="midnightblue" points="262.4,-86.18 261.92,-75.59 255.7,-84.16 262.4,-86.18"/>
</g>
<!-- Node7 -->
<g id="node7" class="node">
<title>Node7</title>
<g id="a_node7"><a xlink:href="irx_8h.html" target="_top" xlink:title=" ">
<polygon fill="white" stroke="black" points="285.5,-112.5 285.5,-131.5 319.5,-131.5 319.5,-112.5 285.5,-112.5"/>
<text text-anchor="middle" x="302.5" y="-119.5" font-family="Helvetica,sans-Serif" font-size="10.00">irx.h</text>
</a>
</g>
</g>
<!-- Node6&#45;&gt;Node7 -->
<g id="edge7" class="edge">
<title>Node6&#45;&gt;Node7</title>
<path fill="none" stroke="midnightblue" d="M242.91,-168.32C253.61,-160.18 269.84,-147.84 282.66,-138.09"/>
<polygon fill="midnightblue" stroke="midnightblue" points="285.04,-140.67 290.89,-131.83 280.81,-135.1 285.04,-140.67"/>
</g>
<!-- Node8 -->
<g id="node8" class="node">
<title>Node8</title>
<g id="a_node8"><a xlink:href="io__common_8h.html" target="_top" xlink:title=" ">
<polygon fill="white" stroke="black" points="413.5,-112.5 413.5,-131.5 487.5,-131.5 487.5,-112.5 413.5,-112.5"/>
<text text-anchor="middle" x="450.5" y="-119.5" font-family="Helvetica,sans-Serif" font-size="10.00">io_common.h</text>
</a>
</g>
</g>
<!-- Node6&#45;&gt;Node8 -->
<g id="edge9" class="edge">
<title>Node6&#45;&gt;Node8</title>
<path fill="none" stroke="midnightblue" d="M260.13,-169.94C297.24,-160.79 362.35,-144.74 405.95,-133.99"/>
<polygon fill="midnightblue" stroke="midnightblue" points="406.85,-137.37 415.72,-131.58 405.17,-130.57 406.85,-137.37"/>
</g>
<!-- Node11 -->
<g id="node11" class="node">
<title>Node11</title>
<g id="a_node11"><a xlink:href="iox__stat_8h.html" target="_top" xlink:title=" ">
<polygon fill="white" stroke="black" points="171.5,-112.5 171.5,-131.5 229.5,-131.5 229.5,-112.5 171.5,-112.5"/>
<text text-anchor="middle" x="200.5" y="-119.5" font-family="Helvetica,sans-Serif" font-size="10.00">iox_stat.h</text>
</a>
</g>
</g>
<!-- Node6&#45;&gt;Node11 -->
<g id="edge12" class="edge">
<title>Node6&#45;&gt;Node11</title>
<path fill="none" stroke="midnightblue" d="M226.38,-168.08C222.09,-160.61 215.84,-149.72 210.56,-140.52"/>
<polygon fill="midnightblue" stroke="midnightblue" points="213.54,-138.68 205.52,-131.75 207.47,-142.17 213.54,-138.68"/>
</g>
<!-- Node7&#45;&gt;Node3 -->
<g id="edge8" class="edge">
<title>Node7&#45;&gt;Node3</title>
<path fill="none" stroke="midnightblue" d="M296.23,-112.08C290.86,-104.46 282.98,-93.26 276.42,-83.94"/>
<polygon fill="midnightblue" stroke="midnightblue" points="279.28,-81.91 270.66,-75.75 273.55,-85.94 279.28,-81.91"/>
</g>
<!-- Node9 -->
<g id="node9" class="node">
<title>Node9</title>
<g id="a_node9"><a xlink:href="fcntl_8h_source.html" target="_top" xlink:title=" ">
<polygon fill="white" stroke="black" points="378,-56.5 378,-75.5 439,-75.5 439,-56.5 378,-56.5"/>
<text text-anchor="middle" x="408.5" y="-63.5" font-family="Helvetica,sans-Serif" font-size="10.00">sys/fcntl.h</text>
</a>
</g>
</g>
<!-- Node8&#45;&gt;Node9 -->
<g id="edge10" class="edge">
<title>Node8&#45;&gt;Node9</title>
<path fill="none" stroke="midnightblue" d="M443.56,-112.08C437.57,-104.38 428.75,-93.03 421.45,-83.65"/>
<polygon fill="midnightblue" stroke="midnightblue" points="424.21,-81.5 415.31,-75.75 418.68,-85.79 424.21,-81.5"/>
</g>
<!-- Node10 -->
<g id="node10" class="node">
<title>Node10</title>
<g id="a_node10"><a xlink:href="unistd_8h_source.html" target="_top" xlink:title=" ">
<polygon fill="white" stroke="black" points="457.5,-56.5 457.5,-75.5 525.5,-75.5 525.5,-56.5 457.5,-56.5"/>
<text text-anchor="middle" x="491.5" y="-63.5" font-family="Helvetica,sans-Serif" font-size="10.00">sys/unistd.h</text>
</a>
</g>
</g>
<!-- Node8&#45;&gt;Node10 -->
<g id="edge11" class="edge">
<title>Node8&#45;&gt;Node10</title>
<path fill="none" stroke="midnightblue" d="M457.27,-112.08C463.06,-104.46 471.56,-93.26 478.64,-83.94"/>
<polygon fill="midnightblue" stroke="midnightblue" points="481.6,-85.83 484.86,-75.75 476.02,-81.6 481.6,-85.83"/>
</g>
<!-- Node12 -->
<g id="node12" class="node">
<title>Node12</title>
<g id="a_node12"><a xlink:href="time_8h.html" target="_top" xlink:title=" ">
<polygon fill="white" stroke="black" points="162,-56.5 162,-75.5 223,-75.5 223,-56.5 162,-56.5"/>
<text text-anchor="middle" x="192.5" y="-63.5" font-family="Helvetica,sans-Serif" font-size="10.00">sys/time.h</text>
</a>
</g>
</g>
<!-- Node11&#45;&gt;Node12 -->
<g id="edge13" class="edge">
<title>Node11&#45;&gt;Node12</title>
<path fill="none" stroke="midnightblue" d="M199.18,-112.08C198.12,-104.93 196.59,-94.64 195.27,-85.69"/>
<polygon fill="midnightblue" stroke="midnightblue" points="198.72,-85.13 193.8,-75.75 191.8,-86.16 198.72,-85.13"/>
</g>
<!-- Node13&#45;&gt;Node7 -->
<g id="edge16" class="edge">
<title>Node13&#45;&gt;Node7</title>
<path fill="none" stroke="midnightblue" d="M184.68,-168.44C209.43,-158.9 249.46,-143.46 275.88,-133.27"/>
<polygon fill="midnightblue" stroke="midnightblue" points="277.2,-136.51 285.28,-129.64 274.69,-129.98 277.2,-136.51"/>
</g>
<!-- Node14 -->
<g id="node14" class="node">
<title>Node14</title>
<g id="a_node14"><a xlink:title=" ">
<polygon fill="white" stroke="#bfbfbf" points="102,-112.5 102,-131.5 153,-131.5 153,-112.5 102,-112.5"/>
<text text-anchor="middle" x="127.5" y="-119.5" font-family="Helvetica,sans-Serif" font-size="10.00">stdarg.h</text>
</a>
</g>
</g>
<!-- Node13&#45;&gt;Node14 -->
<g id="edge15" class="edge">
<title>Node13&#45;&gt;Node14</title>
<path fill="none" stroke="midnightblue" d="M156.72,-168.08C151.83,-160.53 144.67,-149.49 138.67,-140.23"/>
<polygon fill="midnightblue" stroke="midnightblue" points="141.55,-138.24 133.17,-131.75 135.67,-142.05 141.55,-138.24"/>
</g>
<!-- Node15&#45;&gt;Node3 -->
<g id="edge18" class="edge">
<title>Node15&#45;&gt;Node3</title>
<path fill="none" stroke="midnightblue" d="M91.09,-168.36C86.37,-154.81 79.77,-128.42 92.5,-112 129.95,-63.71 166.69,-89.82 230.68,-76.17"/>
<polygon fill="midnightblue" stroke="midnightblue" points="231.85,-79.49 240.75,-73.74 230.21,-72.69 231.85,-79.49"/>
</g>
<!-- Node15&#45;&gt;Node7 -->
<g id="edge19" class="edge">
<title>Node15&#45;&gt;Node7</title>
<path fill="none" stroke="midnightblue" d="M121.69,-169.94C161.62,-159.57 235.68,-140.35 275.5,-130.01"/>
<polygon fill="midnightblue" stroke="midnightblue" points="276.5,-133.36 285.3,-127.46 274.75,-126.59 276.5,-133.36"/>
</g>
<!-- Node15&#45;&gt;Node14 -->
<g id="edge20" class="edge">
<title>Node15&#45;&gt;Node14</title>
<path fill="none" stroke="midnightblue" d="M99.95,-168.08C104.51,-160.61 111.17,-149.72 116.79,-140.52"/>
<polygon fill="midnightblue" stroke="midnightblue" points="119.92,-142.11 122.15,-131.75 113.95,-138.46 119.92,-142.11"/>
</g>
<!-- Node16 -->
<g id="node16" class="node">
<title>Node16</title>
<g id="a_node16"><a xlink:href="setjmp_8h.html" target="_top" xlink:title=" ">
<polygon fill="white" stroke="black" points="54,-56.5 54,-75.5 107,-75.5 107,-56.5 54,-56.5"/>
<text text-anchor="middle" x="80.5" y="-63.5" font-family="Helvetica,sans-Serif" font-size="10.00">setjmp.h</text>
</a>
</g>
</g>
<!-- Node15&#45;&gt;Node16 -->
<g id="edge21" class="edge">
<title>Node15&#45;&gt;Node16</title>
<path fill="none" stroke="midnightblue" d="M84.94,-168.45C76.41,-160.12 64.51,-146.6 59.5,-132 53.99,-115.93 61.22,-97.5 68.66,-84.37"/>
<polygon fill="midnightblue" stroke="midnightblue" points="71.64,-86.21 73.93,-75.86 65.69,-82.52 71.64,-86.21"/>
</g>
<!-- Node16&#45;&gt;Node5 -->
<g id="edge22" class="edge">
<title>Node16&#45;&gt;Node5</title>
<path fill="none" stroke="midnightblue" d="M92.23,-56.32C103.34,-48.11 120.24,-35.6 133.48,-25.81"/>
<polygon fill="midnightblue" stroke="midnightblue" points="135.6,-28.59 141.56,-19.83 131.44,-22.97 135.6,-28.59"/>
</g>
<!-- Node17&#45;&gt;Node7 -->
<g id="edge25" class="edge">
<title>Node17&#45;&gt;Node7</title>
<path fill="none" stroke="midnightblue" d="M336.83,-224.24C327.59,-215.95 314.74,-202.65 308.5,-188 302.31,-173.49 301.08,-155.54 301.24,-142.18"/>
<polygon fill="midnightblue" stroke="midnightblue" points="304.75,-141.96 301.66,-131.82 297.76,-141.68 304.75,-141.96"/>
</g>
<!-- Node18 -->
<g id="node18" class="node">
<title>Node18</title>
<g id="a_node18"><a xlink:title=" ">
<polygon fill="white" stroke="#bfbfbf" points="465,-168.5 465,-187.5 512,-187.5 512,-168.5 465,-168.5"/>
<text text-anchor="middle" x="488.5" y="-175.5" font-family="Helvetica,sans-Serif" font-size="10.00">types.h</text>
</a>
</g>
</g>
<!-- Node17&#45;&gt;Node18 -->
<g id="edge24" class="edge">
<title>Node17&#45;&gt;Node18</title>
<path fill="none" stroke="midnightblue" d="M369.84,-224.44C393.25,-215.48 430.24,-201.31 456.69,-191.18"/>
<polygon fill="midnightblue" stroke="midnightblue" points="458.18,-194.36 466.26,-187.52 455.67,-187.82 458.18,-194.36"/>
</g>
<!-- Node19 -->
<g id="node19" class="node">
<title>Node19</title>
<g id="a_node19"><a xlink:href="ioman_8h.html" target="_top" xlink:title=" ">
<polygon fill="white" stroke="black" points="396.5,-168.5 396.5,-187.5 446.5,-187.5 446.5,-168.5 396.5,-168.5"/>
<text text-anchor="middle" x="421.5" y="-175.5" font-family="Helvetica,sans-Serif" font-size="10.00">ioman.h</text>
</a>
</g>
</g>
<!-- Node17&#45;&gt;Node19 -->
<g id="edge26" class="edge">
<title>Node17&#45;&gt;Node19</title>
<path fill="none" stroke="midnightblue" d="M359.39,-224.32C370.65,-216.11 387.79,-203.6 401.21,-193.81"/>
<polygon fill="midnightblue" stroke="midnightblue" points="403.38,-196.56 409.39,-187.83 399.25,-190.9 403.38,-196.56"/>
</g>
<!-- Node20 -->
<g id="node20" class="node">
<title>Node20</title>
<g id="a_node20"><a xlink:href="loadcore_8h.html" target="_top" xlink:title=" ">
<polygon fill="white" stroke="black" points="317,-168.5 317,-187.5 378,-187.5 378,-168.5 317,-168.5"/>
<text text-anchor="middle" x="347.5" y="-175.5" font-family="Helvetica,sans-Serif" font-size="10.00">loadcore.h</text>
</a>
</g>
</g>
<!-- Node17&#45;&gt;Node20 -->
<g id="edge30" class="edge">
<title>Node17&#45;&gt;Node20</title>
<path fill="none" stroke="midnightblue" d="M347.5,-224.08C347.5,-217.01 347.5,-206.86 347.5,-197.99"/>
<polygon fill="midnightblue" stroke="midnightblue" points="351,-197.75 347.5,-187.75 344,-197.75 351,-197.75"/>
</g>
<!-- Node19&#45;&gt;Node3 -->
<g id="edge27" class="edge">
<title>Node19&#45;&gt;Node3</title>
<path fill="none" stroke="midnightblue" d="M412.92,-168.31C399.66,-155.14 373.03,-129.8 347.5,-112 329.96,-99.78 308.76,-88.33 292.17,-80.04"/>
<polygon fill="midnightblue" stroke="midnightblue" points="293.52,-76.8 283,-75.54 290.43,-83.09 293.52,-76.8"/>
</g>
<!-- Node19&#45;&gt;Node7 -->
<g id="edge28" class="edge">
<title>Node19&#45;&gt;Node7</title>
<path fill="none" stroke="midnightblue" d="M402.64,-168.44C382.78,-159.43 351.33,-145.16 328.98,-135.02"/>
<polygon fill="midnightblue" stroke="midnightblue" points="330.27,-131.76 319.72,-130.82 327.38,-138.13 330.27,-131.76"/>
</g>
<!-- Node19&#45;&gt;Node8 -->
<g id="edge29" class="edge">
<title>Node19&#45;&gt;Node8</title>
<path fill="none" stroke="midnightblue" d="M426.29,-168.08C430.26,-160.69 436.03,-149.95 440.93,-140.81"/>
<polygon fill="midnightblue" stroke="midnightblue" points="444.15,-142.22 445.8,-131.75 437.99,-138.91 444.15,-142.22"/>
</g>
<!-- Node20&#45;&gt;Node3 -->
<g id="edge31" class="edge">
<title>Node20&#45;&gt;Node3</title>
<path fill="none" stroke="midnightblue" d="M346.78,-168.21C345.3,-154.91 340.95,-129.4 328.5,-112 319.09,-98.85 304.58,-88.19 291.76,-80.56"/>
<polygon fill="midnightblue" stroke="midnightblue" points="293.25,-77.38 282.81,-75.54 289.82,-83.49 293.25,-77.38"/>
</g>
<!-- Node20&#45;&gt;Node7 -->
<g id="edge32" class="edge">
<title>Node20&#45;&gt;Node7</title>
<path fill="none" stroke="midnightblue" d="M340.07,-168.08C333.65,-160.38 324.19,-149.03 316.38,-139.65"/>
<polygon fill="midnightblue" stroke="midnightblue" points="318.88,-137.19 309.79,-131.75 313.51,-141.67 318.88,-137.19"/>
</g>
</g>
</svg>
