<?xml version="1.0" encoding="UTF-8" standalone="no"?>
<!DOCTYPE svg PUBLIC "-//W3C//DTD SVG 1.1//EN"
 "http://www.w3.org/Graphics/SVG/1.1/DTD/svg11.dtd">
<!-- Generated by graphviz version 2.46.1 (20210215.1649)
 -->
<!-- Title: iop/kernel/include/ctype.h Pages: 1 -->
<svg width="760pt" height="106pt"
 viewBox="0.00 0.00 760.00 106.00" xmlns="http://www.w3.org/2000/svg" xmlns:xlink="http://www.w3.org/1999/xlink">
<g id="graph0" class="graph" transform="scale(1 1) rotate(0) translate(4 102)">
<title>iop/kernel/include/ctype.h</title>
<polygon fill="white" stroke="transparent" points="-4,4 -4,-102 756,-102 756,4 -4,4"/>
<!-- Node1 -->
<g id="node1" class="node">
<title>Node1</title>
<g id="a_node1"><a xlink:title=" ">
<polygon fill="#bfbfbf" stroke="black" points="297,-67.5 297,-97.5 389,-97.5 389,-67.5 297,-67.5"/>
<text text-anchor="start" x="305" y="-85.5" font-family="Helvetica,sans-Serif" font-size="10.00">iop/kernel/include</text>
<text text-anchor="middle" x="343" y="-74.5" font-family="Helvetica,sans-Serif" font-size="10.00">/ctype.h</text>
</a>
</g>
</g>
<!-- Node2 -->
<g id="node2" class="node">
<title>Node2</title>
<g id="a_node2"><a xlink:href="xprintf_8c_source.html" target="_top" xlink:title=" ">
<polygon fill="white" stroke="black" points="0,-0.5 0,-30.5 94,-30.5 94,-0.5 0,-0.5"/>
<text text-anchor="start" x="8" y="-18.5" font-family="Helvetica,sans-Serif" font-size="10.00">iop/debug/sior/src</text>
<text text-anchor="middle" x="47" y="-7.5" font-family="Helvetica,sans-Serif" font-size="10.00">/xprintf.c</text>
</a>
</g>
</g>
<!-- Node1&#45;&gt;Node2 -->
<g id="edge1" class="edge">
<title>Node1&#45;&gt;Node2</title>
<path fill="none" stroke="midnightblue" d="M286.82,-70.44C238.08,-60.66 165.7,-45.7 103,-31 100.07,-30.31 97.05,-29.59 94.01,-28.84"/>
<polygon fill="midnightblue" stroke="midnightblue" points="286.36,-73.92 296.85,-72.44 287.73,-67.05 286.36,-73.92"/>
</g>
<!-- Node3 -->
<g id="node3" class="node">
<title>Node3</title>
<g id="a_node3"><a xlink:href="libpfs_2src_2misc_8c_source.html" target="_top" xlink:title=" ">
<polygon fill="white" stroke="black" points="112.5,-0.5 112.5,-30.5 203.5,-30.5 203.5,-0.5 112.5,-0.5"/>
<text text-anchor="start" x="120.5" y="-18.5" font-family="Helvetica,sans-Serif" font-size="10.00">iop/hdd/libpfs/src</text>
<text text-anchor="middle" x="158" y="-7.5" font-family="Helvetica,sans-Serif" font-size="10.00">/misc.c</text>
</a>
</g>
</g>
<!-- Node1&#45;&gt;Node3 -->
<g id="edge2" class="edge">
<title>Node1&#45;&gt;Node3</title>
<path fill="none" stroke="midnightblue" d="M293.06,-63.96C263.26,-53.48 225.93,-40.37 198.06,-30.58"/>
<polygon fill="midnightblue" stroke="midnightblue" points="292.26,-67.38 302.86,-67.4 294.58,-60.78 292.26,-67.38"/>
</g>
<!-- Node4 -->
<g id="node4" class="node">
<title>Node4</title>
<g id="a_node4"><a xlink:href="smap_8c_source.html" target="_top" xlink:title=" ">
<polygon fill="white" stroke="black" points="222,-0.5 222,-30.5 332,-30.5 332,-0.5 222,-0.5"/>
<text text-anchor="start" x="230" y="-18.5" font-family="Helvetica,sans-Serif" font-size="10.00">iop/network/smap/src</text>
<text text-anchor="middle" x="277" y="-7.5" font-family="Helvetica,sans-Serif" font-size="10.00">/smap.c</text>
</a>
</g>
</g>
<!-- Node1&#45;&gt;Node4 -->
<g id="edge3" class="edge">
<title>Node1&#45;&gt;Node4</title>
<path fill="none" stroke="midnightblue" d="M321.49,-60.31C311.59,-50.56 300.11,-39.26 291.29,-30.58"/>
<polygon fill="midnightblue" stroke="midnightblue" points="319.1,-62.87 328.68,-67.4 324.01,-57.89 319.1,-62.87"/>
</g>
<!-- Node5 -->
<g id="node5" class="node">
<title>Node5</title>
<g id="a_node5"><a xlink:href="freepad_8c.html" target="_top" xlink:title=" ">
<polygon fill="white" stroke="black" points="350,-0.5 350,-30.5 468,-30.5 468,-0.5 350,-0.5"/>
<text text-anchor="start" x="358" y="-18.5" font-family="Helvetica,sans-Serif" font-size="10.00">iop/system/padman/src</text>
<text text-anchor="middle" x="409" y="-7.5" font-family="Helvetica,sans-Serif" font-size="10.00">/freepad.c</text>
</a>
</g>
</g>
<!-- Node1&#45;&gt;Node5 -->
<g id="edge4" class="edge">
<title>Node1&#45;&gt;Node5</title>
<path fill="none" stroke="midnightblue" d="M364.51,-60.31C374.41,-50.56 385.89,-39.26 394.71,-30.58"/>
<polygon fill="midnightblue" stroke="midnightblue" points="361.99,-57.89 357.32,-67.4 366.9,-62.87 361.99,-57.89"/>
</g>
<!-- Node6 -->
<g id="node6" class="node">
<title>Node6</title>
<g id="a_node6"><a xlink:href="tools_2adpenc_2src_2adpcm_8c_source.html" target="_top" xlink:title=" ">
<polygon fill="white" stroke="black" points="486,-6 486,-25 614,-25 614,-6 486,-6"/>
<text text-anchor="middle" x="550" y="-13" font-family="Helvetica,sans-Serif" font-size="10.00">tools/adpenc/src/adpcm.c</text>
</a>
</g>
</g>
<!-- Node1&#45;&gt;Node6 -->
<g id="edge5" class="edge">
<title>Node1&#45;&gt;Node6</title>
<path fill="none" stroke="midnightblue" d="M397.36,-64.43C437.73,-51.75 491.08,-35 522.84,-25.03"/>
<polygon fill="midnightblue" stroke="midnightblue" points="396.15,-61.14 387.66,-67.48 398.25,-67.82 396.15,-61.14"/>
</g>
<!-- Node7 -->
<g id="node7" class="node">
<title>Node7</title>
<g id="a_node7"><a xlink:href="tools_2adpenc_2src_2main_8c_source.html" target="_top" xlink:title=" ">
<polygon fill="white" stroke="black" points="632,-6 632,-25 752,-25 752,-6 632,-6"/>
<text text-anchor="middle" x="692" y="-13" font-family="Helvetica,sans-Serif" font-size="10.00">tools/adpenc/src/main.c</text>
</a>
</g>
</g>
<!-- Node1&#45;&gt;Node7 -->
<g id="edge6" class="edge">
<title>Node1&#45;&gt;Node7</title>
<path fill="none" stroke="midnightblue" d="M399.33,-71.83C455.93,-62 545.64,-46.1 623,-31 632.49,-29.15 642.7,-27.06 652.27,-25.05"/>
<polygon fill="midnightblue" stroke="midnightblue" points="398.41,-68.44 389.15,-73.59 399.61,-75.33 398.41,-68.44"/>
</g>
</g>
</svg>
