<?xml version="1.0" encoding="UTF-8" standalone="no"?>
<!DOCTYPE svg PUBLIC "-//W3C//DTD SVG 1.1//EN"
 "http://www.w3.org/Graphics/SVG/1.1/DTD/svg11.dtd">
<!-- Generated by graphviz version 2.46.1 (20210215.1649)
 -->
<!-- Title: iop/fs/devfs/src/devfs.c Pages: 1 -->
<!--zoomable 252 -->
<svg id="main" version="1.1" xmlns="http://www.w3.org/2000/svg" xmlns:xlink="http://www.w3.org/1999/xlink" xml:space="preserve" onload="init(evt)">
<style type="text/css"><![CDATA[
.edge:hover path { stroke: red; }
.edge:hover polygon { stroke: red; fill: red; }
]]></style>
<script type="text/javascript"><![CDATA[
var edges = document.getElementsByTagName('g');
if (edges && edges.length) {
  for (var i=0;i<edges.length;i++) {
    if (edges[i].id.substr(0,4)=='edge') {
      edges[i].setAttribute('class','edge');
    }
  }
}
]]></script>
        <defs>
                <circle id="rim" cx="0" cy="0" r="7"/>
                <circle id="rim2" cx="0" cy="0" r="3.5"/>
                <g id="zoomPlus">
                        <use xlink:href="#rim" fill="#404040">
                                <set attributeName="fill" to="#808080" begin="zoomplus.mouseover" end="zoomplus.mouseout"/>
                        </use>
                        <path d="M-4,0h8M0,-4v8" fill="none" stroke="white" stroke-width="1.5" pointer-events="none"/>
                </g>
                <g id="zoomMin">
                        <use xlink:href="#rim" fill="#404040">
                                <set attributeName="fill" to="#808080" begin="zoomminus.mouseover" end="zoomminus.mouseout"/>
                        </use>
                        <path d="M-4,0h8" fill="none" stroke="white" stroke-width="1.5" pointer-events="none"/>
                </g>
                <g id="dirArrow">
                        <path fill="none" stroke="white" stroke-width="1.5" d="M0,-3.0v7 M-2.5,-0.5L0,-3.0L2.5,-0.5"/>
                </g>
               <g id="resetDef">
                       <use xlink:href="#rim2" fill="#404040">
                               <set attributeName="fill" to="#808080" begin="reset.mouseover" end="reset.mouseout"/>
                       </use>
               </g>
        </defs>

<script type="text/javascript">
var viewWidth = 930;
var viewHeight = 252;
var sectionId = 'dynsection-0';
</script>
<script xlink:href="svgpan.js"/>
<svg id="graph" class="graph">
<g id="viewport">
<title>iop/fs/devfs/src/devfs.c</title>
<polygon fill="white" stroke="transparent" points="-4,4 -4,-248 926,-248 926,4 -4,4"/>
<!-- Node1 -->
<g id="node1" class="node">
<title>Node1</title>
<g id="a_node1"><a xlink:title=" ">
<polygon fill="#bfbfbf" stroke="black" points="343,-224.5 343,-243.5 462,-243.5 462,-224.5 343,-224.5"/>
<text text-anchor="middle" x="402.5" y="-231.5" font-family="Helvetica,sans-Serif" font-size="10.00">iop/fs/devfs/src/devfs.c</text>
</a>
</g>
</g>
<!-- Node2 -->
<g id="node2" class="node">
<title>Node2</title>
<g id="a_node2"><a xlink:title=" ">
<polygon fill="white" stroke="#bfbfbf" points="68,-112.5 68,-131.5 115,-131.5 115,-112.5 68,-112.5"/>
<text text-anchor="middle" x="91.5" y="-119.5" font-family="Helvetica,sans-Serif" font-size="10.00">types.h</text>
</a>
</g>
</g>
<!-- Node1&#45;&gt;Node2 -->
<g id="edge1" class="edge">
<title>Node1&#45;&gt;Node2</title>
<path fill="none" stroke="midnightblue" d="M342.81,-233.86C257.19,-233.66 106.02,-227.53 71.5,-188 59.78,-174.58 68.83,-154.39 78.24,-140.07"/>
<polygon fill="midnightblue" stroke="midnightblue" points="81.29,-141.82 84.25,-131.65 75.59,-137.75 81.29,-141.82"/>
</g>
<!-- Node3 -->
<g id="node3" class="node">
<title>Node3</title>
<g id="a_node3"><a xlink:href="defs_8h.html" target="_top" xlink:title=" ">
<polygon fill="white" stroke="black" points="0,-112.5 0,-131.5 43,-131.5 43,-112.5 0,-112.5"/>
<text text-anchor="middle" x="21.5" y="-119.5" font-family="Helvetica,sans-Serif" font-size="10.00">defs.h</text>
</a>
</g>
</g>
<!-- Node1&#45;&gt;Node3 -->
<g id="edge2" class="edge">
<title>Node1&#45;&gt;Node3</title>
<path fill="none" stroke="midnightblue" d="M342.68,-231.12C257.8,-227.44 107.68,-216.95 62.5,-188 45.52,-177.12 34.3,-156.44 27.96,-141.31"/>
<polygon fill="midnightblue" stroke="midnightblue" points="31.2,-139.99 24.33,-131.92 24.67,-142.51 31.2,-139.99"/>
</g>
<!-- Node7 -->
<g id="node7" class="node">
<title>Node7</title>
<g id="a_node7"><a xlink:href="irx_8h.html" target="_top" xlink:title=" ">
<polygon fill="white" stroke="black" points="444.5,-112.5 444.5,-131.5 478.5,-131.5 478.5,-112.5 444.5,-112.5"/>
<text text-anchor="middle" x="461.5" y="-119.5" font-family="Helvetica,sans-Serif" font-size="10.00">irx.h</text>
</a>
</g>
</g>
<!-- Node1&#45;&gt;Node7 -->
<g id="edge6" class="edge">
<title>Node1&#45;&gt;Node7</title>
<path fill="none" stroke="midnightblue" d="M412.43,-224.3C421.48,-215.86 434.6,-202.27 442.5,-188 450.51,-173.53 455.45,-155.35 458.28,-141.89"/>
<polygon fill="midnightblue" stroke="midnightblue" points="461.75,-142.37 460.18,-131.89 454.88,-141.06 461.75,-142.37"/>
</g>
<!-- Node8 -->
<g id="node8" class="node">
<title>Node8</title>
<g id="a_node8"><a xlink:href="loadcore_8h.html" target="_top" xlink:title=" ">
<polygon fill="white" stroke="black" points="147,-168.5 147,-187.5 208,-187.5 208,-168.5 147,-168.5"/>
<text text-anchor="middle" x="177.5" y="-175.5" font-family="Helvetica,sans-Serif" font-size="10.00">loadcore.h</text>
</a>
</g>
</g>
<!-- Node1&#45;&gt;Node8 -->
<g id="edge8" class="edge">
<title>Node1&#45;&gt;Node8</title>
<path fill="none" stroke="midnightblue" d="M366.85,-224.44C326.44,-214.75 260.69,-198.97 218.27,-188.79"/>
<polygon fill="midnightblue" stroke="midnightblue" points="218.83,-185.32 208.29,-186.39 217.19,-192.13 218.83,-185.32"/>
</g>
<!-- Node9 -->
<g id="node9" class="node">
<title>Node9</title>
<g id="a_node9"><a xlink:href="thbase_8h.html" target="_top" xlink:title=" ">
<polygon fill="white" stroke="black" points="226,-168.5 226,-187.5 279,-187.5 279,-168.5 226,-168.5"/>
<text text-anchor="middle" x="252.5" y="-175.5" font-family="Helvetica,sans-Serif" font-size="10.00">thbase.h</text>
</a>
</g>
</g>
<!-- Node1&#45;&gt;Node9 -->
<g id="edge11" class="edge">
<title>Node1&#45;&gt;Node9</title>
<path fill="none" stroke="midnightblue" d="M378.73,-224.44C353.61,-215.4 313.79,-201.06 285.6,-190.92"/>
<polygon fill="midnightblue" stroke="midnightblue" points="286.75,-187.61 276.16,-187.52 284.38,-194.2 286.75,-187.61"/>
</g>
<!-- Node10 -->
<g id="node10" class="node">
<title>Node10</title>
<g id="a_node10"><a xlink:href="thevent_8h.html" target="_top" xlink:title=" ">
<polygon fill="white" stroke="black" points="297.5,-168.5 297.5,-187.5 353.5,-187.5 353.5,-168.5 297.5,-168.5"/>
<text text-anchor="middle" x="325.5" y="-175.5" font-family="Helvetica,sans-Serif" font-size="10.00">thevent.h</text>
</a>
</g>
</g>
<!-- Node1&#45;&gt;Node10 -->
<g id="edge14" class="edge">
<title>Node1&#45;&gt;Node10</title>
<path fill="none" stroke="midnightblue" d="M390.13,-224.32C378.34,-216.06 360.37,-203.45 346.36,-193.63"/>
<polygon fill="midnightblue" stroke="midnightblue" points="348.04,-190.53 337.84,-187.65 344.02,-196.26 348.04,-190.53"/>
</g>
<!-- Node11 -->
<g id="node11" class="node">
<title>Node11</title>
<g id="a_node11"><a xlink:href="thsemap_8h.html" target="_top" xlink:title=" ">
<polygon fill="white" stroke="black" points="371.5,-168.5 371.5,-187.5 433.5,-187.5 433.5,-168.5 371.5,-168.5"/>
<text text-anchor="middle" x="402.5" y="-175.5" font-family="Helvetica,sans-Serif" font-size="10.00">thsemap.h</text>
</a>
</g>
</g>
<!-- Node1&#45;&gt;Node11 -->
<g id="edge17" class="edge">
<title>Node1&#45;&gt;Node11</title>
<path fill="none" stroke="midnightblue" d="M402.5,-224.08C402.5,-217.01 402.5,-206.86 402.5,-197.99"/>
<polygon fill="midnightblue" stroke="midnightblue" points="406,-197.75 402.5,-187.75 399,-197.75 406,-197.75"/>
</g>
<!-- Node12 -->
<g id="node12" class="node">
<title>Node12</title>
<g id="a_node12"><a xlink:href="intrman_8h.html" target="_top" xlink:title=" ">
<polygon fill="white" stroke="black" points="489.5,-168.5 489.5,-187.5 545.5,-187.5 545.5,-168.5 489.5,-168.5"/>
<text text-anchor="middle" x="517.5" y="-175.5" font-family="Helvetica,sans-Serif" font-size="10.00">intrman.h</text>
</a>
</g>
</g>
<!-- Node1&#45;&gt;Node12 -->
<g id="edge20" class="edge">
<title>Node1&#45;&gt;Node12</title>
<path fill="none" stroke="midnightblue" d="M420.72,-224.44C439.4,-215.68 468.66,-201.94 490.12,-191.86"/>
<polygon fill="midnightblue" stroke="midnightblue" points="491.8,-194.93 499.36,-187.52 488.82,-188.6 491.8,-194.93"/>
</g>
<!-- Node13 -->
<g id="node13" class="node">
<title>Node13</title>
<g id="a_node13"><a xlink:href="stdio_8h.html" target="_top" xlink:title=" ">
<polygon fill="white" stroke="black" points="564,-168.5 564,-187.5 609,-187.5 609,-168.5 564,-168.5"/>
<text text-anchor="middle" x="586.5" y="-175.5" font-family="Helvetica,sans-Serif" font-size="10.00">stdio.h</text>
</a>
</g>
</g>
<!-- Node1&#45;&gt;Node13 -->
<g id="edge23" class="edge">
<title>Node1&#45;&gt;Node13</title>
<path fill="none" stroke="midnightblue" d="M431.66,-224.44C465.04,-214.65 519.58,-198.64 554.22,-188.47"/>
<polygon fill="midnightblue" stroke="midnightblue" points="555.25,-191.82 563.86,-185.64 553.28,-185.1 555.25,-191.82"/>
</g>
<!-- Node15 -->
<g id="node15" class="node">
<title>Node15</title>
<g id="a_node15"><a xlink:href="sysclib_8h.html" target="_top" xlink:title=" ">
<polygon fill="white" stroke="black" points="627.5,-168.5 627.5,-187.5 681.5,-187.5 681.5,-168.5 627.5,-168.5"/>
<text text-anchor="middle" x="654.5" y="-175.5" font-family="Helvetica,sans-Serif" font-size="10.00">sysclib.h</text>
</a>
</g>
</g>
<!-- Node1&#45;&gt;Node15 -->
<g id="edge26" class="edge">
<title>Node1&#45;&gt;Node15</title>
<path fill="none" stroke="midnightblue" d="M446.05,-224.45C487.62,-216.18 552.25,-203.01 617.37,-188.19"/>
<polygon fill="midnightblue" stroke="midnightblue" points="618.43,-191.54 627.4,-185.9 616.87,-184.71 618.43,-191.54"/>
</g>
<!-- Node17 -->
<g id="node17" class="node">
<title>Node17</title>
<g id="a_node17"><a xlink:href="devfs_8h.html" target="_top" xlink:title=" ">
<polygon fill="white" stroke="black" points="80.5,-168.5 80.5,-187.5 128.5,-187.5 128.5,-168.5 80.5,-168.5"/>
<text text-anchor="middle" x="104.5" y="-175.5" font-family="Helvetica,sans-Serif" font-size="10.00">devfs.h</text>
</a>
</g>
</g>
<!-- Node1&#45;&gt;Node17 -->
<g id="edge32" class="edge">
<title>Node1&#45;&gt;Node17</title>
<path fill="none" stroke="midnightblue" d="M342.97,-224.6C291.37,-216.93 214.51,-204.58 138.78,-188.11"/>
<polygon fill="midnightblue" stroke="midnightblue" points="139.1,-184.59 128.58,-185.86 137.6,-191.43 139.1,-184.59"/>
</g>
<!-- Node18 -->
<g id="node18" class="node">
<title>Node18</title>
<g id="a_node18"><a xlink:href="sysmem_8h.html" target="_top" xlink:title=" ">
<polygon fill="white" stroke="black" points="700,-168.5 700,-187.5 761,-187.5 761,-168.5 700,-168.5"/>
<text text-anchor="middle" x="730.5" y="-175.5" font-family="Helvetica,sans-Serif" font-size="10.00">sysmem.h</text>
</a>
</g>
</g>
<!-- Node1&#45;&gt;Node18 -->
<g id="edge35" class="edge">
<title>Node1&#45;&gt;Node18</title>
<path fill="none" stroke="midnightblue" d="M462.27,-224.84C518.43,-216.91 605.05,-203.99 689.9,-188"/>
<polygon fill="midnightblue" stroke="midnightblue" points="690.8,-191.39 699.97,-186.09 689.49,-184.52 690.8,-191.39"/>
</g>
<!-- Node19 -->
<g id="node19" class="node">
<title>Node19</title>
<g id="a_node19"><a xlink:href="ioman_x_8h.html" target="_top" xlink:title=" ">
<polygon fill="white" stroke="black" points="779,-168.5 779,-187.5 836,-187.5 836,-168.5 779,-168.5"/>
<text text-anchor="middle" x="807.5" y="-175.5" font-family="Helvetica,sans-Serif" font-size="10.00">iomanX.h</text>
</a>
</g>
</g>
<!-- Node1&#45;&gt;Node19 -->
<g id="edge39" class="edge">
<title>Node1&#45;&gt;Node19</title>
<path fill="none" stroke="midnightblue" d="M462.1,-227.87C533.08,-221.29 655.36,-208.42 768.98,-188.1"/>
<polygon fill="midnightblue" stroke="midnightblue" points="769.67,-191.54 778.89,-186.31 768.42,-184.65 769.67,-191.54"/>
</g>
<!-- Node4 -->
<g id="node4" class="node">
<title>Node4</title>
<g id="a_node4"><a xlink:href="types_8h_source.html" target="_top" xlink:title=" ">
<polygon fill="white" stroke="black" points="438,-56.5 438,-75.5 485,-75.5 485,-56.5 438,-56.5"/>
<text text-anchor="middle" x="461.5" y="-63.5" font-family="Helvetica,sans-Serif" font-size="10.00">types.h</text>
</a>
</g>
</g>
<!-- Node3&#45;&gt;Node4 -->
<g id="edge3" class="edge">
<title>Node3&#45;&gt;Node4</title>
<path fill="none" stroke="midnightblue" d="M43.32,-115.21C48.28,-114.02 53.55,-112.87 58.5,-112 194.06,-88.05 357.65,-74.43 427.37,-69.34"/>
<polygon fill="midnightblue" stroke="midnightblue" points="428.01,-72.8 437.73,-68.59 427.5,-65.82 428.01,-72.8"/>
</g>
<!-- Node5 -->
<g id="node5" class="node">
<title>Node5</title>
<g id="a_node5"><a xlink:title=" ">
<polygon fill="white" stroke="#bfbfbf" points="436,-0.5 436,-19.5 487,-19.5 487,-0.5 436,-0.5"/>
<text text-anchor="middle" x="461.5" y="-7.5" font-family="Helvetica,sans-Serif" font-size="10.00">stddef.h</text>
</a>
</g>
</g>
<!-- Node4&#45;&gt;Node5 -->
<g id="edge4" class="edge">
<title>Node4&#45;&gt;Node5</title>
<path fill="none" stroke="midnightblue" d="M461.5,-56.08C461.5,-49.01 461.5,-38.86 461.5,-29.99"/>
<polygon fill="midnightblue" stroke="midnightblue" points="465,-29.75 461.5,-19.75 458,-29.75 465,-29.75"/>
</g>
<!-- Node6 -->
<g id="node6" class="node">
<title>Node6</title>
<g id="a_node6"><a xlink:href="tamtypes_8h.html" target="_top" xlink:title=" ">
<polygon fill="white" stroke="black" points="533.5,-0.5 533.5,-19.5 597.5,-19.5 597.5,-0.5 533.5,-0.5"/>
<text text-anchor="middle" x="565.5" y="-7.5" font-family="Helvetica,sans-Serif" font-size="10.00">tamtypes.h</text>
</a>
</g>
</g>
<!-- Node4&#45;&gt;Node6 -->
<g id="edge5" class="edge">
<title>Node4&#45;&gt;Node6</title>
<path fill="none" stroke="midnightblue" d="M478.21,-56.32C494.81,-47.7 520.5,-34.36 539.72,-24.39"/>
<polygon fill="midnightblue" stroke="midnightblue" points="541.57,-27.37 548.83,-19.65 538.34,-21.16 541.57,-27.37"/>
</g>
<!-- Node7&#45;&gt;Node4 -->
<g id="edge7" class="edge">
<title>Node7&#45;&gt;Node4</title>
<path fill="none" stroke="midnightblue" d="M461.5,-112.08C461.5,-105.01 461.5,-94.86 461.5,-85.99"/>
<polygon fill="midnightblue" stroke="midnightblue" points="465,-85.75 461.5,-75.75 458,-85.75 465,-85.75"/>
</g>
<!-- Node8&#45;&gt;Node4 -->
<g id="edge9" class="edge">
<title>Node8&#45;&gt;Node4</title>
<path fill="none" stroke="midnightblue" d="M197.19,-168.46C226.81,-155.71 284.65,-131.14 334.5,-112 366.12,-99.86 402.59,-87.06 428.32,-78.23"/>
<polygon fill="midnightblue" stroke="midnightblue" points="429.63,-81.48 437.96,-74.93 427.36,-74.86 429.63,-81.48"/>
</g>
<!-- Node8&#45;&gt;Node7 -->
<g id="edge10" class="edge">
<title>Node8&#45;&gt;Node7</title>
<path fill="none" stroke="midnightblue" d="M208.13,-169.79C210.95,-169.17 213.78,-168.56 216.5,-168 295.3,-151.68 388.99,-135.31 434.29,-127.58"/>
<polygon fill="midnightblue" stroke="midnightblue" points="434.95,-131.02 444.22,-125.9 433.77,-124.12 434.95,-131.02"/>
</g>
<!-- Node9&#45;&gt;Node4 -->
<g id="edge12" class="edge">
<title>Node9&#45;&gt;Node4</title>
<path fill="none" stroke="midnightblue" d="M268.9,-168.37C305.22,-149.25 392.66,-103.23 436.11,-80.36"/>
<polygon fill="midnightblue" stroke="midnightblue" points="437.96,-83.35 445.18,-75.59 434.7,-77.15 437.96,-83.35"/>
</g>
<!-- Node9&#45;&gt;Node7 -->
<g id="edge13" class="edge">
<title>Node9&#45;&gt;Node7</title>
<path fill="none" stroke="midnightblue" d="M279.4,-170.05C319.47,-159.7 394.44,-140.33 434.55,-129.96"/>
<polygon fill="midnightblue" stroke="midnightblue" points="435.61,-133.3 444.42,-127.41 433.86,-126.53 435.61,-133.3"/>
</g>
<!-- Node10&#45;&gt;Node4 -->
<g id="edge15" class="edge">
<title>Node10&#45;&gt;Node4</title>
<path fill="none" stroke="midnightblue" d="M336.17,-168.37C359.21,-149.73 413.86,-105.53 442.79,-82.13"/>
<polygon fill="midnightblue" stroke="midnightblue" points="445.3,-84.6 450.88,-75.59 440.9,-79.16 445.3,-84.6"/>
</g>
<!-- Node10&#45;&gt;Node7 -->
<g id="edge16" class="edge">
<title>Node10&#45;&gt;Node7</title>
<path fill="none" stroke="midnightblue" d="M347.05,-168.44C370.85,-158.99 409.2,-143.76 434.87,-133.57"/>
<polygon fill="midnightblue" stroke="midnightblue" points="436.35,-136.75 444.36,-129.81 433.77,-130.24 436.35,-136.75"/>
</g>
<!-- Node11&#45;&gt;Node4 -->
<g id="edge18" class="edge">
<title>Node11&#45;&gt;Node4</title>
<path fill="none" stroke="midnightblue" d="M406.83,-168.09C413,-155.49 424.76,-131.8 435.5,-112 440.51,-102.76 446.34,-92.62 451.21,-84.31"/>
<polygon fill="midnightblue" stroke="midnightblue" points="454.31,-85.94 456.38,-75.55 448.28,-82.38 454.31,-85.94"/>
</g>
<!-- Node11&#45;&gt;Node7 -->
<g id="edge19" class="edge">
<title>Node11&#45;&gt;Node7</title>
<path fill="none" stroke="midnightblue" d="M411.98,-168.32C420.7,-160.34 433.84,-148.31 444.4,-138.65"/>
<polygon fill="midnightblue" stroke="midnightblue" points="446.83,-141.17 451.85,-131.83 442.11,-136 446.83,-141.17"/>
</g>
<!-- Node12&#45;&gt;Node4 -->
<g id="edge21" class="edge">
<title>Node12&#45;&gt;Node4</title>
<path fill="none" stroke="midnightblue" d="M513.86,-168.47C508.44,-155.93 497.79,-131.86 487.5,-112 482.73,-102.79 476.99,-92.77 472.13,-84.53"/>
<polygon fill="midnightblue" stroke="midnightblue" points="475.06,-82.62 466.92,-75.83 469.05,-86.21 475.06,-82.62"/>
</g>
<!-- Node12&#45;&gt;Node7 -->
<g id="edge22" class="edge">
<title>Node12&#45;&gt;Node7</title>
<path fill="none" stroke="midnightblue" d="M508.5,-168.32C500.31,-160.42 487.99,-148.55 478.03,-138.94"/>
<polygon fill="midnightblue" stroke="midnightblue" points="480.29,-136.26 470.66,-131.83 475.43,-141.29 480.29,-136.26"/>
</g>
<!-- Node13&#45;&gt;Node7 -->
<g id="edge25" class="edge">
<title>Node13&#45;&gt;Node7</title>
<path fill="none" stroke="midnightblue" d="M566.69,-168.44C545.49,-159.28 511.73,-144.7 488.19,-134.53"/>
<polygon fill="midnightblue" stroke="midnightblue" points="489.37,-131.23 478.8,-130.47 486.59,-137.65 489.37,-131.23"/>
</g>
<!-- Node14 -->
<g id="node14" class="node">
<title>Node14</title>
<g id="a_node14"><a xlink:title=" ">
<polygon fill="white" stroke="#bfbfbf" points="549,-112.5 549,-131.5 600,-131.5 600,-112.5 549,-112.5"/>
<text text-anchor="middle" x="574.5" y="-119.5" font-family="Helvetica,sans-Serif" font-size="10.00">stdarg.h</text>
</a>
</g>
</g>
<!-- Node13&#45;&gt;Node14 -->
<g id="edge24" class="edge">
<title>Node13&#45;&gt;Node14</title>
<path fill="none" stroke="midnightblue" d="M584.52,-168.08C582.93,-160.93 580.64,-150.64 578.65,-141.69"/>
<polygon fill="midnightblue" stroke="midnightblue" points="582.03,-140.75 576.44,-131.75 575.2,-142.27 582.03,-140.75"/>
</g>
<!-- Node15&#45;&gt;Node4 -->
<g id="edge27" class="edge">
<title>Node15&#45;&gt;Node4</title>
<path fill="none" stroke="midnightblue" d="M650.87,-168.45C644.53,-154.54 630.12,-127.04 609.5,-112 575.39,-87.12 527.35,-75.82 495.36,-70.81"/>
<polygon fill="midnightblue" stroke="midnightblue" points="495.57,-67.31 485.17,-69.35 494.57,-74.24 495.57,-67.31"/>
</g>
<!-- Node15&#45;&gt;Node7 -->
<g id="edge28" class="edge">
<title>Node15&#45;&gt;Node7</title>
<path fill="none" stroke="midnightblue" d="M627.26,-169.38C590.47,-159.08 525.3,-140.85 488.59,-130.58"/>
<polygon fill="midnightblue" stroke="midnightblue" points="489.18,-127.11 478.6,-127.79 487.29,-133.85 489.18,-127.11"/>
</g>
<!-- Node15&#45;&gt;Node14 -->
<g id="edge29" class="edge">
<title>Node15&#45;&gt;Node14</title>
<path fill="none" stroke="midnightblue" d="M641.65,-168.32C629.28,-159.98 610.37,-147.21 595.76,-137.35"/>
<polygon fill="midnightblue" stroke="midnightblue" points="597.57,-134.35 587.32,-131.65 593.65,-140.15 597.57,-134.35"/>
</g>
<!-- Node16 -->
<g id="node16" class="node">
<title>Node16</title>
<g id="a_node16"><a xlink:href="setjmp_8h.html" target="_top" xlink:title=" ">
<polygon fill="white" stroke="black" points="567,-56.5 567,-75.5 620,-75.5 620,-56.5 567,-56.5"/>
<text text-anchor="middle" x="593.5" y="-63.5" font-family="Helvetica,sans-Serif" font-size="10.00">setjmp.h</text>
</a>
</g>
</g>
<!-- Node15&#45;&gt;Node16 -->
<g id="edge30" class="edge">
<title>Node15&#45;&gt;Node16</title>
<path fill="none" stroke="midnightblue" d="M654.61,-168.43C654.41,-155.42 652.61,-130.28 642.5,-112 635.93,-100.12 625.06,-89.66 615.22,-81.82"/>
<polygon fill="midnightblue" stroke="midnightblue" points="617.08,-78.84 606.98,-75.64 612.88,-84.44 617.08,-78.84"/>
</g>
<!-- Node16&#45;&gt;Node6 -->
<g id="edge31" class="edge">
<title>Node16&#45;&gt;Node6</title>
<path fill="none" stroke="midnightblue" d="M588.88,-56.08C585.04,-48.69 579.48,-37.95 574.74,-28.81"/>
<polygon fill="midnightblue" stroke="midnightblue" points="577.75,-27.02 570.04,-19.75 571.53,-30.24 577.75,-27.02"/>
</g>
<!-- Node17&#45;&gt;Node2 -->
<g id="edge33" class="edge">
<title>Node17&#45;&gt;Node2</title>
<path fill="none" stroke="midnightblue" d="M102.35,-168.08C100.63,-160.93 98.15,-150.64 96,-141.69"/>
<polygon fill="midnightblue" stroke="midnightblue" points="99.35,-140.65 93.61,-131.75 92.54,-142.29 99.35,-140.65"/>
</g>
<!-- Node17&#45;&gt;Node7 -->
<g id="edge34" class="edge">
<title>Node17&#45;&gt;Node7</title>
<path fill="none" stroke="midnightblue" d="M128.56,-170.05C131.56,-169.3 134.59,-168.6 137.5,-168 246.25,-145.71 377.82,-131.23 433.96,-125.62"/>
<polygon fill="midnightblue" stroke="midnightblue" points="434.55,-129.08 444.16,-124.62 433.86,-122.11 434.55,-129.08"/>
</g>
<!-- Node18&#45;&gt;Node4 -->
<g id="edge36" class="edge">
<title>Node18&#45;&gt;Node4</title>
<path fill="none" stroke="midnightblue" d="M720.02,-168.34C702.8,-154.52 666.96,-127.45 632.5,-112 587.19,-91.68 530.86,-79.07 495.53,-72.54"/>
<polygon fill="midnightblue" stroke="midnightblue" points="495.74,-69.03 485.28,-70.71 494.51,-75.92 495.74,-69.03"/>
</g>
<!-- Node18&#45;&gt;Node7 -->
<g id="edge37" class="edge">
<title>Node18&#45;&gt;Node7</title>
<path fill="none" stroke="midnightblue" d="M699.94,-170.03C696.76,-169.34 693.56,-168.65 690.5,-168 617.77,-152.67 531.68,-136.2 488.73,-128.1"/>
<polygon fill="midnightblue" stroke="midnightblue" points="489.24,-124.64 478.77,-126.23 487.95,-131.52 489.24,-124.64"/>
</g>
<!-- Node18&#45;&gt;Node14 -->
<g id="edge38" class="edge">
<title>Node18&#45;&gt;Node14</title>
<path fill="none" stroke="midnightblue" d="M705.78,-168.44C679.65,-159.4 638.24,-145.06 608.92,-134.92"/>
<polygon fill="midnightblue" stroke="midnightblue" points="609.7,-131.48 599.1,-131.52 607.41,-138.1 609.7,-131.48"/>
</g>
<!-- Node19&#45;&gt;Node4 -->
<g id="edge40" class="edge">
<title>Node19&#45;&gt;Node4</title>
<path fill="none" stroke="midnightblue" d="M791.52,-168.48C765.41,-154.84 711.64,-128.04 663.5,-112 605.65,-92.72 535.71,-79.23 495.15,-72.32"/>
<polygon fill="midnightblue" stroke="midnightblue" points="495.69,-68.86 485.25,-70.67 494.54,-75.77 495.69,-68.86"/>
</g>
<!-- Node19&#45;&gt;Node7 -->
<g id="edge41" class="edge">
<title>Node19&#45;&gt;Node7</title>
<path fill="none" stroke="midnightblue" d="M778.88,-169.76C776.05,-169.13 773.23,-168.53 770.5,-168 667.19,-147.96 542.88,-132.44 488.82,-126.1"/>
<polygon fill="midnightblue" stroke="midnightblue" points="489.02,-122.6 478.68,-124.93 488.21,-129.56 489.02,-122.6"/>
</g>
<!-- Node20 -->
<g id="node20" class="node">
<title>Node20</title>
<g id="a_node20"><a xlink:href="io__common_8h.html" target="_top" xlink:title=" ">
<polygon fill="white" stroke="black" points="770.5,-112.5 770.5,-131.5 844.5,-131.5 844.5,-112.5 770.5,-112.5"/>
<text text-anchor="middle" x="807.5" y="-119.5" font-family="Helvetica,sans-Serif" font-size="10.00">io_common.h</text>
</a>
</g>
</g>
<!-- Node19&#45;&gt;Node20 -->
<g id="edge42" class="edge">
<title>Node19&#45;&gt;Node20</title>
<path fill="none" stroke="midnightblue" d="M807.5,-168.08C807.5,-161.01 807.5,-150.86 807.5,-141.99"/>
<polygon fill="midnightblue" stroke="midnightblue" points="811,-141.75 807.5,-131.75 804,-141.75 811,-141.75"/>
</g>
<!-- Node23 -->
<g id="node23" class="node">
<title>Node23</title>
<g id="a_node23"><a xlink:href="iox__stat_8h.html" target="_top" xlink:title=" ">
<polygon fill="white" stroke="black" points="862.5,-112.5 862.5,-131.5 920.5,-131.5 920.5,-112.5 862.5,-112.5"/>
<text text-anchor="middle" x="891.5" y="-119.5" font-family="Helvetica,sans-Serif" font-size="10.00">iox_stat.h</text>
</a>
</g>
</g>
<!-- Node19&#45;&gt;Node23 -->
<g id="edge45" class="edge">
<title>Node19&#45;&gt;Node23</title>
<path fill="none" stroke="midnightblue" d="M821,-168.32C834.1,-159.9 854.21,-146.97 869.61,-137.07"/>
<polygon fill="midnightblue" stroke="midnightblue" points="871.52,-140.01 878.04,-131.65 867.73,-134.12 871.52,-140.01"/>
</g>
<!-- Node21 -->
<g id="node21" class="node">
<title>Node21</title>
<g id="a_node21"><a xlink:href="fcntl_8h_source.html" target="_top" xlink:title=" ">
<polygon fill="white" stroke="black" points="694,-56.5 694,-75.5 755,-75.5 755,-56.5 694,-56.5"/>
<text text-anchor="middle" x="724.5" y="-63.5" font-family="Helvetica,sans-Serif" font-size="10.00">sys/fcntl.h</text>
</a>
</g>
</g>
<!-- Node20&#45;&gt;Node21 -->
<g id="edge43" class="edge">
<title>Node20&#45;&gt;Node21</title>
<path fill="none" stroke="midnightblue" d="M794.16,-112.32C781.34,-103.98 761.72,-91.21 746.56,-81.35"/>
<polygon fill="midnightblue" stroke="midnightblue" points="748.09,-78.17 737.8,-75.65 744.28,-84.04 748.09,-78.17"/>
</g>
<!-- Node22 -->
<g id="node22" class="node">
<title>Node22</title>
<g id="a_node22"><a xlink:href="unistd_8h_source.html" target="_top" xlink:title=" ">
<polygon fill="white" stroke="black" points="773.5,-56.5 773.5,-75.5 841.5,-75.5 841.5,-56.5 773.5,-56.5"/>
<text text-anchor="middle" x="807.5" y="-63.5" font-family="Helvetica,sans-Serif" font-size="10.00">sys/unistd.h</text>
</a>
</g>
</g>
<!-- Node20&#45;&gt;Node22 -->
<g id="edge44" class="edge">
<title>Node20&#45;&gt;Node22</title>
<path fill="none" stroke="midnightblue" d="M807.5,-112.08C807.5,-105.01 807.5,-94.86 807.5,-85.99"/>
<polygon fill="midnightblue" stroke="midnightblue" points="811,-85.75 807.5,-75.75 804,-85.75 811,-85.75"/>
</g>
<!-- Node24 -->
<g id="node24" class="node">
<title>Node24</title>
<g id="a_node24"><a xlink:href="time_8h.html" target="_top" xlink:title=" ">
<polygon fill="white" stroke="black" points="861,-56.5 861,-75.5 922,-75.5 922,-56.5 861,-56.5"/>
<text text-anchor="middle" x="891.5" y="-63.5" font-family="Helvetica,sans-Serif" font-size="10.00">sys/time.h</text>
</a>
</g>
</g>
<!-- Node23&#45;&gt;Node24 -->
<g id="edge46" class="edge">
<title>Node23&#45;&gt;Node24</title>
<path fill="none" stroke="midnightblue" d="M891.5,-112.08C891.5,-105.01 891.5,-94.86 891.5,-85.99"/>
<polygon fill="midnightblue" stroke="midnightblue" points="895,-85.75 891.5,-75.75 888,-85.75 895,-85.75"/>
</g>
</g>
</svg>
        <g id="navigator" transform="translate(0 0)" fill="#404254">
                <rect fill="#f2f5e9" fill-opacity="0.5" stroke="#606060" stroke-width=".5" x="0" y="0" width="60" height="60"/>
                <use id="zoomplus" xlink:href="#zoomPlus" x="17" y="9" onmousedown="handleZoom(evt,'in')"/>
                <use id="zoomminus" xlink:href="#zoomMin" x="42" y="9" onmousedown="handleZoom(evt,'out')"/>
                <use id="reset" xlink:href="#resetDef" x="30" y="36" onmousedown="handleReset()"/>
                <g id="arrowUp" xlink:href="#dirArrow" transform="translate(30 24)" onmousedown="handlePan(0,-1)">
                  <use xlink:href="#rim" fill="#404040">
                        <set attributeName="fill" to="#808080" begin="arrowUp.mouseover" end="arrowUp.mouseout"/>
                  </use>
                  <path fill="none" stroke="white" stroke-width="1.5" d="M0,-3.0v7 M-2.5,-0.5L0,-3.0L2.5,-0.5"/>
                </g>
                <g id="arrowRight" xlink:href="#dirArrow" transform="rotate(90) translate(36 -43)" onmousedown="handlePan(1,0)">
                  <use xlink:href="#rim" fill="#404040">
                        <set attributeName="fill" to="#808080" begin="arrowRight.mouseover" end="arrowRight.mouseout"/>
                  </use>
                  <path fill="none" stroke="white" stroke-width="1.5" d="M0,-3.0v7 M-2.5,-0.5L0,-3.0L2.5,-0.5"/>
                </g>
                <g id="arrowDown" xlink:href="#dirArrow" transform="rotate(180) translate(-30 -48)" onmousedown="handlePan(0,1)">
                  <use xlink:href="#rim" fill="#404040">
                        <set attributeName="fill" to="#808080" begin="arrowDown.mouseover" end="arrowDown.mouseout"/>
                  </use>
                  <path fill="none" stroke="white" stroke-width="1.5" d="M0,-3.0v7 M-2.5,-0.5L0,-3.0L2.5,-0.5"/>
                </g>
                <g id="arrowLeft" xlink:href="#dirArrow" transform="rotate(270) translate(-36 17)" onmousedown="handlePan(-1,0)">
                  <use xlink:href="#rim" fill="#404040">
                        <set attributeName="fill" to="#808080" begin="arrowLeft.mouseover" end="arrowLeft.mouseout"/>
                  </use>
                  <path fill="none" stroke="white" stroke-width="1.5" d="M0,-3.0v7 M-2.5,-0.5L0,-3.0L2.5,-0.5"/>
                </g>
        </g>
        <svg viewBox="0 0 15 15" width="100%" height="30px" preserveAspectRatio="xMaxYMin meet">
         <g id="arrow_out" transform="scale(0.3 0.3)">
          <a xlink:href="devfs_8c__incl_org.svg" target="_base">
           <rect id="button" ry="5" rx="5" y="6" x="6" height="38" width="38"
                fill="#f2f5e9" fill-opacity="0.5" stroke="#606060" stroke-width="1.0"/>
           <path id="arrow"
             d="M 11.500037,31.436501 C 11.940474,20.09759 22.043105,11.32322 32.158766,21.979434 L 37.068811,17.246167 C 37.068811,17.246167 37.088388,32 37.088388,32 L 22.160133,31.978069 C 22.160133,31.978069 26.997745,27.140456 26.997745,27.140456 C 18.528582,18.264221 13.291696,25.230495 11.500037,31.436501 z"
             style="fill:#404040;"/>
          </a>
         </g>
        </svg>
</svg>
