<?xml version="1.0" encoding="UTF-8" standalone="no"?>
<!DOCTYPE svg PUBLIC "-//W3C//DTD SVG 1.1//EN"
 "http://www.w3.org/Graphics/SVG/1.1/DTD/svg11.dtd">
<!-- Generated by graphviz version 2.46.1 (20210215.1649)
 -->
<!-- Title: iop/system/iopmgr/src/devices.c Pages: 1 -->
<svg width="500pt" height="319pt"
 viewBox="0.00 0.00 499.50 319.00" xmlns="http://www.w3.org/2000/svg" xmlns:xlink="http://www.w3.org/1999/xlink">
<g id="graph0" class="graph" transform="scale(1 1) rotate(0) translate(4 315)">
<title>iop/system/iopmgr/src/devices.c</title>
<polygon fill="white" stroke="transparent" points="-4,4 -4,-315 495.5,-315 495.5,4 -4,4"/>
<!-- Node1 -->
<g id="node1" class="node">
<title>Node1</title>
<g id="a_node1"><a xlink:title=" ">
<polygon fill="#bfbfbf" stroke="black" points="89.5,-280.5 89.5,-310.5 202.5,-310.5 202.5,-280.5 89.5,-280.5"/>
<text text-anchor="start" x="97.5" y="-298.5" font-family="Helvetica,sans-Serif" font-size="10.00">iop/system/iopmgr/src</text>
<text text-anchor="middle" x="146" y="-287.5" font-family="Helvetica,sans-Serif" font-size="10.00">/devices.c</text>
</a>
</g>
</g>
<!-- Node2 -->
<g id="node2" class="node">
<title>Node2</title>
<g id="a_node2"><a xlink:href="defs_8h.html" target="_top" xlink:title=" ">
<polygon fill="white" stroke="black" points="124.5,-224.5 124.5,-243.5 167.5,-243.5 167.5,-224.5 124.5,-224.5"/>
<text text-anchor="middle" x="146" y="-231.5" font-family="Helvetica,sans-Serif" font-size="10.00">defs.h</text>
</a>
</g>
</g>
<!-- Node1&#45;&gt;Node2 -->
<g id="edge1" class="edge">
<title>Node1&#45;&gt;Node2</title>
<path fill="none" stroke="midnightblue" d="M146,-280.4C146,-272.47 146,-262.46 146,-253.86"/>
<polygon fill="midnightblue" stroke="midnightblue" points="149.5,-253.66 146,-243.66 142.5,-253.66 149.5,-253.66"/>
</g>
<!-- Node6 -->
<g id="node6" class="node">
<title>Node6</title>
<g id="a_node6"><a xlink:href="stdio_8h.html" target="_top" xlink:title=" ">
<polygon fill="white" stroke="black" points="72.5,-168.5 72.5,-187.5 117.5,-187.5 117.5,-168.5 72.5,-168.5"/>
<text text-anchor="middle" x="95" y="-175.5" font-family="Helvetica,sans-Serif" font-size="10.00">stdio.h</text>
</a>
</g>
</g>
<!-- Node1&#45;&gt;Node6 -->
<g id="edge5" class="edge">
<title>Node1&#45;&gt;Node6</title>
<path fill="none" stroke="midnightblue" d="M136.45,-280.38C130.06,-270.5 121.79,-256.83 116,-244 109.13,-228.8 103.48,-210.69 99.77,-197.45"/>
<polygon fill="midnightblue" stroke="midnightblue" points="103.11,-196.39 97.13,-187.64 96.35,-198.21 103.11,-196.39"/>
</g>
<!-- Node9 -->
<g id="node9" class="node">
<title>Node9</title>
<g id="a_node9"><a xlink:href="sysclib_8h.html" target="_top" xlink:title=" ">
<polygon fill="white" stroke="black" points="0,-168.5 0,-187.5 54,-187.5 54,-168.5 0,-168.5"/>
<text text-anchor="middle" x="27" y="-175.5" font-family="Helvetica,sans-Serif" font-size="10.00">sysclib.h</text>
</a>
</g>
</g>
<!-- Node1&#45;&gt;Node9 -->
<g id="edge9" class="edge">
<title>Node1&#45;&gt;Node9</title>
<path fill="none" stroke="midnightblue" d="M131.41,-280.34C109.09,-258.68 66.62,-217.45 43.31,-194.83"/>
<polygon fill="midnightblue" stroke="midnightblue" points="45.55,-192.12 35.93,-187.67 40.67,-197.15 45.55,-192.12"/>
</g>
<!-- Node11 -->
<g id="node11" class="node">
<title>Node11</title>
<g id="a_node11"><a xlink:href="ioman_x_8h.html" target="_top" xlink:title=" ">
<polygon fill="white" stroke="black" points="425.5,-168.5 425.5,-187.5 482.5,-187.5 482.5,-168.5 425.5,-168.5"/>
<text text-anchor="middle" x="454" y="-175.5" font-family="Helvetica,sans-Serif" font-size="10.00">iomanX.h</text>
</a>
</g>
</g>
<!-- Node1&#45;&gt;Node11 -->
<g id="edge15" class="edge">
<title>Node1&#45;&gt;Node11</title>
<path fill="none" stroke="midnightblue" d="M183.46,-280.45C244.41,-257.6 364.01,-212.75 421.55,-191.17"/>
<polygon fill="midnightblue" stroke="midnightblue" points="423.09,-194.33 431.22,-187.54 420.63,-187.78 423.09,-194.33"/>
</g>
<!-- Node17 -->
<g id="node17" class="node">
<title>Node17</title>
<g id="a_node17"><a xlink:href="iopmgr_8h.html" target="_top" xlink:title=" ">
<polygon fill="white" stroke="black" points="216.5,-224.5 216.5,-243.5 269.5,-243.5 269.5,-224.5 216.5,-224.5"/>
<text text-anchor="middle" x="243" y="-231.5" font-family="Helvetica,sans-Serif" font-size="10.00">iopmgr.h</text>
</a>
</g>
</g>
<!-- Node1&#45;&gt;Node17 -->
<g id="edge23" class="edge">
<title>Node1&#45;&gt;Node17</title>
<path fill="none" stroke="midnightblue" d="M168.99,-280.4C184.39,-270.95 204.59,-258.56 220,-249.11"/>
<polygon fill="midnightblue" stroke="midnightblue" points="222.19,-251.87 228.89,-243.66 218.53,-245.9 222.19,-251.87"/>
</g>
<!-- Node3 -->
<g id="node3" class="node">
<title>Node3</title>
<g id="a_node3"><a xlink:href="types_8h_source.html" target="_top" xlink:title=" ">
<polygon fill="white" stroke="black" points="167.5,-56.5 167.5,-75.5 214.5,-75.5 214.5,-56.5 167.5,-56.5"/>
<text text-anchor="middle" x="191" y="-63.5" font-family="Helvetica,sans-Serif" font-size="10.00">types.h</text>
</a>
</g>
</g>
<!-- Node2&#45;&gt;Node3 -->
<g id="edge2" class="edge">
<title>Node2&#45;&gt;Node3</title>
<path fill="none" stroke="midnightblue" d="M146.28,-224.22C147.17,-203.91 150.75,-152.3 165,-112 168.42,-102.34 173.92,-92.39 178.98,-84.32"/>
<polygon fill="midnightblue" stroke="midnightblue" points="182,-86.1 184.58,-75.83 176.15,-82.25 182,-86.1"/>
</g>
<!-- Node4 -->
<g id="node4" class="node">
<title>Node4</title>
<g id="a_node4"><a xlink:title=" ">
<polygon fill="white" stroke="#bfbfbf" points="165.5,-0.5 165.5,-19.5 216.5,-19.5 216.5,-0.5 165.5,-0.5"/>
<text text-anchor="middle" x="191" y="-7.5" font-family="Helvetica,sans-Serif" font-size="10.00">stddef.h</text>
</a>
</g>
</g>
<!-- Node3&#45;&gt;Node4 -->
<g id="edge3" class="edge">
<title>Node3&#45;&gt;Node4</title>
<path fill="none" stroke="midnightblue" d="M191,-56.08C191,-49.01 191,-38.86 191,-29.99"/>
<polygon fill="midnightblue" stroke="midnightblue" points="194.5,-29.75 191,-19.75 187.5,-29.75 194.5,-29.75"/>
</g>
<!-- Node5 -->
<g id="node5" class="node">
<title>Node5</title>
<g id="a_node5"><a xlink:href="tamtypes_8h.html" target="_top" xlink:title=" ">
<polygon fill="white" stroke="black" points="54,-0.5 54,-19.5 118,-19.5 118,-0.5 54,-0.5"/>
<text text-anchor="middle" x="86" y="-7.5" font-family="Helvetica,sans-Serif" font-size="10.00">tamtypes.h</text>
</a>
</g>
</g>
<!-- Node3&#45;&gt;Node5 -->
<g id="edge4" class="edge">
<title>Node3&#45;&gt;Node5</title>
<path fill="none" stroke="midnightblue" d="M174.13,-56.32C157.29,-47.66 131.19,-34.24 111.76,-24.25"/>
<polygon fill="midnightblue" stroke="midnightblue" points="113.32,-21.12 102.83,-19.65 110.12,-27.34 113.32,-21.12"/>
</g>
<!-- Node7 -->
<g id="node7" class="node">
<title>Node7</title>
<g id="a_node7"><a xlink:title=" ">
<polygon fill="white" stroke="#bfbfbf" points="66.5,-112.5 66.5,-131.5 117.5,-131.5 117.5,-112.5 66.5,-112.5"/>
<text text-anchor="middle" x="92" y="-119.5" font-family="Helvetica,sans-Serif" font-size="10.00">stdarg.h</text>
</a>
</g>
</g>
<!-- Node6&#45;&gt;Node7 -->
<g id="edge6" class="edge">
<title>Node6&#45;&gt;Node7</title>
<path fill="none" stroke="midnightblue" d="M94.5,-168.08C94.11,-161.01 93.55,-150.86 93.05,-141.99"/>
<polygon fill="midnightblue" stroke="midnightblue" points="96.54,-141.54 92.49,-131.75 89.55,-141.93 96.54,-141.54"/>
</g>
<!-- Node8 -->
<g id="node8" class="node">
<title>Node8</title>
<g id="a_node8"><a xlink:href="irx_8h.html" target="_top" xlink:title=" ">
<polygon fill="white" stroke="black" points="174,-112.5 174,-131.5 208,-131.5 208,-112.5 174,-112.5"/>
<text text-anchor="middle" x="191" y="-119.5" font-family="Helvetica,sans-Serif" font-size="10.00">irx.h</text>
</a>
</g>
</g>
<!-- Node6&#45;&gt;Node8 -->
<g id="edge7" class="edge">
<title>Node6&#45;&gt;Node8</title>
<path fill="none" stroke="midnightblue" d="M110.42,-168.32C125.54,-159.82 148.82,-146.73 166.47,-136.8"/>
<polygon fill="midnightblue" stroke="midnightblue" points="168.61,-139.61 175.61,-131.65 165.18,-133.51 168.61,-139.61"/>
</g>
<!-- Node8&#45;&gt;Node3 -->
<g id="edge8" class="edge">
<title>Node8&#45;&gt;Node3</title>
<path fill="none" stroke="midnightblue" d="M191,-112.08C191,-105.01 191,-94.86 191,-85.99"/>
<polygon fill="midnightblue" stroke="midnightblue" points="194.5,-85.75 191,-75.75 187.5,-85.75 194.5,-85.75"/>
</g>
<!-- Node9&#45;&gt;Node3 -->
<g id="edge10" class="edge">
<title>Node9&#45;&gt;Node3</title>
<path fill="none" stroke="midnightblue" d="M28.89,-168.09C32.31,-154.17 40.8,-127.27 58,-112 85.84,-87.28 127.81,-76.04 157.13,-70.99"/>
<polygon fill="midnightblue" stroke="midnightblue" points="157.97,-74.4 167.31,-69.4 156.89,-67.49 157.97,-74.4"/>
</g>
<!-- Node9&#45;&gt;Node7 -->
<g id="edge12" class="edge">
<title>Node9&#45;&gt;Node7</title>
<path fill="none" stroke="midnightblue" d="M37.44,-168.32C47.15,-160.26 61.82,-148.08 73.5,-138.37"/>
<polygon fill="midnightblue" stroke="midnightblue" points="75.91,-140.92 81.37,-131.83 71.44,-135.53 75.91,-140.92"/>
</g>
<!-- Node9&#45;&gt;Node8 -->
<g id="edge11" class="edge">
<title>Node9&#45;&gt;Node8</title>
<path fill="none" stroke="midnightblue" d="M52.99,-168.44C83.34,-158.45 133.29,-142 164.05,-131.87"/>
<polygon fill="midnightblue" stroke="midnightblue" points="165.28,-135.15 173.69,-128.7 163.09,-128.5 165.28,-135.15"/>
</g>
<!-- Node10 -->
<g id="node10" class="node">
<title>Node10</title>
<g id="a_node10"><a xlink:href="setjmp_8h.html" target="_top" xlink:title=" ">
<polygon fill="white" stroke="black" points="2.5,-56.5 2.5,-75.5 55.5,-75.5 55.5,-56.5 2.5,-56.5"/>
<text text-anchor="middle" x="29" y="-63.5" font-family="Helvetica,sans-Serif" font-size="10.00">setjmp.h</text>
</a>
</g>
</g>
<!-- Node9&#45;&gt;Node10 -->
<g id="edge13" class="edge">
<title>Node9&#45;&gt;Node10</title>
<path fill="none" stroke="midnightblue" d="M26.02,-168.17C24.77,-155.66 22.89,-132.08 24,-112 24.48,-103.36 25.47,-93.83 26.45,-85.77"/>
<polygon fill="midnightblue" stroke="midnightblue" points="29.95,-85.97 27.76,-75.6 23.01,-85.07 29.95,-85.97"/>
</g>
<!-- Node10&#45;&gt;Node5 -->
<g id="edge14" class="edge">
<title>Node10&#45;&gt;Node5</title>
<path fill="none" stroke="midnightblue" d="M38.16,-56.32C46.5,-48.42 59.03,-36.55 69.18,-26.94"/>
<polygon fill="midnightblue" stroke="midnightblue" points="71.82,-29.25 76.68,-19.83 67.01,-24.17 71.82,-29.25"/>
</g>
<!-- Node11&#45;&gt;Node3 -->
<g id="edge16" class="edge">
<title>Node11&#45;&gt;Node3</title>
<path fill="none" stroke="midnightblue" d="M428.79,-168.47C403.76,-159.84 364.4,-145.84 331,-132 290.91,-115.4 245.53,-93.79 217.59,-80.16"/>
<polygon fill="midnightblue" stroke="midnightblue" points="218.99,-76.95 208.47,-75.69 215.91,-83.23 218.99,-76.95"/>
</g>
<!-- Node11&#45;&gt;Node8 -->
<g id="edge17" class="edge">
<title>Node11&#45;&gt;Node8</title>
<path fill="none" stroke="midnightblue" d="M425.34,-169.9C422.53,-169.24 419.71,-168.6 417,-168 345.34,-152.16 260.32,-135.91 217.9,-127.98"/>
<polygon fill="midnightblue" stroke="midnightblue" points="218.53,-124.53 208.06,-126.14 217.25,-131.42 218.53,-124.53"/>
</g>
<!-- Node12 -->
<g id="node12" class="node">
<title>Node12</title>
<g id="a_node12"><a xlink:href="io__common_8h.html" target="_top" xlink:title=" ">
<polygon fill="white" stroke="black" points="340,-112.5 340,-131.5 414,-131.5 414,-112.5 340,-112.5"/>
<text text-anchor="middle" x="377" y="-119.5" font-family="Helvetica,sans-Serif" font-size="10.00">io_common.h</text>
</a>
</g>
</g>
<!-- Node11&#45;&gt;Node12 -->
<g id="edge18" class="edge">
<title>Node11&#45;&gt;Node12</title>
<path fill="none" stroke="midnightblue" d="M441.63,-168.32C429.84,-160.06 411.87,-147.45 397.86,-137.63"/>
<polygon fill="midnightblue" stroke="midnightblue" points="399.54,-134.53 389.34,-131.65 395.52,-140.26 399.54,-134.53"/>
</g>
<!-- Node15 -->
<g id="node15" class="node">
<title>Node15</title>
<g id="a_node15"><a xlink:href="iox__stat_8h.html" target="_top" xlink:title=" ">
<polygon fill="white" stroke="black" points="432,-112.5 432,-131.5 490,-131.5 490,-112.5 432,-112.5"/>
<text text-anchor="middle" x="461" y="-119.5" font-family="Helvetica,sans-Serif" font-size="10.00">iox_stat.h</text>
</a>
</g>
</g>
<!-- Node11&#45;&gt;Node15 -->
<g id="edge21" class="edge">
<title>Node11&#45;&gt;Node15</title>
<path fill="none" stroke="midnightblue" d="M455.16,-168.08C456.08,-160.93 457.42,-150.64 458.58,-141.69"/>
<polygon fill="midnightblue" stroke="midnightblue" points="462.05,-142.12 459.87,-131.75 455.11,-141.22 462.05,-142.12"/>
</g>
<!-- Node13 -->
<g id="node13" class="node">
<title>Node13</title>
<g id="a_node13"><a xlink:href="fcntl_8h_source.html" target="_top" xlink:title=" ">
<polygon fill="white" stroke="black" points="348.5,-56.5 348.5,-75.5 409.5,-75.5 409.5,-56.5 348.5,-56.5"/>
<text text-anchor="middle" x="379" y="-63.5" font-family="Helvetica,sans-Serif" font-size="10.00">sys/fcntl.h</text>
</a>
</g>
</g>
<!-- Node12&#45;&gt;Node13 -->
<g id="edge19" class="edge">
<title>Node12&#45;&gt;Node13</title>
<path fill="none" stroke="midnightblue" d="M377.33,-112.08C377.59,-105.01 377.97,-94.86 378.3,-85.99"/>
<polygon fill="midnightblue" stroke="midnightblue" points="381.8,-85.87 378.68,-75.75 374.81,-85.61 381.8,-85.87"/>
</g>
<!-- Node14 -->
<g id="node14" class="node">
<title>Node14</title>
<g id="a_node14"><a xlink:href="unistd_8h_source.html" target="_top" xlink:title=" ">
<polygon fill="white" stroke="black" points="262,-56.5 262,-75.5 330,-75.5 330,-56.5 262,-56.5"/>
<text text-anchor="middle" x="296" y="-63.5" font-family="Helvetica,sans-Serif" font-size="10.00">sys/unistd.h</text>
</a>
</g>
</g>
<!-- Node12&#45;&gt;Node14 -->
<g id="edge20" class="edge">
<title>Node12&#45;&gt;Node14</title>
<path fill="none" stroke="midnightblue" d="M363.99,-112.32C351.47,-103.98 332.32,-91.21 317.53,-81.35"/>
<polygon fill="midnightblue" stroke="midnightblue" points="319.24,-78.29 308.98,-75.65 315.36,-84.11 319.24,-78.29"/>
</g>
<!-- Node16 -->
<g id="node16" class="node">
<title>Node16</title>
<g id="a_node16"><a xlink:href="time_8h.html" target="_top" xlink:title=" ">
<polygon fill="white" stroke="black" points="430.5,-56.5 430.5,-75.5 491.5,-75.5 491.5,-56.5 430.5,-56.5"/>
<text text-anchor="middle" x="461" y="-63.5" font-family="Helvetica,sans-Serif" font-size="10.00">sys/time.h</text>
</a>
</g>
</g>
<!-- Node15&#45;&gt;Node16 -->
<g id="edge22" class="edge">
<title>Node15&#45;&gt;Node16</title>
<path fill="none" stroke="midnightblue" d="M461,-112.08C461,-105.01 461,-94.86 461,-85.99"/>
<polygon fill="midnightblue" stroke="midnightblue" points="464.5,-85.75 461,-75.75 457.5,-85.75 464.5,-85.75"/>
</g>
<!-- Node17&#45;&gt;Node8 -->
<g id="edge25" class="edge">
<title>Node17&#45;&gt;Node8</title>
<path fill="none" stroke="midnightblue" d="M233.05,-224.39C224.03,-216.02 211.1,-202.48 204,-188 196.88,-173.47 193.66,-155.29 192.2,-141.85"/>
<polygon fill="midnightblue" stroke="midnightblue" points="195.69,-141.53 191.35,-131.87 188.71,-142.13 195.69,-141.53"/>
</g>
<!-- Node18 -->
<g id="node18" class="node">
<title>Node18</title>
<g id="a_node18"><a xlink:title=" ">
<polygon fill="white" stroke="#bfbfbf" points="360.5,-168.5 360.5,-187.5 407.5,-187.5 407.5,-168.5 360.5,-168.5"/>
<text text-anchor="middle" x="384" y="-175.5" font-family="Helvetica,sans-Serif" font-size="10.00">types.h</text>
</a>
</g>
</g>
<!-- Node17&#45;&gt;Node18 -->
<g id="edge24" class="edge">
<title>Node17&#45;&gt;Node18</title>
<path fill="none" stroke="midnightblue" d="M265.34,-224.44C288.75,-215.48 325.74,-201.31 352.19,-191.18"/>
<polygon fill="midnightblue" stroke="midnightblue" points="353.68,-194.36 361.76,-187.52 351.17,-187.82 353.68,-194.36"/>
</g>
<!-- Node19 -->
<g id="node19" class="node">
<title>Node19</title>
<g id="a_node19"><a xlink:href="ioman_8h.html" target="_top" xlink:title=" ">
<polygon fill="white" stroke="black" points="292,-168.5 292,-187.5 342,-187.5 342,-168.5 292,-168.5"/>
<text text-anchor="middle" x="317" y="-175.5" font-family="Helvetica,sans-Serif" font-size="10.00">ioman.h</text>
</a>
</g>
</g>
<!-- Node17&#45;&gt;Node19 -->
<g id="edge26" class="edge">
<title>Node17&#45;&gt;Node19</title>
<path fill="none" stroke="midnightblue" d="M254.89,-224.32C266.15,-216.11 283.29,-203.6 296.71,-193.81"/>
<polygon fill="midnightblue" stroke="midnightblue" points="298.88,-196.56 304.89,-187.83 294.75,-190.9 298.88,-196.56"/>
</g>
<!-- Node20 -->
<g id="node20" class="node">
<title>Node20</title>
<g id="a_node20"><a xlink:href="loadcore_8h.html" target="_top" xlink:title=" ">
<polygon fill="white" stroke="black" points="212.5,-168.5 212.5,-187.5 273.5,-187.5 273.5,-168.5 212.5,-168.5"/>
<text text-anchor="middle" x="243" y="-175.5" font-family="Helvetica,sans-Serif" font-size="10.00">loadcore.h</text>
</a>
</g>
</g>
<!-- Node17&#45;&gt;Node20 -->
<g id="edge30" class="edge">
<title>Node17&#45;&gt;Node20</title>
<path fill="none" stroke="midnightblue" d="M243,-224.08C243,-217.01 243,-206.86 243,-197.99"/>
<polygon fill="midnightblue" stroke="midnightblue" points="246.5,-197.75 243,-187.75 239.5,-197.75 246.5,-197.75"/>
</g>
<!-- Node19&#45;&gt;Node3 -->
<g id="edge27" class="edge">
<title>Node19&#45;&gt;Node3</title>
<path fill="none" stroke="midnightblue" d="M307.11,-168.37C285.86,-149.81 235.57,-105.91 208.68,-82.44"/>
<polygon fill="midnightblue" stroke="midnightblue" points="210.68,-79.53 200.84,-75.59 206.07,-84.8 210.68,-79.53"/>
</g>
<!-- Node19&#45;&gt;Node8 -->
<g id="edge28" class="edge">
<title>Node19&#45;&gt;Node8</title>
<path fill="none" stroke="midnightblue" d="M297.03,-168.44C275.54,-159.23 241.24,-144.53 217.5,-134.36"/>
<polygon fill="midnightblue" stroke="midnightblue" points="218.61,-131.03 208.04,-130.3 215.86,-137.46 218.61,-131.03"/>
</g>
<!-- Node19&#45;&gt;Node12 -->
<g id="edge29" class="edge">
<title>Node19&#45;&gt;Node12</title>
<path fill="none" stroke="midnightblue" d="M326.64,-168.32C335.51,-160.34 348.87,-148.31 359.61,-138.65"/>
<polygon fill="midnightblue" stroke="midnightblue" points="362.09,-141.13 367.18,-131.83 357.41,-135.92 362.09,-141.13"/>
</g>
<!-- Node20&#45;&gt;Node3 -->
<g id="edge31" class="edge">
<title>Node20&#45;&gt;Node3</title>
<path fill="none" stroke="midnightblue" d="M240.01,-168.42C235.53,-155.82 226.56,-131.68 217,-112 212.47,-102.67 206.76,-92.64 201.85,-84.42"/>
<polygon fill="midnightblue" stroke="midnightblue" points="204.76,-82.48 196.57,-75.76 198.78,-86.12 204.76,-82.48"/>
</g>
<!-- Node20&#45;&gt;Node8 -->
<g id="edge32" class="edge">
<title>Node20&#45;&gt;Node8</title>
<path fill="none" stroke="midnightblue" d="M234.41,-168.08C226.84,-160.22 215.62,-148.57 206.49,-139.08"/>
<polygon fill="midnightblue" stroke="midnightblue" points="208.88,-136.53 199.43,-131.75 203.84,-141.38 208.88,-136.53"/>
</g>
</g>
</svg>
