<?xml version="1.0" encoding="UTF-8" standalone="no"?>
<!DOCTYPE svg PUBLIC "-//W3C//DTD SVG 1.1//EN"
 "http://www.w3.org/Graphics/SVG/1.1/DTD/svg11.dtd">
<!-- Generated by graphviz version 2.46.1 (20210215.1649)
 -->
<!-- Title: iop/fs/netfs/src/devscan.c Pages: 1 -->
<svg width="745pt" height="308pt"
 viewBox="0.00 0.00 745.33 308.00" xmlns="http://www.w3.org/2000/svg" xmlns:xlink="http://www.w3.org/1999/xlink">
<g id="graph0" class="graph" transform="scale(1 1) rotate(0) translate(4 304)">
<title>iop/fs/netfs/src/devscan.c</title>
<polygon fill="white" stroke="transparent" points="-4,4 -4,-304 741.33,-304 741.33,4 -4,4"/>
<!-- Node1 -->
<g id="node1" class="node">
<title>Node1</title>
<g id="a_node1"><a xlink:title=" ">
<polygon fill="#bfbfbf" stroke="black" points="382.5,-280.5 382.5,-299.5 511.5,-299.5 511.5,-280.5 382.5,-280.5"/>
<text text-anchor="middle" x="447" y="-287.5" font-family="Helvetica,sans-Serif" font-size="10.00">iop/fs/netfs/src/devscan.c</text>
</a>
</g>
</g>
<!-- Node2 -->
<g id="node2" class="node">
<title>Node2</title>
<g id="a_node2"><a xlink:title=" ">
<polygon fill="white" stroke="#bfbfbf" points="246.5,-168.5 246.5,-187.5 293.5,-187.5 293.5,-168.5 246.5,-168.5"/>
<text text-anchor="middle" x="270" y="-175.5" font-family="Helvetica,sans-Serif" font-size="10.00">types.h</text>
</a>
</g>
</g>
<!-- Node1&#45;&gt;Node2 -->
<g id="edge1" class="edge">
<title>Node1&#45;&gt;Node2</title>
<path fill="none" stroke="midnightblue" d="M382.46,-280.9C354.79,-274.65 323.68,-263.59 301,-244 286.98,-231.89 278.8,-212.01 274.4,-197.42"/>
<polygon fill="midnightblue" stroke="midnightblue" points="277.71,-196.26 271.74,-187.51 270.95,-198.08 277.71,-196.26"/>
</g>
<!-- Node3 -->
<g id="node3" class="node">
<title>Node3</title>
<g id="a_node3"><a xlink:href="defs_8h.html" target="_top" xlink:title=" ">
<polygon fill="white" stroke="black" points="608.5,-224.5 608.5,-243.5 651.5,-243.5 651.5,-224.5 608.5,-224.5"/>
<text text-anchor="middle" x="630" y="-231.5" font-family="Helvetica,sans-Serif" font-size="10.00">defs.h</text>
</a>
</g>
</g>
<!-- Node1&#45;&gt;Node3 -->
<g id="edge2" class="edge">
<title>Node1&#45;&gt;Node3</title>
<path fill="none" stroke="midnightblue" d="M476,-280.44C509.33,-270.61 563.88,-254.51 598.31,-244.35"/>
<polygon fill="midnightblue" stroke="midnightblue" points="599.7,-247.59 608.3,-241.4 597.72,-240.88 599.7,-247.59"/>
</g>
<!-- Node7 -->
<g id="node7" class="node">
<title>Node7</title>
<g id="a_node7"><a xlink:href="irx_8h.html" target="_top" xlink:title=" ">
<polygon fill="white" stroke="black" points="411,-112.5 411,-131.5 445,-131.5 445,-112.5 411,-112.5"/>
<text text-anchor="middle" x="428" y="-119.5" font-family="Helvetica,sans-Serif" font-size="10.00">irx.h</text>
</a>
</g>
</g>
<!-- Node1&#45;&gt;Node7 -->
<g id="edge6" class="edge">
<title>Node1&#45;&gt;Node7</title>
<path fill="none" stroke="midnightblue" d="M445.98,-280.08C442.99,-253.95 434.2,-177.21 430.13,-141.58"/>
<polygon fill="midnightblue" stroke="midnightblue" points="433.6,-141.11 428.98,-131.57 426.64,-141.9 433.6,-141.11"/>
</g>
<!-- Node8 -->
<g id="node8" class="node">
<title>Node8</title>
<g id="a_node8"><a xlink:href="loadcore_8h.html" target="_top" xlink:title=" ">
<polygon fill="white" stroke="black" points="167.5,-168.5 167.5,-187.5 228.5,-187.5 228.5,-168.5 167.5,-168.5"/>
<text text-anchor="middle" x="198" y="-175.5" font-family="Helvetica,sans-Serif" font-size="10.00">loadcore.h</text>
</a>
</g>
</g>
<!-- Node1&#45;&gt;Node8 -->
<g id="edge8" class="edge">
<title>Node1&#45;&gt;Node8</title>
<path fill="none" stroke="midnightblue" d="M396.05,-280.48C362.45,-273.59 318.14,-262.01 282,-244 256.14,-231.11 230.47,-209.65 214.44,-194.94"/>
<polygon fill="midnightblue" stroke="midnightblue" points="216.68,-192.23 206.99,-187.94 211.88,-197.34 216.68,-192.23"/>
</g>
<!-- Node9 -->
<g id="node9" class="node">
<title>Node9</title>
<g id="a_node9"><a xlink:href="ioman__mod_8h.html" target="_top" xlink:title=" ">
<polygon fill="white" stroke="black" points="0,-168.5 0,-187.5 74,-187.5 74,-168.5 0,-168.5"/>
<text text-anchor="middle" x="37" y="-175.5" font-family="Helvetica,sans-Serif" font-size="10.00">ioman_mod.h</text>
</a>
</g>
</g>
<!-- Node1&#45;&gt;Node9 -->
<g id="edge11" class="edge">
<title>Node1&#45;&gt;Node9</title>
<path fill="none" stroke="midnightblue" d="M382.48,-280.84C332.16,-273.62 260.85,-261.49 200,-244 150.91,-229.89 96.21,-206.38 64.3,-191.84"/>
<polygon fill="midnightblue" stroke="midnightblue" points="65.71,-188.63 55.16,-187.63 62.78,-194.99 65.71,-188.63"/>
</g>
<!-- Node15 -->
<g id="node15" class="node">
<title>Node15</title>
<g id="a_node15"><a xlink:href="ioman_x_8h.html" target="_top" xlink:title=" ">
<polygon fill="white" stroke="black" points="92.5,-168.5 92.5,-187.5 149.5,-187.5 149.5,-168.5 92.5,-168.5"/>
<text text-anchor="middle" x="121" y="-175.5" font-family="Helvetica,sans-Serif" font-size="10.00">iomanX.h</text>
</a>
</g>
</g>
<!-- Node1&#45;&gt;Node15 -->
<g id="edge19" class="edge">
<title>Node1&#45;&gt;Node15</title>
<path fill="none" stroke="midnightblue" d="M390.87,-280.46C349.93,-273.26 293.53,-261.35 246,-244 208.47,-230.31 167.95,-207.63 143.53,-193"/>
<polygon fill="midnightblue" stroke="midnightblue" points="145.07,-189.84 134.7,-187.65 141.44,-195.83 145.07,-189.84"/>
</g>
<!-- Node16 -->
<g id="node16" class="node">
<title>Node16</title>
<g id="a_node16"><a xlink:href="thbase_8h.html" target="_top" xlink:title=" ">
<polygon fill="white" stroke="black" points="536.5,-168.5 536.5,-187.5 589.5,-187.5 589.5,-168.5 536.5,-168.5"/>
<text text-anchor="middle" x="563" y="-175.5" font-family="Helvetica,sans-Serif" font-size="10.00">thbase.h</text>
</a>
</g>
</g>
<!-- Node1&#45;&gt;Node16 -->
<g id="edge24" class="edge">
<title>Node1&#45;&gt;Node16</title>
<path fill="none" stroke="midnightblue" d="M456.1,-280.37C475.58,-261.89 521.56,-218.29 546.4,-194.74"/>
<polygon fill="midnightblue" stroke="midnightblue" points="549.09,-197.01 553.94,-187.59 544.28,-191.93 549.09,-197.01"/>
</g>
<!-- Node17 -->
<g id="node17" class="node">
<title>Node17</title>
<g id="a_node17"><a xlink:href="thsemap_8h.html" target="_top" xlink:title=" ">
<polygon fill="white" stroke="black" points="456,-168.5 456,-187.5 518,-187.5 518,-168.5 456,-168.5"/>
<text text-anchor="middle" x="487" y="-175.5" font-family="Helvetica,sans-Serif" font-size="10.00">thsemap.h</text>
</a>
</g>
</g>
<!-- Node1&#45;&gt;Node17 -->
<g id="edge27" class="edge">
<title>Node1&#45;&gt;Node17</title>
<path fill="none" stroke="midnightblue" d="M450.14,-280.37C456.62,-262.54 471.62,-221.3 480.36,-197.27"/>
<polygon fill="midnightblue" stroke="midnightblue" points="483.75,-198.19 483.88,-187.59 477.17,-195.79 483.75,-198.19"/>
</g>
<!-- Node18 -->
<g id="node18" class="node">
<title>Node18</title>
<g id="a_node18"><a xlink:href="stdio_8h.html" target="_top" xlink:title=" ">
<polygon fill="white" stroke="black" points="607.5,-168.5 607.5,-187.5 652.5,-187.5 652.5,-168.5 607.5,-168.5"/>
<text text-anchor="middle" x="630" y="-175.5" font-family="Helvetica,sans-Serif" font-size="10.00">stdio.h</text>
</a>
</g>
</g>
<!-- Node1&#45;&gt;Node18 -->
<g id="edge30" class="edge">
<title>Node1&#45;&gt;Node18</title>
<path fill="none" stroke="midnightblue" d="M461.36,-280.37C492.9,-261.41 568.44,-216 606.8,-192.94"/>
<polygon fill="midnightblue" stroke="midnightblue" points="608.94,-195.74 615.71,-187.59 605.33,-189.74 608.94,-195.74"/>
</g>
<!-- Node20 -->
<g id="node20" class="node">
<title>Node20</title>
<g id="a_node20"><a xlink:href="sysclib_8h.html" target="_top" xlink:title=" ">
<polygon fill="white" stroke="black" points="671,-168.5 671,-187.5 725,-187.5 725,-168.5 671,-168.5"/>
<text text-anchor="middle" x="698" y="-175.5" font-family="Helvetica,sans-Serif" font-size="10.00">sysclib.h</text>
</a>
</g>
</g>
<!-- Node1&#45;&gt;Node20 -->
<g id="edge33" class="edge">
<title>Node1&#45;&gt;Node20</title>
<path fill="none" stroke="midnightblue" d="M467.17,-280.46C488.33,-271.47 522.56,-256.86 552,-244 592.89,-226.14 640.02,-205.07 669.42,-191.87"/>
<polygon fill="midnightblue" stroke="midnightblue" points="670.99,-195 678.67,-187.71 668.12,-188.61 670.99,-195"/>
</g>
<!-- Node22 -->
<g id="node22" class="node">
<title>Node22</title>
<g id="a_node22"><a xlink:href="iopmgr_8h.html" target="_top" xlink:title=" ">
<polygon fill="white" stroke="black" points="310.5,-224.5 310.5,-243.5 363.5,-243.5 363.5,-224.5 310.5,-224.5"/>
<text text-anchor="middle" x="337" y="-231.5" font-family="Helvetica,sans-Serif" font-size="10.00">iopmgr.h</text>
</a>
</g>
</g>
<!-- Node1&#45;&gt;Node22 -->
<g id="edge39" class="edge">
<title>Node1&#45;&gt;Node22</title>
<path fill="none" stroke="midnightblue" d="M429.33,-280.32C411.61,-271.62 384.1,-258.12 363.71,-248.11"/>
<polygon fill="midnightblue" stroke="midnightblue" points="365.15,-244.92 354.63,-243.65 362.06,-251.2 365.15,-244.92"/>
</g>
<!-- Node24 -->
<g id="node24" class="node">
<title>Node24</title>
<g id="a_node24"><a xlink:href="devscan_8h.html" target="_top" xlink:title=" ">
<polygon fill="white" stroke="black" points="669.5,-224.5 669.5,-243.5 730.5,-243.5 730.5,-224.5 669.5,-224.5"/>
<text text-anchor="middle" x="700" y="-231.5" font-family="Helvetica,sans-Serif" font-size="10.00">devscan.h</text>
</a>
</g>
</g>
<!-- Node1&#45;&gt;Node24 -->
<g id="edge47" class="edge">
<title>Node1&#45;&gt;Node24</title>
<path fill="none" stroke="midnightblue" d="M488.88,-280.45C529.95,-272 594.61,-258.56 659.38,-244.33"/>
<polygon fill="midnightblue" stroke="midnightblue" points="660.34,-247.7 669.36,-242.13 658.84,-240.86 660.34,-247.7"/>
</g>
<!-- Node4 -->
<g id="node4" class="node">
<title>Node4</title>
<g id="a_node4"><a xlink:href="types_8h_source.html" target="_top" xlink:title=" ">
<polygon fill="white" stroke="black" points="430.5,-56.5 430.5,-75.5 477.5,-75.5 477.5,-56.5 430.5,-56.5"/>
<text text-anchor="middle" x="454" y="-63.5" font-family="Helvetica,sans-Serif" font-size="10.00">types.h</text>
</a>
</g>
</g>
<!-- Node3&#45;&gt;Node4 -->
<g id="edge3" class="edge">
<title>Node3&#45;&gt;Node4</title>
<path fill="none" stroke="midnightblue" d="M651.81,-226.66C679.42,-218.13 724.55,-202.39 734,-188 738.88,-180.57 737.58,-176.14 734,-168 719.19,-134.31 705.77,-128.76 673,-112 612.53,-81.08 532.41,-71.4 487.76,-68.38"/>
<polygon fill="midnightblue" stroke="midnightblue" points="487.92,-64.88 477.73,-67.77 487.5,-71.87 487.92,-64.88"/>
</g>
<!-- Node5 -->
<g id="node5" class="node">
<title>Node5</title>
<g id="a_node5"><a xlink:title=" ">
<polygon fill="white" stroke="#bfbfbf" points="428.5,-0.5 428.5,-19.5 479.5,-19.5 479.5,-0.5 428.5,-0.5"/>
<text text-anchor="middle" x="454" y="-7.5" font-family="Helvetica,sans-Serif" font-size="10.00">stddef.h</text>
</a>
</g>
</g>
<!-- Node4&#45;&gt;Node5 -->
<g id="edge4" class="edge">
<title>Node4&#45;&gt;Node5</title>
<path fill="none" stroke="midnightblue" d="M454,-56.08C454,-49.01 454,-38.86 454,-29.99"/>
<polygon fill="midnightblue" stroke="midnightblue" points="457.5,-29.75 454,-19.75 450.5,-29.75 457.5,-29.75"/>
</g>
<!-- Node6 -->
<g id="node6" class="node">
<title>Node6</title>
<g id="a_node6"><a xlink:href="tamtypes_8h.html" target="_top" xlink:title=" ">
<polygon fill="white" stroke="black" points="595,-0.5 595,-19.5 659,-19.5 659,-0.5 595,-0.5"/>
<text text-anchor="middle" x="627" y="-7.5" font-family="Helvetica,sans-Serif" font-size="10.00">tamtypes.h</text>
</a>
</g>
</g>
<!-- Node4&#45;&gt;Node6 -->
<g id="edge5" class="edge">
<title>Node4&#45;&gt;Node6</title>
<path fill="none" stroke="midnightblue" d="M477.69,-57.6C506.67,-48.56 556.04,-33.15 590.02,-22.54"/>
<polygon fill="midnightblue" stroke="midnightblue" points="591.1,-25.87 599.61,-19.55 589.02,-19.19 591.1,-25.87"/>
</g>
<!-- Node7&#45;&gt;Node4 -->
<g id="edge7" class="edge">
<title>Node7&#45;&gt;Node4</title>
<path fill="none" stroke="midnightblue" d="M432.29,-112.08C435.85,-104.69 441.02,-93.95 445.42,-84.81"/>
<polygon fill="midnightblue" stroke="midnightblue" points="448.6,-86.28 449.79,-75.75 442.29,-83.24 448.6,-86.28"/>
</g>
<!-- Node8&#45;&gt;Node4 -->
<g id="edge9" class="edge">
<title>Node8&#45;&gt;Node4</title>
<path fill="none" stroke="midnightblue" d="M218.09,-168.37C263.05,-149.05 371.94,-102.26 424.56,-79.65"/>
<polygon fill="midnightblue" stroke="midnightblue" points="426.2,-82.76 434.01,-75.59 423.44,-76.32 426.2,-82.76"/>
</g>
<!-- Node8&#45;&gt;Node7 -->
<g id="edge10" class="edge">
<title>Node8&#45;&gt;Node7</title>
<path fill="none" stroke="midnightblue" d="M228.54,-169.83C273.81,-159.2 357.99,-139.44 401.08,-129.32"/>
<polygon fill="midnightblue" stroke="midnightblue" points="401.91,-132.72 410.85,-127.03 400.31,-125.9 401.91,-132.72"/>
</g>
<!-- Node9&#45;&gt;Node4 -->
<g id="edge12" class="edge">
<title>Node9&#45;&gt;Node4</title>
<path fill="none" stroke="midnightblue" d="M43.93,-168.49C56.18,-154.12 83.19,-125.29 113,-112 167.58,-87.67 345.27,-73.87 420.19,-69.02"/>
<polygon fill="midnightblue" stroke="midnightblue" points="420.72,-72.49 430.47,-68.36 420.27,-65.5 420.72,-72.49"/>
</g>
<!-- Node9&#45;&gt;Node7 -->
<g id="edge13" class="edge">
<title>Node9&#45;&gt;Node7</title>
<path fill="none" stroke="midnightblue" d="M74.12,-169.53C77.12,-168.99 80.11,-168.47 83,-168 200.62,-148.84 341.85,-132.49 400.44,-125.99"/>
<polygon fill="midnightblue" stroke="midnightblue" points="401.16,-129.44 410.71,-124.86 400.39,-122.48 401.16,-129.44"/>
</g>
<!-- Node10 -->
<g id="node10" class="node">
<title>Node10</title>
<g id="a_node10"><a xlink:href="io__common_8h.html" target="_top" xlink:title=" ">
<polygon fill="white" stroke="black" points="122,-112.5 122,-131.5 196,-131.5 196,-112.5 122,-112.5"/>
<text text-anchor="middle" x="159" y="-119.5" font-family="Helvetica,sans-Serif" font-size="10.00">io_common.h</text>
</a>
</g>
</g>
<!-- Node9&#45;&gt;Node10 -->
<g id="edge14" class="edge">
<title>Node9&#45;&gt;Node10</title>
<path fill="none" stroke="midnightblue" d="M56.33,-168.44C76.32,-159.6 107.74,-145.69 130.56,-135.59"/>
<polygon fill="midnightblue" stroke="midnightblue" points="132.03,-138.76 139.76,-131.52 129.2,-132.36 132.03,-138.76"/>
</g>
<!-- Node13 -->
<g id="node13" class="node">
<title>Node13</title>
<g id="a_node13"><a xlink:href="iox__stat_8h.html" target="_top" xlink:title=" ">
<polygon fill="white" stroke="black" points="8,-112.5 8,-131.5 66,-131.5 66,-112.5 8,-112.5"/>
<text text-anchor="middle" x="37" y="-119.5" font-family="Helvetica,sans-Serif" font-size="10.00">iox_stat.h</text>
</a>
</g>
</g>
<!-- Node9&#45;&gt;Node13 -->
<g id="edge17" class="edge">
<title>Node9&#45;&gt;Node13</title>
<path fill="none" stroke="midnightblue" d="M37,-168.08C37,-161.01 37,-150.86 37,-141.99"/>
<polygon fill="midnightblue" stroke="midnightblue" points="40.5,-141.75 37,-131.75 33.5,-141.75 40.5,-141.75"/>
</g>
<!-- Node11 -->
<g id="node11" class="node">
<title>Node11</title>
<g id="a_node11"><a xlink:href="fcntl_8h_source.html" target="_top" xlink:title=" ">
<polygon fill="white" stroke="black" points="107.5,-56.5 107.5,-75.5 168.5,-75.5 168.5,-56.5 107.5,-56.5"/>
<text text-anchor="middle" x="138" y="-63.5" font-family="Helvetica,sans-Serif" font-size="10.00">sys/fcntl.h</text>
</a>
</g>
</g>
<!-- Node10&#45;&gt;Node11 -->
<g id="edge15" class="edge">
<title>Node10&#45;&gt;Node11</title>
<path fill="none" stroke="midnightblue" d="M155.53,-112.08C152.69,-104.77 148.57,-94.18 145.04,-85.1"/>
<polygon fill="midnightblue" stroke="midnightblue" points="148.29,-83.8 141.4,-75.75 141.77,-86.34 148.29,-83.8"/>
</g>
<!-- Node12 -->
<g id="node12" class="node">
<title>Node12</title>
<g id="a_node12"><a xlink:href="unistd_8h_source.html" target="_top" xlink:title=" ">
<polygon fill="white" stroke="black" points="187,-56.5 187,-75.5 255,-75.5 255,-56.5 187,-56.5"/>
<text text-anchor="middle" x="221" y="-63.5" font-family="Helvetica,sans-Serif" font-size="10.00">sys/unistd.h</text>
</a>
</g>
</g>
<!-- Node10&#45;&gt;Node12 -->
<g id="edge16" class="edge">
<title>Node10&#45;&gt;Node12</title>
<path fill="none" stroke="midnightblue" d="M168.96,-112.32C178.13,-104.34 191.94,-92.31 203.03,-82.65"/>
<polygon fill="midnightblue" stroke="midnightblue" points="205.62,-85.04 210.86,-75.83 201.02,-79.76 205.62,-85.04"/>
</g>
<!-- Node14 -->
<g id="node14" class="node">
<title>Node14</title>
<g id="a_node14"><a xlink:href="time_8h.html" target="_top" xlink:title=" ">
<polygon fill="white" stroke="black" points="6.5,-56.5 6.5,-75.5 67.5,-75.5 67.5,-56.5 6.5,-56.5"/>
<text text-anchor="middle" x="37" y="-63.5" font-family="Helvetica,sans-Serif" font-size="10.00">sys/time.h</text>
</a>
</g>
</g>
<!-- Node13&#45;&gt;Node14 -->
<g id="edge18" class="edge">
<title>Node13&#45;&gt;Node14</title>
<path fill="none" stroke="midnightblue" d="M37,-112.08C37,-105.01 37,-94.86 37,-85.99"/>
<polygon fill="midnightblue" stroke="midnightblue" points="40.5,-85.75 37,-75.75 33.5,-85.75 40.5,-85.75"/>
</g>
<!-- Node15&#45;&gt;Node4 -->
<g id="edge20" class="edge">
<title>Node15&#45;&gt;Node4</title>
<path fill="none" stroke="midnightblue" d="M143.17,-168.43C176.83,-155.54 242.97,-130.67 300,-112 341.15,-98.53 389.1,-84.83 420.42,-76.14"/>
<polygon fill="midnightblue" stroke="midnightblue" points="421.67,-79.43 430.37,-73.4 419.8,-72.68 421.67,-79.43"/>
</g>
<!-- Node15&#45;&gt;Node7 -->
<g id="edge21" class="edge">
<title>Node15&#45;&gt;Node7</title>
<path fill="none" stroke="midnightblue" d="M149.64,-169.81C152.46,-169.17 155.28,-168.56 158,-168 246.3,-149.93 351.96,-133.94 400.79,-126.86"/>
<polygon fill="midnightblue" stroke="midnightblue" points="401.46,-130.3 410.86,-125.41 400.46,-123.37 401.46,-130.3"/>
</g>
<!-- Node15&#45;&gt;Node10 -->
<g id="edge22" class="edge">
<title>Node15&#45;&gt;Node10</title>
<path fill="none" stroke="midnightblue" d="M127.27,-168.08C132.64,-160.46 140.52,-149.26 147.08,-139.94"/>
<polygon fill="midnightblue" stroke="midnightblue" points="149.95,-141.94 152.84,-131.75 144.22,-137.91 149.95,-141.94"/>
</g>
<!-- Node15&#45;&gt;Node13 -->
<g id="edge23" class="edge">
<title>Node15&#45;&gt;Node13</title>
<path fill="none" stroke="midnightblue" d="M107.5,-168.32C94.4,-159.9 74.29,-146.97 58.89,-137.07"/>
<polygon fill="midnightblue" stroke="midnightblue" points="60.77,-134.12 50.46,-131.65 56.98,-140.01 60.77,-134.12"/>
</g>
<!-- Node16&#45;&gt;Node4 -->
<g id="edge25" class="edge">
<title>Node16&#45;&gt;Node4</title>
<path fill="none" stroke="midnightblue" d="M554.45,-168.37C536.14,-149.89 492.94,-106.29 469.6,-82.74"/>
<polygon fill="midnightblue" stroke="midnightblue" points="472.04,-80.23 462.51,-75.59 467.07,-85.16 472.04,-80.23"/>
</g>
<!-- Node16&#45;&gt;Node7 -->
<g id="edge26" class="edge">
<title>Node16&#45;&gt;Node7</title>
<path fill="none" stroke="midnightblue" d="M541.61,-168.44C517.98,-158.99 479.91,-143.76 454.43,-133.57"/>
<polygon fill="midnightblue" stroke="midnightblue" points="455.6,-130.27 445.02,-129.81 453,-136.77 455.6,-130.27"/>
</g>
<!-- Node17&#45;&gt;Node4 -->
<g id="edge28" class="edge">
<title>Node17&#45;&gt;Node4</title>
<path fill="none" stroke="midnightblue" d="M484.41,-168.37C479.06,-150.54 466.69,-109.3 459.48,-85.27"/>
<polygon fill="midnightblue" stroke="midnightblue" points="462.8,-84.16 456.58,-75.59 456.1,-86.18 462.8,-84.16"/>
</g>
<!-- Node17&#45;&gt;Node7 -->
<g id="edge29" class="edge">
<title>Node17&#45;&gt;Node7</title>
<path fill="none" stroke="midnightblue" d="M477.52,-168.32C468.8,-160.34 455.66,-148.31 445.1,-138.65"/>
<polygon fill="midnightblue" stroke="midnightblue" points="447.39,-136 437.65,-131.83 442.67,-141.17 447.39,-136"/>
</g>
<!-- Node18&#45;&gt;Node7 -->
<g id="edge32" class="edge">
<title>Node18&#45;&gt;Node7</title>
<path fill="none" stroke="midnightblue" d="M607.33,-170.35C604.53,-169.55 601.7,-168.75 599,-168 548.28,-153.96 488.8,-138.55 455.04,-129.89"/>
<polygon fill="midnightblue" stroke="midnightblue" points="455.58,-126.42 445.03,-127.33 453.85,-133.2 455.58,-126.42"/>
</g>
<!-- Node19 -->
<g id="node19" class="node">
<title>Node19</title>
<g id="a_node19"><a xlink:title=" ">
<polygon fill="white" stroke="#bfbfbf" points="588.5,-112.5 588.5,-131.5 639.5,-131.5 639.5,-112.5 588.5,-112.5"/>
<text text-anchor="middle" x="614" y="-119.5" font-family="Helvetica,sans-Serif" font-size="10.00">stdarg.h</text>
</a>
</g>
</g>
<!-- Node18&#45;&gt;Node19 -->
<g id="edge31" class="edge">
<title>Node18&#45;&gt;Node19</title>
<path fill="none" stroke="midnightblue" d="M627.36,-168.08C625.21,-160.85 622.12,-150.41 619.45,-141.4"/>
<polygon fill="midnightblue" stroke="midnightblue" points="622.79,-140.34 616.59,-131.75 616.08,-142.33 622.79,-140.34"/>
</g>
<!-- Node20&#45;&gt;Node4 -->
<g id="edge34" class="edge">
<title>Node20&#45;&gt;Node4</title>
<path fill="none" stroke="midnightblue" d="M693.96,-168.29C686.92,-154.14 671.05,-126.31 649,-112 599.14,-79.63 528.82,-70.43 487.66,-67.88"/>
<polygon fill="midnightblue" stroke="midnightblue" points="487.78,-64.39 477.61,-67.36 487.41,-71.38 487.78,-64.39"/>
</g>
<!-- Node20&#45;&gt;Node7 -->
<g id="edge35" class="edge">
<title>Node20&#45;&gt;Node7</title>
<path fill="none" stroke="midnightblue" d="M670.91,-170.06C667.91,-169.34 664.89,-168.64 662,-168 587.52,-151.54 498.95,-135.45 455.21,-127.73"/>
<polygon fill="midnightblue" stroke="midnightblue" points="455.55,-124.24 445.1,-125.96 454.34,-131.13 455.55,-124.24"/>
</g>
<!-- Node20&#45;&gt;Node19 -->
<g id="edge36" class="edge">
<title>Node20&#45;&gt;Node19</title>
<path fill="none" stroke="midnightblue" d="M684.5,-168.32C671.4,-159.9 651.29,-146.97 635.89,-137.07"/>
<polygon fill="midnightblue" stroke="midnightblue" points="637.77,-134.12 627.46,-131.65 633.98,-140.01 637.77,-134.12"/>
</g>
<!-- Node21 -->
<g id="node21" class="node">
<title>Node21</title>
<g id="a_node21"><a xlink:href="setjmp_8h.html" target="_top" xlink:title=" ">
<polygon fill="white" stroke="black" points="635.5,-56.5 635.5,-75.5 688.5,-75.5 688.5,-56.5 635.5,-56.5"/>
<text text-anchor="middle" x="662" y="-63.5" font-family="Helvetica,sans-Serif" font-size="10.00">setjmp.h</text>
</a>
</g>
</g>
<!-- Node20&#45;&gt;Node21 -->
<g id="edge37" class="edge">
<title>Node20&#45;&gt;Node21</title>
<path fill="none" stroke="midnightblue" d="M696.4,-168.45C693.93,-155.89 688.77,-131.79 682,-112 678.89,-102.9 674.65,-93.11 670.87,-84.99"/>
<polygon fill="midnightblue" stroke="midnightblue" points="673.94,-83.29 666.46,-75.78 667.62,-86.31 673.94,-83.29"/>
</g>
<!-- Node21&#45;&gt;Node6 -->
<g id="edge38" class="edge">
<title>Node21&#45;&gt;Node6</title>
<path fill="none" stroke="midnightblue" d="M656.22,-56.08C651.33,-48.53 644.17,-37.49 638.17,-28.23"/>
<polygon fill="midnightblue" stroke="midnightblue" points="641.05,-26.24 632.67,-19.75 635.17,-30.05 641.05,-26.24"/>
</g>
<!-- Node22&#45;&gt;Node2 -->
<g id="edge40" class="edge">
<title>Node22&#45;&gt;Node2</title>
<path fill="none" stroke="midnightblue" d="M326.24,-224.32C316.23,-216.26 301.11,-204.08 289.07,-194.37"/>
<polygon fill="midnightblue" stroke="midnightblue" points="290.94,-191.38 280.96,-187.83 286.55,-196.83 290.94,-191.38"/>
</g>
<!-- Node22&#45;&gt;Node7 -->
<g id="edge41" class="edge">
<title>Node22&#45;&gt;Node7</title>
<path fill="none" stroke="midnightblue" d="M344.14,-224.37C359.29,-206.05 394.87,-163.05 414.46,-139.36"/>
<polygon fill="midnightblue" stroke="midnightblue" points="417.22,-141.53 420.89,-131.59 411.82,-137.07 417.22,-141.53"/>
</g>
<!-- Node22&#45;&gt;Node8 -->
<g id="edge46" class="edge">
<title>Node22&#45;&gt;Node8</title>
<path fill="none" stroke="midnightblue" d="M314.98,-224.44C291.9,-215.48 255.44,-201.31 229.36,-191.18"/>
<polygon fill="midnightblue" stroke="midnightblue" points="230.51,-187.88 219.92,-187.52 227.98,-194.4 230.51,-187.88"/>
</g>
<!-- Node23 -->
<g id="node23" class="node">
<title>Node23</title>
<g id="a_node23"><a xlink:href="ioman_8h.html" target="_top" xlink:title=" ">
<polygon fill="white" stroke="black" points="312,-168.5 312,-187.5 362,-187.5 362,-168.5 312,-168.5"/>
<text text-anchor="middle" x="337" y="-175.5" font-family="Helvetica,sans-Serif" font-size="10.00">ioman.h</text>
</a>
</g>
</g>
<!-- Node22&#45;&gt;Node23 -->
<g id="edge42" class="edge">
<title>Node22&#45;&gt;Node23</title>
<path fill="none" stroke="midnightblue" d="M337,-224.08C337,-217.01 337,-206.86 337,-197.99"/>
<polygon fill="midnightblue" stroke="midnightblue" points="340.5,-197.75 337,-187.75 333.5,-197.75 340.5,-197.75"/>
</g>
<!-- Node23&#45;&gt;Node4 -->
<g id="edge43" class="edge">
<title>Node23&#45;&gt;Node4</title>
<path fill="none" stroke="midnightblue" d="M345.22,-168.39C357.38,-155.75 380.97,-131.57 402,-112 412.93,-101.83 425.58,-90.87 435.67,-82.31"/>
<polygon fill="midnightblue" stroke="midnightblue" points="438.06,-84.87 443.45,-75.75 433.54,-79.52 438.06,-84.87"/>
</g>
<!-- Node23&#45;&gt;Node7 -->
<g id="edge44" class="edge">
<title>Node23&#45;&gt;Node7</title>
<path fill="none" stroke="midnightblue" d="M351.62,-168.32C365.95,-159.82 388.01,-146.73 404.75,-136.8"/>
<polygon fill="midnightblue" stroke="midnightblue" points="406.6,-139.77 413.42,-131.65 403.03,-133.75 406.6,-139.77"/>
</g>
<!-- Node23&#45;&gt;Node10 -->
<g id="edge45" class="edge">
<title>Node23&#45;&gt;Node10</title>
<path fill="none" stroke="midnightblue" d="M311.87,-169.38C281.96,-160.3 231.69,-145.05 197.01,-134.53"/>
<polygon fill="midnightblue" stroke="midnightblue" points="197.81,-131.12 187.23,-131.56 195.78,-137.82 197.81,-131.12"/>
</g>
</g>
</svg>
