<?xml version="1.0" encoding="UTF-8" standalone="no"?>
<!DOCTYPE svg PUBLIC "-//W3C//DTD SVG 1.1//EN"
 "http://www.w3.org/Graphics/SVG/1.1/DTD/svg11.dtd">
<!-- Generated by graphviz version 2.46.1 (20210215.1649)
 -->
<!-- Title: iop Pages: 1 -->
<svg width="731pt" height="292pt"
 viewBox="0.00 0.00 730.96 292.00" xmlns="http://www.w3.org/2000/svg" xmlns:xlink="http://www.w3.org/1999/xlink">
<g id="graph0" class="graph" transform="scale(1 1) rotate(0) translate(4 288)">
<title>iop</title>
<polygon fill="white" stroke="transparent" points="-4,4 -4,-288 726.96,-288 726.96,4 -4,4"/>
<g id="clust1" class="cluster">
<title>clusterdir_0981ace215aa2029f526b70c145b9fbe</title>
<g id="a_clust1"><a xlink:href="dir_0981ace215aa2029f526b70c145b9fbe.html" target="_top">
<polygon fill="#eeeeff" stroke="black" points="8,-8 8,-276 606,-276 606,-8 8,-8"/>
</a>
</g>
</g>
<!-- dir_0981ace215aa2029f526b70c145b9fbe -->
<g id="node1" class="node">
<title>dir_0981ace215aa2029f526b70c145b9fbe</title>
<text text-anchor="middle" x="451" y="-247.5" font-family="Helvetica,sans-Serif" font-size="10.00">iop</text>
</g>
<!-- dir_a12d8da7b0731a57c6a388326ad5e612 -->
<g id="node2" class="node">
<title>dir_a12d8da7b0731a57c6a388326ad5e612</title>
<g id="a_node2"><a xlink:href="dir_a12d8da7b0731a57c6a388326ad5e612.html" target="_top" xlink:title="cdvd">
<polygon fill="white" stroke="red" points="294,-196 240,-196 240,-160 294,-160 294,-196"/>
<text text-anchor="middle" x="267" y="-175.5" font-family="Helvetica,sans-Serif" font-size="10.00">cdvd</text>
</a>
</g>
</g>
<!-- dir_9be0baa3d4a3e9f480a9ee70594037fa -->
<g id="node8" class="node">
<title>dir_9be0baa3d4a3e9f480a9ee70594037fa</title>
<g id="a_node8"><a xlink:href="dir_9be0baa3d4a3e9f480a9ee70594037fa.html" target="_top" xlink:title="kernel">
<polygon fill="white" stroke="red" points="294,-124 240,-124 240,-88 294,-88 294,-124"/>
<text text-anchor="middle" x="267" y="-103.5" font-family="Helvetica,sans-Serif" font-size="10.00">kernel</text>
</a>
</g>
</g>
<!-- dir_a12d8da7b0731a57c6a388326ad5e612&#45;&gt;dir_9be0baa3d4a3e9f480a9ee70594037fa -->
<g id="edge20" class="edge">
<title>dir_a12d8da7b0731a57c6a388326ad5e612&#45;&gt;dir_9be0baa3d4a3e9f480a9ee70594037fa</title>
<path fill="none" stroke="black" d="M267,-159.7C267,-151.98 267,-142.71 267,-134.11"/>
<polygon fill="black" stroke="black" points="270.5,-134.1 267,-124.1 263.5,-134.1 270.5,-134.1"/>
<g id="a_edge20&#45;headlabel"><a xlink:href="dir_000012_000211.html" target="_top" xlink:title="15">
<text text-anchor="middle" x="273.34" y="-135.2" font-family="Helvetica,sans-Serif" font-size="10.00">15</text>
</a>
</g>
</g>
<!-- dir_bdd9a5d540de89e9fe90efdfc6973a4f -->
<g id="node15" class="node">
<title>dir_bdd9a5d540de89e9fe90efdfc6973a4f</title>
<g id="a_node15"><a xlink:href="dir_bdd9a5d540de89e9fe90efdfc6973a4f.html" target="_top" xlink:title="common">
<polygon fill="white" stroke="red" points="668,-124 614,-124 614,-88 668,-88 668,-124"/>
<text text-anchor="middle" x="641" y="-103.5" font-family="Helvetica,sans-Serif" font-size="10.00">common</text>
</a>
</g>
</g>
<!-- dir_a12d8da7b0731a57c6a388326ad5e612&#45;&gt;dir_bdd9a5d540de89e9fe90efdfc6973a4f -->
<g id="edge21" class="edge">
<title>dir_a12d8da7b0731a57c6a388326ad5e612&#45;&gt;dir_bdd9a5d540de89e9fe90efdfc6973a4f</title>
<path fill="none" stroke="black" d="M294.16,-163.06C297.09,-161.89 300.08,-160.84 303,-160 431.84,-123.1 476.93,-163.72 604.16,-125.63"/>
<polygon fill="black" stroke="black" points="605.36,-128.92 613.87,-122.62 603.28,-122.23 605.36,-128.92"/>
<g id="a_edge21&#45;headlabel"><a xlink:href="dir_000012_000000.html" target="_top" xlink:title="2">
<text text-anchor="middle" x="602.76" y="-130.2" font-family="Helvetica,sans-Serif" font-size="10.00">2</text>
</a>
</g>
</g>
<!-- dir_8494d76ae2586079db82d45fe3dd6aec -->
<g id="node3" class="node">
<title>dir_8494d76ae2586079db82d45fe3dd6aec</title>
<g id="a_node3"><a xlink:href="dir_8494d76ae2586079db82d45fe3dd6aec.html" target="_top" xlink:title="debug">
<polygon fill="white" stroke="red" points="598,-196 544,-196 544,-160 598,-160 598,-196"/>
<text text-anchor="middle" x="571" y="-175.5" font-family="Helvetica,sans-Serif" font-size="10.00">debug</text>
</a>
</g>
</g>
<!-- dir_8494d76ae2586079db82d45fe3dd6aec&#45;&gt;dir_9be0baa3d4a3e9f480a9ee70594037fa -->
<g id="edge6" class="edge">
<title>dir_8494d76ae2586079db82d45fe3dd6aec&#45;&gt;dir_9be0baa3d4a3e9f480a9ee70594037fa</title>
<path fill="none" stroke="black" d="M543.77,-163.29C540.85,-162.08 537.89,-160.95 535,-160 454.93,-133.62 356.84,-118.32 304.36,-111.43"/>
<polygon fill="black" stroke="black" points="304.55,-107.93 294.19,-110.13 303.66,-114.87 304.55,-107.93"/>
<g id="a_edge6&#45;headlabel"><a xlink:href="dir_000015_000211.html" target="_top" xlink:title="76">
<text text-anchor="middle" x="308.48" y="-103.07" font-family="Helvetica,sans-Serif" font-size="10.00">76</text>
</a>
</g>
</g>
<!-- dir_8494d76ae2586079db82d45fe3dd6aec&#45;&gt;dir_bdd9a5d540de89e9fe90efdfc6973a4f -->
<g id="edge5" class="edge">
<title>dir_8494d76ae2586079db82d45fe3dd6aec&#45;&gt;dir_bdd9a5d540de89e9fe90efdfc6973a4f</title>
<path fill="none" stroke="black" d="M588.3,-159.7C596.86,-151.14 607.34,-140.66 616.7,-131.3"/>
<polygon fill="black" stroke="black" points="619.3,-133.65 623.9,-124.1 614.35,-128.7 619.3,-133.65"/>
<g id="a_edge5&#45;headlabel"><a xlink:href="dir_000015_000000.html" target="_top" xlink:title="22">
<text text-anchor="middle" x="618.77" y="-135.7" font-family="Helvetica,sans-Serif" font-size="10.00">22</text>
</a>
</g>
</g>
<!-- dir_6f16cad81de2453a6f48c5e272ba4a18 -->
<g id="node4" class="node">
<title>dir_6f16cad81de2453a6f48c5e272ba4a18</title>
<g id="a_node4"><a xlink:href="dir_6f16cad81de2453a6f48c5e272ba4a18.html" target="_top" xlink:title="dev9">
<polygon fill="white" stroke="red" points="202,-196 148,-196 148,-160 202,-160 202,-196"/>
<text text-anchor="middle" x="175" y="-175.5" font-family="Helvetica,sans-Serif" font-size="10.00">dev9</text>
</a>
</g>
</g>
<!-- dir_6f16cad81de2453a6f48c5e272ba4a18&#45;&gt;dir_9be0baa3d4a3e9f480a9ee70594037fa -->
<g id="edge28" class="edge">
<title>dir_6f16cad81de2453a6f48c5e272ba4a18&#45;&gt;dir_9be0baa3d4a3e9f480a9ee70594037fa</title>
<path fill="none" stroke="black" d="M197.74,-159.7C209.44,-150.8 223.86,-139.82 236.51,-130.2"/>
<polygon fill="black" stroke="black" points="238.68,-132.94 244.52,-124.1 234.44,-127.37 238.68,-132.94"/>
<g id="a_edge28&#45;headlabel"><a xlink:href="dir_000024_000211.html" target="_top" xlink:title="82">
<text text-anchor="middle" x="237.54" y="-134.88" font-family="Helvetica,sans-Serif" font-size="10.00">82</text>
</a>
</g>
</g>
<!-- dir_6f16cad81de2453a6f48c5e272ba4a18&#45;&gt;dir_bdd9a5d540de89e9fe90efdfc6973a4f -->
<g id="edge29" class="edge">
<title>dir_6f16cad81de2453a6f48c5e272ba4a18&#45;&gt;dir_bdd9a5d540de89e9fe90efdfc6973a4f</title>
<path fill="none" stroke="black" d="M202.07,-167.59C211.16,-164.75 221.43,-161.89 231,-160 393.6,-127.93 446.11,-171.83 603.84,-125.67"/>
<polygon fill="black" stroke="black" points="605.31,-128.88 613.88,-122.65 603.3,-122.18 605.31,-128.88"/>
<g id="a_edge29&#45;headlabel"><a xlink:href="dir_000024_000000.html" target="_top" xlink:title="11">
<text text-anchor="middle" x="602.69" y="-130.13" font-family="Helvetica,sans-Serif" font-size="10.00">11</text>
</a>
</g>
</g>
<!-- dir_f24daea2522ffa8b6dc5fa9cdf5b8f5c -->
<g id="node5" class="node">
<title>dir_f24daea2522ffa8b6dc5fa9cdf5b8f5c</title>
<g id="a_node5"><a xlink:href="dir_f24daea2522ffa8b6dc5fa9cdf5b8f5c.html" target="_top" xlink:title="fs">
<polygon fill="white" stroke="red" points="90,-196 36,-196 36,-160 90,-160 90,-196"/>
<text text-anchor="middle" x="63" y="-175.5" font-family="Helvetica,sans-Serif" font-size="10.00">fs</text>
</a>
</g>
</g>
<!-- dir_f24daea2522ffa8b6dc5fa9cdf5b8f5c&#45;&gt;dir_9be0baa3d4a3e9f480a9ee70594037fa -->
<g id="edge25" class="edge">
<title>dir_f24daea2522ffa8b6dc5fa9cdf5b8f5c&#45;&gt;dir_9be0baa3d4a3e9f480a9ee70594037fa</title>
<path fill="none" stroke="black" d="M90.23,-165.36C94.8,-163.51 99.52,-161.65 104,-160 146.88,-144.17 196.99,-128.25 230.21,-118.05"/>
<polygon fill="black" stroke="black" points="231.41,-121.35 239.95,-115.08 229.37,-114.65 231.41,-121.35"/>
<g id="a_edge25&#45;headlabel"><a xlink:href="dir_000035_000211.html" target="_top" xlink:title="144">
<text text-anchor="middle" x="228.8" y="-122.61" font-family="Helvetica,sans-Serif" font-size="10.00">144</text>
</a>
</g>
</g>
<!-- dir_40ac35421bc63b72c26b6c69b1517fd6 -->
<g id="node12" class="node">
<title>dir_40ac35421bc63b72c26b6c69b1517fd6</title>
<g id="a_node12"><a xlink:href="dir_40ac35421bc63b72c26b6c69b1517fd6.html" target="_top" xlink:title="system">
<polygon fill="white" stroke="red" points="294,-52 240,-52 240,-16 294,-16 294,-52"/>
<text text-anchor="middle" x="267" y="-31.5" font-family="Helvetica,sans-Serif" font-size="10.00">system</text>
</a>
</g>
</g>
<!-- dir_f24daea2522ffa8b6dc5fa9cdf5b8f5c&#45;&gt;dir_40ac35421bc63b72c26b6c69b1517fd6 -->
<g id="edge27" class="edge">
<title>dir_f24daea2522ffa8b6dc5fa9cdf5b8f5c&#45;&gt;dir_40ac35421bc63b72c26b6c69b1517fd6</title>
<path fill="none" stroke="black" d="M87.61,-159.87C124.21,-134.39 193.08,-86.45 234.02,-57.96"/>
<polygon fill="black" stroke="black" points="236.1,-60.77 242.31,-52.19 232.1,-55.03 236.1,-60.77"/>
<g id="a_edge27&#45;headlabel"><a xlink:href="dir_000035_000086.html" target="_top" xlink:title="3">
<text text-anchor="middle" x="234.77" y="-62.66" font-family="Helvetica,sans-Serif" font-size="10.00">3</text>
</a>
</g>
</g>
<!-- dir_f24daea2522ffa8b6dc5fa9cdf5b8f5c&#45;&gt;dir_bdd9a5d540de89e9fe90efdfc6973a4f -->
<g id="edge26" class="edge">
<title>dir_f24daea2522ffa8b6dc5fa9cdf5b8f5c&#45;&gt;dir_bdd9a5d540de89e9fe90efdfc6973a4f</title>
<path fill="none" stroke="black" d="M90.26,-169.9C104.66,-166.41 122.69,-162.44 139,-160 343.3,-129.51 406.72,-182.08 604.09,-125.55"/>
<polygon fill="black" stroke="black" points="605.28,-128.85 613.89,-122.68 603.31,-122.13 605.28,-128.85"/>
<g id="a_edge26&#45;headlabel"><a xlink:href="dir_000035_000000.html" target="_top" xlink:title="9">
<text text-anchor="middle" x="602.62" y="-130.08" font-family="Helvetica,sans-Serif" font-size="10.00">9</text>
</a>
</g>
</g>
<!-- dir_b6763ea08a8f9364194ebe3565e6b1f0 -->
<g id="node6" class="node">
<title>dir_b6763ea08a8f9364194ebe3565e6b1f0</title>
<g id="a_node6"><a xlink:href="dir_b6763ea08a8f9364194ebe3565e6b1f0.html" target="_top" xlink:title="hdd">
<polygon fill="white" stroke="red" points="214,-268 160,-268 160,-232 214,-232 214,-268"/>
<text text-anchor="middle" x="187" y="-247.5" font-family="Helvetica,sans-Serif" font-size="10.00">hdd</text>
</a>
</g>
</g>
<!-- dir_b6763ea08a8f9364194ebe3565e6b1f0&#45;&gt;dir_6f16cad81de2453a6f48c5e272ba4a18 -->
<g id="edge17" class="edge">
<title>dir_b6763ea08a8f9364194ebe3565e6b1f0&#45;&gt;dir_6f16cad81de2453a6f48c5e272ba4a18</title>
<path fill="none" stroke="black" d="M184.03,-231.7C182.71,-223.98 181.12,-214.71 179.65,-206.11"/>
<polygon fill="black" stroke="black" points="183.07,-205.37 177.93,-196.1 176.17,-206.55 183.07,-205.37"/>
<g id="a_edge17&#45;headlabel"><a xlink:href="dir_000050_000024.html" target="_top" xlink:title="10">
<text text-anchor="middle" x="186.48" y="-205.93" font-family="Helvetica,sans-Serif" font-size="10.00">10</text>
</a>
</g>
</g>
<!-- dir_b6763ea08a8f9364194ebe3565e6b1f0&#45;&gt;dir_9be0baa3d4a3e9f480a9ee70594037fa -->
<g id="edge16" class="edge">
<title>dir_b6763ea08a8f9364194ebe3565e6b1f0&#45;&gt;dir_9be0baa3d4a3e9f480a9ee70594037fa</title>
<path fill="none" stroke="black" d="M166.3,-231.72C146.91,-213.37 123.1,-183.79 139,-160 159.08,-129.95 199.7,-116.91 229.82,-111.28"/>
<polygon fill="black" stroke="black" points="230.7,-114.68 239.98,-109.57 229.54,-107.77 230.7,-114.68"/>
<g id="a_edge16&#45;headlabel"><a xlink:href="dir_000050_000211.html" target="_top" xlink:title="62">
<text text-anchor="middle" x="227.62" y="-115.57" font-family="Helvetica,sans-Serif" font-size="10.00">62</text>
</a>
</g>
</g>
<!-- dir_b6763ea08a8f9364194ebe3565e6b1f0&#45;&gt;dir_bdd9a5d540de89e9fe90efdfc6973a4f -->
<g id="edge15" class="edge">
<title>dir_b6763ea08a8f9364194ebe3565e6b1f0&#45;&gt;dir_bdd9a5d540de89e9fe90efdfc6973a4f</title>
<path fill="none" stroke="black" d="M214.13,-234.94C217.07,-233.8 220.06,-232.78 223,-232 272.01,-218.96 643.58,-233.25 678,-196 694.69,-177.93 680.02,-151.27 664.49,-131.84"/>
<polygon fill="black" stroke="black" points="667,-129.38 657.87,-124 661.65,-133.9 667,-129.38"/>
<g id="a_edge15&#45;headlabel"><a xlink:href="dir_000050_000000.html" target="_top" xlink:title="36">
<text text-anchor="middle" x="671.49" y="-127.8" font-family="Helvetica,sans-Serif" font-size="10.00">36</text>
</a>
</g>
</g>
<!-- dir_fc941b9cdd19bfc53379effb1dbc42b0 -->
<g id="node7" class="node">
<title>dir_fc941b9cdd19bfc53379effb1dbc42b0</title>
<g id="a_node7"><a xlink:href="dir_fc941b9cdd19bfc53379effb1dbc42b0.html" target="_top" xlink:title="iLink">
<polygon fill="white" stroke="red" points="142,-268 88,-268 88,-232 142,-232 142,-268"/>
<text text-anchor="middle" x="115" y="-247.5" font-family="Helvetica,sans-Serif" font-size="10.00">iLink</text>
</a>
</g>
</g>
<!-- dir_fc941b9cdd19bfc53379effb1dbc42b0&#45;&gt;dir_f24daea2522ffa8b6dc5fa9cdf5b8f5c -->
<g id="edge14" class="edge">
<title>dir_fc941b9cdd19bfc53379effb1dbc42b0&#45;&gt;dir_f24daea2522ffa8b6dc5fa9cdf5b8f5c</title>
<path fill="none" stroke="black" d="M102.15,-231.7C95.97,-223.39 88.46,-213.28 81.68,-204.14"/>
<polygon fill="black" stroke="black" points="84.48,-202.04 75.71,-196.1 78.86,-206.22 84.48,-202.04"/>
<g id="a_edge14&#45;headlabel"><a xlink:href="dir_000055_000035.html" target="_top" xlink:title="2">
<text text-anchor="middle" x="88.9" y="-200.74" font-family="Helvetica,sans-Serif" font-size="10.00">2</text>
</a>
</g>
</g>
<!-- dir_fc941b9cdd19bfc53379effb1dbc42b0&#45;&gt;dir_9be0baa3d4a3e9f480a9ee70594037fa -->
<g id="edge13" class="edge">
<title>dir_fc941b9cdd19bfc53379effb1dbc42b0&#45;&gt;dir_9be0baa3d4a3e9f480a9ee70594037fa</title>
<path fill="none" stroke="black" d="M113.2,-231.91C112.1,-212.35 113.36,-180.4 130,-160 154.48,-130 198.11,-116.94 229.57,-111.28"/>
<polygon fill="black" stroke="black" points="230.42,-114.69 239.73,-109.63 229.29,-107.78 230.42,-114.69"/>
<g id="a_edge13&#45;headlabel"><a xlink:href="dir_000055_000211.html" target="_top" xlink:title="117">
<text text-anchor="middle" x="227.32" y="-115.57" font-family="Helvetica,sans-Serif" font-size="10.00">117</text>
</a>
</g>
</g>
<!-- dir_fc941b9cdd19bfc53379effb1dbc42b0&#45;&gt;dir_bdd9a5d540de89e9fe90efdfc6973a4f -->
<g id="edge12" class="edge">
<title>dir_fc941b9cdd19bfc53379effb1dbc42b0&#45;&gt;dir_bdd9a5d540de89e9fe90efdfc6973a4f</title>
<path fill="none" stroke="black" d="M142.12,-234.93C145.07,-233.78 148.06,-232.77 151,-232 203.69,-218.13 602.69,-235.7 640,-196 655.16,-179.87 653.66,-153.92 649.41,-134.2"/>
<polygon fill="black" stroke="black" points="652.75,-133.11 646.93,-124.26 645.95,-134.81 652.75,-133.11"/>
<g id="a_edge12&#45;headlabel"><a xlink:href="dir_000055_000000.html" target="_top" xlink:title="12">
<text text-anchor="middle" x="656.37" y="-133.41" font-family="Helvetica,sans-Serif" font-size="10.00">12</text>
</a>
</g>
</g>
<!-- dir_9be0baa3d4a3e9f480a9ee70594037fa&#45;&gt;dir_40ac35421bc63b72c26b6c69b1517fd6 -->
<g id="edge1" class="edge">
<title>dir_9be0baa3d4a3e9f480a9ee70594037fa&#45;&gt;dir_40ac35421bc63b72c26b6c69b1517fd6</title>
<path fill="none" stroke="black" d="M261.08,-87.7C260.29,-79.98 260.06,-70.71 260.4,-62.11"/>
<polygon fill="black" stroke="black" points="263.9,-62.32 261.1,-52.1 256.92,-61.84 263.9,-62.32"/>
<g id="a_edge1&#45;headlabel"><a xlink:href="dir_000211_000086.html" target="_top" xlink:title="2">
<text text-anchor="middle" x="266.48" y="-63.61" font-family="Helvetica,sans-Serif" font-size="10.00">2</text>
</a>
</g>
</g>
<!-- dir_9be0baa3d4a3e9f480a9ee70594037fa&#45;&gt;dir_bdd9a5d540de89e9fe90efdfc6973a4f -->
<g id="edge2" class="edge">
<title>dir_9be0baa3d4a3e9f480a9ee70594037fa&#45;&gt;dir_bdd9a5d540de89e9fe90efdfc6973a4f</title>
<path fill="none" stroke="black" d="M294.03,-106C397.21,-106 500.4,-106 603.58,-106"/>
<polygon fill="black" stroke="black" points="603.89,-109.5 613.89,-106 603.89,-102.5 603.89,-109.5"/>
<g id="a_edge2&#45;headlabel"><a xlink:href="dir_000211_000000.html" target="_top" xlink:title="12">
<text text-anchor="middle" x="600.3" y="-109.84" font-family="Helvetica,sans-Serif" font-size="10.00">12</text>
</a>
</g>
</g>
<!-- dir_5805bfcfbe100e4767f47461b3e6402b -->
<g id="node9" class="node">
<title>dir_5805bfcfbe100e4767f47461b3e6402b</title>
<g id="a_node9"><a xlink:href="dir_5805bfcfbe100e4767f47461b3e6402b.html" target="_top" xlink:title="memorycard">
<polygon fill="white" stroke="red" points="526,-196 456,-196 456,-160 526,-160 526,-196"/>
<text text-anchor="middle" x="491" y="-175.5" font-family="Helvetica,sans-Serif" font-size="10.00">memorycard</text>
</a>
</g>
</g>
<!-- dir_5805bfcfbe100e4767f47461b3e6402b&#45;&gt;dir_9be0baa3d4a3e9f480a9ee70594037fa -->
<g id="edge9" class="edge">
<title>dir_5805bfcfbe100e4767f47461b3e6402b&#45;&gt;dir_9be0baa3d4a3e9f480a9ee70594037fa</title>
<path fill="none" stroke="black" d="M455.55,-163.02C452.67,-161.97 449.79,-160.95 447,-160 397.94,-143.33 340.36,-126.92 303.79,-116.88"/>
<polygon fill="black" stroke="black" points="304.62,-113.48 294.05,-114.22 302.78,-120.23 304.62,-113.48"/>
<g id="a_edge9&#45;headlabel"><a xlink:href="dir_000062_000211.html" target="_top" xlink:title="39">
<text text-anchor="middle" x="308.84" y="-109.18" font-family="Helvetica,sans-Serif" font-size="10.00">39</text>
</a>
</g>
</g>
<!-- dir_5805bfcfbe100e4767f47461b3e6402b&#45;&gt;dir_40ac35421bc63b72c26b6c69b1517fd6 -->
<g id="edge11" class="edge">
<title>dir_5805bfcfbe100e4767f47461b3e6402b&#45;&gt;dir_40ac35421bc63b72c26b6c69b1517fd6</title>
<path fill="none" stroke="black" d="M463.98,-159.87C423.62,-134.28 347.53,-86.05 302.66,-57.6"/>
<polygon fill="black" stroke="black" points="304.44,-54.59 294.12,-52.19 300.69,-60.5 304.44,-54.59"/>
<g id="a_edge11&#45;headlabel"><a xlink:href="dir_000062_000086.html" target="_top" xlink:title="1">
<text text-anchor="middle" x="308.99" y="-51.61" font-family="Helvetica,sans-Serif" font-size="10.00">1</text>
</a>
</g>
</g>
<!-- dir_5805bfcfbe100e4767f47461b3e6402b&#45;&gt;dir_bdd9a5d540de89e9fe90efdfc6973a4f -->
<g id="edge10" class="edge">
<title>dir_5805bfcfbe100e4767f47461b3e6402b&#45;&gt;dir_bdd9a5d540de89e9fe90efdfc6973a4f</title>
<path fill="none" stroke="black" d="M526.24,-162.21C547.78,-152.97 576.04,-140.5 604.46,-126.68"/>
<polygon fill="black" stroke="black" points="606.25,-129.69 613.68,-122.14 603.16,-123.41 606.25,-129.69"/>
<g id="a_edge10&#45;headlabel"><a xlink:href="dir_000062_000000.html" target="_top" xlink:title="3">
<text text-anchor="middle" x="604.28" y="-131.33" font-family="Helvetica,sans-Serif" font-size="10.00">3</text>
</a>
</g>
</g>
<!-- dir_f89050b4b7ba0179c2c7efd2300413d9 -->
<g id="node10" class="node">
<title>dir_f89050b4b7ba0179c2c7efd2300413d9</title>
<g id="a_node10"><a xlink:href="dir_f89050b4b7ba0179c2c7efd2300413d9.html" target="_top" xlink:title="network">
<polygon fill="white" stroke="red" points="286,-268 232,-268 232,-232 286,-232 286,-268"/>
<text text-anchor="middle" x="259" y="-247.5" font-family="Helvetica,sans-Serif" font-size="10.00">network</text>
</a>
</g>
</g>
<!-- dir_f89050b4b7ba0179c2c7efd2300413d9&#45;&gt;dir_6f16cad81de2453a6f48c5e272ba4a18 -->
<g id="edge22" class="edge">
<title>dir_f89050b4b7ba0179c2c7efd2300413d9&#45;&gt;dir_6f16cad81de2453a6f48c5e272ba4a18</title>
<path fill="none" stroke="black" d="M238.24,-231.7C227.76,-222.97 214.89,-212.24 203.5,-202.75"/>
<polygon fill="black" stroke="black" points="205.45,-199.82 195.53,-196.1 200.97,-205.19 205.45,-199.82"/>
<g id="a_edge22&#45;headlabel"><a xlink:href="dir_000067_000024.html" target="_top" xlink:title="3">
<text text-anchor="middle" x="210.03" y="-197.44" font-family="Helvetica,sans-Serif" font-size="10.00">3</text>
</a>
</g>
</g>
<!-- dir_f89050b4b7ba0179c2c7efd2300413d9&#45;&gt;dir_9be0baa3d4a3e9f480a9ee70594037fa -->
<g id="edge23" class="edge">
<title>dir_f89050b4b7ba0179c2c7efd2300413d9&#45;&gt;dir_9be0baa3d4a3e9f480a9ee70594037fa</title>
<path fill="none" stroke="black" d="M247.11,-231.72C240.99,-221.76 234.16,-208.73 231,-196 227.15,-180.47 226.3,-175.29 231,-160 234.01,-150.22 239.51,-140.62 245.32,-132.33"/>
<polygon fill="black" stroke="black" points="248.19,-134.33 251.39,-124.23 242.59,-130.13 248.19,-134.33"/>
<g id="a_edge23&#45;headlabel"><a xlink:href="dir_000067_000211.html" target="_top" xlink:title="123">
<text text-anchor="middle" x="248.31" y="-136.41" font-family="Helvetica,sans-Serif" font-size="10.00">123</text>
</a>
</g>
</g>
<!-- dir_f89050b4b7ba0179c2c7efd2300413d9&#45;&gt;dir_bdd9a5d540de89e9fe90efdfc6973a4f -->
<g id="edge24" class="edge">
<title>dir_f89050b4b7ba0179c2c7efd2300413d9&#45;&gt;dir_bdd9a5d540de89e9fe90efdfc6973a4f</title>
<path fill="none" stroke="black" d="M286.1,-245.98C384.07,-235.04 714.19,-198.03 716,-196 726.64,-184.05 723.36,-174.21 716,-160 707.68,-143.94 692.01,-131.7 677.13,-123.06"/>
<polygon fill="black" stroke="black" points="678.5,-119.82 668.04,-118.14 675.17,-125.98 678.5,-119.82"/>
<g id="a_edge24&#45;headlabel"><a xlink:href="dir_000067_000000.html" target="_top" xlink:title="27">
<text text-anchor="middle" x="683.01" y="-116.53" font-family="Helvetica,sans-Serif" font-size="10.00">27</text>
</a>
</g>
</g>
<!-- dir_838e88315325ec0d843359dcae22d639 -->
<g id="node11" class="node">
<title>dir_838e88315325ec0d843359dcae22d639</title>
<g id="a_node11"><a xlink:href="dir_838e88315325ec0d843359dcae22d639.html" target="_top" xlink:title="sound">
<polygon fill="white" stroke="red" points="438,-196 384,-196 384,-160 438,-160 438,-196"/>
<text text-anchor="middle" x="411" y="-175.5" font-family="Helvetica,sans-Serif" font-size="10.00">sound</text>
</a>
</g>
</g>
<!-- dir_838e88315325ec0d843359dcae22d639&#45;&gt;dir_9be0baa3d4a3e9f480a9ee70594037fa -->
<g id="edge18" class="edge">
<title>dir_838e88315325ec0d843359dcae22d639&#45;&gt;dir_9be0baa3d4a3e9f480a9ee70594037fa</title>
<path fill="none" stroke="black" d="M383.91,-163.83C361.23,-152.81 328.64,-136.97 303.63,-124.81"/>
<polygon fill="black" stroke="black" points="304.98,-121.57 294.45,-120.35 301.92,-127.87 304.98,-121.57"/>
<g id="a_edge18&#45;headlabel"><a xlink:href="dir_000077_000211.html" target="_top" xlink:title="105">
<text text-anchor="middle" x="309.45" y="-118.09" font-family="Helvetica,sans-Serif" font-size="10.00">105</text>
</a>
</g>
</g>
<!-- dir_838e88315325ec0d843359dcae22d639&#45;&gt;dir_bdd9a5d540de89e9fe90efdfc6973a4f -->
<g id="edge19" class="edge">
<title>dir_838e88315325ec0d843359dcae22d639&#45;&gt;dir_bdd9a5d540de89e9fe90efdfc6973a4f</title>
<path fill="none" stroke="black" d="M438.25,-163.36C441.17,-162.13 444.12,-160.98 447,-160 514.05,-137.09 538.36,-148.91 604.24,-125.93"/>
<polygon fill="black" stroke="black" points="605.61,-129.16 613.82,-122.45 603.22,-122.58 605.61,-129.16"/>
<g id="a_edge19&#45;headlabel"><a xlink:href="dir_000077_000000.html" target="_top" xlink:title="2">
<text text-anchor="middle" x="603.2" y="-130.55" font-family="Helvetica,sans-Serif" font-size="10.00">2</text>
</a>
</g>
</g>
<!-- dir_40ac35421bc63b72c26b6c69b1517fd6&#45;&gt;dir_9be0baa3d4a3e9f480a9ee70594037fa -->
<g id="edge3" class="edge">
<title>dir_40ac35421bc63b72c26b6c69b1517fd6&#45;&gt;dir_9be0baa3d4a3e9f480a9ee70594037fa</title>
<path fill="none" stroke="black" d="M272.9,-52.1C273.7,-59.79 273.94,-69.05 273.6,-77.67"/>
<polygon fill="black" stroke="black" points="270.11,-77.48 272.92,-87.7 277.09,-77.96 270.11,-77.48"/>
<g id="a_edge3&#45;headlabel"><a xlink:href="dir_000086_000211.html" target="_top" xlink:title="176">
<text text-anchor="middle" x="267.52" y="-71.2" font-family="Helvetica,sans-Serif" font-size="10.00">176</text>
</a>
</g>
</g>
<!-- dir_40ac35421bc63b72c26b6c69b1517fd6&#45;&gt;dir_bdd9a5d540de89e9fe90efdfc6973a4f -->
<g id="edge4" class="edge">
<title>dir_40ac35421bc63b72c26b6c69b1517fd6&#45;&gt;dir_bdd9a5d540de89e9fe90efdfc6973a4f</title>
<path fill="none" stroke="black" d="M294.45,-36.02C352.01,-38.83 489.25,-49.05 604.21,-86.24"/>
<polygon fill="black" stroke="black" points="603.26,-89.61 613.85,-89.44 605.47,-82.97 603.26,-89.61"/>
<g id="a_edge4&#45;headlabel"><a xlink:href="dir_000086_000000.html" target="_top" xlink:title="3">
<text text-anchor="middle" x="598.95" y="-88.68" font-family="Helvetica,sans-Serif" font-size="10.00">3</text>
</a>
</g>
</g>
<!-- dir_cb38d55d28446d14702541320714f23c -->
<g id="node13" class="node">
<title>dir_cb38d55d28446d14702541320714f23c</title>
<g id="a_node13"><a xlink:href="dir_cb38d55d28446d14702541320714f23c.html" target="_top" xlink:title="tcpip">
<polygon fill="white" stroke="red" points="366,-196 312,-196 312,-160 366,-160 366,-196"/>
<text text-anchor="middle" x="339" y="-175.5" font-family="Helvetica,sans-Serif" font-size="10.00">tcpip</text>
</a>
</g>
</g>
<!-- dir_cb38d55d28446d14702541320714f23c&#45;&gt;dir_9be0baa3d4a3e9f480a9ee70594037fa -->
<g id="edge7" class="edge">
<title>dir_cb38d55d28446d14702541320714f23c&#45;&gt;dir_9be0baa3d4a3e9f480a9ee70594037fa</title>
<path fill="none" stroke="black" d="M321.2,-159.7C312.4,-151.14 301.62,-140.66 292,-131.3"/>
<polygon fill="black" stroke="black" points="294.2,-128.57 284.59,-124.1 289.32,-133.58 294.2,-128.57"/>
<g id="a_edge7&#45;headlabel"><a xlink:href="dir_000105_000211.html" target="_top" xlink:title="53">
<text text-anchor="middle" x="298.76" y="-126.54" font-family="Helvetica,sans-Serif" font-size="10.00">53</text>
</a>
</g>
</g>
<!-- dir_cb38d55d28446d14702541320714f23c&#45;&gt;dir_bdd9a5d540de89e9fe90efdfc6973a4f -->
<g id="edge8" class="edge">
<title>dir_cb38d55d28446d14702541320714f23c&#45;&gt;dir_bdd9a5d540de89e9fe90efdfc6973a4f</title>
<path fill="none" stroke="black" d="M366.19,-163.16C369.12,-161.97 372.09,-160.89 375,-160 472.89,-130.08 507.75,-156.18 604.31,-125.69"/>
<polygon fill="black" stroke="black" points="605.44,-129 613.85,-122.56 603.26,-122.35 605.44,-129"/>
<g id="a_edge8&#45;headlabel"><a xlink:href="dir_000105_000000.html" target="_top" xlink:title="5">
<text text-anchor="middle" x="602.91" y="-130.32" font-family="Helvetica,sans-Serif" font-size="10.00">5</text>
</a>
</g>
</g>
<!-- dir_b6c875632944d243a548db157cd77ec2 -->
<g id="node14" class="node">
<title>dir_b6c875632944d243a548db157cd77ec2</title>
<g id="a_node14"><a xlink:href="dir_b6c875632944d243a548db157cd77ec2.html" target="_top" xlink:title="usb">
<polygon fill="white" stroke="red" points="70,-268 16,-268 16,-232 70,-232 70,-268"/>
<text text-anchor="middle" x="43" y="-247.5" font-family="Helvetica,sans-Serif" font-size="10.00">usb</text>
</a>
</g>
</g>
<!-- dir_b6c875632944d243a548db157cd77ec2&#45;&gt;dir_f24daea2522ffa8b6dc5fa9cdf5b8f5c -->
<g id="edge33" class="edge">
<title>dir_b6c875632944d243a548db157cd77ec2&#45;&gt;dir_f24daea2522ffa8b6dc5fa9cdf5b8f5c</title>
<path fill="none" stroke="black" d="M47.94,-231.7C50.17,-223.9 52.85,-214.51 55.33,-205.83"/>
<polygon fill="black" stroke="black" points="58.73,-206.68 58.11,-196.1 52,-204.76 58.73,-206.68"/>
<g id="a_edge33&#45;headlabel"><a xlink:href="dir_000112_000035.html" target="_top" xlink:title="2">
<text text-anchor="middle" x="60.47" y="-208.42" font-family="Helvetica,sans-Serif" font-size="10.00">2</text>
</a>
</g>
</g>
<!-- dir_b6c875632944d243a548db157cd77ec2&#45;&gt;dir_9be0baa3d4a3e9f480a9ee70594037fa -->
<g id="edge31" class="edge">
<title>dir_b6c875632944d243a548db157cd77ec2&#45;&gt;dir_9be0baa3d4a3e9f480a9ee70594037fa</title>
<path fill="none" stroke="black" d="M32.77,-231.97C22.54,-212.47 10.48,-180.56 27,-160 52.01,-128.87 168.74,-114.93 229.71,-109.68"/>
<polygon fill="black" stroke="black" points="230.02,-113.17 239.7,-108.86 229.44,-106.19 230.02,-113.17"/>
<g id="a_edge31&#45;headlabel"><a xlink:href="dir_000112_000211.html" target="_top" xlink:title="149">
<text text-anchor="middle" x="226.67" y="-113.79" font-family="Helvetica,sans-Serif" font-size="10.00">149</text>
</a>
</g>
</g>
<!-- dir_b6c875632944d243a548db157cd77ec2&#45;&gt;dir_bdd9a5d540de89e9fe90efdfc6973a4f -->
<g id="edge32" class="edge">
<title>dir_b6c875632944d243a548db157cd77ec2&#45;&gt;dir_bdd9a5d540de89e9fe90efdfc6973a4f</title>
<path fill="none" stroke="black" d="M70.12,-234.91C73.06,-233.77 76.06,-232.77 79,-232 192.81,-202.38 512.46,-265.95 607,-196 626.36,-181.67 634.7,-154.85 638.29,-134.38"/>
<polygon fill="black" stroke="black" points="641.77,-134.76 639.76,-124.36 634.84,-133.74 641.77,-134.76"/>
<g id="a_edge32&#45;headlabel"><a xlink:href="dir_000112_000000.html" target="_top" xlink:title="12">
<text text-anchor="middle" x="644.05" y="-136.23" font-family="Helvetica,sans-Serif" font-size="10.00">12</text>
</a>
</g>
</g>
<!-- dir_bdd9a5d540de89e9fe90efdfc6973a4f&#45;&gt;dir_9be0baa3d4a3e9f480a9ee70594037fa -->
<g id="edge30" class="edge">
<title>dir_bdd9a5d540de89e9fe90efdfc6973a4f&#45;&gt;dir_9be0baa3d4a3e9f480a9ee70594037fa</title>
<path fill="none" stroke="black" d="M613.89,-106C510.71,-106 407.52,-106 304.34,-106"/>
<polygon fill="black" stroke="black" points="304.03,-102.5 294.03,-106 304.03,-109.5 304.03,-102.5"/>
<g id="a_edge30&#45;headlabel"><a xlink:href="dir_000000_000211.html" target="_top" xlink:title="20">
<text text-anchor="middle" x="307.62" y="-97.16" font-family="Helvetica,sans-Serif" font-size="10.00">20</text>
</a>
</g>
</g>
</g>
</svg>
