<?xml version="1.0" encoding="UTF-8" standalone="no"?>
<!DOCTYPE svg PUBLIC "-//W3C//DTD SVG 1.1//EN"
 "http://www.w3.org/Graphics/SVG/1.1/DTD/svg11.dtd">
<!-- Generated by graphviz version 2.46.1 (20210215.1649)
 -->
<!-- Title: ee/network Pages: 1 -->
<svg width="329pt" height="303pt"
 viewBox="0.00 0.00 329.31 303.00" xmlns="http://www.w3.org/2000/svg" xmlns:xlink="http://www.w3.org/1999/xlink">
<g id="graph0" class="graph" transform="scale(1 1) rotate(0) translate(4 299)">
<title>ee/network</title>
<polygon fill="white" stroke="transparent" points="-4,4 -4,-299 325.31,-299 325.31,4 -4,4"/>
<g id="clust1" class="cluster">
<title>clusterdir_049738f1909e8dc3e45fe1f6b3faa109</title>
<g id="a_clust1"><a xlink:href="dir_049738f1909e8dc3e45fe1f6b3faa109.html" target="_top" xlink:title="ee">
<polygon fill="#ddddee" stroke="black" points="8,-64 8,-287 238,-287 238,-64 8,-64"/>
<text text-anchor="middle" x="123" y="-275" font-family="Helvetica,sans-Serif" font-size="10.00">ee</text>
</a>
</g>
</g>
<g id="clust2" class="cluster">
<title>clusterdir_b47d22a23da27aa98d6e01bcdbde3243</title>
<g id="a_clust2"><a xlink:href="dir_b47d22a23da27aa98d6e01bcdbde3243.html" target="_top">
<polygon fill="#eeeeff" stroke="black" points="16,-208 16,-260 230,-260 230,-208 16,-208"/>
</a>
</g>
</g>
<!-- dir_694ec83a64f58cbdefbefce65cd1011c -->
<g id="node1" class="node">
<title>dir_694ec83a64f58cbdefbefce65cd1011c</title>
<g id="a_node1"><a xlink:href="dir_694ec83a64f58cbdefbefce65cd1011c.html" target="_top" xlink:title="kernel">
<polygon fill="white" stroke="red" points="177,-180 123,-180 123,-144 177,-144 177,-180"/>
<text text-anchor="middle" x="150" y="-159.5" font-family="Helvetica,sans-Serif" font-size="10.00">kernel</text>
</a>
</g>
</g>
<!-- dir_a0a8ac7efb6662b749c1285408048e6d -->
<g id="node2" class="node">
<title>dir_a0a8ac7efb6662b749c1285408048e6d</title>
<g id="a_node2"><a xlink:href="dir_a0a8ac7efb6662b749c1285408048e6d.html" target="_top" xlink:title="erl">
<polygon fill="white" stroke="red" points="139,-108 85,-108 85,-72 139,-72 139,-108"/>
<text text-anchor="middle" x="112" y="-87.5" font-family="Helvetica,sans-Serif" font-size="10.00">erl</text>
</a>
</g>
</g>
<!-- dir_694ec83a64f58cbdefbefce65cd1011c&#45;&gt;dir_a0a8ac7efb6662b749c1285408048e6d -->
<g id="edge14" class="edge">
<title>dir_694ec83a64f58cbdefbefce65cd1011c&#45;&gt;dir_a0a8ac7efb6662b749c1285408048e6d</title>
<path fill="none" stroke="black" d="M140.61,-143.7C136.24,-135.64 130.94,-125.89 126.1,-116.98"/>
<polygon fill="black" stroke="black" points="129.13,-115.22 121.29,-108.1 122.98,-118.56 129.13,-115.22"/>
<g id="a_edge14&#45;headlabel"><a xlink:href="dir_000140_000203.html" target="_top" xlink:title="1">
<text text-anchor="middle" x="133.34" y="-114.53" font-family="Helvetica,sans-Serif" font-size="10.00">1</text>
</a>
</g>
</g>
<!-- dir_bdd9a5d540de89e9fe90efdfc6973a4f -->
<g id="node6" class="node">
<title>dir_bdd9a5d540de89e9fe90efdfc6973a4f</title>
<g id="a_node6"><a xlink:href="dir_bdd9a5d540de89e9fe90efdfc6973a4f.html" target="_top" xlink:title="common">
<polygon fill="white" stroke="red" points="300,-108 246,-108 246,-72 300,-72 300,-108"/>
<text text-anchor="middle" x="273" y="-87.5" font-family="Helvetica,sans-Serif" font-size="10.00">common</text>
</a>
</g>
</g>
<!-- dir_694ec83a64f58cbdefbefce65cd1011c&#45;&gt;dir_bdd9a5d540de89e9fe90efdfc6973a4f -->
<g id="edge12" class="edge">
<title>dir_694ec83a64f58cbdefbefce65cd1011c&#45;&gt;dir_bdd9a5d540de89e9fe90efdfc6973a4f</title>
<path fill="none" stroke="black" d="M174.19,-143.88C192.06,-133.07 216.51,-119.14 236.69,-108.3"/>
<polygon fill="black" stroke="black" points="238.43,-111.34 245.61,-103.56 235.14,-105.16 238.43,-111.34"/>
<g id="a_edge12&#45;headlabel"><a xlink:href="dir_000140_000000.html" target="_top" xlink:title="24">
<text text-anchor="middle" x="236.58" y="-113.03" font-family="Helvetica,sans-Serif" font-size="10.00">24</text>
</a>
</g>
</g>
<!-- dir_0981ace215aa2029f526b70c145b9fbe -->
<g id="node7" class="node">
<title>dir_0981ace215aa2029f526b70c145b9fbe</title>
<g id="a_node7"><a xlink:href="dir_0981ace215aa2029f526b70c145b9fbe.html" target="_top" xlink:title="iop">
<polygon fill="white" stroke="red" points="270,-36 216,-36 216,0 270,0 270,-36"/>
<text text-anchor="middle" x="243" y="-15.5" font-family="Helvetica,sans-Serif" font-size="10.00">iop</text>
</a>
</g>
</g>
<!-- dir_694ec83a64f58cbdefbefce65cd1011c&#45;&gt;dir_0981ace215aa2029f526b70c145b9fbe -->
<g id="edge13" class="edge">
<title>dir_694ec83a64f58cbdefbefce65cd1011c&#45;&gt;dir_0981ace215aa2029f526b70c145b9fbe</title>
<path fill="none" stroke="black" d="M154.69,-143.66C160.78,-123.26 172.83,-88.99 191,-64 196.62,-56.27 203.81,-48.98 211.04,-42.6"/>
<polygon fill="black" stroke="black" points="213.42,-45.17 218.82,-36.06 208.91,-39.81 213.42,-45.17"/>
<g id="a_edge13&#45;headlabel"><a xlink:href="dir_000140_000011.html" target="_top" xlink:title="5">
<text text-anchor="middle" x="212.49" y="-47.16" font-family="Helvetica,sans-Serif" font-size="10.00">5</text>
</a>
</g>
</g>
<!-- dir_a0a8ac7efb6662b749c1285408048e6d&#45;&gt;dir_bdd9a5d540de89e9fe90efdfc6973a4f -->
<g id="edge1" class="edge">
<title>dir_a0a8ac7efb6662b749c1285408048e6d&#45;&gt;dir_bdd9a5d540de89e9fe90efdfc6973a4f</title>
<path fill="none" stroke="black" d="M139.04,-90C171.29,-90 203.54,-90 235.78,-90"/>
<polygon fill="black" stroke="black" points="235.79,-93.5 245.79,-90 235.79,-86.5 235.79,-93.5"/>
<g id="a_edge1&#45;headlabel"><a xlink:href="dir_000203_000000.html" target="_top" xlink:title="1">
<text text-anchor="middle" x="232.2" y="-93.84" font-family="Helvetica,sans-Serif" font-size="10.00">1</text>
</a>
</g>
</g>
<!-- dir_a0a8ac7efb6662b749c1285408048e6d&#45;&gt;dir_0981ace215aa2029f526b70c145b9fbe -->
<g id="edge2" class="edge">
<title>dir_a0a8ac7efb6662b749c1285408048e6d&#45;&gt;dir_0981ace215aa2029f526b70c145b9fbe</title>
<path fill="none" stroke="black" d="M139.16,-72C143.74,-69.26 148.48,-66.5 153,-64 170.38,-54.38 190.07,-44.43 206.59,-36.34"/>
<polygon fill="black" stroke="black" points="208.45,-39.33 215.91,-31.81 205.39,-33.03 208.45,-39.33"/>
<g id="a_edge2&#45;headlabel"><a xlink:href="dir_000203_000011.html" target="_top" xlink:title="2">
<text text-anchor="middle" x="206.46" y="-40.95" font-family="Helvetica,sans-Serif" font-size="10.00">2</text>
</a>
</g>
</g>
<!-- dir_b47d22a23da27aa98d6e01bcdbde3243 -->
<g id="node3" class="node">
<title>dir_b47d22a23da27aa98d6e01bcdbde3243</title>
<text text-anchor="middle" x="195" y="-231.5" font-family="Helvetica,sans-Serif" font-size="10.00">network</text>
</g>
<!-- dir_2103a4ed81746d00ca3b9488f9daf9c4 -->
<g id="node4" class="node">
<title>dir_2103a4ed81746d00ca3b9488f9daf9c4</title>
<g id="a_node4"><a xlink:href="dir_2103a4ed81746d00ca3b9488f9daf9c4.html" target="_top" xlink:title="netman">
<polygon fill="white" stroke="red" points="78,-252 24,-252 24,-216 78,-216 78,-252"/>
<text text-anchor="middle" x="51" y="-231.5" font-family="Helvetica,sans-Serif" font-size="10.00">netman</text>
</a>
</g>
</g>
<!-- dir_2103a4ed81746d00ca3b9488f9daf9c4&#45;&gt;dir_694ec83a64f58cbdefbefce65cd1011c -->
<g id="edge9" class="edge">
<title>dir_2103a4ed81746d00ca3b9488f9daf9c4&#45;&gt;dir_694ec83a64f58cbdefbefce65cd1011c</title>
<path fill="none" stroke="black" d="M75.22,-215.88C87.92,-206.89 103.66,-195.76 117.42,-186.03"/>
<polygon fill="black" stroke="black" points="119.54,-188.82 125.69,-180.19 115.5,-183.11 119.54,-188.82"/>
<g id="a_edge9&#45;headlabel"><a xlink:href="dir_000151_000140.html" target="_top" xlink:title="3">
<text text-anchor="middle" x="118.25" y="-190.71" font-family="Helvetica,sans-Serif" font-size="10.00">3</text>
</a>
</g>
</g>
<!-- dir_2103a4ed81746d00ca3b9488f9daf9c4&#45;&gt;dir_a0a8ac7efb6662b749c1285408048e6d -->
<g id="edge7" class="edge">
<title>dir_2103a4ed81746d00ca3b9488f9daf9c4&#45;&gt;dir_a0a8ac7efb6662b749c1285408048e6d</title>
<path fill="none" stroke="black" d="M58.36,-215.87C68.85,-191.46 88.19,-146.43 100.56,-117.64"/>
<polygon fill="black" stroke="black" points="103.88,-118.76 104.62,-108.19 97.45,-116 103.88,-118.76"/>
<g id="a_edge7&#45;headlabel"><a xlink:href="dir_000151_000203.html" target="_top" xlink:title="1">
<text text-anchor="middle" x="105.07" y="-120.68" font-family="Helvetica,sans-Serif" font-size="10.00">1</text>
</a>
</g>
</g>
<!-- dir_2103a4ed81746d00ca3b9488f9daf9c4&#45;&gt;dir_bdd9a5d540de89e9fe90efdfc6973a4f -->
<g id="edge8" class="edge">
<title>dir_2103a4ed81746d00ca3b9488f9daf9c4&#45;&gt;dir_bdd9a5d540de89e9fe90efdfc6973a4f</title>
<path fill="none" stroke="black" d="M72.65,-215.93C77.2,-212.94 82.11,-210.11 87,-208 142.05,-184.2 170.09,-214.71 219,-180 240.66,-164.63 255.25,-137.58 263.74,-117.32"/>
<polygon fill="black" stroke="black" points="267,-118.59 267.43,-108 260.5,-116.01 267,-118.59"/>
<g id="a_edge8&#45;headlabel"><a xlink:href="dir_000151_000000.html" target="_top" xlink:title="9">
<text text-anchor="middle" x="268.32" y="-120.48" font-family="Helvetica,sans-Serif" font-size="10.00">9</text>
</a>
</g>
</g>
<!-- dir_2103a4ed81746d00ca3b9488f9daf9c4&#45;&gt;dir_0981ace215aa2029f526b70c145b9fbe -->
<g id="edge10" class="edge">
<title>dir_2103a4ed81746d00ca3b9488f9daf9c4&#45;&gt;dir_0981ace215aa2029f526b70c145b9fbe</title>
<path fill="none" stroke="black" d="M73.14,-215.88C77.57,-212.97 82.31,-210.18 87,-208 130.41,-187.83 156.33,-213 191,-180 210.52,-161.42 228.78,-86.73 237.55,-45.94"/>
<polygon fill="black" stroke="black" points="240.98,-46.62 239.62,-36.11 234.13,-45.18 240.98,-46.62"/>
<g id="a_edge10&#45;headlabel"><a xlink:href="dir_000151_000011.html" target="_top" xlink:title="1">
<text text-anchor="middle" x="243.02" y="-48.22" font-family="Helvetica,sans-Serif" font-size="10.00">1</text>
</a>
</g>
</g>
<!-- dir_ca24a423c1b235320d00c488564f2476 -->
<g id="node5" class="node">
<title>dir_ca24a423c1b235320d00c488564f2476</title>
<g id="a_node5"><a xlink:href="dir_ca24a423c1b235320d00c488564f2476.html" target="_top" xlink:title="tcpip">
<polygon fill="white" stroke="red" points="150,-252 96,-252 96,-216 150,-216 150,-252"/>
<text text-anchor="middle" x="123" y="-231.5" font-family="Helvetica,sans-Serif" font-size="10.00">tcpip</text>
</a>
</g>
</g>
<!-- dir_ca24a423c1b235320d00c488564f2476&#45;&gt;dir_694ec83a64f58cbdefbefce65cd1011c -->
<g id="edge4" class="edge">
<title>dir_ca24a423c1b235320d00c488564f2476&#45;&gt;dir_694ec83a64f58cbdefbefce65cd1011c</title>
<path fill="none" stroke="black" d="M129.67,-215.7C132.71,-207.81 136.38,-198.3 139.76,-189.55"/>
<polygon fill="black" stroke="black" points="143.07,-190.69 143.4,-180.1 136.54,-188.17 143.07,-190.69"/>
<g id="a_edge4&#45;headlabel"><a xlink:href="dir_000153_000140.html" target="_top" xlink:title="2">
<text text-anchor="middle" x="144.42" y="-192.57" font-family="Helvetica,sans-Serif" font-size="10.00">2</text>
</a>
</g>
</g>
<!-- dir_ca24a423c1b235320d00c488564f2476&#45;&gt;dir_a0a8ac7efb6662b749c1285408048e6d -->
<g id="edge5" class="edge">
<title>dir_ca24a423c1b235320d00c488564f2476&#45;&gt;dir_a0a8ac7efb6662b749c1285408048e6d</title>
<path fill="none" stroke="black" d="M119.44,-215.9C117.46,-205.56 115.15,-192.08 114,-180 112.03,-159.36 111.57,-135.91 111.59,-118.27"/>
<polygon fill="black" stroke="black" points="115.09,-118.13 111.65,-108.11 108.09,-118.08 115.09,-118.13"/>
<g id="a_edge5&#45;headlabel"><a xlink:href="dir_000153_000203.html" target="_top" xlink:title="1">
<text text-anchor="middle" x="117.91" y="-119.24" font-family="Helvetica,sans-Serif" font-size="10.00">1</text>
</a>
</g>
</g>
<!-- dir_ca24a423c1b235320d00c488564f2476&#45;&gt;dir_bdd9a5d540de89e9fe90efdfc6973a4f -->
<g id="edge6" class="edge">
<title>dir_ca24a423c1b235320d00c488564f2476&#45;&gt;dir_bdd9a5d540de89e9fe90efdfc6973a4f</title>
<path fill="none" stroke="black" d="M145.16,-215.94C149.59,-213.02 154.32,-210.22 159,-208 199.93,-188.6 226.62,-213.6 257,-180 272.01,-163.4 275.27,-137.68 275.2,-118.15"/>
<polygon fill="black" stroke="black" points="278.7,-117.91 274.88,-108.03 271.7,-118.14 278.7,-117.91"/>
<g id="a_edge6&#45;headlabel"><a xlink:href="dir_000153_000000.html" target="_top" xlink:title="3">
<text text-anchor="middle" x="281.65" y="-118.92" font-family="Helvetica,sans-Serif" font-size="10.00">3</text>
</a>
</g>
</g>
<!-- dir_ca24a423c1b235320d00c488564f2476&#45;&gt;dir_0981ace215aa2029f526b70c145b9fbe -->
<g id="edge3" class="edge">
<title>dir_ca24a423c1b235320d00c488564f2476&#45;&gt;dir_0981ace215aa2029f526b70c145b9fbe</title>
<path fill="none" stroke="black" d="M145.08,-215.76C149.52,-212.86 154.27,-210.11 159,-208 208.63,-185.89 236.36,-214.91 278,-180 318.9,-145.72 333.94,-111.18 309,-64 302.44,-51.59 290.75,-41.96 279.02,-34.85"/>
<polygon fill="black" stroke="black" points="280.56,-31.7 270.12,-29.9 277.16,-37.82 280.56,-31.7"/>
<g id="a_edge3&#45;headlabel"><a xlink:href="dir_000153_000011.html" target="_top" xlink:title="4">
<text text-anchor="middle" x="285.08" y="-28.47" font-family="Helvetica,sans-Serif" font-size="10.00">4</text>
</a>
</g>
</g>
<!-- dir_bdd9a5d540de89e9fe90efdfc6973a4f&#45;&gt;dir_694ec83a64f58cbdefbefce65cd1011c -->
<g id="edge16" class="edge">
<title>dir_bdd9a5d540de89e9fe90efdfc6973a4f&#45;&gt;dir_694ec83a64f58cbdefbefce65cd1011c</title>
<path fill="none" stroke="black" d="M248.78,-108.14C230.9,-118.96 206.41,-132.9 186.24,-143.74"/>
<polygon fill="black" stroke="black" points="184.5,-140.7 177.31,-148.49 187.78,-146.89 184.5,-140.7"/>
<g id="a_edge16&#45;headlabel"><a xlink:href="dir_000000_000140.html" target="_top" xlink:title="1">
<text text-anchor="middle" x="186.34" y="-134.01" font-family="Helvetica,sans-Serif" font-size="10.00">1</text>
</a>
</g>
</g>
<!-- dir_bdd9a5d540de89e9fe90efdfc6973a4f&#45;&gt;dir_0981ace215aa2029f526b70c145b9fbe -->
<g id="edge15" class="edge">
<title>dir_bdd9a5d540de89e9fe90efdfc6973a4f&#45;&gt;dir_0981ace215aa2029f526b70c145b9fbe</title>
<path fill="none" stroke="black" d="M259.67,-71.7C255.48,-63.81 251.18,-54.3 247.81,-45.55"/>
<polygon fill="black" stroke="black" points="251.09,-44.35 244.44,-36.1 244.5,-46.7 251.09,-44.35"/>
<g id="a_edge15&#45;headlabel"><a xlink:href="dir_000000_000011.html" target="_top" xlink:title="20">
<text text-anchor="middle" x="254.98" y="-44.28" font-family="Helvetica,sans-Serif" font-size="10.00">20</text>
</a>
</g>
</g>
<!-- dir_0981ace215aa2029f526b70c145b9fbe&#45;&gt;dir_bdd9a5d540de89e9fe90efdfc6973a4f -->
<g id="edge11" class="edge">
<title>dir_0981ace215aa2029f526b70c145b9fbe&#45;&gt;dir_bdd9a5d540de89e9fe90efdfc6973a4f</title>
<path fill="none" stroke="black" d="M256.23,-36.1C260.42,-43.96 264.72,-53.46 268.11,-62.23"/>
<polygon fill="black" stroke="black" points="264.83,-63.46 271.5,-71.7 271.42,-61.1 264.83,-63.46"/>
<g id="a_edge11&#45;headlabel"><a xlink:href="dir_000011_000000.html" target="_top" xlink:title="156">
<text text-anchor="middle" x="260.95" y="-58.54" font-family="Helvetica,sans-Serif" font-size="10.00">156</text>
</a>
</g>
</g>
</g>
</svg>
