<?xml version="1.0" encoding="UTF-8" standalone="no"?>
<!DOCTYPE svg PUBLIC "-//W3C//DTD SVG 1.1//EN"
 "http://www.w3.org/Graphics/SVG/1.1/DTD/svg11.dtd">
<!-- Generated by graphviz version 2.46.1 (20210215.1649)
 -->
<!-- Title: iop/usb/usbd/src/driver.c Pages: 1 -->
<!--zoomable 364 -->
<svg id="main" version="1.1" xmlns="http://www.w3.org/2000/svg" xmlns:xlink="http://www.w3.org/1999/xlink" xml:space="preserve" onload="init(evt)">
<style type="text/css"><![CDATA[
.edge:hover path { stroke: red; }
.edge:hover polygon { stroke: red; fill: red; }
]]></style>
<script type="text/javascript"><![CDATA[
var edges = document.getElementsByTagName('g');
if (edges && edges.length) {
  for (var i=0;i<edges.length;i++) {
    if (edges[i].id.substr(0,4)=='edge') {
      edges[i].setAttribute('class','edge');
    }
  }
}
]]></script>
        <defs>
                <circle id="rim" cx="0" cy="0" r="7"/>
                <circle id="rim2" cx="0" cy="0" r="3.5"/>
                <g id="zoomPlus">
                        <use xlink:href="#rim" fill="#404040">
                                <set attributeName="fill" to="#808080" begin="zoomplus.mouseover" end="zoomplus.mouseout"/>
                        </use>
                        <path d="M-4,0h8M0,-4v8" fill="none" stroke="white" stroke-width="1.5" pointer-events="none"/>
                </g>
                <g id="zoomMin">
                        <use xlink:href="#rim" fill="#404040">
                                <set attributeName="fill" to="#808080" begin="zoomminus.mouseover" end="zoomminus.mouseout"/>
                        </use>
                        <path d="M-4,0h8" fill="none" stroke="white" stroke-width="1.5" pointer-events="none"/>
                </g>
                <g id="dirArrow">
                        <path fill="none" stroke="white" stroke-width="1.5" d="M0,-3.0v7 M-2.5,-0.5L0,-3.0L2.5,-0.5"/>
                </g>
               <g id="resetDef">
                       <use xlink:href="#rim2" fill="#404040">
                               <set attributeName="fill" to="#808080" begin="reset.mouseover" end="reset.mouseout"/>
                       </use>
               </g>
        </defs>

<script type="text/javascript">
var viewWidth = 529;
var viewHeight = 364;
var sectionId = 'dynsection-0';
</script>
<script xlink:href="svgpan.js"/>
<svg id="graph" class="graph">
<g id="viewport">
<title>iop/usb/usbd/src/driver.c</title>
<polygon fill="white" stroke="transparent" points="-4,4 -4,-360 525,-360 525,4 -4,4"/>
<!-- Node1 -->
<g id="node1" class="node">
<title>Node1</title>
<g id="a_node1"><a xlink:title=" ">
<polygon fill="#bfbfbf" stroke="black" points="193.5,-336.5 193.5,-355.5 316.5,-355.5 316.5,-336.5 193.5,-336.5"/>
<text text-anchor="middle" x="255" y="-343.5" font-family="Helvetica,sans-Serif" font-size="10.00">iop/usb/usbd/src/driver.c</text>
</a>
</g>
</g>
<!-- Node2 -->
<g id="node2" class="node">
<title>Node2</title>
<g id="a_node2"><a xlink:href="usbdpriv_8h.html" target="_top" xlink:title=" ">
<polygon fill="white" stroke="black" points="65.5,-224.5 65.5,-243.5 126.5,-243.5 126.5,-224.5 65.5,-224.5"/>
<text text-anchor="middle" x="96" y="-231.5" font-family="Helvetica,sans-Serif" font-size="10.00">usbdpriv.h</text>
</a>
</g>
</g>
<!-- Node1&#45;&gt;Node2 -->
<g id="edge1" class="edge">
<title>Node1&#45;&gt;Node2</title>
<path fill="none" stroke="midnightblue" d="M225.76,-336.39C203.81,-329.01 173.75,-316.88 151,-300 133.08,-286.7 117.17,-266.49 107.13,-252.14"/>
<polygon fill="midnightblue" stroke="midnightblue" points="109.92,-250.01 101.42,-243.69 104.12,-253.93 109.92,-250.01"/>
</g>
<!-- Node9 -->
<g id="node9" class="node">
<title>Node9</title>
<g id="a_node9"><a xlink:href="driver_8h.html" target="_top" xlink:title=" ">
<polygon fill="white" stroke="black" points="160,-280.5 160,-299.5 208,-299.5 208,-280.5 160,-280.5"/>
<text text-anchor="middle" x="184" y="-287.5" font-family="Helvetica,sans-Serif" font-size="10.00">driver.h</text>
</a>
</g>
</g>
<!-- Node1&#45;&gt;Node9 -->
<g id="edge9" class="edge">
<title>Node1&#45;&gt;Node9</title>
<path fill="none" stroke="midnightblue" d="M243.59,-336.32C232.89,-328.18 216.66,-315.84 203.84,-306.09"/>
<polygon fill="midnightblue" stroke="midnightblue" points="205.69,-303.1 195.61,-299.83 201.46,-308.67 205.69,-303.1"/>
</g>
<!-- Node10 -->
<g id="node10" class="node">
<title>Node10</title>
<g id="a_node10"><a xlink:href="mem_8h.html" target="_top" xlink:title=" ">
<polygon fill="white" stroke="black" points="0,-280.5 0,-299.5 46,-299.5 46,-280.5 0,-280.5"/>
<text text-anchor="middle" x="23" y="-287.5" font-family="Helvetica,sans-Serif" font-size="10.00">mem.h</text>
</a>
</g>
</g>
<!-- Node1&#45;&gt;Node10 -->
<g id="edge11" class="edge">
<title>Node1&#45;&gt;Node10</title>
<path fill="none" stroke="midnightblue" d="M214.25,-336.49C175.78,-328.31 116.29,-315.28 55.75,-300.09"/>
<polygon fill="midnightblue" stroke="midnightblue" points="56.59,-296.69 46.03,-297.63 54.87,-303.48 56.59,-296.69"/>
</g>
<!-- Node11 -->
<g id="node11" class="node">
<title>Node11</title>
<g id="a_node11"><a xlink:href="hub_8h.html" target="_top" xlink:title=" ">
<polygon fill="white" stroke="black" points="64,-280.5 64,-299.5 104,-299.5 104,-280.5 64,-280.5"/>
<text text-anchor="middle" x="84" y="-287.5" font-family="Helvetica,sans-Serif" font-size="10.00">hub.h</text>
</a>
</g>
</g>
<!-- Node1&#45;&gt;Node11 -->
<g id="edge13" class="edge">
<title>Node1&#45;&gt;Node11</title>
<path fill="none" stroke="midnightblue" d="M227.9,-336.44C196.8,-326.62 145.95,-310.56 113.77,-300.4"/>
<polygon fill="midnightblue" stroke="midnightblue" points="114.61,-297 104.02,-297.32 112.5,-303.67 114.61,-297"/>
</g>
<!-- Node12 -->
<g id="node12" class="node">
<title>Node12</title>
<g id="a_node12"><a xlink:href="defs_8h.html" target="_top" xlink:title=" ">
<polygon fill="white" stroke="black" points="407.5,-224.5 407.5,-243.5 450.5,-243.5 450.5,-224.5 407.5,-224.5"/>
<text text-anchor="middle" x="429" y="-231.5" font-family="Helvetica,sans-Serif" font-size="10.00">defs.h</text>
</a>
</g>
</g>
<!-- Node1&#45;&gt;Node12 -->
<g id="edge15" class="edge">
<title>Node1&#45;&gt;Node12</title>
<path fill="none" stroke="midnightblue" d="M297.43,-336.5C323.41,-329.76 356.29,-318.35 381,-300 397.84,-287.49 411.38,-267.43 419.73,-252.9"/>
<polygon fill="midnightblue" stroke="midnightblue" points="422.93,-254.33 424.66,-243.88 416.79,-250.97 422.93,-254.33"/>
</g>
<!-- Node13 -->
<g id="node13" class="node">
<title>Node13</title>
<g id="a_node13"><a xlink:href="stdio_8h.html" target="_top" xlink:title=" ">
<polygon fill="white" stroke="black" points="218.5,-168.5 218.5,-187.5 263.5,-187.5 263.5,-168.5 218.5,-168.5"/>
<text text-anchor="middle" x="241" y="-175.5" font-family="Helvetica,sans-Serif" font-size="10.00">stdio.h</text>
</a>
</g>
</g>
<!-- Node1&#45;&gt;Node13 -->
<g id="edge17" class="edge">
<title>Node1&#45;&gt;Node13</title>
<path fill="none" stroke="midnightblue" d="M255.1,-336.45C255.24,-316.62 255.03,-265.96 250,-224 248.94,-215.19 247.1,-205.53 245.36,-197.42"/>
<polygon fill="midnightblue" stroke="midnightblue" points="248.75,-196.54 243.13,-187.56 241.92,-198.09 248.75,-196.54"/>
</g>
<!-- Node15 -->
<g id="node15" class="node">
<title>Node15</title>
<g id="a_node15"><a xlink:href="sysclib_8h.html" target="_top" xlink:title=" ">
<polygon fill="white" stroke="black" points="146,-168.5 146,-187.5 200,-187.5 200,-168.5 146,-168.5"/>
<text text-anchor="middle" x="173" y="-175.5" font-family="Helvetica,sans-Serif" font-size="10.00">sysclib.h</text>
</a>
</g>
</g>
<!-- Node1&#45;&gt;Node15 -->
<g id="edge20" class="edge">
<title>Node1&#45;&gt;Node15</title>
<path fill="none" stroke="midnightblue" d="M250.59,-336.08C237.57,-309.72 199.12,-231.88 181.72,-196.66"/>
<polygon fill="midnightblue" stroke="midnightblue" points="184.8,-194.98 177.23,-187.57 178.52,-198.08 184.8,-194.98"/>
</g>
<!-- Node17 -->
<g id="node17" class="node">
<title>Node17</title>
<g id="a_node17"><a xlink:href="thbase_8h.html" target="_top" xlink:title=" ">
<polygon fill="white" stroke="black" points="281.5,-168.5 281.5,-187.5 334.5,-187.5 334.5,-168.5 281.5,-168.5"/>
<text text-anchor="middle" x="308" y="-175.5" font-family="Helvetica,sans-Serif" font-size="10.00">thbase.h</text>
</a>
</g>
</g>
<!-- Node1&#45;&gt;Node17 -->
<g id="edge26" class="edge">
<title>Node1&#45;&gt;Node17</title>
<path fill="none" stroke="midnightblue" d="M257.85,-336.08C266.23,-309.83 290.9,-232.55 302.22,-197.12"/>
<polygon fill="midnightblue" stroke="midnightblue" points="305.56,-198.16 305.26,-187.57 298.89,-196.03 305.56,-198.16"/>
</g>
<!-- Node18 -->
<g id="node18" class="node">
<title>Node18</title>
<g id="a_node18"><a xlink:href="thevent_8h.html" target="_top" xlink:title=" ">
<polygon fill="white" stroke="black" points="353,-168.5 353,-187.5 409,-187.5 409,-168.5 353,-168.5"/>
<text text-anchor="middle" x="381" y="-175.5" font-family="Helvetica,sans-Serif" font-size="10.00">thevent.h</text>
</a>
</g>
</g>
<!-- Node1&#45;&gt;Node18 -->
<g id="edge29" class="edge">
<title>Node1&#45;&gt;Node18</title>
<path fill="none" stroke="midnightblue" d="M261.77,-336.08C281.95,-309.49 341.88,-230.54 368.28,-195.76"/>
<polygon fill="midnightblue" stroke="midnightblue" points="371.24,-197.65 374.5,-187.57 365.66,-193.42 371.24,-197.65"/>
</g>
<!-- Node19 -->
<g id="node19" class="node">
<title>Node19</title>
<g id="a_node19"><a xlink:href="intrman_8h.html" target="_top" xlink:title=" ">
<polygon fill="white" stroke="black" points="465,-168.5 465,-187.5 521,-187.5 521,-168.5 465,-168.5"/>
<text text-anchor="middle" x="493" y="-175.5" font-family="Helvetica,sans-Serif" font-size="10.00">intrman.h</text>
</a>
</g>
</g>
<!-- Node1&#45;&gt;Node19 -->
<g id="edge32" class="edge">
<title>Node1&#45;&gt;Node19</title>
<path fill="none" stroke="midnightblue" d="M304.47,-336.45C334.74,-329.71 373.39,-318.32 404,-300 434.2,-281.92 439.33,-272.49 460,-244 470.66,-229.31 479.73,-210.67 485.65,-197.13"/>
<polygon fill="midnightblue" stroke="midnightblue" points="488.88,-198.48 489.54,-187.91 482.43,-195.76 488.88,-198.48"/>
</g>
<!-- Node3 -->
<g id="node3" class="node">
<title>Node3</title>
<g id="a_node3"><a xlink:href="usbd_8h.html" target="_top" xlink:title=" ">
<polygon fill="white" stroke="black" points="82.5,-168.5 82.5,-187.5 127.5,-187.5 127.5,-168.5 82.5,-168.5"/>
<text text-anchor="middle" x="105" y="-175.5" font-family="Helvetica,sans-Serif" font-size="10.00">usbd.h</text>
</a>
</g>
</g>
<!-- Node2&#45;&gt;Node3 -->
<g id="edge2" class="edge">
<title>Node2&#45;&gt;Node3</title>
<path fill="none" stroke="midnightblue" d="M97.49,-224.08C98.68,-216.93 100.39,-206.64 101.88,-197.69"/>
<polygon fill="midnightblue" stroke="midnightblue" points="105.35,-198.19 103.54,-187.75 98.45,-197.04 105.35,-198.19"/>
</g>
<!-- Node4 -->
<g id="node4" class="node">
<title>Node4</title>
<g id="a_node4"><a xlink:title=" ">
<polygon fill="white" stroke="#bfbfbf" points="52.5,-112.5 52.5,-131.5 99.5,-131.5 99.5,-112.5 52.5,-112.5"/>
<text text-anchor="middle" x="76" y="-119.5" font-family="Helvetica,sans-Serif" font-size="10.00">types.h</text>
</a>
</g>
</g>
<!-- Node2&#45;&gt;Node4 -->
<g id="edge8" class="edge">
<title>Node2&#45;&gt;Node4</title>
<path fill="none" stroke="midnightblue" d="M89.9,-224.19C84.25,-215.46 76.24,-201.48 73,-188 69.32,-172.71 70.53,-154.83 72.4,-141.69"/>
<polygon fill="midnightblue" stroke="midnightblue" points="75.9,-142 74.11,-131.56 68.99,-140.84 75.9,-142"/>
</g>
<!-- Node3&#45;&gt;Node4 -->
<g id="edge3" class="edge">
<title>Node3&#45;&gt;Node4</title>
<path fill="none" stroke="midnightblue" d="M100.21,-168.08C96.24,-160.69 90.47,-149.95 85.57,-140.81"/>
<polygon fill="midnightblue" stroke="midnightblue" points="88.51,-138.91 80.7,-131.75 82.35,-142.22 88.51,-138.91"/>
</g>
<!-- Node5 -->
<g id="node5" class="node">
<title>Node5</title>
<g id="a_node5"><a xlink:href="irx_8h.html" target="_top" xlink:title=" ">
<polygon fill="white" stroke="black" points="283,-112.5 283,-131.5 317,-131.5 317,-112.5 283,-112.5"/>
<text text-anchor="middle" x="300" y="-119.5" font-family="Helvetica,sans-Serif" font-size="10.00">irx.h</text>
</a>
</g>
</g>
<!-- Node3&#45;&gt;Node5 -->
<g id="edge4" class="edge">
<title>Node3&#45;&gt;Node5</title>
<path fill="none" stroke="midnightblue" d="M127.71,-170.57C130.83,-169.7 133.99,-168.82 137,-168 197.32,-151.54 213.09,-149.9 273,-132 273.1,-131.97 273.2,-131.94 273.3,-131.91"/>
<polygon fill="midnightblue" stroke="midnightblue" points="274.43,-135.22 282.91,-128.88 272.32,-128.55 274.43,-135.22"/>
</g>
<!-- Node6 -->
<g id="node6" class="node">
<title>Node6</title>
<g id="a_node6"><a xlink:href="types_8h_source.html" target="_top" xlink:title=" ">
<polygon fill="white" stroke="black" points="321.5,-56.5 321.5,-75.5 368.5,-75.5 368.5,-56.5 321.5,-56.5"/>
<text text-anchor="middle" x="345" y="-63.5" font-family="Helvetica,sans-Serif" font-size="10.00">types.h</text>
</a>
</g>
</g>
<!-- Node5&#45;&gt;Node6 -->
<g id="edge5" class="edge">
<title>Node5&#45;&gt;Node6</title>
<path fill="none" stroke="midnightblue" d="M307.43,-112.08C313.85,-104.38 323.31,-93.03 331.12,-83.65"/>
<polygon fill="midnightblue" stroke="midnightblue" points="333.99,-85.67 337.71,-75.75 328.62,-81.19 333.99,-85.67"/>
</g>
<!-- Node7 -->
<g id="node7" class="node">
<title>Node7</title>
<g id="a_node7"><a xlink:title=" ">
<polygon fill="white" stroke="#bfbfbf" points="319.5,-0.5 319.5,-19.5 370.5,-19.5 370.5,-0.5 319.5,-0.5"/>
<text text-anchor="middle" x="345" y="-7.5" font-family="Helvetica,sans-Serif" font-size="10.00">stddef.h</text>
</a>
</g>
</g>
<!-- Node6&#45;&gt;Node7 -->
<g id="edge6" class="edge">
<title>Node6&#45;&gt;Node7</title>
<path fill="none" stroke="midnightblue" d="M345,-56.08C345,-49.01 345,-38.86 345,-29.99"/>
<polygon fill="midnightblue" stroke="midnightblue" points="348.5,-29.75 345,-19.75 341.5,-29.75 348.5,-29.75"/>
</g>
<!-- Node8 -->
<g id="node8" class="node">
<title>Node8</title>
<g id="a_node8"><a xlink:href="tamtypes_8h.html" target="_top" xlink:title=" ">
<polygon fill="white" stroke="black" points="207,-0.5 207,-19.5 271,-19.5 271,-0.5 207,-0.5"/>
<text text-anchor="middle" x="239" y="-7.5" font-family="Helvetica,sans-Serif" font-size="10.00">tamtypes.h</text>
</a>
</g>
</g>
<!-- Node6&#45;&gt;Node8 -->
<g id="edge7" class="edge">
<title>Node6&#45;&gt;Node8</title>
<path fill="none" stroke="midnightblue" d="M327.97,-56.32C310.97,-47.66 284.62,-34.24 265.01,-24.25"/>
<polygon fill="midnightblue" stroke="midnightblue" points="266.49,-21.08 255.99,-19.65 263.31,-27.31 266.49,-21.08"/>
</g>
<!-- Node9&#45;&gt;Node2 -->
<g id="edge10" class="edge">
<title>Node9&#45;&gt;Node2</title>
<path fill="none" stroke="midnightblue" d="M169.86,-280.32C156.13,-271.9 135.06,-258.97 118.94,-249.07"/>
<polygon fill="midnightblue" stroke="midnightblue" points="120.46,-245.9 110.1,-243.65 116.8,-251.87 120.46,-245.9"/>
</g>
<!-- Node10&#45;&gt;Node2 -->
<g id="edge12" class="edge">
<title>Node10&#45;&gt;Node2</title>
<path fill="none" stroke="midnightblue" d="M34.73,-280.32C45.84,-272.11 62.74,-259.6 75.98,-249.81"/>
<polygon fill="midnightblue" stroke="midnightblue" points="78.1,-252.59 84.06,-243.83 73.94,-246.97 78.1,-252.59"/>
</g>
<!-- Node11&#45;&gt;Node2 -->
<g id="edge14" class="edge">
<title>Node11&#45;&gt;Node2</title>
<path fill="none" stroke="midnightblue" d="M85.98,-280.08C87.57,-272.93 89.86,-262.64 91.85,-253.69"/>
<polygon fill="midnightblue" stroke="midnightblue" points="95.3,-254.27 94.06,-243.75 88.47,-252.75 95.3,-254.27"/>
</g>
<!-- Node12&#45;&gt;Node6 -->
<g id="edge16" class="edge">
<title>Node12&#45;&gt;Node6</title>
<path fill="none" stroke="midnightblue" d="M428.77,-224.24C428.16,-211.42 425.96,-187 418,-168 404.02,-134.63 377.15,-101.75 360.2,-82.97"/>
<polygon fill="midnightblue" stroke="midnightblue" points="362.75,-80.57 353.4,-75.6 357.61,-85.32 362.75,-80.57"/>
</g>
<!-- Node13&#45;&gt;Node5 -->
<g id="edge19" class="edge">
<title>Node13&#45;&gt;Node5</title>
<path fill="none" stroke="midnightblue" d="M250.48,-168.32C259.2,-160.34 272.34,-148.31 282.9,-138.65"/>
<polygon fill="midnightblue" stroke="midnightblue" points="285.33,-141.17 290.35,-131.83 280.61,-136 285.33,-141.17"/>
</g>
<!-- Node14 -->
<g id="node14" class="node">
<title>Node14</title>
<g id="a_node14"><a xlink:title=" ">
<polygon fill="white" stroke="#bfbfbf" points="213.5,-112.5 213.5,-131.5 264.5,-131.5 264.5,-112.5 213.5,-112.5"/>
<text text-anchor="middle" x="239" y="-119.5" font-family="Helvetica,sans-Serif" font-size="10.00">stdarg.h</text>
</a>
</g>
</g>
<!-- Node13&#45;&gt;Node14 -->
<g id="edge18" class="edge">
<title>Node13&#45;&gt;Node14</title>
<path fill="none" stroke="midnightblue" d="M240.67,-168.08C240.41,-161.01 240.03,-150.86 239.7,-141.99"/>
<polygon fill="midnightblue" stroke="midnightblue" points="243.19,-141.61 239.32,-131.75 236.2,-141.87 243.19,-141.61"/>
</g>
<!-- Node15&#45;&gt;Node5 -->
<g id="edge22" class="edge">
<title>Node15&#45;&gt;Node5</title>
<path fill="none" stroke="midnightblue" d="M193.12,-168.44C214.88,-159.19 249.67,-144.4 273.61,-134.22"/>
<polygon fill="midnightblue" stroke="midnightblue" points="274.99,-137.44 282.82,-130.3 272.25,-131 274.99,-137.44"/>
</g>
<!-- Node15&#45;&gt;Node6 -->
<g id="edge21" class="edge">
<title>Node15&#45;&gt;Node6</title>
<path fill="none" stroke="midnightblue" d="M174.86,-168.06C178.23,-154.09 186.67,-127.12 204,-112 234.27,-85.59 280.15,-74.66 311.29,-70.14"/>
<polygon fill="midnightblue" stroke="midnightblue" points="311.77,-73.61 321.24,-68.85 310.87,-66.67 311.77,-73.61"/>
</g>
<!-- Node15&#45;&gt;Node14 -->
<g id="edge23" class="edge">
<title>Node15&#45;&gt;Node14</title>
<path fill="none" stroke="midnightblue" d="M183.6,-168.32C193.46,-160.26 208.35,-148.08 220.22,-138.37"/>
<polygon fill="midnightblue" stroke="midnightblue" points="222.68,-140.88 228.2,-131.83 218.25,-135.46 222.68,-140.88"/>
</g>
<!-- Node16 -->
<g id="node16" class="node">
<title>Node16</title>
<g id="a_node16"><a xlink:href="setjmp_8h.html" target="_top" xlink:title=" ">
<polygon fill="white" stroke="black" points="151.5,-56.5 151.5,-75.5 204.5,-75.5 204.5,-56.5 151.5,-56.5"/>
<text text-anchor="middle" x="178" y="-63.5" font-family="Helvetica,sans-Serif" font-size="10.00">setjmp.h</text>
</a>
</g>
</g>
<!-- Node15&#45;&gt;Node16 -->
<g id="edge24" class="edge">
<title>Node15&#45;&gt;Node16</title>
<path fill="none" stroke="midnightblue" d="M172.12,-168.15C171.02,-155.63 169.45,-132.04 171,-112 171.68,-103.22 173.09,-93.56 174.47,-85.45"/>
<polygon fill="midnightblue" stroke="midnightblue" points="177.92,-86.04 176.26,-75.58 171.03,-84.8 177.92,-86.04"/>
</g>
<!-- Node16&#45;&gt;Node8 -->
<g id="edge25" class="edge">
<title>Node16&#45;&gt;Node8</title>
<path fill="none" stroke="midnightblue" d="M187.8,-56.32C196.82,-48.34 210.41,-36.31 221.32,-26.65"/>
<polygon fill="midnightblue" stroke="midnightblue" points="223.85,-29.08 229.02,-19.83 219.21,-23.84 223.85,-29.08"/>
</g>
<!-- Node17&#45;&gt;Node5 -->
<g id="edge28" class="edge">
<title>Node17&#45;&gt;Node5</title>
<path fill="none" stroke="midnightblue" d="M306.68,-168.08C305.62,-160.93 304.09,-150.64 302.77,-141.69"/>
<polygon fill="midnightblue" stroke="midnightblue" points="306.22,-141.13 301.3,-131.75 299.3,-142.16 306.22,-141.13"/>
</g>
<!-- Node17&#45;&gt;Node6 -->
<g id="edge27" class="edge">
<title>Node17&#45;&gt;Node6</title>
<path fill="none" stroke="midnightblue" d="M311.7,-168.47C315.52,-159.48 321.55,-144.88 326,-132 331.34,-116.55 336.48,-98.7 340.07,-85.62"/>
<polygon fill="midnightblue" stroke="midnightblue" points="343.46,-86.48 342.69,-75.92 336.7,-84.66 343.46,-86.48"/>
</g>
<!-- Node18&#45;&gt;Node5 -->
<g id="edge31" class="edge">
<title>Node18&#45;&gt;Node5</title>
<path fill="none" stroke="midnightblue" d="M367.99,-168.32C355.47,-159.98 336.32,-147.21 321.53,-137.35"/>
<polygon fill="midnightblue" stroke="midnightblue" points="323.24,-134.29 312.98,-131.65 319.36,-140.11 323.24,-134.29"/>
</g>
<!-- Node18&#45;&gt;Node6 -->
<g id="edge30" class="edge">
<title>Node18&#45;&gt;Node6</title>
<path fill="none" stroke="midnightblue" d="M378.18,-168.37C372.34,-150.54 358.84,-109.3 350.98,-85.27"/>
<polygon fill="midnightblue" stroke="midnightblue" points="354.25,-84.01 347.81,-75.59 347.6,-86.18 354.25,-84.01"/>
</g>
<!-- Node19&#45;&gt;Node5 -->
<g id="edge34" class="edge">
<title>Node19&#45;&gt;Node5</title>
<path fill="none" stroke="midnightblue" d="M464.94,-169.15C428.02,-158.82 363.56,-140.78 327.12,-130.59"/>
<polygon fill="midnightblue" stroke="midnightblue" points="327.77,-127.14 317.2,-127.81 325.89,-133.88 327.77,-127.14"/>
</g>
<!-- Node19&#45;&gt;Node6 -->
<g id="edge33" class="edge">
<title>Node19&#45;&gt;Node6</title>
<path fill="none" stroke="midnightblue" d="M489.39,-168.24C483.34,-154.53 469.92,-127.91 451,-112 429.9,-94.26 400.78,-82.57 378.4,-75.57"/>
<polygon fill="midnightblue" stroke="midnightblue" points="379.23,-72.16 368.64,-72.67 377.24,-78.87 379.23,-72.16"/>
</g>
</g>
</svg>
        <g id="navigator" transform="translate(0 0)" fill="#404254">
                <rect fill="#f2f5e9" fill-opacity="0.5" stroke="#606060" stroke-width=".5" x="0" y="0" width="60" height="60"/>
                <use id="zoomplus" xlink:href="#zoomPlus" x="17" y="9" onmousedown="handleZoom(evt,'in')"/>
                <use id="zoomminus" xlink:href="#zoomMin" x="42" y="9" onmousedown="handleZoom(evt,'out')"/>
                <use id="reset" xlink:href="#resetDef" x="30" y="36" onmousedown="handleReset()"/>
                <g id="arrowUp" xlink:href="#dirArrow" transform="translate(30 24)" onmousedown="handlePan(0,-1)">
                  <use xlink:href="#rim" fill="#404040">
                        <set attributeName="fill" to="#808080" begin="arrowUp.mouseover" end="arrowUp.mouseout"/>
                  </use>
                  <path fill="none" stroke="white" stroke-width="1.5" d="M0,-3.0v7 M-2.5,-0.5L0,-3.0L2.5,-0.5"/>
                </g>
                <g id="arrowRight" xlink:href="#dirArrow" transform="rotate(90) translate(36 -43)" onmousedown="handlePan(1,0)">
                  <use xlink:href="#rim" fill="#404040">
                        <set attributeName="fill" to="#808080" begin="arrowRight.mouseover" end="arrowRight.mouseout"/>
                  </use>
                  <path fill="none" stroke="white" stroke-width="1.5" d="M0,-3.0v7 M-2.5,-0.5L0,-3.0L2.5,-0.5"/>
                </g>
                <g id="arrowDown" xlink:href="#dirArrow" transform="rotate(180) translate(-30 -48)" onmousedown="handlePan(0,1)">
                  <use xlink:href="#rim" fill="#404040">
                        <set attributeName="fill" to="#808080" begin="arrowDown.mouseover" end="arrowDown.mouseout"/>
                  </use>
                  <path fill="none" stroke="white" stroke-width="1.5" d="M0,-3.0v7 M-2.5,-0.5L0,-3.0L2.5,-0.5"/>
                </g>
                <g id="arrowLeft" xlink:href="#dirArrow" transform="rotate(270) translate(-36 17)" onmousedown="handlePan(-1,0)">
                  <use xlink:href="#rim" fill="#404040">
                        <set attributeName="fill" to="#808080" begin="arrowLeft.mouseover" end="arrowLeft.mouseout"/>
                  </use>
                  <path fill="none" stroke="white" stroke-width="1.5" d="M0,-3.0v7 M-2.5,-0.5L0,-3.0L2.5,-0.5"/>
                </g>
        </g>
        <svg viewBox="0 0 15 15" width="100%" height="30px" preserveAspectRatio="xMaxYMin meet">
         <g id="arrow_out" transform="scale(0.3 0.3)">
          <a xlink:href="driver_8c__incl_org.svg" target="_base">
           <rect id="button" ry="5" rx="5" y="6" x="6" height="38" width="38"
                fill="#f2f5e9" fill-opacity="0.5" stroke="#606060" stroke-width="1.0"/>
           <path id="arrow"
             d="M 11.500037,31.436501 C 11.940474,20.09759 22.043105,11.32322 32.158766,21.979434 L 37.068811,17.246167 C 37.068811,17.246167 37.088388,32 37.088388,32 L 22.160133,31.978069 C 22.160133,31.978069 26.997745,27.140456 26.997745,27.140456 C 18.528582,18.264221 13.291696,25.230495 11.500037,31.436501 z"
             style="fill:#404040;"/>
          </a>
         </g>
        </svg>
</svg>
