<?xml version="1.0" encoding="UTF-8" standalone="no"?>
<!DOCTYPE svg PUBLIC "-//W3C//DTD SVG 1.1//EN"
 "http://www.w3.org/Graphics/SVG/1.1/DTD/svg11.dtd">
<!-- Generated by graphviz version 2.46.1 (20210215.1649)
 -->
<!-- Title: ee/sbv/src/smod.c Pages: 1 -->
<svg width="658pt" height="308pt"
 viewBox="0.00 0.00 658.00 308.00" xmlns="http://www.w3.org/2000/svg" xmlns:xlink="http://www.w3.org/1999/xlink">
<g id="graph0" class="graph" transform="scale(1 1) rotate(0) translate(4 304)">
<title>ee/sbv/src/smod.c</title>
<polygon fill="white" stroke="transparent" points="-4,4 -4,-304 654,-304 654,4 -4,4"/>
<!-- Node1 -->
<g id="node1" class="node">
<title>Node1</title>
<g id="a_node1"><a xlink:title=" ">
<polygon fill="#bfbfbf" stroke="black" points="372.5,-280.5 372.5,-299.5 469.5,-299.5 469.5,-280.5 372.5,-280.5"/>
<text text-anchor="middle" x="421" y="-287.5" font-family="Helvetica,sans-Serif" font-size="10.00">ee/sbv/src/smod.c</text>
</a>
</g>
</g>
<!-- Node2 -->
<g id="node2" class="node">
<title>Node2</title>
<g id="a_node2"><a xlink:href="tamtypes_8h.html" target="_top" xlink:title=" ">
<polygon fill="white" stroke="black" points="304,-0.5 304,-19.5 368,-19.5 368,-0.5 304,-0.5"/>
<text text-anchor="middle" x="336" y="-7.5" font-family="Helvetica,sans-Serif" font-size="10.00">tamtypes.h</text>
</a>
</g>
</g>
<!-- Node1&#45;&gt;Node2 -->
<g id="edge1" class="edge">
<title>Node1&#45;&gt;Node2</title>
<path fill="none" stroke="midnightblue" d="M432.09,-280.33C452.51,-263.29 494,-223.24 494,-179 494,-179 494,-179 494,-121 494,-90.9 495.97,-77.59 475,-56 449.59,-29.85 408.89,-18.88 378.08,-14.29"/>
<polygon fill="midnightblue" stroke="midnightblue" points="378.42,-10.8 368.05,-12.96 377.5,-17.74 378.42,-10.8"/>
</g>
<!-- Node3 -->
<g id="node3" class="node">
<title>Node3</title>
<g id="a_node3"><a xlink:href="kernel_8h.html" target="_top" xlink:title=" ">
<polygon fill="white" stroke="black" points="235,-168.5 235,-187.5 285,-187.5 285,-168.5 235,-168.5"/>
<text text-anchor="middle" x="260" y="-175.5" font-family="Helvetica,sans-Serif" font-size="10.00">kernel.h</text>
</a>
</g>
</g>
<!-- Node1&#45;&gt;Node3 -->
<g id="edge2" class="edge">
<title>Node1&#45;&gt;Node3</title>
<path fill="none" stroke="midnightblue" d="M396.59,-280.49C376.15,-272.73 346.76,-260.04 324,-244 304.27,-230.1 285.36,-209.72 273.27,-195.5"/>
<polygon fill="midnightblue" stroke="midnightblue" points="275.76,-193.02 266.69,-187.55 270.37,-197.48 275.76,-193.02"/>
</g>
<!-- Node7 -->
<g id="node7" class="node">
<title>Node7</title>
<g id="a_node7"><a xlink:href="string_8h_source.html" target="_top" xlink:title=" ">
<polygon fill="white" stroke="black" points="150,-224.5 150,-243.5 198,-243.5 198,-224.5 150,-224.5"/>
<text text-anchor="middle" x="174" y="-231.5" font-family="Helvetica,sans-Serif" font-size="10.00">string.h</text>
</a>
</g>
</g>
<!-- Node1&#45;&gt;Node7 -->
<g id="edge7" class="edge">
<title>Node1&#45;&gt;Node7</title>
<path fill="none" stroke="midnightblue" d="M381.86,-280.44C333.91,-269.96 253.44,-252.37 207.97,-242.43"/>
<polygon fill="midnightblue" stroke="midnightblue" points="208.53,-238.97 198.02,-240.25 207.04,-245.81 208.53,-238.97"/>
</g>
<!-- Node12 -->
<g id="node12" class="node">
<title>Node12</title>
<g id="a_node12"><a xlink:title=" ">
<polygon fill="white" stroke="#bfbfbf" points="522,-224.5 522,-243.5 570,-243.5 570,-224.5 522,-224.5"/>
<text text-anchor="middle" x="546" y="-231.5" font-family="Helvetica,sans-Serif" font-size="10.00">sifrpc.h</text>
</a>
</g>
</g>
<!-- Node1&#45;&gt;Node12 -->
<g id="edge17" class="edge">
<title>Node1&#45;&gt;Node12</title>
<path fill="none" stroke="midnightblue" d="M440.81,-280.44C461.29,-271.6 493.48,-257.69 516.86,-247.59"/>
<polygon fill="midnightblue" stroke="midnightblue" points="518.49,-250.7 526.29,-243.52 515.72,-244.27 518.49,-250.7"/>
</g>
<!-- Node13 -->
<g id="node13" class="node">
<title>Node13</title>
<g id="a_node13"><a xlink:href="smem_8h.html" target="_top" xlink:title=" ">
<polygon fill="white" stroke="black" points="310.5,-56.5 310.5,-75.5 361.5,-75.5 361.5,-56.5 310.5,-56.5"/>
<text text-anchor="middle" x="336" y="-63.5" font-family="Helvetica,sans-Serif" font-size="10.00">smem.h</text>
</a>
</g>
</g>
<!-- Node1&#45;&gt;Node13 -->
<g id="edge18" class="edge">
<title>Node1&#45;&gt;Node13</title>
<path fill="none" stroke="midnightblue" d="M414.62,-280.3C402.51,-263.39 376.18,-224.54 362,-188 348.51,-153.24 341.36,-110.01 338.16,-85.76"/>
<polygon fill="midnightblue" stroke="midnightblue" points="341.62,-85.27 336.92,-75.78 334.68,-86.13 341.62,-85.27"/>
</g>
<!-- Node14 -->
<g id="node14" class="node">
<title>Node14</title>
<g id="a_node14"><a xlink:href="slib_8h.html" target="_top" xlink:title=" ">
<polygon fill="white" stroke="black" points="371.5,-168.5 371.5,-187.5 410.5,-187.5 410.5,-168.5 371.5,-168.5"/>
<text text-anchor="middle" x="391" y="-175.5" font-family="Helvetica,sans-Serif" font-size="10.00">slib.h</text>
</a>
</g>
</g>
<!-- Node1&#45;&gt;Node14 -->
<g id="edge20" class="edge">
<title>Node1&#45;&gt;Node14</title>
<path fill="none" stroke="midnightblue" d="M418.65,-280.37C413.78,-262.54 402.54,-221.3 395.98,-197.27"/>
<polygon fill="midnightblue" stroke="midnightblue" points="399.35,-196.32 393.34,-187.59 392.6,-198.16 399.35,-196.32"/>
</g>
<!-- Node15 -->
<g id="node15" class="node">
<title>Node15</title>
<g id="a_node15"><a xlink:href="smod_8h.html" target="_top" xlink:title=" ">
<polygon fill="white" stroke="black" points="418,-56.5 418,-75.5 466,-75.5 466,-56.5 418,-56.5"/>
<text text-anchor="middle" x="442" y="-63.5" font-family="Helvetica,sans-Serif" font-size="10.00">smod.h</text>
</a>
</g>
</g>
<!-- Node1&#45;&gt;Node15 -->
<g id="edge22" class="edge">
<title>Node1&#45;&gt;Node15</title>
<path fill="none" stroke="midnightblue" d="M421.82,-280.3C424.91,-247.63 435.86,-131.87 440.21,-85.96"/>
<polygon fill="midnightblue" stroke="midnightblue" points="443.7,-86.17 441.16,-75.88 436.73,-85.51 443.7,-86.17"/>
</g>
<!-- Node16 -->
<g id="node16" class="node">
<title>Node16</title>
<g id="a_node16"><a xlink:href="ee_2sbv_2src_2common_8h_source.html" target="_top" xlink:title=" ">
<polygon fill="white" stroke="black" points="588,-224.5 588,-243.5 650,-243.5 650,-224.5 588,-224.5"/>
<text text-anchor="middle" x="619" y="-231.5" font-family="Helvetica,sans-Serif" font-size="10.00">common.h</text>
</a>
</g>
</g>
<!-- Node1&#45;&gt;Node16 -->
<g id="edge24" class="edge">
<title>Node1&#45;&gt;Node16</title>
<path fill="none" stroke="midnightblue" d="M452.37,-280.44C486.26,-271.2 540.4,-256.44 577.72,-246.26"/>
<polygon fill="midnightblue" stroke="midnightblue" points="579.05,-249.52 587.77,-243.52 577.2,-242.77 579.05,-249.52"/>
</g>
<!-- Node4 -->
<g id="node4" class="node">
<title>Node4</title>
<g id="a_node4"><a xlink:title=" ">
<polygon fill="white" stroke="#bfbfbf" points="129.5,-0.5 129.5,-19.5 180.5,-19.5 180.5,-0.5 129.5,-0.5"/>
<text text-anchor="middle" x="155" y="-7.5" font-family="Helvetica,sans-Serif" font-size="10.00">stddef.h</text>
</a>
</g>
</g>
<!-- Node3&#45;&gt;Node4 -->
<g id="edge3" class="edge">
<title>Node3&#45;&gt;Node4</title>
<path fill="none" stroke="midnightblue" d="M254.81,-168.1C247.43,-155.52 233.44,-131.85 221,-112 202.28,-82.12 179.64,-47.86 166.33,-27.91"/>
<polygon fill="midnightblue" stroke="midnightblue" points="169.23,-25.94 160.76,-19.57 163.41,-29.83 169.23,-25.94"/>
</g>
<!-- Node5 -->
<g id="node5" class="node">
<title>Node5</title>
<g id="a_node5"><a xlink:title=" ">
<polygon fill="white" stroke="#bfbfbf" points="161.5,-112.5 161.5,-131.5 212.5,-131.5 212.5,-112.5 161.5,-112.5"/>
<text text-anchor="middle" x="187" y="-119.5" font-family="Helvetica,sans-Serif" font-size="10.00">stdarg.h</text>
</a>
</g>
</g>
<!-- Node3&#45;&gt;Node5 -->
<g id="edge4" class="edge">
<title>Node3&#45;&gt;Node5</title>
<path fill="none" stroke="midnightblue" d="M248.27,-168.32C237.16,-160.11 220.26,-147.6 207.02,-137.81"/>
<polygon fill="midnightblue" stroke="midnightblue" points="209.06,-134.97 198.94,-131.83 204.9,-140.59 209.06,-134.97"/>
</g>
<!-- Node6 -->
<g id="node6" class="node">
<title>Node6</title>
<g id="a_node6"><a xlink:href="sifdma_8h.html" target="_top" xlink:title=" ">
<polygon fill="white" stroke="black" points="239.5,-56.5 239.5,-75.5 292.5,-75.5 292.5,-56.5 239.5,-56.5"/>
<text text-anchor="middle" x="266" y="-63.5" font-family="Helvetica,sans-Serif" font-size="10.00">sifdma.h</text>
</a>
</g>
</g>
<!-- Node3&#45;&gt;Node6 -->
<g id="edge5" class="edge">
<title>Node3&#45;&gt;Node6</title>
<path fill="none" stroke="midnightblue" d="M260.47,-168.37C261.44,-150.62 263.67,-109.67 264.99,-85.6"/>
<polygon fill="midnightblue" stroke="midnightblue" points="268.48,-85.77 265.53,-75.59 261.49,-85.39 268.48,-85.77"/>
</g>
<!-- Node6&#45;&gt;Node2 -->
<g id="edge6" class="edge">
<title>Node6&#45;&gt;Node2</title>
<path fill="none" stroke="midnightblue" d="M277.25,-56.32C287.8,-48.18 303.8,-35.84 316.44,-26.09"/>
<polygon fill="midnightblue" stroke="midnightblue" points="318.77,-28.71 324.55,-19.83 314.49,-23.17 318.77,-28.71"/>
</g>
<!-- Node8 -->
<g id="node8" class="node">
<title>Node8</title>
<g id="a_node8"><a xlink:href="sysclib_8h.html" target="_top" xlink:title=" ">
<polygon fill="white" stroke="black" points="90,-168.5 90,-187.5 144,-187.5 144,-168.5 90,-168.5"/>
<text text-anchor="middle" x="117" y="-175.5" font-family="Helvetica,sans-Serif" font-size="10.00">sysclib.h</text>
</a>
</g>
</g>
<!-- Node7&#45;&gt;Node8 -->
<g id="edge8" class="edge">
<title>Node7&#45;&gt;Node8</title>
<path fill="none" stroke="midnightblue" d="M164.84,-224.32C156.5,-216.42 143.97,-204.55 133.82,-194.94"/>
<polygon fill="midnightblue" stroke="midnightblue" points="135.99,-192.17 126.32,-187.83 131.18,-197.25 135.99,-192.17"/>
</g>
<!-- Node8&#45;&gt;Node5 -->
<g id="edge14" class="edge">
<title>Node8&#45;&gt;Node5</title>
<path fill="none" stroke="midnightblue" d="M128.25,-168.32C138.8,-160.18 154.8,-147.84 167.44,-138.09"/>
<polygon fill="midnightblue" stroke="midnightblue" points="169.77,-140.71 175.55,-131.83 165.49,-135.17 169.77,-140.71"/>
</g>
<!-- Node9 -->
<g id="node9" class="node">
<title>Node9</title>
<g id="a_node9"><a xlink:href="types_8h_source.html" target="_top" xlink:title=" ">
<polygon fill="white" stroke="black" points="75.5,-56.5 75.5,-75.5 122.5,-75.5 122.5,-56.5 75.5,-56.5"/>
<text text-anchor="middle" x="99" y="-63.5" font-family="Helvetica,sans-Serif" font-size="10.00">types.h</text>
</a>
</g>
</g>
<!-- Node8&#45;&gt;Node9 -->
<g id="edge9" class="edge">
<title>Node8&#45;&gt;Node9</title>
<path fill="none" stroke="midnightblue" d="M106.84,-168.19C98.09,-159.87 86.1,-146.54 81,-132 75.44,-116.15 81.76,-97.66 88.4,-84.46"/>
<polygon fill="midnightblue" stroke="midnightblue" points="91.56,-85.97 93.34,-75.53 85.43,-82.58 91.56,-85.97"/>
</g>
<!-- Node10 -->
<g id="node10" class="node">
<title>Node10</title>
<g id="a_node10"><a xlink:href="irx_8h.html" target="_top" xlink:title=" ">
<polygon fill="white" stroke="black" points="0,-112.5 0,-131.5 34,-131.5 34,-112.5 0,-112.5"/>
<text text-anchor="middle" x="17" y="-119.5" font-family="Helvetica,sans-Serif" font-size="10.00">irx.h</text>
</a>
</g>
</g>
<!-- Node8&#45;&gt;Node10 -->
<g id="edge12" class="edge">
<title>Node8&#45;&gt;Node10</title>
<path fill="none" stroke="midnightblue" d="M100.93,-168.32C85.04,-159.74 60.49,-146.49 42.04,-136.52"/>
<polygon fill="midnightblue" stroke="midnightblue" points="43.49,-133.33 33.03,-131.65 40.16,-139.49 43.49,-133.33"/>
</g>
<!-- Node11 -->
<g id="node11" class="node">
<title>Node11</title>
<g id="a_node11"><a xlink:href="setjmp_8h.html" target="_top" xlink:title=" ">
<polygon fill="white" stroke="black" points="90.5,-112.5 90.5,-131.5 143.5,-131.5 143.5,-112.5 90.5,-112.5"/>
<text text-anchor="middle" x="117" y="-119.5" font-family="Helvetica,sans-Serif" font-size="10.00">setjmp.h</text>
</a>
</g>
</g>
<!-- Node8&#45;&gt;Node11 -->
<g id="edge15" class="edge">
<title>Node8&#45;&gt;Node11</title>
<path fill="none" stroke="midnightblue" d="M117,-168.08C117,-161.01 117,-150.86 117,-141.99"/>
<polygon fill="midnightblue" stroke="midnightblue" points="120.5,-141.75 117,-131.75 113.5,-141.75 120.5,-141.75"/>
</g>
<!-- Node9&#45;&gt;Node2 -->
<g id="edge11" class="edge">
<title>Node9&#45;&gt;Node2</title>
<path fill="none" stroke="midnightblue" d="M122.59,-59.62C162.57,-50.52 244.15,-31.93 294.06,-20.56"/>
<polygon fill="midnightblue" stroke="midnightblue" points="294.92,-23.95 303.89,-18.32 293.37,-17.12 294.92,-23.95"/>
</g>
<!-- Node9&#45;&gt;Node4 -->
<g id="edge10" class="edge">
<title>Node9&#45;&gt;Node4</title>
<path fill="none" stroke="midnightblue" d="M108,-56.32C116.19,-48.42 128.51,-36.55 138.47,-26.94"/>
<polygon fill="midnightblue" stroke="midnightblue" points="141.07,-29.29 145.84,-19.83 136.21,-24.26 141.07,-29.29"/>
</g>
<!-- Node10&#45;&gt;Node9 -->
<g id="edge13" class="edge">
<title>Node10&#45;&gt;Node9</title>
<path fill="none" stroke="midnightblue" d="M30.17,-112.32C42.85,-103.98 62.23,-91.21 77.21,-81.35"/>
<polygon fill="midnightblue" stroke="midnightblue" points="79.43,-84.08 85.86,-75.65 75.58,-78.23 79.43,-84.08"/>
</g>
<!-- Node11&#45;&gt;Node2 -->
<g id="edge16" class="edge">
<title>Node11&#45;&gt;Node2</title>
<path fill="none" stroke="midnightblue" d="M130.62,-112.45C151.57,-99.46 193.12,-74.35 230,-56 254.41,-43.85 282.9,-31.87 304.2,-23.33"/>
<polygon fill="midnightblue" stroke="midnightblue" points="305.72,-26.49 313.72,-19.55 303.14,-19.99 305.72,-26.49"/>
</g>
<!-- Node13&#45;&gt;Node2 -->
<g id="edge19" class="edge">
<title>Node13&#45;&gt;Node2</title>
<path fill="none" stroke="midnightblue" d="M336,-56.08C336,-49.01 336,-38.86 336,-29.99"/>
<polygon fill="midnightblue" stroke="midnightblue" points="339.5,-29.75 336,-19.75 332.5,-29.75 339.5,-29.75"/>
</g>
<!-- Node14&#45;&gt;Node2 -->
<g id="edge21" class="edge">
<title>Node14&#45;&gt;Node2</title>
<path fill="none" stroke="midnightblue" d="M390.88,-168.39C390.31,-148 387.15,-95.51 370,-56 365.49,-45.6 358.1,-35.4 351.36,-27.35"/>
<polygon fill="midnightblue" stroke="midnightblue" points="353.96,-25.01 344.73,-19.82 348.71,-29.64 353.96,-25.01"/>
</g>
<!-- Node15&#45;&gt;Node2 -->
<g id="edge23" class="edge">
<title>Node15&#45;&gt;Node2</title>
<path fill="none" stroke="midnightblue" d="M424.97,-56.32C407.97,-47.66 381.62,-34.24 362.01,-24.25"/>
<polygon fill="midnightblue" stroke="midnightblue" points="363.49,-21.08 352.99,-19.65 360.31,-27.31 363.49,-21.08"/>
</g>
</g>
</svg>
