<?xml version="1.0" encoding="UTF-8" standalone="no"?>
<!DOCTYPE svg PUBLIC "-//W3C//DTD SVG 1.1//EN"
 "http://www.w3.org/Graphics/SVG/1.1/DTD/svg11.dtd">
<!-- Generated by graphviz version 2.46.1 (20210215.1649)
 -->
<!-- Title: ee/network/tcpip/include/ps2ip.h Pages: 1 -->
<svg width="134pt" height="151pt"
 viewBox="0.00 0.00 134.00 151.00" xmlns="http://www.w3.org/2000/svg" xmlns:xlink="http://www.w3.org/1999/xlink">
<g id="graph0" class="graph" transform="scale(1 1) rotate(0) translate(4 147)">
<title>ee/network/tcpip/include/ps2ip.h</title>
<polygon fill="white" stroke="transparent" points="-4,4 -4,-147 130,-147 130,4 -4,4"/>
<!-- Node1 -->
<g id="node1" class="node">
<title>Node1</title>
<g id="a_node1"><a xlink:title=" ">
<polygon fill="#bfbfbf" stroke="black" points="0,-112.5 0,-142.5 122,-142.5 122,-112.5 0,-112.5"/>
<text text-anchor="start" x="8" y="-130.5" font-family="Helvetica,sans-Serif" font-size="10.00">ee/network/tcpip/include</text>
<text text-anchor="middle" x="61" y="-119.5" font-family="Helvetica,sans-Serif" font-size="10.00">/ps2ip.h</text>
</a>
</g>
</g>
<!-- Node2 -->
<g id="node2" class="node">
<title>Node2</title>
<g id="a_node2"><a xlink:title=" ">
<polygon fill="white" stroke="#bfbfbf" points="2.5,-56.5 2.5,-75.5 53.5,-75.5 53.5,-56.5 2.5,-56.5"/>
<text text-anchor="middle" x="28" y="-63.5" font-family="Helvetica,sans-Serif" font-size="10.00">stddef.h</text>
</a>
</g>
</g>
<!-- Node1&#45;&gt;Node2 -->
<g id="edge1" class="edge">
<title>Node1&#45;&gt;Node2</title>
<path fill="none" stroke="midnightblue" d="M53.18,-112.4C48.53,-104.02 42.6,-93.33 37.66,-84.42"/>
<polygon fill="midnightblue" stroke="midnightblue" points="40.71,-82.71 32.8,-75.66 34.59,-86.1 40.71,-82.71"/>
</g>
<!-- Node3 -->
<g id="node3" class="node">
<title>Node3</title>
<g id="a_node3"><a xlink:href="tcpip_8h.html" target="_top" xlink:title=" ">
<polygon fill="white" stroke="black" points="71.5,-56.5 71.5,-75.5 116.5,-75.5 116.5,-56.5 71.5,-56.5"/>
<text text-anchor="middle" x="94" y="-63.5" font-family="Helvetica,sans-Serif" font-size="10.00">tcpip.h</text>
</a>
</g>
</g>
<!-- Node1&#45;&gt;Node3 -->
<g id="edge2" class="edge">
<title>Node1&#45;&gt;Node3</title>
<path fill="none" stroke="midnightblue" d="M68.82,-112.4C73.47,-104.02 79.4,-93.33 84.34,-84.42"/>
<polygon fill="midnightblue" stroke="midnightblue" points="87.41,-86.1 89.2,-75.66 81.29,-82.71 87.41,-86.1"/>
</g>
<!-- Node4 -->
<g id="node4" class="node">
<title>Node4</title>
<g id="a_node4"><a xlink:href="tamtypes_8h.html" target="_top" xlink:title=" ">
<polygon fill="white" stroke="black" points="62,-0.5 62,-19.5 126,-19.5 126,-0.5 62,-0.5"/>
<text text-anchor="middle" x="94" y="-7.5" font-family="Helvetica,sans-Serif" font-size="10.00">tamtypes.h</text>
</a>
</g>
</g>
<!-- Node3&#45;&gt;Node4 -->
<g id="edge3" class="edge">
<title>Node3&#45;&gt;Node4</title>
<path fill="none" stroke="midnightblue" d="M94,-56.08C94,-49.01 94,-38.86 94,-29.99"/>
<polygon fill="midnightblue" stroke="midnightblue" points="97.5,-29.75 94,-19.75 90.5,-29.75 97.5,-29.75"/>
</g>
</g>
</svg>
