<?xml version="1.0" encoding="UTF-8" standalone="no"?>
<!DOCTYPE svg PUBLIC "-//W3C//DTD SVG 1.1//EN"
 "http://www.w3.org/Graphics/SVG/1.1/DTD/svg11.dtd">
<!-- Generated by graphviz version 2.46.1 (20210215.1649)
 -->
<!-- Title: iop/sound/libsd/src/effect.c Pages: 1 -->
<svg width="346pt" height="263pt"
 viewBox="0.00 0.00 346.00 263.00" xmlns="http://www.w3.org/2000/svg" xmlns:xlink="http://www.w3.org/1999/xlink">
<g id="graph0" class="graph" transform="scale(1 1) rotate(0) translate(4 259)">
<title>iop/sound/libsd/src/effect.c</title>
<polygon fill="white" stroke="transparent" points="-4,4 -4,-259 342,-259 342,4 -4,4"/>
<!-- Node1 -->
<g id="node1" class="node">
<title>Node1</title>
<g id="a_node1"><a xlink:title=" ">
<polygon fill="#bfbfbf" stroke="black" points="74.5,-224.5 74.5,-254.5 172.5,-254.5 172.5,-224.5 74.5,-224.5"/>
<text text-anchor="start" x="82.5" y="-242.5" font-family="Helvetica,sans-Serif" font-size="10.00">iop/sound/libsd/src</text>
<text text-anchor="middle" x="123.5" y="-231.5" font-family="Helvetica,sans-Serif" font-size="10.00">/effect.c</text>
</a>
</g>
</g>
<!-- Node2 -->
<g id="node2" class="node">
<title>Node2</title>
<g id="a_node2"><a xlink:title=" ">
<polygon fill="white" stroke="#bfbfbf" points="0,-168.5 0,-187.5 47,-187.5 47,-168.5 0,-168.5"/>
<text text-anchor="middle" x="23.5" y="-175.5" font-family="Helvetica,sans-Serif" font-size="10.00">types.h</text>
</a>
</g>
</g>
<!-- Node1&#45;&gt;Node2 -->
<g id="edge1" class="edge">
<title>Node1&#45;&gt;Node2</title>
<path fill="none" stroke="midnightblue" d="M99.8,-224.4C83.77,-214.86 62.7,-202.32 46.76,-192.84"/>
<polygon fill="midnightblue" stroke="midnightblue" points="48.43,-189.76 38.05,-187.66 44.86,-195.78 48.43,-189.76"/>
</g>
<!-- Node3 -->
<g id="node3" class="node">
<title>Node3</title>
<g id="a_node3"><a xlink:title=" ">
<polygon fill="white" stroke="#bfbfbf" points="65.5,-168.5 65.5,-187.5 109.5,-187.5 109.5,-168.5 65.5,-168.5"/>
<text text-anchor="middle" x="87.5" y="-175.5" font-family="Helvetica,sans-Serif" font-size="10.00">libsd.h</text>
</a>
</g>
</g>
<!-- Node1&#45;&gt;Node3 -->
<g id="edge2" class="edge">
<title>Node1&#45;&gt;Node3</title>
<path fill="none" stroke="midnightblue" d="M114.97,-224.4C109.9,-216.02 103.43,-205.33 98.04,-196.42"/>
<polygon fill="midnightblue" stroke="midnightblue" points="100.91,-194.4 92.74,-187.66 94.92,-198.03 100.91,-194.4"/>
</g>
<!-- Node4 -->
<g id="node4" class="node">
<title>Node4</title>
<g id="a_node4"><a xlink:href="spu2regs_8h.html" target="_top" xlink:title=" ">
<polygon fill="white" stroke="black" points="127.5,-168.5 127.5,-187.5 191.5,-187.5 191.5,-168.5 127.5,-168.5"/>
<text text-anchor="middle" x="159.5" y="-175.5" font-family="Helvetica,sans-Serif" font-size="10.00">spu2regs.h</text>
</a>
</g>
</g>
<!-- Node1&#45;&gt;Node4 -->
<g id="edge3" class="edge">
<title>Node1&#45;&gt;Node4</title>
<path fill="none" stroke="midnightblue" d="M132.03,-224.4C137.1,-216.02 143.57,-205.33 148.96,-196.42"/>
<polygon fill="midnightblue" stroke="midnightblue" points="152.08,-198.03 154.26,-187.66 146.09,-194.4 152.08,-198.03"/>
</g>
<!-- Node5 -->
<g id="node5" class="node">
<title>Node5</title>
<g id="a_node5"><a xlink:href="sysclib_8h.html" target="_top" xlink:title=" ">
<polygon fill="white" stroke="black" points="209.5,-168.5 209.5,-187.5 263.5,-187.5 263.5,-168.5 209.5,-168.5"/>
<text text-anchor="middle" x="236.5" y="-175.5" font-family="Helvetica,sans-Serif" font-size="10.00">sysclib.h</text>
</a>
</g>
</g>
<!-- Node1&#45;&gt;Node5 -->
<g id="edge4" class="edge">
<title>Node1&#45;&gt;Node5</title>
<path fill="none" stroke="midnightblue" d="M150.28,-224.4C168.56,-214.77 192.65,-202.09 210.71,-192.58"/>
<polygon fill="midnightblue" stroke="midnightblue" points="212.84,-195.41 220.06,-187.66 209.58,-189.22 212.84,-195.41"/>
</g>
<!-- Node6 -->
<g id="node6" class="node">
<title>Node6</title>
<g id="a_node6"><a xlink:href="types_8h_source.html" target="_top" xlink:title=" ">
<polygon fill="white" stroke="black" points="183,-56.5 183,-75.5 230,-75.5 230,-56.5 183,-56.5"/>
<text text-anchor="middle" x="206.5" y="-63.5" font-family="Helvetica,sans-Serif" font-size="10.00">types.h</text>
</a>
</g>
</g>
<!-- Node5&#45;&gt;Node6 -->
<g id="edge5" class="edge">
<title>Node5&#45;&gt;Node6</title>
<path fill="none" stroke="midnightblue" d="M219,-168.46C205.71,-160.92 188.42,-148.53 180.5,-132 172.82,-115.97 182.4,-97.04 192.03,-83.76"/>
<polygon fill="midnightblue" stroke="midnightblue" points="195.04,-85.59 198.49,-75.57 189.54,-81.25 195.04,-85.59"/>
</g>
<!-- Node9 -->
<g id="node9" class="node">
<title>Node9</title>
<g id="a_node9"><a xlink:href="irx_8h.html" target="_top" xlink:title=" ">
<polygon fill="white" stroke="black" points="189.5,-112.5 189.5,-131.5 223.5,-131.5 223.5,-112.5 189.5,-112.5"/>
<text text-anchor="middle" x="206.5" y="-119.5" font-family="Helvetica,sans-Serif" font-size="10.00">irx.h</text>
</a>
</g>
</g>
<!-- Node5&#45;&gt;Node9 -->
<g id="edge8" class="edge">
<title>Node5&#45;&gt;Node9</title>
<path fill="none" stroke="midnightblue" d="M231.55,-168.08C227.4,-160.61 221.35,-149.72 216.23,-140.52"/>
<polygon fill="midnightblue" stroke="midnightblue" points="219.28,-138.79 211.36,-131.75 213.16,-142.19 219.28,-138.79"/>
</g>
<!-- Node10 -->
<g id="node10" class="node">
<title>Node10</title>
<g id="a_node10"><a xlink:title=" ">
<polygon fill="white" stroke="#bfbfbf" points="242,-112.5 242,-131.5 293,-131.5 293,-112.5 242,-112.5"/>
<text text-anchor="middle" x="267.5" y="-119.5" font-family="Helvetica,sans-Serif" font-size="10.00">stdarg.h</text>
</a>
</g>
</g>
<!-- Node5&#45;&gt;Node10 -->
<g id="edge10" class="edge">
<title>Node5&#45;&gt;Node10</title>
<path fill="none" stroke="midnightblue" d="M241.62,-168.08C245.91,-160.61 252.16,-149.72 257.44,-140.52"/>
<polygon fill="midnightblue" stroke="midnightblue" points="260.53,-142.17 262.48,-131.75 254.46,-138.68 260.53,-142.17"/>
</g>
<!-- Node11 -->
<g id="node11" class="node">
<title>Node11</title>
<g id="a_node11"><a xlink:href="setjmp_8h.html" target="_top" xlink:title=" ">
<polygon fill="white" stroke="black" points="285,-56.5 285,-75.5 338,-75.5 338,-56.5 285,-56.5"/>
<text text-anchor="middle" x="311.5" y="-63.5" font-family="Helvetica,sans-Serif" font-size="10.00">setjmp.h</text>
</a>
</g>
</g>
<!-- Node5&#45;&gt;Node11 -->
<g id="edge11" class="edge">
<title>Node5&#45;&gt;Node11</title>
<path fill="none" stroke="midnightblue" d="M256.61,-168.47C271.49,-161.07 290.95,-148.87 301.5,-132 310.11,-118.24 312.24,-99.71 312.43,-85.96"/>
<polygon fill="midnightblue" stroke="midnightblue" points="315.93,-85.67 312.24,-75.74 308.93,-85.8 315.93,-85.67"/>
</g>
<!-- Node7 -->
<g id="node7" class="node">
<title>Node7</title>
<g id="a_node7"><a xlink:title=" ">
<polygon fill="white" stroke="#bfbfbf" points="181,-0.5 181,-19.5 232,-19.5 232,-0.5 181,-0.5"/>
<text text-anchor="middle" x="206.5" y="-7.5" font-family="Helvetica,sans-Serif" font-size="10.00">stddef.h</text>
</a>
</g>
</g>
<!-- Node6&#45;&gt;Node7 -->
<g id="edge6" class="edge">
<title>Node6&#45;&gt;Node7</title>
<path fill="none" stroke="midnightblue" d="M206.5,-56.08C206.5,-49.01 206.5,-38.86 206.5,-29.99"/>
<polygon fill="midnightblue" stroke="midnightblue" points="210,-29.75 206.5,-19.75 203,-29.75 210,-29.75"/>
</g>
<!-- Node8 -->
<g id="node8" class="node">
<title>Node8</title>
<g id="a_node8"><a xlink:href="tamtypes_8h.html" target="_top" xlink:title=" ">
<polygon fill="white" stroke="black" points="269.5,-0.5 269.5,-19.5 333.5,-19.5 333.5,-0.5 269.5,-0.5"/>
<text text-anchor="middle" x="301.5" y="-7.5" font-family="Helvetica,sans-Serif" font-size="10.00">tamtypes.h</text>
</a>
</g>
</g>
<!-- Node6&#45;&gt;Node8 -->
<g id="edge7" class="edge">
<title>Node6&#45;&gt;Node8</title>
<path fill="none" stroke="midnightblue" d="M221.76,-56.32C236.72,-47.82 259.75,-34.73 277.23,-24.8"/>
<polygon fill="midnightblue" stroke="midnightblue" points="279.31,-27.64 286.27,-19.65 275.85,-21.55 279.31,-27.64"/>
</g>
<!-- Node9&#45;&gt;Node6 -->
<g id="edge9" class="edge">
<title>Node9&#45;&gt;Node6</title>
<path fill="none" stroke="midnightblue" d="M206.5,-112.08C206.5,-105.01 206.5,-94.86 206.5,-85.99"/>
<polygon fill="midnightblue" stroke="midnightblue" points="210,-85.75 206.5,-75.75 203,-85.75 210,-85.75"/>
</g>
<!-- Node11&#45;&gt;Node8 -->
<g id="edge12" class="edge">
<title>Node11&#45;&gt;Node8</title>
<path fill="none" stroke="midnightblue" d="M309.85,-56.08C308.52,-48.93 306.62,-38.64 304.96,-29.69"/>
<polygon fill="midnightblue" stroke="midnightblue" points="308.38,-28.95 303.12,-19.75 301.5,-30.22 308.38,-28.95"/>
</g>
</g>
</svg>
