<?xml version="1.0" encoding="UTF-8" standalone="no"?>
<!DOCTYPE svg PUBLIC "-//W3C//DTD SVG 1.1//EN"
 "http://www.w3.org/Graphics/SVG/1.1/DTD/svg11.dtd">
<!-- Generated by graphviz version 2.46.1 (20210215.1649)
 -->
<!-- Title: ee/erl/src/erl.c Pages: 1 -->
<!--zoomable 364 -->
<svg id="main" version="1.1" xmlns="http://www.w3.org/2000/svg" xmlns:xlink="http://www.w3.org/1999/xlink" xml:space="preserve" onload="init(evt)">
<style type="text/css"><![CDATA[
.edge:hover path { stroke: red; }
.edge:hover polygon { stroke: red; fill: red; }
]]></style>
<script type="text/javascript"><![CDATA[
var edges = document.getElementsByTagName('g');
if (edges && edges.length) {
  for (var i=0;i<edges.length;i++) {
    if (edges[i].id.substr(0,4)=='edge') {
      edges[i].setAttribute('class','edge');
    }
  }
}
]]></script>
        <defs>
                <circle id="rim" cx="0" cy="0" r="7"/>
                <circle id="rim2" cx="0" cy="0" r="3.5"/>
                <g id="zoomPlus">
                        <use xlink:href="#rim" fill="#404040">
                                <set attributeName="fill" to="#808080" begin="zoomplus.mouseover" end="zoomplus.mouseout"/>
                        </use>
                        <path d="M-4,0h8M0,-4v8" fill="none" stroke="white" stroke-width="1.5" pointer-events="none"/>
                </g>
                <g id="zoomMin">
                        <use xlink:href="#rim" fill="#404040">
                                <set attributeName="fill" to="#808080" begin="zoomminus.mouseover" end="zoomminus.mouseout"/>
                        </use>
                        <path d="M-4,0h8" fill="none" stroke="white" stroke-width="1.5" pointer-events="none"/>
                </g>
                <g id="dirArrow">
                        <path fill="none" stroke="white" stroke-width="1.5" d="M0,-3.0v7 M-2.5,-0.5L0,-3.0L2.5,-0.5"/>
                </g>
               <g id="resetDef">
                       <use xlink:href="#rim2" fill="#404040">
                               <set attributeName="fill" to="#808080" begin="reset.mouseover" end="reset.mouseout"/>
                       </use>
               </g>
        </defs>

<script type="text/javascript">
var viewWidth = 510;
var viewHeight = 364;
var sectionId = 'dynsection-0';
</script>
<script xlink:href="svgpan.js"/>
<svg id="graph" class="graph">
<g id="viewport">
<title>ee/erl/src/erl.c</title>
<polygon fill="white" stroke="transparent" points="-4,4 -4,-360 505.5,-360 505.5,4 -4,4"/>
<!-- Node1 -->
<g id="node1" class="node">
<title>Node1</title>
<g id="a_node1"><a xlink:title=" ">
<polygon fill="#bfbfbf" stroke="black" points="208.5,-336.5 208.5,-355.5 286.5,-355.5 286.5,-336.5 208.5,-336.5"/>
<text text-anchor="middle" x="247.5" y="-343.5" font-family="Helvetica,sans-Serif" font-size="10.00">ee/erl/src/erl.c</text>
</a>
</g>
</g>
<!-- Node2 -->
<g id="node2" class="node">
<title>Node2</title>
<g id="a_node2"><a xlink:title=" ">
<polygon fill="white" stroke="#bfbfbf" points="0,-280.5 0,-299.5 47,-299.5 47,-280.5 0,-280.5"/>
<text text-anchor="middle" x="23.5" y="-287.5" font-family="Helvetica,sans-Serif" font-size="10.00">stdlib.h</text>
</a>
</g>
</g>
<!-- Node1&#45;&gt;Node2 -->
<g id="edge1" class="edge">
<title>Node1&#45;&gt;Node2</title>
<path fill="none" stroke="midnightblue" d="M208.76,-336.45C172.02,-328.22 115.04,-315.15 57.27,-300.38"/>
<polygon fill="midnightblue" stroke="midnightblue" points="57.79,-296.9 47.23,-297.8 56.05,-303.68 57.79,-296.9"/>
</g>
<!-- Node3 -->
<g id="node3" class="node">
<title>Node3</title>
<g id="a_node3"><a xlink:href="stdio_8h.html" target="_top" xlink:title=" ">
<polygon fill="white" stroke="black" points="139,-168.5 139,-187.5 184,-187.5 184,-168.5 139,-168.5"/>
<text text-anchor="middle" x="161.5" y="-175.5" font-family="Helvetica,sans-Serif" font-size="10.00">stdio.h</text>
</a>
</g>
</g>
<!-- Node1&#45;&gt;Node3 -->
<g id="edge2" class="edge">
<title>Node1&#45;&gt;Node3</title>
<path fill="none" stroke="midnightblue" d="M242.88,-336.08C229.22,-309.72 188.89,-231.88 170.65,-196.66"/>
<polygon fill="midnightblue" stroke="midnightblue" points="173.65,-194.84 165.94,-187.57 167.43,-198.06 173.65,-194.84"/>
</g>
<!-- Node9 -->
<g id="node9" class="node">
<title>Node9</title>
<g id="a_node9"><a xlink:href="string_8h_source.html" target="_top" xlink:title=" ">
<polygon fill="white" stroke="black" points="249.5,-224.5 249.5,-243.5 297.5,-243.5 297.5,-224.5 249.5,-224.5"/>
<text text-anchor="middle" x="273.5" y="-231.5" font-family="Helvetica,sans-Serif" font-size="10.00">string.h</text>
</a>
</g>
</g>
<!-- Node1&#45;&gt;Node9 -->
<g id="edge8" class="edge">
<title>Node1&#45;&gt;Node9</title>
<path fill="none" stroke="midnightblue" d="M249.54,-336.37C253.74,-318.62 263.42,-277.67 269.1,-253.6"/>
<polygon fill="midnightblue" stroke="midnightblue" points="272.58,-254.13 271.47,-243.59 265.76,-252.52 272.58,-254.13"/>
</g>
<!-- Node12 -->
<g id="node12" class="node">
<title>Node12</title>
<g id="a_node12"><a xlink:href="fcntl_8h_source.html" target="_top" xlink:title=" ">
<polygon fill="white" stroke="black" points="354,-280.5 354,-299.5 415,-299.5 415,-280.5 354,-280.5"/>
<text text-anchor="middle" x="384.5" y="-287.5" font-family="Helvetica,sans-Serif" font-size="10.00">sys/fcntl.h</text>
</a>
</g>
</g>
<!-- Node1&#45;&gt;Node12 -->
<g id="edge15" class="edge">
<title>Node1&#45;&gt;Node12</title>
<path fill="none" stroke="midnightblue" d="M269.21,-336.44C291.85,-327.52 327.57,-313.44 353.25,-303.32"/>
<polygon fill="midnightblue" stroke="midnightblue" points="354.87,-306.44 362.89,-299.52 352.31,-299.93 354.87,-306.44"/>
</g>
<!-- Node13 -->
<g id="node13" class="node">
<title>Node13</title>
<g id="a_node13"><a xlink:href="unistd_8h_source.html" target="_top" xlink:title=" ">
<polygon fill="white" stroke="black" points="433.5,-280.5 433.5,-299.5 501.5,-299.5 501.5,-280.5 433.5,-280.5"/>
<text text-anchor="middle" x="467.5" y="-287.5" font-family="Helvetica,sans-Serif" font-size="10.00">sys/unistd.h</text>
</a>
</g>
</g>
<!-- Node1&#45;&gt;Node13 -->
<g id="edge16" class="edge">
<title>Node1&#45;&gt;Node13</title>
<path fill="none" stroke="midnightblue" d="M282.36,-336.44C320.53,-327.07 381.82,-312.03 423.33,-301.84"/>
<polygon fill="midnightblue" stroke="midnightblue" points="424.29,-305.21 433.17,-299.43 422.62,-298.41 424.29,-305.21"/>
</g>
<!-- Node14 -->
<g id="node14" class="node">
<title>Node14</title>
<g id="a_node14"><a xlink:href="erl_8h.html" target="_top" xlink:title=" ">
<polygon fill="white" stroke="black" points="308,-56.5 308,-75.5 343,-75.5 343,-56.5 308,-56.5"/>
<text text-anchor="middle" x="325.5" y="-63.5" font-family="Helvetica,sans-Serif" font-size="10.00">erl.h</text>
</a>
</g>
</g>
<!-- Node1&#45;&gt;Node14 -->
<g id="edge17" class="edge">
<title>Node1&#45;&gt;Node14</title>
<path fill="none" stroke="midnightblue" d="M259.69,-336.24C281.62,-319.35 325.5,-279.95 325.5,-235 325.5,-235 325.5,-235 325.5,-177 325.5,-144.95 325.5,-107.64 325.5,-85.75"/>
<polygon fill="midnightblue" stroke="midnightblue" points="329,-85.56 325.5,-75.56 322,-85.56 329,-85.56"/>
</g>
<!-- Node15 -->
<g id="node15" class="node">
<title>Node15</title>
<g id="a_node15"><a xlink:href="hashtab_8h_source.html" target="_top" xlink:title=" ">
<polygon fill="white" stroke="black" points="138,-280.5 138,-299.5 197,-299.5 197,-280.5 138,-280.5"/>
<text text-anchor="middle" x="167.5" y="-287.5" font-family="Helvetica,sans-Serif" font-size="10.00">hashtab.h</text>
</a>
</g>
</g>
<!-- Node1&#45;&gt;Node15 -->
<g id="edge19" class="edge">
<title>Node1&#45;&gt;Node15</title>
<path fill="none" stroke="midnightblue" d="M234.65,-336.32C222.28,-327.98 203.37,-315.21 188.76,-305.35"/>
<polygon fill="midnightblue" stroke="midnightblue" points="190.57,-302.35 180.32,-299.65 186.65,-308.15 190.57,-302.35"/>
</g>
<!-- Node17 -->
<g id="node17" class="node">
<title>Node17</title>
<g id="a_node17"><a xlink:href="recycle_8h_source.html" target="_top" xlink:title=" ">
<polygon fill="white" stroke="black" points="65,-280.5 65,-299.5 120,-299.5 120,-280.5 65,-280.5"/>
<text text-anchor="middle" x="92.5" y="-287.5" font-family="Helvetica,sans-Serif" font-size="10.00">recycle.h</text>
</a>
</g>
</g>
<!-- Node1&#45;&gt;Node17 -->
<g id="edge23" class="edge">
<title>Node1&#45;&gt;Node17</title>
<path fill="none" stroke="midnightblue" d="M222.94,-336.44C196.98,-327.4 155.83,-313.06 126.7,-302.92"/>
<polygon fill="midnightblue" stroke="midnightblue" points="127.54,-299.5 116.95,-299.52 125.24,-306.11 127.54,-299.5"/>
</g>
<!-- Node4 -->
<g id="node4" class="node">
<title>Node4</title>
<g id="a_node4"><a xlink:title=" ">
<polygon fill="white" stroke="#bfbfbf" points="170,-112.5 170,-131.5 221,-131.5 221,-112.5 170,-112.5"/>
<text text-anchor="middle" x="195.5" y="-119.5" font-family="Helvetica,sans-Serif" font-size="10.00">stdarg.h</text>
</a>
</g>
</g>
<!-- Node3&#45;&gt;Node4 -->
<g id="edge3" class="edge">
<title>Node3&#45;&gt;Node4</title>
<path fill="none" stroke="midnightblue" d="M167.11,-168.08C171.87,-160.53 178.82,-149.49 184.65,-140.23"/>
<polygon fill="midnightblue" stroke="midnightblue" points="187.62,-142.08 189.99,-131.75 181.7,-138.35 187.62,-142.08"/>
</g>
<!-- Node5 -->
<g id="node5" class="node">
<title>Node5</title>
<g id="a_node5"><a xlink:href="irx_8h.html" target="_top" xlink:title=" ">
<polygon fill="white" stroke="black" points="117.5,-112.5 117.5,-131.5 151.5,-131.5 151.5,-112.5 117.5,-112.5"/>
<text text-anchor="middle" x="134.5" y="-119.5" font-family="Helvetica,sans-Serif" font-size="10.00">irx.h</text>
</a>
</g>
</g>
<!-- Node3&#45;&gt;Node5 -->
<g id="edge4" class="edge">
<title>Node3&#45;&gt;Node5</title>
<path fill="none" stroke="midnightblue" d="M157.04,-168.08C153.35,-160.69 147.98,-149.95 143.41,-140.81"/>
<polygon fill="midnightblue" stroke="midnightblue" points="146.48,-139.13 138.88,-131.75 140.22,-142.26 146.48,-139.13"/>
</g>
<!-- Node6 -->
<g id="node6" class="node">
<title>Node6</title>
<g id="a_node6"><a xlink:href="types_8h_source.html" target="_top" xlink:title=" ">
<polygon fill="white" stroke="black" points="145,-56.5 145,-75.5 192,-75.5 192,-56.5 145,-56.5"/>
<text text-anchor="middle" x="168.5" y="-63.5" font-family="Helvetica,sans-Serif" font-size="10.00">types.h</text>
</a>
</g>
</g>
<!-- Node5&#45;&gt;Node6 -->
<g id="edge5" class="edge">
<title>Node5&#45;&gt;Node6</title>
<path fill="none" stroke="midnightblue" d="M140.11,-112.08C144.87,-104.53 151.82,-93.49 157.65,-84.23"/>
<polygon fill="midnightblue" stroke="midnightblue" points="160.62,-86.08 162.99,-75.75 154.7,-82.35 160.62,-86.08"/>
</g>
<!-- Node7 -->
<g id="node7" class="node">
<title>Node7</title>
<g id="a_node7"><a xlink:title=" ">
<polygon fill="white" stroke="#bfbfbf" points="113,-0.5 113,-19.5 164,-19.5 164,-0.5 113,-0.5"/>
<text text-anchor="middle" x="138.5" y="-7.5" font-family="Helvetica,sans-Serif" font-size="10.00">stddef.h</text>
</a>
</g>
</g>
<!-- Node6&#45;&gt;Node7 -->
<g id="edge6" class="edge">
<title>Node6&#45;&gt;Node7</title>
<path fill="none" stroke="midnightblue" d="M163.55,-56.08C159.4,-48.61 153.35,-37.72 148.23,-28.52"/>
<polygon fill="midnightblue" stroke="midnightblue" points="151.28,-26.79 143.36,-19.75 145.16,-30.19 151.28,-26.79"/>
</g>
<!-- Node8 -->
<g id="node8" class="node">
<title>Node8</title>
<g id="a_node8"><a xlink:href="tamtypes_8h.html" target="_top" xlink:title=" ">
<polygon fill="white" stroke="black" points="231.5,-0.5 231.5,-19.5 295.5,-19.5 295.5,-0.5 231.5,-0.5"/>
<text text-anchor="middle" x="263.5" y="-7.5" font-family="Helvetica,sans-Serif" font-size="10.00">tamtypes.h</text>
</a>
</g>
</g>
<!-- Node6&#45;&gt;Node8 -->
<g id="edge7" class="edge">
<title>Node6&#45;&gt;Node8</title>
<path fill="none" stroke="midnightblue" d="M183.76,-56.32C198.72,-47.82 221.75,-34.73 239.23,-24.8"/>
<polygon fill="midnightblue" stroke="midnightblue" points="241.31,-27.64 248.27,-19.65 237.85,-21.55 241.31,-27.64"/>
</g>
<!-- Node10 -->
<g id="node10" class="node">
<title>Node10</title>
<g id="a_node10"><a xlink:href="sysclib_8h.html" target="_top" xlink:title=" ">
<polygon fill="white" stroke="black" points="222.5,-168.5 222.5,-187.5 276.5,-187.5 276.5,-168.5 222.5,-168.5"/>
<text text-anchor="middle" x="249.5" y="-175.5" font-family="Helvetica,sans-Serif" font-size="10.00">sysclib.h</text>
</a>
</g>
</g>
<!-- Node9&#45;&gt;Node10 -->
<g id="edge9" class="edge">
<title>Node9&#45;&gt;Node10</title>
<path fill="none" stroke="midnightblue" d="M269.54,-224.08C266.29,-216.77 261.58,-206.18 257.55,-197.1"/>
<polygon fill="midnightblue" stroke="midnightblue" points="260.65,-195.47 253.39,-187.75 254.25,-198.31 260.65,-195.47"/>
</g>
<!-- Node10&#45;&gt;Node4 -->
<g id="edge12" class="edge">
<title>Node10&#45;&gt;Node4</title>
<path fill="none" stroke="midnightblue" d="M240.58,-168.08C232.72,-160.22 221.07,-148.57 211.58,-139.08"/>
<polygon fill="midnightblue" stroke="midnightblue" points="213.8,-136.35 204.25,-131.75 208.85,-141.3 213.8,-136.35"/>
</g>
<!-- Node10&#45;&gt;Node5 -->
<g id="edge11" class="edge">
<title>Node10&#45;&gt;Node5</title>
<path fill="none" stroke="midnightblue" d="M231.28,-168.44C212.27,-159.52 182.31,-145.45 160.75,-135.33"/>
<polygon fill="midnightblue" stroke="midnightblue" points="162.05,-132.07 151.51,-130.99 159.08,-138.41 162.05,-132.07"/>
</g>
<!-- Node10&#45;&gt;Node6 -->
<g id="edge10" class="edge">
<title>Node10&#45;&gt;Node6</title>
<path fill="none" stroke="midnightblue" d="M248.57,-168.24C246.8,-154.99 241.93,-129.53 229.5,-112 220.46,-99.25 206.68,-88.65 194.51,-80.95"/>
<polygon fill="midnightblue" stroke="midnightblue" points="196,-77.76 185.62,-75.63 192.4,-83.76 196,-77.76"/>
</g>
<!-- Node11 -->
<g id="node11" class="node">
<title>Node11</title>
<g id="a_node11"><a xlink:href="setjmp_8h.html" target="_top" xlink:title=" ">
<polygon fill="white" stroke="black" points="237,-56.5 237,-75.5 290,-75.5 290,-56.5 237,-56.5"/>
<text text-anchor="middle" x="263.5" y="-63.5" font-family="Helvetica,sans-Serif" font-size="10.00">setjmp.h</text>
</a>
</g>
</g>
<!-- Node10&#45;&gt;Node11 -->
<g id="edge13" class="edge">
<title>Node10&#45;&gt;Node11</title>
<path fill="none" stroke="midnightblue" d="M253.1,-168.22C256.56,-159.28 261.53,-144.94 263.5,-132 265.83,-116.64 265.66,-99 265,-85.98"/>
<polygon fill="midnightblue" stroke="midnightblue" points="268.48,-85.65 264.34,-75.89 261.5,-86.1 268.48,-85.65"/>
</g>
<!-- Node11&#45;&gt;Node8 -->
<g id="edge14" class="edge">
<title>Node11&#45;&gt;Node8</title>
<path fill="none" stroke="midnightblue" d="M263.5,-56.08C263.5,-49.01 263.5,-38.86 263.5,-29.99"/>
<polygon fill="midnightblue" stroke="midnightblue" points="267,-29.75 263.5,-19.75 260,-29.75 267,-29.75"/>
</g>
<!-- Node14&#45;&gt;Node8 -->
<g id="edge18" class="edge">
<title>Node14&#45;&gt;Node8</title>
<path fill="none" stroke="midnightblue" d="M315.54,-56.32C306.37,-48.34 292.56,-36.31 281.47,-26.65"/>
<polygon fill="midnightblue" stroke="midnightblue" points="283.48,-23.76 273.64,-19.83 278.88,-29.04 283.48,-23.76"/>
</g>
<!-- Node16 -->
<g id="node16" class="node">
<title>Node16</title>
<g id="a_node16"><a xlink:href="standard_8h_source.html" target="_top" xlink:title=" ">
<polygon fill="white" stroke="black" points="91.5,-224.5 91.5,-243.5 153.5,-243.5 153.5,-224.5 91.5,-224.5"/>
<text text-anchor="middle" x="122.5" y="-231.5" font-family="Helvetica,sans-Serif" font-size="10.00">standard.h</text>
</a>
</g>
</g>
<!-- Node15&#45;&gt;Node16 -->
<g id="edge20" class="edge">
<title>Node15&#45;&gt;Node16</title>
<path fill="none" stroke="midnightblue" d="M160.07,-280.08C153.65,-272.38 144.19,-261.03 136.38,-251.65"/>
<polygon fill="midnightblue" stroke="midnightblue" points="138.88,-249.19 129.79,-243.75 133.51,-253.67 138.88,-249.19"/>
</g>
<!-- Node16&#45;&gt;Node3 -->
<g id="edge21" class="edge">
<title>Node16&#45;&gt;Node3</title>
<path fill="none" stroke="midnightblue" d="M128.94,-224.08C134.45,-216.46 142.53,-205.26 149.26,-195.94"/>
<polygon fill="midnightblue" stroke="midnightblue" points="152.16,-197.91 155.18,-187.75 146.49,-193.81 152.16,-197.91"/>
</g>
<!-- Node16&#45;&gt;Node7 -->
<g id="edge22" class="edge">
<title>Node16&#45;&gt;Node7</title>
<path fill="none" stroke="midnightblue" d="M119.99,-224.47C114.5,-204.67 102.38,-154.06 108.5,-112 112.83,-82.23 123.97,-49.03 131.39,-29.09"/>
<polygon fill="midnightblue" stroke="midnightblue" points="134.67,-30.31 134.97,-19.72 128.13,-27.82 134.67,-30.31"/>
</g>
<!-- Node17&#45;&gt;Node16 -->
<g id="edge24" class="edge">
<title>Node17&#45;&gt;Node16</title>
<path fill="none" stroke="midnightblue" d="M97.45,-280.08C101.6,-272.61 107.65,-261.72 112.77,-252.52"/>
<polygon fill="midnightblue" stroke="midnightblue" points="115.84,-254.19 117.64,-243.75 109.72,-250.79 115.84,-254.19"/>
</g>
</g>
</svg>
        <g id="navigator" transform="translate(0 0)" fill="#404254">
                <rect fill="#f2f5e9" fill-opacity="0.5" stroke="#606060" stroke-width=".5" x="0" y="0" width="60" height="60"/>
                <use id="zoomplus" xlink:href="#zoomPlus" x="17" y="9" onmousedown="handleZoom(evt,'in')"/>
                <use id="zoomminus" xlink:href="#zoomMin" x="42" y="9" onmousedown="handleZoom(evt,'out')"/>
                <use id="reset" xlink:href="#resetDef" x="30" y="36" onmousedown="handleReset()"/>
                <g id="arrowUp" xlink:href="#dirArrow" transform="translate(30 24)" onmousedown="handlePan(0,-1)">
                  <use xlink:href="#rim" fill="#404040">
                        <set attributeName="fill" to="#808080" begin="arrowUp.mouseover" end="arrowUp.mouseout"/>
                  </use>
                  <path fill="none" stroke="white" stroke-width="1.5" d="M0,-3.0v7 M-2.5,-0.5L0,-3.0L2.5,-0.5"/>
                </g>
                <g id="arrowRight" xlink:href="#dirArrow" transform="rotate(90) translate(36 -43)" onmousedown="handlePan(1,0)">
                  <use xlink:href="#rim" fill="#404040">
                        <set attributeName="fill" to="#808080" begin="arrowRight.mouseover" end="arrowRight.mouseout"/>
                  </use>
                  <path fill="none" stroke="white" stroke-width="1.5" d="M0,-3.0v7 M-2.5,-0.5L0,-3.0L2.5,-0.5"/>
                </g>
                <g id="arrowDown" xlink:href="#dirArrow" transform="rotate(180) translate(-30 -48)" onmousedown="handlePan(0,1)">
                  <use xlink:href="#rim" fill="#404040">
                        <set attributeName="fill" to="#808080" begin="arrowDown.mouseover" end="arrowDown.mouseout"/>
                  </use>
                  <path fill="none" stroke="white" stroke-width="1.5" d="M0,-3.0v7 M-2.5,-0.5L0,-3.0L2.5,-0.5"/>
                </g>
                <g id="arrowLeft" xlink:href="#dirArrow" transform="rotate(270) translate(-36 17)" onmousedown="handlePan(-1,0)">
                  <use xlink:href="#rim" fill="#404040">
                        <set attributeName="fill" to="#808080" begin="arrowLeft.mouseover" end="arrowLeft.mouseout"/>
                  </use>
                  <path fill="none" stroke="white" stroke-width="1.5" d="M0,-3.0v7 M-2.5,-0.5L0,-3.0L2.5,-0.5"/>
                </g>
        </g>
        <svg viewBox="0 0 15 15" width="100%" height="30px" preserveAspectRatio="xMaxYMin meet">
         <g id="arrow_out" transform="scale(0.3 0.3)">
          <a xlink:href="erl_8c__incl_org.svg" target="_base">
           <rect id="button" ry="5" rx="5" y="6" x="6" height="38" width="38"
                fill="#f2f5e9" fill-opacity="0.5" stroke="#606060" stroke-width="1.0"/>
           <path id="arrow"
             d="M 11.500037,31.436501 C 11.940474,20.09759 22.043105,11.32322 32.158766,21.979434 L 37.068811,17.246167 C 37.068811,17.246167 37.088388,32 37.088388,32 L 22.160133,31.978069 C 22.160133,31.978069 26.997745,27.140456 26.997745,27.140456 C 18.528582,18.264221 13.291696,25.230495 11.500037,31.436501 z"
             style="fill:#404040;"/>
          </a>
         </g>
        </svg>
</svg>
