<?xml version="1.0" encoding="UTF-8" standalone="no"?>
<!DOCTYPE svg PUBLIC "-//W3C//DTD SVG 1.1//EN"
 "http://www.w3.org/Graphics/SVG/1.1/DTD/svg11.dtd">
<!-- Generated by graphviz version 2.46.1 (20210215.1649)
 -->
<!-- Title: ee/kernel/src/exit.c Pages: 1 -->
<svg width="249pt" height="308pt"
 viewBox="0.00 0.00 249.00 308.00" xmlns="http://www.w3.org/2000/svg" xmlns:xlink="http://www.w3.org/1999/xlink">
<g id="graph0" class="graph" transform="scale(1 1) rotate(0) translate(4 304)">
<title>ee/kernel/src/exit.c</title>
<polygon fill="white" stroke="transparent" points="-4,4 -4,-304 245,-304 245,4 -4,4"/>
<!-- Node1 -->
<g id="node1" class="node">
<title>Node1</title>
<g id="a_node1"><a xlink:title=" ">
<polygon fill="#bfbfbf" stroke="black" points="33.5,-280.5 33.5,-299.5 131.5,-299.5 131.5,-280.5 33.5,-280.5"/>
<text text-anchor="middle" x="82.5" y="-287.5" font-family="Helvetica,sans-Serif" font-size="10.00">ee/kernel/src/exit.c</text>
</a>
</g>
</g>
<!-- Node2 -->
<g id="node2" class="node">
<title>Node2</title>
<g id="a_node2"><a xlink:href="kernel_8h.html" target="_top" xlink:title=" ">
<polygon fill="white" stroke="black" points="22.5,-168.5 22.5,-187.5 72.5,-187.5 72.5,-168.5 22.5,-168.5"/>
<text text-anchor="middle" x="47.5" y="-175.5" font-family="Helvetica,sans-Serif" font-size="10.00">kernel.h</text>
</a>
</g>
</g>
<!-- Node1&#45;&gt;Node2 -->
<g id="edge1" class="edge">
<title>Node1&#45;&gt;Node2</title>
<path fill="none" stroke="midnightblue" d="M79.75,-280.37C74.08,-262.54 60.96,-221.3 53.31,-197.27"/>
<polygon fill="midnightblue" stroke="midnightblue" points="56.6,-196.06 50.23,-187.59 49.93,-198.18 56.6,-196.06"/>
</g>
<!-- Node7 -->
<g id="node7" class="node">
<title>Node7</title>
<g id="a_node7"><a xlink:href="string_8h_source.html" target="_top" xlink:title=" ">
<polygon fill="white" stroke="black" points="88.5,-224.5 88.5,-243.5 136.5,-243.5 136.5,-224.5 88.5,-224.5"/>
<text text-anchor="middle" x="112.5" y="-231.5" font-family="Helvetica,sans-Serif" font-size="10.00">string.h</text>
</a>
</g>
</g>
<!-- Node1&#45;&gt;Node7 -->
<g id="edge6" class="edge">
<title>Node1&#45;&gt;Node7</title>
<path fill="none" stroke="midnightblue" d="M87.45,-280.08C91.6,-272.61 97.65,-261.72 102.77,-252.52"/>
<polygon fill="midnightblue" stroke="midnightblue" points="105.84,-254.19 107.64,-243.75 99.72,-250.79 105.84,-254.19"/>
</g>
<!-- Node3 -->
<g id="node3" class="node">
<title>Node3</title>
<g id="a_node3"><a xlink:title=" ">
<polygon fill="white" stroke="#bfbfbf" points="0,-0.5 0,-19.5 51,-19.5 51,-0.5 0,-0.5"/>
<text text-anchor="middle" x="25.5" y="-7.5" font-family="Helvetica,sans-Serif" font-size="10.00">stddef.h</text>
</a>
</g>
</g>
<!-- Node2&#45;&gt;Node3 -->
<g id="edge2" class="edge">
<title>Node2&#45;&gt;Node3</title>
<path fill="none" stroke="midnightblue" d="M44.32,-168.24C38.23,-150.91 25.09,-110.91 20.5,-76 19.34,-67.19 20.01,-64.88 20.5,-56 20.98,-47.36 21.97,-37.83 22.95,-29.77"/>
<polygon fill="midnightblue" stroke="midnightblue" points="26.45,-29.97 24.26,-19.6 19.51,-29.07 26.45,-29.97"/>
</g>
<!-- Node4 -->
<g id="node4" class="node">
<title>Node4</title>
<g id="a_node4"><a xlink:title=" ">
<polygon fill="white" stroke="#bfbfbf" points="53,-112.5 53,-131.5 104,-131.5 104,-112.5 53,-112.5"/>
<text text-anchor="middle" x="78.5" y="-119.5" font-family="Helvetica,sans-Serif" font-size="10.00">stdarg.h</text>
</a>
</g>
</g>
<!-- Node2&#45;&gt;Node4 -->
<g id="edge3" class="edge">
<title>Node2&#45;&gt;Node4</title>
<path fill="none" stroke="midnightblue" d="M52.62,-168.08C56.91,-160.61 63.16,-149.72 68.44,-140.52"/>
<polygon fill="midnightblue" stroke="midnightblue" points="71.53,-142.17 73.48,-131.75 65.46,-138.68 71.53,-142.17"/>
</g>
<!-- Node5 -->
<g id="node5" class="node">
<title>Node5</title>
<g id="a_node5"><a xlink:href="sifdma_8h.html" target="_top" xlink:title=" ">
<polygon fill="white" stroke="black" points="30,-56.5 30,-75.5 83,-75.5 83,-56.5 30,-56.5"/>
<text text-anchor="middle" x="56.5" y="-63.5" font-family="Helvetica,sans-Serif" font-size="10.00">sifdma.h</text>
</a>
</g>
</g>
<!-- Node2&#45;&gt;Node5 -->
<g id="edge4" class="edge">
<title>Node2&#45;&gt;Node5</title>
<path fill="none" stroke="midnightblue" d="M45.83,-168.12C43.72,-155.57 40.68,-131.93 43.5,-112 44.77,-103.04 47.39,-93.37 49.95,-85.3"/>
<polygon fill="midnightblue" stroke="midnightblue" points="53.27,-86.4 53.16,-75.8 46.64,-84.16 53.27,-86.4"/>
</g>
<!-- Node6 -->
<g id="node6" class="node">
<title>Node6</title>
<g id="a_node6"><a xlink:href="tamtypes_8h.html" target="_top" xlink:title=" ">
<polygon fill="white" stroke="black" points="107.5,-0.5 107.5,-19.5 171.5,-19.5 171.5,-0.5 107.5,-0.5"/>
<text text-anchor="middle" x="139.5" y="-7.5" font-family="Helvetica,sans-Serif" font-size="10.00">tamtypes.h</text>
</a>
</g>
</g>
<!-- Node5&#45;&gt;Node6 -->
<g id="edge5" class="edge">
<title>Node5&#45;&gt;Node6</title>
<path fill="none" stroke="midnightblue" d="M69.84,-56.32C82.66,-47.98 102.28,-35.21 117.44,-25.35"/>
<polygon fill="midnightblue" stroke="midnightblue" points="119.72,-28.04 126.2,-19.65 115.91,-22.17 119.72,-28.04"/>
</g>
<!-- Node8 -->
<g id="node8" class="node">
<title>Node8</title>
<g id="a_node8"><a xlink:href="sysclib_8h.html" target="_top" xlink:title=" ">
<polygon fill="white" stroke="black" points="112.5,-168.5 112.5,-187.5 166.5,-187.5 166.5,-168.5 112.5,-168.5"/>
<text text-anchor="middle" x="139.5" y="-175.5" font-family="Helvetica,sans-Serif" font-size="10.00">sysclib.h</text>
</a>
</g>
</g>
<!-- Node7&#45;&gt;Node8 -->
<g id="edge7" class="edge">
<title>Node7&#45;&gt;Node8</title>
<path fill="none" stroke="midnightblue" d="M116.96,-224.08C120.65,-216.69 126.02,-205.95 130.59,-196.81"/>
<polygon fill="midnightblue" stroke="midnightblue" points="133.78,-198.26 135.12,-187.75 127.52,-195.13 133.78,-198.26"/>
</g>
<!-- Node8&#45;&gt;Node4 -->
<g id="edge13" class="edge">
<title>Node8&#45;&gt;Node4</title>
<path fill="none" stroke="midnightblue" d="M129.7,-168.32C120.68,-160.34 107.09,-148.31 96.18,-138.65"/>
<polygon fill="midnightblue" stroke="midnightblue" points="98.29,-135.84 88.48,-131.83 93.65,-141.08 98.29,-135.84"/>
</g>
<!-- Node9 -->
<g id="node9" class="node">
<title>Node9</title>
<g id="a_node9"><a xlink:href="types_8h_source.html" target="_top" xlink:title=" ">
<polygon fill="white" stroke="black" points="116,-56.5 116,-75.5 163,-75.5 163,-56.5 116,-56.5"/>
<text text-anchor="middle" x="139.5" y="-63.5" font-family="Helvetica,sans-Serif" font-size="10.00">types.h</text>
</a>
</g>
</g>
<!-- Node8&#45;&gt;Node9 -->
<g id="edge8" class="edge">
<title>Node8&#45;&gt;Node9</title>
<path fill="none" stroke="midnightblue" d="M146.39,-168.32C152.77,-159.68 161.81,-145.77 165.5,-132 170.01,-115.19 161.33,-96.84 152.81,-83.94"/>
<polygon fill="midnightblue" stroke="midnightblue" points="155.51,-81.69 146.83,-75.61 149.82,-85.77 155.51,-81.69"/>
</g>
<!-- Node10 -->
<g id="node10" class="node">
<title>Node10</title>
<g id="a_node10"><a xlink:href="irx_8h.html" target="_top" xlink:title=" ">
<polygon fill="white" stroke="black" points="122.5,-112.5 122.5,-131.5 156.5,-131.5 156.5,-112.5 122.5,-112.5"/>
<text text-anchor="middle" x="139.5" y="-119.5" font-family="Helvetica,sans-Serif" font-size="10.00">irx.h</text>
</a>
</g>
</g>
<!-- Node8&#45;&gt;Node10 -->
<g id="edge11" class="edge">
<title>Node8&#45;&gt;Node10</title>
<path fill="none" stroke="midnightblue" d="M139.5,-168.08C139.5,-161.01 139.5,-150.86 139.5,-141.99"/>
<polygon fill="midnightblue" stroke="midnightblue" points="143,-141.75 139.5,-131.75 136,-141.75 143,-141.75"/>
</g>
<!-- Node11 -->
<g id="node11" class="node">
<title>Node11</title>
<g id="a_node11"><a xlink:href="setjmp_8h.html" target="_top" xlink:title=" ">
<polygon fill="white" stroke="black" points="188,-56.5 188,-75.5 241,-75.5 241,-56.5 188,-56.5"/>
<text text-anchor="middle" x="214.5" y="-63.5" font-family="Helvetica,sans-Serif" font-size="10.00">setjmp.h</text>
</a>
</g>
</g>
<!-- Node8&#45;&gt;Node11 -->
<g id="edge14" class="edge">
<title>Node8&#45;&gt;Node11</title>
<path fill="none" stroke="midnightblue" d="M148.72,-168.28C157.55,-159.62 170.93,-145.68 180.5,-132 190.97,-117.03 200.38,-98.43 206.63,-84.97"/>
<polygon fill="midnightblue" stroke="midnightblue" points="209.84,-86.37 210.76,-75.82 203.46,-83.49 209.84,-86.37"/>
</g>
<!-- Node9&#45;&gt;Node3 -->
<g id="edge9" class="edge">
<title>Node9&#45;&gt;Node3</title>
<path fill="none" stroke="midnightblue" d="M121.44,-56.44C102.93,-47.68 73.92,-33.94 52.64,-23.86"/>
<polygon fill="midnightblue" stroke="midnightblue" points="54.01,-20.63 43.48,-19.52 51.02,-26.96 54.01,-20.63"/>
</g>
<!-- Node9&#45;&gt;Node6 -->
<g id="edge10" class="edge">
<title>Node9&#45;&gt;Node6</title>
<path fill="none" stroke="midnightblue" d="M139.5,-56.08C139.5,-49.01 139.5,-38.86 139.5,-29.99"/>
<polygon fill="midnightblue" stroke="midnightblue" points="143,-29.75 139.5,-19.75 136,-29.75 143,-29.75"/>
</g>
<!-- Node10&#45;&gt;Node9 -->
<g id="edge12" class="edge">
<title>Node10&#45;&gt;Node9</title>
<path fill="none" stroke="midnightblue" d="M139.5,-112.08C139.5,-105.01 139.5,-94.86 139.5,-85.99"/>
<polygon fill="midnightblue" stroke="midnightblue" points="143,-85.75 139.5,-75.75 136,-85.75 143,-85.75"/>
</g>
<!-- Node11&#45;&gt;Node6 -->
<g id="edge15" class="edge">
<title>Node11&#45;&gt;Node6</title>
<path fill="none" stroke="midnightblue" d="M202.45,-56.32C191.04,-48.11 173.67,-35.6 160.07,-25.81"/>
<polygon fill="midnightblue" stroke="midnightblue" points="161.93,-22.84 151.77,-19.83 157.84,-28.52 161.93,-22.84"/>
</g>
</g>
</svg>
