<?xml version="1.0" encoding="UTF-8" standalone="no"?>
<!DOCTYPE svg PUBLIC "-//W3C//DTD SVG 1.1//EN"
 "http://www.w3.org/Graphics/SVG/1.1/DTD/svg11.dtd">
<!-- Generated by graphviz version 2.46.1 (20210215.1649)
 -->
<!-- Title: iop/fs/fakehost/src/fakehost.c Pages: 1 -->
<svg width="748pt" height="263pt"
 viewBox="0.00 0.00 748.00 263.00" xmlns="http://www.w3.org/2000/svg" xmlns:xlink="http://www.w3.org/1999/xlink">
<g id="graph0" class="graph" transform="scale(1 1) rotate(0) translate(4 259)">
<title>iop/fs/fakehost/src/fakehost.c</title>
<polygon fill="white" stroke="transparent" points="-4,4 -4,-259 744,-259 744,4 -4,4"/>
<!-- Node1 -->
<g id="node1" class="node">
<title>Node1</title>
<g id="a_node1"><a xlink:title=" ">
<polygon fill="#bfbfbf" stroke="black" points="295.5,-224.5 295.5,-254.5 393.5,-254.5 393.5,-224.5 295.5,-224.5"/>
<text text-anchor="start" x="303.5" y="-242.5" font-family="Helvetica,sans-Serif" font-size="10.00">iop/fs/fakehost/src</text>
<text text-anchor="middle" x="344.5" y="-231.5" font-family="Helvetica,sans-Serif" font-size="10.00">/fakehost.c</text>
</a>
</g>
</g>
<!-- Node2 -->
<g id="node2" class="node">
<title>Node2</title>
<g id="a_node2"><a xlink:title=" ">
<polygon fill="white" stroke="#bfbfbf" points="0,-168.5 0,-187.5 47,-187.5 47,-168.5 0,-168.5"/>
<text text-anchor="middle" x="23.5" y="-175.5" font-family="Helvetica,sans-Serif" font-size="10.00">types.h</text>
</a>
</g>
</g>
<!-- Node1&#45;&gt;Node2 -->
<g id="edge1" class="edge">
<title>Node1&#45;&gt;Node2</title>
<path fill="none" stroke="midnightblue" d="M295.31,-231.3C239.77,-222.85 146.57,-207.72 57,-187.93"/>
<polygon fill="midnightblue" stroke="midnightblue" points="57.75,-184.52 47.23,-185.75 56.23,-191.35 57.75,-184.52"/>
</g>
<!-- Node3 -->
<g id="node3" class="node">
<title>Node3</title>
<g id="a_node3"><a xlink:href="stdio_8h.html" target="_top" xlink:title=" ">
<polygon fill="white" stroke="black" points="138,-168.5 138,-187.5 183,-187.5 183,-168.5 138,-168.5"/>
<text text-anchor="middle" x="160.5" y="-175.5" font-family="Helvetica,sans-Serif" font-size="10.00">stdio.h</text>
</a>
</g>
</g>
<!-- Node1&#45;&gt;Node3 -->
<g id="edge2" class="edge">
<title>Node1&#45;&gt;Node3</title>
<path fill="none" stroke="midnightblue" d="M300.89,-224.4C267.67,-213.65 222.67,-199.1 192.66,-189.4"/>
<polygon fill="midnightblue" stroke="midnightblue" points="193.69,-186.06 183.1,-186.31 191.54,-192.72 193.69,-186.06"/>
</g>
<!-- Node9 -->
<g id="node9" class="node">
<title>Node9</title>
<g id="a_node9"><a xlink:href="sysclib_8h.html" target="_top" xlink:title=" ">
<polygon fill="white" stroke="black" points="65.5,-168.5 65.5,-187.5 119.5,-187.5 119.5,-168.5 65.5,-168.5"/>
<text text-anchor="middle" x="92.5" y="-175.5" font-family="Helvetica,sans-Serif" font-size="10.00">sysclib.h</text>
</a>
</g>
</g>
<!-- Node1&#45;&gt;Node9 -->
<g id="edge8" class="edge">
<title>Node1&#45;&gt;Node9</title>
<path fill="none" stroke="midnightblue" d="M295.12,-227.18C253.53,-217.6 192.2,-203.35 129.66,-188.25"/>
<polygon fill="midnightblue" stroke="midnightblue" points="130.16,-184.77 119.62,-185.83 128.51,-191.58 130.16,-184.77"/>
</g>
<!-- Node11 -->
<g id="node11" class="node">
<title>Node11</title>
<g id="a_node11"><a xlink:href="thbase_8h.html" target="_top" xlink:title=" ">
<polygon fill="white" stroke="black" points="426,-168.5 426,-187.5 479,-187.5 479,-168.5 426,-168.5"/>
<text text-anchor="middle" x="452.5" y="-175.5" font-family="Helvetica,sans-Serif" font-size="10.00">thbase.h</text>
</a>
</g>
</g>
<!-- Node1&#45;&gt;Node11 -->
<g id="edge14" class="edge">
<title>Node1&#45;&gt;Node11</title>
<path fill="none" stroke="midnightblue" d="M370.09,-224.4C387.57,-214.77 410.59,-202.09 427.86,-192.58"/>
<polygon fill="midnightblue" stroke="midnightblue" points="429.72,-195.55 436.79,-187.66 426.34,-189.42 429.72,-195.55"/>
</g>
<!-- Node12 -->
<g id="node12" class="node">
<title>Node12</title>
<g id="a_node12"><a xlink:href="intrman_8h.html" target="_top" xlink:title=" ">
<polygon fill="white" stroke="black" points="280.5,-168.5 280.5,-187.5 336.5,-187.5 336.5,-168.5 280.5,-168.5"/>
<text text-anchor="middle" x="308.5" y="-175.5" font-family="Helvetica,sans-Serif" font-size="10.00">intrman.h</text>
</a>
</g>
</g>
<!-- Node1&#45;&gt;Node12 -->
<g id="edge17" class="edge">
<title>Node1&#45;&gt;Node12</title>
<path fill="none" stroke="midnightblue" d="M335.97,-224.4C330.9,-216.02 324.43,-205.33 319.04,-196.42"/>
<polygon fill="midnightblue" stroke="midnightblue" points="321.91,-194.4 313.74,-187.66 315.92,-198.03 321.91,-194.4"/>
</g>
<!-- Node13 -->
<g id="node13" class="node">
<title>Node13</title>
<g id="a_node13"><a xlink:href="sysmem_8h.html" target="_top" xlink:title=" ">
<polygon fill="white" stroke="black" points="201,-168.5 201,-187.5 262,-187.5 262,-168.5 201,-168.5"/>
<text text-anchor="middle" x="231.5" y="-175.5" font-family="Helvetica,sans-Serif" font-size="10.00">sysmem.h</text>
</a>
</g>
</g>
<!-- Node1&#45;&gt;Node13 -->
<g id="edge20" class="edge">
<title>Node1&#45;&gt;Node13</title>
<path fill="none" stroke="midnightblue" d="M317.72,-224.4C299.44,-214.77 275.35,-202.09 257.29,-192.58"/>
<polygon fill="midnightblue" stroke="midnightblue" points="258.42,-189.22 247.94,-187.66 255.16,-195.41 258.42,-189.22"/>
</g>
<!-- Node14 -->
<g id="node14" class="node">
<title>Node14</title>
<g id="a_node14"><a xlink:href="sifman_8h.html" target="_top" xlink:title=" ">
<polygon fill="white" stroke="black" points="355,-168.5 355,-187.5 408,-187.5 408,-168.5 355,-168.5"/>
<text text-anchor="middle" x="381.5" y="-175.5" font-family="Helvetica,sans-Serif" font-size="10.00">sifman.h</text>
</a>
</g>
</g>
<!-- Node1&#45;&gt;Node14 -->
<g id="edge24" class="edge">
<title>Node1&#45;&gt;Node14</title>
<path fill="none" stroke="midnightblue" d="M353.27,-224.4C358.48,-216.02 365.13,-205.33 370.67,-196.42"/>
<polygon fill="midnightblue" stroke="midnightblue" points="373.81,-198 376.12,-187.66 367.86,-194.3 373.81,-198"/>
</g>
<!-- Node15 -->
<g id="node15" class="node">
<title>Node15</title>
<g id="a_node15"><a xlink:title=" ">
<polygon fill="white" stroke="#bfbfbf" points="665,-168.5 665,-187.5 718,-187.5 718,-168.5 665,-168.5"/>
<text text-anchor="middle" x="691.5" y="-175.5" font-family="Helvetica,sans-Serif" font-size="10.00">sifcmd.h</text>
</a>
</g>
</g>
<!-- Node1&#45;&gt;Node15 -->
<g id="edge27" class="edge">
<title>Node1&#45;&gt;Node15</title>
<path fill="none" stroke="midnightblue" d="M393.75,-231.81C453.28,-223.43 556.68,-207.95 655.02,-187.95"/>
<polygon fill="midnightblue" stroke="midnightblue" points="655.73,-191.37 664.82,-185.93 654.32,-184.52 655.73,-191.37"/>
</g>
<!-- Node16 -->
<g id="node16" class="node">
<title>Node16</title>
<g id="a_node16"><a xlink:href="ioman_x_8h.html" target="_top" xlink:title=" ">
<polygon fill="white" stroke="black" points="497,-168.5 497,-187.5 554,-187.5 554,-168.5 497,-168.5"/>
<text text-anchor="middle" x="525.5" y="-175.5" font-family="Helvetica,sans-Serif" font-size="10.00">iomanX.h</text>
</a>
</g>
</g>
<!-- Node1&#45;&gt;Node16 -->
<g id="edge28" class="edge">
<title>Node1&#45;&gt;Node16</title>
<path fill="none" stroke="midnightblue" d="M387.39,-224.4C418.53,-214.16 460.19,-200.47 489.58,-190.81"/>
<polygon fill="midnightblue" stroke="midnightblue" points="491.02,-194.02 499.43,-187.57 488.83,-187.37 491.02,-194.02"/>
</g>
<!-- Node22 -->
<g id="node22" class="node">
<title>Node22</title>
<g id="a_node22"><a xlink:href="ioman__mod_8h.html" target="_top" xlink:title=" ">
<polygon fill="white" stroke="black" points="572.5,-168.5 572.5,-187.5 646.5,-187.5 646.5,-168.5 572.5,-168.5"/>
<text text-anchor="middle" x="609.5" y="-175.5" font-family="Helvetica,sans-Serif" font-size="10.00">ioman_mod.h</text>
</a>
</g>
</g>
<!-- Node1&#45;&gt;Node22 -->
<g id="edge36" class="edge">
<title>Node1&#45;&gt;Node22</title>
<path fill="none" stroke="midnightblue" d="M393.72,-227.45C441.97,-216.61 515,-200.22 562.48,-189.56"/>
<polygon fill="midnightblue" stroke="midnightblue" points="563.5,-192.91 572.49,-187.31 561.97,-186.08 563.5,-192.91"/>
</g>
<!-- Node4 -->
<g id="node4" class="node">
<title>Node4</title>
<g id="a_node4"><a xlink:title=" ">
<polygon fill="white" stroke="#bfbfbf" points="159,-112.5 159,-131.5 210,-131.5 210,-112.5 159,-112.5"/>
<text text-anchor="middle" x="184.5" y="-119.5" font-family="Helvetica,sans-Serif" font-size="10.00">stdarg.h</text>
</a>
</g>
</g>
<!-- Node3&#45;&gt;Node4 -->
<g id="edge3" class="edge">
<title>Node3&#45;&gt;Node4</title>
<path fill="none" stroke="midnightblue" d="M164.46,-168.08C167.71,-160.77 172.42,-150.18 176.45,-141.1"/>
<polygon fill="midnightblue" stroke="midnightblue" points="179.75,-142.31 180.61,-131.75 173.35,-139.47 179.75,-142.31"/>
</g>
<!-- Node5 -->
<g id="node5" class="node">
<title>Node5</title>
<g id="a_node5"><a xlink:href="irx_8h.html" target="_top" xlink:title=" ">
<polygon fill="white" stroke="black" points="320.5,-112.5 320.5,-131.5 354.5,-131.5 354.5,-112.5 320.5,-112.5"/>
<text text-anchor="middle" x="337.5" y="-119.5" font-family="Helvetica,sans-Serif" font-size="10.00">irx.h</text>
</a>
</g>
</g>
<!-- Node3&#45;&gt;Node5 -->
<g id="edge4" class="edge">
<title>Node3&#45;&gt;Node5</title>
<path fill="none" stroke="midnightblue" d="M183.28,-170.05C215.77,-160.14 275.34,-141.96 310.17,-131.34"/>
<polygon fill="midnightblue" stroke="midnightblue" points="311.58,-134.57 320.13,-128.3 309.54,-127.87 311.58,-134.57"/>
</g>
<!-- Node6 -->
<g id="node6" class="node">
<title>Node6</title>
<g id="a_node6"><a xlink:href="types_8h_source.html" target="_top" xlink:title=" ">
<polygon fill="white" stroke="black" points="314,-56.5 314,-75.5 361,-75.5 361,-56.5 314,-56.5"/>
<text text-anchor="middle" x="337.5" y="-63.5" font-family="Helvetica,sans-Serif" font-size="10.00">types.h</text>
</a>
</g>
</g>
<!-- Node5&#45;&gt;Node6 -->
<g id="edge5" class="edge">
<title>Node5&#45;&gt;Node6</title>
<path fill="none" stroke="midnightblue" d="M337.5,-112.08C337.5,-105.01 337.5,-94.86 337.5,-85.99"/>
<polygon fill="midnightblue" stroke="midnightblue" points="341,-85.75 337.5,-75.75 334,-85.75 341,-85.75"/>
</g>
<!-- Node7 -->
<g id="node7" class="node">
<title>Node7</title>
<g id="a_node7"><a xlink:title=" ">
<polygon fill="white" stroke="#bfbfbf" points="312,-0.5 312,-19.5 363,-19.5 363,-0.5 312,-0.5"/>
<text text-anchor="middle" x="337.5" y="-7.5" font-family="Helvetica,sans-Serif" font-size="10.00">stddef.h</text>
</a>
</g>
</g>
<!-- Node6&#45;&gt;Node7 -->
<g id="edge6" class="edge">
<title>Node6&#45;&gt;Node7</title>
<path fill="none" stroke="midnightblue" d="M337.5,-56.08C337.5,-49.01 337.5,-38.86 337.5,-29.99"/>
<polygon fill="midnightblue" stroke="midnightblue" points="341,-29.75 337.5,-19.75 334,-29.75 341,-29.75"/>
</g>
<!-- Node8 -->
<g id="node8" class="node">
<title>Node8</title>
<g id="a_node8"><a xlink:href="tamtypes_8h.html" target="_top" xlink:title=" ">
<polygon fill="white" stroke="black" points="187.5,-0.5 187.5,-19.5 251.5,-19.5 251.5,-0.5 187.5,-0.5"/>
<text text-anchor="middle" x="219.5" y="-7.5" font-family="Helvetica,sans-Serif" font-size="10.00">tamtypes.h</text>
</a>
</g>
</g>
<!-- Node6&#45;&gt;Node8 -->
<g id="edge7" class="edge">
<title>Node6&#45;&gt;Node8</title>
<path fill="none" stroke="midnightblue" d="M318.8,-56.44C299.56,-47.64 269.35,-33.81 247.3,-23.72"/>
<polygon fill="midnightblue" stroke="midnightblue" points="248.66,-20.5 238.11,-19.52 245.75,-26.86 248.66,-20.5"/>
</g>
<!-- Node9&#45;&gt;Node4 -->
<g id="edge11" class="edge">
<title>Node9&#45;&gt;Node4</title>
<path fill="none" stroke="midnightblue" d="M107.28,-168.32C121.77,-159.82 144.07,-146.73 160.99,-136.8"/>
<polygon fill="midnightblue" stroke="midnightblue" points="162.9,-139.74 169.76,-131.65 159.36,-133.7 162.9,-139.74"/>
</g>
<!-- Node9&#45;&gt;Node5 -->
<g id="edge10" class="edge">
<title>Node9&#45;&gt;Node5</title>
<path fill="none" stroke="midnightblue" d="M119.6,-170.12C122.6,-169.39 125.61,-168.67 128.5,-168 193.57,-152.87 270.46,-136.77 310.38,-128.54"/>
<polygon fill="midnightblue" stroke="midnightblue" points="311.3,-131.93 320.39,-126.49 309.89,-125.07 311.3,-131.93"/>
</g>
<!-- Node9&#45;&gt;Node6 -->
<g id="edge9" class="edge">
<title>Node9&#45;&gt;Node6</title>
<path fill="none" stroke="midnightblue" d="M97.59,-168.31C106.34,-154.2 125.6,-126.42 149.5,-112 197.93,-82.78 264.08,-72.53 303.63,-68.94"/>
<polygon fill="midnightblue" stroke="midnightblue" points="304.12,-72.41 313.8,-68.11 303.55,-65.43 304.12,-72.41"/>
</g>
<!-- Node10 -->
<g id="node10" class="node">
<title>Node10</title>
<g id="a_node10"><a xlink:href="setjmp_8h.html" target="_top" xlink:title=" ">
<polygon fill="white" stroke="black" points="109,-56.5 109,-75.5 162,-75.5 162,-56.5 109,-56.5"/>
<text text-anchor="middle" x="135.5" y="-63.5" font-family="Helvetica,sans-Serif" font-size="10.00">setjmp.h</text>
</a>
</g>
</g>
<!-- Node9&#45;&gt;Node10 -->
<g id="edge12" class="edge">
<title>Node9&#45;&gt;Node10</title>
<path fill="none" stroke="midnightblue" d="M95.63,-168.12C100.1,-155.56 108.63,-131.91 116.5,-112 120.05,-103.02 124.21,-93.12 127.72,-84.9"/>
<polygon fill="midnightblue" stroke="midnightblue" points="130.99,-86.15 131.74,-75.58 124.57,-83.38 130.99,-86.15"/>
</g>
<!-- Node10&#45;&gt;Node8 -->
<g id="edge13" class="edge">
<title>Node10&#45;&gt;Node8</title>
<path fill="none" stroke="midnightblue" d="M149,-56.32C162.1,-47.9 182.21,-34.97 197.61,-25.07"/>
<polygon fill="midnightblue" stroke="midnightblue" points="199.52,-28.01 206.04,-19.65 195.73,-22.12 199.52,-28.01"/>
</g>
<!-- Node11&#45;&gt;Node5 -->
<g id="edge16" class="edge">
<title>Node11&#45;&gt;Node5</title>
<path fill="none" stroke="midnightblue" d="M434.28,-168.44C415.27,-159.52 385.31,-145.45 363.75,-135.33"/>
<polygon fill="midnightblue" stroke="midnightblue" points="365.05,-132.07 354.51,-130.99 362.08,-138.41 365.05,-132.07"/>
</g>
<!-- Node11&#45;&gt;Node6 -->
<g id="edge15" class="edge">
<title>Node11&#45;&gt;Node6</title>
<path fill="none" stroke="midnightblue" d="M443.48,-168.37C424.16,-149.89 378.58,-106.29 353.96,-82.74"/>
<polygon fill="midnightblue" stroke="midnightblue" points="356.13,-79.97 346.48,-75.59 351.29,-85.03 356.13,-79.97"/>
</g>
<!-- Node12&#45;&gt;Node5 -->
<g id="edge19" class="edge">
<title>Node12&#45;&gt;Node5</title>
<path fill="none" stroke="midnightblue" d="M313.29,-168.08C317.26,-160.69 323.03,-149.95 327.93,-140.81"/>
<polygon fill="midnightblue" stroke="midnightblue" points="331.15,-142.22 332.8,-131.75 324.99,-138.91 331.15,-142.22"/>
</g>
<!-- Node12&#45;&gt;Node6 -->
<g id="edge18" class="edge">
<title>Node12&#45;&gt;Node6</title>
<path fill="none" stroke="midnightblue" d="M307.62,-168.37C306.62,-155.72 305.78,-131.51 311.5,-112 314.38,-102.17 319.82,-92.2 324.99,-84.16"/>
<polygon fill="midnightblue" stroke="midnightblue" points="328,-85.95 330.75,-75.72 322.22,-82 328,-85.95"/>
</g>
<!-- Node13&#45;&gt;Node4 -->
<g id="edge23" class="edge">
<title>Node13&#45;&gt;Node4</title>
<path fill="none" stroke="midnightblue" d="M223.74,-168.08C216.96,-160.3 206.96,-148.8 198.74,-139.37"/>
<polygon fill="midnightblue" stroke="midnightblue" points="201.32,-137 192.12,-131.75 196.04,-141.59 201.32,-137"/>
</g>
<!-- Node13&#45;&gt;Node5 -->
<g id="edge22" class="edge">
<title>Node13&#45;&gt;Node5</title>
<path fill="none" stroke="midnightblue" d="M248.53,-168.32C265.53,-159.66 291.88,-146.24 311.49,-136.25"/>
<polygon fill="midnightblue" stroke="midnightblue" points="313.19,-139.31 320.51,-131.65 310.01,-133.08 313.19,-139.31"/>
</g>
<!-- Node13&#45;&gt;Node6 -->
<g id="edge21" class="edge">
<title>Node13&#45;&gt;Node6</title>
<path fill="none" stroke="midnightblue" d="M239.82,-168.37C257.54,-149.97 299.27,-106.67 322.03,-83.05"/>
<polygon fill="midnightblue" stroke="midnightblue" points="324.8,-85.22 329.22,-75.59 319.76,-80.36 324.8,-85.22"/>
</g>
<!-- Node14&#45;&gt;Node5 -->
<g id="edge26" class="edge">
<title>Node14&#45;&gt;Node5</title>
<path fill="none" stroke="midnightblue" d="M374.23,-168.08C367.96,-160.38 358.71,-149.03 351.07,-139.65"/>
<polygon fill="midnightblue" stroke="midnightblue" points="353.66,-137.29 344.63,-131.75 348.23,-141.71 353.66,-137.29"/>
</g>
<!-- Node14&#45;&gt;Node6 -->
<g id="edge25" class="edge">
<title>Node14&#45;&gt;Node6</title>
<path fill="none" stroke="midnightblue" d="M379.84,-168.35C377.24,-155.68 371.65,-131.44 363.5,-112 359.49,-102.43 353.83,-92.38 348.82,-84.21"/>
<polygon fill="midnightblue" stroke="midnightblue" points="351.69,-82.19 343.37,-75.62 345.78,-85.94 351.69,-82.19"/>
</g>
<!-- Node16&#45;&gt;Node5 -->
<g id="edge30" class="edge">
<title>Node16&#45;&gt;Node5</title>
<path fill="none" stroke="midnightblue" d="M496.95,-168.8C461.01,-158.48 399.75,-140.88 364.55,-130.77"/>
<polygon fill="midnightblue" stroke="midnightblue" points="365.09,-127.28 354.51,-127.89 363.16,-134.01 365.09,-127.28"/>
</g>
<!-- Node16&#45;&gt;Node6 -->
<g id="edge29" class="edge">
<title>Node16&#45;&gt;Node6</title>
<path fill="none" stroke="midnightblue" d="M510.75,-168.37C478.21,-149.33 400.08,-103.62 360.83,-80.65"/>
<polygon fill="midnightblue" stroke="midnightblue" points="362.58,-77.62 352.18,-75.59 359.05,-83.66 362.58,-77.62"/>
</g>
<!-- Node17 -->
<g id="node17" class="node">
<title>Node17</title>
<g id="a_node17"><a xlink:href="io__common_8h.html" target="_top" xlink:title=" ">
<polygon fill="white" stroke="black" points="609.5,-112.5 609.5,-131.5 683.5,-131.5 683.5,-112.5 609.5,-112.5"/>
<text text-anchor="middle" x="646.5" y="-119.5" font-family="Helvetica,sans-Serif" font-size="10.00">io_common.h</text>
</a>
</g>
</g>
<!-- Node16&#45;&gt;Node17 -->
<g id="edge31" class="edge">
<title>Node16&#45;&gt;Node17</title>
<path fill="none" stroke="midnightblue" d="M544.67,-168.44C564.41,-159.64 595.39,-145.81 617.99,-135.72"/>
<polygon fill="midnightblue" stroke="midnightblue" points="619.71,-138.79 627.42,-131.52 616.86,-132.4 619.71,-138.79"/>
</g>
<!-- Node20 -->
<g id="node20" class="node">
<title>Node20</title>
<g id="a_node20"><a xlink:href="iox__stat_8h.html" target="_top" xlink:title=" ">
<polygon fill="white" stroke="black" points="495.5,-112.5 495.5,-131.5 553.5,-131.5 553.5,-112.5 495.5,-112.5"/>
<text text-anchor="middle" x="524.5" y="-119.5" font-family="Helvetica,sans-Serif" font-size="10.00">iox_stat.h</text>
</a>
</g>
</g>
<!-- Node16&#45;&gt;Node20 -->
<g id="edge34" class="edge">
<title>Node16&#45;&gt;Node20</title>
<path fill="none" stroke="midnightblue" d="M525.33,-168.08C525.2,-161.01 525.02,-150.86 524.85,-141.99"/>
<polygon fill="midnightblue" stroke="midnightblue" points="528.35,-141.68 524.66,-131.75 521.35,-141.81 528.35,-141.68"/>
</g>
<!-- Node18 -->
<g id="node18" class="node">
<title>Node18</title>
<g id="a_node18"><a xlink:href="fcntl_8h_source.html" target="_top" xlink:title=" ">
<polygon fill="white" stroke="black" points="679,-56.5 679,-75.5 740,-75.5 740,-56.5 679,-56.5"/>
<text text-anchor="middle" x="709.5" y="-63.5" font-family="Helvetica,sans-Serif" font-size="10.00">sys/fcntl.h</text>
</a>
</g>
</g>
<!-- Node17&#45;&gt;Node18 -->
<g id="edge32" class="edge">
<title>Node17&#45;&gt;Node18</title>
<path fill="none" stroke="midnightblue" d="M656.62,-112.32C666.03,-104.26 680.24,-92.08 691.57,-82.37"/>
<polygon fill="midnightblue" stroke="midnightblue" points="693.88,-85 699.19,-75.83 689.32,-79.68 693.88,-85"/>
</g>
<!-- Node19 -->
<g id="node19" class="node">
<title>Node19</title>
<g id="a_node19"><a xlink:href="unistd_8h_source.html" target="_top" xlink:title=" ">
<polygon fill="white" stroke="black" points="592.5,-56.5 592.5,-75.5 660.5,-75.5 660.5,-56.5 592.5,-56.5"/>
<text text-anchor="middle" x="626.5" y="-63.5" font-family="Helvetica,sans-Serif" font-size="10.00">sys/unistd.h</text>
</a>
</g>
</g>
<!-- Node17&#45;&gt;Node19 -->
<g id="edge33" class="edge">
<title>Node17&#45;&gt;Node19</title>
<path fill="none" stroke="midnightblue" d="M643.2,-112.08C640.52,-104.85 636.65,-94.41 633.31,-85.4"/>
<polygon fill="midnightblue" stroke="midnightblue" points="636.5,-83.91 629.74,-75.75 629.93,-86.34 636.5,-83.91"/>
</g>
<!-- Node21 -->
<g id="node21" class="node">
<title>Node21</title>
<g id="a_node21"><a xlink:href="time_8h.html" target="_top" xlink:title=" ">
<polygon fill="white" stroke="black" points="494,-56.5 494,-75.5 555,-75.5 555,-56.5 494,-56.5"/>
<text text-anchor="middle" x="524.5" y="-63.5" font-family="Helvetica,sans-Serif" font-size="10.00">sys/time.h</text>
</a>
</g>
</g>
<!-- Node20&#45;&gt;Node21 -->
<g id="edge35" class="edge">
<title>Node20&#45;&gt;Node21</title>
<path fill="none" stroke="midnightblue" d="M524.5,-112.08C524.5,-105.01 524.5,-94.86 524.5,-85.99"/>
<polygon fill="midnightblue" stroke="midnightblue" points="528,-85.75 524.5,-75.75 521,-85.75 528,-85.75"/>
</g>
<!-- Node22&#45;&gt;Node5 -->
<g id="edge38" class="edge">
<title>Node22&#45;&gt;Node5</title>
<path fill="none" stroke="midnightblue" d="M572.25,-169.6C516.67,-158.57 413.37,-138.06 364.48,-128.36"/>
<polygon fill="midnightblue" stroke="midnightblue" points="365.13,-124.92 354.64,-126.4 363.76,-131.78 365.13,-124.92"/>
</g>
<!-- Node22&#45;&gt;Node6 -->
<g id="edge37" class="edge">
<title>Node22&#45;&gt;Node6</title>
<path fill="none" stroke="midnightblue" d="M605.77,-168.22C599.23,-153.97 584.29,-126 562.5,-112 503.11,-73.84 418.14,-66.95 371.45,-66.32"/>
<polygon fill="midnightblue" stroke="midnightblue" points="371.28,-62.82 361.27,-66.28 371.25,-69.82 371.28,-62.82"/>
</g>
<!-- Node22&#45;&gt;Node17 -->
<g id="edge39" class="edge">
<title>Node22&#45;&gt;Node17</title>
<path fill="none" stroke="midnightblue" d="M615.61,-168.08C620.78,-160.53 628.35,-149.49 634.69,-140.23"/>
<polygon fill="midnightblue" stroke="midnightblue" points="637.74,-141.98 640.5,-131.75 631.96,-138.02 637.74,-141.98"/>
</g>
<!-- Node22&#45;&gt;Node20 -->
<g id="edge40" class="edge">
<title>Node22&#45;&gt;Node20</title>
<path fill="none" stroke="midnightblue" d="M595.84,-168.32C582.58,-159.9 562.23,-146.97 546.65,-137.07"/>
<polygon fill="midnightblue" stroke="midnightblue" points="548.44,-134.06 538.12,-131.65 544.69,-139.97 548.44,-134.06"/>
</g>
</g>
</svg>
