<?xml version="1.0" encoding="UTF-8" standalone="no"?>
<!DOCTYPE svg PUBLIC "-//W3C//DTD SVG 1.1//EN"
 "http://www.w3.org/Graphics/SVG/1.1/DTD/svg11.dtd">
<!-- Generated by graphviz version 2.46.1 (20210215.1649)
 -->
<!-- Title: ee/rpc/filexio/src/fileXio_rpc.c Pages: 1 -->
<svg width="784pt" height="319pt"
 viewBox="0.00 0.00 784.41 319.00" xmlns="http://www.w3.org/2000/svg" xmlns:xlink="http://www.w3.org/1999/xlink">
<g id="graph0" class="graph" transform="scale(1 1) rotate(0) translate(4 315)">
<title>ee/rpc/filexio/src/fileXio_rpc.c</title>
<polygon fill="white" stroke="transparent" points="-4,4 -4,-315 780.41,-315 780.41,4 -4,4"/>
<!-- Node1 -->
<g id="node1" class="node">
<title>Node1</title>
<g id="a_node1"><a xlink:title=" ">
<polygon fill="#bfbfbf" stroke="black" points="323.91,-280.5 323.91,-310.5 410.91,-310.5 410.91,-280.5 323.91,-280.5"/>
<text text-anchor="start" x="331.91" y="-298.5" font-family="Helvetica,sans-Serif" font-size="10.00">ee/rpc/filexio/src</text>
<text text-anchor="middle" x="367.41" y="-287.5" font-family="Helvetica,sans-Serif" font-size="10.00">/fileXio_rpc.c</text>
</a>
</g>
</g>
<!-- Node2 -->
<g id="node2" class="node">
<title>Node2</title>
<g id="a_node2"><a xlink:href="tamtypes_8h.html" target="_top" xlink:title=" ">
<polygon fill="white" stroke="black" points="188.41,-0.5 188.41,-19.5 252.41,-19.5 252.41,-0.5 188.41,-0.5"/>
<text text-anchor="middle" x="220.41" y="-7.5" font-family="Helvetica,sans-Serif" font-size="10.00">tamtypes.h</text>
</a>
</g>
</g>
<!-- Node1&#45;&gt;Node2 -->
<g id="edge1" class="edge">
<title>Node1&#45;&gt;Node2</title>
<path fill="none" stroke="midnightblue" d="M335.6,-280.38C320.25,-271.97 302.92,-259.82 292.41,-244 245.3,-173.06 290.73,-133.49 255.41,-56 250.66,-45.57 243.04,-35.37 236.13,-27.33"/>
<polygon fill="midnightblue" stroke="midnightblue" points="238.63,-24.87 229.33,-19.8 233.44,-29.57 238.63,-24.87"/>
</g>
<!-- Node3 -->
<g id="node3" class="node">
<title>Node3</title>
<g id="a_node3"><a xlink:href="kernel_8h.html" target="_top" xlink:title=" ">
<polygon fill="white" stroke="black" points="195.41,-168.5 195.41,-187.5 245.41,-187.5 245.41,-168.5 195.41,-168.5"/>
<text text-anchor="middle" x="220.41" y="-175.5" font-family="Helvetica,sans-Serif" font-size="10.00">kernel.h</text>
</a>
</g>
</g>
<!-- Node1&#45;&gt;Node3 -->
<g id="edge2" class="edge">
<title>Node1&#45;&gt;Node3</title>
<path fill="none" stroke="midnightblue" d="M323.71,-280.87C302.53,-272.67 277.78,-260.57 259.41,-244 244.94,-230.95 234.16,-211.25 227.65,-196.96"/>
<polygon fill="midnightblue" stroke="midnightblue" points="230.82,-195.49 223.66,-187.68 224.39,-198.25 230.82,-195.49"/>
</g>
<!-- Node5 -->
<g id="node5" class="node">
<title>Node5</title>
<g id="a_node5"><a xlink:title=" ">
<polygon fill="white" stroke="#bfbfbf" points="96.91,-112.5 96.91,-131.5 147.91,-131.5 147.91,-112.5 96.91,-112.5"/>
<text text-anchor="middle" x="122.41" y="-119.5" font-family="Helvetica,sans-Serif" font-size="10.00">stdarg.h</text>
</a>
</g>
</g>
<!-- Node1&#45;&gt;Node5 -->
<g id="edge22" class="edge">
<title>Node1&#45;&gt;Node5</title>
<path fill="none" stroke="midnightblue" d="M323.68,-282.38C297.84,-274.01 265.23,-261.25 239.41,-244 195.05,-214.36 154.45,-165.45 134.82,-139.84"/>
<polygon fill="midnightblue" stroke="midnightblue" points="137.37,-137.41 128.56,-131.53 131.78,-141.62 137.37,-137.41"/>
</g>
<!-- Node7 -->
<g id="node7" class="node">
<title>Node7</title>
<g id="a_node7"><a xlink:title=" ">
<polygon fill="white" stroke="#bfbfbf" points="513.41,-224.5 513.41,-243.5 561.41,-243.5 561.41,-224.5 513.41,-224.5"/>
<text text-anchor="middle" x="537.41" y="-231.5" font-family="Helvetica,sans-Serif" font-size="10.00">sifrpc.h</text>
</a>
</g>
</g>
<!-- Node1&#45;&gt;Node7 -->
<g id="edge7" class="edge">
<title>Node1&#45;&gt;Node7</title>
<path fill="none" stroke="midnightblue" d="M407.7,-280.4C436.91,-270.18 475.96,-256.51 503.56,-246.85"/>
<polygon fill="midnightblue" stroke="midnightblue" points="504.89,-250.09 513.17,-243.48 502.57,-243.48 504.89,-250.09"/>
</g>
<!-- Node8 -->
<g id="node8" class="node">
<title>Node8</title>
<g id="a_node8"><a xlink:href="stdio_8h.html" target="_top" xlink:title=" ">
<polygon fill="white" stroke="black" points="93.91,-168.5 93.91,-187.5 138.91,-187.5 138.91,-168.5 93.91,-168.5"/>
<text text-anchor="middle" x="116.41" y="-175.5" font-family="Helvetica,sans-Serif" font-size="10.00">stdio.h</text>
</a>
</g>
</g>
<!-- Node1&#45;&gt;Node8 -->
<g id="edge8" class="edge">
<title>Node1&#45;&gt;Node8</title>
<path fill="none" stroke="midnightblue" d="M323.78,-294.16C277.26,-291.69 203.53,-281.51 153.41,-244 137.85,-232.35 127.84,-212.11 122.2,-197.3"/>
<polygon fill="midnightblue" stroke="midnightblue" points="125.45,-195.97 118.86,-187.68 118.84,-198.27 125.45,-195.97"/>
</g>
<!-- Node11 -->
<g id="node11" class="node">
<title>Node11</title>
<g id="a_node11"><a xlink:href="string_8h_source.html" target="_top" xlink:title=" ">
<polygon fill="white" stroke="black" points="33.41,-224.5 33.41,-243.5 81.41,-243.5 81.41,-224.5 33.41,-224.5"/>
<text text-anchor="middle" x="57.41" y="-231.5" font-family="Helvetica,sans-Serif" font-size="10.00">string.h</text>
</a>
</g>
</g>
<!-- Node1&#45;&gt;Node11 -->
<g id="edge14" class="edge">
<title>Node1&#45;&gt;Node11</title>
<path fill="none" stroke="midnightblue" d="M323.65,-286.1C261.28,-274.13 148.1,-252.41 91.52,-241.55"/>
<polygon fill="midnightblue" stroke="midnightblue" points="92.12,-238.1 81.64,-239.65 90.81,-244.97 92.12,-238.1"/>
</g>
<!-- Node14 -->
<g id="node14" class="node">
<title>Node14</title>
<g id="a_node14"><a xlink:title=" ">
<polygon fill="white" stroke="#bfbfbf" points="579.91,-224.5 579.91,-243.5 632.91,-243.5 632.91,-224.5 579.91,-224.5"/>
<text text-anchor="middle" x="606.41" y="-231.5" font-family="Helvetica,sans-Serif" font-size="10.00">malloc.h</text>
</a>
</g>
</g>
<!-- Node1&#45;&gt;Node14 -->
<g id="edge21" class="edge">
<title>Node1&#45;&gt;Node14</title>
<path fill="none" stroke="midnightblue" d="M410.97,-283.68C450,-273.98 509.06,-259.29 569.9,-244.13"/>
<polygon fill="midnightblue" stroke="midnightblue" points="570.82,-247.5 579.68,-241.69 569.13,-240.71 570.82,-247.5"/>
</g>
<!-- Node15 -->
<g id="node15" class="node">
<title>Node15</title>
<g id="a_node15"><a xlink:href="fcntl_8h_source.html" target="_top" xlink:title=" ">
<polygon fill="white" stroke="black" points="650.91,-224.5 650.91,-243.5 711.91,-243.5 711.91,-224.5 650.91,-224.5"/>
<text text-anchor="middle" x="681.41" y="-231.5" font-family="Helvetica,sans-Serif" font-size="10.00">sys/fcntl.h</text>
</a>
</g>
</g>
<!-- Node1&#45;&gt;Node15 -->
<g id="edge23" class="edge">
<title>Node1&#45;&gt;Node15</title>
<path fill="none" stroke="midnightblue" d="M411.35,-287.06C463.72,-278.06 554.11,-262.07 640.78,-244.27"/>
<polygon fill="midnightblue" stroke="midnightblue" points="641.7,-247.66 650.78,-242.21 640.28,-240.8 641.7,-247.66"/>
</g>
<!-- Node16 -->
<g id="node16" class="node">
<title>Node16</title>
<g id="a_node16"><a xlink:title=" ">
<polygon fill="white" stroke="#bfbfbf" points="369.91,-168.5 369.91,-187.5 428.91,-187.5 428.91,-168.5 369.91,-168.5"/>
<text text-anchor="middle" x="399.41" y="-175.5" font-family="Helvetica,sans-Serif" font-size="10.00">sys/stat.h</text>
</a>
</g>
</g>
<!-- Node1&#45;&gt;Node16 -->
<g id="edge24" class="edge">
<title>Node1&#45;&gt;Node16</title>
<path fill="none" stroke="midnightblue" d="M371.33,-280.34C377.1,-259.53 387.87,-220.66 394.26,-197.58"/>
<polygon fill="midnightblue" stroke="midnightblue" points="397.71,-198.24 397.01,-187.67 390.97,-196.37 397.71,-198.24"/>
</g>
<!-- Node17 -->
<g id="node17" class="node">
<title>Node17</title>
<g id="a_node17"><a xlink:href="ps2sdkapi_8h_source.html" target="_top" xlink:title=" ">
<polygon fill="white" stroke="black" points="427.41,-224.5 427.41,-243.5 495.41,-243.5 495.41,-224.5 427.41,-224.5"/>
<text text-anchor="middle" x="461.41" y="-231.5" font-family="Helvetica,sans-Serif" font-size="10.00">ps2sdkapi.h</text>
</a>
</g>
</g>
<!-- Node1&#45;&gt;Node17 -->
<g id="edge25" class="edge">
<title>Node1&#45;&gt;Node17</title>
<path fill="none" stroke="midnightblue" d="M389.69,-280.4C404.61,-270.95 424.19,-258.56 439.12,-249.11"/>
<polygon fill="midnightblue" stroke="midnightblue" points="441.16,-251.96 447.73,-243.66 437.41,-246.05 441.16,-251.96"/>
</g>
<!-- Node20 -->
<g id="node20" class="node">
<title>Node20</title>
<g id="a_node20"><a xlink:href="file_xio__rpc_8h.html" target="_top" xlink:title=" ">
<polygon fill="white" stroke="black" points="301.91,-224.5 301.91,-243.5 370.91,-243.5 370.91,-224.5 301.91,-224.5"/>
<text text-anchor="middle" x="336.41" y="-231.5" font-family="Helvetica,sans-Serif" font-size="10.00">fileXio_rpc.h</text>
</a>
</g>
</g>
<!-- Node1&#45;&gt;Node20 -->
<g id="edge29" class="edge">
<title>Node1&#45;&gt;Node20</title>
<path fill="none" stroke="midnightblue" d="M360.06,-280.4C355.75,-272.11 350.25,-261.55 345.64,-252.71"/>
<polygon fill="midnightblue" stroke="midnightblue" points="348.65,-250.91 340.92,-243.66 342.44,-254.14 348.65,-250.91"/>
</g>
<!-- Node24 -->
<g id="node24" class="node">
<title>Node24</title>
<g id="a_node24"><a xlink:href="errno_8h.html" target="_top" xlink:title=" ">
<polygon fill="white" stroke="black" points="730.41,-224.5 730.41,-243.5 776.41,-243.5 776.41,-224.5 730.41,-224.5"/>
<text text-anchor="middle" x="753.41" y="-231.5" font-family="Helvetica,sans-Serif" font-size="10.00">errno.h</text>
</a>
</g>
</g>
<!-- Node1&#45;&gt;Node24 -->
<g id="edge35" class="edge">
<title>Node1&#45;&gt;Node24</title>
<path fill="none" stroke="midnightblue" d="M411.06,-290.16C476.37,-283.25 603.51,-268.21 720.26,-244.01"/>
<polygon fill="midnightblue" stroke="midnightblue" points="721.01,-247.43 730.08,-241.95 719.57,-240.58 721.01,-247.43"/>
</g>
<!-- Node4 -->
<g id="node4" class="node">
<title>Node4</title>
<g id="a_node4"><a xlink:title=" ">
<polygon fill="white" stroke="#bfbfbf" points="67.91,-0.5 67.91,-19.5 118.91,-19.5 118.91,-0.5 67.91,-0.5"/>
<text text-anchor="middle" x="93.41" y="-7.5" font-family="Helvetica,sans-Serif" font-size="10.00">stddef.h</text>
</a>
</g>
</g>
<!-- Node3&#45;&gt;Node4 -->
<g id="edge3" class="edge">
<title>Node3&#45;&gt;Node4</title>
<path fill="none" stroke="midnightblue" d="M216.28,-168.5C206.05,-147.89 177.97,-94.17 145.41,-56 135.97,-44.93 123.73,-34.2 113.5,-26"/>
<polygon fill="midnightblue" stroke="midnightblue" points="115.52,-23.14 105.48,-19.75 111.22,-28.66 115.52,-23.14"/>
</g>
<!-- Node3&#45;&gt;Node5 -->
<g id="edge4" class="edge">
<title>Node3&#45;&gt;Node5</title>
<path fill="none" stroke="midnightblue" d="M204.67,-168.32C189.09,-159.74 165.03,-146.49 146.95,-136.52"/>
<polygon fill="midnightblue" stroke="midnightblue" points="148.56,-133.42 138.12,-131.65 145.19,-139.55 148.56,-133.42"/>
</g>
<!-- Node6 -->
<g id="node6" class="node">
<title>Node6</title>
<g id="a_node6"><a xlink:href="sifdma_8h.html" target="_top" xlink:title=" ">
<polygon fill="white" stroke="black" points="193.91,-56.5 193.91,-75.5 246.91,-75.5 246.91,-56.5 193.91,-56.5"/>
<text text-anchor="middle" x="220.41" y="-63.5" font-family="Helvetica,sans-Serif" font-size="10.00">sifdma.h</text>
</a>
</g>
</g>
<!-- Node3&#45;&gt;Node6 -->
<g id="edge5" class="edge">
<title>Node3&#45;&gt;Node6</title>
<path fill="none" stroke="midnightblue" d="M220.41,-168.37C220.41,-150.62 220.41,-109.67 220.41,-85.6"/>
<polygon fill="midnightblue" stroke="midnightblue" points="223.91,-85.59 220.41,-75.59 216.91,-85.59 223.91,-85.59"/>
</g>
<!-- Node6&#45;&gt;Node2 -->
<g id="edge6" class="edge">
<title>Node6&#45;&gt;Node2</title>
<path fill="none" stroke="midnightblue" d="M220.41,-56.08C220.41,-49.01 220.41,-38.86 220.41,-29.99"/>
<polygon fill="midnightblue" stroke="midnightblue" points="223.91,-29.75 220.41,-19.75 216.91,-29.75 223.91,-29.75"/>
</g>
<!-- Node8&#45;&gt;Node5 -->
<g id="edge9" class="edge">
<title>Node8&#45;&gt;Node5</title>
<path fill="none" stroke="midnightblue" d="M117.4,-168.08C118.2,-160.93 119.34,-150.64 120.33,-141.69"/>
<polygon fill="midnightblue" stroke="midnightblue" points="123.81,-142.08 121.44,-131.75 116.86,-141.3 123.81,-142.08"/>
</g>
<!-- Node9 -->
<g id="node9" class="node">
<title>Node9</title>
<g id="a_node9"><a xlink:href="irx_8h.html" target="_top" xlink:title=" ">
<polygon fill="white" stroke="black" points="44.41,-112.5 44.41,-131.5 78.41,-131.5 78.41,-112.5 44.41,-112.5"/>
<text text-anchor="middle" x="61.41" y="-119.5" font-family="Helvetica,sans-Serif" font-size="10.00">irx.h</text>
</a>
</g>
</g>
<!-- Node8&#45;&gt;Node9 -->
<g id="edge10" class="edge">
<title>Node8&#45;&gt;Node9</title>
<path fill="none" stroke="midnightblue" d="M107.33,-168.08C99.24,-160.14 87.22,-148.34 77.5,-138.8"/>
<polygon fill="midnightblue" stroke="midnightblue" points="79.91,-136.26 70.32,-131.75 75.01,-141.25 79.91,-136.26"/>
</g>
<!-- Node10 -->
<g id="node10" class="node">
<title>Node10</title>
<g id="a_node10"><a xlink:href="types_8h_source.html" target="_top" xlink:title=" ">
<polygon fill="white" stroke="black" points="18.91,-56.5 18.91,-75.5 65.91,-75.5 65.91,-56.5 18.91,-56.5"/>
<text text-anchor="middle" x="42.41" y="-63.5" font-family="Helvetica,sans-Serif" font-size="10.00">types.h</text>
</a>
</g>
</g>
<!-- Node9&#45;&gt;Node10 -->
<g id="edge11" class="edge">
<title>Node9&#45;&gt;Node10</title>
<path fill="none" stroke="midnightblue" d="M58.27,-112.08C55.73,-104.85 52.05,-94.41 48.88,-85.4"/>
<polygon fill="midnightblue" stroke="midnightblue" points="52.11,-84.02 45.49,-75.75 45.51,-86.35 52.11,-84.02"/>
</g>
<!-- Node10&#45;&gt;Node2 -->
<g id="edge13" class="edge">
<title>Node10&#45;&gt;Node2</title>
<path fill="none" stroke="midnightblue" d="M66.05,-57.83C95.74,-48.82 147.07,-33.25 182.33,-22.55"/>
<polygon fill="midnightblue" stroke="midnightblue" points="183.72,-25.79 192.27,-19.54 181.68,-19.09 183.72,-25.79"/>
</g>
<!-- Node10&#45;&gt;Node4 -->
<g id="edge12" class="edge">
<title>Node10&#45;&gt;Node4</title>
<path fill="none" stroke="midnightblue" d="M50.83,-56.08C58.26,-48.22 69.26,-36.57 78.22,-27.08"/>
<polygon fill="midnightblue" stroke="midnightblue" points="80.82,-29.42 85.15,-19.75 75.74,-24.62 80.82,-29.42"/>
</g>
<!-- Node12 -->
<g id="node12" class="node">
<title>Node12</title>
<g id="a_node12"><a xlink:href="sysclib_8h.html" target="_top" xlink:title=" ">
<polygon fill="white" stroke="black" points="21.41,-168.5 21.41,-187.5 75.41,-187.5 75.41,-168.5 21.41,-168.5"/>
<text text-anchor="middle" x="48.41" y="-175.5" font-family="Helvetica,sans-Serif" font-size="10.00">sysclib.h</text>
</a>
</g>
</g>
<!-- Node11&#45;&gt;Node12 -->
<g id="edge15" class="edge">
<title>Node11&#45;&gt;Node12</title>
<path fill="none" stroke="midnightblue" d="M55.92,-224.08C54.73,-216.93 53.02,-206.64 51.53,-197.69"/>
<polygon fill="midnightblue" stroke="midnightblue" points="54.97,-197.04 49.87,-187.75 48.06,-198.19 54.97,-197.04"/>
</g>
<!-- Node12&#45;&gt;Node5 -->
<g id="edge18" class="edge">
<title>Node12&#45;&gt;Node5</title>
<path fill="none" stroke="midnightblue" d="M60.3,-168.32C71.56,-160.11 88.7,-147.6 102.12,-137.81"/>
<polygon fill="midnightblue" stroke="midnightblue" points="104.29,-140.56 110.31,-131.83 100.16,-134.9 104.29,-140.56"/>
</g>
<!-- Node12&#45;&gt;Node9 -->
<g id="edge17" class="edge">
<title>Node12&#45;&gt;Node9</title>
<path fill="none" stroke="midnightblue" d="M50.56,-168.08C52.28,-160.93 54.76,-150.64 56.91,-141.69"/>
<polygon fill="midnightblue" stroke="midnightblue" points="60.37,-142.29 59.3,-131.75 53.56,-140.65 60.37,-142.29"/>
</g>
<!-- Node12&#45;&gt;Node10 -->
<g id="edge16" class="edge">
<title>Node12&#45;&gt;Node10</title>
<path fill="none" stroke="midnightblue" d="M34.62,-168.19C23.58,-160.24 8.91,-147.45 2.41,-132 -5.15,-114.03 9.19,-95.25 22.76,-82.52"/>
<polygon fill="midnightblue" stroke="midnightblue" points="25.25,-84.99 30.48,-75.78 20.65,-79.72 25.25,-84.99"/>
</g>
<!-- Node13 -->
<g id="node13" class="node">
<title>Node13</title>
<g id="a_node13"><a xlink:href="setjmp_8h.html" target="_top" xlink:title=" ">
<polygon fill="white" stroke="black" points="83.91,-56.5 83.91,-75.5 136.91,-75.5 136.91,-56.5 83.91,-56.5"/>
<text text-anchor="middle" x="110.41" y="-63.5" font-family="Helvetica,sans-Serif" font-size="10.00">setjmp.h</text>
</a>
</g>
</g>
<!-- Node12&#45;&gt;Node13 -->
<g id="edge19" class="edge">
<title>Node12&#45;&gt;Node13</title>
<path fill="none" stroke="midnightblue" d="M43.19,-168.42C36.02,-155.39 25.09,-130.23 35.41,-112 43.88,-97.04 59.52,-86.51 74.34,-79.42"/>
<polygon fill="midnightblue" stroke="midnightblue" points="76.12,-82.46 83.88,-75.25 73.31,-76.05 76.12,-82.46"/>
</g>
<!-- Node13&#45;&gt;Node2 -->
<g id="edge20" class="edge">
<title>Node13&#45;&gt;Node2</title>
<path fill="none" stroke="midnightblue" d="M128.08,-56.32C145.8,-47.62 173.31,-34.12 193.7,-24.11"/>
<polygon fill="midnightblue" stroke="midnightblue" points="195.35,-27.2 202.78,-19.65 192.26,-20.92 195.35,-27.2"/>
</g>
<!-- Node17&#45;&gt;Node16 -->
<g id="edge28" class="edge">
<title>Node17&#45;&gt;Node16</title>
<path fill="none" stroke="midnightblue" d="M451.45,-224.32C442.28,-216.34 428.47,-204.31 417.38,-194.65"/>
<polygon fill="midnightblue" stroke="midnightblue" points="419.39,-191.76 409.55,-187.83 414.8,-197.04 419.39,-191.76"/>
</g>
<!-- Node18 -->
<g id="node18" class="node">
<title>Node18</title>
<g id="a_node18"><a xlink:title=" ">
<polygon fill="white" stroke="#bfbfbf" points="523.41,-168.5 523.41,-187.5 571.41,-187.5 571.41,-168.5 523.41,-168.5"/>
<text text-anchor="middle" x="547.41" y="-175.5" font-family="Helvetica,sans-Serif" font-size="10.00">dirent.h</text>
</a>
</g>
</g>
<!-- Node17&#45;&gt;Node18 -->
<g id="edge26" class="edge">
<title>Node17&#45;&gt;Node18</title>
<path fill="none" stroke="midnightblue" d="M475.23,-224.32C488.64,-215.9 509.23,-202.97 525,-193.07"/>
<polygon fill="midnightblue" stroke="midnightblue" points="527.02,-195.94 533.63,-187.65 523.3,-190.01 527.02,-195.94"/>
</g>
<!-- Node19 -->
<g id="node19" class="node">
<title>Node19</title>
<g id="a_node19"><a xlink:title=" ">
<polygon fill="white" stroke="#bfbfbf" points="447.41,-168.5 447.41,-187.5 505.41,-187.5 505.41,-168.5 447.41,-168.5"/>
<text text-anchor="middle" x="476.41" y="-175.5" font-family="Helvetica,sans-Serif" font-size="10.00">inttypes.h</text>
</a>
</g>
</g>
<!-- Node17&#45;&gt;Node19 -->
<g id="edge27" class="edge">
<title>Node17&#45;&gt;Node19</title>
<path fill="none" stroke="midnightblue" d="M463.89,-224.08C465.9,-216.85 468.8,-206.41 471.3,-197.4"/>
<polygon fill="midnightblue" stroke="midnightblue" points="474.68,-198.32 473.98,-187.75 467.93,-196.45 474.68,-198.32"/>
</g>
<!-- Node20&#45;&gt;Node16 -->
<g id="edge34" class="edge">
<title>Node20&#45;&gt;Node16</title>
<path fill="none" stroke="midnightblue" d="M346.53,-224.32C355.94,-216.26 370.15,-204.08 381.48,-194.37"/>
<polygon fill="midnightblue" stroke="midnightblue" points="383.79,-197 389.1,-187.83 379.23,-191.68 383.79,-197"/>
</g>
<!-- Node21 -->
<g id="node21" class="node">
<title>Node21</title>
<g id="a_node21"><a xlink:href="file_xio_8h.html" target="_top" xlink:title=" ">
<polygon fill="white" stroke="black" points="301.41,-168.5 301.41,-187.5 351.41,-187.5 351.41,-168.5 301.41,-168.5"/>
<text text-anchor="middle" x="326.41" y="-175.5" font-family="Helvetica,sans-Serif" font-size="10.00">fileXio.h</text>
</a>
</g>
</g>
<!-- Node20&#45;&gt;Node21 -->
<g id="edge30" class="edge">
<title>Node20&#45;&gt;Node21</title>
<path fill="none" stroke="midnightblue" d="M334.76,-224.08C333.43,-216.93 331.53,-206.64 329.87,-197.69"/>
<polygon fill="midnightblue" stroke="midnightblue" points="333.29,-196.95 328.03,-187.75 326.41,-198.22 333.29,-196.95"/>
</g>
<!-- Node21&#45;&gt;Node2 -->
<g id="edge31" class="edge">
<title>Node21&#45;&gt;Node2</title>
<path fill="none" stroke="midnightblue" d="M325.79,-168.48C323.85,-147.39 316.35,-91.81 289.41,-56 279.21,-42.44 263.65,-31.79 249.89,-24.25"/>
<polygon fill="midnightblue" stroke="midnightblue" points="251.22,-21.01 240.73,-19.54 248.02,-27.23 251.22,-21.01"/>
</g>
<!-- Node22 -->
<g id="node22" class="node">
<title>Node22</title>
<g id="a_node22"><a xlink:href="iox__stat_8h.html" target="_top" xlink:title=" ">
<polygon fill="white" stroke="black" points="342.41,-112.5 342.41,-131.5 400.41,-131.5 400.41,-112.5 342.41,-112.5"/>
<text text-anchor="middle" x="371.41" y="-119.5" font-family="Helvetica,sans-Serif" font-size="10.00">iox_stat.h</text>
</a>
</g>
</g>
<!-- Node21&#45;&gt;Node22 -->
<g id="edge32" class="edge">
<title>Node21&#45;&gt;Node22</title>
<path fill="none" stroke="midnightblue" d="M333.84,-168.08C340.26,-160.38 349.72,-149.03 357.53,-139.65"/>
<polygon fill="midnightblue" stroke="midnightblue" points="360.41,-141.67 364.12,-131.75 355.03,-137.19 360.41,-141.67"/>
</g>
<!-- Node23 -->
<g id="node23" class="node">
<title>Node23</title>
<g id="a_node23"><a xlink:href="time_8h.html" target="_top" xlink:title=" ">
<polygon fill="white" stroke="black" points="341.91,-56.5 341.91,-75.5 402.91,-75.5 402.91,-56.5 341.91,-56.5"/>
<text text-anchor="middle" x="372.41" y="-63.5" font-family="Helvetica,sans-Serif" font-size="10.00">sys/time.h</text>
</a>
</g>
</g>
<!-- Node22&#45;&gt;Node23 -->
<g id="edge33" class="edge">
<title>Node22&#45;&gt;Node23</title>
<path fill="none" stroke="midnightblue" d="M371.58,-112.08C371.71,-105.01 371.89,-94.86 372.06,-85.99"/>
<polygon fill="midnightblue" stroke="midnightblue" points="375.56,-85.81 372.25,-75.75 368.56,-85.68 375.56,-85.81"/>
</g>
</g>
</svg>
