<?xml version="1.0" encoding="UTF-8" standalone="no"?>
<!DOCTYPE svg PUBLIC "-//W3C//DTD SVG 1.1//EN"
 "http://www.w3.org/Graphics/SVG/1.1/DTD/svg11.dtd">
<!-- Generated by graphviz version 2.46.1 (20210215.1649)
 -->
<!-- Title: iop/fs/filexio/src/fileXio_iop.c Pages: 1 -->
<svg width="846pt" height="263pt"
 viewBox="0.00 0.00 845.50 263.00" xmlns="http://www.w3.org/2000/svg" xmlns:xlink="http://www.w3.org/1999/xlink">
<g id="graph0" class="graph" transform="scale(1 1) rotate(0) translate(4 259)">
<title>iop/fs/filexio/src/fileXio_iop.c</title>
<polygon fill="white" stroke="transparent" points="-4,4 -4,-259 841.5,-259 841.5,4 -4,4"/>
<!-- Node1 -->
<g id="node1" class="node">
<title>Node1</title>
<g id="a_node1"><a xlink:title=" ">
<polygon fill="#bfbfbf" stroke="black" points="375.5,-224.5 375.5,-254.5 459.5,-254.5 459.5,-224.5 375.5,-224.5"/>
<text text-anchor="start" x="383.5" y="-242.5" font-family="Helvetica,sans-Serif" font-size="10.00">iop/fs/filexio/src</text>
<text text-anchor="middle" x="417.5" y="-231.5" font-family="Helvetica,sans-Serif" font-size="10.00">/fileXio_iop.c</text>
</a>
</g>
</g>
<!-- Node2 -->
<g id="node2" class="node">
<title>Node2</title>
<g id="a_node2"><a xlink:title=" ">
<polygon fill="white" stroke="#bfbfbf" points="0,-168.5 0,-187.5 47,-187.5 47,-168.5 0,-168.5"/>
<text text-anchor="middle" x="23.5" y="-175.5" font-family="Helvetica,sans-Serif" font-size="10.00">types.h</text>
</a>
</g>
</g>
<!-- Node1&#45;&gt;Node2 -->
<g id="edge1" class="edge">
<title>Node1&#45;&gt;Node2</title>
<path fill="none" stroke="midnightblue" d="M375.38,-234.5C309.39,-227.82 177.56,-212.84 57.29,-188.15"/>
<polygon fill="midnightblue" stroke="midnightblue" points="57.68,-184.66 47.18,-186.05 56.25,-191.51 57.68,-184.66"/>
</g>
<!-- Node3 -->
<g id="node3" class="node">
<title>Node3</title>
<g id="a_node3"><a xlink:href="stdio_8h.html" target="_top" xlink:title=" ">
<polygon fill="white" stroke="black" points="144,-168.5 144,-187.5 189,-187.5 189,-168.5 144,-168.5"/>
<text text-anchor="middle" x="166.5" y="-175.5" font-family="Helvetica,sans-Serif" font-size="10.00">stdio.h</text>
</a>
</g>
</g>
<!-- Node1&#45;&gt;Node3 -->
<g id="edge2" class="edge">
<title>Node1&#45;&gt;Node3</title>
<path fill="none" stroke="midnightblue" d="M375.37,-229.41C333.24,-220.18 266.38,-205.15 199.11,-188.06"/>
<polygon fill="midnightblue" stroke="midnightblue" points="199.75,-184.61 189.19,-185.53 198.01,-191.39 199.75,-184.61"/>
</g>
<!-- Node9 -->
<g id="node9" class="node">
<title>Node9</title>
<g id="a_node9"><a xlink:href="sysclib_8h.html" target="_top" xlink:title=" ">
<polygon fill="white" stroke="black" points="207.5,-168.5 207.5,-187.5 261.5,-187.5 261.5,-168.5 207.5,-168.5"/>
<text text-anchor="middle" x="234.5" y="-175.5" font-family="Helvetica,sans-Serif" font-size="10.00">sysclib.h</text>
</a>
</g>
</g>
<!-- Node1&#45;&gt;Node9 -->
<g id="edge8" class="edge">
<title>Node1&#45;&gt;Node9</title>
<path fill="none" stroke="midnightblue" d="M375.06,-224.7C343.37,-214.4 300.55,-200.47 270.52,-190.71"/>
<polygon fill="midnightblue" stroke="midnightblue" points="271.46,-187.34 260.87,-187.57 269.29,-193.99 271.46,-187.34"/>
</g>
<!-- Node11 -->
<g id="node11" class="node">
<title>Node11</title>
<g id="a_node11"><a xlink:href="thbase_8h.html" target="_top" xlink:title=" ">
<polygon fill="white" stroke="black" points="280,-168.5 280,-187.5 333,-187.5 333,-168.5 280,-168.5"/>
<text text-anchor="middle" x="306.5" y="-175.5" font-family="Helvetica,sans-Serif" font-size="10.00">thbase.h</text>
</a>
</g>
</g>
<!-- Node1&#45;&gt;Node11 -->
<g id="edge14" class="edge">
<title>Node1&#45;&gt;Node11</title>
<path fill="none" stroke="midnightblue" d="M391.19,-224.4C373.24,-214.77 349.58,-202.09 331.83,-192.58"/>
<polygon fill="midnightblue" stroke="midnightblue" points="333.12,-189.3 322.65,-187.66 329.81,-195.47 333.12,-189.3"/>
</g>
<!-- Node12 -->
<g id="node12" class="node">
<title>Node12</title>
<g id="a_node12"><a xlink:href="intrman_8h.html" target="_top" xlink:title=" ">
<polygon fill="white" stroke="black" points="351.5,-168.5 351.5,-187.5 407.5,-187.5 407.5,-168.5 351.5,-168.5"/>
<text text-anchor="middle" x="379.5" y="-175.5" font-family="Helvetica,sans-Serif" font-size="10.00">intrman.h</text>
</a>
</g>
</g>
<!-- Node1&#45;&gt;Node12 -->
<g id="edge17" class="edge">
<title>Node1&#45;&gt;Node12</title>
<path fill="none" stroke="midnightblue" d="M408.49,-224.4C403.09,-215.93 396.17,-205.1 390.45,-196.14"/>
<polygon fill="midnightblue" stroke="midnightblue" points="393.36,-194.2 385.03,-187.66 387.46,-197.97 393.36,-194.2"/>
</g>
<!-- Node13 -->
<g id="node13" class="node">
<title>Node13</title>
<g id="a_node13"><a xlink:href="ioman_x_8h.html" target="_top" xlink:title=" ">
<polygon fill="white" stroke="black" points="576,-168.5 576,-187.5 633,-187.5 633,-168.5 576,-168.5"/>
<text text-anchor="middle" x="604.5" y="-175.5" font-family="Helvetica,sans-Serif" font-size="10.00">iomanX.h</text>
</a>
</g>
</g>
<!-- Node1&#45;&gt;Node13 -->
<g id="edge20" class="edge">
<title>Node1&#45;&gt;Node13</title>
<path fill="none" stroke="midnightblue" d="M459.93,-225C492.51,-214.63 537.01,-200.47 568,-190.61"/>
<polygon fill="midnightblue" stroke="midnightblue" points="569.09,-193.94 577.56,-187.57 566.97,-187.27 569.09,-193.94"/>
</g>
<!-- Node19 -->
<g id="node19" class="node">
<title>Node19</title>
<g id="a_node19"><a xlink:href="loadcore_8h.html" target="_top" xlink:title=" ">
<polygon fill="white" stroke="black" points="426,-168.5 426,-187.5 487,-187.5 487,-168.5 426,-168.5"/>
<text text-anchor="middle" x="456.5" y="-175.5" font-family="Helvetica,sans-Serif" font-size="10.00">loadcore.h</text>
</a>
</g>
</g>
<!-- Node1&#45;&gt;Node19 -->
<g id="edge28" class="edge">
<title>Node1&#45;&gt;Node19</title>
<path fill="none" stroke="midnightblue" d="M426.74,-224.4C432.29,-215.93 439.39,-205.1 445.27,-196.14"/>
<polygon fill="midnightblue" stroke="midnightblue" points="448.27,-197.94 450.83,-187.66 442.42,-194.1 448.27,-197.94"/>
</g>
<!-- Node20 -->
<g id="node20" class="node">
<title>Node20</title>
<g id="a_node20"><a xlink:href="sysmem_8h.html" target="_top" xlink:title=" ">
<polygon fill="white" stroke="black" points="65,-168.5 65,-187.5 126,-187.5 126,-168.5 65,-168.5"/>
<text text-anchor="middle" x="95.5" y="-175.5" font-family="Helvetica,sans-Serif" font-size="10.00">sysmem.h</text>
</a>
</g>
</g>
<!-- Node1&#45;&gt;Node20 -->
<g id="edge31" class="edge">
<title>Node1&#45;&gt;Node20</title>
<path fill="none" stroke="midnightblue" d="M375.18,-231.63C321.69,-222.8 226.57,-206.59 136,-188.23"/>
<polygon fill="midnightblue" stroke="midnightblue" points="136.62,-184.79 126.13,-186.22 135.22,-191.65 136.62,-184.79"/>
</g>
<!-- Node21 -->
<g id="node21" class="node">
<title>Node21</title>
<g id="a_node21"><a xlink:href="sifman_8h.html" target="_top" xlink:title=" ">
<polygon fill="white" stroke="black" points="505,-168.5 505,-187.5 558,-187.5 558,-168.5 505,-168.5"/>
<text text-anchor="middle" x="531.5" y="-175.5" font-family="Helvetica,sans-Serif" font-size="10.00">sifman.h</text>
</a>
</g>
</g>
<!-- Node1&#45;&gt;Node21 -->
<g id="edge35" class="edge">
<title>Node1&#45;&gt;Node21</title>
<path fill="none" stroke="midnightblue" d="M444.52,-224.4C463.13,-214.68 487.71,-201.86 505.99,-192.31"/>
<polygon fill="midnightblue" stroke="midnightblue" points="507.67,-195.39 514.91,-187.66 504.43,-189.18 507.67,-195.39"/>
</g>
<!-- Node22 -->
<g id="node22" class="node">
<title>Node22</title>
<g id="a_node22"><a xlink:title=" ">
<polygon fill="white" stroke="#bfbfbf" points="720,-168.5 720,-187.5 773,-187.5 773,-168.5 720,-168.5"/>
<text text-anchor="middle" x="746.5" y="-175.5" font-family="Helvetica,sans-Serif" font-size="10.00">sifcmd.h</text>
</a>
</g>
</g>
<!-- Node1&#45;&gt;Node22 -->
<g id="edge38" class="edge">
<title>Node1&#45;&gt;Node22</title>
<path fill="none" stroke="midnightblue" d="M459.9,-232.2C515.1,-223.79 614.75,-207.83 709.75,-188.02"/>
<polygon fill="midnightblue" stroke="midnightblue" points="710.75,-191.39 719.81,-185.91 709.31,-184.54 710.75,-191.39"/>
</g>
<!-- Node23 -->
<g id="node23" class="node">
<title>Node23</title>
<g id="a_node23"><a xlink:href="errno_8h.html" target="_top" xlink:title=" ">
<polygon fill="white" stroke="black" points="791.5,-168.5 791.5,-187.5 837.5,-187.5 837.5,-168.5 791.5,-168.5"/>
<text text-anchor="middle" x="814.5" y="-175.5" font-family="Helvetica,sans-Serif" font-size="10.00">errno.h</text>
</a>
</g>
</g>
<!-- Node1&#45;&gt;Node23 -->
<g id="edge39" class="edge">
<title>Node1&#45;&gt;Node23</title>
<path fill="none" stroke="midnightblue" d="M459.7,-234.56C526.2,-227.93 659.54,-212.97 781.31,-188.01"/>
<polygon fill="midnightblue" stroke="midnightblue" points="782.09,-191.42 791.17,-185.96 780.67,-184.57 782.09,-191.42"/>
</g>
<!-- Node24 -->
<g id="node24" class="node">
<title>Node24</title>
<g id="a_node24"><a xlink:href="file_xio_8h.html" target="_top" xlink:title=" ">
<polygon fill="white" stroke="black" points="651.5,-168.5 651.5,-187.5 701.5,-187.5 701.5,-168.5 651.5,-168.5"/>
<text text-anchor="middle" x="676.5" y="-175.5" font-family="Helvetica,sans-Serif" font-size="10.00">fileXio.h</text>
</a>
</g>
</g>
<!-- Node1&#45;&gt;Node24 -->
<g id="edge40" class="edge">
<title>Node1&#45;&gt;Node24</title>
<path fill="none" stroke="midnightblue" d="M459.91,-229.48C503.19,-220.17 572.53,-204.94 641.54,-188.17"/>
<polygon fill="midnightblue" stroke="midnightblue" points="642.39,-191.56 651.28,-185.79 640.73,-184.76 642.39,-191.56"/>
</g>
<!-- Node4 -->
<g id="node4" class="node">
<title>Node4</title>
<g id="a_node4"><a xlink:title=" ">
<polygon fill="white" stroke="#bfbfbf" points="141,-112.5 141,-131.5 192,-131.5 192,-112.5 141,-112.5"/>
<text text-anchor="middle" x="166.5" y="-119.5" font-family="Helvetica,sans-Serif" font-size="10.00">stdarg.h</text>
</a>
</g>
</g>
<!-- Node3&#45;&gt;Node4 -->
<g id="edge3" class="edge">
<title>Node3&#45;&gt;Node4</title>
<path fill="none" stroke="midnightblue" d="M166.5,-168.08C166.5,-161.01 166.5,-150.86 166.5,-141.99"/>
<polygon fill="midnightblue" stroke="midnightblue" points="170,-141.75 166.5,-131.75 163,-141.75 170,-141.75"/>
</g>
<!-- Node5 -->
<g id="node5" class="node">
<title>Node5</title>
<g id="a_node5"><a xlink:href="irx_8h.html" target="_top" xlink:title=" ">
<polygon fill="white" stroke="black" points="336.5,-112.5 336.5,-131.5 370.5,-131.5 370.5,-112.5 336.5,-112.5"/>
<text text-anchor="middle" x="353.5" y="-119.5" font-family="Helvetica,sans-Serif" font-size="10.00">irx.h</text>
</a>
</g>
</g>
<!-- Node3&#45;&gt;Node5 -->
<g id="edge4" class="edge">
<title>Node3&#45;&gt;Node5</title>
<path fill="none" stroke="midnightblue" d="M189.06,-170.49C223.54,-160.53 289.25,-141.55 326.31,-130.85"/>
<polygon fill="midnightblue" stroke="midnightblue" points="327.76,-134.08 336.39,-127.94 325.81,-127.35 327.76,-134.08"/>
</g>
<!-- Node6 -->
<g id="node6" class="node">
<title>Node6</title>
<g id="a_node6"><a xlink:href="types_8h_source.html" target="_top" xlink:title=" ">
<polygon fill="white" stroke="black" points="352,-56.5 352,-75.5 399,-75.5 399,-56.5 352,-56.5"/>
<text text-anchor="middle" x="375.5" y="-63.5" font-family="Helvetica,sans-Serif" font-size="10.00">types.h</text>
</a>
</g>
</g>
<!-- Node5&#45;&gt;Node6 -->
<g id="edge5" class="edge">
<title>Node5&#45;&gt;Node6</title>
<path fill="none" stroke="midnightblue" d="M357.13,-112.08C360.11,-104.77 364.43,-94.18 368.12,-85.1"/>
<polygon fill="midnightblue" stroke="midnightblue" points="371.4,-86.33 371.93,-75.75 364.92,-83.69 371.4,-86.33"/>
</g>
<!-- Node7 -->
<g id="node7" class="node">
<title>Node7</title>
<g id="a_node7"><a xlink:title=" ">
<polygon fill="white" stroke="#bfbfbf" points="312,-0.5 312,-19.5 363,-19.5 363,-0.5 312,-0.5"/>
<text text-anchor="middle" x="337.5" y="-7.5" font-family="Helvetica,sans-Serif" font-size="10.00">stddef.h</text>
</a>
</g>
</g>
<!-- Node6&#45;&gt;Node7 -->
<g id="edge6" class="edge">
<title>Node6&#45;&gt;Node7</title>
<path fill="none" stroke="midnightblue" d="M369.23,-56.08C363.86,-48.46 355.98,-37.26 349.42,-27.94"/>
<polygon fill="midnightblue" stroke="midnightblue" points="352.28,-25.91 343.66,-19.75 346.55,-29.94 352.28,-25.91"/>
</g>
<!-- Node8 -->
<g id="node8" class="node">
<title>Node8</title>
<g id="a_node8"><a xlink:href="tamtypes_8h.html" target="_top" xlink:title=" ">
<polygon fill="white" stroke="black" points="381.5,-0.5 381.5,-19.5 445.5,-19.5 445.5,-0.5 381.5,-0.5"/>
<text text-anchor="middle" x="413.5" y="-7.5" font-family="Helvetica,sans-Serif" font-size="10.00">tamtypes.h</text>
</a>
</g>
</g>
<!-- Node6&#45;&gt;Node8 -->
<g id="edge7" class="edge">
<title>Node6&#45;&gt;Node8</title>
<path fill="none" stroke="midnightblue" d="M381.77,-56.08C387.14,-48.46 395.02,-37.26 401.58,-27.94"/>
<polygon fill="midnightblue" stroke="midnightblue" points="404.45,-29.94 407.34,-19.75 398.72,-25.91 404.45,-29.94"/>
</g>
<!-- Node9&#45;&gt;Node4 -->
<g id="edge11" class="edge">
<title>Node9&#45;&gt;Node4</title>
<path fill="none" stroke="midnightblue" d="M223.57,-168.32C213.33,-160.18 197.78,-147.84 185.5,-138.09"/>
<polygon fill="midnightblue" stroke="midnightblue" points="187.63,-135.31 177.62,-131.83 183.28,-140.79 187.63,-135.31"/>
</g>
<!-- Node9&#45;&gt;Node5 -->
<g id="edge10" class="edge">
<title>Node9&#45;&gt;Node5</title>
<path fill="none" stroke="midnightblue" d="M253.36,-168.44C273.22,-159.43 304.67,-145.16 327.02,-135.02"/>
<polygon fill="midnightblue" stroke="midnightblue" points="328.62,-138.13 336.28,-130.82 325.73,-131.76 328.62,-138.13"/>
</g>
<!-- Node9&#45;&gt;Node6 -->
<g id="edge9" class="edge">
<title>Node9&#45;&gt;Node6</title>
<path fill="none" stroke="midnightblue" d="M244.73,-168.43C259.83,-155.85 289.03,-131.72 314.5,-112 327.77,-101.73 342.95,-90.52 354.85,-81.87"/>
<polygon fill="midnightblue" stroke="midnightblue" points="357.18,-84.5 363.22,-75.8 353.07,-78.83 357.18,-84.5"/>
</g>
<!-- Node10 -->
<g id="node10" class="node">
<title>Node10</title>
<g id="a_node10"><a xlink:href="setjmp_8h.html" target="_top" xlink:title=" ">
<polygon fill="white" stroke="black" points="255,-56.5 255,-75.5 308,-75.5 308,-56.5 255,-56.5"/>
<text text-anchor="middle" x="281.5" y="-63.5" font-family="Helvetica,sans-Serif" font-size="10.00">setjmp.h</text>
</a>
</g>
</g>
<!-- Node9&#45;&gt;Node10 -->
<g id="edge12" class="edge">
<title>Node9&#45;&gt;Node10</title>
<path fill="none" stroke="midnightblue" d="M236.87,-168.4C240.47,-155.78 247.82,-131.61 256.5,-112 260.66,-102.6 266.13,-92.57 270.89,-84.36"/>
<polygon fill="midnightblue" stroke="midnightblue" points="273.92,-86.11 276.03,-75.72 267.91,-82.52 273.92,-86.11"/>
</g>
<!-- Node10&#45;&gt;Node8 -->
<g id="edge13" class="edge">
<title>Node10&#45;&gt;Node8</title>
<path fill="none" stroke="midnightblue" d="M302.42,-56.44C324.24,-47.52 358.65,-33.44 383.39,-23.32"/>
<polygon fill="midnightblue" stroke="midnightblue" points="384.75,-26.54 392.68,-19.52 382.1,-20.06 384.75,-26.54"/>
</g>
<!-- Node11&#45;&gt;Node5 -->
<g id="edge16" class="edge">
<title>Node11&#45;&gt;Node5</title>
<path fill="none" stroke="midnightblue" d="M314.26,-168.08C321.04,-160.3 331.04,-148.8 339.26,-139.37"/>
<polygon fill="midnightblue" stroke="midnightblue" points="341.96,-141.59 345.88,-131.75 336.68,-137 341.96,-141.59"/>
</g>
<!-- Node11&#45;&gt;Node6 -->
<g id="edge15" class="edge">
<title>Node11&#45;&gt;Node6</title>
<path fill="none" stroke="midnightblue" d="M307.85,-168.42C310.2,-155.39 315.94,-130.23 327.5,-112 334.79,-100.51 345.68,-89.97 355.25,-81.98"/>
<polygon fill="midnightblue" stroke="midnightblue" points="357.55,-84.63 363.2,-75.66 353.19,-79.15 357.55,-84.63"/>
</g>
<!-- Node12&#45;&gt;Node5 -->
<g id="edge19" class="edge">
<title>Node12&#45;&gt;Node5</title>
<path fill="none" stroke="midnightblue" d="M375.21,-168.08C371.65,-160.69 366.48,-149.95 362.08,-140.81"/>
<polygon fill="midnightblue" stroke="midnightblue" points="365.21,-139.24 357.71,-131.75 358.9,-142.28 365.21,-139.24"/>
</g>
<!-- Node12&#45;&gt;Node6 -->
<g id="edge18" class="edge">
<title>Node12&#45;&gt;Node6</title>
<path fill="none" stroke="midnightblue" d="M379.75,-168.16C380.04,-155.65 380.39,-132.07 379.5,-112 379.12,-103.37 378.32,-93.84 377.54,-85.78"/>
<polygon fill="midnightblue" stroke="midnightblue" points="381,-85.2 376.49,-75.61 374.04,-85.92 381,-85.2"/>
</g>
<!-- Node13&#45;&gt;Node5 -->
<g id="edge22" class="edge">
<title>Node13&#45;&gt;Node5</title>
<path fill="none" stroke="midnightblue" d="M575.84,-169.93C573.02,-169.27 570.21,-168.61 567.5,-168 500.54,-152.82 421.4,-136.63 380.69,-128.43"/>
<polygon fill="midnightblue" stroke="midnightblue" points="381.23,-124.97 370.74,-126.43 379.85,-131.84 381.23,-124.97"/>
</g>
<!-- Node13&#45;&gt;Node6 -->
<g id="edge21" class="edge">
<title>Node13&#45;&gt;Node6</title>
<path fill="none" stroke="midnightblue" d="M586.53,-168.37C546.48,-149.13 449.71,-102.65 402.42,-79.93"/>
<polygon fill="midnightblue" stroke="midnightblue" points="403.92,-76.77 393.39,-75.59 400.88,-83.08 403.92,-76.77"/>
</g>
<!-- Node14 -->
<g id="node14" class="node">
<title>Node14</title>
<g id="a_node14"><a xlink:href="io__common_8h.html" target="_top" xlink:title=" ">
<polygon fill="white" stroke="black" points="540.5,-112.5 540.5,-131.5 614.5,-131.5 614.5,-112.5 540.5,-112.5"/>
<text text-anchor="middle" x="577.5" y="-119.5" font-family="Helvetica,sans-Serif" font-size="10.00">io_common.h</text>
</a>
</g>
</g>
<!-- Node13&#45;&gt;Node14 -->
<g id="edge23" class="edge">
<title>Node13&#45;&gt;Node14</title>
<path fill="none" stroke="midnightblue" d="M600.04,-168.08C596.35,-160.69 590.98,-149.95 586.41,-140.81"/>
<polygon fill="midnightblue" stroke="midnightblue" points="589.48,-139.13 581.88,-131.75 583.22,-142.26 589.48,-139.13"/>
</g>
<!-- Node17 -->
<g id="node17" class="node">
<title>Node17</title>
<g id="a_node17"><a xlink:href="iox__stat_8h.html" target="_top" xlink:title=" ">
<polygon fill="white" stroke="black" points="632.5,-112.5 632.5,-131.5 690.5,-131.5 690.5,-112.5 632.5,-112.5"/>
<text text-anchor="middle" x="661.5" y="-119.5" font-family="Helvetica,sans-Serif" font-size="10.00">iox_stat.h</text>
</a>
</g>
</g>
<!-- Node13&#45;&gt;Node17 -->
<g id="edge26" class="edge">
<title>Node13&#45;&gt;Node17</title>
<path fill="none" stroke="midnightblue" d="M613.66,-168.32C622,-160.42 634.53,-148.55 644.68,-138.94"/>
<polygon fill="midnightblue" stroke="midnightblue" points="647.32,-141.25 652.18,-131.83 642.51,-136.17 647.32,-141.25"/>
</g>
<!-- Node15 -->
<g id="node15" class="node">
<title>Node15</title>
<g id="a_node15"><a xlink:href="fcntl_8h_source.html" target="_top" xlink:title=" ">
<polygon fill="white" stroke="black" points="464,-56.5 464,-75.5 525,-75.5 525,-56.5 464,-56.5"/>
<text text-anchor="middle" x="494.5" y="-63.5" font-family="Helvetica,sans-Serif" font-size="10.00">sys/fcntl.h</text>
</a>
</g>
</g>
<!-- Node14&#45;&gt;Node15 -->
<g id="edge24" class="edge">
<title>Node14&#45;&gt;Node15</title>
<path fill="none" stroke="midnightblue" d="M564.16,-112.32C551.34,-103.98 531.72,-91.21 516.56,-81.35"/>
<polygon fill="midnightblue" stroke="midnightblue" points="518.09,-78.17 507.8,-75.65 514.28,-84.04 518.09,-78.17"/>
</g>
<!-- Node16 -->
<g id="node16" class="node">
<title>Node16</title>
<g id="a_node16"><a xlink:href="unistd_8h_source.html" target="_top" xlink:title=" ">
<polygon fill="white" stroke="black" points="543.5,-56.5 543.5,-75.5 611.5,-75.5 611.5,-56.5 543.5,-56.5"/>
<text text-anchor="middle" x="577.5" y="-63.5" font-family="Helvetica,sans-Serif" font-size="10.00">sys/unistd.h</text>
</a>
</g>
</g>
<!-- Node14&#45;&gt;Node16 -->
<g id="edge25" class="edge">
<title>Node14&#45;&gt;Node16</title>
<path fill="none" stroke="midnightblue" d="M577.5,-112.08C577.5,-105.01 577.5,-94.86 577.5,-85.99"/>
<polygon fill="midnightblue" stroke="midnightblue" points="581,-85.75 577.5,-75.75 574,-85.75 581,-85.75"/>
</g>
<!-- Node18 -->
<g id="node18" class="node">
<title>Node18</title>
<g id="a_node18"><a xlink:href="time_8h.html" target="_top" xlink:title=" ">
<polygon fill="white" stroke="black" points="630,-56.5 630,-75.5 691,-75.5 691,-56.5 630,-56.5"/>
<text text-anchor="middle" x="660.5" y="-63.5" font-family="Helvetica,sans-Serif" font-size="10.00">sys/time.h</text>
</a>
</g>
</g>
<!-- Node17&#45;&gt;Node18 -->
<g id="edge27" class="edge">
<title>Node17&#45;&gt;Node18</title>
<path fill="none" stroke="midnightblue" d="M661.33,-112.08C661.2,-105.01 661.02,-94.86 660.85,-85.99"/>
<polygon fill="midnightblue" stroke="midnightblue" points="664.35,-85.68 660.66,-75.75 657.35,-85.81 664.35,-85.68"/>
</g>
<!-- Node19&#45;&gt;Node5 -->
<g id="edge30" class="edge">
<title>Node19&#45;&gt;Node5</title>
<path fill="none" stroke="midnightblue" d="M439.95,-168.32C423.51,-159.7 398.07,-146.36 379.03,-136.39"/>
<polygon fill="midnightblue" stroke="midnightblue" points="380.49,-133.2 370.01,-131.65 377.24,-139.4 380.49,-133.2"/>
</g>
<!-- Node19&#45;&gt;Node6 -->
<g id="edge29" class="edge">
<title>Node19&#45;&gt;Node6</title>
<path fill="none" stroke="midnightblue" d="M450.14,-168.37C436.72,-150.14 405.27,-107.43 387.78,-83.68"/>
<polygon fill="midnightblue" stroke="midnightblue" points="390.57,-81.57 381.83,-75.59 384.94,-85.72 390.57,-81.57"/>
</g>
<!-- Node20&#45;&gt;Node4 -->
<g id="edge34" class="edge">
<title>Node20&#45;&gt;Node4</title>
<path fill="none" stroke="midnightblue" d="M106.91,-168.32C117.61,-160.18 133.84,-147.84 146.66,-138.09"/>
<polygon fill="midnightblue" stroke="midnightblue" points="149.04,-140.67 154.89,-131.83 144.81,-135.1 149.04,-140.67"/>
</g>
<!-- Node20&#45;&gt;Node5 -->
<g id="edge33" class="edge">
<title>Node20&#45;&gt;Node5</title>
<path fill="none" stroke="midnightblue" d="M126.14,-169.86C128.97,-169.22 131.78,-168.59 134.5,-168 203.58,-152.94 285.22,-136.53 326.58,-128.31"/>
<polygon fill="midnightblue" stroke="midnightblue" points="327.3,-131.74 336.43,-126.36 325.94,-124.87 327.3,-131.74"/>
</g>
<!-- Node20&#45;&gt;Node6 -->
<g id="edge32" class="edge">
<title>Node20&#45;&gt;Node6</title>
<path fill="none" stroke="midnightblue" d="M97.73,-168.22C101.84,-153.98 112.02,-126.01 131.5,-112 140.01,-105.88 276.66,-83.05 341.66,-72.46"/>
<polygon fill="midnightblue" stroke="midnightblue" points="342.5,-75.87 351.81,-70.81 341.38,-68.96 342.5,-75.87"/>
</g>
<!-- Node21&#45;&gt;Node5 -->
<g id="edge37" class="edge">
<title>Node21&#45;&gt;Node5</title>
<path fill="none" stroke="midnightblue" d="M504.85,-168.92C471.28,-158.73 413.91,-141.33 380.28,-131.12"/>
<polygon fill="midnightblue" stroke="midnightblue" points="381.24,-127.76 370.65,-128.2 379.21,-134.46 381.24,-127.76"/>
</g>
<!-- Node21&#45;&gt;Node6 -->
<g id="edge36" class="edge">
<title>Node21&#45;&gt;Node6</title>
<path fill="none" stroke="midnightblue" d="M519.26,-168.37C492.6,-149.57 429.06,-104.77 396.11,-81.53"/>
<polygon fill="midnightblue" stroke="midnightblue" points="397.87,-78.49 387.68,-75.59 393.84,-84.21 397.87,-78.49"/>
</g>
<!-- Node24&#45;&gt;Node8 -->
<g id="edge41" class="edge">
<title>Node24&#45;&gt;Node8</title>
<path fill="none" stroke="midnightblue" d="M682.38,-168.48C696.48,-146.88 729.04,-89.36 700.5,-56 669.49,-19.74 527.56,-12.5 455.6,-11.19"/>
<polygon fill="midnightblue" stroke="midnightblue" points="455.56,-7.69 445.51,-11.03 455.45,-14.69 455.56,-7.69"/>
</g>
<!-- Node24&#45;&gt;Node17 -->
<g id="edge42" class="edge">
<title>Node24&#45;&gt;Node17</title>
<path fill="none" stroke="midnightblue" d="M674.02,-168.08C672.01,-160.85 669.11,-150.41 666.61,-141.4"/>
<polygon fill="midnightblue" stroke="midnightblue" points="669.98,-140.45 663.93,-131.75 663.24,-142.32 669.98,-140.45"/>
</g>
</g>
</svg>
