<?xml version="1.0" encoding="UTF-8" standalone="no"?>
<!DOCTYPE svg PUBLIC "-//W3C//DTD SVG 1.1//EN"
 "http://www.w3.org/Graphics/SVG/1.1/DTD/svg11.dtd">
<!-- Generated by graphviz version 2.46.1 (20210215.1649)
 -->
<!-- Title: ee/kernel/src/fileio.c Pages: 1 -->
<svg width="478pt" height="308pt"
 viewBox="0.00 0.00 477.50 308.00" xmlns="http://www.w3.org/2000/svg" xmlns:xlink="http://www.w3.org/1999/xlink">
<g id="graph0" class="graph" transform="scale(1 1) rotate(0) translate(4 304)">
<title>ee/kernel/src/fileio.c</title>
<polygon fill="white" stroke="transparent" points="-4,4 -4,-304 473.5,-304 473.5,4 -4,4"/>
<!-- Node1 -->
<g id="node1" class="node">
<title>Node1</title>
<g id="a_node1"><a xlink:title=" ">
<polygon fill="#bfbfbf" stroke="black" points="130.5,-280.5 130.5,-299.5 233.5,-299.5 233.5,-280.5 130.5,-280.5"/>
<text text-anchor="middle" x="182" y="-287.5" font-family="Helvetica,sans-Serif" font-size="10.00">ee/kernel/src/fileio.c</text>
</a>
</g>
</g>
<!-- Node2 -->
<g id="node2" class="node">
<title>Node2</title>
<g id="a_node2"><a xlink:href="tamtypes_8h.html" target="_top" xlink:title=" ">
<polygon fill="white" stroke="black" points="71,-0.5 71,-19.5 135,-19.5 135,-0.5 71,-0.5"/>
<text text-anchor="middle" x="103" y="-7.5" font-family="Helvetica,sans-Serif" font-size="10.00">tamtypes.h</text>
</a>
</g>
</g>
<!-- Node1&#45;&gt;Node2 -->
<g id="edge1" class="edge">
<title>Node1&#45;&gt;Node2</title>
<path fill="none" stroke="midnightblue" d="M130.33,-280.5C76.53,-268.34 0,-240.29 0,-179 0,-179 0,-179 0,-121 0,-90.9 0.04,-79.37 19,-56 31.03,-41.18 49.27,-30.58 65.69,-23.4"/>
<polygon fill="midnightblue" stroke="midnightblue" points="67.15,-26.59 75.08,-19.57 64.5,-20.11 67.15,-26.59"/>
</g>
<!-- Node3 -->
<g id="node3" class="node">
<title>Node3</title>
<g id="a_node3"><a xlink:href="ps2lib__err_8h.html" target="_top" xlink:title=" ">
<polygon fill="white" stroke="black" points="187,-224.5 187,-243.5 253,-243.5 253,-224.5 187,-224.5"/>
<text text-anchor="middle" x="220" y="-231.5" font-family="Helvetica,sans-Serif" font-size="10.00">ps2lib_err.h</text>
</a>
</g>
</g>
<!-- Node1&#45;&gt;Node3 -->
<g id="edge2" class="edge">
<title>Node1&#45;&gt;Node3</title>
<path fill="none" stroke="midnightblue" d="M188.27,-280.08C193.64,-272.46 201.52,-261.26 208.08,-251.94"/>
<polygon fill="midnightblue" stroke="midnightblue" points="210.95,-253.94 213.84,-243.75 205.22,-249.91 210.95,-253.94"/>
</g>
<!-- Node4 -->
<g id="node4" class="node">
<title>Node4</title>
<g id="a_node4"><a xlink:href="kernel_8h.html" target="_top" xlink:title=" ">
<polygon fill="white" stroke="black" points="68,-168.5 68,-187.5 118,-187.5 118,-168.5 68,-168.5"/>
<text text-anchor="middle" x="93" y="-175.5" font-family="Helvetica,sans-Serif" font-size="10.00">kernel.h</text>
</a>
</g>
</g>
<!-- Node1&#45;&gt;Node4 -->
<g id="edge3" class="edge">
<title>Node1&#45;&gt;Node4</title>
<path fill="none" stroke="midnightblue" d="M161.01,-280.42C145.33,-272.99 124.54,-260.78 112,-244 101.99,-230.61 97.24,-212.04 94.99,-198.18"/>
<polygon fill="midnightblue" stroke="midnightblue" points="98.41,-197.32 93.63,-187.86 91.47,-198.23 98.41,-197.32"/>
</g>
<!-- Node8 -->
<g id="node8" class="node">
<title>Node8</title>
<g id="a_node8"><a xlink:title=" ">
<polygon fill="white" stroke="#bfbfbf" points="271,-224.5 271,-243.5 319,-243.5 319,-224.5 271,-224.5"/>
<text text-anchor="middle" x="295" y="-231.5" font-family="Helvetica,sans-Serif" font-size="10.00">sifrpc.h</text>
</a>
</g>
</g>
<!-- Node1&#45;&gt;Node8 -->
<g id="edge8" class="edge">
<title>Node1&#45;&gt;Node8</title>
<path fill="none" stroke="midnightblue" d="M199.91,-280.44C218.25,-271.68 247.01,-257.94 268.09,-247.86"/>
<polygon fill="midnightblue" stroke="midnightblue" points="269.67,-250.99 277.18,-243.52 266.65,-244.67 269.67,-250.99"/>
</g>
<!-- Node9 -->
<g id="node9" class="node">
<title>Node9</title>
<g id="a_node9"><a xlink:href="fileio_8h.html" target="_top" xlink:title=" ">
<polygon fill="white" stroke="black" points="337,-224.5 337,-243.5 381,-243.5 381,-224.5 337,-224.5"/>
<text text-anchor="middle" x="359" y="-231.5" font-family="Helvetica,sans-Serif" font-size="10.00">fileio.h</text>
</a>
</g>
</g>
<!-- Node1&#45;&gt;Node9 -->
<g id="edge9" class="edge">
<title>Node1&#45;&gt;Node9</title>
<path fill="none" stroke="midnightblue" d="M210.05,-280.44C241.94,-270.71 293.89,-254.86 327.24,-244.69"/>
<polygon fill="midnightblue" stroke="midnightblue" points="328.41,-247.99 336.96,-241.73 326.37,-241.3 328.41,-247.99"/>
</g>
<!-- Node13 -->
<g id="node13" class="node">
<title>Node13</title>
<g id="a_node13"><a xlink:href="string_8h_source.html" target="_top" xlink:title=" ">
<polygon fill="white" stroke="black" points="121,-224.5 121,-243.5 169,-243.5 169,-224.5 121,-224.5"/>
<text text-anchor="middle" x="145" y="-231.5" font-family="Helvetica,sans-Serif" font-size="10.00">string.h</text>
</a>
</g>
</g>
<!-- Node1&#45;&gt;Node13 -->
<g id="edge13" class="edge">
<title>Node1&#45;&gt;Node13</title>
<path fill="none" stroke="midnightblue" d="M175.89,-280.08C170.72,-272.53 163.15,-261.49 156.81,-252.23"/>
<polygon fill="midnightblue" stroke="midnightblue" points="159.54,-250.02 151,-243.75 153.76,-253.98 159.54,-250.02"/>
</g>
<!-- Node5 -->
<g id="node5" class="node">
<title>Node5</title>
<g id="a_node5"><a xlink:title=" ">
<polygon fill="white" stroke="#bfbfbf" points="178.5,-0.5 178.5,-19.5 229.5,-19.5 229.5,-0.5 178.5,-0.5"/>
<text text-anchor="middle" x="204" y="-7.5" font-family="Helvetica,sans-Serif" font-size="10.00">stddef.h</text>
</a>
</g>
</g>
<!-- Node4&#45;&gt;Node5 -->
<g id="edge4" class="edge">
<title>Node4&#45;&gt;Node5</title>
<path fill="none" stroke="midnightblue" d="M93.77,-168.24C95.3,-154.99 99.73,-129.53 112,-112 127.5,-89.86 142.37,-95.57 161,-76 174.66,-61.65 186.77,-42.44 194.62,-28.64"/>
<polygon fill="midnightblue" stroke="midnightblue" points="197.8,-30.13 199.55,-19.68 191.66,-26.75 197.8,-30.13"/>
</g>
<!-- Node6 -->
<g id="node6" class="node">
<title>Node6</title>
<g id="a_node6"><a xlink:title=" ">
<polygon fill="white" stroke="#bfbfbf" points="121.5,-112.5 121.5,-131.5 172.5,-131.5 172.5,-112.5 121.5,-112.5"/>
<text text-anchor="middle" x="147" y="-119.5" font-family="Helvetica,sans-Serif" font-size="10.00">stdarg.h</text>
</a>
</g>
</g>
<!-- Node4&#45;&gt;Node6 -->
<g id="edge5" class="edge">
<title>Node4&#45;&gt;Node6</title>
<path fill="none" stroke="midnightblue" d="M101.92,-168.08C109.78,-160.22 121.43,-148.57 130.92,-139.08"/>
<polygon fill="midnightblue" stroke="midnightblue" points="133.65,-141.3 138.25,-131.75 128.7,-136.35 133.65,-141.3"/>
</g>
<!-- Node7 -->
<g id="node7" class="node">
<title>Node7</title>
<g id="a_node7"><a xlink:href="sifdma_8h.html" target="_top" xlink:title=" ">
<polygon fill="white" stroke="black" points="28.5,-56.5 28.5,-75.5 81.5,-75.5 81.5,-56.5 28.5,-56.5"/>
<text text-anchor="middle" x="55" y="-63.5" font-family="Helvetica,sans-Serif" font-size="10.00">sifdma.h</text>
</a>
</g>
</g>
<!-- Node4&#45;&gt;Node7 -->
<g id="edge6" class="edge">
<title>Node4&#45;&gt;Node7</title>
<path fill="none" stroke="midnightblue" d="M90.02,-168.37C83.86,-150.54 69.61,-109.3 61.31,-85.27"/>
<polygon fill="midnightblue" stroke="midnightblue" points="64.54,-83.9 57.97,-75.59 57.93,-86.19 64.54,-83.9"/>
</g>
<!-- Node7&#45;&gt;Node2 -->
<g id="edge7" class="edge">
<title>Node7&#45;&gt;Node2</title>
<path fill="none" stroke="midnightblue" d="M62.93,-56.08C69.85,-48.3 80.07,-36.8 88.45,-27.37"/>
<polygon fill="midnightblue" stroke="midnightblue" points="91.19,-29.55 95.22,-19.75 85.96,-24.9 91.19,-29.55"/>
</g>
<!-- Node10 -->
<g id="node10" class="node">
<title>Node10</title>
<g id="a_node10"><a xlink:href="io__common_8h.html" target="_top" xlink:title=" ">
<polygon fill="white" stroke="black" points="322,-168.5 322,-187.5 396,-187.5 396,-168.5 322,-168.5"/>
<text text-anchor="middle" x="359" y="-175.5" font-family="Helvetica,sans-Serif" font-size="10.00">io_common.h</text>
</a>
</g>
</g>
<!-- Node9&#45;&gt;Node10 -->
<g id="edge10" class="edge">
<title>Node9&#45;&gt;Node10</title>
<path fill="none" stroke="midnightblue" d="M359,-224.08C359,-217.01 359,-206.86 359,-197.99"/>
<polygon fill="midnightblue" stroke="midnightblue" points="362.5,-197.75 359,-187.75 355.5,-197.75 362.5,-197.75"/>
</g>
<!-- Node11 -->
<g id="node11" class="node">
<title>Node11</title>
<g id="a_node11"><a xlink:href="fcntl_8h_source.html" target="_top" xlink:title=" ">
<polygon fill="white" stroke="black" points="408.5,-112.5 408.5,-131.5 469.5,-131.5 469.5,-112.5 408.5,-112.5"/>
<text text-anchor="middle" x="439" y="-119.5" font-family="Helvetica,sans-Serif" font-size="10.00">sys/fcntl.h</text>
</a>
</g>
</g>
<!-- Node10&#45;&gt;Node11 -->
<g id="edge11" class="edge">
<title>Node10&#45;&gt;Node11</title>
<path fill="none" stroke="midnightblue" d="M371.85,-168.32C384.22,-159.98 403.13,-147.21 417.74,-137.35"/>
<polygon fill="midnightblue" stroke="midnightblue" points="419.85,-140.15 426.18,-131.65 415.93,-134.35 419.85,-140.15"/>
</g>
<!-- Node12 -->
<g id="node12" class="node">
<title>Node12</title>
<g id="a_node12"><a xlink:href="unistd_8h_source.html" target="_top" xlink:title=" ">
<polygon fill="white" stroke="black" points="322,-112.5 322,-131.5 390,-131.5 390,-112.5 322,-112.5"/>
<text text-anchor="middle" x="356" y="-119.5" font-family="Helvetica,sans-Serif" font-size="10.00">sys/unistd.h</text>
</a>
</g>
</g>
<!-- Node10&#45;&gt;Node12 -->
<g id="edge12" class="edge">
<title>Node10&#45;&gt;Node12</title>
<path fill="none" stroke="midnightblue" d="M358.5,-168.08C358.11,-161.01 357.55,-150.86 357.05,-141.99"/>
<polygon fill="midnightblue" stroke="midnightblue" points="360.54,-141.54 356.49,-131.75 353.55,-141.93 360.54,-141.54"/>
</g>
<!-- Node14 -->
<g id="node14" class="node">
<title>Node14</title>
<g id="a_node14"><a xlink:href="sysclib_8h.html" target="_top" xlink:title=" ">
<polygon fill="white" stroke="black" points="174,-168.5 174,-187.5 228,-187.5 228,-168.5 174,-168.5"/>
<text text-anchor="middle" x="201" y="-175.5" font-family="Helvetica,sans-Serif" font-size="10.00">sysclib.h</text>
</a>
</g>
</g>
<!-- Node13&#45;&gt;Node14 -->
<g id="edge14" class="edge">
<title>Node13&#45;&gt;Node14</title>
<path fill="none" stroke="midnightblue" d="M154,-224.32C162.19,-216.42 174.51,-204.55 184.47,-194.94"/>
<polygon fill="midnightblue" stroke="midnightblue" points="187.07,-197.29 191.84,-187.83 182.21,-192.26 187.07,-197.29"/>
</g>
<!-- Node14&#45;&gt;Node6 -->
<g id="edge20" class="edge">
<title>Node14&#45;&gt;Node6</title>
<path fill="none" stroke="midnightblue" d="M192.08,-168.08C184.22,-160.22 172.57,-148.57 163.08,-139.08"/>
<polygon fill="midnightblue" stroke="midnightblue" points="165.3,-136.35 155.75,-131.75 160.35,-141.3 165.3,-136.35"/>
</g>
<!-- Node15 -->
<g id="node15" class="node">
<title>Node15</title>
<g id="a_node15"><a xlink:href="types_8h_source.html" target="_top" xlink:title=" ">
<polygon fill="white" stroke="black" points="212.5,-56.5 212.5,-75.5 259.5,-75.5 259.5,-56.5 212.5,-56.5"/>
<text text-anchor="middle" x="236" y="-63.5" font-family="Helvetica,sans-Serif" font-size="10.00">types.h</text>
</a>
</g>
</g>
<!-- Node14&#45;&gt;Node15 -->
<g id="edge15" class="edge">
<title>Node14&#45;&gt;Node15</title>
<path fill="none" stroke="midnightblue" d="M203.75,-168.37C209.42,-150.54 222.54,-109.3 230.19,-85.27"/>
<polygon fill="midnightblue" stroke="midnightblue" points="233.57,-86.18 233.27,-75.59 226.9,-84.06 233.57,-86.18"/>
</g>
<!-- Node16 -->
<g id="node16" class="node">
<title>Node16</title>
<g id="a_node16"><a xlink:href="irx_8h.html" target="_top" xlink:title=" ">
<polygon fill="white" stroke="black" points="267,-112.5 267,-131.5 301,-131.5 301,-112.5 267,-112.5"/>
<text text-anchor="middle" x="284" y="-119.5" font-family="Helvetica,sans-Serif" font-size="10.00">irx.h</text>
</a>
</g>
</g>
<!-- Node14&#45;&gt;Node16 -->
<g id="edge18" class="edge">
<title>Node14&#45;&gt;Node16</title>
<path fill="none" stroke="midnightblue" d="M214.34,-168.32C227.16,-159.98 246.78,-147.21 261.94,-137.35"/>
<polygon fill="midnightblue" stroke="midnightblue" points="264.22,-140.04 270.7,-131.65 260.41,-134.17 264.22,-140.04"/>
</g>
<!-- Node17 -->
<g id="node17" class="node">
<title>Node17</title>
<g id="a_node17"><a xlink:href="setjmp_8h.html" target="_top" xlink:title=" ">
<polygon fill="white" stroke="black" points="99.5,-56.5 99.5,-75.5 152.5,-75.5 152.5,-56.5 99.5,-56.5"/>
<text text-anchor="middle" x="126" y="-63.5" font-family="Helvetica,sans-Serif" font-size="10.00">setjmp.h</text>
</a>
</g>
</g>
<!-- Node14&#45;&gt;Node17 -->
<g id="edge21" class="edge">
<title>Node14&#45;&gt;Node17</title>
<path fill="none" stroke="midnightblue" d="M199.96,-168.32C198.04,-155.16 192.99,-129.83 181,-112 172.75,-99.72 160.15,-89.07 149.1,-81.22"/>
<polygon fill="midnightblue" stroke="midnightblue" points="150.93,-78.23 140.68,-75.54 147.01,-84.03 150.93,-78.23"/>
</g>
<!-- Node15&#45;&gt;Node2 -->
<g id="edge17" class="edge">
<title>Node15&#45;&gt;Node2</title>
<path fill="none" stroke="midnightblue" d="M214.93,-56.44C192.94,-47.52 158.27,-33.44 133.34,-23.32"/>
<polygon fill="midnightblue" stroke="midnightblue" points="134.56,-20.04 123.98,-19.52 131.92,-26.52 134.56,-20.04"/>
</g>
<!-- Node15&#45;&gt;Node5 -->
<g id="edge16" class="edge">
<title>Node15&#45;&gt;Node5</title>
<path fill="none" stroke="midnightblue" d="M230.72,-56.08C226.29,-48.61 219.84,-37.72 214.38,-28.52"/>
<polygon fill="midnightblue" stroke="midnightblue" points="217.29,-26.57 209.19,-19.75 211.27,-30.14 217.29,-26.57"/>
</g>
<!-- Node16&#45;&gt;Node15 -->
<g id="edge19" class="edge">
<title>Node16&#45;&gt;Node15</title>
<path fill="none" stroke="midnightblue" d="M276.07,-112.08C269.15,-104.3 258.93,-92.8 250.55,-83.37"/>
<polygon fill="midnightblue" stroke="midnightblue" points="253.04,-80.9 243.78,-75.75 247.81,-85.55 253.04,-80.9"/>
</g>
<!-- Node17&#45;&gt;Node2 -->
<g id="edge22" class="edge">
<title>Node17&#45;&gt;Node2</title>
<path fill="none" stroke="midnightblue" d="M122.2,-56.08C119.09,-48.77 114.58,-38.18 110.71,-29.1"/>
<polygon fill="midnightblue" stroke="midnightblue" points="113.87,-27.58 106.73,-19.75 107.43,-30.32 113.87,-27.58"/>
</g>
</g>
</svg>
