<?xml version="1.0" encoding="UTF-8" standalone="no"?>
<!DOCTYPE svg PUBLIC "-//W3C//DTD SVG 1.1//EN"
 "http://www.w3.org/Graphics/SVG/1.1/DTD/svg11.dtd">
<!-- Generated by graphviz version 2.46.1 (20210215.1649)
 -->
<!-- Title: iop/system/padman/src/freepad.c Pages: 1 -->
<svg width="729pt" height="263pt"
 viewBox="0.00 0.00 729.00 263.00" xmlns="http://www.w3.org/2000/svg" xmlns:xlink="http://www.w3.org/1999/xlink">
<g id="graph0" class="graph" transform="scale(1 1) rotate(0) translate(4 259)">
<title>iop/system/padman/src/freepad.c</title>
<polygon fill="white" stroke="transparent" points="-4,4 -4,-259 725,-259 725,4 -4,4"/>
<!-- Node1 -->
<g id="node1" class="node">
<title>Node1</title>
<g id="a_node1"><a xlink:title=" ">
<polygon fill="#bfbfbf" stroke="black" points="298.5,-224.5 298.5,-254.5 416.5,-254.5 416.5,-224.5 298.5,-224.5"/>
<text text-anchor="start" x="306.5" y="-242.5" font-family="Helvetica,sans-Serif" font-size="10.00">iop/system/padman/src</text>
<text text-anchor="middle" x="357.5" y="-231.5" font-family="Helvetica,sans-Serif" font-size="10.00">/freepad.c</text>
</a>
</g>
</g>
<!-- Node2 -->
<g id="node2" class="node">
<title>Node2</title>
<g id="a_node2"><a xlink:href="irx_8h.html" target="_top" xlink:title=" ">
<polygon fill="white" stroke="black" points="221.5,-112.5 221.5,-131.5 255.5,-131.5 255.5,-112.5 221.5,-112.5"/>
<text text-anchor="middle" x="238.5" y="-119.5" font-family="Helvetica,sans-Serif" font-size="10.00">irx.h</text>
</a>
</g>
</g>
<!-- Node1&#45;&gt;Node2 -->
<g id="edge1" class="edge">
<title>Node1&#45;&gt;Node2</title>
<path fill="none" stroke="midnightblue" d="M308.35,-224.5C289,-216.68 268.18,-204.98 254.5,-188 243.91,-174.86 240.19,-155.72 238.95,-141.61"/>
<polygon fill="midnightblue" stroke="midnightblue" points="242.44,-141.38 238.4,-131.58 235.45,-141.76 242.44,-141.38"/>
</g>
<!-- Node6 -->
<g id="node6" class="node">
<title>Node6</title>
<g id="a_node6"><a xlink:title=" ">
<polygon fill="white" stroke="#bfbfbf" points="511,-112.5 511,-131.5 558,-131.5 558,-112.5 511,-112.5"/>
<text text-anchor="middle" x="534.5" y="-119.5" font-family="Helvetica,sans-Serif" font-size="10.00">types.h</text>
</a>
</g>
</g>
<!-- Node1&#45;&gt;Node6 -->
<g id="edge5" class="edge">
<title>Node1&#45;&gt;Node6</title>
<path fill="none" stroke="midnightblue" d="M416.53,-230.35C464.96,-222.31 528,-208.27 543.5,-188 553.75,-174.6 549.13,-154.96 543.42,-140.78"/>
<polygon fill="midnightblue" stroke="midnightblue" points="546.57,-139.25 539.26,-131.58 540.19,-142.13 546.57,-139.25"/>
</g>
<!-- Node7 -->
<g id="node7" class="node">
<title>Node7</title>
<g id="a_node7"><a xlink:href="ctype_8h.html" target="_top" xlink:title=" ">
<polygon fill="white" stroke="black" points="591,-168.5 591,-187.5 638,-187.5 638,-168.5 591,-168.5"/>
<text text-anchor="middle" x="614.5" y="-175.5" font-family="Helvetica,sans-Serif" font-size="10.00">ctype.h</text>
</a>
</g>
</g>
<!-- Node1&#45;&gt;Node7 -->
<g id="edge6" class="edge">
<title>Node1&#45;&gt;Node7</title>
<path fill="none" stroke="midnightblue" d="M416.55,-224.98C460.63,-214.87 522.36,-200.65 576.5,-188 577.94,-187.66 579.42,-187.32 580.91,-186.97"/>
<polygon fill="midnightblue" stroke="midnightblue" points="581.86,-190.34 590.79,-184.64 580.25,-183.53 581.86,-190.34"/>
</g>
<!-- Node8 -->
<g id="node8" class="node">
<title>Node8</title>
<g id="a_node8"><a xlink:href="stdio_8h.html" target="_top" xlink:title=" ">
<polygon fill="white" stroke="black" points="264,-168.5 264,-187.5 309,-187.5 309,-168.5 264,-168.5"/>
<text text-anchor="middle" x="286.5" y="-175.5" font-family="Helvetica,sans-Serif" font-size="10.00">stdio.h</text>
</a>
</g>
</g>
<!-- Node1&#45;&gt;Node8 -->
<g id="edge7" class="edge">
<title>Node1&#45;&gt;Node8</title>
<path fill="none" stroke="midnightblue" d="M340.67,-224.4C329.83,-215.31 315.72,-203.49 304.63,-194.19"/>
<polygon fill="midnightblue" stroke="midnightblue" points="306.74,-191.4 296.83,-187.66 302.25,-196.76 306.74,-191.4"/>
</g>
<!-- Node10 -->
<g id="node10" class="node">
<title>Node10</title>
<g id="a_node10"><a xlink:href="loadcore_8h.html" target="_top" xlink:title=" ">
<polygon fill="white" stroke="black" points="0,-168.5 0,-187.5 61,-187.5 61,-168.5 0,-168.5"/>
<text text-anchor="middle" x="30.5" y="-175.5" font-family="Helvetica,sans-Serif" font-size="10.00">loadcore.h</text>
</a>
</g>
</g>
<!-- Node1&#45;&gt;Node10 -->
<g id="edge10" class="edge">
<title>Node1&#45;&gt;Node10</title>
<path fill="none" stroke="midnightblue" d="M298.26,-228.91C242.33,-219.67 155.89,-204.91 71.1,-188.04"/>
<polygon fill="midnightblue" stroke="midnightblue" points="71.54,-184.56 61.04,-186.03 70.16,-191.42 71.54,-184.56"/>
</g>
<!-- Node11 -->
<g id="node11" class="node">
<title>Node11</title>
<g id="a_node11"><a xlink:href="sysclib_8h.html" target="_top" xlink:title=" ">
<polygon fill="white" stroke="black" points="406.5,-168.5 406.5,-187.5 460.5,-187.5 460.5,-168.5 406.5,-168.5"/>
<text text-anchor="middle" x="433.5" y="-175.5" font-family="Helvetica,sans-Serif" font-size="10.00">sysclib.h</text>
</a>
</g>
</g>
<!-- Node1&#45;&gt;Node11 -->
<g id="edge13" class="edge">
<title>Node1&#45;&gt;Node11</title>
<path fill="none" stroke="midnightblue" d="M375.51,-224.4C387.24,-215.22 402.52,-203.26 414.44,-193.92"/>
<polygon fill="midnightblue" stroke="midnightblue" points="416.72,-196.58 422.44,-187.66 412.41,-191.07 416.72,-196.58"/>
</g>
<!-- Node13 -->
<g id="node13" class="node">
<title>Node13</title>
<g id="a_node13"><a xlink:href="sysmem_8h.html" target="_top" xlink:title=" ">
<polygon fill="white" stroke="black" points="327,-168.5 327,-187.5 388,-187.5 388,-168.5 327,-168.5"/>
<text text-anchor="middle" x="357.5" y="-175.5" font-family="Helvetica,sans-Serif" font-size="10.00">sysmem.h</text>
</a>
</g>
</g>
<!-- Node1&#45;&gt;Node13 -->
<g id="edge19" class="edge">
<title>Node1&#45;&gt;Node13</title>
<path fill="none" stroke="midnightblue" d="M357.5,-224.4C357.5,-216.47 357.5,-206.46 357.5,-197.86"/>
<polygon fill="midnightblue" stroke="midnightblue" points="361,-197.66 357.5,-187.66 354,-197.66 361,-197.66"/>
</g>
<!-- Node14 -->
<g id="node14" class="node">
<title>Node14</title>
<g id="a_node14"><a xlink:href="thevent_8h.html" target="_top" xlink:title=" ">
<polygon fill="white" stroke="black" points="79.5,-168.5 79.5,-187.5 135.5,-187.5 135.5,-168.5 79.5,-168.5"/>
<text text-anchor="middle" x="107.5" y="-175.5" font-family="Helvetica,sans-Serif" font-size="10.00">thevent.h</text>
</a>
</g>
</g>
<!-- Node1&#45;&gt;Node14 -->
<g id="edge23" class="edge">
<title>Node1&#45;&gt;Node14</title>
<path fill="none" stroke="midnightblue" d="M298.26,-224.55C257.85,-215.01 202.83,-201.99 145.71,-188.28"/>
<polygon fill="midnightblue" stroke="midnightblue" points="146.32,-184.83 135.78,-185.9 144.68,-191.63 146.32,-184.83"/>
</g>
<!-- Node15 -->
<g id="node15" class="node">
<title>Node15</title>
<g id="a_node15"><a xlink:href="thbase_8h.html" target="_top" xlink:title=" ">
<polygon fill="white" stroke="black" points="154,-168.5 154,-187.5 207,-187.5 207,-168.5 154,-168.5"/>
<text text-anchor="middle" x="180.5" y="-175.5" font-family="Helvetica,sans-Serif" font-size="10.00">thbase.h</text>
</a>
</g>
</g>
<!-- Node1&#45;&gt;Node15 -->
<g id="edge26" class="edge">
<title>Node1&#45;&gt;Node15</title>
<path fill="none" stroke="midnightblue" d="M315.55,-224.4C285.1,-214.16 244.37,-200.47 215.63,-190.81"/>
<polygon fill="midnightblue" stroke="midnightblue" points="216.59,-187.44 206,-187.57 214.36,-194.07 216.59,-187.44"/>
</g>
<!-- Node16 -->
<g id="node16" class="node">
<title>Node16</title>
<g id="a_node16"><a xlink:href="rpcserver_8h.html" target="_top" xlink:title=" ">
<polygon fill="white" stroke="black" points="656,-168.5 656,-187.5 721,-187.5 721,-168.5 656,-168.5"/>
<text text-anchor="middle" x="688.5" y="-175.5" font-family="Helvetica,sans-Serif" font-size="10.00">rpcserver.h</text>
</a>
</g>
</g>
<!-- Node1&#45;&gt;Node16 -->
<g id="edge29" class="edge">
<title>Node1&#45;&gt;Node16</title>
<path fill="none" stroke="midnightblue" d="M416.51,-229C473.03,-219.72 560.95,-204.84 646.03,-188.23"/>
<polygon fill="midnightblue" stroke="midnightblue" points="646.71,-191.66 655.85,-186.3 645.37,-184.79 646.71,-191.66"/>
</g>
<!-- Node17 -->
<g id="node17" class="node">
<title>Node17</title>
<g id="a_node17"><a xlink:href="freepad_8h.html" target="_top" xlink:title=" ">
<polygon fill="white" stroke="black" points="478.5,-168.5 478.5,-187.5 534.5,-187.5 534.5,-168.5 478.5,-168.5"/>
<text text-anchor="middle" x="506.5" y="-175.5" font-family="Helvetica,sans-Serif" font-size="10.00">freepad.h</text>
</a>
</g>
</g>
<!-- Node1&#45;&gt;Node17 -->
<g id="edge30" class="edge">
<title>Node1&#45;&gt;Node17</title>
<path fill="none" stroke="midnightblue" d="M392.81,-224.4C417.92,-214.37 451.34,-201.03 475.44,-191.4"/>
<polygon fill="midnightblue" stroke="midnightblue" points="476.83,-194.62 484.82,-187.66 474.23,-188.12 476.83,-194.62"/>
</g>
<!-- Node3 -->
<g id="node3" class="node">
<title>Node3</title>
<g id="a_node3"><a xlink:href="types_8h_source.html" target="_top" xlink:title=" ">
<polygon fill="white" stroke="black" points="215,-56.5 215,-75.5 262,-75.5 262,-56.5 215,-56.5"/>
<text text-anchor="middle" x="238.5" y="-63.5" font-family="Helvetica,sans-Serif" font-size="10.00">types.h</text>
</a>
</g>
</g>
<!-- Node2&#45;&gt;Node3 -->
<g id="edge2" class="edge">
<title>Node2&#45;&gt;Node3</title>
<path fill="none" stroke="midnightblue" d="M238.5,-112.08C238.5,-105.01 238.5,-94.86 238.5,-85.99"/>
<polygon fill="midnightblue" stroke="midnightblue" points="242,-85.75 238.5,-75.75 235,-85.75 242,-85.75"/>
</g>
<!-- Node4 -->
<g id="node4" class="node">
<title>Node4</title>
<g id="a_node4"><a xlink:title=" ">
<polygon fill="white" stroke="#bfbfbf" points="213,-0.5 213,-19.5 264,-19.5 264,-0.5 213,-0.5"/>
<text text-anchor="middle" x="238.5" y="-7.5" font-family="Helvetica,sans-Serif" font-size="10.00">stddef.h</text>
</a>
</g>
</g>
<!-- Node3&#45;&gt;Node4 -->
<g id="edge3" class="edge">
<title>Node3&#45;&gt;Node4</title>
<path fill="none" stroke="midnightblue" d="M238.5,-56.08C238.5,-49.01 238.5,-38.86 238.5,-29.99"/>
<polygon fill="midnightblue" stroke="midnightblue" points="242,-29.75 238.5,-19.75 235,-29.75 242,-29.75"/>
</g>
<!-- Node5 -->
<g id="node5" class="node">
<title>Node5</title>
<g id="a_node5"><a xlink:href="tamtypes_8h.html" target="_top" xlink:title=" ">
<polygon fill="white" stroke="black" points="343.5,-0.5 343.5,-19.5 407.5,-19.5 407.5,-0.5 343.5,-0.5"/>
<text text-anchor="middle" x="375.5" y="-7.5" font-family="Helvetica,sans-Serif" font-size="10.00">tamtypes.h</text>
</a>
</g>
</g>
<!-- Node3&#45;&gt;Node5 -->
<g id="edge4" class="edge">
<title>Node3&#45;&gt;Node5</title>
<path fill="none" stroke="midnightblue" d="M260.21,-56.44C282.85,-47.52 318.57,-33.44 344.25,-23.32"/>
<polygon fill="midnightblue" stroke="midnightblue" points="345.87,-26.44 353.89,-19.52 343.31,-19.93 345.87,-26.44"/>
</g>
<!-- Node8&#45;&gt;Node2 -->
<g id="edge9" class="edge">
<title>Node8&#45;&gt;Node2</title>
<path fill="none" stroke="midnightblue" d="M278.57,-168.08C271.65,-160.3 261.43,-148.8 253.05,-139.37"/>
<polygon fill="midnightblue" stroke="midnightblue" points="255.54,-136.9 246.28,-131.75 250.31,-141.55 255.54,-136.9"/>
</g>
<!-- Node9 -->
<g id="node9" class="node">
<title>Node9</title>
<g id="a_node9"><a xlink:title=" ">
<polygon fill="white" stroke="#bfbfbf" points="278,-112.5 278,-131.5 329,-131.5 329,-112.5 278,-112.5"/>
<text text-anchor="middle" x="303.5" y="-119.5" font-family="Helvetica,sans-Serif" font-size="10.00">stdarg.h</text>
</a>
</g>
</g>
<!-- Node8&#45;&gt;Node9 -->
<g id="edge8" class="edge">
<title>Node8&#45;&gt;Node9</title>
<path fill="none" stroke="midnightblue" d="M289.31,-168.08C291.58,-160.85 294.87,-150.41 297.71,-141.4"/>
<polygon fill="midnightblue" stroke="midnightblue" points="301.08,-142.34 300.75,-131.75 294.4,-140.24 301.08,-142.34"/>
</g>
<!-- Node10&#45;&gt;Node2 -->
<g id="edge12" class="edge">
<title>Node10&#45;&gt;Node2</title>
<path fill="none" stroke="midnightblue" d="M61.19,-169.03C101.79,-158.49 172.7,-140.08 211.4,-130.03"/>
<polygon fill="midnightblue" stroke="midnightblue" points="212.62,-133.34 221.41,-127.44 210.86,-126.56 212.62,-133.34"/>
</g>
<!-- Node10&#45;&gt;Node3 -->
<g id="edge11" class="edge">
<title>Node10&#45;&gt;Node3</title>
<path fill="none" stroke="midnightblue" d="M46.82,-168.37C82.97,-149.25 169.99,-103.23 213.24,-80.36"/>
<polygon fill="midnightblue" stroke="midnightblue" points="215.05,-83.36 222.25,-75.59 211.78,-77.17 215.05,-83.36"/>
</g>
<!-- Node11&#45;&gt;Node2 -->
<g id="edge15" class="edge">
<title>Node11&#45;&gt;Node2</title>
<path fill="none" stroke="midnightblue" d="M406.29,-169.8C373.53,-161.09 316.88,-145.85 268.5,-132 267.45,-131.7 266.39,-131.39 265.31,-131.08"/>
<polygon fill="midnightblue" stroke="midnightblue" points="266.19,-127.69 255.61,-128.21 264.21,-134.4 266.19,-127.69"/>
</g>
<!-- Node11&#45;&gt;Node3 -->
<g id="edge14" class="edge">
<title>Node11&#45;&gt;Node3</title>
<path fill="none" stroke="midnightblue" d="M425.37,-168.33C412.22,-154.73 384.99,-128.27 357.5,-112 330.44,-95.98 296.67,-83.86 272.02,-76.26"/>
<polygon fill="midnightblue" stroke="midnightblue" points="272.98,-72.89 262.4,-73.37 270.97,-79.6 272.98,-72.89"/>
</g>
<!-- Node11&#45;&gt;Node9 -->
<g id="edge16" class="edge">
<title>Node11&#45;&gt;Node9</title>
<path fill="none" stroke="midnightblue" d="M412.9,-168.44C391.51,-159.56 357.82,-145.56 333.48,-135.45"/>
<polygon fill="midnightblue" stroke="midnightblue" points="334.58,-132.12 324,-131.52 331.89,-138.58 334.58,-132.12"/>
</g>
<!-- Node12 -->
<g id="node12" class="node">
<title>Node12</title>
<g id="a_node12"><a xlink:href="setjmp_8h.html" target="_top" xlink:title=" ">
<polygon fill="white" stroke="black" points="378,-56.5 378,-75.5 431,-75.5 431,-56.5 378,-56.5"/>
<text text-anchor="middle" x="404.5" y="-63.5" font-family="Helvetica,sans-Serif" font-size="10.00">setjmp.h</text>
</a>
</g>
</g>
<!-- Node11&#45;&gt;Node12 -->
<g id="edge17" class="edge">
<title>Node11&#45;&gt;Node12</title>
<path fill="none" stroke="midnightblue" d="M431.22,-168.37C426.52,-150.54 415.65,-109.3 409.32,-85.27"/>
<polygon fill="midnightblue" stroke="midnightblue" points="412.7,-84.37 406.77,-75.59 405.93,-86.15 412.7,-84.37"/>
</g>
<!-- Node12&#45;&gt;Node5 -->
<g id="edge18" class="edge">
<title>Node12&#45;&gt;Node5</title>
<path fill="none" stroke="midnightblue" d="M399.71,-56.08C395.74,-48.69 389.97,-37.95 385.07,-28.81"/>
<polygon fill="midnightblue" stroke="midnightblue" points="388.01,-26.91 380.2,-19.75 381.85,-30.22 388.01,-26.91"/>
</g>
<!-- Node13&#45;&gt;Node2 -->
<g id="edge21" class="edge">
<title>Node13&#45;&gt;Node2</title>
<path fill="none" stroke="midnightblue" d="M338.64,-168.44C318.78,-159.43 287.33,-145.16 264.98,-135.02"/>
<polygon fill="midnightblue" stroke="midnightblue" points="266.27,-131.76 255.72,-130.82 263.38,-138.13 266.27,-131.76"/>
</g>
<!-- Node13&#45;&gt;Node3 -->
<g id="edge20" class="edge">
<title>Node13&#45;&gt;Node3</title>
<path fill="none" stroke="midnightblue" d="M357.05,-168.34C355.9,-154.76 351.85,-128.31 337.5,-112 320.49,-92.66 293.51,-81.16 272,-74.63"/>
<polygon fill="midnightblue" stroke="midnightblue" points="272.83,-71.22 262.26,-71.89 270.94,-77.96 272.83,-71.22"/>
</g>
<!-- Node13&#45;&gt;Node9 -->
<g id="edge22" class="edge">
<title>Node13&#45;&gt;Node9</title>
<path fill="none" stroke="midnightblue" d="M348.58,-168.08C340.72,-160.22 329.07,-148.57 319.58,-139.08"/>
<polygon fill="midnightblue" stroke="midnightblue" points="321.8,-136.35 312.25,-131.75 316.85,-141.3 321.8,-136.35"/>
</g>
<!-- Node14&#45;&gt;Node2 -->
<g id="edge25" class="edge">
<title>Node14&#45;&gt;Node2</title>
<path fill="none" stroke="midnightblue" d="M128.26,-168.44C150.83,-159.14 186.99,-144.23 211.69,-134.05"/>
<polygon fill="midnightblue" stroke="midnightblue" points="213.28,-137.18 221.19,-130.14 210.61,-130.71 213.28,-137.18"/>
</g>
<!-- Node14&#45;&gt;Node3 -->
<g id="edge24" class="edge">
<title>Node14&#45;&gt;Node3</title>
<path fill="none" stroke="midnightblue" d="M117.78,-168.37C139.97,-149.73 192.61,-105.53 220.48,-82.13"/>
<polygon fill="midnightblue" stroke="midnightblue" points="222.86,-84.7 228.27,-75.59 218.36,-79.34 222.86,-84.7"/>
</g>
<!-- Node15&#45;&gt;Node2 -->
<g id="edge28" class="edge">
<title>Node15&#45;&gt;Node2</title>
<path fill="none" stroke="midnightblue" d="M189.82,-168.32C198.39,-160.34 211.31,-148.31 221.69,-138.65"/>
<polygon fill="midnightblue" stroke="midnightblue" points="224.08,-141.21 229.01,-131.83 219.31,-136.09 224.08,-141.21"/>
</g>
<!-- Node15&#45;&gt;Node3 -->
<g id="edge27" class="edge">
<title>Node15&#45;&gt;Node3</title>
<path fill="none" stroke="midnightblue" d="M184.47,-168.5C190.34,-155.99 201.83,-131.97 212.5,-112 217.45,-102.73 223.28,-92.59 228.16,-84.28"/>
<polygon fill="midnightblue" stroke="midnightblue" points="231.25,-85.92 233.34,-75.53 225.23,-82.35 231.25,-85.92"/>
</g>
<!-- Node17&#45;&gt;Node2 -->
<g id="edge31" class="edge">
<title>Node17&#45;&gt;Node2</title>
<path fill="none" stroke="midnightblue" d="M478.26,-169.94C475.31,-169.26 472.35,-168.6 469.5,-168 380.7,-149.27 356.77,-153.07 268.5,-132 267.44,-131.75 266.37,-131.48 265.28,-131.2"/>
<polygon fill="midnightblue" stroke="midnightblue" points="266.12,-127.8 255.54,-128.48 264.23,-134.54 266.12,-127.8"/>
</g>
<!-- Node17&#45;&gt;Node6 -->
<g id="edge32" class="edge">
<title>Node17&#45;&gt;Node6</title>
<path fill="none" stroke="midnightblue" d="M511.12,-168.08C514.96,-160.69 520.52,-149.95 525.26,-140.81"/>
<polygon fill="midnightblue" stroke="midnightblue" points="528.47,-142.24 529.96,-131.75 522.25,-139.02 528.47,-142.24"/>
</g>
</g>
</svg>
