<?xml version="1.0" encoding="UTF-8" standalone="no"?>
<!DOCTYPE svg PUBLIC "-//W3C//DTD SVG 1.1//EN"
 "http://www.w3.org/Graphics/SVG/1.1/DTD/svg11.dtd">
<!-- Generated by graphviz version 2.46.1 (20210215.1649)
 -->
<!-- Title: iop/usb/usbd/src/hcd.c Pages: 1 -->
<!--zoomable 364 -->
<svg id="main" version="1.1" xmlns="http://www.w3.org/2000/svg" xmlns:xlink="http://www.w3.org/1999/xlink" xml:space="preserve" onload="init(evt)">
<style type="text/css"><![CDATA[
.edge:hover path { stroke: red; }
.edge:hover polygon { stroke: red; fill: red; }
]]></style>
<script type="text/javascript"><![CDATA[
var edges = document.getElementsByTagName('g');
if (edges && edges.length) {
  for (var i=0;i<edges.length;i++) {
    if (edges[i].id.substr(0,4)=='edge') {
      edges[i].setAttribute('class','edge');
    }
  }
}
]]></script>
        <defs>
                <circle id="rim" cx="0" cy="0" r="7"/>
                <circle id="rim2" cx="0" cy="0" r="3.5"/>
                <g id="zoomPlus">
                        <use xlink:href="#rim" fill="#404040">
                                <set attributeName="fill" to="#808080" begin="zoomplus.mouseover" end="zoomplus.mouseout"/>
                        </use>
                        <path d="M-4,0h8M0,-4v8" fill="none" stroke="white" stroke-width="1.5" pointer-events="none"/>
                </g>
                <g id="zoomMin">
                        <use xlink:href="#rim" fill="#404040">
                                <set attributeName="fill" to="#808080" begin="zoomminus.mouseover" end="zoomminus.mouseout"/>
                        </use>
                        <path d="M-4,0h8" fill="none" stroke="white" stroke-width="1.5" pointer-events="none"/>
                </g>
                <g id="dirArrow">
                        <path fill="none" stroke="white" stroke-width="1.5" d="M0,-3.0v7 M-2.5,-0.5L0,-3.0L2.5,-0.5"/>
                </g>
               <g id="resetDef">
                       <use xlink:href="#rim2" fill="#404040">
                               <set attributeName="fill" to="#808080" begin="reset.mouseover" end="reset.mouseout"/>
                       </use>
               </g>
        </defs>

<script type="text/javascript">
var viewWidth = 595;
var viewHeight = 364;
var sectionId = 'dynsection-0';
</script>
<script xlink:href="svgpan.js"/>
<svg id="graph" class="graph">
<g id="viewport">
<title>iop/usb/usbd/src/hcd.c</title>
<polygon fill="white" stroke="transparent" points="-4,4 -4,-360 590.5,-360 590.5,4 -4,4"/>
<!-- Node1 -->
<g id="node1" class="node">
<title>Node1</title>
<g id="a_node1"><a xlink:title=" ">
<polygon fill="#bfbfbf" stroke="black" points="221,-336.5 221,-355.5 336,-355.5 336,-336.5 221,-336.5"/>
<text text-anchor="middle" x="278.5" y="-343.5" font-family="Helvetica,sans-Serif" font-size="10.00">iop/usb/usbd/src/hcd.c</text>
</a>
</g>
</g>
<!-- Node2 -->
<g id="node2" class="node">
<title>Node2</title>
<g id="a_node2"><a xlink:href="usbdpriv_8h.html" target="_top" xlink:title=" ">
<polygon fill="white" stroke="black" points="17,-224.5 17,-243.5 78,-243.5 78,-224.5 17,-224.5"/>
<text text-anchor="middle" x="47.5" y="-231.5" font-family="Helvetica,sans-Serif" font-size="10.00">usbdpriv.h</text>
</a>
</g>
</g>
<!-- Node1&#45;&gt;Node2 -->
<g id="edge1" class="edge">
<title>Node1&#45;&gt;Node2</title>
<path fill="none" stroke="midnightblue" d="M220.82,-343.54C151.24,-340.42 40.36,-330.65 14.5,-300 1.97,-285.15 16.34,-264.73 29.86,-250.76"/>
<polygon fill="midnightblue" stroke="midnightblue" points="32.35,-253.21 37.1,-243.74 27.48,-248.19 32.35,-253.21"/>
</g>
<!-- Node9 -->
<g id="node9" class="node">
<title>Node9</title>
<g id="a_node9"><a xlink:href="mem_8h.html" target="_top" xlink:title=" ">
<polygon fill="white" stroke="black" points="23.5,-280.5 23.5,-299.5 69.5,-299.5 69.5,-280.5 23.5,-280.5"/>
<text text-anchor="middle" x="46.5" y="-287.5" font-family="Helvetica,sans-Serif" font-size="10.00">mem.h</text>
</a>
</g>
</g>
<!-- Node1&#45;&gt;Node9 -->
<g id="edge9" class="edge">
<title>Node1&#45;&gt;Node9</title>
<path fill="none" stroke="midnightblue" d="M237.75,-336.49C199.28,-328.31 139.79,-315.28 79.25,-300.09"/>
<polygon fill="midnightblue" stroke="midnightblue" points="80.09,-296.69 69.53,-297.63 78.37,-303.48 80.09,-296.69"/>
</g>
<!-- Node10 -->
<g id="node10" class="node">
<title>Node10</title>
<g id="a_node10"><a xlink:href="usbio_8h.html" target="_top" xlink:title=" ">
<polygon fill="white" stroke="black" points="478,-280.5 478,-299.5 525,-299.5 525,-280.5 478,-280.5"/>
<text text-anchor="middle" x="501.5" y="-287.5" font-family="Helvetica,sans-Serif" font-size="10.00">usbio.h</text>
</a>
</g>
</g>
<!-- Node1&#45;&gt;Node10 -->
<g id="edge11" class="edge">
<title>Node1&#45;&gt;Node10</title>
<path fill="none" stroke="midnightblue" d="M313.84,-336.44C356.18,-326.19 426.59,-309.14 468.07,-299.09"/>
<polygon fill="midnightblue" stroke="midnightblue" points="469.06,-302.46 477.96,-296.7 467.42,-295.65 469.06,-302.46"/>
</g>
<!-- Node11 -->
<g id="node11" class="node">
<title>Node11</title>
<g id="a_node11"><a xlink:href="hub_8h.html" target="_top" xlink:title=" ">
<polygon fill="white" stroke="black" points="87.5,-280.5 87.5,-299.5 127.5,-299.5 127.5,-280.5 87.5,-280.5"/>
<text text-anchor="middle" x="107.5" y="-287.5" font-family="Helvetica,sans-Serif" font-size="10.00">hub.h</text>
</a>
</g>
</g>
<!-- Node1&#45;&gt;Node11 -->
<g id="edge12" class="edge">
<title>Node1&#45;&gt;Node11</title>
<path fill="none" stroke="midnightblue" d="M251.4,-336.44C220.3,-326.62 169.45,-310.56 137.27,-300.4"/>
<polygon fill="midnightblue" stroke="midnightblue" points="138.11,-297 127.52,-297.32 136,-303.67 138.11,-297"/>
</g>
<!-- Node12 -->
<g id="node12" class="node">
<title>Node12</title>
<g id="a_node12"><a xlink:href="driver_8h.html" target="_top" xlink:title=" ">
<polygon fill="white" stroke="black" points="145.5,-280.5 145.5,-299.5 193.5,-299.5 193.5,-280.5 145.5,-280.5"/>
<text text-anchor="middle" x="169.5" y="-287.5" font-family="Helvetica,sans-Serif" font-size="10.00">driver.h</text>
</a>
</g>
</g>
<!-- Node1&#45;&gt;Node12 -->
<g id="edge14" class="edge">
<title>Node1&#45;&gt;Node12</title>
<path fill="none" stroke="midnightblue" d="M260.99,-336.32C243.43,-327.62 216.17,-314.12 195.97,-304.11"/>
<polygon fill="midnightblue" stroke="midnightblue" points="197.48,-300.96 186.97,-299.65 194.38,-307.23 197.48,-300.96"/>
</g>
<!-- Node13 -->
<g id="node13" class="node">
<title>Node13</title>
<g id="a_node13"><a xlink:href="stdio_8h.html" target="_top" xlink:title=" ">
<polygon fill="white" stroke="black" points="241,-168.5 241,-187.5 286,-187.5 286,-168.5 241,-168.5"/>
<text text-anchor="middle" x="263.5" y="-175.5" font-family="Helvetica,sans-Serif" font-size="10.00">stdio.h</text>
</a>
</g>
</g>
<!-- Node1&#45;&gt;Node13 -->
<g id="edge16" class="edge">
<title>Node1&#45;&gt;Node13</title>
<path fill="none" stroke="midnightblue" d="M278.67,-336.45C278.94,-316.6 278.98,-265.9 273.5,-224 272.34,-215.16 270.3,-205.5 268.36,-197.4"/>
<polygon fill="midnightblue" stroke="midnightblue" points="271.72,-196.38 265.87,-187.55 264.93,-198.1 271.72,-196.38"/>
</g>
<!-- Node15 -->
<g id="node15" class="node">
<title>Node15</title>
<g id="a_node15"><a xlink:href="sysclib_8h.html" target="_top" xlink:title=" ">
<polygon fill="white" stroke="black" points="89.5,-168.5 89.5,-187.5 143.5,-187.5 143.5,-168.5 89.5,-168.5"/>
<text text-anchor="middle" x="116.5" y="-175.5" font-family="Helvetica,sans-Serif" font-size="10.00">sysclib.h</text>
</a>
</g>
</g>
<!-- Node1&#45;&gt;Node15 -->
<g id="edge19" class="edge">
<title>Node1&#45;&gt;Node15</title>
<path fill="none" stroke="midnightblue" d="M269.79,-336.08C243.63,-309.27 165.48,-229.19 132,-194.89"/>
<polygon fill="midnightblue" stroke="midnightblue" points="134.35,-192.28 124.86,-187.57 129.34,-197.17 134.35,-192.28"/>
</g>
<!-- Node17 -->
<g id="node17" class="node">
<title>Node17</title>
<g id="a_node17"><a xlink:href="sysmem_8h.html" target="_top" xlink:title=" ">
<polygon fill="white" stroke="black" points="162,-168.5 162,-187.5 223,-187.5 223,-168.5 162,-168.5"/>
<text text-anchor="middle" x="192.5" y="-175.5" font-family="Helvetica,sans-Serif" font-size="10.00">sysmem.h</text>
</a>
</g>
</g>
<!-- Node1&#45;&gt;Node17 -->
<g id="edge25" class="edge">
<title>Node1&#45;&gt;Node17</title>
<path fill="none" stroke="midnightblue" d="M276.72,-336.24C272.24,-315.51 259.12,-262.34 235.5,-224 228.8,-213.12 219.12,-202.7 210.64,-194.62"/>
<polygon fill="midnightblue" stroke="midnightblue" points="212.76,-191.82 203.01,-187.66 208.04,-196.99 212.76,-191.82"/>
</g>
<!-- Node18 -->
<g id="node18" class="node">
<title>Node18</title>
<g id="a_node18"><a xlink:href="thbase_8h.html" target="_top" xlink:title=" ">
<polygon fill="white" stroke="black" points="459,-168.5 459,-187.5 512,-187.5 512,-168.5 459,-168.5"/>
<text text-anchor="middle" x="485.5" y="-175.5" font-family="Helvetica,sans-Serif" font-size="10.00">thbase.h</text>
</a>
</g>
</g>
<!-- Node1&#45;&gt;Node18 -->
<g id="edge29" class="edge">
<title>Node1&#45;&gt;Node18</title>
<path fill="none" stroke="midnightblue" d="M289.45,-336.41C300.95,-327.38 319.54,-312.74 335.5,-300 383.14,-261.98 438.93,-216.81 467.15,-193.91"/>
<polygon fill="midnightblue" stroke="midnightblue" points="469.42,-196.57 474.98,-187.55 465.01,-191.13 469.42,-196.57"/>
</g>
<!-- Node19 -->
<g id="node19" class="node">
<title>Node19</title>
<g id="a_node19"><a xlink:href="thevent_8h.html" target="_top" xlink:title=" ">
<polygon fill="white" stroke="black" points="530.5,-168.5 530.5,-187.5 586.5,-187.5 586.5,-168.5 530.5,-168.5"/>
<text text-anchor="middle" x="558.5" y="-175.5" font-family="Helvetica,sans-Serif" font-size="10.00">thevent.h</text>
</a>
</g>
</g>
<!-- Node1&#45;&gt;Node19 -->
<g id="edge32" class="edge">
<title>Node1&#45;&gt;Node19</title>
<path fill="none" stroke="midnightblue" d="M294.65,-336.42C311.28,-327.53 337.88,-313.11 360.5,-300 424.81,-262.73 499.28,-216.33 535.85,-193.32"/>
<polygon fill="midnightblue" stroke="midnightblue" points="538.12,-196.03 544.71,-187.73 534.38,-190.1 538.12,-196.03"/>
</g>
<!-- Node20 -->
<g id="node20" class="node">
<title>Node20</title>
<g id="a_node20"><a xlink:href="thsemap_8h.html" target="_top" xlink:title=" ">
<polygon fill="white" stroke="black" points="304.5,-168.5 304.5,-187.5 366.5,-187.5 366.5,-168.5 304.5,-168.5"/>
<text text-anchor="middle" x="335.5" y="-175.5" font-family="Helvetica,sans-Serif" font-size="10.00">thsemap.h</text>
</a>
</g>
</g>
<!-- Node1&#45;&gt;Node20 -->
<g id="edge35" class="edge">
<title>Node1&#45;&gt;Node20</title>
<path fill="none" stroke="midnightblue" d="M281.56,-336.08C290.58,-309.83 317.11,-232.55 329.28,-197.12"/>
<polygon fill="midnightblue" stroke="midnightblue" points="332.62,-198.16 332.56,-187.57 326,-195.89 332.62,-198.16"/>
</g>
<!-- Node21 -->
<g id="node21" class="node">
<title>Node21</title>
<g id="a_node21"><a xlink:href="intrman_8h.html" target="_top" xlink:title=" ">
<polygon fill="white" stroke="black" points="384.5,-168.5 384.5,-187.5 440.5,-187.5 440.5,-168.5 384.5,-168.5"/>
<text text-anchor="middle" x="412.5" y="-175.5" font-family="Helvetica,sans-Serif" font-size="10.00">intrman.h</text>
</a>
</g>
</g>
<!-- Node1&#45;&gt;Node21 -->
<g id="edge38" class="edge">
<title>Node1&#45;&gt;Node21</title>
<path fill="none" stroke="midnightblue" d="M285.7,-336.08C307.16,-309.49 370.9,-230.54 398.97,-195.76"/>
<polygon fill="midnightblue" stroke="midnightblue" points="402.03,-197.55 405.58,-187.57 396.58,-193.15 402.03,-197.55"/>
</g>
<!-- Node3 -->
<g id="node3" class="node">
<title>Node3</title>
<g id="a_node3"><a xlink:href="usbd_8h.html" target="_top" xlink:title=" ">
<polygon fill="white" stroke="black" points="26,-168.5 26,-187.5 71,-187.5 71,-168.5 26,-168.5"/>
<text text-anchor="middle" x="48.5" y="-175.5" font-family="Helvetica,sans-Serif" font-size="10.00">usbd.h</text>
</a>
</g>
</g>
<!-- Node2&#45;&gt;Node3 -->
<g id="edge2" class="edge">
<title>Node2&#45;&gt;Node3</title>
<path fill="none" stroke="midnightblue" d="M47.67,-224.08C47.8,-217.01 47.98,-206.86 48.15,-197.99"/>
<polygon fill="midnightblue" stroke="midnightblue" points="51.65,-197.81 48.34,-187.75 44.65,-197.68 51.65,-197.81"/>
</g>
<!-- Node4 -->
<g id="node4" class="node">
<title>Node4</title>
<g id="a_node4"><a xlink:title=" ">
<polygon fill="white" stroke="#bfbfbf" points="0,-112.5 0,-131.5 47,-131.5 47,-112.5 0,-112.5"/>
<text text-anchor="middle" x="23.5" y="-119.5" font-family="Helvetica,sans-Serif" font-size="10.00">types.h</text>
</a>
</g>
</g>
<!-- Node2&#45;&gt;Node4 -->
<g id="edge8" class="edge">
<title>Node2&#45;&gt;Node4</title>
<path fill="none" stroke="midnightblue" d="M39.02,-224.23C31.45,-215.75 20.9,-202.13 16.5,-188 11.76,-172.76 14.34,-154.65 17.63,-141.42"/>
<polygon fill="midnightblue" stroke="midnightblue" points="21.04,-142.2 20.41,-131.63 14.31,-140.29 21.04,-142.2"/>
</g>
<!-- Node3&#45;&gt;Node4 -->
<g id="edge3" class="edge">
<title>Node3&#45;&gt;Node4</title>
<path fill="none" stroke="midnightblue" d="M44.37,-168.08C40.99,-160.77 36.08,-150.18 31.88,-141.1"/>
<polygon fill="midnightblue" stroke="midnightblue" points="34.93,-139.36 27.55,-131.75 28.58,-142.3 34.93,-139.36"/>
</g>
<!-- Node5 -->
<g id="node5" class="node">
<title>Node5</title>
<g id="a_node5"><a xlink:href="irx_8h.html" target="_top" xlink:title=" ">
<polygon fill="white" stroke="black" points="282.5,-112.5 282.5,-131.5 316.5,-131.5 316.5,-112.5 282.5,-112.5"/>
<text text-anchor="middle" x="299.5" y="-119.5" font-family="Helvetica,sans-Serif" font-size="10.00">irx.h</text>
</a>
</g>
</g>
<!-- Node3&#45;&gt;Node5 -->
<g id="edge4" class="edge">
<title>Node3&#45;&gt;Node5</title>
<path fill="none" stroke="midnightblue" d="M71.17,-170.41C74.3,-169.56 77.47,-168.74 80.5,-168 149.2,-151.3 231.01,-135.59 272.49,-127.91"/>
<polygon fill="midnightblue" stroke="midnightblue" points="273.17,-131.34 282.37,-126.09 271.9,-124.46 273.17,-131.34"/>
</g>
<!-- Node6 -->
<g id="node6" class="node">
<title>Node6</title>
<g id="a_node6"><a xlink:href="types_8h_source.html" target="_top" xlink:title=" ">
<polygon fill="white" stroke="black" points="298,-56.5 298,-75.5 345,-75.5 345,-56.5 298,-56.5"/>
<text text-anchor="middle" x="321.5" y="-63.5" font-family="Helvetica,sans-Serif" font-size="10.00">types.h</text>
</a>
</g>
</g>
<!-- Node5&#45;&gt;Node6 -->
<g id="edge5" class="edge">
<title>Node5&#45;&gt;Node6</title>
<path fill="none" stroke="midnightblue" d="M303.13,-112.08C306.11,-104.77 310.43,-94.18 314.12,-85.1"/>
<polygon fill="midnightblue" stroke="midnightblue" points="317.4,-86.33 317.93,-75.75 310.92,-83.69 317.4,-86.33"/>
</g>
<!-- Node7 -->
<g id="node7" class="node">
<title>Node7</title>
<g id="a_node7"><a xlink:title=" ">
<polygon fill="white" stroke="#bfbfbf" points="296,-0.5 296,-19.5 347,-19.5 347,-0.5 296,-0.5"/>
<text text-anchor="middle" x="321.5" y="-7.5" font-family="Helvetica,sans-Serif" font-size="10.00">stddef.h</text>
</a>
</g>
</g>
<!-- Node6&#45;&gt;Node7 -->
<g id="edge6" class="edge">
<title>Node6&#45;&gt;Node7</title>
<path fill="none" stroke="midnightblue" d="M321.5,-56.08C321.5,-49.01 321.5,-38.86 321.5,-29.99"/>
<polygon fill="midnightblue" stroke="midnightblue" points="325,-29.75 321.5,-19.75 318,-29.75 325,-29.75"/>
</g>
<!-- Node8 -->
<g id="node8" class="node">
<title>Node8</title>
<g id="a_node8"><a xlink:href="tamtypes_8h.html" target="_top" xlink:title=" ">
<polygon fill="white" stroke="black" points="184.5,-0.5 184.5,-19.5 248.5,-19.5 248.5,-0.5 184.5,-0.5"/>
<text text-anchor="middle" x="216.5" y="-7.5" font-family="Helvetica,sans-Serif" font-size="10.00">tamtypes.h</text>
</a>
</g>
</g>
<!-- Node6&#45;&gt;Node8 -->
<g id="edge7" class="edge">
<title>Node6&#45;&gt;Node8</title>
<path fill="none" stroke="midnightblue" d="M304.63,-56.32C287.79,-47.66 261.69,-34.24 242.26,-24.25"/>
<polygon fill="midnightblue" stroke="midnightblue" points="243.82,-21.12 233.33,-19.65 240.62,-27.34 243.82,-21.12"/>
</g>
<!-- Node9&#45;&gt;Node2 -->
<g id="edge10" class="edge">
<title>Node9&#45;&gt;Node2</title>
<path fill="none" stroke="midnightblue" d="M46.67,-280.08C46.8,-273.01 46.98,-262.86 47.15,-253.99"/>
<polygon fill="midnightblue" stroke="midnightblue" points="50.65,-253.81 47.34,-243.75 43.65,-253.68 50.65,-253.81"/>
</g>
<!-- Node11&#45;&gt;Node2 -->
<g id="edge13" class="edge">
<title>Node11&#45;&gt;Node2</title>
<path fill="none" stroke="midnightblue" d="M97.86,-280.32C88.99,-272.34 75.63,-260.31 64.89,-250.65"/>
<polygon fill="midnightblue" stroke="midnightblue" points="67.09,-247.92 57.32,-243.83 62.41,-253.13 67.09,-247.92"/>
</g>
<!-- Node12&#45;&gt;Node2 -->
<g id="edge15" class="edge">
<title>Node12&#45;&gt;Node2</title>
<path fill="none" stroke="midnightblue" d="M150.17,-280.44C130.18,-271.6 98.76,-257.69 75.94,-247.59"/>
<polygon fill="midnightblue" stroke="midnightblue" points="77.3,-244.36 66.74,-243.52 74.47,-250.76 77.3,-244.36"/>
</g>
<!-- Node13&#45;&gt;Node5 -->
<g id="edge18" class="edge">
<title>Node13&#45;&gt;Node5</title>
<path fill="none" stroke="midnightblue" d="M269.44,-168.08C274.48,-160.53 281.84,-149.49 288.01,-140.23"/>
<polygon fill="midnightblue" stroke="midnightblue" points="291.03,-142.01 293.67,-131.75 285.21,-138.13 291.03,-142.01"/>
</g>
<!-- Node14 -->
<g id="node14" class="node">
<title>Node14</title>
<g id="a_node14"><a xlink:title=" ">
<polygon fill="white" stroke="#bfbfbf" points="175,-112.5 175,-131.5 226,-131.5 226,-112.5 175,-112.5"/>
<text text-anchor="middle" x="200.5" y="-119.5" font-family="Helvetica,sans-Serif" font-size="10.00">stdarg.h</text>
</a>
</g>
</g>
<!-- Node13&#45;&gt;Node14 -->
<g id="edge17" class="edge">
<title>Node13&#45;&gt;Node14</title>
<path fill="none" stroke="midnightblue" d="M253.38,-168.32C243.97,-160.26 229.76,-148.08 218.43,-138.37"/>
<polygon fill="midnightblue" stroke="midnightblue" points="220.68,-135.68 210.81,-131.83 216.12,-141 220.68,-135.68"/>
</g>
<!-- Node15&#45;&gt;Node5 -->
<g id="edge21" class="edge">
<title>Node15&#45;&gt;Node5</title>
<path fill="none" stroke="midnightblue" d="M143.5,-169.03C178.1,-158.82 237.73,-141.23 272.39,-131"/>
<polygon fill="midnightblue" stroke="midnightblue" points="273.68,-134.27 282.28,-128.08 271.7,-127.55 273.68,-134.27"/>
</g>
<!-- Node15&#45;&gt;Node6 -->
<g id="edge20" class="edge">
<title>Node15&#45;&gt;Node6</title>
<path fill="none" stroke="midnightblue" d="M120.63,-168.42C127.79,-154.46 143.85,-126.9 165.5,-112 202.58,-86.47 254.12,-75.28 287.63,-70.48"/>
<polygon fill="midnightblue" stroke="midnightblue" points="288.39,-73.91 297.84,-69.13 287.47,-66.97 288.39,-73.91"/>
</g>
<!-- Node15&#45;&gt;Node14 -->
<g id="edge22" class="edge">
<title>Node15&#45;&gt;Node14</title>
<path fill="none" stroke="midnightblue" d="M130,-168.32C143.1,-159.9 163.21,-146.97 178.61,-137.07"/>
<polygon fill="midnightblue" stroke="midnightblue" points="180.52,-140.01 187.04,-131.65 176.73,-134.12 180.52,-140.01"/>
</g>
<!-- Node16 -->
<g id="node16" class="node">
<title>Node16</title>
<g id="a_node16"><a xlink:href="setjmp_8h.html" target="_top" xlink:title=" ">
<polygon fill="white" stroke="black" points="133,-56.5 133,-75.5 186,-75.5 186,-56.5 133,-56.5"/>
<text text-anchor="middle" x="159.5" y="-63.5" font-family="Helvetica,sans-Serif" font-size="10.00">setjmp.h</text>
</a>
</g>
</g>
<!-- Node15&#45;&gt;Node16 -->
<g id="edge23" class="edge">
<title>Node15&#45;&gt;Node16</title>
<path fill="none" stroke="midnightblue" d="M117.79,-168.33C119.86,-155.62 124.53,-131.34 132.5,-112 136.49,-102.31 142.35,-92.25 147.58,-84.1"/>
<polygon fill="midnightblue" stroke="midnightblue" points="150.65,-85.81 153.3,-75.55 144.83,-81.92 150.65,-85.81"/>
</g>
<!-- Node16&#45;&gt;Node8 -->
<g id="edge24" class="edge">
<title>Node16&#45;&gt;Node8</title>
<path fill="none" stroke="midnightblue" d="M168.66,-56.32C177,-48.42 189.53,-36.55 199.68,-26.94"/>
<polygon fill="midnightblue" stroke="midnightblue" points="202.32,-29.25 207.18,-19.83 197.51,-24.17 202.32,-29.25"/>
</g>
<!-- Node17&#45;&gt;Node5 -->
<g id="edge27" class="edge">
<title>Node17&#45;&gt;Node5</title>
<path fill="none" stroke="midnightblue" d="M209.69,-168.32C226.85,-159.66 253.45,-146.24 273.25,-136.25"/>
<polygon fill="midnightblue" stroke="midnightblue" points="275,-139.28 282.35,-131.65 271.85,-133.04 275,-139.28"/>
</g>
<!-- Node17&#45;&gt;Node6 -->
<g id="edge26" class="edge">
<title>Node17&#45;&gt;Node6</title>
<path fill="none" stroke="midnightblue" d="M202.62,-168.37C224.48,-149.73 276.31,-105.53 303.75,-82.13"/>
<polygon fill="midnightblue" stroke="midnightblue" points="306.09,-84.74 311.42,-75.59 301.54,-79.42 306.09,-84.74"/>
</g>
<!-- Node17&#45;&gt;Node14 -->
<g id="edge28" class="edge">
<title>Node17&#45;&gt;Node14</title>
<path fill="none" stroke="midnightblue" d="M193.82,-168.08C194.88,-160.93 196.41,-150.64 197.73,-141.69"/>
<polygon fill="midnightblue" stroke="midnightblue" points="201.2,-142.16 199.2,-131.75 194.28,-141.13 201.2,-142.16"/>
</g>
<!-- Node18&#45;&gt;Node5 -->
<g id="edge31" class="edge">
<title>Node18&#45;&gt;Node5</title>
<path fill="none" stroke="midnightblue" d="M458.85,-169.26C423.56,-159.02 361.67,-141.05 326.3,-130.78"/>
<polygon fill="midnightblue" stroke="midnightblue" points="327.24,-127.41 316.66,-127.98 325.28,-134.13 327.24,-127.41"/>
</g>
<!-- Node18&#45;&gt;Node6 -->
<g id="edge30" class="edge">
<title>Node18&#45;&gt;Node6</title>
<path fill="none" stroke="midnightblue" d="M472.63,-168.37C444.49,-149.49 377.24,-104.38 342.73,-81.24"/>
<polygon fill="midnightblue" stroke="midnightblue" points="344.56,-78.26 334.31,-75.59 340.66,-84.07 344.56,-78.26"/>
</g>
<!-- Node19&#45;&gt;Node5 -->
<g id="edge34" class="edge">
<title>Node19&#45;&gt;Node5</title>
<path fill="none" stroke="midnightblue" d="M530.24,-170.01C527.3,-169.31 524.34,-168.63 521.5,-168 451.41,-152.38 368.36,-136.15 326.5,-128.12"/>
<polygon fill="midnightblue" stroke="midnightblue" points="327.02,-124.66 316.54,-126.22 325.7,-131.54 327.02,-124.66"/>
</g>
<!-- Node19&#45;&gt;Node6 -->
<g id="edge33" class="edge">
<title>Node19&#45;&gt;Node6</title>
<path fill="none" stroke="midnightblue" d="M539.9,-168.37C498.45,-149.13 398.3,-102.65 349.36,-79.93"/>
<polygon fill="midnightblue" stroke="midnightblue" points="350.55,-76.63 340.01,-75.59 347.61,-82.98 350.55,-76.63"/>
</g>
<!-- Node20&#45;&gt;Node5 -->
<g id="edge37" class="edge">
<title>Node20&#45;&gt;Node5</title>
<path fill="none" stroke="midnightblue" d="M329.56,-168.08C324.52,-160.53 317.16,-149.49 310.99,-140.23"/>
<polygon fill="midnightblue" stroke="midnightblue" points="313.79,-138.13 305.33,-131.75 307.97,-142.01 313.79,-138.13"/>
</g>
<!-- Node20&#45;&gt;Node6 -->
<g id="edge36" class="edge">
<title>Node20&#45;&gt;Node6</title>
<path fill="none" stroke="midnightblue" d="M334.4,-168.37C332.14,-150.62 326.93,-109.67 323.87,-85.6"/>
<polygon fill="midnightblue" stroke="midnightblue" points="327.33,-85.07 322.59,-75.59 320.38,-85.95 327.33,-85.07"/>
</g>
<!-- Node21&#45;&gt;Node5 -->
<g id="edge40" class="edge">
<title>Node21&#45;&gt;Node5</title>
<path fill="none" stroke="midnightblue" d="M394.59,-168.44C376.03,-159.57 346.82,-145.61 325.67,-135.5"/>
<polygon fill="midnightblue" stroke="midnightblue" points="327.11,-132.32 316.58,-131.16 324.1,-138.63 327.11,-132.32"/>
</g>
<!-- Node21&#45;&gt;Node6 -->
<g id="edge39" class="edge">
<title>Node21&#45;&gt;Node6</title>
<path fill="none" stroke="midnightblue" d="M405.36,-168.37C390.21,-150.05 354.63,-107.05 335.04,-83.36"/>
<polygon fill="midnightblue" stroke="midnightblue" points="337.68,-81.07 328.61,-75.59 332.28,-85.53 337.68,-81.07"/>
</g>
</g>
</svg>
        <g id="navigator" transform="translate(0 0)" fill="#404254">
                <rect fill="#f2f5e9" fill-opacity="0.5" stroke="#606060" stroke-width=".5" x="0" y="0" width="60" height="60"/>
                <use id="zoomplus" xlink:href="#zoomPlus" x="17" y="9" onmousedown="handleZoom(evt,'in')"/>
                <use id="zoomminus" xlink:href="#zoomMin" x="42" y="9" onmousedown="handleZoom(evt,'out')"/>
                <use id="reset" xlink:href="#resetDef" x="30" y="36" onmousedown="handleReset()"/>
                <g id="arrowUp" xlink:href="#dirArrow" transform="translate(30 24)" onmousedown="handlePan(0,-1)">
                  <use xlink:href="#rim" fill="#404040">
                        <set attributeName="fill" to="#808080" begin="arrowUp.mouseover" end="arrowUp.mouseout"/>
                  </use>
                  <path fill="none" stroke="white" stroke-width="1.5" d="M0,-3.0v7 M-2.5,-0.5L0,-3.0L2.5,-0.5"/>
                </g>
                <g id="arrowRight" xlink:href="#dirArrow" transform="rotate(90) translate(36 -43)" onmousedown="handlePan(1,0)">
                  <use xlink:href="#rim" fill="#404040">
                        <set attributeName="fill" to="#808080" begin="arrowRight.mouseover" end="arrowRight.mouseout"/>
                  </use>
                  <path fill="none" stroke="white" stroke-width="1.5" d="M0,-3.0v7 M-2.5,-0.5L0,-3.0L2.5,-0.5"/>
                </g>
                <g id="arrowDown" xlink:href="#dirArrow" transform="rotate(180) translate(-30 -48)" onmousedown="handlePan(0,1)">
                  <use xlink:href="#rim" fill="#404040">
                        <set attributeName="fill" to="#808080" begin="arrowDown.mouseover" end="arrowDown.mouseout"/>
                  </use>
                  <path fill="none" stroke="white" stroke-width="1.5" d="M0,-3.0v7 M-2.5,-0.5L0,-3.0L2.5,-0.5"/>
                </g>
                <g id="arrowLeft" xlink:href="#dirArrow" transform="rotate(270) translate(-36 17)" onmousedown="handlePan(-1,0)">
                  <use xlink:href="#rim" fill="#404040">
                        <set attributeName="fill" to="#808080" begin="arrowLeft.mouseover" end="arrowLeft.mouseout"/>
                  </use>
                  <path fill="none" stroke="white" stroke-width="1.5" d="M0,-3.0v7 M-2.5,-0.5L0,-3.0L2.5,-0.5"/>
                </g>
        </g>
        <svg viewBox="0 0 15 15" width="100%" height="30px" preserveAspectRatio="xMaxYMin meet">
         <g id="arrow_out" transform="scale(0.3 0.3)">
          <a xlink:href="hcd_8c__incl_org.svg" target="_base">
           <rect id="button" ry="5" rx="5" y="6" x="6" height="38" width="38"
                fill="#f2f5e9" fill-opacity="0.5" stroke="#606060" stroke-width="1.0"/>
           <path id="arrow"
             d="M 11.500037,31.436501 C 11.940474,20.09759 22.043105,11.32322 32.158766,21.979434 L 37.068811,17.246167 C 37.068811,17.246167 37.088388,32 37.088388,32 L 22.160133,31.978069 C 22.160133,31.978069 26.997745,27.140456 26.997745,27.140456 C 18.528582,18.264221 13.291696,25.230495 11.500037,31.436501 z"
             style="fill:#404040;"/>
          </a>
         </g>
        </svg>
</svg>
