<?xml version="1.0" encoding="UTF-8" standalone="no"?>
<!DOCTYPE svg PUBLIC "-//W3C//DTD SVG 1.1//EN"
 "http://www.w3.org/Graphics/SVG/1.1/DTD/svg11.dtd">
<!-- Generated by graphviz version 2.46.1 (20210215.1649)
 -->
<!-- Title: iop/usb/usbd/src/hub.c Pages: 1 -->
<svg width="453pt" height="364pt"
 viewBox="0.00 0.00 453.21 364.00" xmlns="http://www.w3.org/2000/svg" xmlns:xlink="http://www.w3.org/1999/xlink">
<g id="graph0" class="graph" transform="scale(1 1) rotate(0) translate(4 360)">
<title>iop/usb/usbd/src/hub.c</title>
<polygon fill="white" stroke="transparent" points="-4,4 -4,-360 449.21,-360 449.21,4 -4,4"/>
<!-- Node1 -->
<g id="node1" class="node">
<title>Node1</title>
<g id="a_node1"><a xlink:title=" ">
<polygon fill="#bfbfbf" stroke="black" points="162.21,-336.5 162.21,-355.5 277.21,-355.5 277.21,-336.5 162.21,-336.5"/>
<text text-anchor="middle" x="219.71" y="-343.5" font-family="Helvetica,sans-Serif" font-size="10.00">iop/usb/usbd/src/hub.c</text>
</a>
</g>
</g>
<!-- Node2 -->
<g id="node2" class="node">
<title>Node2</title>
<g id="a_node2"><a xlink:href="usbdpriv_8h.html" target="_top" xlink:title=" ">
<polygon fill="white" stroke="black" points="139.21,-224.5 139.21,-243.5 200.21,-243.5 200.21,-224.5 139.21,-224.5"/>
<text text-anchor="middle" x="169.71" y="-231.5" font-family="Helvetica,sans-Serif" font-size="10.00">usbdpriv.h</text>
</a>
</g>
</g>
<!-- Node1&#45;&gt;Node2 -->
<g id="edge1" class="edge">
<title>Node1&#45;&gt;Node2</title>
<path fill="none" stroke="midnightblue" d="M218.09,-336.27C215.5,-323.48 209.8,-299.11 200.71,-280 195.99,-270.06 189.18,-259.88 183.14,-251.73"/>
<polygon fill="midnightblue" stroke="midnightblue" points="185.9,-249.58 177.03,-243.78 180.35,-253.85 185.9,-249.58"/>
</g>
<!-- Node9 -->
<g id="node9" class="node">
<title>Node9</title>
<g id="a_node9"><a xlink:href="hcd_8h.html" target="_top" xlink:title=" ">
<polygon fill="white" stroke="black" points="247.71,-280.5 247.71,-299.5 287.71,-299.5 287.71,-280.5 247.71,-280.5"/>
<text text-anchor="middle" x="267.71" y="-287.5" font-family="Helvetica,sans-Serif" font-size="10.00">hcd.h</text>
</a>
</g>
</g>
<!-- Node1&#45;&gt;Node9 -->
<g id="edge9" class="edge">
<title>Node1&#45;&gt;Node9</title>
<path fill="none" stroke="midnightblue" d="M227.64,-336.08C234.56,-328.3 244.78,-316.8 253.16,-307.37"/>
<polygon fill="midnightblue" stroke="midnightblue" points="255.91,-309.55 259.93,-299.75 250.67,-304.9 255.91,-309.55"/>
</g>
<!-- Node10 -->
<g id="node10" class="node">
<title>Node10</title>
<g id="a_node10"><a xlink:href="mem_8h.html" target="_top" xlink:title=" ">
<polygon fill="white" stroke="black" points="13.71,-280.5 13.71,-299.5 59.71,-299.5 59.71,-280.5 13.71,-280.5"/>
<text text-anchor="middle" x="36.71" y="-287.5" font-family="Helvetica,sans-Serif" font-size="10.00">mem.h</text>
</a>
</g>
</g>
<!-- Node1&#45;&gt;Node10 -->
<g id="edge11" class="edge">
<title>Node1&#45;&gt;Node10</title>
<path fill="none" stroke="midnightblue" d="M190.72,-336.44C157.69,-326.7 103.87,-310.82 69.39,-300.64"/>
<polygon fill="midnightblue" stroke="midnightblue" points="70.36,-297.28 59.78,-297.81 68.38,-303.99 70.36,-297.28"/>
</g>
<!-- Node11 -->
<g id="node11" class="node">
<title>Node11</title>
<g id="a_node11"><a xlink:href="usbio_8h.html" target="_top" xlink:title=" ">
<polygon fill="white" stroke="black" points="144.21,-280.5 144.21,-299.5 191.21,-299.5 191.21,-280.5 144.21,-280.5"/>
<text text-anchor="middle" x="167.71" y="-287.5" font-family="Helvetica,sans-Serif" font-size="10.00">usbio.h</text>
</a>
</g>
</g>
<!-- Node1&#45;&gt;Node11 -->
<g id="edge13" class="edge">
<title>Node1&#45;&gt;Node11</title>
<path fill="none" stroke="midnightblue" d="M211.13,-336.08C203.55,-328.22 192.33,-316.57 183.2,-307.08"/>
<polygon fill="midnightblue" stroke="midnightblue" points="185.6,-304.53 176.14,-299.75 180.55,-309.38 185.6,-304.53"/>
</g>
<!-- Node12 -->
<g id="node12" class="node">
<title>Node12</title>
<g id="a_node12"><a xlink:href="driver_8h.html" target="_top" xlink:title=" ">
<polygon fill="white" stroke="black" points="77.71,-280.5 77.71,-299.5 125.71,-299.5 125.71,-280.5 77.71,-280.5"/>
<text text-anchor="middle" x="101.71" y="-287.5" font-family="Helvetica,sans-Serif" font-size="10.00">driver.h</text>
</a>
</g>
</g>
<!-- Node1&#45;&gt;Node12 -->
<g id="edge14" class="edge">
<title>Node1&#45;&gt;Node12</title>
<path fill="none" stroke="midnightblue" d="M201.02,-336.44C181.77,-327.64 151.56,-313.81 129.51,-303.72"/>
<polygon fill="midnightblue" stroke="midnightblue" points="130.87,-300.5 120.32,-299.52 127.96,-306.86 130.87,-300.5"/>
</g>
<!-- Node13 -->
<g id="node13" class="node">
<title>Node13</title>
<g id="a_node13"><a xlink:href="defs_8h.html" target="_top" xlink:title=" ">
<polygon fill="white" stroke="black" points="18.21,-224.5 18.21,-243.5 61.21,-243.5 61.21,-224.5 18.21,-224.5"/>
<text text-anchor="middle" x="39.71" y="-231.5" font-family="Helvetica,sans-Serif" font-size="10.00">defs.h</text>
</a>
</g>
</g>
<!-- Node1&#45;&gt;Node13 -->
<g id="edge16" class="edge">
<title>Node1&#45;&gt;Node13</title>
<path fill="none" stroke="midnightblue" d="M162.18,-340.98C105.36,-335.66 24.22,-324.01 4.71,-300 -7.7,-284.72 7.37,-264.39 21.42,-250.56"/>
<polygon fill="midnightblue" stroke="midnightblue" points="23.97,-252.97 28.94,-243.62 19.22,-247.83 23.97,-252.97"/>
</g>
<!-- Node14 -->
<g id="node14" class="node">
<title>Node14</title>
<g id="a_node14"><a xlink:href="stdio_8h.html" target="_top" xlink:title=" ">
<polygon fill="white" stroke="black" points="324.21,-168.5 324.21,-187.5 369.21,-187.5 369.21,-168.5 324.21,-168.5"/>
<text text-anchor="middle" x="346.71" y="-175.5" font-family="Helvetica,sans-Serif" font-size="10.00">stdio.h</text>
</a>
</g>
</g>
<!-- Node1&#45;&gt;Node14 -->
<g id="edge18" class="edge">
<title>Node1&#45;&gt;Node14</title>
<path fill="none" stroke="midnightblue" d="M253.74,-336.46C273.9,-329.73 298.41,-318.34 313.71,-300 338.39,-270.42 344.72,-223.94 346.28,-198.04"/>
<polygon fill="midnightblue" stroke="midnightblue" points="349.79,-197.86 346.7,-187.73 342.79,-197.57 349.79,-197.86"/>
</g>
<!-- Node16 -->
<g id="node16" class="node">
<title>Node16</title>
<g id="a_node16"><a xlink:href="sysclib_8h.html" target="_top" xlink:title=" ">
<polygon fill="white" stroke="black" points="387.71,-168.5 387.71,-187.5 441.71,-187.5 441.71,-168.5 387.71,-168.5"/>
<text text-anchor="middle" x="414.71" y="-175.5" font-family="Helvetica,sans-Serif" font-size="10.00">sysclib.h</text>
</a>
</g>
</g>
<!-- Node1&#45;&gt;Node16 -->
<g id="edge21" class="edge">
<title>Node1&#45;&gt;Node16</title>
<path fill="none" stroke="midnightblue" d="M256.17,-336.47C279.84,-329.57 310.33,-317.99 332.71,-300 368.35,-271.35 394.44,-223.09 406.77,-197.02"/>
<polygon fill="midnightblue" stroke="midnightblue" points="410.1,-198.16 411.07,-187.61 403.73,-195.25 410.1,-198.16"/>
</g>
<!-- Node18 -->
<g id="node18" class="node">
<title>Node18</title>
<g id="a_node18"><a xlink:href="sysmem_8h.html" target="_top" xlink:title=" ">
<polygon fill="white" stroke="black" points="245.21,-168.5 245.21,-187.5 306.21,-187.5 306.21,-168.5 245.21,-168.5"/>
<text text-anchor="middle" x="275.71" y="-175.5" font-family="Helvetica,sans-Serif" font-size="10.00">sysmem.h</text>
</a>
</g>
</g>
<!-- Node1&#45;&gt;Node18 -->
<g id="edge27" class="edge">
<title>Node1&#45;&gt;Node18</title>
<path fill="none" stroke="midnightblue" d="M248.08,-336.49C265.46,-329.65 286.31,-318.13 296.71,-300 315.65,-267.01 297.99,-221.23 285.55,-196.51"/>
<polygon fill="midnightblue" stroke="midnightblue" points="288.59,-194.78 280.81,-187.58 282.4,-198.06 288.59,-194.78"/>
</g>
<!-- Node3 -->
<g id="node3" class="node">
<title>Node3</title>
<g id="a_node3"><a xlink:href="usbd_8h.html" target="_top" xlink:title=" ">
<polygon fill="white" stroke="black" points="182.21,-168.5 182.21,-187.5 227.21,-187.5 227.21,-168.5 182.21,-168.5"/>
<text text-anchor="middle" x="204.71" y="-175.5" font-family="Helvetica,sans-Serif" font-size="10.00">usbd.h</text>
</a>
</g>
</g>
<!-- Node2&#45;&gt;Node3 -->
<g id="edge2" class="edge">
<title>Node2&#45;&gt;Node3</title>
<path fill="none" stroke="midnightblue" d="M175.49,-224.08C180.38,-216.53 187.54,-205.49 193.55,-196.23"/>
<polygon fill="midnightblue" stroke="midnightblue" points="196.54,-198.05 199.04,-187.75 190.66,-194.24 196.54,-198.05"/>
</g>
<!-- Node4 -->
<g id="node4" class="node">
<title>Node4</title>
<g id="a_node4"><a xlink:title=" ">
<polygon fill="white" stroke="#bfbfbf" points="155.21,-112.5 155.21,-131.5 202.21,-131.5 202.21,-112.5 155.21,-112.5"/>
<text text-anchor="middle" x="178.71" y="-119.5" font-family="Helvetica,sans-Serif" font-size="10.00">types.h</text>
</a>
</g>
</g>
<!-- Node2&#45;&gt;Node4 -->
<g id="edge8" class="edge">
<title>Node2&#45;&gt;Node4</title>
<path fill="none" stroke="midnightblue" d="M170.12,-224.16C170.72,-211.64 171.98,-188.05 173.71,-168 174.46,-159.38 175.49,-149.85 176.42,-141.78"/>
<polygon fill="midnightblue" stroke="midnightblue" points="179.92,-141.96 177.63,-131.61 172.97,-141.13 179.92,-141.96"/>
</g>
<!-- Node3&#45;&gt;Node4 -->
<g id="edge3" class="edge">
<title>Node3&#45;&gt;Node4</title>
<path fill="none" stroke="midnightblue" d="M200.42,-168.08C196.86,-160.69 191.69,-149.95 187.29,-140.81"/>
<polygon fill="midnightblue" stroke="midnightblue" points="190.42,-139.24 182.93,-131.75 184.11,-142.28 190.42,-139.24"/>
</g>
<!-- Node5 -->
<g id="node5" class="node">
<title>Node5</title>
<g id="a_node5"><a xlink:href="irx_8h.html" target="_top" xlink:title=" ">
<polygon fill="white" stroke="black" points="268.71,-112.5 268.71,-131.5 302.71,-131.5 302.71,-112.5 268.71,-112.5"/>
<text text-anchor="middle" x="285.71" y="-119.5" font-family="Helvetica,sans-Serif" font-size="10.00">irx.h</text>
</a>
</g>
</g>
<!-- Node3&#45;&gt;Node5 -->
<g id="edge4" class="edge">
<title>Node3&#45;&gt;Node5</title>
<path fill="none" stroke="midnightblue" d="M217.73,-168.32C230.24,-159.98 249.39,-147.21 264.18,-137.35"/>
<polygon fill="midnightblue" stroke="midnightblue" points="266.35,-140.11 272.73,-131.65 262.47,-134.29 266.35,-140.11"/>
</g>
<!-- Node6 -->
<g id="node6" class="node">
<title>Node6</title>
<g id="a_node6"><a xlink:href="types_8h_source.html" target="_top" xlink:title=" ">
<polygon fill="white" stroke="black" points="262.21,-56.5 262.21,-75.5 309.21,-75.5 309.21,-56.5 262.21,-56.5"/>
<text text-anchor="middle" x="285.71" y="-63.5" font-family="Helvetica,sans-Serif" font-size="10.00">types.h</text>
</a>
</g>
</g>
<!-- Node5&#45;&gt;Node6 -->
<g id="edge5" class="edge">
<title>Node5&#45;&gt;Node6</title>
<path fill="none" stroke="midnightblue" d="M285.71,-112.08C285.71,-105.01 285.71,-94.86 285.71,-85.99"/>
<polygon fill="midnightblue" stroke="midnightblue" points="289.21,-85.75 285.71,-75.75 282.21,-85.75 289.21,-85.75"/>
</g>
<!-- Node7 -->
<g id="node7" class="node">
<title>Node7</title>
<g id="a_node7"><a xlink:title=" ">
<polygon fill="white" stroke="#bfbfbf" points="260.21,-0.5 260.21,-19.5 311.21,-19.5 311.21,-0.5 260.21,-0.5"/>
<text text-anchor="middle" x="285.71" y="-7.5" font-family="Helvetica,sans-Serif" font-size="10.00">stddef.h</text>
</a>
</g>
</g>
<!-- Node6&#45;&gt;Node7 -->
<g id="edge6" class="edge">
<title>Node6&#45;&gt;Node7</title>
<path fill="none" stroke="midnightblue" d="M285.71,-56.08C285.71,-49.01 285.71,-38.86 285.71,-29.99"/>
<polygon fill="midnightblue" stroke="midnightblue" points="289.21,-29.75 285.71,-19.75 282.21,-29.75 289.21,-29.75"/>
</g>
<!-- Node8 -->
<g id="node8" class="node">
<title>Node8</title>
<g id="a_node8"><a xlink:href="tamtypes_8h.html" target="_top" xlink:title=" ">
<polygon fill="white" stroke="black" points="367.71,-0.5 367.71,-19.5 431.71,-19.5 431.71,-0.5 367.71,-0.5"/>
<text text-anchor="middle" x="399.71" y="-7.5" font-family="Helvetica,sans-Serif" font-size="10.00">tamtypes.h</text>
</a>
</g>
</g>
<!-- Node6&#45;&gt;Node8 -->
<g id="edge7" class="edge">
<title>Node6&#45;&gt;Node8</title>
<path fill="none" stroke="midnightblue" d="M303.78,-56.44C322.29,-47.68 351.29,-33.94 372.57,-23.86"/>
<polygon fill="midnightblue" stroke="midnightblue" points="374.19,-26.96 381.73,-19.52 371.2,-20.63 374.19,-26.96"/>
</g>
<!-- Node9&#45;&gt;Node2 -->
<g id="edge10" class="edge">
<title>Node9&#45;&gt;Node2</title>
<path fill="none" stroke="midnightblue" d="M251.97,-280.32C236.39,-271.74 212.34,-258.49 194.25,-248.52"/>
<polygon fill="midnightblue" stroke="midnightblue" points="195.87,-245.42 185.42,-243.65 192.49,-251.55 195.87,-245.42"/>
</g>
<!-- Node10&#45;&gt;Node2 -->
<g id="edge12" class="edge">
<title>Node10&#45;&gt;Node2</title>
<path fill="none" stroke="midnightblue" d="M57.79,-280.44C79.77,-271.52 114.45,-257.44 139.38,-247.32"/>
<polygon fill="midnightblue" stroke="midnightblue" points="140.79,-250.52 148.74,-243.52 138.15,-244.04 140.79,-250.52"/>
</g>
<!-- Node12&#45;&gt;Node2 -->
<g id="edge15" class="edge">
<title>Node12&#45;&gt;Node2</title>
<path fill="none" stroke="midnightblue" d="M112.64,-280.32C122.89,-272.18 138.43,-259.84 150.71,-250.09"/>
<polygon fill="midnightblue" stroke="midnightblue" points="152.93,-252.79 158.59,-243.83 148.58,-247.31 152.93,-252.79"/>
</g>
<!-- Node13&#45;&gt;Node6 -->
<g id="edge17" class="edge">
<title>Node13&#45;&gt;Node6</title>
<path fill="none" stroke="midnightblue" d="M45.03,-224.26C58.94,-202.14 98.62,-143.5 146.71,-112 179.26,-90.68 222.72,-78.75 252.32,-72.62"/>
<polygon fill="midnightblue" stroke="midnightblue" points="253.03,-76.04 262.17,-70.68 251.68,-69.17 253.03,-76.04"/>
</g>
<!-- Node14&#45;&gt;Node5 -->
<g id="edge20" class="edge">
<title>Node14&#45;&gt;Node5</title>
<path fill="none" stroke="midnightblue" d="M336.91,-168.32C327.89,-160.34 314.31,-148.31 303.39,-138.65"/>
<polygon fill="midnightblue" stroke="midnightblue" points="305.5,-135.84 295.69,-131.83 300.86,-141.08 305.5,-135.84"/>
</g>
<!-- Node15 -->
<g id="node15" class="node">
<title>Node15</title>
<g id="a_node15"><a xlink:title=" ">
<polygon fill="white" stroke="#bfbfbf" points="321.21,-112.5 321.21,-131.5 372.21,-131.5 372.21,-112.5 321.21,-112.5"/>
<text text-anchor="middle" x="346.71" y="-119.5" font-family="Helvetica,sans-Serif" font-size="10.00">stdarg.h</text>
</a>
</g>
</g>
<!-- Node14&#45;&gt;Node15 -->
<g id="edge19" class="edge">
<title>Node14&#45;&gt;Node15</title>
<path fill="none" stroke="midnightblue" d="M346.71,-168.08C346.71,-161.01 346.71,-150.86 346.71,-141.99"/>
<polygon fill="midnightblue" stroke="midnightblue" points="350.21,-141.75 346.71,-131.75 343.21,-141.75 350.21,-141.75"/>
</g>
<!-- Node16&#45;&gt;Node5 -->
<g id="edge23" class="edge">
<title>Node16&#45;&gt;Node5</title>
<path fill="none" stroke="midnightblue" d="M394.27,-168.44C372.04,-159.14 336.44,-144.23 312.11,-134.05"/>
<polygon fill="midnightblue" stroke="midnightblue" points="313.34,-130.77 302.76,-130.14 310.63,-137.23 313.34,-130.77"/>
</g>
<!-- Node16&#45;&gt;Node6 -->
<g id="edge22" class="edge">
<title>Node16&#45;&gt;Node6</title>
<path fill="none" stroke="midnightblue" d="M412.32,-168.31C408.17,-154.69 398.44,-128.21 381.71,-112 364.3,-95.12 339.38,-83.7 319.3,-76.59"/>
<polygon fill="midnightblue" stroke="midnightblue" points="320.19,-73.19 309.59,-73.34 317.97,-79.83 320.19,-73.19"/>
</g>
<!-- Node16&#45;&gt;Node15 -->
<g id="edge24" class="edge">
<title>Node16&#45;&gt;Node15</title>
<path fill="none" stroke="midnightblue" d="M403.79,-168.32C393.54,-160.18 377.99,-147.84 365.71,-138.09"/>
<polygon fill="midnightblue" stroke="midnightblue" points="367.84,-135.31 357.84,-131.83 363.49,-140.79 367.84,-135.31"/>
</g>
<!-- Node17 -->
<g id="node17" class="node">
<title>Node17</title>
<g id="a_node17"><a xlink:href="setjmp_8h.html" target="_top" xlink:title=" ">
<polygon fill="white" stroke="black" points="392.21,-56.5 392.21,-75.5 445.21,-75.5 445.21,-56.5 392.21,-56.5"/>
<text text-anchor="middle" x="418.71" y="-63.5" font-family="Helvetica,sans-Serif" font-size="10.00">setjmp.h</text>
</a>
</g>
</g>
<!-- Node16&#45;&gt;Node17 -->
<g id="edge25" class="edge">
<title>Node16&#45;&gt;Node17</title>
<path fill="none" stroke="midnightblue" d="M415.03,-168.37C415.67,-150.62 417.16,-109.67 418.04,-85.6"/>
<polygon fill="midnightblue" stroke="midnightblue" points="421.53,-85.71 418.4,-75.59 414.54,-85.46 421.53,-85.71"/>
</g>
<!-- Node17&#45;&gt;Node8 -->
<g id="edge26" class="edge">
<title>Node17&#45;&gt;Node8</title>
<path fill="none" stroke="midnightblue" d="M415.58,-56.08C413.03,-48.85 409.36,-38.41 406.19,-29.4"/>
<polygon fill="midnightblue" stroke="midnightblue" points="409.41,-28.02 402.79,-19.75 402.81,-30.35 409.41,-28.02"/>
</g>
<!-- Node18&#45;&gt;Node5 -->
<g id="edge29" class="edge">
<title>Node18&#45;&gt;Node5</title>
<path fill="none" stroke="midnightblue" d="M277.36,-168.08C278.69,-160.93 280.59,-150.64 282.25,-141.69"/>
<polygon fill="midnightblue" stroke="midnightblue" points="285.71,-142.22 284.09,-131.75 278.83,-140.95 285.71,-142.22"/>
</g>
<!-- Node18&#45;&gt;Node6 -->
<g id="edge28" class="edge">
<title>Node18&#45;&gt;Node6</title>
<path fill="none" stroke="midnightblue" d="M270.67,-168.14C264.18,-155.6 254.36,-131.98 259.71,-112 262.37,-102.1 267.78,-92.13 272.99,-84.1"/>
<polygon fill="midnightblue" stroke="midnightblue" points="276,-85.89 278.82,-75.68 270.25,-81.91 276,-85.89"/>
</g>
<!-- Node18&#45;&gt;Node15 -->
<g id="edge30" class="edge">
<title>Node18&#45;&gt;Node15</title>
<path fill="none" stroke="midnightblue" d="M287.12,-168.32C297.82,-160.18 314.05,-147.84 326.88,-138.09"/>
<polygon fill="midnightblue" stroke="midnightblue" points="329.26,-140.67 335.1,-131.83 325.02,-135.1 329.26,-140.67"/>
</g>
</g>
</svg>
