<?xml version="1.0" encoding="UTF-8" standalone="no"?>
<!DOCTYPE svg PUBLIC "-//W3C//DTD SVG 1.1//EN"
 "http://www.w3.org/Graphics/SVG/1.1/DTD/svg11.dtd">
<!-- Generated by graphviz version 2.46.1 (20210215.1649)
 -->
<!-- Title: iop/system/iomanx/src/ioman_sbv.c Pages: 1 -->
<svg width="495pt" height="263pt"
 viewBox="0.00 0.00 495.00 263.00" xmlns="http://www.w3.org/2000/svg" xmlns:xlink="http://www.w3.org/1999/xlink">
<g id="graph0" class="graph" transform="scale(1 1) rotate(0) translate(4 259)">
<title>iop/system/iomanx/src/ioman_sbv.c</title>
<polygon fill="white" stroke="transparent" points="-4,4 -4,-259 491,-259 491,4 -4,4"/>
<!-- Node1 -->
<g id="node1" class="node">
<title>Node1</title>
<g id="a_node1"><a xlink:title=" ">
<polygon fill="#bfbfbf" stroke="black" points="171.5,-224.5 171.5,-254.5 285.5,-254.5 285.5,-224.5 171.5,-224.5"/>
<text text-anchor="start" x="179.5" y="-242.5" font-family="Helvetica,sans-Serif" font-size="10.00">iop/system/iomanx/src</text>
<text text-anchor="middle" x="228.5" y="-231.5" font-family="Helvetica,sans-Serif" font-size="10.00">/ioman_sbv.c</text>
</a>
</g>
</g>
<!-- Node2 -->
<g id="node2" class="node">
<title>Node2</title>
<g id="a_node2"><a xlink:title=" ">
<polygon fill="white" stroke="#bfbfbf" points="0,-112.5 0,-131.5 51,-131.5 51,-112.5 0,-112.5"/>
<text text-anchor="middle" x="25.5" y="-119.5" font-family="Helvetica,sans-Serif" font-size="10.00">stdarg.h</text>
</a>
</g>
</g>
<!-- Node1&#45;&gt;Node2 -->
<g id="edge1" class="edge">
<title>Node1&#45;&gt;Node2</title>
<path fill="none" stroke="midnightblue" d="M171.24,-227.26C141.71,-219.55 106.17,-207.17 78.5,-188 60.43,-175.49 45.25,-155.13 35.82,-140.53"/>
<polygon fill="midnightblue" stroke="midnightblue" points="38.73,-138.58 30.49,-131.91 32.78,-142.26 38.73,-138.58"/>
</g>
<!-- Node3 -->
<g id="node3" class="node">
<title>Node3</title>
<g id="a_node3"><a xlink:title=" ">
<polygon fill="white" stroke="#bfbfbf" points="352,-168.5 352,-187.5 399,-187.5 399,-168.5 352,-168.5"/>
<text text-anchor="middle" x="375.5" y="-175.5" font-family="Helvetica,sans-Serif" font-size="10.00">types.h</text>
</a>
</g>
</g>
<!-- Node1&#45;&gt;Node3 -->
<g id="edge2" class="edge">
<title>Node1&#45;&gt;Node3</title>
<path fill="none" stroke="midnightblue" d="M263.34,-224.4C288,-214.42 320.79,-201.15 344.53,-191.53"/>
<polygon fill="midnightblue" stroke="midnightblue" points="346.15,-194.65 354.11,-187.66 343.53,-188.17 346.15,-194.65"/>
</g>
<!-- Node4 -->
<g id="node4" class="node">
<title>Node4</title>
<g id="a_node4"><a xlink:href="defs_8h.html" target="_top" xlink:title=" ">
<polygon fill="white" stroke="black" points="146,-112.5 146,-131.5 189,-131.5 189,-112.5 146,-112.5"/>
<text text-anchor="middle" x="167.5" y="-119.5" font-family="Helvetica,sans-Serif" font-size="10.00">defs.h</text>
</a>
</g>
</g>
<!-- Node1&#45;&gt;Node4 -->
<g id="edge3" class="edge">
<title>Node1&#45;&gt;Node4</title>
<path fill="none" stroke="midnightblue" d="M215.1,-224.46C206.52,-214.83 195.67,-201.41 188.5,-188 180.63,-173.29 175.07,-155.13 171.66,-141.75"/>
<polygon fill="midnightblue" stroke="midnightblue" points="175.01,-140.73 169.29,-131.81 168.2,-142.35 175.01,-140.73"/>
</g>
<!-- Node8 -->
<g id="node8" class="node">
<title>Node8</title>
<g id="a_node8"><a xlink:href="loadcore_8h.html" target="_top" xlink:title=" ">
<polygon fill="white" stroke="black" points="198,-168.5 198,-187.5 259,-187.5 259,-168.5 198,-168.5"/>
<text text-anchor="middle" x="228.5" y="-175.5" font-family="Helvetica,sans-Serif" font-size="10.00">loadcore.h</text>
</a>
</g>
</g>
<!-- Node1&#45;&gt;Node8 -->
<g id="edge7" class="edge">
<title>Node1&#45;&gt;Node8</title>
<path fill="none" stroke="midnightblue" d="M228.5,-224.4C228.5,-216.47 228.5,-206.46 228.5,-197.86"/>
<polygon fill="midnightblue" stroke="midnightblue" points="232,-197.66 228.5,-187.66 225,-197.66 232,-197.66"/>
</g>
<!-- Node10 -->
<g id="node10" class="node">
<title>Node10</title>
<g id="a_node10"><a xlink:href="ioman_x_8h.html" target="_top" xlink:title=" ">
<polygon fill="white" stroke="black" points="277,-168.5 277,-187.5 334,-187.5 334,-168.5 277,-168.5"/>
<text text-anchor="middle" x="305.5" y="-175.5" font-family="Helvetica,sans-Serif" font-size="10.00">iomanX.h</text>
</a>
</g>
</g>
<!-- Node1&#45;&gt;Node10 -->
<g id="edge11" class="edge">
<title>Node1&#45;&gt;Node10</title>
<path fill="none" stroke="midnightblue" d="M246.75,-224.4C258.63,-215.22 274.11,-203.26 286.19,-193.92"/>
<polygon fill="midnightblue" stroke="midnightblue" points="288.52,-196.54 294.3,-187.66 284.24,-191 288.52,-196.54"/>
</g>
<!-- Node16 -->
<g id="node16" class="node">
<title>Node16</title>
<g id="a_node16"><a xlink:href="sysclib_8h.html" target="_top" xlink:title=" ">
<polygon fill="white" stroke="black" points="87.5,-168.5 87.5,-187.5 141.5,-187.5 141.5,-168.5 87.5,-168.5"/>
<text text-anchor="middle" x="114.5" y="-175.5" font-family="Helvetica,sans-Serif" font-size="10.00">sysclib.h</text>
</a>
</g>
</g>
<!-- Node1&#45;&gt;Node16 -->
<g id="edge19" class="edge">
<title>Node1&#45;&gt;Node16</title>
<path fill="none" stroke="midnightblue" d="M201.48,-224.4C182.87,-214.68 158.29,-201.86 140.01,-192.31"/>
<polygon fill="midnightblue" stroke="midnightblue" points="141.57,-189.18 131.09,-187.66 138.33,-195.39 141.57,-189.18"/>
</g>
<!-- Node18 -->
<g id="node18" class="node">
<title>Node18</title>
<g id="a_node18"><a xlink:href="errno_8h.html" target="_top" xlink:title=" ">
<polygon fill="white" stroke="black" points="417.5,-168.5 417.5,-187.5 463.5,-187.5 463.5,-168.5 417.5,-168.5"/>
<text text-anchor="middle" x="440.5" y="-175.5" font-family="Helvetica,sans-Serif" font-size="10.00">errno.h</text>
</a>
</g>
</g>
<!-- Node1&#45;&gt;Node18 -->
<g id="edge25" class="edge">
<title>Node1&#45;&gt;Node18</title>
<path fill="none" stroke="midnightblue" d="M278.55,-224.47C312.41,-214.97 358.41,-202.07 407.56,-188.26"/>
<polygon fill="midnightblue" stroke="midnightblue" points="408.75,-191.56 417.43,-185.49 406.85,-184.83 408.75,-191.56"/>
</g>
<!-- Node5 -->
<g id="node5" class="node">
<title>Node5</title>
<g id="a_node5"><a xlink:href="types_8h_source.html" target="_top" xlink:title=" ">
<polygon fill="white" stroke="black" points="167,-56.5 167,-75.5 214,-75.5 214,-56.5 167,-56.5"/>
<text text-anchor="middle" x="190.5" y="-63.5" font-family="Helvetica,sans-Serif" font-size="10.00">types.h</text>
</a>
</g>
</g>
<!-- Node4&#45;&gt;Node5 -->
<g id="edge4" class="edge">
<title>Node4&#45;&gt;Node5</title>
<path fill="none" stroke="midnightblue" d="M171.3,-112.08C174.41,-104.77 178.92,-94.18 182.79,-85.1"/>
<polygon fill="midnightblue" stroke="midnightblue" points="186.07,-86.32 186.77,-75.75 179.63,-83.58 186.07,-86.32"/>
</g>
<!-- Node6 -->
<g id="node6" class="node">
<title>Node6</title>
<g id="a_node6"><a xlink:title=" ">
<polygon fill="white" stroke="#bfbfbf" points="165,-0.5 165,-19.5 216,-19.5 216,-0.5 165,-0.5"/>
<text text-anchor="middle" x="190.5" y="-7.5" font-family="Helvetica,sans-Serif" font-size="10.00">stddef.h</text>
</a>
</g>
</g>
<!-- Node5&#45;&gt;Node6 -->
<g id="edge5" class="edge">
<title>Node5&#45;&gt;Node6</title>
<path fill="none" stroke="midnightblue" d="M190.5,-56.08C190.5,-49.01 190.5,-38.86 190.5,-29.99"/>
<polygon fill="midnightblue" stroke="midnightblue" points="194,-29.75 190.5,-19.75 187,-29.75 194,-29.75"/>
</g>
<!-- Node7 -->
<g id="node7" class="node">
<title>Node7</title>
<g id="a_node7"><a xlink:href="tamtypes_8h.html" target="_top" xlink:title=" ">
<polygon fill="white" stroke="black" points="79.5,-0.5 79.5,-19.5 143.5,-19.5 143.5,-0.5 79.5,-0.5"/>
<text text-anchor="middle" x="111.5" y="-7.5" font-family="Helvetica,sans-Serif" font-size="10.00">tamtypes.h</text>
</a>
</g>
</g>
<!-- Node5&#45;&gt;Node7 -->
<g id="edge6" class="edge">
<title>Node5&#45;&gt;Node7</title>
<path fill="none" stroke="midnightblue" d="M177.81,-56.32C165.6,-47.98 146.92,-35.21 132.5,-25.35"/>
<polygon fill="midnightblue" stroke="midnightblue" points="134.39,-22.41 124.16,-19.65 130.44,-28.19 134.39,-22.41"/>
</g>
<!-- Node8&#45;&gt;Node5 -->
<g id="edge8" class="edge">
<title>Node8&#45;&gt;Node5</title>
<path fill="none" stroke="midnightblue" d="M225.52,-168.37C219.36,-150.54 205.11,-109.3 196.81,-85.27"/>
<polygon fill="midnightblue" stroke="midnightblue" points="200.04,-83.9 193.47,-75.59 193.43,-86.19 200.04,-83.9"/>
</g>
<!-- Node9 -->
<g id="node9" class="node">
<title>Node9</title>
<g id="a_node9"><a xlink:href="irx_8h.html" target="_top" xlink:title=" ">
<polygon fill="white" stroke="black" points="245.5,-112.5 245.5,-131.5 279.5,-131.5 279.5,-112.5 245.5,-112.5"/>
<text text-anchor="middle" x="262.5" y="-119.5" font-family="Helvetica,sans-Serif" font-size="10.00">irx.h</text>
</a>
</g>
</g>
<!-- Node8&#45;&gt;Node9 -->
<g id="edge9" class="edge">
<title>Node8&#45;&gt;Node9</title>
<path fill="none" stroke="midnightblue" d="M234.11,-168.08C238.87,-160.53 245.82,-149.49 251.65,-140.23"/>
<polygon fill="midnightblue" stroke="midnightblue" points="254.62,-142.08 256.99,-131.75 248.7,-138.35 254.62,-142.08"/>
</g>
<!-- Node9&#45;&gt;Node5 -->
<g id="edge10" class="edge">
<title>Node9&#45;&gt;Node5</title>
<path fill="none" stroke="midnightblue" d="M250.93,-112.32C240.08,-104.18 223.62,-91.84 210.62,-82.09"/>
<polygon fill="midnightblue" stroke="midnightblue" points="212.38,-79.03 202.28,-75.83 208.18,-84.63 212.38,-79.03"/>
</g>
<!-- Node10&#45;&gt;Node5 -->
<g id="edge12" class="edge">
<title>Node10&#45;&gt;Node5</title>
<path fill="none" stroke="midnightblue" d="M305.5,-168.37C305.04,-154.83 302.29,-128.44 288.5,-112 272.09,-92.44 245.34,-80.95 223.94,-74.48"/>
<polygon fill="midnightblue" stroke="midnightblue" points="224.8,-71.09 214.23,-71.77 222.92,-77.83 224.8,-71.09"/>
</g>
<!-- Node10&#45;&gt;Node9 -->
<g id="edge13" class="edge">
<title>Node10&#45;&gt;Node9</title>
<path fill="none" stroke="midnightblue" d="M298.4,-168.08C292.26,-160.38 283.23,-149.03 275.76,-139.65"/>
<polygon fill="midnightblue" stroke="midnightblue" points="278.44,-137.39 269.47,-131.75 272.96,-141.75 278.44,-137.39"/>
</g>
<!-- Node11 -->
<g id="node11" class="node">
<title>Node11</title>
<g id="a_node11"><a xlink:href="io__common_8h.html" target="_top" xlink:title=" ">
<polygon fill="white" stroke="black" points="335.5,-112.5 335.5,-131.5 409.5,-131.5 409.5,-112.5 335.5,-112.5"/>
<text text-anchor="middle" x="372.5" y="-119.5" font-family="Helvetica,sans-Serif" font-size="10.00">io_common.h</text>
</a>
</g>
</g>
<!-- Node10&#45;&gt;Node11 -->
<g id="edge14" class="edge">
<title>Node10&#45;&gt;Node11</title>
<path fill="none" stroke="midnightblue" d="M316.26,-168.32C326.27,-160.26 341.39,-148.08 353.43,-138.37"/>
<polygon fill="midnightblue" stroke="midnightblue" points="355.95,-140.83 361.54,-131.83 351.56,-135.38 355.95,-140.83"/>
</g>
<!-- Node14 -->
<g id="node14" class="node">
<title>Node14</title>
<g id="a_node14"><a xlink:href="iox__stat_8h.html" target="_top" xlink:title=" ">
<polygon fill="white" stroke="black" points="427.5,-112.5 427.5,-131.5 485.5,-131.5 485.5,-112.5 427.5,-112.5"/>
<text text-anchor="middle" x="456.5" y="-119.5" font-family="Helvetica,sans-Serif" font-size="10.00">iox_stat.h</text>
</a>
</g>
</g>
<!-- Node10&#45;&gt;Node14 -->
<g id="edge17" class="edge">
<title>Node10&#45;&gt;Node14</title>
<path fill="none" stroke="midnightblue" d="M329.43,-168.44C354.72,-159.4 394.8,-145.06 423.18,-134.92"/>
<polygon fill="midnightblue" stroke="midnightblue" points="424.45,-138.18 432.69,-131.52 422.09,-131.59 424.45,-138.18"/>
</g>
<!-- Node12 -->
<g id="node12" class="node">
<title>Node12</title>
<g id="a_node12"><a xlink:href="fcntl_8h_source.html" target="_top" xlink:title=" ">
<polygon fill="white" stroke="black" points="344,-56.5 344,-75.5 405,-75.5 405,-56.5 344,-56.5"/>
<text text-anchor="middle" x="374.5" y="-63.5" font-family="Helvetica,sans-Serif" font-size="10.00">sys/fcntl.h</text>
</a>
</g>
</g>
<!-- Node11&#45;&gt;Node12 -->
<g id="edge15" class="edge">
<title>Node11&#45;&gt;Node12</title>
<path fill="none" stroke="midnightblue" d="M372.83,-112.08C373.09,-105.01 373.47,-94.86 373.8,-85.99"/>
<polygon fill="midnightblue" stroke="midnightblue" points="377.3,-85.87 374.18,-75.75 370.31,-85.61 377.3,-85.87"/>
</g>
<!-- Node13 -->
<g id="node13" class="node">
<title>Node13</title>
<g id="a_node13"><a xlink:href="unistd_8h_source.html" target="_top" xlink:title=" ">
<polygon fill="white" stroke="black" points="257.5,-56.5 257.5,-75.5 325.5,-75.5 325.5,-56.5 257.5,-56.5"/>
<text text-anchor="middle" x="291.5" y="-63.5" font-family="Helvetica,sans-Serif" font-size="10.00">sys/unistd.h</text>
</a>
</g>
</g>
<!-- Node11&#45;&gt;Node13 -->
<g id="edge16" class="edge">
<title>Node11&#45;&gt;Node13</title>
<path fill="none" stroke="midnightblue" d="M359.49,-112.32C346.97,-103.98 327.82,-91.21 313.03,-81.35"/>
<polygon fill="midnightblue" stroke="midnightblue" points="314.74,-78.29 304.48,-75.65 310.86,-84.11 314.74,-78.29"/>
</g>
<!-- Node15 -->
<g id="node15" class="node">
<title>Node15</title>
<g id="a_node15"><a xlink:href="time_8h.html" target="_top" xlink:title=" ">
<polygon fill="white" stroke="black" points="426,-56.5 426,-75.5 487,-75.5 487,-56.5 426,-56.5"/>
<text text-anchor="middle" x="456.5" y="-63.5" font-family="Helvetica,sans-Serif" font-size="10.00">sys/time.h</text>
</a>
</g>
</g>
<!-- Node14&#45;&gt;Node15 -->
<g id="edge18" class="edge">
<title>Node14&#45;&gt;Node15</title>
<path fill="none" stroke="midnightblue" d="M456.5,-112.08C456.5,-105.01 456.5,-94.86 456.5,-85.99"/>
<polygon fill="midnightblue" stroke="midnightblue" points="460,-85.75 456.5,-75.75 453,-85.75 460,-85.75"/>
</g>
<!-- Node16&#45;&gt;Node2 -->
<g id="edge22" class="edge">
<title>Node16&#45;&gt;Node2</title>
<path fill="none" stroke="midnightblue" d="M100.2,-168.32C86.32,-159.9 65.01,-146.97 48.7,-137.07"/>
<polygon fill="midnightblue" stroke="midnightblue" points="50.13,-133.85 39.76,-131.65 46.5,-139.83 50.13,-133.85"/>
</g>
<!-- Node16&#45;&gt;Node5 -->
<g id="edge20" class="edge">
<title>Node16&#45;&gt;Node5</title>
<path fill="none" stroke="midnightblue" d="M115.88,-168.33C118.29,-155.19 124.24,-129.88 136.5,-112 144.78,-99.93 157.15,-89.29 167.97,-81.39"/>
<polygon fill="midnightblue" stroke="midnightblue" points="169.99,-84.25 176.2,-75.67 165.99,-78.51 169.99,-84.25"/>
</g>
<!-- Node16&#45;&gt;Node9 -->
<g id="edge21" class="edge">
<title>Node16&#45;&gt;Node9</title>
<path fill="none" stroke="midnightblue" d="M137.95,-168.44C164.52,-158.75 207.74,-142.98 235.64,-132.8"/>
<polygon fill="midnightblue" stroke="midnightblue" points="236.98,-136.04 245.17,-129.32 234.58,-129.46 236.98,-136.04"/>
</g>
<!-- Node17 -->
<g id="node17" class="node">
<title>Node17</title>
<g id="a_node17"><a xlink:href="setjmp_8h.html" target="_top" xlink:title=" ">
<polygon fill="white" stroke="black" points="79,-56.5 79,-75.5 132,-75.5 132,-56.5 79,-56.5"/>
<text text-anchor="middle" x="105.5" y="-63.5" font-family="Helvetica,sans-Serif" font-size="10.00">setjmp.h</text>
</a>
</g>
</g>
<!-- Node16&#45;&gt;Node17 -->
<g id="edge23" class="edge">
<title>Node16&#45;&gt;Node17</title>
<path fill="none" stroke="midnightblue" d="M111.77,-168.49C109.05,-159.52 105.06,-144.94 103.5,-132 101.64,-116.57 102.36,-98.94 103.42,-85.93"/>
<polygon fill="midnightblue" stroke="midnightblue" points="106.92,-86.16 104.39,-75.87 99.95,-85.49 106.92,-86.16"/>
</g>
<!-- Node17&#45;&gt;Node7 -->
<g id="edge24" class="edge">
<title>Node17&#45;&gt;Node7</title>
<path fill="none" stroke="midnightblue" d="M106.49,-56.08C107.29,-48.93 108.43,-38.64 109.42,-29.69"/>
<polygon fill="midnightblue" stroke="midnightblue" points="112.9,-30.08 110.53,-19.75 105.94,-29.3 112.9,-30.08"/>
</g>
</g>
</svg>
