<?xml version="1.0" encoding="UTF-8" standalone="no"?>
<!DOCTYPE svg PUBLIC "-//W3C//DTD SVG 1.1//EN"
 "http://www.w3.org/Graphics/SVG/1.1/DTD/svg11.dtd">
<!-- Generated by graphviz version 2.46.1 (20210215.1649)
 -->
<!-- Title: iop/system/iopmgr/src/slib.c Pages: 1 -->
<svg width="447pt" height="319pt"
 viewBox="0.00 0.00 446.50 319.00" xmlns="http://www.w3.org/2000/svg" xmlns:xlink="http://www.w3.org/1999/xlink">
<g id="graph0" class="graph" transform="scale(1 1) rotate(0) translate(4 315)">
<title>iop/system/iopmgr/src/slib.c</title>
<polygon fill="white" stroke="transparent" points="-4,4 -4,-315 442.5,-315 442.5,4 -4,4"/>
<!-- Node1 -->
<g id="node1" class="node">
<title>Node1</title>
<g id="a_node1"><a xlink:title=" ">
<polygon fill="#bfbfbf" stroke="black" points="153,-280.5 153,-310.5 266,-310.5 266,-280.5 153,-280.5"/>
<text text-anchor="start" x="161" y="-298.5" font-family="Helvetica,sans-Serif" font-size="10.00">iop/system/iopmgr/src</text>
<text text-anchor="middle" x="209.5" y="-287.5" font-family="Helvetica,sans-Serif" font-size="10.00">/slib.c</text>
</a>
</g>
</g>
<!-- Node2 -->
<g id="node2" class="node">
<title>Node2</title>
<g id="a_node2"><a xlink:title=" ">
<polygon fill="white" stroke="#bfbfbf" points="32,-168.5 32,-187.5 79,-187.5 79,-168.5 32,-168.5"/>
<text text-anchor="middle" x="55.5" y="-175.5" font-family="Helvetica,sans-Serif" font-size="10.00">types.h</text>
</a>
</g>
</g>
<!-- Node1&#45;&gt;Node2 -->
<g id="edge1" class="edge">
<title>Node1&#45;&gt;Node2</title>
<path fill="none" stroke="midnightblue" d="M186.78,-280.32C171.44,-270.52 150.9,-256.97 133.5,-244 112.04,-228 88.59,-208.11 73.06,-194.57"/>
<polygon fill="midnightblue" stroke="midnightblue" points="75.14,-191.74 65.32,-187.77 70.52,-197 75.14,-191.74"/>
</g>
<!-- Node3 -->
<g id="node3" class="node">
<title>Node3</title>
<g id="a_node3"><a xlink:href="defs_8h.html" target="_top" xlink:title=" ">
<polygon fill="white" stroke="black" points="0,-224.5 0,-243.5 43,-243.5 43,-224.5 0,-224.5"/>
<text text-anchor="middle" x="21.5" y="-231.5" font-family="Helvetica,sans-Serif" font-size="10.00">defs.h</text>
</a>
</g>
</g>
<!-- Node1&#45;&gt;Node3 -->
<g id="edge2" class="edge">
<title>Node1&#45;&gt;Node3</title>
<path fill="none" stroke="midnightblue" d="M164.95,-280.4C130.41,-269.47 83.43,-254.6 52.79,-244.9"/>
<polygon fill="midnightblue" stroke="midnightblue" points="53.66,-241.51 43.07,-241.83 51.55,-248.18 53.66,-241.51"/>
</g>
<!-- Node7 -->
<g id="node7" class="node">
<title>Node7</title>
<g id="a_node7"><a xlink:href="irx_8h.html" target="_top" xlink:title=" ">
<polygon fill="white" stroke="black" points="270.5,-112.5 270.5,-131.5 304.5,-131.5 304.5,-112.5 270.5,-112.5"/>
<text text-anchor="middle" x="287.5" y="-119.5" font-family="Helvetica,sans-Serif" font-size="10.00">irx.h</text>
</a>
</g>
</g>
<!-- Node1&#45;&gt;Node7 -->
<g id="edge6" class="edge">
<title>Node1&#45;&gt;Node7</title>
<path fill="none" stroke="midnightblue" d="M216.05,-280.4C225.5,-260.03 243.46,-221.18 258.5,-188 265.66,-172.19 273.7,-154.16 279.49,-141.11"/>
<polygon fill="midnightblue" stroke="midnightblue" points="282.74,-142.41 283.59,-131.85 276.34,-139.57 282.74,-142.41"/>
</g>
<!-- Node8 -->
<g id="node8" class="node">
<title>Node8</title>
<g id="a_node8"><a xlink:href="loadcore_8h.html" target="_top" xlink:title=" ">
<polygon fill="white" stroke="black" points="97,-168.5 97,-187.5 158,-187.5 158,-168.5 97,-168.5"/>
<text text-anchor="middle" x="127.5" y="-175.5" font-family="Helvetica,sans-Serif" font-size="10.00">loadcore.h</text>
</a>
</g>
</g>
<!-- Node1&#45;&gt;Node8 -->
<g id="edge8" class="edge">
<title>Node1&#45;&gt;Node8</title>
<path fill="none" stroke="midnightblue" d="M185.48,-280.43C172.23,-271.54 156.48,-258.91 146.5,-244 137.2,-230.11 132.37,-211.59 129.91,-197.88"/>
<polygon fill="midnightblue" stroke="midnightblue" points="133.33,-197.05 128.36,-187.7 126.41,-198.11 133.33,-197.05"/>
</g>
<!-- Node9 -->
<g id="node9" class="node">
<title>Node9</title>
<g id="a_node9"><a xlink:href="ioman_8h.html" target="_top" xlink:title=" ">
<polygon fill="white" stroke="black" points="176.5,-168.5 176.5,-187.5 226.5,-187.5 226.5,-168.5 176.5,-168.5"/>
<text text-anchor="middle" x="201.5" y="-175.5" font-family="Helvetica,sans-Serif" font-size="10.00">ioman.h</text>
</a>
</g>
</g>
<!-- Node1&#45;&gt;Node9 -->
<g id="edge11" class="edge">
<title>Node1&#45;&gt;Node9</title>
<path fill="none" stroke="midnightblue" d="M213.44,-280.39C216.89,-266.11 220.85,-243.42 217.5,-224 215.93,-214.91 212.71,-205.22 209.56,-197.17"/>
<polygon fill="midnightblue" stroke="midnightblue" points="212.69,-195.6 205.61,-187.72 206.24,-198.3 212.69,-195.6"/>
</g>
<!-- Node13 -->
<g id="node13" class="node">
<title>Node13</title>
<g id="a_node13"><a xlink:href="stdio_8h.html" target="_top" xlink:title=" ">
<polygon fill="white" stroke="black" points="321,-168.5 321,-187.5 366,-187.5 366,-168.5 321,-168.5"/>
<text text-anchor="middle" x="343.5" y="-175.5" font-family="Helvetica,sans-Serif" font-size="10.00">stdio.h</text>
</a>
</g>
</g>
<!-- Node1&#45;&gt;Node13 -->
<g id="edge17" class="edge">
<title>Node1&#45;&gt;Node13</title>
<path fill="none" stroke="midnightblue" d="M248.17,-280.48C267.38,-272.09 289.95,-259.94 306.5,-244 320.21,-230.79 330.36,-211.39 336.52,-197.22"/>
<polygon fill="midnightblue" stroke="midnightblue" points="339.91,-198.18 340.45,-187.6 333.43,-195.53 339.91,-198.18"/>
</g>
<!-- Node15 -->
<g id="node15" class="node">
<title>Node15</title>
<g id="a_node15"><a xlink:href="sysclib_8h.html" target="_top" xlink:title=" ">
<polygon fill="white" stroke="black" points="384.5,-168.5 384.5,-187.5 438.5,-187.5 438.5,-168.5 384.5,-168.5"/>
<text text-anchor="middle" x="411.5" y="-175.5" font-family="Helvetica,sans-Serif" font-size="10.00">sysclib.h</text>
</a>
</g>
</g>
<!-- Node1&#45;&gt;Node15 -->
<g id="edge20" class="edge">
<title>Node1&#45;&gt;Node15</title>
<path fill="none" stroke="midnightblue" d="M249.24,-280.41C272.72,-271.38 302.62,-258.62 327.5,-244 352.27,-229.44 378.01,-208.52 394.36,-194.38"/>
<polygon fill="midnightblue" stroke="midnightblue" points="396.8,-196.9 402,-187.67 392.18,-191.64 396.8,-196.9"/>
</g>
<!-- Node17 -->
<g id="node17" class="node">
<title>Node17</title>
<g id="a_node17"><a xlink:href="iopmgr_8h.html" target="_top" xlink:title=" ">
<polygon fill="white" stroke="black" points="156,-224.5 156,-243.5 209,-243.5 209,-224.5 156,-224.5"/>
<text text-anchor="middle" x="182.5" y="-231.5" font-family="Helvetica,sans-Serif" font-size="10.00">iopmgr.h</text>
</a>
</g>
</g>
<!-- Node1&#45;&gt;Node17 -->
<g id="edge26" class="edge">
<title>Node1&#45;&gt;Node17</title>
<path fill="none" stroke="midnightblue" d="M203.1,-280.4C199.38,-272.2 194.65,-261.78 190.67,-252.99"/>
<polygon fill="midnightblue" stroke="midnightblue" points="193.75,-251.32 186.43,-243.66 187.37,-254.21 193.75,-251.32"/>
</g>
<!-- Node4 -->
<g id="node4" class="node">
<title>Node4</title>
<g id="a_node4"><a xlink:href="types_8h_source.html" target="_top" xlink:title=" ">
<polygon fill="white" stroke="black" points="121,-56.5 121,-75.5 168,-75.5 168,-56.5 121,-56.5"/>
<text text-anchor="middle" x="144.5" y="-63.5" font-family="Helvetica,sans-Serif" font-size="10.00">types.h</text>
</a>
</g>
</g>
<!-- Node3&#45;&gt;Node4 -->
<g id="edge3" class="edge">
<title>Node3&#45;&gt;Node4</title>
<path fill="none" stroke="midnightblue" d="M19.48,-224.49C16.86,-211.56 13.61,-186.52 22.5,-168 42.25,-126.84 87.7,-96.58 117.2,-80.4"/>
<polygon fill="midnightblue" stroke="midnightblue" points="118.98,-83.43 126.17,-75.65 115.7,-77.24 118.98,-83.43"/>
</g>
<!-- Node5 -->
<g id="node5" class="node">
<title>Node5</title>
<g id="a_node5"><a xlink:title=" ">
<polygon fill="white" stroke="#bfbfbf" points="119,-0.5 119,-19.5 170,-19.5 170,-0.5 119,-0.5"/>
<text text-anchor="middle" x="144.5" y="-7.5" font-family="Helvetica,sans-Serif" font-size="10.00">stddef.h</text>
</a>
</g>
</g>
<!-- Node4&#45;&gt;Node5 -->
<g id="edge4" class="edge">
<title>Node4&#45;&gt;Node5</title>
<path fill="none" stroke="midnightblue" d="M144.5,-56.08C144.5,-49.01 144.5,-38.86 144.5,-29.99"/>
<polygon fill="midnightblue" stroke="midnightblue" points="148,-29.75 144.5,-19.75 141,-29.75 148,-29.75"/>
</g>
<!-- Node6 -->
<g id="node6" class="node">
<title>Node6</title>
<g id="a_node6"><a xlink:href="tamtypes_8h.html" target="_top" xlink:title=" ">
<polygon fill="white" stroke="black" points="267.5,-0.5 267.5,-19.5 331.5,-19.5 331.5,-0.5 267.5,-0.5"/>
<text text-anchor="middle" x="299.5" y="-7.5" font-family="Helvetica,sans-Serif" font-size="10.00">tamtypes.h</text>
</a>
</g>
</g>
<!-- Node4&#45;&gt;Node6 -->
<g id="edge5" class="edge">
<title>Node4&#45;&gt;Node6</title>
<path fill="none" stroke="midnightblue" d="M168.04,-56.8C193.99,-47.76 235.95,-33.14 265.47,-22.85"/>
<polygon fill="midnightblue" stroke="midnightblue" points="266.68,-26.14 274.97,-19.55 264.37,-19.53 266.68,-26.14"/>
</g>
<!-- Node7&#45;&gt;Node4 -->
<g id="edge7" class="edge">
<title>Node7&#45;&gt;Node4</title>
<path fill="none" stroke="midnightblue" d="M270.25,-114.49C247.26,-105.8 206.11,-90.27 177.16,-79.33"/>
<polygon fill="midnightblue" stroke="midnightblue" points="178.07,-75.94 167.48,-75.68 175.6,-82.48 178.07,-75.94"/>
</g>
<!-- Node8&#45;&gt;Node4 -->
<g id="edge9" class="edge">
<title>Node8&#45;&gt;Node4</title>
<path fill="none" stroke="midnightblue" d="M128.62,-168.15C130.22,-155.63 133.33,-132.03 136.5,-112 137.88,-103.27 139.57,-93.62 141.05,-85.5"/>
<polygon fill="midnightblue" stroke="midnightblue" points="144.5,-86.08 142.87,-75.61 137.61,-84.81 144.5,-86.08"/>
</g>
<!-- Node8&#45;&gt;Node7 -->
<g id="edge10" class="edge">
<title>Node8&#45;&gt;Node7</title>
<path fill="none" stroke="midnightblue" d="M153.21,-168.44C178.36,-160.06 217.98,-146.8 260.94,-132.17"/>
<polygon fill="midnightblue" stroke="midnightblue" points="262.11,-135.47 270.45,-128.93 259.85,-128.84 262.11,-135.47"/>
</g>
<!-- Node9&#45;&gt;Node4 -->
<g id="edge12" class="edge">
<title>Node9&#45;&gt;Node4</title>
<path fill="none" stroke="midnightblue" d="M194.44,-168.46C187.44,-159.71 176.75,-145.51 169.5,-132 161.46,-117.02 154.71,-98.88 150.26,-85.58"/>
<polygon fill="midnightblue" stroke="midnightblue" points="153.48,-84.16 147.08,-75.71 146.81,-86.31 153.48,-84.16"/>
</g>
<!-- Node9&#45;&gt;Node7 -->
<g id="edge13" class="edge">
<title>Node9&#45;&gt;Node7</title>
<path fill="none" stroke="midnightblue" d="M215.32,-168.32C228.73,-159.9 249.32,-146.97 265.09,-137.07"/>
<polygon fill="midnightblue" stroke="midnightblue" points="267.11,-139.94 273.72,-131.65 263.39,-134.01 267.11,-139.94"/>
</g>
<!-- Node10 -->
<g id="node10" class="node">
<title>Node10</title>
<g id="a_node10"><a xlink:href="io__common_8h.html" target="_top" xlink:title=" ">
<polygon fill="white" stroke="black" points="178.5,-112.5 178.5,-131.5 252.5,-131.5 252.5,-112.5 178.5,-112.5"/>
<text text-anchor="middle" x="215.5" y="-119.5" font-family="Helvetica,sans-Serif" font-size="10.00">io_common.h</text>
</a>
</g>
</g>
<!-- Node9&#45;&gt;Node10 -->
<g id="edge14" class="edge">
<title>Node9&#45;&gt;Node10</title>
<path fill="none" stroke="midnightblue" d="M203.81,-168.08C205.67,-160.93 208.34,-150.64 210.65,-141.69"/>
<polygon fill="midnightblue" stroke="midnightblue" points="214.11,-142.31 213.23,-131.75 207.33,-140.55 214.11,-142.31"/>
</g>
<!-- Node11 -->
<g id="node11" class="node">
<title>Node11</title>
<g id="a_node11"><a xlink:href="fcntl_8h_source.html" target="_top" xlink:title=" ">
<polygon fill="white" stroke="black" points="273,-56.5 273,-75.5 334,-75.5 334,-56.5 273,-56.5"/>
<text text-anchor="middle" x="303.5" y="-63.5" font-family="Helvetica,sans-Serif" font-size="10.00">sys/fcntl.h</text>
</a>
</g>
</g>
<!-- Node10&#45;&gt;Node11 -->
<g id="edge15" class="edge">
<title>Node10&#45;&gt;Node11</title>
<path fill="none" stroke="midnightblue" d="M229.64,-112.32C243.37,-103.9 264.44,-90.97 280.56,-81.07"/>
<polygon fill="midnightblue" stroke="midnightblue" points="282.7,-83.87 289.4,-75.65 279.04,-77.9 282.7,-83.87"/>
</g>
<!-- Node12 -->
<g id="node12" class="node">
<title>Node12</title>
<g id="a_node12"><a xlink:href="unistd_8h_source.html" target="_top" xlink:title=" ">
<polygon fill="white" stroke="black" points="186.5,-56.5 186.5,-75.5 254.5,-75.5 254.5,-56.5 186.5,-56.5"/>
<text text-anchor="middle" x="220.5" y="-63.5" font-family="Helvetica,sans-Serif" font-size="10.00">sys/unistd.h</text>
</a>
</g>
</g>
<!-- Node10&#45;&gt;Node12 -->
<g id="edge16" class="edge">
<title>Node10&#45;&gt;Node12</title>
<path fill="none" stroke="midnightblue" d="M216.33,-112.08C216.98,-105.01 217.92,-94.86 218.74,-85.99"/>
<polygon fill="midnightblue" stroke="midnightblue" points="222.25,-86.03 219.69,-75.75 215.28,-85.39 222.25,-86.03"/>
</g>
<!-- Node13&#45;&gt;Node7 -->
<g id="edge19" class="edge">
<title>Node13&#45;&gt;Node7</title>
<path fill="none" stroke="midnightblue" d="M334.5,-168.32C326.31,-160.42 313.99,-148.55 304.03,-138.94"/>
<polygon fill="midnightblue" stroke="midnightblue" points="306.29,-136.26 296.66,-131.83 301.43,-141.29 306.29,-136.26"/>
</g>
<!-- Node14 -->
<g id="node14" class="node">
<title>Node14</title>
<g id="a_node14"><a xlink:title=" ">
<polygon fill="white" stroke="#bfbfbf" points="323,-112.5 323,-131.5 374,-131.5 374,-112.5 323,-112.5"/>
<text text-anchor="middle" x="348.5" y="-119.5" font-family="Helvetica,sans-Serif" font-size="10.00">stdarg.h</text>
</a>
</g>
</g>
<!-- Node13&#45;&gt;Node14 -->
<g id="edge18" class="edge">
<title>Node13&#45;&gt;Node14</title>
<path fill="none" stroke="midnightblue" d="M344.33,-168.08C344.98,-161.01 345.92,-150.86 346.74,-141.99"/>
<polygon fill="midnightblue" stroke="midnightblue" points="350.25,-142.03 347.69,-131.75 343.28,-141.39 350.25,-142.03"/>
</g>
<!-- Node15&#45;&gt;Node4 -->
<g id="edge21" class="edge">
<title>Node15&#45;&gt;Node4</title>
<path fill="none" stroke="midnightblue" d="M410.39,-168.26C408.09,-154.06 401.43,-126.17 383.5,-112 313.06,-56.36 271.14,-93.5 178.28,-75.84"/>
<polygon fill="midnightblue" stroke="midnightblue" points="178.73,-72.36 168.23,-73.76 177.31,-79.22 178.73,-72.36"/>
</g>
<!-- Node15&#45;&gt;Node7 -->
<g id="edge22" class="edge">
<title>Node15&#45;&gt;Node7</title>
<path fill="none" stroke="midnightblue" d="M391.85,-168.44C370.82,-159.28 337.33,-144.7 313.98,-134.53"/>
<polygon fill="midnightblue" stroke="midnightblue" points="315.23,-131.26 304.66,-130.47 312.43,-137.67 315.23,-131.26"/>
</g>
<!-- Node15&#45;&gt;Node14 -->
<g id="edge23" class="edge">
<title>Node15&#45;&gt;Node14</title>
<path fill="none" stroke="midnightblue" d="M401.38,-168.32C391.97,-160.26 377.76,-148.08 366.43,-138.37"/>
<polygon fill="midnightblue" stroke="midnightblue" points="368.68,-135.68 358.81,-131.83 364.12,-141 368.68,-135.68"/>
</g>
<!-- Node16 -->
<g id="node16" class="node">
<title>Node16</title>
<g id="a_node16"><a xlink:href="setjmp_8h.html" target="_top" xlink:title=" ">
<polygon fill="white" stroke="black" points="385,-56.5 385,-75.5 438,-75.5 438,-56.5 385,-56.5"/>
<text text-anchor="middle" x="411.5" y="-63.5" font-family="Helvetica,sans-Serif" font-size="10.00">setjmp.h</text>
</a>
</g>
</g>
<!-- Node15&#45;&gt;Node16 -->
<g id="edge24" class="edge">
<title>Node15&#45;&gt;Node16</title>
<path fill="none" stroke="midnightblue" d="M412.92,-168.18C414.76,-155.68 417.61,-132.12 416.5,-112 416.02,-103.36 415.03,-93.83 414.05,-85.77"/>
<polygon fill="midnightblue" stroke="midnightblue" points="417.49,-85.07 412.74,-75.6 410.55,-85.97 417.49,-85.07"/>
</g>
<!-- Node16&#45;&gt;Node6 -->
<g id="edge25" class="edge">
<title>Node16&#45;&gt;Node6</title>
<path fill="none" stroke="midnightblue" d="M393.51,-56.32C375.46,-47.62 347.45,-34.12 326.7,-24.11"/>
<polygon fill="midnightblue" stroke="midnightblue" points="327.98,-20.84 317.45,-19.65 324.94,-27.15 327.98,-20.84"/>
</g>
<!-- Node17&#45;&gt;Node2 -->
<g id="edge27" class="edge">
<title>Node17&#45;&gt;Node2</title>
<path fill="none" stroke="midnightblue" d="M162.38,-224.44C141.48,-215.56 108.57,-201.56 84.78,-191.45"/>
<polygon fill="midnightblue" stroke="midnightblue" points="86.1,-188.21 75.53,-187.52 83.36,-194.65 86.1,-188.21"/>
</g>
<!-- Node17&#45;&gt;Node7 -->
<g id="edge28" class="edge">
<title>Node17&#45;&gt;Node7</title>
<path fill="none" stroke="midnightblue" d="M194.01,-224.28C205.14,-215.62 222.21,-201.68 235.5,-188 250.23,-172.84 265.1,-153.79 275.14,-140.24"/>
<polygon fill="midnightblue" stroke="midnightblue" points="278.19,-141.99 281.26,-131.85 272.54,-137.86 278.19,-141.99"/>
</g>
<!-- Node17&#45;&gt;Node8 -->
<g id="edge30" class="edge">
<title>Node17&#45;&gt;Node8</title>
<path fill="none" stroke="midnightblue" d="M173.42,-224.08C165.33,-216.14 153.3,-204.34 143.59,-194.8"/>
<polygon fill="midnightblue" stroke="midnightblue" points="146,-192.26 136.41,-187.75 141.1,-197.25 146,-192.26"/>
</g>
<!-- Node17&#45;&gt;Node9 -->
<g id="edge29" class="edge">
<title>Node17&#45;&gt;Node9</title>
<path fill="none" stroke="midnightblue" d="M185.64,-224.08C188.18,-216.85 191.86,-206.41 195.03,-197.4"/>
<polygon fill="midnightblue" stroke="midnightblue" points="198.4,-198.35 198.42,-187.75 191.8,-196.02 198.4,-198.35"/>
</g>
</g>
</svg>
