<?xml version="1.0" encoding="UTF-8" standalone="no"?>
<!DOCTYPE svg PUBLIC "-//W3C//DTD SVG 1.1//EN"
 "http://www.w3.org/Graphics/SVG/1.1/DTD/svg11.dtd">
<!-- Generated by graphviz version 2.46.1 (20210215.1649)
 -->
<!-- Title: iop/sound/audsrv/src/common.c Pages: 1 -->
<!--zoomable 263 -->
<svg id="main" version="1.1" xmlns="http://www.w3.org/2000/svg" xmlns:xlink="http://www.w3.org/1999/xlink" xml:space="preserve" onload="init(evt)">
<style type="text/css"><![CDATA[
.edge:hover path { stroke: red; }
.edge:hover polygon { stroke: red; fill: red; }
]]></style>
<script type="text/javascript"><![CDATA[
var edges = document.getElementsByTagName('g');
if (edges && edges.length) {
  for (var i=0;i<edges.length;i++) {
    if (edges[i].id.substr(0,4)=='edge') {
      edges[i].setAttribute('class','edge');
    }
  }
}
]]></script>
        <defs>
                <circle id="rim" cx="0" cy="0" r="7"/>
                <circle id="rim2" cx="0" cy="0" r="3.5"/>
                <g id="zoomPlus">
                        <use xlink:href="#rim" fill="#404040">
                                <set attributeName="fill" to="#808080" begin="zoomplus.mouseover" end="zoomplus.mouseout"/>
                        </use>
                        <path d="M-4,0h8M0,-4v8" fill="none" stroke="white" stroke-width="1.5" pointer-events="none"/>
                </g>
                <g id="zoomMin">
                        <use xlink:href="#rim" fill="#404040">
                                <set attributeName="fill" to="#808080" begin="zoomminus.mouseover" end="zoomminus.mouseout"/>
                        </use>
                        <path d="M-4,0h8" fill="none" stroke="white" stroke-width="1.5" pointer-events="none"/>
                </g>
                <g id="dirArrow">
                        <path fill="none" stroke="white" stroke-width="1.5" d="M0,-3.0v7 M-2.5,-0.5L0,-3.0L2.5,-0.5"/>
                </g>
               <g id="resetDef">
                       <use xlink:href="#rim2" fill="#404040">
                               <set attributeName="fill" to="#808080" begin="reset.mouseover" end="reset.mouseout"/>
                       </use>
               </g>
        </defs>

<script type="text/javascript">
var viewWidth = 590;
var viewHeight = 263;
var sectionId = 'dynsection-0';
</script>
<script xlink:href="svgpan.js"/>
<svg id="graph" class="graph">
<g id="viewport">
<title>iop/sound/audsrv/src/common.c</title>
<polygon fill="white" stroke="transparent" points="-4,4 -4,-259 586,-259 586,4 -4,4"/>
<!-- Node1 -->
<g id="node1" class="node">
<title>Node1</title>
<g id="a_node1"><a xlink:title=" ">
<polygon fill="#bfbfbf" stroke="black" points="244.5,-224.5 244.5,-254.5 351.5,-254.5 351.5,-224.5 244.5,-224.5"/>
<text text-anchor="start" x="252.5" y="-242.5" font-family="Helvetica,sans-Serif" font-size="10.00">iop/sound/audsrv/src</text>
<text text-anchor="middle" x="298" y="-231.5" font-family="Helvetica,sans-Serif" font-size="10.00">/common.c</text>
</a>
</g>
</g>
<!-- Node2 -->
<g id="node2" class="node">
<title>Node2</title>
<g id="a_node2"><a xlink:href="stdio_8h.html" target="_top" xlink:title=" ">
<polygon fill="white" stroke="black" points="384.5,-168.5 384.5,-187.5 429.5,-187.5 429.5,-168.5 384.5,-168.5"/>
<text text-anchor="middle" x="407" y="-175.5" font-family="Helvetica,sans-Serif" font-size="10.00">stdio.h</text>
</a>
</g>
</g>
<!-- Node1&#45;&gt;Node2 -->
<g id="edge1" class="edge">
<title>Node1&#45;&gt;Node2</title>
<path fill="none" stroke="midnightblue" d="M323.83,-224.4C341.47,-214.77 364.7,-202.09 382.13,-192.58"/>
<polygon fill="midnightblue" stroke="midnightblue" points="384.04,-195.52 391.14,-187.66 380.69,-189.38 384.04,-195.52"/>
</g>
<!-- Node8 -->
<g id="node8" class="node">
<title>Node8</title>
<g id="a_node8"><a xlink:href="thbase_8h.html" target="_top" xlink:title=" ">
<polygon fill="white" stroke="black" points="234.5,-168.5 234.5,-187.5 287.5,-187.5 287.5,-168.5 234.5,-168.5"/>
<text text-anchor="middle" x="261" y="-175.5" font-family="Helvetica,sans-Serif" font-size="10.00">thbase.h</text>
</a>
</g>
</g>
<!-- Node1&#45;&gt;Node8 -->
<g id="edge7" class="edge">
<title>Node1&#45;&gt;Node8</title>
<path fill="none" stroke="midnightblue" d="M289.23,-224.4C284.02,-216.02 277.37,-205.33 271.83,-196.42"/>
<polygon fill="midnightblue" stroke="midnightblue" points="274.64,-194.3 266.38,-187.66 268.69,-198 274.64,-194.3"/>
</g>
<!-- Node9 -->
<g id="node9" class="node">
<title>Node9</title>
<g id="a_node9"><a xlink:href="thsemap_8h.html" target="_top" xlink:title=" ">
<polygon fill="white" stroke="black" points="0,-168.5 0,-187.5 62,-187.5 62,-168.5 0,-168.5"/>
<text text-anchor="middle" x="31" y="-175.5" font-family="Helvetica,sans-Serif" font-size="10.00">thsemap.h</text>
</a>
</g>
</g>
<!-- Node1&#45;&gt;Node9 -->
<g id="edge10" class="edge">
<title>Node1&#45;&gt;Node9</title>
<path fill="none" stroke="midnightblue" d="M244.33,-226.6C200.57,-216.89 136.89,-202.73 72.01,-188.22"/>
<polygon fill="midnightblue" stroke="midnightblue" points="72.53,-184.75 62.01,-185.98 71,-191.58 72.53,-184.75"/>
</g>
<!-- Node10 -->
<g id="node10" class="node">
<title>Node10</title>
<g id="a_node10"><a xlink:href="loadcore_8h.html" target="_top" xlink:title=" ">
<polygon fill="white" stroke="black" points="80.5,-168.5 80.5,-187.5 141.5,-187.5 141.5,-168.5 80.5,-168.5"/>
<text text-anchor="middle" x="111" y="-175.5" font-family="Helvetica,sans-Serif" font-size="10.00">loadcore.h</text>
</a>
</g>
</g>
<!-- Node1&#45;&gt;Node10 -->
<g id="edge13" class="edge">
<title>Node1&#45;&gt;Node10</title>
<path fill="none" stroke="midnightblue" d="M253.68,-224.4C221.37,-214.12 178.1,-200.35 147.71,-190.68"/>
<polygon fill="midnightblue" stroke="midnightblue" points="148.53,-187.27 137.94,-187.57 146.41,-193.94 148.53,-187.27"/>
</g>
<!-- Node11 -->
<g id="node11" class="node">
<title>Node11</title>
<g id="a_node11"><a xlink:href="sysmem_8h.html" target="_top" xlink:title=" ">
<polygon fill="white" stroke="black" points="305.5,-168.5 305.5,-187.5 366.5,-187.5 366.5,-168.5 305.5,-168.5"/>
<text text-anchor="middle" x="336" y="-175.5" font-family="Helvetica,sans-Serif" font-size="10.00">sysmem.h</text>
</a>
</g>
</g>
<!-- Node1&#45;&gt;Node11 -->
<g id="edge16" class="edge">
<title>Node1&#45;&gt;Node11</title>
<path fill="none" stroke="midnightblue" d="M307.01,-224.4C312.41,-215.93 319.33,-205.1 325.05,-196.14"/>
<polygon fill="midnightblue" stroke="midnightblue" points="328.04,-197.97 330.47,-187.66 322.14,-194.2 328.04,-197.97"/>
</g>
<!-- Node12 -->
<g id="node12" class="node">
<title>Node12</title>
<g id="a_node12"><a xlink:href="intrman_8h.html" target="_top" xlink:title=" ">
<polygon fill="white" stroke="black" points="160,-168.5 160,-187.5 216,-187.5 216,-168.5 160,-168.5"/>
<text text-anchor="middle" x="188" y="-175.5" font-family="Helvetica,sans-Serif" font-size="10.00">intrman.h</text>
</a>
</g>
</g>
<!-- Node1&#45;&gt;Node12 -->
<g id="edge20" class="edge">
<title>Node1&#45;&gt;Node12</title>
<path fill="none" stroke="midnightblue" d="M271.93,-224.4C254.13,-214.77 230.69,-202.09 213.1,-192.58"/>
<polygon fill="midnightblue" stroke="midnightblue" points="214.47,-189.34 204.01,-187.66 211.14,-195.49 214.47,-189.34"/>
</g>
<!-- Node13 -->
<g id="node13" class="node">
<title>Node13</title>
<g id="a_node13"><a xlink:href="sysclib_8h.html" target="_top" xlink:title=" ">
<polygon fill="white" stroke="black" points="448,-168.5 448,-187.5 502,-187.5 502,-168.5 448,-168.5"/>
<text text-anchor="middle" x="475" y="-175.5" font-family="Helvetica,sans-Serif" font-size="10.00">sysclib.h</text>
</a>
</g>
</g>
<!-- Node1&#45;&gt;Node13 -->
<g id="edge23" class="edge">
<title>Node1&#45;&gt;Node13</title>
<path fill="none" stroke="midnightblue" d="M339.95,-224.4C370.4,-214.16 411.13,-200.47 439.87,-190.81"/>
<polygon fill="midnightblue" stroke="midnightblue" points="441.14,-194.07 449.5,-187.57 438.91,-187.44 441.14,-194.07"/>
</g>
<!-- Node15 -->
<g id="node15" class="node">
<title>Node15</title>
<g id="a_node15"><a xlink:href="iop_2sound_2audsrv_2src_2common_8h.html" target="_top" xlink:title=" ">
<polygon fill="white" stroke="black" points="520,-168.5 520,-187.5 582,-187.5 582,-168.5 520,-168.5"/>
<text text-anchor="middle" x="551" y="-175.5" font-family="Helvetica,sans-Serif" font-size="10.00">common.h</text>
</a>
</g>
</g>
<!-- Node1&#45;&gt;Node15 -->
<g id="edge29" class="edge">
<title>Node1&#45;&gt;Node15</title>
<path fill="none" stroke="midnightblue" d="M351.65,-225.88C398.92,-214.77 466.78,-198.81 509.86,-188.67"/>
<polygon fill="midnightblue" stroke="midnightblue" points="510.79,-192.05 519.72,-186.36 509.19,-185.24 510.79,-192.05"/>
</g>
<!-- Node3 -->
<g id="node3" class="node">
<title>Node3</title>
<g id="a_node3"><a xlink:title=" ">
<polygon fill="white" stroke="#bfbfbf" points="357.5,-112.5 357.5,-131.5 408.5,-131.5 408.5,-112.5 357.5,-112.5"/>
<text text-anchor="middle" x="383" y="-119.5" font-family="Helvetica,sans-Serif" font-size="10.00">stdarg.h</text>
</a>
</g>
</g>
<!-- Node2&#45;&gt;Node3 -->
<g id="edge2" class="edge">
<title>Node2&#45;&gt;Node3</title>
<path fill="none" stroke="midnightblue" d="M403.04,-168.08C399.79,-160.77 395.08,-150.18 391.05,-141.1"/>
<polygon fill="midnightblue" stroke="midnightblue" points="394.15,-139.47 386.89,-131.75 387.75,-142.31 394.15,-139.47"/>
</g>
<!-- Node4 -->
<g id="node4" class="node">
<title>Node4</title>
<g id="a_node4"><a xlink:href="irx_8h.html" target="_top" xlink:title=" ">
<polygon fill="white" stroke="black" points="258,-112.5 258,-131.5 292,-131.5 292,-112.5 258,-112.5"/>
<text text-anchor="middle" x="275" y="-119.5" font-family="Helvetica,sans-Serif" font-size="10.00">irx.h</text>
</a>
</g>
</g>
<!-- Node2&#45;&gt;Node4 -->
<g id="edge3" class="edge">
<title>Node2&#45;&gt;Node4</title>
<path fill="none" stroke="midnightblue" d="M386.08,-168.44C363.21,-159.09 326.5,-144.07 301.59,-133.88"/>
<polygon fill="midnightblue" stroke="midnightblue" points="302.62,-130.52 292.04,-129.97 299.97,-137 302.62,-130.52"/>
</g>
<!-- Node5 -->
<g id="node5" class="node">
<title>Node5</title>
<g id="a_node5"><a xlink:href="types_8h_source.html" target="_top" xlink:title=" ">
<polygon fill="white" stroke="black" points="228.5,-56.5 228.5,-75.5 275.5,-75.5 275.5,-56.5 228.5,-56.5"/>
<text text-anchor="middle" x="252" y="-63.5" font-family="Helvetica,sans-Serif" font-size="10.00">types.h</text>
</a>
</g>
</g>
<!-- Node4&#45;&gt;Node5 -->
<g id="edge4" class="edge">
<title>Node4&#45;&gt;Node5</title>
<path fill="none" stroke="midnightblue" d="M271.2,-112.08C268.09,-104.77 263.58,-94.18 259.71,-85.1"/>
<polygon fill="midnightblue" stroke="midnightblue" points="262.87,-83.58 255.73,-75.75 256.43,-86.32 262.87,-83.58"/>
</g>
<!-- Node6 -->
<g id="node6" class="node">
<title>Node6</title>
<g id="a_node6"><a xlink:title=" ">
<polygon fill="white" stroke="#bfbfbf" points="226.5,-0.5 226.5,-19.5 277.5,-19.5 277.5,-0.5 226.5,-0.5"/>
<text text-anchor="middle" x="252" y="-7.5" font-family="Helvetica,sans-Serif" font-size="10.00">stddef.h</text>
</a>
</g>
</g>
<!-- Node5&#45;&gt;Node6 -->
<g id="edge5" class="edge">
<title>Node5&#45;&gt;Node6</title>
<path fill="none" stroke="midnightblue" d="M252,-56.08C252,-49.01 252,-38.86 252,-29.99"/>
<polygon fill="midnightblue" stroke="midnightblue" points="255.5,-29.75 252,-19.75 248.5,-29.75 255.5,-29.75"/>
</g>
<!-- Node7 -->
<g id="node7" class="node">
<title>Node7</title>
<g id="a_node7"><a xlink:href="tamtypes_8h.html" target="_top" xlink:title=" ">
<polygon fill="white" stroke="black" points="376,-0.5 376,-19.5 440,-19.5 440,-0.5 376,-0.5"/>
<text text-anchor="middle" x="408" y="-7.5" font-family="Helvetica,sans-Serif" font-size="10.00">tamtypes.h</text>
</a>
</g>
</g>
<!-- Node5&#45;&gt;Node7 -->
<g id="edge6" class="edge">
<title>Node5&#45;&gt;Node7</title>
<path fill="none" stroke="midnightblue" d="M275.69,-56.8C301.81,-47.76 344.04,-33.14 373.75,-22.85"/>
<polygon fill="midnightblue" stroke="midnightblue" points="375,-26.13 383.31,-19.55 372.71,-19.51 375,-26.13"/>
</g>
<!-- Node8&#45;&gt;Node4 -->
<g id="edge9" class="edge">
<title>Node8&#45;&gt;Node4</title>
<path fill="none" stroke="midnightblue" d="M263.31,-168.08C265.17,-160.93 267.84,-150.64 270.15,-141.69"/>
<polygon fill="midnightblue" stroke="midnightblue" points="273.61,-142.31 272.73,-131.75 266.83,-140.55 273.61,-142.31"/>
</g>
<!-- Node8&#45;&gt;Node5 -->
<g id="edge8" class="edge">
<title>Node8&#45;&gt;Node5</title>
<path fill="none" stroke="midnightblue" d="M257.91,-168.17C254.95,-159.2 250.68,-144.83 249,-132 246.98,-116.58 248,-98.95 249.37,-85.94"/>
<polygon fill="midnightblue" stroke="midnightblue" points="252.87,-86.22 250.61,-75.87 245.92,-85.37 252.87,-86.22"/>
</g>
<!-- Node9&#45;&gt;Node4 -->
<g id="edge12" class="edge">
<title>Node9&#45;&gt;Node4</title>
<path fill="none" stroke="midnightblue" d="M62.01,-170.01C65.04,-169.33 68.08,-168.65 71,-168 134.26,-153.91 208.61,-137.56 247.74,-128.98"/>
<polygon fill="midnightblue" stroke="midnightblue" points="248.78,-132.33 257.8,-126.77 247.28,-125.49 248.78,-132.33"/>
</g>
<!-- Node9&#45;&gt;Node5 -->
<g id="edge11" class="edge">
<title>Node9&#45;&gt;Node5</title>
<path fill="none" stroke="midnightblue" d="M48.34,-168.37C86.91,-149.17 179.99,-102.84 225.73,-80.07"/>
<polygon fill="midnightblue" stroke="midnightblue" points="227.35,-83.18 234.74,-75.59 224.23,-76.91 227.35,-83.18"/>
</g>
<!-- Node10&#45;&gt;Node4 -->
<g id="edge15" class="edge">
<title>Node10&#45;&gt;Node4</title>
<path fill="none" stroke="midnightblue" d="M136.99,-168.44C167.34,-158.45 217.29,-142 248.05,-131.87"/>
<polygon fill="midnightblue" stroke="midnightblue" points="249.28,-135.15 257.69,-128.7 247.09,-128.5 249.28,-135.15"/>
</g>
<!-- Node10&#45;&gt;Node5 -->
<g id="edge14" class="edge">
<title>Node10&#45;&gt;Node5</title>
<path fill="none" stroke="midnightblue" d="M122.06,-168.37C146.05,-149.65 203.1,-105.15 232.99,-81.83"/>
<polygon fill="midnightblue" stroke="midnightblue" points="235.26,-84.5 240.99,-75.59 230.95,-78.98 235.26,-84.5"/>
</g>
<!-- Node11&#45;&gt;Node3 -->
<g id="edge19" class="edge">
<title>Node11&#45;&gt;Node3</title>
<path fill="none" stroke="midnightblue" d="M343.76,-168.08C350.54,-160.3 360.54,-148.8 368.76,-139.37"/>
<polygon fill="midnightblue" stroke="midnightblue" points="371.46,-141.59 375.38,-131.75 366.18,-137 371.46,-141.59"/>
</g>
<!-- Node11&#45;&gt;Node4 -->
<g id="edge18" class="edge">
<title>Node11&#45;&gt;Node4</title>
<path fill="none" stroke="midnightblue" d="M326.2,-168.32C317.18,-160.34 303.59,-148.31 292.68,-138.65"/>
<polygon fill="midnightblue" stroke="midnightblue" points="294.79,-135.84 284.98,-131.83 290.15,-141.08 294.79,-135.84"/>
</g>
<!-- Node11&#45;&gt;Node5 -->
<g id="edge17" class="edge">
<title>Node11&#45;&gt;Node5</title>
<path fill="none" stroke="midnightblue" d="M332.51,-168.46C326.97,-155.5 315.32,-130.41 301,-112 292.45,-101 281.07,-90.37 271.43,-82.21"/>
<polygon fill="midnightblue" stroke="midnightblue" points="273.48,-79.36 263.53,-75.72 269.04,-84.77 273.48,-79.36"/>
</g>
<!-- Node12&#45;&gt;Node4 -->
<g id="edge22" class="edge">
<title>Node12&#45;&gt;Node4</title>
<path fill="none" stroke="midnightblue" d="M201.98,-168.32C215.55,-159.9 236.38,-146.97 252.32,-137.07"/>
<polygon fill="midnightblue" stroke="midnightblue" points="254.41,-139.9 261.06,-131.65 250.71,-133.95 254.41,-139.9"/>
</g>
<!-- Node12&#45;&gt;Node5 -->
<g id="edge21" class="edge">
<title>Node12&#45;&gt;Node5</title>
<path fill="none" stroke="midnightblue" d="M193.02,-168.37C203.54,-150.3 228.04,-108.18 241.93,-84.31"/>
<polygon fill="midnightblue" stroke="midnightblue" points="245,-86 247,-75.59 238.95,-82.47 245,-86"/>
</g>
<!-- Node13&#45;&gt;Node3 -->
<g id="edge26" class="edge">
<title>Node13&#45;&gt;Node3</title>
<path fill="none" stroke="midnightblue" d="M460.22,-168.32C445.73,-159.82 423.43,-146.73 406.51,-136.8"/>
<polygon fill="midnightblue" stroke="midnightblue" points="408.14,-133.7 397.74,-131.65 404.6,-139.74 408.14,-133.7"/>
</g>
<!-- Node13&#45;&gt;Node4 -->
<g id="edge25" class="edge">
<title>Node13&#45;&gt;Node4</title>
<path fill="none" stroke="midnightblue" d="M447.61,-169.6C409.28,-159.25 340.06,-140.57 301.96,-130.28"/>
<polygon fill="midnightblue" stroke="midnightblue" points="302.66,-126.84 292.09,-127.61 300.83,-133.6 302.66,-126.84"/>
</g>
<!-- Node13&#45;&gt;Node5 -->
<g id="edge24" class="edge">
<title>Node13&#45;&gt;Node5</title>
<path fill="none" stroke="midnightblue" d="M469.86,-168.39C461.04,-154.39 441.69,-126.78 418,-112 376.9,-86.36 321.24,-75.15 285.96,-70.37"/>
<polygon fill="midnightblue" stroke="midnightblue" points="286.07,-66.86 275.71,-69.09 285.2,-73.8 286.07,-66.86"/>
</g>
<!-- Node14 -->
<g id="node14" class="node">
<title>Node14</title>
<g id="a_node14"><a xlink:href="setjmp_8h.html" target="_top" xlink:title=" ">
<polygon fill="white" stroke="black" points="414.5,-56.5 414.5,-75.5 467.5,-75.5 467.5,-56.5 414.5,-56.5"/>
<text text-anchor="middle" x="441" y="-63.5" font-family="Helvetica,sans-Serif" font-size="10.00">setjmp.h</text>
</a>
</g>
</g>
<!-- Node13&#45;&gt;Node14 -->
<g id="edge27" class="edge">
<title>Node13&#45;&gt;Node14</title>
<path fill="none" stroke="midnightblue" d="M472.33,-168.37C466.82,-150.54 454.07,-109.3 446.65,-85.27"/>
<polygon fill="midnightblue" stroke="midnightblue" points="449.95,-84.11 443.66,-75.59 443.26,-86.18 449.95,-84.11"/>
</g>
<!-- Node14&#45;&gt;Node7 -->
<g id="edge28" class="edge">
<title>Node14&#45;&gt;Node7</title>
<path fill="none" stroke="midnightblue" d="M435.55,-56.08C430.99,-48.61 424.33,-37.72 418.71,-28.52"/>
<polygon fill="midnightblue" stroke="midnightblue" points="421.55,-26.46 413.35,-19.75 415.58,-30.11 421.55,-26.46"/>
</g>
</g>
</svg>
        <g id="navigator" transform="translate(0 0)" fill="#404254">
                <rect fill="#f2f5e9" fill-opacity="0.5" stroke="#606060" stroke-width=".5" x="0" y="0" width="60" height="60"/>
                <use id="zoomplus" xlink:href="#zoomPlus" x="17" y="9" onmousedown="handleZoom(evt,'in')"/>
                <use id="zoomminus" xlink:href="#zoomMin" x="42" y="9" onmousedown="handleZoom(evt,'out')"/>
                <use id="reset" xlink:href="#resetDef" x="30" y="36" onmousedown="handleReset()"/>
                <g id="arrowUp" xlink:href="#dirArrow" transform="translate(30 24)" onmousedown="handlePan(0,-1)">
                  <use xlink:href="#rim" fill="#404040">
                        <set attributeName="fill" to="#808080" begin="arrowUp.mouseover" end="arrowUp.mouseout"/>
                  </use>
                  <path fill="none" stroke="white" stroke-width="1.5" d="M0,-3.0v7 M-2.5,-0.5L0,-3.0L2.5,-0.5"/>
                </g>
                <g id="arrowRight" xlink:href="#dirArrow" transform="rotate(90) translate(36 -43)" onmousedown="handlePan(1,0)">
                  <use xlink:href="#rim" fill="#404040">
                        <set attributeName="fill" to="#808080" begin="arrowRight.mouseover" end="arrowRight.mouseout"/>
                  </use>
                  <path fill="none" stroke="white" stroke-width="1.5" d="M0,-3.0v7 M-2.5,-0.5L0,-3.0L2.5,-0.5"/>
                </g>
                <g id="arrowDown" xlink:href="#dirArrow" transform="rotate(180) translate(-30 -48)" onmousedown="handlePan(0,1)">
                  <use xlink:href="#rim" fill="#404040">
                        <set attributeName="fill" to="#808080" begin="arrowDown.mouseover" end="arrowDown.mouseout"/>
                  </use>
                  <path fill="none" stroke="white" stroke-width="1.5" d="M0,-3.0v7 M-2.5,-0.5L0,-3.0L2.5,-0.5"/>
                </g>
                <g id="arrowLeft" xlink:href="#dirArrow" transform="rotate(270) translate(-36 17)" onmousedown="handlePan(-1,0)">
                  <use xlink:href="#rim" fill="#404040">
                        <set attributeName="fill" to="#808080" begin="arrowLeft.mouseover" end="arrowLeft.mouseout"/>
                  </use>
                  <path fill="none" stroke="white" stroke-width="1.5" d="M0,-3.0v7 M-2.5,-0.5L0,-3.0L2.5,-0.5"/>
                </g>
        </g>
        <svg viewBox="0 0 15 15" width="100%" height="30px" preserveAspectRatio="xMaxYMin meet">
         <g id="arrow_out" transform="scale(0.3 0.3)">
          <a xlink:href="iop_2sound_2audsrv_2src_2common_8c__incl_org.svg" target="_base">
           <rect id="button" ry="5" rx="5" y="6" x="6" height="38" width="38"
                fill="#f2f5e9" fill-opacity="0.5" stroke="#606060" stroke-width="1.0"/>
           <path id="arrow"
             d="M 11.500037,31.436501 C 11.940474,20.09759 22.043105,11.32322 32.158766,21.979434 L 37.068811,17.246167 C 37.068811,17.246167 37.088388,32 37.088388,32 L 22.160133,31.978069 C 22.160133,31.978069 26.997745,27.140456 26.997745,27.140456 C 18.528582,18.264221 13.291696,25.230495 11.500037,31.436501 z"
             style="fill:#404040;"/>
          </a>
         </g>
        </svg>
</svg>
