<?xml version="1.0" encoding="UTF-8" standalone="no"?>
<!DOCTYPE svg PUBLIC "-//W3C//DTD SVG 1.1//EN"
 "http://www.w3.org/Graphics/SVG/1.1/DTD/svg11.dtd">
<!-- Generated by graphviz version 2.46.1 (20210215.1649)
 -->
<!-- Title: iop/tcpip/tcpip/src/ps2ip.c Pages: 1 -->
<svg width="1435pt" height="263pt"
 viewBox="0.00 0.00 1434.50 263.00" xmlns="http://www.w3.org/2000/svg" xmlns:xlink="http://www.w3.org/1999/xlink">
<g id="graph0" class="graph" transform="scale(1 1) rotate(0) translate(4 259)">
<title>iop/tcpip/tcpip/src/ps2ip.c</title>
<polygon fill="white" stroke="transparent" points="-4,4 -4,-259 1430.5,-259 1430.5,4 -4,4"/>
<!-- Node1 -->
<g id="node1" class="node">
<title>Node1</title>
<g id="a_node1"><a xlink:title=" ">
<polygon fill="#bfbfbf" stroke="black" points="608.5,-224.5 608.5,-254.5 702.5,-254.5 702.5,-224.5 608.5,-224.5"/>
<text text-anchor="start" x="616.5" y="-242.5" font-family="Helvetica,sans-Serif" font-size="10.00">iop/tcpip/tcpip/src</text>
<text text-anchor="middle" x="655.5" y="-231.5" font-family="Helvetica,sans-Serif" font-size="10.00">/ps2ip.c</text>
</a>
</g>
</g>
<!-- Node2 -->
<g id="node2" class="node">
<title>Node2</title>
<g id="a_node2"><a xlink:title=" ">
<polygon fill="white" stroke="#bfbfbf" points="0,-168.5 0,-187.5 47,-187.5 47,-168.5 0,-168.5"/>
<text text-anchor="middle" x="23.5" y="-175.5" font-family="Helvetica,sans-Serif" font-size="10.00">types.h</text>
</a>
</g>
</g>
<!-- Node1&#45;&gt;Node2 -->
<g id="edge1" class="edge">
<title>Node1&#45;&gt;Node2</title>
<path fill="none" stroke="midnightblue" d="M608.42,-237.58C508.3,-234.96 266.87,-225.18 57.11,-187.98"/>
<polygon fill="midnightblue" stroke="midnightblue" points="57.61,-184.52 47.15,-186.19 56.37,-191.41 57.61,-184.52"/>
</g>
<!-- Node3 -->
<g id="node3" class="node">
<title>Node3</title>
<g id="a_node3"><a xlink:href="stdio_8h.html" target="_top" xlink:title=" ">
<polygon fill="white" stroke="black" points="443,-168.5 443,-187.5 488,-187.5 488,-168.5 443,-168.5"/>
<text text-anchor="middle" x="465.5" y="-175.5" font-family="Helvetica,sans-Serif" font-size="10.00">stdio.h</text>
</a>
</g>
</g>
<!-- Node1&#45;&gt;Node3 -->
<g id="edge2" class="edge">
<title>Node1&#45;&gt;Node3</title>
<path fill="none" stroke="midnightblue" d="M610.47,-224.4C575.87,-213.56 528.89,-198.85 497.92,-189.15"/>
<polygon fill="midnightblue" stroke="midnightblue" points="498.65,-185.71 488.06,-186.07 496.56,-192.39 498.65,-185.71"/>
</g>
<!-- Node9 -->
<g id="node9" class="node">
<title>Node9</title>
<g id="a_node9"><a xlink:href="intrman_8h.html" target="_top" xlink:title=" ">
<polygon fill="white" stroke="black" points="215.5,-168.5 215.5,-187.5 271.5,-187.5 271.5,-168.5 215.5,-168.5"/>
<text text-anchor="middle" x="243.5" y="-175.5" font-family="Helvetica,sans-Serif" font-size="10.00">intrman.h</text>
</a>
</g>
</g>
<!-- Node1&#45;&gt;Node9 -->
<g id="edge8" class="edge">
<title>Node1&#45;&gt;Node9</title>
<path fill="none" stroke="midnightblue" d="M608.48,-233.77C539.07,-226.43 404.98,-210.92 281.71,-188.06"/>
<polygon fill="midnightblue" stroke="midnightblue" points="282.19,-184.59 271.72,-186.19 280.9,-191.47 282.19,-184.59"/>
</g>
<!-- Node10 -->
<g id="node10" class="node">
<title>Node10</title>
<g id="a_node10"><a xlink:href="loadcore_8h.html" target="_top" xlink:title=" ">
<polygon fill="white" stroke="black" points="65,-168.5 65,-187.5 126,-187.5 126,-168.5 65,-168.5"/>
<text text-anchor="middle" x="95.5" y="-175.5" font-family="Helvetica,sans-Serif" font-size="10.00">loadcore.h</text>
</a>
</g>
</g>
<!-- Node1&#45;&gt;Node10 -->
<g id="edge11" class="edge">
<title>Node1&#45;&gt;Node10</title>
<path fill="none" stroke="midnightblue" d="M608.18,-235.98C518.02,-230.74 315.32,-216.79 135.96,-188.05"/>
<polygon fill="midnightblue" stroke="midnightblue" points="136.51,-184.6 126.08,-186.45 135.39,-191.51 136.51,-184.6"/>
</g>
<!-- Node11 -->
<g id="node11" class="node">
<title>Node11</title>
<g id="a_node11"><a xlink:href="thbase_8h.html" target="_top" xlink:title=" ">
<polygon fill="white" stroke="black" points="144,-168.5 144,-187.5 197,-187.5 197,-168.5 144,-168.5"/>
<text text-anchor="middle" x="170.5" y="-175.5" font-family="Helvetica,sans-Serif" font-size="10.00">thbase.h</text>
</a>
</g>
</g>
<!-- Node1&#45;&gt;Node11 -->
<g id="edge14" class="edge">
<title>Node1&#45;&gt;Node11</title>
<path fill="none" stroke="midnightblue" d="M608.34,-235.27C527.98,-229.32 359.27,-214.86 207.15,-187.88"/>
<polygon fill="midnightblue" stroke="midnightblue" points="207.61,-184.41 197.15,-186.08 206.37,-191.29 207.61,-184.41"/>
</g>
<!-- Node12 -->
<g id="node12" class="node">
<title>Node12</title>
<g id="a_node12"><a xlink:href="sysclib_8h.html" target="_top" xlink:title=" ">
<polygon fill="white" stroke="black" points="506.5,-168.5 506.5,-187.5 560.5,-187.5 560.5,-168.5 506.5,-168.5"/>
<text text-anchor="middle" x="533.5" y="-175.5" font-family="Helvetica,sans-Serif" font-size="10.00">sysclib.h</text>
</a>
</g>
</g>
<!-- Node1&#45;&gt;Node12 -->
<g id="edge17" class="edge">
<title>Node1&#45;&gt;Node12</title>
<path fill="none" stroke="midnightblue" d="M626.59,-224.4C606.48,-214.59 579.88,-201.62 560.26,-192.05"/>
<polygon fill="midnightblue" stroke="midnightblue" points="561.77,-188.9 551.25,-187.66 558.71,-195.19 561.77,-188.9"/>
</g>
<!-- Node14 -->
<g id="node14" class="node">
<title>Node14</title>
<g id="a_node14"><a xlink:href="thevent_8h.html" target="_top" xlink:title=" ">
<polygon fill="white" stroke="black" points="289.5,-168.5 289.5,-187.5 345.5,-187.5 345.5,-168.5 289.5,-168.5"/>
<text text-anchor="middle" x="317.5" y="-175.5" font-family="Helvetica,sans-Serif" font-size="10.00">thevent.h</text>
</a>
</g>
</g>
<!-- Node1&#45;&gt;Node14 -->
<g id="edge23" class="edge">
<title>Node1&#45;&gt;Node14</title>
<path fill="none" stroke="midnightblue" d="M608.3,-231.54C549.05,-222.57 444.41,-205.99 355.5,-188 355.4,-187.98 355.3,-187.96 355.2,-187.94"/>
<polygon fill="midnightblue" stroke="midnightblue" points="356.19,-184.57 345.68,-185.89 354.72,-191.42 356.19,-184.57"/>
</g>
<!-- Node15 -->
<g id="node15" class="node">
<title>Node15</title>
<g id="a_node15"><a xlink:href="sysmem_8h.html" target="_top" xlink:title=" ">
<polygon fill="white" stroke="black" points="364,-168.5 364,-187.5 425,-187.5 425,-168.5 364,-168.5"/>
<text text-anchor="middle" x="394.5" y="-175.5" font-family="Helvetica,sans-Serif" font-size="10.00">sysmem.h</text>
</a>
</g>
</g>
<!-- Node1&#45;&gt;Node15 -->
<g id="edge26" class="edge">
<title>Node1&#45;&gt;Node15</title>
<path fill="none" stroke="midnightblue" d="M608.23,-227.72C558.69,-216.43 481.68,-198.87 434.88,-188.21"/>
<polygon fill="midnightblue" stroke="midnightblue" points="435.62,-184.78 425.09,-185.97 434.06,-191.61 435.62,-184.78"/>
</g>
<!-- Node16 -->
<g id="node16" class="node">
<title>Node16</title>
<g id="a_node16"><a xlink:title=" ">
<polygon fill="white" stroke="#bfbfbf" points="579,-168.5 579,-187.5 650,-187.5 650,-168.5 579,-168.5"/>
<text text-anchor="middle" x="614.5" y="-175.5" font-family="Helvetica,sans-Serif" font-size="10.00">lwip/memp.h</text>
</a>
</g>
</g>
<!-- Node1&#45;&gt;Node16 -->
<g id="edge30" class="edge">
<title>Node1&#45;&gt;Node16</title>
<path fill="none" stroke="midnightblue" d="M645.78,-224.4C639.95,-215.93 632.48,-205.1 626.31,-196.14"/>
<polygon fill="midnightblue" stroke="midnightblue" points="629.02,-193.91 620.47,-187.66 623.26,-197.88 629.02,-193.91"/>
</g>
<!-- Node17 -->
<g id="node17" class="node">
<title>Node17</title>
<g id="a_node17"><a xlink:title=" ">
<polygon fill="white" stroke="#bfbfbf" points="668,-168.5 668,-187.5 727,-187.5 727,-168.5 668,-168.5"/>
<text text-anchor="middle" x="697.5" y="-175.5" font-family="Helvetica,sans-Serif" font-size="10.00">lwip/sys.h</text>
</a>
</g>
</g>
<!-- Node1&#45;&gt;Node17 -->
<g id="edge31" class="edge">
<title>Node1&#45;&gt;Node17</title>
<path fill="none" stroke="midnightblue" d="M665.45,-224.4C671.49,-215.84 679.24,-204.87 685.6,-195.86"/>
<polygon fill="midnightblue" stroke="midnightblue" points="688.48,-197.85 691.39,-187.66 682.76,-193.81 688.48,-197.85"/>
</g>
<!-- Node18 -->
<g id="node18" class="node">
<title>Node18</title>
<g id="a_node18"><a xlink:title=" ">
<polygon fill="white" stroke="#bfbfbf" points="745.5,-168.5 745.5,-187.5 803.5,-187.5 803.5,-168.5 745.5,-168.5"/>
<text text-anchor="middle" x="774.5" y="-175.5" font-family="Helvetica,sans-Serif" font-size="10.00">lwip/tcp.h</text>
</a>
</g>
</g>
<!-- Node1&#45;&gt;Node18 -->
<g id="edge32" class="edge">
<title>Node1&#45;&gt;Node18</title>
<path fill="none" stroke="midnightblue" d="M683.7,-224.4C703.22,-214.64 729.03,-201.74 748.13,-192.18"/>
<polygon fill="midnightblue" stroke="midnightblue" points="749.81,-195.26 757.18,-187.66 746.67,-189 749.81,-195.26"/>
</g>
<!-- Node19 -->
<g id="node19" class="node">
<title>Node19</title>
<g id="a_node19"><a xlink:title=" ">
<polygon fill="white" stroke="#bfbfbf" points="822,-168.5 822,-187.5 887,-187.5 887,-168.5 822,-168.5"/>
<text text-anchor="middle" x="854.5" y="-175.5" font-family="Helvetica,sans-Serif" font-size="10.00">lwip/tcpip.h</text>
</a>
</g>
</g>
<!-- Node1&#45;&gt;Node19 -->
<g id="edge33" class="edge">
<title>Node1&#45;&gt;Node19</title>
<path fill="none" stroke="midnightblue" d="M702.41,-224.47C737.19,-214.08 784,-200.08 816.47,-190.37"/>
<polygon fill="midnightblue" stroke="midnightblue" points="817.47,-193.72 826.05,-187.51 815.47,-187.02 817.47,-193.72"/>
</g>
<!-- Node20 -->
<g id="node20" class="node">
<title>Node20</title>
<g id="a_node20"><a xlink:title=" ">
<polygon fill="white" stroke="#bfbfbf" points="905,-168.5 905,-187.5 990,-187.5 990,-168.5 905,-168.5"/>
<text text-anchor="middle" x="947.5" y="-175.5" font-family="Helvetica,sans-Serif" font-size="10.00">lwip/prot/dhcp.h</text>
</a>
</g>
</g>
<!-- Node1&#45;&gt;Node20 -->
<g id="edge34" class="edge">
<title>Node1&#45;&gt;Node20</title>
<path fill="none" stroke="midnightblue" d="M702.74,-228.87C755.62,-218.1 841.04,-200.69 895.7,-189.55"/>
<polygon fill="midnightblue" stroke="midnightblue" points="896.44,-192.98 905.54,-187.55 895.04,-186.12 896.44,-192.98"/>
</g>
<!-- Node21 -->
<g id="node21" class="node">
<title>Node21</title>
<g id="a_node21"><a xlink:title=" ">
<polygon fill="white" stroke="#bfbfbf" points="1008,-168.5 1008,-187.5 1071,-187.5 1071,-168.5 1008,-168.5"/>
<text text-anchor="middle" x="1039.5" y="-175.5" font-family="Helvetica,sans-Serif" font-size="10.00">lwip/netif.h</text>
</a>
</g>
</g>
<!-- Node1&#45;&gt;Node21 -->
<g id="edge35" class="edge">
<title>Node1&#45;&gt;Node21</title>
<path fill="none" stroke="midnightblue" d="M702.7,-232.72C767.22,-224.56 886.74,-208.56 997.65,-188.24"/>
<polygon fill="midnightblue" stroke="midnightblue" points="998.47,-191.65 1007.67,-186.39 997.2,-184.77 998.47,-191.65"/>
</g>
<!-- Node22 -->
<g id="node22" class="node">
<title>Node22</title>
<g id="a_node22"><a xlink:title=" ">
<polygon fill="white" stroke="#bfbfbf" points="1089,-168.5 1089,-187.5 1154,-187.5 1154,-168.5 1089,-168.5"/>
<text text-anchor="middle" x="1121.5" y="-175.5" font-family="Helvetica,sans-Serif" font-size="10.00">lwip/dhcp.h</text>
</a>
</g>
</g>
<!-- Node1&#45;&gt;Node22 -->
<g id="edge36" class="edge">
<title>Node1&#45;&gt;Node22</title>
<path fill="none" stroke="midnightblue" d="M702.57,-234.42C779.34,-227.45 936.45,-211.78 1078.67,-188.18"/>
<polygon fill="midnightblue" stroke="midnightblue" points="1079.6,-191.57 1088.88,-186.46 1078.44,-184.66 1079.6,-191.57"/>
</g>
<!-- Node23 -->
<g id="node23" class="node">
<title>Node23</title>
<g id="a_node23"><a xlink:title=" ">
<polygon fill="white" stroke="#bfbfbf" points="1172.5,-168.5 1172.5,-187.5 1232.5,-187.5 1232.5,-168.5 1172.5,-168.5"/>
<text text-anchor="middle" x="1202.5" y="-175.5" font-family="Helvetica,sans-Serif" font-size="10.00">lwip/inet.h</text>
</a>
</g>
</g>
<!-- Node1&#45;&gt;Node23 -->
<g id="edge37" class="edge">
<title>Node1&#45;&gt;Node23</title>
<path fill="none" stroke="midnightblue" d="M702.69,-235.83C791.07,-230.39 987.68,-216.22 1162.45,-187.98"/>
<polygon fill="midnightblue" stroke="midnightblue" points="1163.04,-191.43 1172.34,-186.36 1161.91,-184.52 1163.04,-191.43"/>
</g>
<!-- Node24 -->
<g id="node24" class="node">
<title>Node24</title>
<g id="a_node24"><a xlink:title=" ">
<polygon fill="white" stroke="#bfbfbf" points="1251,-168.5 1251,-187.5 1324,-187.5 1324,-168.5 1251,-168.5"/>
<text text-anchor="middle" x="1287.5" y="-175.5" font-family="Helvetica,sans-Serif" font-size="10.00">netif/etharp.h</text>
</a>
</g>
</g>
<!-- Node1&#45;&gt;Node24 -->
<g id="edge38" class="edge">
<title>Node1&#45;&gt;Node24</title>
<path fill="none" stroke="midnightblue" d="M702.79,-236.15C801.05,-230.89 1034.61,-216.46 1240.79,-187.94"/>
<polygon fill="midnightblue" stroke="midnightblue" points="1241.48,-191.38 1250.9,-186.53 1240.51,-184.45 1241.48,-191.38"/>
</g>
<!-- Node25 -->
<g id="node25" class="node">
<title>Node25</title>
<g id="a_node25"><a xlink:title=" ">
<polygon fill="white" stroke="#bfbfbf" points="1342.5,-168.5 1342.5,-187.5 1426.5,-187.5 1426.5,-168.5 1342.5,-168.5"/>
<text text-anchor="middle" x="1384.5" y="-175.5" font-family="Helvetica,sans-Serif" font-size="10.00">ps2ip_internal.h</text>
</a>
</g>
</g>
<!-- Node1&#45;&gt;Node25 -->
<g id="edge39" class="edge">
<title>Node1&#45;&gt;Node25</title>
<path fill="none" stroke="midnightblue" d="M702.51,-236.62C811.46,-231.93 1089.75,-217.93 1332.19,-188.04"/>
<polygon fill="midnightblue" stroke="midnightblue" points="1332.76,-191.5 1342.25,-186.79 1331.89,-184.55 1332.76,-191.5"/>
</g>
<!-- Node4 -->
<g id="node4" class="node">
<title>Node4</title>
<g id="a_node4"><a xlink:title=" ">
<polygon fill="white" stroke="#bfbfbf" points="416,-112.5 416,-131.5 467,-131.5 467,-112.5 416,-112.5"/>
<text text-anchor="middle" x="441.5" y="-119.5" font-family="Helvetica,sans-Serif" font-size="10.00">stdarg.h</text>
</a>
</g>
</g>
<!-- Node3&#45;&gt;Node4 -->
<g id="edge3" class="edge">
<title>Node3&#45;&gt;Node4</title>
<path fill="none" stroke="midnightblue" d="M461.54,-168.08C458.29,-160.77 453.58,-150.18 449.55,-141.1"/>
<polygon fill="midnightblue" stroke="midnightblue" points="452.65,-139.47 445.39,-131.75 446.25,-142.31 452.65,-139.47"/>
</g>
<!-- Node5 -->
<g id="node5" class="node">
<title>Node5</title>
<g id="a_node5"><a xlink:href="irx_8h.html" target="_top" xlink:title=" ">
<polygon fill="white" stroke="black" points="313.5,-112.5 313.5,-131.5 347.5,-131.5 347.5,-112.5 313.5,-112.5"/>
<text text-anchor="middle" x="330.5" y="-119.5" font-family="Helvetica,sans-Serif" font-size="10.00">irx.h</text>
</a>
</g>
</g>
<!-- Node3&#45;&gt;Node5 -->
<g id="edge4" class="edge">
<title>Node3&#45;&gt;Node5</title>
<path fill="none" stroke="midnightblue" d="M444.11,-168.44C420.48,-158.99 382.41,-143.76 356.93,-133.57"/>
<polygon fill="midnightblue" stroke="midnightblue" points="358.1,-130.27 347.52,-129.81 355.5,-136.77 358.1,-130.27"/>
</g>
<!-- Node6 -->
<g id="node6" class="node">
<title>Node6</title>
<g id="a_node6"><a xlink:href="types_8h_source.html" target="_top" xlink:title=" ">
<polygon fill="white" stroke="black" points="284,-56.5 284,-75.5 331,-75.5 331,-56.5 284,-56.5"/>
<text text-anchor="middle" x="307.5" y="-63.5" font-family="Helvetica,sans-Serif" font-size="10.00">types.h</text>
</a>
</g>
</g>
<!-- Node5&#45;&gt;Node6 -->
<g id="edge5" class="edge">
<title>Node5&#45;&gt;Node6</title>
<path fill="none" stroke="midnightblue" d="M326.7,-112.08C323.59,-104.77 319.08,-94.18 315.21,-85.1"/>
<polygon fill="midnightblue" stroke="midnightblue" points="318.37,-83.58 311.23,-75.75 311.93,-86.32 318.37,-83.58"/>
</g>
<!-- Node7 -->
<g id="node7" class="node">
<title>Node7</title>
<g id="a_node7"><a xlink:title=" ">
<polygon fill="white" stroke="#bfbfbf" points="282,-0.5 282,-19.5 333,-19.5 333,-0.5 282,-0.5"/>
<text text-anchor="middle" x="307.5" y="-7.5" font-family="Helvetica,sans-Serif" font-size="10.00">stddef.h</text>
</a>
</g>
</g>
<!-- Node6&#45;&gt;Node7 -->
<g id="edge6" class="edge">
<title>Node6&#45;&gt;Node7</title>
<path fill="none" stroke="midnightblue" d="M307.5,-56.08C307.5,-49.01 307.5,-38.86 307.5,-29.99"/>
<polygon fill="midnightblue" stroke="midnightblue" points="311,-29.75 307.5,-19.75 304,-29.75 311,-29.75"/>
</g>
<!-- Node8 -->
<g id="node8" class="node">
<title>Node8</title>
<g id="a_node8"><a xlink:href="tamtypes_8h.html" target="_top" xlink:title=" ">
<polygon fill="white" stroke="black" points="431.5,-0.5 431.5,-19.5 495.5,-19.5 495.5,-0.5 431.5,-0.5"/>
<text text-anchor="middle" x="463.5" y="-7.5" font-family="Helvetica,sans-Serif" font-size="10.00">tamtypes.h</text>
</a>
</g>
</g>
<!-- Node6&#45;&gt;Node8 -->
<g id="edge7" class="edge">
<title>Node6&#45;&gt;Node8</title>
<path fill="none" stroke="midnightblue" d="M331.19,-56.8C357.31,-47.76 399.54,-33.14 429.25,-22.85"/>
<polygon fill="midnightblue" stroke="midnightblue" points="430.5,-26.13 438.81,-19.55 428.21,-19.51 430.5,-26.13"/>
</g>
<!-- Node9&#45;&gt;Node5 -->
<g id="edge10" class="edge">
<title>Node9&#45;&gt;Node5</title>
<path fill="none" stroke="midnightblue" d="M257.48,-168.32C271.05,-159.9 291.88,-146.97 307.82,-137.07"/>
<polygon fill="midnightblue" stroke="midnightblue" points="309.91,-139.9 316.56,-131.65 306.21,-133.95 309.91,-139.9"/>
</g>
<!-- Node9&#45;&gt;Node6 -->
<g id="edge9" class="edge">
<title>Node9&#45;&gt;Node6</title>
<path fill="none" stroke="midnightblue" d="M248.52,-168.37C259.04,-150.3 283.54,-108.18 297.43,-84.31"/>
<polygon fill="midnightblue" stroke="midnightblue" points="300.5,-86 302.5,-75.59 294.45,-82.47 300.5,-86"/>
</g>
<!-- Node10&#45;&gt;Node5 -->
<g id="edge13" class="edge">
<title>Node10&#45;&gt;Node5</title>
<path fill="none" stroke="midnightblue" d="M126.16,-169.92C128.98,-169.27 131.79,-168.62 134.5,-168 194.73,-154.14 265.38,-137.93 303.25,-129.25"/>
<polygon fill="midnightblue" stroke="midnightblue" points="304.49,-132.55 313.46,-126.91 302.93,-125.73 304.49,-132.55"/>
</g>
<!-- Node10&#45;&gt;Node6 -->
<g id="edge12" class="edge">
<title>Node10&#45;&gt;Node6</title>
<path fill="none" stroke="midnightblue" d="M112.14,-168.37C149.06,-149.21 238.05,-103.04 282.03,-80.22"/>
<polygon fill="midnightblue" stroke="midnightblue" points="283.68,-83.3 290.94,-75.59 280.45,-77.09 283.68,-83.3"/>
</g>
<!-- Node11&#45;&gt;Node5 -->
<g id="edge16" class="edge">
<title>Node11&#45;&gt;Node5</title>
<path fill="none" stroke="midnightblue" d="M195.85,-168.44C225.17,-158.55 273.26,-142.32 303.33,-132.17"/>
<polygon fill="midnightblue" stroke="midnightblue" points="304.8,-135.37 313.16,-128.85 302.56,-128.74 304.8,-135.37"/>
</g>
<!-- Node11&#45;&gt;Node6 -->
<g id="edge15" class="edge">
<title>Node11&#45;&gt;Node6</title>
<path fill="none" stroke="midnightblue" d="M181.25,-168.37C204.46,-149.73 259.51,-105.53 288.65,-82.13"/>
<polygon fill="midnightblue" stroke="midnightblue" points="291.19,-84.58 296.8,-75.59 286.81,-79.12 291.19,-84.58"/>
</g>
<!-- Node12&#45;&gt;Node4 -->
<g id="edge20" class="edge">
<title>Node12&#45;&gt;Node4</title>
<path fill="none" stroke="midnightblue" d="M518.72,-168.32C504.23,-159.82 481.93,-146.73 465.01,-136.8"/>
<polygon fill="midnightblue" stroke="midnightblue" points="466.64,-133.7 456.24,-131.65 463.1,-139.74 466.64,-133.7"/>
</g>
<!-- Node12&#45;&gt;Node5 -->
<g id="edge19" class="edge">
<title>Node12&#45;&gt;Node5</title>
<path fill="none" stroke="midnightblue" d="M506.12,-169.72C467.25,-159.38 396.47,-140.55 357.69,-130.23"/>
<polygon fill="midnightblue" stroke="midnightblue" points="358.22,-126.75 347.66,-127.56 356.42,-133.52 358.22,-126.75"/>
</g>
<!-- Node12&#45;&gt;Node6 -->
<g id="edge18" class="edge">
<title>Node12&#45;&gt;Node6</title>
<path fill="none" stroke="midnightblue" d="M528.37,-168.38C519.56,-154.37 500.22,-126.72 476.5,-112 434.24,-85.77 376.86,-74.68 341.01,-70.1"/>
<polygon fill="midnightblue" stroke="midnightblue" points="341.4,-66.62 331.06,-68.92 340.58,-73.57 341.4,-66.62"/>
</g>
<!-- Node13 -->
<g id="node13" class="node">
<title>Node13</title>
<g id="a_node13"><a xlink:href="setjmp_8h.html" target="_top" xlink:title=" ">
<polygon fill="white" stroke="black" points="472,-56.5 472,-75.5 525,-75.5 525,-56.5 472,-56.5"/>
<text text-anchor="middle" x="498.5" y="-63.5" font-family="Helvetica,sans-Serif" font-size="10.00">setjmp.h</text>
</a>
</g>
</g>
<!-- Node12&#45;&gt;Node13 -->
<g id="edge21" class="edge">
<title>Node12&#45;&gt;Node13</title>
<path fill="none" stroke="midnightblue" d="M530.75,-168.37C525.08,-150.54 511.96,-109.3 504.31,-85.27"/>
<polygon fill="midnightblue" stroke="midnightblue" points="507.6,-84.06 501.23,-75.59 500.93,-86.18 507.6,-84.06"/>
</g>
<!-- Node13&#45;&gt;Node8 -->
<g id="edge22" class="edge">
<title>Node13&#45;&gt;Node8</title>
<path fill="none" stroke="midnightblue" d="M492.72,-56.08C487.83,-48.53 480.67,-37.49 474.67,-28.23"/>
<polygon fill="midnightblue" stroke="midnightblue" points="477.55,-26.24 469.17,-19.75 471.67,-30.05 477.55,-26.24"/>
</g>
<!-- Node14&#45;&gt;Node5 -->
<g id="edge25" class="edge">
<title>Node14&#45;&gt;Node5</title>
<path fill="none" stroke="midnightblue" d="M319.65,-168.08C321.37,-160.93 323.85,-150.64 326,-141.69"/>
<polygon fill="midnightblue" stroke="midnightblue" points="329.46,-142.29 328.39,-131.75 322.65,-140.65 329.46,-142.29"/>
</g>
<!-- Node14&#45;&gt;Node6 -->
<g id="edge24" class="edge">
<title>Node14&#45;&gt;Node6</title>
<path fill="none" stroke="midnightblue" d="M314.16,-168.2C310.95,-159.24 306.32,-144.88 304.5,-132 302.32,-116.6 303.35,-98.97 304.77,-85.95"/>
<polygon fill="midnightblue" stroke="midnightblue" points="308.26,-86.24 306.05,-75.88 301.32,-85.36 308.26,-86.24"/>
</g>
<!-- Node15&#45;&gt;Node4 -->
<g id="edge29" class="edge">
<title>Node15&#45;&gt;Node4</title>
<path fill="none" stroke="midnightblue" d="M402.26,-168.08C409.04,-160.3 419.04,-148.8 427.26,-139.37"/>
<polygon fill="midnightblue" stroke="midnightblue" points="429.96,-141.59 433.88,-131.75 424.68,-137 429.96,-141.59"/>
</g>
<!-- Node15&#45;&gt;Node5 -->
<g id="edge28" class="edge">
<title>Node15&#45;&gt;Node5</title>
<path fill="none" stroke="midnightblue" d="M384.22,-168.32C374.66,-160.26 360.22,-148.08 348.72,-138.37"/>
<polygon fill="midnightblue" stroke="midnightblue" points="350.87,-135.61 340.97,-131.83 346.36,-140.96 350.87,-135.61"/>
</g>
<!-- Node15&#45;&gt;Node6 -->
<g id="edge27" class="edge">
<title>Node15&#45;&gt;Node6</title>
<path fill="none" stroke="midnightblue" d="M390.55,-168.49C384.34,-155.56 371.43,-130.52 356.5,-112 347.75,-101.15 336.37,-90.53 326.77,-82.34"/>
<polygon fill="midnightblue" stroke="midnightblue" points="328.84,-79.51 318.91,-75.81 324.37,-84.89 328.84,-79.51"/>
</g>
</g>
</svg>
