<?xml version="1.0" encoding="UTF-8" standalone="no"?>
<!DOCTYPE svg PUBLIC "-//W3C//DTD SVG 1.1//EN"
 "http://www.w3.org/Graphics/SVG/1.1/DTD/svg11.dtd">
<!-- Generated by graphviz version 2.46.1 (20210215.1649)
 -->
<!-- Title: iop/tcpip/tcpip&#45;netman/src/ps2ip.c Pages: 1 -->
<svg width="1473pt" height="263pt"
 viewBox="0.00 0.00 1472.50 263.00" xmlns="http://www.w3.org/2000/svg" xmlns:xlink="http://www.w3.org/1999/xlink">
<g id="graph0" class="graph" transform="scale(1 1) rotate(0) translate(4 259)">
<title>iop/tcpip/tcpip&#45;netman/src/ps2ip.c</title>
<polygon fill="white" stroke="transparent" points="-4,4 -4,-259 1468.5,-259 1468.5,4 -4,4"/>
<!-- Node1 -->
<g id="node1" class="node">
<title>Node1</title>
<g id="a_node1"><a xlink:title=" ">
<polygon fill="#bfbfbf" stroke="black" points="596,-224.5 596,-254.5 709,-254.5 709,-224.5 596,-224.5"/>
<text text-anchor="start" x="604" y="-242.5" font-family="Helvetica,sans-Serif" font-size="10.00">iop/tcpip/tcpip&#45;netman</text>
<text text-anchor="middle" x="652.5" y="-231.5" font-family="Helvetica,sans-Serif" font-size="10.00">/src/ps2ip.c</text>
</a>
</g>
</g>
<!-- Node2 -->
<g id="node2" class="node">
<title>Node2</title>
<g id="a_node2"><a xlink:title=" ">
<polygon fill="white" stroke="#bfbfbf" points="0,-168.5 0,-187.5 47,-187.5 47,-168.5 0,-168.5"/>
<text text-anchor="middle" x="23.5" y="-175.5" font-family="Helvetica,sans-Serif" font-size="10.00">types.h</text>
</a>
</g>
</g>
<!-- Node1&#45;&gt;Node2 -->
<g id="edge1" class="edge">
<title>Node1&#45;&gt;Node2</title>
<path fill="none" stroke="midnightblue" d="M595.65,-237.27C490.67,-234.23 259.36,-223.91 57.06,-187.98"/>
<polygon fill="midnightblue" stroke="midnightblue" points="57.61,-184.52 47.15,-186.19 56.37,-191.41 57.61,-184.52"/>
</g>
<!-- Node3 -->
<g id="node3" class="node">
<title>Node3</title>
<g id="a_node3"><a xlink:href="stdio_8h.html" target="_top" xlink:title=" ">
<polygon fill="white" stroke="black" points="364,-168.5 364,-187.5 409,-187.5 409,-168.5 364,-168.5"/>
<text text-anchor="middle" x="386.5" y="-175.5" font-family="Helvetica,sans-Serif" font-size="10.00">stdio.h</text>
</a>
</g>
</g>
<!-- Node1&#45;&gt;Node3 -->
<g id="edge2" class="edge">
<title>Node1&#45;&gt;Node3</title>
<path fill="none" stroke="midnightblue" d="M595.53,-227.23C550.24,-218.03 485.06,-204.28 418.94,-187.99"/>
<polygon fill="midnightblue" stroke="midnightblue" points="419.73,-184.58 409.18,-185.56 418.04,-191.37 419.73,-184.58"/>
</g>
<!-- Node9 -->
<g id="node9" class="node">
<title>Node9</title>
<g id="a_node9"><a xlink:href="intrman_8h.html" target="_top" xlink:title=" ">
<polygon fill="white" stroke="black" points="136.5,-168.5 136.5,-187.5 192.5,-187.5 192.5,-168.5 136.5,-168.5"/>
<text text-anchor="middle" x="164.5" y="-175.5" font-family="Helvetica,sans-Serif" font-size="10.00">intrman.h</text>
</a>
</g>
</g>
<!-- Node1&#45;&gt;Node9 -->
<g id="edge8" class="edge">
<title>Node1&#45;&gt;Node9</title>
<path fill="none" stroke="midnightblue" d="M595.92,-234.49C512.08,-228.03 349.81,-213.57 202.81,-188.03"/>
<polygon fill="midnightblue" stroke="midnightblue" points="203.16,-184.54 192.7,-186.25 201.95,-191.43 203.16,-184.54"/>
</g>
<!-- Node10 -->
<g id="node10" class="node">
<title>Node10</title>
<g id="a_node10"><a xlink:href="netman_8h.html" target="_top" xlink:title=" ">
<polygon fill="white" stroke="black" points="560.5,-56.5 560.5,-75.5 616.5,-75.5 616.5,-56.5 560.5,-56.5"/>
<text text-anchor="middle" x="588.5" y="-63.5" font-family="Helvetica,sans-Serif" font-size="10.00">netman.h</text>
</a>
</g>
</g>
<!-- Node1&#45;&gt;Node10 -->
<g id="edge11" class="edge">
<title>Node1&#45;&gt;Node10</title>
<path fill="none" stroke="midnightblue" d="M636.14,-224.21C626.54,-214.88 615.04,-201.89 608.5,-188 592.68,-154.41 589.13,-110.44 588.48,-85.81"/>
<polygon fill="midnightblue" stroke="midnightblue" points="591.98,-85.64 588.35,-75.69 584.98,-85.73 591.98,-85.64"/>
</g>
<!-- Node11 -->
<g id="node11" class="node">
<title>Node11</title>
<g id="a_node11"><a xlink:href="loadcore_8h.html" target="_top" xlink:title=" ">
<polygon fill="white" stroke="black" points="285,-168.5 285,-187.5 346,-187.5 346,-168.5 285,-168.5"/>
<text text-anchor="middle" x="315.5" y="-175.5" font-family="Helvetica,sans-Serif" font-size="10.00">loadcore.h</text>
</a>
</g>
</g>
<!-- Node1&#45;&gt;Node11 -->
<g id="edge13" class="edge">
<title>Node1&#45;&gt;Node11</title>
<path fill="none" stroke="midnightblue" d="M595.95,-229.8C538.24,-220.71 445.86,-205.6 356.12,-188.03"/>
<polygon fill="midnightblue" stroke="midnightblue" points="356.53,-184.55 346.04,-186.05 355.17,-191.41 356.53,-184.55"/>
</g>
<!-- Node12 -->
<g id="node12" class="node">
<title>Node12</title>
<g id="a_node12"><a xlink:href="thbase_8h.html" target="_top" xlink:title=" ">
<polygon fill="white" stroke="black" points="65,-168.5 65,-187.5 118,-187.5 118,-168.5 65,-168.5"/>
<text text-anchor="middle" x="91.5" y="-175.5" font-family="Helvetica,sans-Serif" font-size="10.00">thbase.h</text>
</a>
</g>
</g>
<!-- Node1&#45;&gt;Node12 -->
<g id="edge16" class="edge">
<title>Node1&#45;&gt;Node12</title>
<path fill="none" stroke="midnightblue" d="M595.81,-235.82C500.93,-230.73 303.96,-217.58 128.09,-187.84"/>
<polygon fill="midnightblue" stroke="midnightblue" points="128.59,-184.37 118.14,-186.13 127.41,-191.27 128.59,-184.37"/>
</g>
<!-- Node13 -->
<g id="node13" class="node">
<title>Node13</title>
<g id="a_node13"><a xlink:href="sysclib_8h.html" target="_top" xlink:title=" ">
<polygon fill="white" stroke="black" points="506.5,-168.5 506.5,-187.5 560.5,-187.5 560.5,-168.5 506.5,-168.5"/>
<text text-anchor="middle" x="533.5" y="-175.5" font-family="Helvetica,sans-Serif" font-size="10.00">sysclib.h</text>
</a>
</g>
</g>
<!-- Node1&#45;&gt;Node13 -->
<g id="edge19" class="edge">
<title>Node1&#45;&gt;Node13</title>
<path fill="none" stroke="midnightblue" d="M624.3,-224.4C604.78,-214.64 578.97,-201.74 559.87,-192.18"/>
<polygon fill="midnightblue" stroke="midnightblue" points="561.33,-189 550.82,-187.66 558.19,-195.26 561.33,-189"/>
</g>
<!-- Node15 -->
<g id="node15" class="node">
<title>Node15</title>
<g id="a_node15"><a xlink:href="thevent_8h.html" target="_top" xlink:title=" ">
<polygon fill="white" stroke="black" points="210.5,-168.5 210.5,-187.5 266.5,-187.5 266.5,-168.5 210.5,-168.5"/>
<text text-anchor="middle" x="238.5" y="-175.5" font-family="Helvetica,sans-Serif" font-size="10.00">thevent.h</text>
</a>
</g>
</g>
<!-- Node1&#45;&gt;Node15 -->
<g id="edge25" class="edge">
<title>Node1&#45;&gt;Node15</title>
<path fill="none" stroke="midnightblue" d="M596,-232.81C524.03,-225.15 395.68,-210.09 276.72,-188.06"/>
<polygon fill="midnightblue" stroke="midnightblue" points="277.19,-184.59 266.72,-186.19 275.9,-191.47 277.19,-184.59"/>
</g>
<!-- Node16 -->
<g id="node16" class="node">
<title>Node16</title>
<g id="a_node16"><a xlink:href="sysmem_8h.html" target="_top" xlink:title=" ">
<polygon fill="white" stroke="black" points="427,-168.5 427,-187.5 488,-187.5 488,-168.5 427,-168.5"/>
<text text-anchor="middle" x="457.5" y="-175.5" font-family="Helvetica,sans-Serif" font-size="10.00">sysmem.h</text>
</a>
</g>
</g>
<!-- Node1&#45;&gt;Node16 -->
<g id="edge28" class="edge">
<title>Node1&#45;&gt;Node16</title>
<path fill="none" stroke="midnightblue" d="M606.29,-224.4C572.45,-214.07 527.08,-200.23 495.37,-190.56"/>
<polygon fill="midnightblue" stroke="midnightblue" points="496.18,-187.14 485.59,-187.57 494.13,-193.84 496.18,-187.14"/>
</g>
<!-- Node17 -->
<g id="node17" class="node">
<title>Node17</title>
<g id="a_node17"><a xlink:title=" ">
<polygon fill="white" stroke="#bfbfbf" points="617,-168.5 617,-187.5 688,-187.5 688,-168.5 617,-168.5"/>
<text text-anchor="middle" x="652.5" y="-175.5" font-family="Helvetica,sans-Serif" font-size="10.00">lwip/memp.h</text>
</a>
</g>
</g>
<!-- Node1&#45;&gt;Node17 -->
<g id="edge32" class="edge">
<title>Node1&#45;&gt;Node17</title>
<path fill="none" stroke="midnightblue" d="M652.5,-224.4C652.5,-216.47 652.5,-206.46 652.5,-197.86"/>
<polygon fill="midnightblue" stroke="midnightblue" points="656,-197.66 652.5,-187.66 649,-197.66 656,-197.66"/>
</g>
<!-- Node18 -->
<g id="node18" class="node">
<title>Node18</title>
<g id="a_node18"><a xlink:title=" ">
<polygon fill="white" stroke="#bfbfbf" points="706,-168.5 706,-187.5 765,-187.5 765,-168.5 706,-168.5"/>
<text text-anchor="middle" x="735.5" y="-175.5" font-family="Helvetica,sans-Serif" font-size="10.00">lwip/sys.h</text>
</a>
</g>
</g>
<!-- Node1&#45;&gt;Node18 -->
<g id="edge33" class="edge">
<title>Node1&#45;&gt;Node18</title>
<path fill="none" stroke="midnightblue" d="M672.17,-224.4C685.1,-215.13 701.99,-203.03 715.07,-193.65"/>
<polygon fill="midnightblue" stroke="midnightblue" points="717.33,-196.33 723.42,-187.66 713.26,-190.64 717.33,-196.33"/>
</g>
<!-- Node19 -->
<g id="node19" class="node">
<title>Node19</title>
<g id="a_node19"><a xlink:title=" ">
<polygon fill="white" stroke="#bfbfbf" points="783.5,-168.5 783.5,-187.5 841.5,-187.5 841.5,-168.5 783.5,-168.5"/>
<text text-anchor="middle" x="812.5" y="-175.5" font-family="Helvetica,sans-Serif" font-size="10.00">lwip/tcp.h</text>
</a>
</g>
</g>
<!-- Node1&#45;&gt;Node19 -->
<g id="edge34" class="edge">
<title>Node1&#45;&gt;Node19</title>
<path fill="none" stroke="midnightblue" d="M690.42,-224.4C717.62,-214.28 753.9,-200.79 779.83,-191.15"/>
<polygon fill="midnightblue" stroke="midnightblue" points="781.07,-194.42 789.22,-187.66 778.63,-187.86 781.07,-194.42"/>
</g>
<!-- Node20 -->
<g id="node20" class="node">
<title>Node20</title>
<g id="a_node20"><a xlink:title=" ">
<polygon fill="white" stroke="#bfbfbf" points="860,-168.5 860,-187.5 925,-187.5 925,-168.5 860,-168.5"/>
<text text-anchor="middle" x="892.5" y="-175.5" font-family="Helvetica,sans-Serif" font-size="10.00">lwip/tcpip.h</text>
</a>
</g>
</g>
<!-- Node1&#45;&gt;Node20 -->
<g id="edge35" class="edge">
<title>Node1&#45;&gt;Node20</title>
<path fill="none" stroke="midnightblue" d="M709.07,-224.47C752.29,-213.76 810.91,-199.23 850.14,-189.5"/>
<polygon fill="midnightblue" stroke="midnightblue" points="851.05,-192.88 859.92,-187.08 849.37,-186.09 851.05,-192.88"/>
</g>
<!-- Node21 -->
<g id="node21" class="node">
<title>Node21</title>
<g id="a_node21"><a xlink:title=" ">
<polygon fill="white" stroke="#bfbfbf" points="943,-168.5 943,-187.5 1028,-187.5 1028,-168.5 943,-168.5"/>
<text text-anchor="middle" x="985.5" y="-175.5" font-family="Helvetica,sans-Serif" font-size="10.00">lwip/prot/dhcp.h</text>
</a>
</g>
</g>
<!-- Node1&#45;&gt;Node21 -->
<g id="edge36" class="edge">
<title>Node1&#45;&gt;Node21</title>
<path fill="none" stroke="midnightblue" d="M709.37,-228.34C771.88,-217.17 871.51,-199.37 932.46,-188.48"/>
<polygon fill="midnightblue" stroke="midnightblue" points="933.41,-191.86 942.63,-186.66 932.17,-184.97 933.41,-191.86"/>
</g>
<!-- Node22 -->
<g id="node22" class="node">
<title>Node22</title>
<g id="a_node22"><a xlink:title=" ">
<polygon fill="white" stroke="#bfbfbf" points="1046,-168.5 1046,-187.5 1109,-187.5 1109,-168.5 1046,-168.5"/>
<text text-anchor="middle" x="1077.5" y="-175.5" font-family="Helvetica,sans-Serif" font-size="10.00">lwip/netif.h</text>
</a>
</g>
</g>
<!-- Node1&#45;&gt;Node22 -->
<g id="edge37" class="edge">
<title>Node1&#45;&gt;Node22</title>
<path fill="none" stroke="midnightblue" d="M709.18,-232.7C782.42,-224.84 914.07,-209.48 1035.46,-188.24"/>
<polygon fill="midnightblue" stroke="midnightblue" points="1036.44,-191.62 1045.68,-186.43 1035.22,-184.73 1036.44,-191.62"/>
</g>
<!-- Node23 -->
<g id="node23" class="node">
<title>Node23</title>
<g id="a_node23"><a xlink:title=" ">
<polygon fill="white" stroke="#bfbfbf" points="1127,-168.5 1127,-187.5 1192,-187.5 1192,-168.5 1127,-168.5"/>
<text text-anchor="middle" x="1159.5" y="-175.5" font-family="Helvetica,sans-Serif" font-size="10.00">lwip/dhcp.h</text>
</a>
</g>
</g>
<!-- Node1&#45;&gt;Node23 -->
<g id="edge38" class="edge">
<title>Node1&#45;&gt;Node23</title>
<path fill="none" stroke="midnightblue" d="M709.08,-234.35C795.14,-227.61 964.27,-212.65 1116.86,-188.12"/>
<polygon fill="midnightblue" stroke="midnightblue" points="1117.58,-191.55 1126.89,-186.49 1116.46,-184.64 1117.58,-191.55"/>
</g>
<!-- Node24 -->
<g id="node24" class="node">
<title>Node24</title>
<g id="a_node24"><a xlink:title=" ">
<polygon fill="white" stroke="#bfbfbf" points="1210.5,-168.5 1210.5,-187.5 1270.5,-187.5 1270.5,-168.5 1210.5,-168.5"/>
<text text-anchor="middle" x="1240.5" y="-175.5" font-family="Helvetica,sans-Serif" font-size="10.00">lwip/inet.h</text>
</a>
</g>
</g>
<!-- Node1&#45;&gt;Node24 -->
<g id="edge39" class="edge">
<title>Node1&#45;&gt;Node24</title>
<path fill="none" stroke="midnightblue" d="M709.32,-235.81C807.58,-230.6 1015.64,-217.14 1200.45,-187.96"/>
<polygon fill="midnightblue" stroke="midnightblue" points="1201.02,-191.42 1210.35,-186.38 1199.92,-184.5 1201.02,-191.42"/>
</g>
<!-- Node25 -->
<g id="node25" class="node">
<title>Node25</title>
<g id="a_node25"><a xlink:title=" ">
<polygon fill="white" stroke="#bfbfbf" points="1289,-168.5 1289,-187.5 1362,-187.5 1362,-168.5 1289,-168.5"/>
<text text-anchor="middle" x="1325.5" y="-175.5" font-family="Helvetica,sans-Serif" font-size="10.00">netif/etharp.h</text>
</a>
</g>
</g>
<!-- Node1&#45;&gt;Node25 -->
<g id="edge40" class="edge">
<title>Node1&#45;&gt;Node25</title>
<path fill="none" stroke="midnightblue" d="M709.36,-236.07C818.04,-230.96 1062.87,-217.2 1278.96,-187.91"/>
<polygon fill="midnightblue" stroke="midnightblue" points="1279.47,-191.37 1288.9,-186.55 1278.52,-184.44 1279.47,-191.37"/>
</g>
<!-- Node26 -->
<g id="node26" class="node">
<title>Node26</title>
<g id="a_node26"><a xlink:title=" ">
<polygon fill="white" stroke="#bfbfbf" points="1380.5,-168.5 1380.5,-187.5 1464.5,-187.5 1464.5,-168.5 1380.5,-168.5"/>
<text text-anchor="middle" x="1422.5" y="-175.5" font-family="Helvetica,sans-Serif" font-size="10.00">ps2ip_internal.h</text>
</a>
</g>
</g>
<!-- Node1&#45;&gt;Node26 -->
<g id="edge41" class="edge">
<title>Node1&#45;&gt;Node26</title>
<path fill="none" stroke="midnightblue" d="M709.09,-236.54C829.1,-231.94 1118.15,-218.57 1370.17,-188.04"/>
<polygon fill="midnightblue" stroke="midnightblue" points="1370.75,-191.49 1380.25,-186.81 1369.9,-184.55 1370.75,-191.49"/>
</g>
<!-- Node4 -->
<g id="node4" class="node">
<title>Node4</title>
<g id="a_node4"><a xlink:title=" ">
<polygon fill="white" stroke="#bfbfbf" points="416,-112.5 416,-131.5 467,-131.5 467,-112.5 416,-112.5"/>
<text text-anchor="middle" x="441.5" y="-119.5" font-family="Helvetica,sans-Serif" font-size="10.00">stdarg.h</text>
</a>
</g>
</g>
<!-- Node3&#45;&gt;Node4 -->
<g id="edge3" class="edge">
<title>Node3&#45;&gt;Node4</title>
<path fill="none" stroke="midnightblue" d="M395.58,-168.08C403.67,-160.14 415.7,-148.34 425.41,-138.8"/>
<polygon fill="midnightblue" stroke="midnightblue" points="427.9,-141.25 432.59,-131.75 423,-136.26 427.9,-141.25"/>
</g>
<!-- Node5 -->
<g id="node5" class="node">
<title>Node5</title>
<g id="a_node5"><a xlink:href="irx_8h.html" target="_top" xlink:title=" ">
<polygon fill="white" stroke="black" points="279.5,-112.5 279.5,-131.5 313.5,-131.5 313.5,-112.5 279.5,-112.5"/>
<text text-anchor="middle" x="296.5" y="-119.5" font-family="Helvetica,sans-Serif" font-size="10.00">irx.h</text>
</a>
</g>
</g>
<!-- Node3&#45;&gt;Node5 -->
<g id="edge4" class="edge">
<title>Node3&#45;&gt;Node5</title>
<path fill="none" stroke="midnightblue" d="M372.04,-168.32C358,-159.9 336.45,-146.97 319.96,-137.07"/>
<polygon fill="midnightblue" stroke="midnightblue" points="321.3,-133.8 310.92,-131.65 317.7,-139.8 321.3,-133.8"/>
</g>
<!-- Node6 -->
<g id="node6" class="node">
<title>Node6</title>
<g id="a_node6"><a xlink:href="types_8h_source.html" target="_top" xlink:title=" ">
<polygon fill="white" stroke="black" points="296,-56.5 296,-75.5 343,-75.5 343,-56.5 296,-56.5"/>
<text text-anchor="middle" x="319.5" y="-63.5" font-family="Helvetica,sans-Serif" font-size="10.00">types.h</text>
</a>
</g>
</g>
<!-- Node5&#45;&gt;Node6 -->
<g id="edge5" class="edge">
<title>Node5&#45;&gt;Node6</title>
<path fill="none" stroke="midnightblue" d="M300.3,-112.08C303.41,-104.77 307.92,-94.18 311.79,-85.1"/>
<polygon fill="midnightblue" stroke="midnightblue" points="315.07,-86.32 315.77,-75.75 308.63,-83.58 315.07,-86.32"/>
</g>
<!-- Node7 -->
<g id="node7" class="node">
<title>Node7</title>
<g id="a_node7"><a xlink:title=" ">
<polygon fill="white" stroke="#bfbfbf" points="294,-0.5 294,-19.5 345,-19.5 345,-0.5 294,-0.5"/>
<text text-anchor="middle" x="319.5" y="-7.5" font-family="Helvetica,sans-Serif" font-size="10.00">stddef.h</text>
</a>
</g>
</g>
<!-- Node6&#45;&gt;Node7 -->
<g id="edge6" class="edge">
<title>Node6&#45;&gt;Node7</title>
<path fill="none" stroke="midnightblue" d="M319.5,-56.08C319.5,-49.01 319.5,-38.86 319.5,-29.99"/>
<polygon fill="midnightblue" stroke="midnightblue" points="323,-29.75 319.5,-19.75 316,-29.75 323,-29.75"/>
</g>
<!-- Node8 -->
<g id="node8" class="node">
<title>Node8</title>
<g id="a_node8"><a xlink:href="tamtypes_8h.html" target="_top" xlink:title=" ">
<polygon fill="white" stroke="black" points="483.5,-0.5 483.5,-19.5 547.5,-19.5 547.5,-0.5 483.5,-0.5"/>
<text text-anchor="middle" x="515.5" y="-7.5" font-family="Helvetica,sans-Serif" font-size="10.00">tamtypes.h</text>
</a>
</g>
</g>
<!-- Node6&#45;&gt;Node8 -->
<g id="edge7" class="edge">
<title>Node6&#45;&gt;Node8</title>
<path fill="none" stroke="midnightblue" d="M343.14,-58.49C375.71,-49.51 434.86,-33.22 474.67,-22.25"/>
<polygon fill="midnightblue" stroke="midnightblue" points="475.63,-25.61 484.34,-19.58 473.77,-18.87 475.63,-25.61"/>
</g>
<!-- Node9&#45;&gt;Node5 -->
<g id="edge10" class="edge">
<title>Node9&#45;&gt;Node5</title>
<path fill="none" stroke="midnightblue" d="M185.42,-168.44C208.29,-159.09 245,-144.07 269.91,-133.88"/>
<polygon fill="midnightblue" stroke="midnightblue" points="271.53,-137 279.46,-129.97 268.88,-130.52 271.53,-137"/>
</g>
<!-- Node9&#45;&gt;Node6 -->
<g id="edge9" class="edge">
<title>Node9&#45;&gt;Node6</title>
<path fill="none" stroke="midnightblue" d="M176.55,-168.35C193.95,-155.87 227.15,-132.09 255.5,-112 269.95,-101.76 286.28,-90.28 298.82,-81.48"/>
<polygon fill="midnightblue" stroke="midnightblue" points="301.03,-84.21 307.21,-75.6 297.01,-78.47 301.03,-84.21"/>
</g>
<!-- Node10&#45;&gt;Node8 -->
<g id="edge12" class="edge">
<title>Node10&#45;&gt;Node8</title>
<path fill="none" stroke="midnightblue" d="M576.77,-56.32C565.66,-48.11 548.76,-35.6 535.52,-25.81"/>
<polygon fill="midnightblue" stroke="midnightblue" points="537.56,-22.97 527.44,-19.83 533.4,-28.59 537.56,-22.97"/>
</g>
<!-- Node11&#45;&gt;Node5 -->
<g id="edge15" class="edge">
<title>Node11&#45;&gt;Node5</title>
<path fill="none" stroke="midnightblue" d="M312.36,-168.08C309.82,-160.85 306.14,-150.41 302.97,-141.4"/>
<polygon fill="midnightblue" stroke="midnightblue" points="306.2,-140.02 299.58,-131.75 299.6,-142.35 306.2,-140.02"/>
</g>
<!-- Node11&#45;&gt;Node6 -->
<g id="edge14" class="edge">
<title>Node11&#45;&gt;Node6</title>
<path fill="none" stroke="midnightblue" d="M317.24,-168.42C318.97,-159.4 321.51,-144.77 322.5,-132 323.7,-116.49 322.74,-98.87 321.6,-85.88"/>
<polygon fill="midnightblue" stroke="midnightblue" points="325.07,-85.45 320.6,-75.84 318.11,-86.14 325.07,-85.45"/>
</g>
<!-- Node12&#45;&gt;Node5 -->
<g id="edge18" class="edge">
<title>Node12&#45;&gt;Node5</title>
<path fill="none" stroke="midnightblue" d="M118.3,-169.94C157.55,-159.6 230.27,-140.45 269.59,-130.09"/>
<polygon fill="midnightblue" stroke="midnightblue" points="270.5,-133.47 279.28,-127.54 268.72,-126.7 270.5,-133.47"/>
</g>
<!-- Node12&#45;&gt;Node6 -->
<g id="edge17" class="edge">
<title>Node12&#45;&gt;Node6</title>
<path fill="none" stroke="midnightblue" d="M109.11,-168.31C134.54,-155.78 183.05,-131.95 224.5,-112 247.19,-101.08 273.01,-88.86 292,-79.92"/>
<polygon fill="midnightblue" stroke="midnightblue" points="293.7,-82.99 301.26,-75.56 290.72,-76.65 293.7,-82.99"/>
</g>
<!-- Node13&#45;&gt;Node4 -->
<g id="edge22" class="edge">
<title>Node13&#45;&gt;Node4</title>
<path fill="none" stroke="midnightblue" d="M518.72,-168.32C504.23,-159.82 481.93,-146.73 465.01,-136.8"/>
<polygon fill="midnightblue" stroke="midnightblue" points="466.64,-133.7 456.24,-131.65 463.1,-139.74 466.64,-133.7"/>
</g>
<!-- Node13&#45;&gt;Node5 -->
<g id="edge21" class="edge">
<title>Node13&#45;&gt;Node5</title>
<path fill="none" stroke="midnightblue" d="M506.39,-170.15C503.39,-169.41 500.38,-168.68 497.5,-168 435.48,-153.31 362.38,-137.26 323.7,-128.87"/>
<polygon fill="midnightblue" stroke="midnightblue" points="324.25,-125.41 313.74,-126.71 322.77,-132.25 324.25,-125.41"/>
</g>
<!-- Node13&#45;&gt;Node6 -->
<g id="edge20" class="edge">
<title>Node13&#45;&gt;Node6</title>
<path fill="none" stroke="midnightblue" d="M528.33,-168.43C519.48,-154.49 500.08,-126.95 476.5,-112 438.25,-87.75 386.62,-76.24 353.19,-71.02"/>
<polygon fill="midnightblue" stroke="midnightblue" points="353.42,-67.51 343.02,-69.53 352.41,-74.44 353.42,-67.51"/>
</g>
<!-- Node14 -->
<g id="node14" class="node">
<title>Node14</title>
<g id="a_node14"><a xlink:href="setjmp_8h.html" target="_top" xlink:title=" ">
<polygon fill="white" stroke="black" points="489,-56.5 489,-75.5 542,-75.5 542,-56.5 489,-56.5"/>
<text text-anchor="middle" x="515.5" y="-63.5" font-family="Helvetica,sans-Serif" font-size="10.00">setjmp.h</text>
</a>
</g>
</g>
<!-- Node13&#45;&gt;Node14 -->
<g id="edge23" class="edge">
<title>Node13&#45;&gt;Node14</title>
<path fill="none" stroke="midnightblue" d="M532.09,-168.37C529.18,-150.62 522.48,-109.67 518.54,-85.6"/>
<polygon fill="midnightblue" stroke="midnightblue" points="521.97,-84.89 516.91,-75.59 515.07,-86.03 521.97,-84.89"/>
</g>
<!-- Node14&#45;&gt;Node8 -->
<g id="edge24" class="edge">
<title>Node14&#45;&gt;Node8</title>
<path fill="none" stroke="midnightblue" d="M515.5,-56.08C515.5,-49.01 515.5,-38.86 515.5,-29.99"/>
<polygon fill="midnightblue" stroke="midnightblue" points="519,-29.75 515.5,-19.75 512,-29.75 519,-29.75"/>
</g>
<!-- Node15&#45;&gt;Node5 -->
<g id="edge27" class="edge">
<title>Node15&#45;&gt;Node5</title>
<path fill="none" stroke="midnightblue" d="M247.82,-168.32C256.39,-160.34 269.31,-148.31 279.69,-138.65"/>
<polygon fill="midnightblue" stroke="midnightblue" points="282.08,-141.21 287.01,-131.83 277.31,-136.09 282.08,-141.21"/>
</g>
<!-- Node15&#45;&gt;Node6 -->
<g id="edge26" class="edge">
<title>Node15&#45;&gt;Node6</title>
<path fill="none" stroke="midnightblue" d="M241.54,-168.44C246.39,-155.45 256.78,-130.32 270.5,-112 278.85,-100.84 290.22,-90.21 299.9,-82.08"/>
<polygon fill="midnightblue" stroke="midnightblue" points="302.29,-84.65 307.85,-75.63 297.88,-79.21 302.29,-84.65"/>
</g>
<!-- Node16&#45;&gt;Node4 -->
<g id="edge31" class="edge">
<title>Node16&#45;&gt;Node4</title>
<path fill="none" stroke="midnightblue" d="M454.86,-168.08C452.71,-160.85 449.62,-150.41 446.95,-141.4"/>
<polygon fill="midnightblue" stroke="midnightblue" points="450.29,-140.34 444.09,-131.75 443.58,-142.33 450.29,-140.34"/>
</g>
<!-- Node16&#45;&gt;Node5 -->
<g id="edge30" class="edge">
<title>Node16&#45;&gt;Node5</title>
<path fill="none" stroke="midnightblue" d="M431.99,-168.44C402.35,-158.5 353.68,-142.18 323.44,-132.04"/>
<polygon fill="midnightblue" stroke="midnightblue" points="324.55,-128.72 313.95,-128.85 322.32,-135.35 324.55,-128.72"/>
</g>
<!-- Node16&#45;&gt;Node6 -->
<g id="edge29" class="edge">
<title>Node16&#45;&gt;Node6</title>
<path fill="none" stroke="midnightblue" d="M446.67,-168.37C423.19,-149.65 367.36,-105.15 338.11,-81.83"/>
<polygon fill="midnightblue" stroke="midnightblue" points="340.28,-79.09 330.28,-75.59 335.92,-84.56 340.28,-79.09"/>
</g>
</g>
</svg>
