<?xml version="1.0" encoding="UTF-8" standalone="no"?>
<!DOCTYPE svg PUBLIC "-//W3C//DTD SVG 1.1//EN"
 "http://www.w3.org/Graphics/SVG/1.1/DTD/svg11.dtd">
<!-- Generated by graphviz version 2.46.1 (20210215.1649)
 -->
<!-- Title: ee/kernel/src/iopcontrol.c Pages: 1 -->
<svg width="425pt" height="308pt"
 viewBox="0.00 0.00 425.00 308.00" xmlns="http://www.w3.org/2000/svg" xmlns:xlink="http://www.w3.org/1999/xlink">
<g id="graph0" class="graph" transform="scale(1 1) rotate(0) translate(4 304)">
<title>ee/kernel/src/iopcontrol.c</title>
<polygon fill="white" stroke="transparent" points="-4,4 -4,-304 421,-304 421,4 -4,4"/>
<!-- Node1 -->
<g id="node1" class="node">
<title>Node1</title>
<g id="a_node1"><a xlink:title=" ">
<polygon fill="#bfbfbf" stroke="black" points="122.5,-280.5 122.5,-299.5 247.5,-299.5 247.5,-280.5 122.5,-280.5"/>
<text text-anchor="middle" x="185" y="-287.5" font-family="Helvetica,sans-Serif" font-size="10.00">ee/kernel/src/iopcontrol.c</text>
</a>
</g>
</g>
<!-- Node2 -->
<g id="node2" class="node">
<title>Node2</title>
<g id="a_node2"><a xlink:href="tamtypes_8h.html" target="_top" xlink:title=" ">
<polygon fill="white" stroke="black" points="57,-0.5 57,-19.5 121,-19.5 121,-0.5 57,-0.5"/>
<text text-anchor="middle" x="89" y="-7.5" font-family="Helvetica,sans-Serif" font-size="10.00">tamtypes.h</text>
</a>
</g>
</g>
<!-- Node1&#45;&gt;Node2 -->
<g id="edge1" class="edge">
<title>Node1&#45;&gt;Node2</title>
<path fill="none" stroke="midnightblue" d="M130.99,-280.45C76.39,-268.36 0,-240.47 0,-179 0,-179 0,-179 0,-121 0,-90.9 0.98,-80.11 19,-56 29.19,-42.37 44.83,-31.75 58.74,-24.26"/>
<polygon fill="midnightblue" stroke="midnightblue" points="60.66,-27.21 68.01,-19.58 57.5,-20.97 60.66,-27.21"/>
</g>
<!-- Node3 -->
<g id="node3" class="node">
<title>Node3</title>
<g id="a_node3"><a xlink:href="kernel_8h.html" target="_top" xlink:title=" ">
<polygon fill="white" stroke="black" points="205,-168.5 205,-187.5 255,-187.5 255,-168.5 205,-168.5"/>
<text text-anchor="middle" x="230" y="-175.5" font-family="Helvetica,sans-Serif" font-size="10.00">kernel.h</text>
</a>
</g>
</g>
<!-- Node1&#45;&gt;Node3 -->
<g id="edge2" class="edge">
<title>Node1&#45;&gt;Node3</title>
<path fill="none" stroke="midnightblue" d="M187.04,-280.38C190.17,-267.74 196.67,-243.55 205,-224 209.03,-214.54 214.48,-204.5 219.27,-196.31"/>
<polygon fill="midnightblue" stroke="midnightblue" points="222.3,-198.06 224.45,-187.69 216.3,-194.45 222.3,-198.06"/>
</g>
<!-- Node7 -->
<g id="node7" class="node">
<title>Node7</title>
<g id="a_node7"><a xlink:title=" ">
<polygon fill="white" stroke="#bfbfbf" points="213.5,-224.5 213.5,-243.5 266.5,-243.5 266.5,-224.5 213.5,-224.5"/>
<text text-anchor="middle" x="240" y="-231.5" font-family="Helvetica,sans-Serif" font-size="10.00">sifcmd.h</text>
</a>
</g>
</g>
<!-- Node1&#45;&gt;Node7 -->
<g id="edge7" class="edge">
<title>Node1&#45;&gt;Node7</title>
<path fill="none" stroke="midnightblue" d="M194.08,-280.08C202.17,-272.14 214.2,-260.34 223.91,-250.8"/>
<polygon fill="midnightblue" stroke="midnightblue" points="226.4,-253.25 231.09,-243.75 221.5,-248.26 226.4,-253.25"/>
</g>
<!-- Node8 -->
<g id="node8" class="node">
<title>Node8</title>
<g id="a_node8"><a xlink:title=" ">
<polygon fill="white" stroke="#bfbfbf" points="285,-224.5 285,-243.5 333,-243.5 333,-224.5 285,-224.5"/>
<text text-anchor="middle" x="309" y="-231.5" font-family="Helvetica,sans-Serif" font-size="10.00">sifrpc.h</text>
</a>
</g>
</g>
<!-- Node1&#45;&gt;Node8 -->
<g id="edge8" class="edge">
<title>Node1&#45;&gt;Node8</title>
<path fill="none" stroke="midnightblue" d="M204.65,-280.44C224.96,-271.6 256.9,-257.69 280.1,-247.59"/>
<polygon fill="midnightblue" stroke="midnightblue" points="281.67,-250.72 289.44,-243.52 278.88,-244.3 281.67,-250.72"/>
</g>
<!-- Node9 -->
<g id="node9" class="node">
<title>Node9</title>
<g id="a_node9"><a xlink:href="string_8h_source.html" target="_top" xlink:title=" ">
<polygon fill="white" stroke="black" points="63,-224.5 63,-243.5 111,-243.5 111,-224.5 63,-224.5"/>
<text text-anchor="middle" x="87" y="-231.5" font-family="Helvetica,sans-Serif" font-size="10.00">string.h</text>
</a>
</g>
</g>
<!-- Node1&#45;&gt;Node9 -->
<g id="edge9" class="edge">
<title>Node1&#45;&gt;Node9</title>
<path fill="none" stroke="midnightblue" d="M169.25,-280.32C153.68,-271.74 129.62,-258.49 111.54,-248.52"/>
<polygon fill="midnightblue" stroke="midnightblue" points="113.15,-245.42 102.71,-243.65 109.78,-251.55 113.15,-245.42"/>
</g>
<!-- Node14 -->
<g id="node14" class="node">
<title>Node14</title>
<g id="a_node14"><a xlink:href="stdio_8h.html" target="_top" xlink:title=" ">
<polygon fill="white" stroke="black" points="128.5,-168.5 128.5,-187.5 173.5,-187.5 173.5,-168.5 128.5,-168.5"/>
<text text-anchor="middle" x="151" y="-175.5" font-family="Helvetica,sans-Serif" font-size="10.00">stdio.h</text>
</a>
</g>
</g>
<!-- Node1&#45;&gt;Node14 -->
<g id="edge19" class="edge">
<title>Node1&#45;&gt;Node14</title>
<path fill="none" stroke="midnightblue" d="M182.31,-280.38C179.48,-271.32 174.92,-256.66 171,-244 166.15,-228.31 160.66,-210.49 156.67,-197.48"/>
<polygon fill="midnightblue" stroke="midnightblue" points="159.99,-196.37 153.71,-187.83 153.3,-198.42 159.99,-196.37"/>
</g>
<!-- Node15 -->
<g id="node15" class="node">
<title>Node15</title>
<g id="a_node15"><a xlink:href="iopcontrol_8h.html" target="_top" xlink:title=" ">
<polygon fill="white" stroke="black" points="351,-224.5 351,-243.5 417,-243.5 417,-224.5 351,-224.5"/>
<text text-anchor="middle" x="384" y="-231.5" font-family="Helvetica,sans-Serif" font-size="10.00">iopcontrol.h</text>
</a>
</g>
</g>
<!-- Node1&#45;&gt;Node15 -->
<g id="edge22" class="edge">
<title>Node1&#45;&gt;Node15</title>
<path fill="none" stroke="midnightblue" d="M216.53,-280.44C250.59,-271.2 305.01,-256.44 342.52,-246.26"/>
<polygon fill="midnightblue" stroke="midnightblue" points="343.88,-249.51 352.62,-243.52 342.05,-242.76 343.88,-249.51"/>
</g>
<!-- Node4 -->
<g id="node4" class="node">
<title>Node4</title>
<g id="a_node4"><a xlink:title=" ">
<polygon fill="white" stroke="#bfbfbf" points="194.5,-0.5 194.5,-19.5 245.5,-19.5 245.5,-0.5 194.5,-0.5"/>
<text text-anchor="middle" x="220" y="-7.5" font-family="Helvetica,sans-Serif" font-size="10.00">stddef.h</text>
</a>
</g>
</g>
<!-- Node3&#45;&gt;Node4 -->
<g id="edge3" class="edge">
<title>Node3&#45;&gt;Node4</title>
<path fill="none" stroke="midnightblue" d="M232.75,-168.37C238.71,-148.36 251.56,-97.34 242,-56 239.77,-46.36 235.18,-36.41 230.76,-28.31"/>
<polygon fill="midnightblue" stroke="midnightblue" points="233.7,-26.4 225.64,-19.52 227.65,-29.92 233.7,-26.4"/>
</g>
<!-- Node5 -->
<g id="node5" class="node">
<title>Node5</title>
<g id="a_node5"><a xlink:title=" ">
<polygon fill="white" stroke="#bfbfbf" points="157.5,-112.5 157.5,-131.5 208.5,-131.5 208.5,-112.5 157.5,-112.5"/>
<text text-anchor="middle" x="183" y="-119.5" font-family="Helvetica,sans-Serif" font-size="10.00">stdarg.h</text>
</a>
</g>
</g>
<!-- Node3&#45;&gt;Node5 -->
<g id="edge4" class="edge">
<title>Node3&#45;&gt;Node5</title>
<path fill="none" stroke="midnightblue" d="M222.24,-168.08C215.46,-160.3 205.46,-148.8 197.24,-139.37"/>
<polygon fill="midnightblue" stroke="midnightblue" points="199.82,-137 190.62,-131.75 194.54,-141.59 199.82,-137"/>
</g>
<!-- Node6 -->
<g id="node6" class="node">
<title>Node6</title>
<g id="a_node6"><a xlink:href="sifdma_8h.html" target="_top" xlink:title=" ">
<polygon fill="white" stroke="black" points="179.5,-56.5 179.5,-75.5 232.5,-75.5 232.5,-56.5 179.5,-56.5"/>
<text text-anchor="middle" x="206" y="-63.5" font-family="Helvetica,sans-Serif" font-size="10.00">sifdma.h</text>
</a>
</g>
</g>
<!-- Node3&#45;&gt;Node6 -->
<g id="edge5" class="edge">
<title>Node3&#45;&gt;Node6</title>
<path fill="none" stroke="midnightblue" d="M228.59,-168.12C226.54,-155.57 222.49,-131.93 218,-112 216.02,-103.21 213.49,-93.56 211.27,-85.45"/>
<polygon fill="midnightblue" stroke="midnightblue" points="214.57,-84.26 208.5,-75.58 207.83,-86.15 214.57,-84.26"/>
</g>
<!-- Node6&#45;&gt;Node2 -->
<g id="edge6" class="edge">
<title>Node6&#45;&gt;Node2</title>
<path fill="none" stroke="midnightblue" d="M187.46,-56.44C168.38,-47.64 138.43,-33.81 116.56,-23.72"/>
<polygon fill="midnightblue" stroke="midnightblue" points="118,-20.53 107.45,-19.52 115.07,-26.88 118,-20.53"/>
</g>
<!-- Node10 -->
<g id="node10" class="node">
<title>Node10</title>
<g id="a_node10"><a xlink:href="sysclib_8h.html" target="_top" xlink:title=" ">
<polygon fill="white" stroke="black" points="56,-168.5 56,-187.5 110,-187.5 110,-168.5 56,-168.5"/>
<text text-anchor="middle" x="83" y="-175.5" font-family="Helvetica,sans-Serif" font-size="10.00">sysclib.h</text>
</a>
</g>
</g>
<!-- Node9&#45;&gt;Node10 -->
<g id="edge10" class="edge">
<title>Node9&#45;&gt;Node10</title>
<path fill="none" stroke="midnightblue" d="M86.34,-224.08C85.82,-217.01 85.06,-206.86 84.41,-197.99"/>
<polygon fill="midnightblue" stroke="midnightblue" points="87.88,-197.47 83.65,-187.75 80.9,-197.98 87.88,-197.47"/>
</g>
<!-- Node10&#45;&gt;Node5 -->
<g id="edge16" class="edge">
<title>Node10&#45;&gt;Node5</title>
<path fill="none" stroke="midnightblue" d="M99.07,-168.32C114.96,-159.74 139.51,-146.49 157.96,-136.52"/>
<polygon fill="midnightblue" stroke="midnightblue" points="159.84,-139.49 166.97,-131.65 156.51,-133.33 159.84,-139.49"/>
</g>
<!-- Node11 -->
<g id="node11" class="node">
<title>Node11</title>
<g id="a_node11"><a xlink:href="types_8h_source.html" target="_top" xlink:title=" ">
<polygon fill="white" stroke="black" points="99.5,-56.5 99.5,-75.5 146.5,-75.5 146.5,-56.5 99.5,-56.5"/>
<text text-anchor="middle" x="123" y="-63.5" font-family="Helvetica,sans-Serif" font-size="10.00">types.h</text>
</a>
</g>
</g>
<!-- Node10&#45;&gt;Node11 -->
<g id="edge11" class="edge">
<title>Node10&#45;&gt;Node11</title>
<path fill="none" stroke="midnightblue" d="M83.78,-168.32C85.14,-155.61 88.53,-131.32 96,-112 99.78,-102.23 105.61,-92.15 110.89,-84.02"/>
<polygon fill="midnightblue" stroke="midnightblue" points="113.95,-85.74 116.67,-75.5 108.16,-81.81 113.95,-85.74"/>
</g>
<!-- Node12 -->
<g id="node12" class="node">
<title>Node12</title>
<g id="a_node12"><a xlink:href="irx_8h.html" target="_top" xlink:title=" ">
<polygon fill="white" stroke="black" points="105,-112.5 105,-131.5 139,-131.5 139,-112.5 105,-112.5"/>
<text text-anchor="middle" x="122" y="-119.5" font-family="Helvetica,sans-Serif" font-size="10.00">irx.h</text>
</a>
</g>
</g>
<!-- Node10&#45;&gt;Node12 -->
<g id="edge14" class="edge">
<title>Node10&#45;&gt;Node12</title>
<path fill="none" stroke="midnightblue" d="M89.44,-168.08C94.95,-160.46 103.03,-149.26 109.76,-139.94"/>
<polygon fill="midnightblue" stroke="midnightblue" points="112.66,-141.91 115.68,-131.75 106.99,-137.81 112.66,-141.91"/>
</g>
<!-- Node13 -->
<g id="node13" class="node">
<title>Node13</title>
<g id="a_node13"><a xlink:href="setjmp_8h.html" target="_top" xlink:title=" ">
<polygon fill="white" stroke="black" points="28.5,-56.5 28.5,-75.5 81.5,-75.5 81.5,-56.5 28.5,-56.5"/>
<text text-anchor="middle" x="55" y="-63.5" font-family="Helvetica,sans-Serif" font-size="10.00">setjmp.h</text>
</a>
</g>
</g>
<!-- Node10&#45;&gt;Node13 -->
<g id="edge17" class="edge">
<title>Node10&#45;&gt;Node13</title>
<path fill="none" stroke="midnightblue" d="M78.21,-168.32C73.55,-159.46 66.65,-145.18 63,-132 58.77,-116.75 56.78,-98.86 55.84,-85.72"/>
<polygon fill="midnightblue" stroke="midnightblue" points="59.32,-85.35 55.25,-75.57 52.33,-85.76 59.32,-85.35"/>
</g>
<!-- Node11&#45;&gt;Node2 -->
<g id="edge13" class="edge">
<title>Node11&#45;&gt;Node2</title>
<path fill="none" stroke="midnightblue" d="M117.39,-56.08C112.63,-48.53 105.68,-37.49 99.85,-28.23"/>
<polygon fill="midnightblue" stroke="midnightblue" points="102.8,-26.35 94.51,-19.75 96.88,-30.08 102.8,-26.35"/>
</g>
<!-- Node11&#45;&gt;Node4 -->
<g id="edge12" class="edge">
<title>Node11&#45;&gt;Node4</title>
<path fill="none" stroke="midnightblue" d="M138.58,-56.32C154,-47.74 177.81,-34.49 195.71,-24.52"/>
<polygon fill="midnightblue" stroke="midnightblue" points="197.42,-27.58 204.45,-19.65 194.01,-21.46 197.42,-27.58"/>
</g>
<!-- Node12&#45;&gt;Node11 -->
<g id="edge15" class="edge">
<title>Node12&#45;&gt;Node11</title>
<path fill="none" stroke="midnightblue" d="M122.17,-112.08C122.3,-105.01 122.48,-94.86 122.65,-85.99"/>
<polygon fill="midnightblue" stroke="midnightblue" points="126.15,-85.81 122.84,-75.75 119.15,-85.68 126.15,-85.81"/>
</g>
<!-- Node13&#45;&gt;Node2 -->
<g id="edge18" class="edge">
<title>Node13&#45;&gt;Node2</title>
<path fill="none" stroke="midnightblue" d="M60.61,-56.08C65.37,-48.53 72.32,-37.49 78.15,-28.23"/>
<polygon fill="midnightblue" stroke="midnightblue" points="81.12,-30.08 83.49,-19.75 75.2,-26.35 81.12,-30.08"/>
</g>
<!-- Node14&#45;&gt;Node5 -->
<g id="edge20" class="edge">
<title>Node14&#45;&gt;Node5</title>
<path fill="none" stroke="midnightblue" d="M156.28,-168.08C160.71,-160.61 167.16,-149.72 172.62,-140.52"/>
<polygon fill="midnightblue" stroke="midnightblue" points="175.73,-142.14 177.81,-131.75 169.71,-138.57 175.73,-142.14"/>
</g>
<!-- Node14&#45;&gt;Node12 -->
<g id="edge21" class="edge">
<title>Node14&#45;&gt;Node12</title>
<path fill="none" stroke="midnightblue" d="M146.21,-168.08C142.24,-160.69 136.47,-149.95 131.57,-140.81"/>
<polygon fill="midnightblue" stroke="midnightblue" points="134.51,-138.91 126.7,-131.75 128.35,-142.22 134.51,-138.91"/>
</g>
</g>
</svg>
