<?xml version="1.0" encoding="UTF-8" standalone="no"?>
<!DOCTYPE svg PUBLIC "-//W3C//DTD SVG 1.1//EN"
 "http://www.w3.org/Graphics/SVG/1.1/DTD/svg11.dtd">
<!-- Generated by graphviz version 2.46.1 (20210215.1649)
 -->
<!-- Title: iop/debug/ioptrap/src/ioptrap.c Pages: 1 -->
<!--zoomable 263 -->
<svg id="main" version="1.1" xmlns="http://www.w3.org/2000/svg" xmlns:xlink="http://www.w3.org/1999/xlink" xml:space="preserve" onload="init(evt)">
<style type="text/css"><![CDATA[
.edge:hover path { stroke: red; }
.edge:hover polygon { stroke: red; fill: red; }
]]></style>
<script type="text/javascript"><![CDATA[
var edges = document.getElementsByTagName('g');
if (edges && edges.length) {
  for (var i=0;i<edges.length;i++) {
    if (edges[i].id.substr(0,4)=='edge') {
      edges[i].setAttribute('class','edge');
    }
  }
}
]]></script>
        <defs>
                <circle id="rim" cx="0" cy="0" r="7"/>
                <circle id="rim2" cx="0" cy="0" r="3.5"/>
                <g id="zoomPlus">
                        <use xlink:href="#rim" fill="#404040">
                                <set attributeName="fill" to="#808080" begin="zoomplus.mouseover" end="zoomplus.mouseout"/>
                        </use>
                        <path d="M-4,0h8M0,-4v8" fill="none" stroke="white" stroke-width="1.5" pointer-events="none"/>
                </g>
                <g id="zoomMin">
                        <use xlink:href="#rim" fill="#404040">
                                <set attributeName="fill" to="#808080" begin="zoomminus.mouseover" end="zoomminus.mouseout"/>
                        </use>
                        <path d="M-4,0h8" fill="none" stroke="white" stroke-width="1.5" pointer-events="none"/>
                </g>
                <g id="dirArrow">
                        <path fill="none" stroke="white" stroke-width="1.5" d="M0,-3.0v7 M-2.5,-0.5L0,-3.0L2.5,-0.5"/>
                </g>
               <g id="resetDef">
                       <use xlink:href="#rim2" fill="#404040">
                               <set attributeName="fill" to="#808080" begin="reset.mouseover" end="reset.mouseout"/>
                       </use>
               </g>
        </defs>

<script type="text/javascript">
var viewWidth = 689;
var viewHeight = 263;
var sectionId = 'dynsection-0';
</script>
<script xlink:href="svgpan.js"/>
<svg id="graph" class="graph">
<g id="viewport">
<title>iop/debug/ioptrap/src/ioptrap.c</title>
<polygon fill="white" stroke="transparent" points="-4,4 -4,-259 685,-259 685,4 -4,4"/>
<!-- Node1 -->
<g id="node1" class="node">
<title>Node1</title>
<g id="a_node1"><a xlink:title=" ">
<polygon fill="#bfbfbf" stroke="black" points="280,-224.5 280,-254.5 387,-254.5 387,-224.5 280,-224.5"/>
<text text-anchor="start" x="288" y="-242.5" font-family="Helvetica,sans-Serif" font-size="10.00">iop/debug/ioptrap/src</text>
<text text-anchor="middle" x="333.5" y="-231.5" font-family="Helvetica,sans-Serif" font-size="10.00">/ioptrap.c</text>
</a>
</g>
</g>
<!-- Node2 -->
<g id="node2" class="node">
<title>Node2</title>
<g id="a_node2"><a xlink:title=" ">
<polygon fill="white" stroke="#bfbfbf" points="0,-112.5 0,-131.5 47,-131.5 47,-112.5 0,-112.5"/>
<text text-anchor="middle" x="23.5" y="-119.5" font-family="Helvetica,sans-Serif" font-size="10.00">types.h</text>
</a>
</g>
</g>
<!-- Node1&#45;&gt;Node2 -->
<g id="edge1" class="edge">
<title>Node1&#45;&gt;Node2</title>
<path fill="none" stroke="midnightblue" d="M279.94,-238.07C198.14,-236.15 48,-227.22 14.5,-188 3.54,-175.17 8.27,-155.44 14.21,-141.08"/>
<polygon fill="midnightblue" stroke="midnightblue" points="17.5,-142.29 18.53,-131.75 11.15,-139.35 17.5,-142.29"/>
</g>
<!-- Node3 -->
<g id="node3" class="node">
<title>Node3</title>
<g id="a_node3"><a xlink:href="defs_8h.html" target="_top" xlink:title=" ">
<polygon fill="white" stroke="black" points="638,-112.5 638,-131.5 681,-131.5 681,-112.5 638,-112.5"/>
<text text-anchor="middle" x="659.5" y="-119.5" font-family="Helvetica,sans-Serif" font-size="10.00">defs.h</text>
</a>
</g>
</g>
<!-- Node1&#45;&gt;Node3 -->
<g id="edge2" class="edge">
<title>Node1&#45;&gt;Node3</title>
<path fill="none" stroke="midnightblue" d="M387.18,-236.61C465.56,-232.74 605.97,-221.25 642.5,-188 655.28,-176.36 658.96,-156.41 659.8,-141.67"/>
<polygon fill="midnightblue" stroke="midnightblue" points="663.3,-141.71 659.98,-131.65 656.3,-141.58 663.3,-141.71"/>
</g>
<!-- Node7 -->
<g id="node7" class="node">
<title>Node7</title>
<g id="a_node7"><a xlink:href="irx_8h.html" target="_top" xlink:title=" ">
<polygon fill="white" stroke="black" points="323.5,-112.5 323.5,-131.5 357.5,-131.5 357.5,-112.5 323.5,-112.5"/>
<text text-anchor="middle" x="340.5" y="-119.5" font-family="Helvetica,sans-Serif" font-size="10.00">irx.h</text>
</a>
</g>
</g>
<!-- Node1&#45;&gt;Node7 -->
<g id="edge6" class="edge">
<title>Node1&#45;&gt;Node7</title>
<path fill="none" stroke="midnightblue" d="M334.36,-224.34C335.61,-203.62 337.95,-165.02 339.35,-141.9"/>
<polygon fill="midnightblue" stroke="midnightblue" points="342.86,-141.86 339.97,-131.67 335.88,-141.44 342.86,-141.86"/>
</g>
<!-- Node8 -->
<g id="node8" class="node">
<title>Node8</title>
<g id="a_node8"><a xlink:href="ioptrap_8h.html" target="_top" xlink:title=" ">
<polygon fill="white" stroke="black" points="24,-168.5 24,-187.5 77,-187.5 77,-168.5 24,-168.5"/>
<text text-anchor="middle" x="50.5" y="-175.5" font-family="Helvetica,sans-Serif" font-size="10.00">ioptrap.h</text>
</a>
</g>
</g>
<!-- Node1&#45;&gt;Node8 -->
<g id="edge8" class="edge">
<title>Node1&#45;&gt;Node8</title>
<path fill="none" stroke="midnightblue" d="M279.63,-228.35C231.54,-219.1 158.97,-204.7 87.32,-188.34"/>
<polygon fill="midnightblue" stroke="midnightblue" points="87.75,-184.85 77.22,-186.02 86.18,-191.67 87.75,-184.85"/>
</g>
<!-- Node9 -->
<g id="node9" class="node">
<title>Node9</title>
<g id="a_node9"><a xlink:href="excepman_8h.html" target="_top" xlink:title=" ">
<polygon fill="white" stroke="black" points="237.5,-168.5 237.5,-187.5 305.5,-187.5 305.5,-168.5 237.5,-168.5"/>
<text text-anchor="middle" x="271.5" y="-175.5" font-family="Helvetica,sans-Serif" font-size="10.00">excepman.h</text>
</a>
</g>
</g>
<!-- Node1&#45;&gt;Node9 -->
<g id="edge11" class="edge">
<title>Node1&#45;&gt;Node9</title>
<path fill="none" stroke="midnightblue" d="M318.81,-224.4C309.52,-215.49 297.5,-203.95 287.9,-194.74"/>
<polygon fill="midnightblue" stroke="midnightblue" points="290.16,-192.06 280.52,-187.66 285.31,-197.11 290.16,-192.06"/>
</g>
<!-- Node10 -->
<g id="node10" class="node">
<title>Node10</title>
<g id="a_node10"><a xlink:href="loadcore_8h.html" target="_top" xlink:title=" ">
<polygon fill="white" stroke="black" points="362,-168.5 362,-187.5 423,-187.5 423,-168.5 362,-168.5"/>
<text text-anchor="middle" x="392.5" y="-175.5" font-family="Helvetica,sans-Serif" font-size="10.00">loadcore.h</text>
</a>
</g>
</g>
<!-- Node1&#45;&gt;Node10 -->
<g id="edge14" class="edge">
<title>Node1&#45;&gt;Node10</title>
<path fill="none" stroke="midnightblue" d="M347.48,-224.4C356.23,-215.58 367.53,-204.18 376.62,-195.02"/>
<polygon fill="midnightblue" stroke="midnightblue" points="379.36,-197.22 383.91,-187.66 374.39,-192.29 379.36,-197.22"/>
</g>
<!-- Node11 -->
<g id="node11" class="node">
<title>Node11</title>
<g id="a_node11"><a xlink:href="intrman_8h.html" target="_top" xlink:title=" ">
<polygon fill="white" stroke="black" points="441.5,-168.5 441.5,-187.5 497.5,-187.5 497.5,-168.5 441.5,-168.5"/>
<text text-anchor="middle" x="469.5" y="-175.5" font-family="Helvetica,sans-Serif" font-size="10.00">intrman.h</text>
</a>
</g>
</g>
<!-- Node1&#45;&gt;Node11 -->
<g id="edge17" class="edge">
<title>Node1&#45;&gt;Node11</title>
<path fill="none" stroke="midnightblue" d="M365.73,-224.4C388.34,-214.51 418.34,-201.38 440.26,-191.79"/>
<polygon fill="midnightblue" stroke="midnightblue" points="441.95,-194.87 449.71,-187.66 439.15,-188.46 441.95,-194.87"/>
</g>
<!-- Node12 -->
<g id="node12" class="node">
<title>Node12</title>
<g id="a_node12"><a xlink:href="sifman_8h.html" target="_top" xlink:title=" ">
<polygon fill="white" stroke="black" points="95,-168.5 95,-187.5 148,-187.5 148,-168.5 95,-168.5"/>
<text text-anchor="middle" x="121.5" y="-175.5" font-family="Helvetica,sans-Serif" font-size="10.00">sifman.h</text>
</a>
</g>
</g>
<!-- Node1&#45;&gt;Node12 -->
<g id="edge20" class="edge">
<title>Node1&#45;&gt;Node12</title>
<path fill="none" stroke="midnightblue" d="M283.53,-224.47C244.98,-213.66 192.55,-198.94 157.91,-189.22"/>
<polygon fill="midnightblue" stroke="midnightblue" points="158.77,-185.82 148.19,-186.49 156.88,-192.56 158.77,-185.82"/>
</g>
<!-- Node13 -->
<g id="node13" class="node">
<title>Node13</title>
<g id="a_node13"><a xlink:href="stdio_8h.html" target="_top" xlink:title=" ">
<polygon fill="white" stroke="black" points="516,-168.5 516,-187.5 561,-187.5 561,-168.5 516,-168.5"/>
<text text-anchor="middle" x="538.5" y="-175.5" font-family="Helvetica,sans-Serif" font-size="10.00">stdio.h</text>
</a>
</g>
</g>
<!-- Node1&#45;&gt;Node13 -->
<g id="edge23" class="edge">
<title>Node1&#45;&gt;Node13</title>
<path fill="none" stroke="midnightblue" d="M381.82,-224.47C420.12,-213.36 472.58,-198.13 506.01,-188.43"/>
<polygon fill="midnightblue" stroke="midnightblue" points="507.11,-191.76 515.74,-185.61 505.16,-185.03 507.11,-191.76"/>
</g>
<!-- Node15 -->
<g id="node15" class="node">
<title>Node15</title>
<g id="a_node15"><a xlink:href="sysclib_8h.html" target="_top" xlink:title=" ">
<polygon fill="white" stroke="black" points="579.5,-168.5 579.5,-187.5 633.5,-187.5 633.5,-168.5 579.5,-168.5"/>
<text text-anchor="middle" x="606.5" y="-175.5" font-family="Helvetica,sans-Serif" font-size="10.00">sysclib.h</text>
</a>
</g>
</g>
<!-- Node1&#45;&gt;Node15 -->
<g id="edge26" class="edge">
<title>Node1&#45;&gt;Node15</title>
<path fill="none" stroke="midnightblue" d="M387.27,-227.6C433.13,-218.18 501.06,-203.93 569.33,-188.21"/>
<polygon fill="midnightblue" stroke="midnightblue" points="570.44,-191.55 579.4,-185.88 568.87,-184.73 570.44,-191.55"/>
</g>
<!-- Node17 -->
<g id="node17" class="node">
<title>Node17</title>
<g id="a_node17"><a xlink:href="thbase_8h.html" target="_top" xlink:title=" ">
<polygon fill="white" stroke="black" points="166,-168.5 166,-187.5 219,-187.5 219,-168.5 166,-168.5"/>
<text text-anchor="middle" x="192.5" y="-175.5" font-family="Helvetica,sans-Serif" font-size="10.00">thbase.h</text>
</a>
</g>
</g>
<!-- Node1&#45;&gt;Node17 -->
<g id="edge32" class="edge">
<title>Node1&#45;&gt;Node17</title>
<path fill="none" stroke="midnightblue" d="M300.08,-224.4C276.53,-214.46 245.26,-201.26 222.51,-191.66"/>
<polygon fill="midnightblue" stroke="midnightblue" points="223.59,-188.32 213.02,-187.66 220.87,-194.77 223.59,-188.32"/>
</g>
<!-- Node4 -->
<g id="node4" class="node">
<title>Node4</title>
<g id="a_node4"><a xlink:href="types_8h_source.html" target="_top" xlink:title=" ">
<polygon fill="white" stroke="black" points="369,-56.5 369,-75.5 416,-75.5 416,-56.5 369,-56.5"/>
<text text-anchor="middle" x="392.5" y="-63.5" font-family="Helvetica,sans-Serif" font-size="10.00">types.h</text>
</a>
</g>
</g>
<!-- Node3&#45;&gt;Node4 -->
<g id="edge3" class="edge">
<title>Node3&#45;&gt;Node4</title>
<path fill="none" stroke="midnightblue" d="M637.65,-116.58C591.08,-107.16 481.79,-85.06 426.22,-73.82"/>
<polygon fill="midnightblue" stroke="midnightblue" points="426.67,-70.34 416.18,-71.79 425.28,-77.2 426.67,-70.34"/>
</g>
<!-- Node5 -->
<g id="node5" class="node">
<title>Node5</title>
<g id="a_node5"><a xlink:title=" ">
<polygon fill="white" stroke="#bfbfbf" points="367,-0.5 367,-19.5 418,-19.5 418,-0.5 367,-0.5"/>
<text text-anchor="middle" x="392.5" y="-7.5" font-family="Helvetica,sans-Serif" font-size="10.00">stddef.h</text>
</a>
</g>
</g>
<!-- Node4&#45;&gt;Node5 -->
<g id="edge4" class="edge">
<title>Node4&#45;&gt;Node5</title>
<path fill="none" stroke="midnightblue" d="M392.5,-56.08C392.5,-49.01 392.5,-38.86 392.5,-29.99"/>
<polygon fill="midnightblue" stroke="midnightblue" points="396,-29.75 392.5,-19.75 389,-29.75 396,-29.75"/>
</g>
<!-- Node6 -->
<g id="node6" class="node">
<title>Node6</title>
<g id="a_node6"><a xlink:href="tamtypes_8h.html" target="_top" xlink:title=" ">
<polygon fill="white" stroke="black" points="505.5,-0.5 505.5,-19.5 569.5,-19.5 569.5,-0.5 505.5,-0.5"/>
<text text-anchor="middle" x="537.5" y="-7.5" font-family="Helvetica,sans-Serif" font-size="10.00">tamtypes.h</text>
</a>
</g>
</g>
<!-- Node4&#45;&gt;Node6 -->
<g id="edge5" class="edge">
<title>Node4&#45;&gt;Node6</title>
<path fill="none" stroke="midnightblue" d="M415.48,-56.44C439.66,-47.44 477.92,-33.19 505.15,-23.05"/>
<polygon fill="midnightblue" stroke="midnightblue" points="506.48,-26.29 514.63,-19.52 504.04,-19.73 506.48,-26.29"/>
</g>
<!-- Node7&#45;&gt;Node4 -->
<g id="edge7" class="edge">
<title>Node7&#45;&gt;Node4</title>
<path fill="none" stroke="midnightblue" d="M349.09,-112.08C356.66,-104.22 367.88,-92.57 377.01,-83.08"/>
<polygon fill="midnightblue" stroke="midnightblue" points="379.66,-85.38 384.07,-75.75 374.62,-80.53 379.66,-85.38"/>
</g>
<!-- Node8&#45;&gt;Node2 -->
<g id="edge9" class="edge">
<title>Node8&#45;&gt;Node2</title>
<path fill="none" stroke="midnightblue" d="M46.04,-168.08C42.35,-160.69 36.98,-149.95 32.41,-140.81"/>
<polygon fill="midnightblue" stroke="midnightblue" points="35.48,-139.13 27.88,-131.75 29.22,-142.26 35.48,-139.13"/>
</g>
<!-- Node8&#45;&gt;Node7 -->
<g id="edge10" class="edge">
<title>Node8&#45;&gt;Node7</title>
<path fill="none" stroke="midnightblue" d="M77.2,-169.91C80,-169.23 82.8,-168.58 85.5,-168 168.04,-150.13 266.76,-134.25 313.47,-127.07"/>
<polygon fill="midnightblue" stroke="midnightblue" points="314.04,-130.52 323.4,-125.55 312.99,-123.6 314.04,-130.52"/>
</g>
<!-- Node9&#45;&gt;Node4 -->
<g id="edge12" class="edge">
<title>Node9&#45;&gt;Node4</title>
<path fill="none" stroke="midnightblue" d="M275.71,-168.08C282.4,-154.61 296.56,-128.87 314.5,-112 328.55,-98.78 347.18,-87.85 362.71,-80.08"/>
<polygon fill="midnightblue" stroke="midnightblue" points="364.41,-83.14 371.9,-75.65 361.38,-76.83 364.41,-83.14"/>
</g>
<!-- Node9&#45;&gt;Node7 -->
<g id="edge13" class="edge">
<title>Node9&#45;&gt;Node7</title>
<path fill="none" stroke="midnightblue" d="M282.59,-168.32C292.99,-160.18 308.76,-147.84 321.22,-138.09"/>
<polygon fill="midnightblue" stroke="midnightblue" points="323.49,-140.75 329.21,-131.83 319.18,-135.24 323.49,-140.75"/>
</g>
<!-- Node10&#45;&gt;Node4 -->
<g id="edge15" class="edge">
<title>Node10&#45;&gt;Node4</title>
<path fill="none" stroke="midnightblue" d="M392.5,-168.37C392.5,-150.62 392.5,-109.67 392.5,-85.6"/>
<polygon fill="midnightblue" stroke="midnightblue" points="396,-85.59 392.5,-75.59 389,-85.59 396,-85.59"/>
</g>
<!-- Node10&#45;&gt;Node7 -->
<g id="edge16" class="edge">
<title>Node10&#45;&gt;Node7</title>
<path fill="none" stroke="midnightblue" d="M383.91,-168.08C376.34,-160.22 365.12,-148.57 355.99,-139.08"/>
<polygon fill="midnightblue" stroke="midnightblue" points="358.38,-136.53 348.93,-131.75 353.34,-141.38 358.38,-136.53"/>
</g>
<!-- Node11&#45;&gt;Node4 -->
<g id="edge18" class="edge">
<title>Node11&#45;&gt;Node4</title>
<path fill="none" stroke="midnightblue" d="M463.46,-168.37C450.75,-150.22 421.06,-107.8 404.39,-83.99"/>
<polygon fill="midnightblue" stroke="midnightblue" points="407.12,-81.78 398.51,-75.59 401.38,-85.79 407.12,-81.78"/>
</g>
<!-- Node11&#45;&gt;Node7 -->
<g id="edge19" class="edge">
<title>Node11&#45;&gt;Node7</title>
<path fill="none" stroke="midnightblue" d="M449.06,-168.44C426.83,-159.14 391.23,-144.23 366.9,-134.05"/>
<polygon fill="midnightblue" stroke="midnightblue" points="368.12,-130.77 357.55,-130.14 365.42,-137.23 368.12,-130.77"/>
</g>
<!-- Node12&#45;&gt;Node4 -->
<g id="edge21" class="edge">
<title>Node12&#45;&gt;Node4</title>
<path fill="none" stroke="midnightblue" d="M138.22,-168.36C163.91,-155.27 214.8,-130.02 259.5,-112 292.78,-98.58 331.76,-85.72 358.88,-77.21"/>
<polygon fill="midnightblue" stroke="midnightblue" points="360.15,-80.48 368.66,-74.16 358.07,-73.79 360.15,-80.48"/>
</g>
<!-- Node12&#45;&gt;Node7 -->
<g id="edge22" class="edge">
<title>Node12&#45;&gt;Node7</title>
<path fill="none" stroke="midnightblue" d="M148.24,-170.09C151.03,-169.38 153.82,-168.67 156.5,-168 212.24,-154.02 277.62,-138.16 313.51,-129.5"/>
<polygon fill="midnightblue" stroke="midnightblue" points="314.33,-132.9 323.23,-127.15 312.69,-126.09 314.33,-132.9"/>
</g>
<!-- Node13&#45;&gt;Node7 -->
<g id="edge25" class="edge">
<title>Node13&#45;&gt;Node7</title>
<path fill="none" stroke="midnightblue" d="M515.78,-170.58C512.66,-169.71 509.5,-168.83 506.5,-168 457.67,-154.52 400.66,-139.14 367.76,-130.3"/>
<polygon fill="midnightblue" stroke="midnightblue" points="368.53,-126.89 357.96,-127.68 366.71,-133.65 368.53,-126.89"/>
</g>
<!-- Node14 -->
<g id="node14" class="node">
<title>Node14</title>
<g id="a_node14"><a xlink:title=" ">
<polygon fill="white" stroke="#bfbfbf" points="490,-112.5 490,-131.5 541,-131.5 541,-112.5 490,-112.5"/>
<text text-anchor="middle" x="515.5" y="-119.5" font-family="Helvetica,sans-Serif" font-size="10.00">stdarg.h</text>
</a>
</g>
</g>
<!-- Node13&#45;&gt;Node14 -->
<g id="edge24" class="edge">
<title>Node13&#45;&gt;Node14</title>
<path fill="none" stroke="midnightblue" d="M534.7,-168.08C531.59,-160.77 527.08,-150.18 523.21,-141.1"/>
<polygon fill="midnightblue" stroke="midnightblue" points="526.37,-139.58 519.23,-131.75 519.93,-142.32 526.37,-139.58"/>
</g>
<!-- Node15&#45;&gt;Node4 -->
<g id="edge27" class="edge">
<title>Node15&#45;&gt;Node4</title>
<path fill="none" stroke="midnightblue" d="M601.47,-168.42C592.83,-154.47 573.85,-126.92 550.5,-112 512.11,-87.47 460.13,-76.04 426.45,-70.9"/>
<polygon fill="midnightblue" stroke="midnightblue" points="426.59,-67.39 416.2,-69.45 425.61,-74.32 426.59,-67.39"/>
</g>
<!-- Node15&#45;&gt;Node7 -->
<g id="edge28" class="edge">
<title>Node15&#45;&gt;Node7</title>
<path fill="none" stroke="midnightblue" d="M579.41,-170.07C576.41,-169.35 573.39,-168.64 570.5,-168 497.46,-151.74 410.66,-135.62 367.57,-127.83"/>
<polygon fill="midnightblue" stroke="midnightblue" points="368.05,-124.36 357.59,-126.03 366.81,-131.25 368.05,-124.36"/>
</g>
<!-- Node15&#45;&gt;Node14 -->
<g id="edge29" class="edge">
<title>Node15&#45;&gt;Node14</title>
<path fill="none" stroke="midnightblue" d="M591.88,-168.32C577.55,-159.82 555.49,-146.73 538.75,-136.8"/>
<polygon fill="midnightblue" stroke="midnightblue" points="540.47,-133.75 530.08,-131.65 536.9,-139.77 540.47,-133.75"/>
</g>
<!-- Node16 -->
<g id="node16" class="node">
<title>Node16</title>
<g id="a_node16"><a xlink:href="setjmp_8h.html" target="_top" xlink:title=" ">
<polygon fill="white" stroke="black" points="545,-56.5 545,-75.5 598,-75.5 598,-56.5 545,-56.5"/>
<text text-anchor="middle" x="571.5" y="-63.5" font-family="Helvetica,sans-Serif" font-size="10.00">setjmp.h</text>
</a>
</g>
</g>
<!-- Node15&#45;&gt;Node16 -->
<g id="edge30" class="edge">
<title>Node15&#45;&gt;Node16</title>
<path fill="none" stroke="midnightblue" d="M603.75,-168.37C598.08,-150.54 584.96,-109.3 577.31,-85.27"/>
<polygon fill="midnightblue" stroke="midnightblue" points="580.6,-84.06 574.23,-75.59 573.93,-86.18 580.6,-84.06"/>
</g>
<!-- Node16&#45;&gt;Node6 -->
<g id="edge31" class="edge">
<title>Node16&#45;&gt;Node6</title>
<path fill="none" stroke="midnightblue" d="M565.89,-56.08C561.13,-48.53 554.18,-37.49 548.35,-28.23"/>
<polygon fill="midnightblue" stroke="midnightblue" points="551.3,-26.35 543.01,-19.75 545.38,-30.08 551.3,-26.35"/>
</g>
<!-- Node17&#45;&gt;Node4 -->
<g id="edge33" class="edge">
<title>Node17&#45;&gt;Node4</title>
<path fill="none" stroke="midnightblue" d="M204.73,-168.43C223.54,-155.42 260.94,-130.29 294.5,-112 316.72,-99.89 342.8,-88.03 362.46,-79.52"/>
<polygon fill="midnightblue" stroke="midnightblue" points="364.01,-82.66 371.83,-75.51 361.26,-76.23 364.01,-82.66"/>
</g>
<!-- Node17&#45;&gt;Node7 -->
<g id="edge34" class="edge">
<title>Node17&#45;&gt;Node7</title>
<path fill="none" stroke="midnightblue" d="M215.95,-168.44C242.52,-158.75 285.74,-142.98 313.64,-132.8"/>
<polygon fill="midnightblue" stroke="midnightblue" points="314.98,-136.04 323.17,-129.32 312.58,-129.46 314.98,-136.04"/>
</g>
</g>
</svg>
        <g id="navigator" transform="translate(0 0)" fill="#404254">
                <rect fill="#f2f5e9" fill-opacity="0.5" stroke="#606060" stroke-width=".5" x="0" y="0" width="60" height="60"/>
                <use id="zoomplus" xlink:href="#zoomPlus" x="17" y="9" onmousedown="handleZoom(evt,'in')"/>
                <use id="zoomminus" xlink:href="#zoomMin" x="42" y="9" onmousedown="handleZoom(evt,'out')"/>
                <use id="reset" xlink:href="#resetDef" x="30" y="36" onmousedown="handleReset()"/>
                <g id="arrowUp" xlink:href="#dirArrow" transform="translate(30 24)" onmousedown="handlePan(0,-1)">
                  <use xlink:href="#rim" fill="#404040">
                        <set attributeName="fill" to="#808080" begin="arrowUp.mouseover" end="arrowUp.mouseout"/>
                  </use>
                  <path fill="none" stroke="white" stroke-width="1.5" d="M0,-3.0v7 M-2.5,-0.5L0,-3.0L2.5,-0.5"/>
                </g>
                <g id="arrowRight" xlink:href="#dirArrow" transform="rotate(90) translate(36 -43)" onmousedown="handlePan(1,0)">
                  <use xlink:href="#rim" fill="#404040">
                        <set attributeName="fill" to="#808080" begin="arrowRight.mouseover" end="arrowRight.mouseout"/>
                  </use>
                  <path fill="none" stroke="white" stroke-width="1.5" d="M0,-3.0v7 M-2.5,-0.5L0,-3.0L2.5,-0.5"/>
                </g>
                <g id="arrowDown" xlink:href="#dirArrow" transform="rotate(180) translate(-30 -48)" onmousedown="handlePan(0,1)">
                  <use xlink:href="#rim" fill="#404040">
                        <set attributeName="fill" to="#808080" begin="arrowDown.mouseover" end="arrowDown.mouseout"/>
                  </use>
                  <path fill="none" stroke="white" stroke-width="1.5" d="M0,-3.0v7 M-2.5,-0.5L0,-3.0L2.5,-0.5"/>
                </g>
                <g id="arrowLeft" xlink:href="#dirArrow" transform="rotate(270) translate(-36 17)" onmousedown="handlePan(-1,0)">
                  <use xlink:href="#rim" fill="#404040">
                        <set attributeName="fill" to="#808080" begin="arrowLeft.mouseover" end="arrowLeft.mouseout"/>
                  </use>
                  <path fill="none" stroke="white" stroke-width="1.5" d="M0,-3.0v7 M-2.5,-0.5L0,-3.0L2.5,-0.5"/>
                </g>
        </g>
        <svg viewBox="0 0 15 15" width="100%" height="30px" preserveAspectRatio="xMaxYMin meet">
         <g id="arrow_out" transform="scale(0.3 0.3)">
          <a xlink:href="ioptrap_8c__incl_org.svg" target="_base">
           <rect id="button" ry="5" rx="5" y="6" x="6" height="38" width="38"
                fill="#f2f5e9" fill-opacity="0.5" stroke="#606060" stroke-width="1.0"/>
           <path id="arrow"
             d="M 11.500037,31.436501 C 11.940474,20.09759 22.043105,11.32322 32.158766,21.979434 L 37.068811,17.246167 C 37.068811,17.246167 37.088388,32 37.088388,32 L 22.160133,31.978069 C 22.160133,31.978069 26.997745,27.140456 26.997745,27.140456 C 18.528582,18.264221 13.291696,25.230495 11.500037,31.436501 z"
             style="fill:#404040;"/>
          </a>
         </g>
        </svg>
</svg>
