<?xml version="1.0" encoding="UTF-8" standalone="no"?>
<!DOCTYPE svg PUBLIC "-//W3C//DTD SVG 1.1//EN"
 "http://www.w3.org/Graphics/SVG/1.1/DTD/svg11.dtd">
<!-- Generated by graphviz version 2.46.1 (20210215.1649)
 -->
<!-- Title: ee/rpc/cdvd/src/libcdvd.c Pages: 1 -->
<svg width="524pt" height="308pt"
 viewBox="0.00 0.00 524.00 308.00" xmlns="http://www.w3.org/2000/svg" xmlns:xlink="http://www.w3.org/1999/xlink">
<g id="graph0" class="graph" transform="scale(1 1) rotate(0) translate(4 304)">
<title>ee/rpc/cdvd/src/libcdvd.c</title>
<polygon fill="white" stroke="transparent" points="-4,4 -4,-304 520,-304 520,4 -4,4"/>
<!-- Node1 -->
<g id="node1" class="node">
<title>Node1</title>
<g id="a_node1"><a xlink:title=" ">
<polygon fill="#bfbfbf" stroke="black" points="200.5,-280.5 200.5,-299.5 325.5,-299.5 325.5,-280.5 200.5,-280.5"/>
<text text-anchor="middle" x="263" y="-287.5" font-family="Helvetica,sans-Serif" font-size="10.00">ee/rpc/cdvd/src/libcdvd.c</text>
</a>
</g>
</g>
<!-- Node2 -->
<g id="node2" class="node">
<title>Node2</title>
<g id="a_node2"><a xlink:href="stdio_8h.html" target="_top" xlink:title=" ">
<polygon fill="white" stroke="black" points="109.5,-168.5 109.5,-187.5 154.5,-187.5 154.5,-168.5 109.5,-168.5"/>
<text text-anchor="middle" x="132" y="-175.5" font-family="Helvetica,sans-Serif" font-size="10.00">stdio.h</text>
</a>
</g>
</g>
<!-- Node1&#45;&gt;Node2 -->
<g id="edge1" class="edge">
<title>Node1&#45;&gt;Node2</title>
<path fill="none" stroke="midnightblue" d="M244.69,-280.36C228.57,-272.26 204.92,-259.14 187,-244 170.14,-229.76 154.24,-210.02 143.91,-196.04"/>
<polygon fill="midnightblue" stroke="midnightblue" points="146.66,-193.87 137.98,-187.8 140.98,-197.96 146.66,-193.87"/>
</g>
<!-- Node3 -->
<g id="node3" class="node">
<title>Node3</title>
<g id="a_node3"><a xlink:title=" ">
<polygon fill="white" stroke="#bfbfbf" points="50.5,-112.5 50.5,-131.5 101.5,-131.5 101.5,-112.5 50.5,-112.5"/>
<text text-anchor="middle" x="76" y="-119.5" font-family="Helvetica,sans-Serif" font-size="10.00">stdarg.h</text>
</a>
</g>
</g>
<!-- Node1&#45;&gt;Node3 -->
<g id="edge24" class="edge">
<title>Node1&#45;&gt;Node3</title>
<path fill="none" stroke="midnightblue" d="M236.75,-280.44C199.9,-266.99 133.59,-237.22 100,-188 90.26,-173.73 83.9,-155.02 80.18,-141.33"/>
<polygon fill="midnightblue" stroke="midnightblue" points="83.58,-140.48 77.76,-131.62 76.79,-142.17 83.58,-140.48"/>
</g>
<!-- Node7 -->
<g id="node7" class="node">
<title>Node7</title>
<g id="a_node7"><a xlink:href="tamtypes_8h.html" target="_top" xlink:title=" ">
<polygon fill="white" stroke="black" points="205,-0.5 205,-19.5 269,-19.5 269,-0.5 205,-0.5"/>
<text text-anchor="middle" x="237" y="-7.5" font-family="Helvetica,sans-Serif" font-size="10.00">tamtypes.h</text>
</a>
</g>
</g>
<!-- Node1&#45;&gt;Node7 -->
<g id="edge7" class="edge">
<title>Node1&#45;&gt;Node7</title>
<path fill="none" stroke="midnightblue" d="M266.91,-280.36C274.83,-262.07 292,-217.91 292,-179 292,-179 292,-179 292,-121 292,-84.57 267.57,-47.84 251.27,-27.39"/>
<polygon fill="midnightblue" stroke="midnightblue" points="253.95,-25.14 244.88,-19.67 248.56,-29.6 253.95,-25.14"/>
</g>
<!-- Node8 -->
<g id="node8" class="node">
<title>Node8</title>
<g id="a_node8"><a xlink:href="kernel_8h.html" target="_top" xlink:title=" ">
<polygon fill="white" stroke="black" points="0,-168.5 0,-187.5 50,-187.5 50,-168.5 0,-168.5"/>
<text text-anchor="middle" x="25" y="-175.5" font-family="Helvetica,sans-Serif" font-size="10.00">kernel.h</text>
</a>
</g>
</g>
<!-- Node1&#45;&gt;Node8 -->
<g id="edge8" class="edge">
<title>Node1&#45;&gt;Node8</title>
<path fill="none" stroke="midnightblue" d="M200.38,-287.4C158.33,-283.49 103.6,-272.65 64,-244 48.04,-232.45 37.41,-212.19 31.34,-197.35"/>
<polygon fill="midnightblue" stroke="midnightblue" points="34.5,-195.83 27.71,-187.7 27.95,-198.3 34.5,-195.83"/>
</g>
<!-- Node10 -->
<g id="node10" class="node">
<title>Node10</title>
<g id="a_node10"><a xlink:title=" ">
<polygon fill="white" stroke="#bfbfbf" points="394,-224.5 394,-243.5 442,-243.5 442,-224.5 394,-224.5"/>
<text text-anchor="middle" x="418" y="-231.5" font-family="Helvetica,sans-Serif" font-size="10.00">sifrpc.h</text>
</a>
</g>
</g>
<!-- Node1&#45;&gt;Node10 -->
<g id="edge13" class="edge">
<title>Node1&#45;&gt;Node10</title>
<path fill="none" stroke="midnightblue" d="M287.56,-280.44C313.6,-271.37 354.91,-256.98 384.05,-246.83"/>
<polygon fill="midnightblue" stroke="midnightblue" points="385.52,-250.02 393.81,-243.43 383.22,-243.41 385.52,-250.02"/>
</g>
<!-- Node11 -->
<g id="node11" class="node">
<title>Node11</title>
<g id="a_node11"><a xlink:href="string_8h_source.html" target="_top" xlink:title=" ">
<polygon fill="white" stroke="black" points="196,-224.5 196,-243.5 244,-243.5 244,-224.5 196,-224.5"/>
<text text-anchor="middle" x="220" y="-231.5" font-family="Helvetica,sans-Serif" font-size="10.00">string.h</text>
</a>
</g>
</g>
<!-- Node1&#45;&gt;Node11 -->
<g id="edge14" class="edge">
<title>Node1&#45;&gt;Node11</title>
<path fill="none" stroke="midnightblue" d="M255.9,-280.08C249.76,-272.38 240.73,-261.03 233.26,-251.65"/>
<polygon fill="midnightblue" stroke="midnightblue" points="235.94,-249.39 226.97,-243.75 230.46,-253.75 235.94,-249.39"/>
</g>
<!-- Node14 -->
<g id="node14" class="node">
<title>Node14</title>
<g id="a_node14"><a xlink:href="libcdvd_8h.html" target="_top" xlink:title=" ">
<polygon fill="white" stroke="black" points="320.5,-224.5 320.5,-243.5 375.5,-243.5 375.5,-224.5 320.5,-224.5"/>
<text text-anchor="middle" x="348" y="-231.5" font-family="Helvetica,sans-Serif" font-size="10.00">libcdvd.h</text>
</a>
</g>
</g>
<!-- Node1&#45;&gt;Node14 -->
<g id="edge21" class="edge">
<title>Node1&#45;&gt;Node14</title>
<path fill="none" stroke="midnightblue" d="M276.66,-280.32C289.92,-271.9 310.27,-258.97 325.85,-249.07"/>
<polygon fill="midnightblue" stroke="midnightblue" points="327.81,-251.97 334.38,-243.65 324.06,-246.06 327.81,-251.97"/>
</g>
<!-- Node16 -->
<g id="node16" class="node">
<title>Node16</title>
<g id="a_node16"><a xlink:href="ee_2rpc_2cdvd_2src_2internal_8h.html" target="_top" xlink:title=" ">
<polygon fill="white" stroke="black" points="460,-224.5 460,-243.5 516,-243.5 516,-224.5 460,-224.5"/>
<text text-anchor="middle" x="488" y="-231.5" font-family="Helvetica,sans-Serif" font-size="10.00">internal.h</text>
</a>
</g>
</g>
<!-- Node1&#45;&gt;Node16 -->
<g id="edge25" class="edge">
<title>Node1&#45;&gt;Node16</title>
<path fill="none" stroke="midnightblue" d="M298.7,-280.5C334.53,-271.95 391.57,-258.33 449.96,-244.25"/>
<polygon fill="midnightblue" stroke="midnightblue" points="450.82,-247.64 459.72,-241.89 449.18,-240.83 450.82,-247.64"/>
</g>
<!-- Node2&#45;&gt;Node3 -->
<g id="edge2" class="edge">
<title>Node2&#45;&gt;Node3</title>
<path fill="none" stroke="midnightblue" d="M123,-168.32C114.81,-160.42 102.49,-148.55 92.53,-138.94"/>
<polygon fill="midnightblue" stroke="midnightblue" points="94.79,-136.26 85.16,-131.83 89.93,-141.29 94.79,-136.26"/>
</g>
<!-- Node4 -->
<g id="node4" class="node">
<title>Node4</title>
<g id="a_node4"><a xlink:href="irx_8h.html" target="_top" xlink:title=" ">
<polygon fill="white" stroke="black" points="120,-112.5 120,-131.5 154,-131.5 154,-112.5 120,-112.5"/>
<text text-anchor="middle" x="137" y="-119.5" font-family="Helvetica,sans-Serif" font-size="10.00">irx.h</text>
</a>
</g>
</g>
<!-- Node2&#45;&gt;Node4 -->
<g id="edge3" class="edge">
<title>Node2&#45;&gt;Node4</title>
<path fill="none" stroke="midnightblue" d="M132.83,-168.08C133.48,-161.01 134.42,-150.86 135.24,-141.99"/>
<polygon fill="midnightblue" stroke="midnightblue" points="138.75,-142.03 136.19,-131.75 131.78,-141.39 138.75,-142.03"/>
</g>
<!-- Node5 -->
<g id="node5" class="node">
<title>Node5</title>
<g id="a_node5"><a xlink:href="types_8h_source.html" target="_top" xlink:title=" ">
<polygon fill="white" stroke="black" points="139.5,-56.5 139.5,-75.5 186.5,-75.5 186.5,-56.5 139.5,-56.5"/>
<text text-anchor="middle" x="163" y="-63.5" font-family="Helvetica,sans-Serif" font-size="10.00">types.h</text>
</a>
</g>
</g>
<!-- Node4&#45;&gt;Node5 -->
<g id="edge4" class="edge">
<title>Node4&#45;&gt;Node5</title>
<path fill="none" stroke="midnightblue" d="M141.29,-112.08C144.85,-104.69 150.02,-93.95 154.42,-84.81"/>
<polygon fill="midnightblue" stroke="midnightblue" points="157.6,-86.28 158.79,-75.75 151.29,-83.24 157.6,-86.28"/>
</g>
<!-- Node6 -->
<g id="node6" class="node">
<title>Node6</title>
<g id="a_node6"><a xlink:title=" ">
<polygon fill="white" stroke="#bfbfbf" points="47.5,-0.5 47.5,-19.5 98.5,-19.5 98.5,-0.5 47.5,-0.5"/>
<text text-anchor="middle" x="73" y="-7.5" font-family="Helvetica,sans-Serif" font-size="10.00">stddef.h</text>
</a>
</g>
</g>
<!-- Node5&#45;&gt;Node6 -->
<g id="edge5" class="edge">
<title>Node5&#45;&gt;Node6</title>
<path fill="none" stroke="midnightblue" d="M148.54,-56.32C134.5,-47.9 112.95,-34.97 96.46,-25.07"/>
<polygon fill="midnightblue" stroke="midnightblue" points="97.8,-21.8 87.42,-19.65 94.2,-27.8 97.8,-21.8"/>
</g>
<!-- Node5&#45;&gt;Node7 -->
<g id="edge6" class="edge">
<title>Node5&#45;&gt;Node7</title>
<path fill="none" stroke="midnightblue" d="M174.89,-56.32C186.15,-48.11 203.29,-35.6 216.71,-25.81"/>
<polygon fill="midnightblue" stroke="midnightblue" points="218.88,-28.56 224.89,-19.83 214.75,-22.9 218.88,-28.56"/>
</g>
<!-- Node8&#45;&gt;Node3 -->
<g id="edge10" class="edge">
<title>Node8&#45;&gt;Node3</title>
<path fill="none" stroke="midnightblue" d="M33.42,-168.08C40.85,-160.22 51.85,-148.57 60.81,-139.08"/>
<polygon fill="midnightblue" stroke="midnightblue" points="63.41,-141.42 67.74,-131.75 58.32,-136.62 63.41,-141.42"/>
</g>
<!-- Node8&#45;&gt;Node6 -->
<g id="edge9" class="edge">
<title>Node8&#45;&gt;Node6</title>
<path fill="none" stroke="midnightblue" d="M22.33,-168.28C16.5,-147.66 4.54,-94.69 22,-56 27.62,-43.56 38.56,-33.17 48.88,-25.53"/>
<polygon fill="midnightblue" stroke="midnightblue" points="51.01,-28.31 57.27,-19.76 47.04,-22.54 51.01,-28.31"/>
</g>
<!-- Node9 -->
<g id="node9" class="node">
<title>Node9</title>
<g id="a_node9"><a xlink:href="sifdma_8h.html" target="_top" xlink:title=" ">
<polygon fill="white" stroke="black" points="31.5,-56.5 31.5,-75.5 84.5,-75.5 84.5,-56.5 31.5,-56.5"/>
<text text-anchor="middle" x="58" y="-63.5" font-family="Helvetica,sans-Serif" font-size="10.00">sifdma.h</text>
</a>
</g>
</g>
<!-- Node8&#45;&gt;Node9 -->
<g id="edge11" class="edge">
<title>Node8&#45;&gt;Node9</title>
<path fill="none" stroke="midnightblue" d="M26.75,-168.5C29.4,-156 34.79,-131.98 41,-112 43.82,-102.92 47.5,-93.01 50.71,-84.8"/>
<polygon fill="midnightblue" stroke="midnightblue" points="53.96,-86.1 54.43,-75.52 47.46,-83.5 53.96,-86.1"/>
</g>
<!-- Node9&#45;&gt;Node7 -->
<g id="edge12" class="edge">
<title>Node9&#45;&gt;Node7</title>
<path fill="none" stroke="midnightblue" d="M84.8,-56.92C115.07,-47.78 164.57,-32.85 198.86,-22.51"/>
<polygon fill="midnightblue" stroke="midnightblue" points="199.97,-25.83 208.54,-19.59 197.95,-19.12 199.97,-25.83"/>
</g>
<!-- Node12 -->
<g id="node12" class="node">
<title>Node12</title>
<g id="a_node12"><a xlink:href="sysclib_8h.html" target="_top" xlink:title=" ">
<polygon fill="white" stroke="black" points="173,-168.5 173,-187.5 227,-187.5 227,-168.5 173,-168.5"/>
<text text-anchor="middle" x="200" y="-175.5" font-family="Helvetica,sans-Serif" font-size="10.00">sysclib.h</text>
</a>
</g>
</g>
<!-- Node11&#45;&gt;Node12 -->
<g id="edge15" class="edge">
<title>Node11&#45;&gt;Node12</title>
<path fill="none" stroke="midnightblue" d="M216.7,-224.08C214.02,-216.85 210.15,-206.41 206.81,-197.4"/>
<polygon fill="midnightblue" stroke="midnightblue" points="210,-195.91 203.24,-187.75 203.43,-198.34 210,-195.91"/>
</g>
<!-- Node12&#45;&gt;Node3 -->
<g id="edge18" class="edge">
<title>Node12&#45;&gt;Node3</title>
<path fill="none" stroke="midnightblue" d="M180.35,-168.44C160.04,-159.6 128.1,-145.69 104.9,-135.59"/>
<polygon fill="midnightblue" stroke="midnightblue" points="106.12,-132.3 95.56,-131.52 103.33,-138.72 106.12,-132.3"/>
</g>
<!-- Node12&#45;&gt;Node4 -->
<g id="edge17" class="edge">
<title>Node12&#45;&gt;Node4</title>
<path fill="none" stroke="midnightblue" d="M189.88,-168.32C180.47,-160.26 166.26,-148.08 154.93,-138.37"/>
<polygon fill="midnightblue" stroke="midnightblue" points="157.18,-135.68 147.31,-131.83 152.62,-141 157.18,-135.68"/>
</g>
<!-- Node12&#45;&gt;Node5 -->
<g id="edge16" class="edge">
<title>Node12&#45;&gt;Node5</title>
<path fill="none" stroke="midnightblue" d="M197.1,-168.37C191.1,-150.54 177.23,-109.3 169.15,-85.27"/>
<polygon fill="midnightblue" stroke="midnightblue" points="172.4,-83.95 165.89,-75.59 165.76,-86.19 172.4,-83.95"/>
</g>
<!-- Node13 -->
<g id="node13" class="node">
<title>Node13</title>
<g id="a_node13"><a xlink:href="setjmp_8h.html" target="_top" xlink:title=" ">
<polygon fill="white" stroke="black" points="210.5,-112.5 210.5,-131.5 263.5,-131.5 263.5,-112.5 210.5,-112.5"/>
<text text-anchor="middle" x="237" y="-119.5" font-family="Helvetica,sans-Serif" font-size="10.00">setjmp.h</text>
</a>
</g>
</g>
<!-- Node12&#45;&gt;Node13 -->
<g id="edge19" class="edge">
<title>Node12&#45;&gt;Node13</title>
<path fill="none" stroke="midnightblue" d="M206.11,-168.08C211.28,-160.53 218.85,-149.49 225.19,-140.23"/>
<polygon fill="midnightblue" stroke="midnightblue" points="228.24,-141.98 231,-131.75 222.46,-138.02 228.24,-141.98"/>
</g>
<!-- Node13&#45;&gt;Node7 -->
<g id="edge20" class="edge">
<title>Node13&#45;&gt;Node7</title>
<path fill="none" stroke="midnightblue" d="M237,-112.37C237,-94.62 237,-53.67 237,-29.6"/>
<polygon fill="midnightblue" stroke="midnightblue" points="240.5,-29.59 237,-19.59 233.5,-29.59 240.5,-29.59"/>
</g>
<!-- Node15 -->
<g id="node15" class="node">
<title>Node15</title>
<g id="a_node15"><a xlink:href="libcdvd-common_8h.html" target="_top" xlink:title=" ">
<polygon fill="white" stroke="black" points="320.5,-56.5 320.5,-75.5 415.5,-75.5 415.5,-56.5 320.5,-56.5"/>
<text text-anchor="middle" x="368" y="-63.5" font-family="Helvetica,sans-Serif" font-size="10.00">libcdvd&#45;common.h</text>
</a>
</g>
</g>
<!-- Node14&#45;&gt;Node15 -->
<g id="edge22" class="edge">
<title>Node14&#45;&gt;Node15</title>
<path fill="none" stroke="midnightblue" d="M349.08,-224.08C352.22,-197.95 361.47,-121.21 365.76,-85.58"/>
<polygon fill="midnightblue" stroke="midnightblue" points="369.25,-85.92 366.97,-75.57 362.3,-85.08 369.25,-85.92"/>
</g>
<!-- Node15&#45;&gt;Node7 -->
<g id="edge23" class="edge">
<title>Node15&#45;&gt;Node7</title>
<path fill="none" stroke="midnightblue" d="M347.24,-56.44C325.68,-47.56 291.74,-33.56 267.21,-23.45"/>
<polygon fill="midnightblue" stroke="midnightblue" points="268.24,-20.09 257.66,-19.52 265.57,-26.56 268.24,-20.09"/>
</g>
</g>
</svg>
