<?xml version="1.0" encoding="UTF-8" standalone="no"?>
<!DOCTYPE svg PUBLIC "-//W3C//DTD SVG 1.1//EN"
 "http://www.w3.org/Graphics/SVG/1.1/DTD/svg11.dtd">
<!-- Generated by graphviz version 2.46.1 (20210215.1649)
 -->
<!-- Title: ee/rpc/multitap/src/libmtap.c Pages: 1 -->
<svg width="376pt" height="319pt"
 viewBox="0.00 0.00 376.00 319.00" xmlns="http://www.w3.org/2000/svg" xmlns:xlink="http://www.w3.org/1999/xlink">
<g id="graph0" class="graph" transform="scale(1 1) rotate(0) translate(4 315)">
<title>ee/rpc/multitap/src/libmtap.c</title>
<polygon fill="white" stroke="transparent" points="-4,4 -4,-315 372,-315 372,4 -4,4"/>
<!-- Node1 -->
<g id="node1" class="node">
<title>Node1</title>
<g id="a_node1"><a xlink:title=" ">
<polygon fill="#bfbfbf" stroke="black" points="150,-280.5 150,-310.5 248,-310.5 248,-280.5 150,-280.5"/>
<text text-anchor="start" x="158" y="-298.5" font-family="Helvetica,sans-Serif" font-size="10.00">ee/rpc/multitap/src</text>
<text text-anchor="middle" x="199" y="-287.5" font-family="Helvetica,sans-Serif" font-size="10.00">/libmtap.c</text>
</a>
</g>
</g>
<!-- Node2 -->
<g id="node2" class="node">
<title>Node2</title>
<g id="a_node2"><a xlink:href="tamtypes_8h.html" target="_top" xlink:title=" ">
<polygon fill="white" stroke="black" points="57,-0.5 57,-19.5 121,-19.5 121,-0.5 57,-0.5"/>
<text text-anchor="middle" x="89" y="-7.5" font-family="Helvetica,sans-Serif" font-size="10.00">tamtypes.h</text>
</a>
</g>
</g>
<!-- Node1&#45;&gt;Node2 -->
<g id="edge1" class="edge">
<title>Node1&#45;&gt;Node2</title>
<path fill="none" stroke="midnightblue" d="M149.81,-287.74C90.88,-276.56 0,-248.11 0,-179 0,-179 0,-179 0,-121 0,-90.9 0.98,-80.11 19,-56 29.19,-42.37 44.83,-31.75 58.74,-24.26"/>
<polygon fill="midnightblue" stroke="midnightblue" points="60.66,-27.21 68.01,-19.58 57.5,-20.97 60.66,-27.21"/>
</g>
<!-- Node3 -->
<g id="node3" class="node">
<title>Node3</title>
<g id="a_node3"><a xlink:href="string_8h_source.html" target="_top" xlink:title=" ">
<polygon fill="white" stroke="black" points="103,-224.5 103,-243.5 151,-243.5 151,-224.5 103,-224.5"/>
<text text-anchor="middle" x="127" y="-231.5" font-family="Helvetica,sans-Serif" font-size="10.00">string.h</text>
</a>
</g>
</g>
<!-- Node1&#45;&gt;Node3 -->
<g id="edge2" class="edge">
<title>Node1&#45;&gt;Node3</title>
<path fill="none" stroke="midnightblue" d="M181.94,-280.4C170.94,-271.31 156.63,-259.49 145.38,-250.19"/>
<polygon fill="midnightblue" stroke="midnightblue" points="147.41,-247.33 137.48,-243.66 142.96,-252.73 147.41,-247.33"/>
</g>
<!-- Node8 -->
<g id="node8" class="node">
<title>Node8</title>
<g id="a_node8"><a xlink:title=" ">
<polygon fill="white" stroke="#bfbfbf" points="157.5,-112.5 157.5,-131.5 208.5,-131.5 208.5,-112.5 157.5,-112.5"/>
<text text-anchor="middle" x="183" y="-119.5" font-family="Helvetica,sans-Serif" font-size="10.00">stdarg.h</text>
</a>
</g>
</g>
<!-- Node1&#45;&gt;Node8 -->
<g id="edge18" class="edge">
<title>Node1&#45;&gt;Node8</title>
<path fill="none" stroke="midnightblue" d="M197.69,-280.47C194.82,-249.7 187.98,-176.33 184.74,-141.7"/>
<polygon fill="midnightblue" stroke="midnightblue" points="188.21,-141.19 183.8,-131.56 181.24,-141.84 188.21,-141.19"/>
</g>
<!-- Node10 -->
<g id="node10" class="node">
<title>Node10</title>
<g id="a_node10"><a xlink:href="kernel_8h.html" target="_top" xlink:title=" ">
<polygon fill="white" stroke="black" points="210,-168.5 210,-187.5 260,-187.5 260,-168.5 210,-168.5"/>
<text text-anchor="middle" x="235" y="-175.5" font-family="Helvetica,sans-Serif" font-size="10.00">kernel.h</text>
</a>
</g>
</g>
<!-- Node1&#45;&gt;Node10 -->
<g id="edge12" class="edge">
<title>Node1&#45;&gt;Node10</title>
<path fill="none" stroke="midnightblue" d="M203.41,-280.34C209.93,-259.43 222.12,-220.31 229.31,-197.27"/>
<polygon fill="midnightblue" stroke="midnightblue" points="232.66,-198.26 232.3,-187.67 225.98,-196.17 232.66,-198.26"/>
</g>
<!-- Node12 -->
<g id="node12" class="node">
<title>Node12</title>
<g id="a_node12"><a xlink:title=" ">
<polygon fill="white" stroke="#bfbfbf" points="246,-224.5 246,-243.5 294,-243.5 294,-224.5 246,-224.5"/>
<text text-anchor="middle" x="270" y="-231.5" font-family="Helvetica,sans-Serif" font-size="10.00">sifrpc.h</text>
</a>
</g>
</g>
<!-- Node1&#45;&gt;Node12 -->
<g id="edge17" class="edge">
<title>Node1&#45;&gt;Node12</title>
<path fill="none" stroke="midnightblue" d="M215.83,-280.4C226.67,-271.31 240.78,-259.49 251.87,-250.19"/>
<polygon fill="midnightblue" stroke="midnightblue" points="254.25,-252.76 259.67,-243.66 249.76,-247.4 254.25,-252.76"/>
</g>
<!-- Node13 -->
<g id="node13" class="node">
<title>Node13</title>
<g id="a_node13"><a xlink:href="libmtap_8h.html" target="_top" xlink:title=" ">
<polygon fill="white" stroke="black" points="312,-224.5 312,-243.5 368,-243.5 368,-224.5 312,-224.5"/>
<text text-anchor="middle" x="340" y="-231.5" font-family="Helvetica,sans-Serif" font-size="10.00">libmtap.h</text>
</a>
</g>
</g>
<!-- Node1&#45;&gt;Node13 -->
<g id="edge19" class="edge">
<title>Node1&#45;&gt;Node13</title>
<path fill="none" stroke="midnightblue" d="M232.42,-280.4C255.97,-270.46 287.24,-257.26 309.99,-247.66"/>
<polygon fill="midnightblue" stroke="midnightblue" points="311.63,-250.77 319.48,-243.66 308.91,-244.32 311.63,-250.77"/>
</g>
<!-- Node4 -->
<g id="node4" class="node">
<title>Node4</title>
<g id="a_node4"><a xlink:href="sysclib_8h.html" target="_top" xlink:title=" ">
<polygon fill="white" stroke="black" points="95,-168.5 95,-187.5 149,-187.5 149,-168.5 95,-168.5"/>
<text text-anchor="middle" x="122" y="-175.5" font-family="Helvetica,sans-Serif" font-size="10.00">sysclib.h</text>
</a>
</g>
</g>
<!-- Node3&#45;&gt;Node4 -->
<g id="edge3" class="edge">
<title>Node3&#45;&gt;Node4</title>
<path fill="none" stroke="midnightblue" d="M126.17,-224.08C125.52,-217.01 124.58,-206.86 123.76,-197.99"/>
<polygon fill="midnightblue" stroke="midnightblue" points="127.22,-197.39 122.81,-187.75 120.25,-198.03 127.22,-197.39"/>
</g>
<!-- Node5 -->
<g id="node5" class="node">
<title>Node5</title>
<g id="a_node5"><a xlink:href="types_8h_source.html" target="_top" xlink:title=" ">
<polygon fill="white" stroke="black" points="99.5,-56.5 99.5,-75.5 146.5,-75.5 146.5,-56.5 99.5,-56.5"/>
<text text-anchor="middle" x="123" y="-63.5" font-family="Helvetica,sans-Serif" font-size="10.00">types.h</text>
</a>
</g>
</g>
<!-- Node4&#45;&gt;Node5 -->
<g id="edge4" class="edge">
<title>Node4&#45;&gt;Node5</title>
<path fill="none" stroke="midnightblue" d="M114.62,-168.38C105.05,-156.13 90.23,-132.85 96,-112 98.79,-101.92 104.51,-91.83 109.97,-83.77"/>
<polygon fill="midnightblue" stroke="midnightblue" points="112.82,-85.79 115.85,-75.64 107.15,-81.69 112.82,-85.79"/>
</g>
<!-- Node7 -->
<g id="node7" class="node">
<title>Node7</title>
<g id="a_node7"><a xlink:href="irx_8h.html" target="_top" xlink:title=" ">
<polygon fill="white" stroke="black" points="105,-112.5 105,-131.5 139,-131.5 139,-112.5 105,-112.5"/>
<text text-anchor="middle" x="122" y="-119.5" font-family="Helvetica,sans-Serif" font-size="10.00">irx.h</text>
</a>
</g>
</g>
<!-- Node4&#45;&gt;Node7 -->
<g id="edge7" class="edge">
<title>Node4&#45;&gt;Node7</title>
<path fill="none" stroke="midnightblue" d="M122,-168.08C122,-161.01 122,-150.86 122,-141.99"/>
<polygon fill="midnightblue" stroke="midnightblue" points="125.5,-141.75 122,-131.75 118.5,-141.75 125.5,-141.75"/>
</g>
<!-- Node4&#45;&gt;Node8 -->
<g id="edge9" class="edge">
<title>Node4&#45;&gt;Node8</title>
<path fill="none" stroke="midnightblue" d="M131.8,-168.32C140.82,-160.34 154.41,-148.31 165.32,-138.65"/>
<polygon fill="midnightblue" stroke="midnightblue" points="167.85,-141.08 173.02,-131.83 163.21,-135.84 167.85,-141.08"/>
</g>
<!-- Node9 -->
<g id="node9" class="node">
<title>Node9</title>
<g id="a_node9"><a xlink:href="setjmp_8h.html" target="_top" xlink:title=" ">
<polygon fill="white" stroke="black" points="28.5,-56.5 28.5,-75.5 81.5,-75.5 81.5,-56.5 28.5,-56.5"/>
<text text-anchor="middle" x="55" y="-63.5" font-family="Helvetica,sans-Serif" font-size="10.00">setjmp.h</text>
</a>
</g>
</g>
<!-- Node4&#45;&gt;Node9 -->
<g id="edge10" class="edge">
<title>Node4&#45;&gt;Node9</title>
<path fill="none" stroke="midnightblue" d="M115.29,-168.26C108.57,-159.35 98.1,-145.03 90,-132 80.3,-116.39 70.48,-97.86 63.72,-84.59"/>
<polygon fill="midnightblue" stroke="midnightblue" points="66.82,-82.97 59.2,-75.6 60.57,-86.11 66.82,-82.97"/>
</g>
<!-- Node5&#45;&gt;Node2 -->
<g id="edge6" class="edge">
<title>Node5&#45;&gt;Node2</title>
<path fill="none" stroke="midnightblue" d="M117.39,-56.08C112.63,-48.53 105.68,-37.49 99.85,-28.23"/>
<polygon fill="midnightblue" stroke="midnightblue" points="102.8,-26.35 94.51,-19.75 96.88,-30.08 102.8,-26.35"/>
</g>
<!-- Node6 -->
<g id="node6" class="node">
<title>Node6</title>
<g id="a_node6"><a xlink:title=" ">
<polygon fill="white" stroke="#bfbfbf" points="194.5,-0.5 194.5,-19.5 245.5,-19.5 245.5,-0.5 194.5,-0.5"/>
<text text-anchor="middle" x="220" y="-7.5" font-family="Helvetica,sans-Serif" font-size="10.00">stddef.h</text>
</a>
</g>
</g>
<!-- Node5&#45;&gt;Node6 -->
<g id="edge5" class="edge">
<title>Node5&#45;&gt;Node6</title>
<path fill="none" stroke="midnightblue" d="M138.58,-56.32C154,-47.74 177.81,-34.49 195.71,-24.52"/>
<polygon fill="midnightblue" stroke="midnightblue" points="197.42,-27.58 204.45,-19.65 194.01,-21.46 197.42,-27.58"/>
</g>
<!-- Node7&#45;&gt;Node5 -->
<g id="edge8" class="edge">
<title>Node7&#45;&gt;Node5</title>
<path fill="none" stroke="midnightblue" d="M122.17,-112.08C122.3,-105.01 122.48,-94.86 122.65,-85.99"/>
<polygon fill="midnightblue" stroke="midnightblue" points="126.15,-85.81 122.84,-75.75 119.15,-85.68 126.15,-85.81"/>
</g>
<!-- Node9&#45;&gt;Node2 -->
<g id="edge11" class="edge">
<title>Node9&#45;&gt;Node2</title>
<path fill="none" stroke="midnightblue" d="M60.61,-56.08C65.37,-48.53 72.32,-37.49 78.15,-28.23"/>
<polygon fill="midnightblue" stroke="midnightblue" points="81.12,-30.08 83.49,-19.75 75.2,-26.35 81.12,-30.08"/>
</g>
<!-- Node10&#45;&gt;Node6 -->
<g id="edge13" class="edge">
<title>Node10&#45;&gt;Node6</title>
<path fill="none" stroke="midnightblue" d="M237.15,-168.35C241.78,-148.3 251.53,-97.21 242,-56 239.77,-46.36 235.18,-36.41 230.76,-28.31"/>
<polygon fill="midnightblue" stroke="midnightblue" points="233.7,-26.4 225.64,-19.52 227.65,-29.92 233.7,-26.4"/>
</g>
<!-- Node10&#45;&gt;Node8 -->
<g id="edge14" class="edge">
<title>Node10&#45;&gt;Node8</title>
<path fill="none" stroke="midnightblue" d="M226.41,-168.08C218.84,-160.22 207.62,-148.57 198.49,-139.08"/>
<polygon fill="midnightblue" stroke="midnightblue" points="200.88,-136.53 191.43,-131.75 195.84,-141.38 200.88,-136.53"/>
</g>
<!-- Node11 -->
<g id="node11" class="node">
<title>Node11</title>
<g id="a_node11"><a xlink:href="sifdma_8h.html" target="_top" xlink:title=" ">
<polygon fill="white" stroke="black" points="179.5,-56.5 179.5,-75.5 232.5,-75.5 232.5,-56.5 179.5,-56.5"/>
<text text-anchor="middle" x="206" y="-63.5" font-family="Helvetica,sans-Serif" font-size="10.00">sifdma.h</text>
</a>
</g>
</g>
<!-- Node10&#45;&gt;Node11 -->
<g id="edge15" class="edge">
<title>Node10&#45;&gt;Node11</title>
<path fill="none" stroke="midnightblue" d="M232.7,-168.17C229.45,-155.66 223.3,-132.07 218,-112 215.7,-103.29 213.13,-93.65 210.96,-85.52"/>
<polygon fill="midnightblue" stroke="midnightblue" points="214.28,-84.38 208.31,-75.62 207.52,-86.19 214.28,-84.38"/>
</g>
<!-- Node11&#45;&gt;Node2 -->
<g id="edge16" class="edge">
<title>Node11&#45;&gt;Node2</title>
<path fill="none" stroke="midnightblue" d="M187.46,-56.44C168.38,-47.64 138.43,-33.81 116.56,-23.72"/>
<polygon fill="midnightblue" stroke="midnightblue" points="118,-20.53 107.45,-19.52 115.07,-26.88 118,-20.53"/>
</g>
</g>
</svg>
