<?xml version="1.0" encoding="UTF-8" standalone="no"?>
<!DOCTYPE svg PUBLIC "-//W3C//DTD SVG 1.1//EN"
 "http://www.w3.org/Graphics/SVG/1.1/DTD/svg11.dtd">
<!-- Generated by graphviz version 2.46.1 (20210215.1649)
 -->
<!-- Title: ee/rpc/mouse/src/libmouse.c Pages: 1 -->
<svg width="442pt" height="308pt"
 viewBox="0.00 0.00 442.19 308.00" xmlns="http://www.w3.org/2000/svg" xmlns:xlink="http://www.w3.org/1999/xlink">
<g id="graph0" class="graph" transform="scale(1 1) rotate(0) translate(4 304)">
<title>ee/rpc/mouse/src/libmouse.c</title>
<polygon fill="white" stroke="transparent" points="-4,4 -4,-304 438.19,-304 438.19,4 -4,4"/>
<!-- Node1 -->
<g id="node1" class="node">
<title>Node1</title>
<g id="a_node1"><a xlink:title=" ">
<polygon fill="#bfbfbf" stroke="black" points="183.19,-280.5 183.19,-299.5 325.19,-299.5 325.19,-280.5 183.19,-280.5"/>
<text text-anchor="middle" x="254.19" y="-287.5" font-family="Helvetica,sans-Serif" font-size="10.00">ee/rpc/mouse/src/libmouse.c</text>
</a>
</g>
</g>
<!-- Node2 -->
<g id="node2" class="node">
<title>Node2</title>
<g id="a_node2"><a xlink:href="stdio_8h.html" target="_top" xlink:title=" ">
<polygon fill="white" stroke="black" points="86.69,-168.5 86.69,-187.5 131.69,-187.5 131.69,-168.5 86.69,-168.5"/>
<text text-anchor="middle" x="109.19" y="-175.5" font-family="Helvetica,sans-Serif" font-size="10.00">stdio.h</text>
</a>
</g>
</g>
<!-- Node1&#45;&gt;Node2 -->
<g id="edge1" class="edge">
<title>Node1&#45;&gt;Node2</title>
<path fill="none" stroke="midnightblue" d="M231.86,-280.38C213.22,-272.55 186.49,-259.82 166.19,-244 148.32,-230.08 131.7,-209.98 121.08,-195.82"/>
<polygon fill="midnightblue" stroke="midnightblue" points="123.73,-193.52 115.01,-187.51 118.08,-197.65 123.73,-193.52"/>
</g>
<!-- Node7 -->
<g id="node7" class="node">
<title>Node7</title>
<g id="a_node7"><a xlink:href="tamtypes_8h.html" target="_top" xlink:title=" ">
<polygon fill="white" stroke="black" points="189.19,-0.5 189.19,-19.5 253.19,-19.5 253.19,-0.5 189.19,-0.5"/>
<text text-anchor="middle" x="221.19" y="-7.5" font-family="Helvetica,sans-Serif" font-size="10.00">tamtypes.h</text>
</a>
</g>
</g>
<!-- Node1&#45;&gt;Node7 -->
<g id="edge7" class="edge">
<title>Node1&#45;&gt;Node7</title>
<path fill="none" stroke="midnightblue" d="M257.15,-280.28C263.16,-261.82 276.19,-217.37 276.19,-179 276.19,-179 276.19,-179 276.19,-121 276.19,-84.57 251.75,-47.84 235.46,-27.39"/>
<polygon fill="midnightblue" stroke="midnightblue" points="238.14,-25.14 229.07,-19.67 232.75,-29.6 238.14,-25.14"/>
</g>
<!-- Node8 -->
<g id="node8" class="node">
<title>Node8</title>
<g id="a_node8"><a xlink:title=" ">
<polygon fill="white" stroke="#bfbfbf" points="386.19,-224.5 386.19,-243.5 434.19,-243.5 434.19,-224.5 386.19,-224.5"/>
<text text-anchor="middle" x="410.19" y="-231.5" font-family="Helvetica,sans-Serif" font-size="10.00">sifrpc.h</text>
</a>
</g>
</g>
<!-- Node1&#45;&gt;Node8 -->
<g id="edge8" class="edge">
<title>Node1&#45;&gt;Node8</title>
<path fill="none" stroke="midnightblue" d="M278.91,-280.44C305.19,-271.35 346.93,-256.9 376.28,-246.74"/>
<polygon fill="midnightblue" stroke="midnightblue" points="377.79,-249.92 386.1,-243.34 375.5,-243.3 377.79,-249.92"/>
</g>
<!-- Node9 -->
<g id="node9" class="node">
<title>Node9</title>
<g id="a_node9"><a xlink:href="kernel_8h.html" target="_top" xlink:title=" ">
<polygon fill="white" stroke="black" points="5.19,-168.5 5.19,-187.5 55.19,-187.5 55.19,-168.5 5.19,-168.5"/>
<text text-anchor="middle" x="30.19" y="-175.5" font-family="Helvetica,sans-Serif" font-size="10.00">kernel.h</text>
</a>
</g>
</g>
<!-- Node1&#45;&gt;Node9 -->
<g id="edge9" class="edge">
<title>Node1&#45;&gt;Node9</title>
<path fill="none" stroke="midnightblue" d="M230.16,-280.49C207.18,-272.08 171.75,-258.43 142.19,-244 110.01,-228.3 74.53,-206.98 52.3,-193.11"/>
<polygon fill="midnightblue" stroke="midnightblue" points="53.96,-190.02 43.63,-187.66 50.23,-195.94 53.96,-190.02"/>
</g>
<!-- Node11 -->
<g id="node11" class="node">
<title>Node11</title>
<g id="a_node11"><a xlink:href="string_8h_source.html" target="_top" xlink:title=" ">
<polygon fill="white" stroke="black" points="175.19,-224.5 175.19,-243.5 223.19,-243.5 223.19,-224.5 175.19,-224.5"/>
<text text-anchor="middle" x="199.19" y="-231.5" font-family="Helvetica,sans-Serif" font-size="10.00">string.h</text>
</a>
</g>
</g>
<!-- Node1&#45;&gt;Node11 -->
<g id="edge14" class="edge">
<title>Node1&#45;&gt;Node11</title>
<path fill="none" stroke="midnightblue" d="M245.11,-280.08C237.02,-272.14 224.99,-260.34 215.28,-250.8"/>
<polygon fill="midnightblue" stroke="midnightblue" points="217.69,-248.26 208.1,-243.75 212.78,-253.25 217.69,-248.26"/>
</g>
<!-- Node14 -->
<g id="node14" class="node">
<title>Node14</title>
<g id="a_node14"><a xlink:href="libmouse_8h.html" target="_top" xlink:title=" ">
<polygon fill="white" stroke="black" points="304.69,-224.5 304.69,-243.5 367.69,-243.5 367.69,-224.5 304.69,-224.5"/>
<text text-anchor="middle" x="336.19" y="-231.5" font-family="Helvetica,sans-Serif" font-size="10.00">libmouse.h</text>
</a>
</g>
</g>
<!-- Node1&#45;&gt;Node14 -->
<g id="edge21" class="edge">
<title>Node1&#45;&gt;Node14</title>
<path fill="none" stroke="midnightblue" d="M267.36,-280.32C280.03,-271.98 299.42,-259.21 314.39,-249.35"/>
<polygon fill="midnightblue" stroke="midnightblue" points="316.62,-252.08 323.05,-243.65 312.77,-246.23 316.62,-252.08"/>
</g>
<!-- Node3 -->
<g id="node3" class="node">
<title>Node3</title>
<g id="a_node3"><a xlink:title=" ">
<polygon fill="white" stroke="#bfbfbf" points="34.69,-112.5 34.69,-131.5 85.69,-131.5 85.69,-112.5 34.69,-112.5"/>
<text text-anchor="middle" x="60.19" y="-119.5" font-family="Helvetica,sans-Serif" font-size="10.00">stdarg.h</text>
</a>
</g>
</g>
<!-- Node2&#45;&gt;Node3 -->
<g id="edge2" class="edge">
<title>Node2&#45;&gt;Node3</title>
<path fill="none" stroke="midnightblue" d="M101.1,-168.08C94.03,-160.3 83.6,-148.8 75.04,-139.37"/>
<polygon fill="midnightblue" stroke="midnightblue" points="77.44,-136.8 68.13,-131.75 72.26,-141.51 77.44,-136.8"/>
</g>
<!-- Node4 -->
<g id="node4" class="node">
<title>Node4</title>
<g id="a_node4"><a xlink:href="irx_8h.html" target="_top" xlink:title=" ">
<polygon fill="white" stroke="black" points="104.19,-112.5 104.19,-131.5 138.19,-131.5 138.19,-112.5 104.19,-112.5"/>
<text text-anchor="middle" x="121.19" y="-119.5" font-family="Helvetica,sans-Serif" font-size="10.00">irx.h</text>
</a>
</g>
</g>
<!-- Node2&#45;&gt;Node4 -->
<g id="edge3" class="edge">
<title>Node2&#45;&gt;Node4</title>
<path fill="none" stroke="midnightblue" d="M111.17,-168.08C112.76,-160.93 115.05,-150.64 117.03,-141.69"/>
<polygon fill="midnightblue" stroke="midnightblue" points="120.49,-142.27 119.24,-131.75 113.66,-140.75 120.49,-142.27"/>
</g>
<!-- Node5 -->
<g id="node5" class="node">
<title>Node5</title>
<g id="a_node5"><a xlink:href="types_8h_source.html" target="_top" xlink:title=" ">
<polygon fill="white" stroke="black" points="123.69,-56.5 123.69,-75.5 170.69,-75.5 170.69,-56.5 123.69,-56.5"/>
<text text-anchor="middle" x="147.19" y="-63.5" font-family="Helvetica,sans-Serif" font-size="10.00">types.h</text>
</a>
</g>
</g>
<!-- Node4&#45;&gt;Node5 -->
<g id="edge4" class="edge">
<title>Node4&#45;&gt;Node5</title>
<path fill="none" stroke="midnightblue" d="M125.48,-112.08C129.04,-104.69 134.21,-93.95 138.61,-84.81"/>
<polygon fill="midnightblue" stroke="midnightblue" points="141.79,-86.28 142.97,-75.75 135.48,-83.24 141.79,-86.28"/>
</g>
<!-- Node6 -->
<g id="node6" class="node">
<title>Node6</title>
<g id="a_node6"><a xlink:title=" ">
<polygon fill="white" stroke="#bfbfbf" points="31.69,-0.5 31.69,-19.5 82.69,-19.5 82.69,-0.5 31.69,-0.5"/>
<text text-anchor="middle" x="57.19" y="-7.5" font-family="Helvetica,sans-Serif" font-size="10.00">stddef.h</text>
</a>
</g>
</g>
<!-- Node5&#45;&gt;Node6 -->
<g id="edge5" class="edge">
<title>Node5&#45;&gt;Node6</title>
<path fill="none" stroke="midnightblue" d="M132.73,-56.32C118.69,-47.9 97.14,-34.97 80.64,-25.07"/>
<polygon fill="midnightblue" stroke="midnightblue" points="81.99,-21.8 71.61,-19.65 78.39,-27.8 81.99,-21.8"/>
</g>
<!-- Node5&#45;&gt;Node7 -->
<g id="edge6" class="edge">
<title>Node5&#45;&gt;Node7</title>
<path fill="none" stroke="midnightblue" d="M159.08,-56.32C170.34,-48.11 187.47,-35.6 200.9,-25.81"/>
<polygon fill="midnightblue" stroke="midnightblue" points="203.07,-28.56 209.08,-19.83 198.94,-22.9 203.07,-28.56"/>
</g>
<!-- Node9&#45;&gt;Node3 -->
<g id="edge11" class="edge">
<title>Node9&#45;&gt;Node3</title>
<path fill="none" stroke="midnightblue" d="M35.14,-168.08C39.29,-160.61 45.34,-149.72 50.45,-140.52"/>
<polygon fill="midnightblue" stroke="midnightblue" points="53.53,-142.19 55.33,-131.75 47.41,-138.79 53.53,-142.19"/>
</g>
<!-- Node9&#45;&gt;Node6 -->
<g id="edge10" class="edge">
<title>Node9&#45;&gt;Node6</title>
<path fill="none" stroke="midnightblue" d="M25.06,-168.38C13.62,-147.97 -11.61,-95.43 6.19,-56 11.8,-43.56 22.75,-33.17 33.07,-25.53"/>
<polygon fill="midnightblue" stroke="midnightblue" points="35.19,-28.31 41.45,-19.76 31.23,-22.54 35.19,-28.31"/>
</g>
<!-- Node10 -->
<g id="node10" class="node">
<title>Node10</title>
<g id="a_node10"><a xlink:href="sifdma_8h.html" target="_top" xlink:title=" ">
<polygon fill="white" stroke="black" points="15.69,-56.5 15.69,-75.5 68.69,-75.5 68.69,-56.5 15.69,-56.5"/>
<text text-anchor="middle" x="42.19" y="-63.5" font-family="Helvetica,sans-Serif" font-size="10.00">sifdma.h</text>
</a>
</g>
</g>
<!-- Node9&#45;&gt;Node10 -->
<g id="edge12" class="edge">
<title>Node9&#45;&gt;Node10</title>
<path fill="none" stroke="midnightblue" d="M28.07,-168.09C25.4,-155.5 21.57,-131.82 25.19,-112 26.87,-102.76 30.36,-92.95 33.74,-84.85"/>
<polygon fill="midnightblue" stroke="midnightblue" points="36.95,-86.25 37.82,-75.69 30.56,-83.4 36.95,-86.25"/>
</g>
<!-- Node10&#45;&gt;Node7 -->
<g id="edge13" class="edge">
<title>Node10&#45;&gt;Node7</title>
<path fill="none" stroke="midnightblue" d="M68.99,-56.92C99.25,-47.78 148.75,-32.85 183.05,-22.51"/>
<polygon fill="midnightblue" stroke="midnightblue" points="184.16,-25.83 192.72,-19.59 182.14,-19.12 184.16,-25.83"/>
</g>
<!-- Node12 -->
<g id="node12" class="node">
<title>Node12</title>
<g id="a_node12"><a xlink:href="sysclib_8h.html" target="_top" xlink:title=" ">
<polygon fill="white" stroke="black" points="150.19,-168.5 150.19,-187.5 204.19,-187.5 204.19,-168.5 150.19,-168.5"/>
<text text-anchor="middle" x="177.19" y="-175.5" font-family="Helvetica,sans-Serif" font-size="10.00">sysclib.h</text>
</a>
</g>
</g>
<!-- Node11&#45;&gt;Node12 -->
<g id="edge15" class="edge">
<title>Node11&#45;&gt;Node12</title>
<path fill="none" stroke="midnightblue" d="M195.55,-224.08C192.58,-216.77 188.26,-206.18 184.56,-197.1"/>
<polygon fill="midnightblue" stroke="midnightblue" points="187.77,-195.69 180.75,-187.75 181.28,-198.33 187.77,-195.69"/>
</g>
<!-- Node12&#45;&gt;Node3 -->
<g id="edge18" class="edge">
<title>Node12&#45;&gt;Node3</title>
<path fill="none" stroke="midnightblue" d="M158.65,-168.44C139.56,-159.64 109.61,-145.81 87.75,-135.72"/>
<polygon fill="midnightblue" stroke="midnightblue" points="89.19,-132.53 78.64,-131.52 86.25,-138.88 89.19,-132.53"/>
</g>
<!-- Node12&#45;&gt;Node4 -->
<g id="edge17" class="edge">
<title>Node12&#45;&gt;Node4</title>
<path fill="none" stroke="midnightblue" d="M168.19,-168.32C159.99,-160.42 147.68,-148.55 137.72,-138.94"/>
<polygon fill="midnightblue" stroke="midnightblue" points="139.98,-136.26 130.35,-131.83 135.12,-141.29 139.98,-136.26"/>
</g>
<!-- Node12&#45;&gt;Node5 -->
<g id="edge16" class="edge">
<title>Node12&#45;&gt;Node5</title>
<path fill="none" stroke="midnightblue" d="M174.83,-168.37C169.97,-150.54 158.72,-109.3 152.17,-85.27"/>
<polygon fill="midnightblue" stroke="midnightblue" points="155.54,-84.32 149.53,-75.59 148.78,-86.16 155.54,-84.32"/>
</g>
<!-- Node13 -->
<g id="node13" class="node">
<title>Node13</title>
<g id="a_node13"><a xlink:href="setjmp_8h.html" target="_top" xlink:title=" ">
<polygon fill="white" stroke="black" points="194.69,-112.5 194.69,-131.5 247.69,-131.5 247.69,-112.5 194.69,-112.5"/>
<text text-anchor="middle" x="221.19" y="-119.5" font-family="Helvetica,sans-Serif" font-size="10.00">setjmp.h</text>
</a>
</g>
</g>
<!-- Node12&#45;&gt;Node13 -->
<g id="edge19" class="edge">
<title>Node12&#45;&gt;Node13</title>
<path fill="none" stroke="midnightblue" d="M184.45,-168.08C190.73,-160.38 199.97,-149.03 207.62,-139.65"/>
<polygon fill="midnightblue" stroke="midnightblue" points="210.45,-141.71 214.06,-131.75 205.03,-137.29 210.45,-141.71"/>
</g>
<!-- Node13&#45;&gt;Node7 -->
<g id="edge20" class="edge">
<title>Node13&#45;&gt;Node7</title>
<path fill="none" stroke="midnightblue" d="M221.19,-112.37C221.19,-94.62 221.19,-53.67 221.19,-29.6"/>
<polygon fill="midnightblue" stroke="midnightblue" points="224.69,-29.59 221.19,-19.59 217.69,-29.59 224.69,-29.59"/>
</g>
<!-- Node15 -->
<g id="node15" class="node">
<title>Node15</title>
<g id="a_node15"><a xlink:href="ee_2rpc_2mouse_2include_2ps2mouse_8h.html" target="_top" xlink:title=" ">
<polygon fill="white" stroke="black" points="304.69,-56.5 304.69,-75.5 373.69,-75.5 373.69,-56.5 304.69,-56.5"/>
<text text-anchor="middle" x="339.19" y="-63.5" font-family="Helvetica,sans-Serif" font-size="10.00">ps2mouse.h</text>
</a>
</g>
</g>
<!-- Node14&#45;&gt;Node15 -->
<g id="edge22" class="edge">
<title>Node14&#45;&gt;Node15</title>
<path fill="none" stroke="midnightblue" d="M336.35,-224.08C336.82,-197.95 338.21,-121.21 338.85,-85.58"/>
<polygon fill="midnightblue" stroke="midnightblue" points="342.35,-85.63 339.03,-75.57 335.35,-85.5 342.35,-85.63"/>
</g>
<!-- Node15&#45;&gt;Node7 -->
<g id="edge23" class="edge">
<title>Node15&#45;&gt;Node7</title>
<path fill="none" stroke="midnightblue" d="M320.49,-56.44C301.24,-47.64 271.03,-33.81 248.99,-23.72"/>
<polygon fill="midnightblue" stroke="midnightblue" points="250.35,-20.5 239.8,-19.52 247.43,-26.86 250.35,-20.5"/>
</g>
</g>
</svg>
