<?xml version="1.0" encoding="UTF-8" standalone="no"?>
<!DOCTYPE svg PUBLIC "-//W3C//DTD SVG 1.1//EN"
 "http://www.w3.org/Graphics/SVG/1.1/DTD/svg11.dtd">
<!-- Generated by graphviz version 2.46.1 (20210215.1649)
 -->
<!-- Title: ee/rpc/memorycard/src/libmc.c Pages: 1 -->
<svg width="398pt" height="319pt"
 viewBox="0.00 0.00 398.41 319.00" xmlns="http://www.w3.org/2000/svg" xmlns:xlink="http://www.w3.org/1999/xlink">
<g id="graph0" class="graph" transform="scale(1 1) rotate(0) translate(4 315)">
<title>ee/rpc/memorycard/src/libmc.c</title>
<polygon fill="white" stroke="transparent" points="-4,4 -4,-315 394.41,-315 394.41,4 -4,4"/>
<!-- Node1 -->
<g id="node1" class="node">
<title>Node1</title>
<g id="a_node1"><a xlink:title=" ">
<polygon fill="#bfbfbf" stroke="black" points="197,-280.5 197,-310.5 313,-310.5 313,-280.5 197,-280.5"/>
<text text-anchor="start" x="205" y="-298.5" font-family="Helvetica,sans-Serif" font-size="10.00">ee/rpc/memorycard/src</text>
<text text-anchor="middle" x="255" y="-287.5" font-family="Helvetica,sans-Serif" font-size="10.00">/libmc.c</text>
</a>
</g>
</g>
<!-- Node2 -->
<g id="node2" class="node">
<title>Node2</title>
<g id="a_node2"><a xlink:href="tamtypes_8h.html" target="_top" xlink:title=" ">
<polygon fill="white" stroke="black" points="214,-0.5 214,-19.5 278,-19.5 278,-0.5 214,-0.5"/>
<text text-anchor="middle" x="246" y="-7.5" font-family="Helvetica,sans-Serif" font-size="10.00">tamtypes.h</text>
</a>
</g>
</g>
<!-- Node1&#45;&gt;Node2 -->
<g id="edge1" class="edge">
<title>Node1&#45;&gt;Node2</title>
<path fill="none" stroke="midnightblue" d="M294.05,-280.39C333.92,-263.16 390,-229.89 390,-179 390,-179 390,-179 390,-121 390,-90.9 391.62,-77.92 371,-56 349.42,-33.06 315.3,-21.79 288.15,-16.26"/>
<polygon fill="midnightblue" stroke="midnightblue" points="288.6,-12.79 278.13,-14.42 287.33,-19.67 288.6,-12.79"/>
</g>
<!-- Node3 -->
<g id="node3" class="node">
<title>Node3</title>
<g id="a_node3"><a xlink:href="kernel_8h.html" target="_top" xlink:title=" ">
<polygon fill="white" stroke="black" points="182,-168.5 182,-187.5 232,-187.5 232,-168.5 182,-168.5"/>
<text text-anchor="middle" x="207" y="-175.5" font-family="Helvetica,sans-Serif" font-size="10.00">kernel.h</text>
</a>
</g>
</g>
<!-- Node1&#45;&gt;Node3 -->
<g id="edge2" class="edge">
<title>Node1&#45;&gt;Node3</title>
<path fill="none" stroke="midnightblue" d="M243.73,-280.25C236.55,-270.54 227.58,-257.1 222,-244 215.68,-229.17 211.8,-211.24 209.57,-197.98"/>
<polygon fill="midnightblue" stroke="midnightblue" points="212.97,-197.08 208.02,-187.71 206.05,-198.12 212.97,-197.08"/>
</g>
<!-- Node7 -->
<g id="node7" class="node">
<title>Node7</title>
<g id="a_node7"><a xlink:title=" ">
<polygon fill="white" stroke="#bfbfbf" points="231,-224.5 231,-243.5 279,-243.5 279,-224.5 231,-224.5"/>
<text text-anchor="middle" x="255" y="-231.5" font-family="Helvetica,sans-Serif" font-size="10.00">sifrpc.h</text>
</a>
</g>
</g>
<!-- Node1&#45;&gt;Node7 -->
<g id="edge7" class="edge">
<title>Node1&#45;&gt;Node7</title>
<path fill="none" stroke="midnightblue" d="M255,-280.4C255,-272.47 255,-262.46 255,-253.86"/>
<polygon fill="midnightblue" stroke="midnightblue" points="258.5,-253.66 255,-243.66 251.5,-253.66 258.5,-253.66"/>
</g>
<!-- Node8 -->
<g id="node8" class="node">
<title>Node8</title>
<g id="a_node8"><a xlink:href="string_8h_source.html" target="_top" xlink:title=" ">
<polygon fill="white" stroke="black" points="103,-224.5 103,-243.5 151,-243.5 151,-224.5 103,-224.5"/>
<text text-anchor="middle" x="127" y="-231.5" font-family="Helvetica,sans-Serif" font-size="10.00">string.h</text>
</a>
</g>
</g>
<!-- Node1&#45;&gt;Node8 -->
<g id="edge8" class="edge">
<title>Node1&#45;&gt;Node8</title>
<path fill="none" stroke="midnightblue" d="M224.67,-280.4C203.48,-270.55 175.41,-257.5 154.8,-247.92"/>
<polygon fill="midnightblue" stroke="midnightblue" points="156.17,-244.7 145.63,-243.66 153.22,-251.05 156.17,-244.7"/>
</g>
<!-- Node13 -->
<g id="node13" class="node">
<title>Node13</title>
<g id="a_node13"><a xlink:href="libmc_8h.html" target="_top" xlink:title=" ">
<polygon fill="white" stroke="black" points="297.5,-224.5 297.5,-243.5 344.5,-243.5 344.5,-224.5 297.5,-224.5"/>
<text text-anchor="middle" x="321" y="-231.5" font-family="Helvetica,sans-Serif" font-size="10.00">libmc.h</text>
</a>
</g>
</g>
<!-- Node1&#45;&gt;Node13 -->
<g id="edge18" class="edge">
<title>Node1&#45;&gt;Node13</title>
<path fill="none" stroke="midnightblue" d="M270.64,-280.4C280.63,-271.4 293.58,-259.72 303.85,-250.47"/>
<polygon fill="midnightblue" stroke="midnightblue" points="306.31,-252.95 311.4,-243.66 301.63,-247.75 306.31,-252.95"/>
</g>
<!-- Node4 -->
<g id="node4" class="node">
<title>Node4</title>
<g id="a_node4"><a xlink:title=" ">
<polygon fill="white" stroke="#bfbfbf" points="102.5,-0.5 102.5,-19.5 153.5,-19.5 153.5,-0.5 102.5,-0.5"/>
<text text-anchor="middle" x="128" y="-7.5" font-family="Helvetica,sans-Serif" font-size="10.00">stddef.h</text>
</a>
</g>
</g>
<!-- Node3&#45;&gt;Node4 -->
<g id="edge3" class="edge">
<title>Node3&#45;&gt;Node4</title>
<path fill="none" stroke="midnightblue" d="M207.11,-168.39C206.99,-147.55 204.38,-93.35 182,-56 174.58,-43.61 162.47,-33.06 151.61,-25.29"/>
<polygon fill="midnightblue" stroke="midnightblue" points="153.52,-22.36 143.27,-19.68 149.61,-28.17 153.52,-22.36"/>
</g>
<!-- Node5 -->
<g id="node5" class="node">
<title>Node5</title>
<g id="a_node5"><a xlink:title=" ">
<polygon fill="white" stroke="#bfbfbf" points="128.5,-112.5 128.5,-131.5 179.5,-131.5 179.5,-112.5 128.5,-112.5"/>
<text text-anchor="middle" x="154" y="-119.5" font-family="Helvetica,sans-Serif" font-size="10.00">stdarg.h</text>
</a>
</g>
</g>
<!-- Node3&#45;&gt;Node5 -->
<g id="edge4" class="edge">
<title>Node3&#45;&gt;Node5</title>
<path fill="none" stroke="midnightblue" d="M198.25,-168.08C190.53,-160.22 179.1,-148.57 169.78,-139.08"/>
<polygon fill="midnightblue" stroke="midnightblue" points="172.09,-136.44 162.59,-131.75 167.1,-141.34 172.09,-136.44"/>
</g>
<!-- Node6 -->
<g id="node6" class="node">
<title>Node6</title>
<g id="a_node6"><a xlink:href="sifdma_8h.html" target="_top" xlink:title=" ">
<polygon fill="white" stroke="black" points="236.5,-112.5 236.5,-131.5 289.5,-131.5 289.5,-112.5 236.5,-112.5"/>
<text text-anchor="middle" x="263" y="-119.5" font-family="Helvetica,sans-Serif" font-size="10.00">sifdma.h</text>
</a>
</g>
</g>
<!-- Node3&#45;&gt;Node6 -->
<g id="edge5" class="edge">
<title>Node3&#45;&gt;Node6</title>
<path fill="none" stroke="midnightblue" d="M216,-168.32C224.19,-160.42 236.51,-148.55 246.47,-138.94"/>
<polygon fill="midnightblue" stroke="midnightblue" points="249.07,-141.29 253.84,-131.83 244.21,-136.26 249.07,-141.29"/>
</g>
<!-- Node6&#45;&gt;Node2 -->
<g id="edge6" class="edge">
<title>Node6&#45;&gt;Node2</title>
<path fill="none" stroke="midnightblue" d="M261.67,-112.37C258.92,-94.62 252.59,-53.67 248.87,-29.6"/>
<polygon fill="midnightblue" stroke="midnightblue" points="252.31,-28.94 247.33,-19.59 245.4,-30.01 252.31,-28.94"/>
</g>
<!-- Node9 -->
<g id="node9" class="node">
<title>Node9</title>
<g id="a_node9"><a xlink:href="sysclib_8h.html" target="_top" xlink:title=" ">
<polygon fill="white" stroke="black" points="73,-168.5 73,-187.5 127,-187.5 127,-168.5 73,-168.5"/>
<text text-anchor="middle" x="100" y="-175.5" font-family="Helvetica,sans-Serif" font-size="10.00">sysclib.h</text>
</a>
</g>
</g>
<!-- Node8&#45;&gt;Node9 -->
<g id="edge9" class="edge">
<title>Node8&#45;&gt;Node9</title>
<path fill="none" stroke="midnightblue" d="M122.54,-224.08C118.85,-216.69 113.48,-205.95 108.91,-196.81"/>
<polygon fill="midnightblue" stroke="midnightblue" points="111.98,-195.13 104.38,-187.75 105.72,-198.26 111.98,-195.13"/>
</g>
<!-- Node9&#45;&gt;Node5 -->
<g id="edge15" class="edge">
<title>Node9&#45;&gt;Node5</title>
<path fill="none" stroke="midnightblue" d="M108.92,-168.08C116.78,-160.22 128.43,-148.57 137.92,-139.08"/>
<polygon fill="midnightblue" stroke="midnightblue" points="140.65,-141.3 145.25,-131.75 135.7,-136.35 140.65,-141.3"/>
</g>
<!-- Node10 -->
<g id="node10" class="node">
<title>Node10</title>
<g id="a_node10"><a xlink:href="types_8h_source.html" target="_top" xlink:title=" ">
<polygon fill="white" stroke="black" points="44.5,-56.5 44.5,-75.5 91.5,-75.5 91.5,-56.5 44.5,-56.5"/>
<text text-anchor="middle" x="68" y="-63.5" font-family="Helvetica,sans-Serif" font-size="10.00">types.h</text>
</a>
</g>
</g>
<!-- Node9&#45;&gt;Node10 -->
<g id="edge10" class="edge">
<title>Node9&#45;&gt;Node10</title>
<path fill="none" stroke="midnightblue" d="M97.24,-168.4C94.35,-159.36 89.74,-144.72 86,-132 81.41,-116.38 76.49,-98.55 72.96,-85.52"/>
<polygon fill="midnightblue" stroke="midnightblue" points="76.34,-84.6 70.36,-75.86 69.58,-86.42 76.34,-84.6"/>
</g>
<!-- Node11 -->
<g id="node11" class="node">
<title>Node11</title>
<g id="a_node11"><a xlink:href="irx_8h.html" target="_top" xlink:title=" ">
<polygon fill="white" stroke="black" points="0,-112.5 0,-131.5 34,-131.5 34,-112.5 0,-112.5"/>
<text text-anchor="middle" x="17" y="-119.5" font-family="Helvetica,sans-Serif" font-size="10.00">irx.h</text>
</a>
</g>
</g>
<!-- Node9&#45;&gt;Node11 -->
<g id="edge13" class="edge">
<title>Node9&#45;&gt;Node11</title>
<path fill="none" stroke="midnightblue" d="M86.66,-168.32C73.84,-159.98 54.22,-147.21 39.06,-137.35"/>
<polygon fill="midnightblue" stroke="midnightblue" points="40.59,-134.17 30.3,-131.65 36.78,-140.04 40.59,-134.17"/>
</g>
<!-- Node12 -->
<g id="node12" class="node">
<title>Node12</title>
<g id="a_node12"><a xlink:href="setjmp_8h.html" target="_top" xlink:title=" ">
<polygon fill="white" stroke="black" points="120.5,-56.5 120.5,-75.5 173.5,-75.5 173.5,-56.5 120.5,-56.5"/>
<text text-anchor="middle" x="147" y="-63.5" font-family="Helvetica,sans-Serif" font-size="10.00">setjmp.h</text>
</a>
</g>
</g>
<!-- Node9&#45;&gt;Node12 -->
<g id="edge16" class="edge">
<title>Node9&#45;&gt;Node12</title>
<path fill="none" stroke="midnightblue" d="M101.75,-168.32C104.48,-155.61 110.36,-131.32 119,-112 123.37,-102.24 129.54,-92.06 134.98,-83.86"/>
<polygon fill="midnightblue" stroke="midnightblue" points="137.9,-85.79 140.68,-75.57 132.13,-81.83 137.9,-85.79"/>
</g>
<!-- Node10&#45;&gt;Node2 -->
<g id="edge12" class="edge">
<title>Node10&#45;&gt;Node2</title>
<path fill="none" stroke="midnightblue" d="M91.64,-57.83C121.33,-48.82 172.66,-33.25 207.92,-22.55"/>
<polygon fill="midnightblue" stroke="midnightblue" points="209.31,-25.79 217.86,-19.54 207.27,-19.09 209.31,-25.79"/>
</g>
<!-- Node10&#45;&gt;Node4 -->
<g id="edge11" class="edge">
<title>Node10&#45;&gt;Node4</title>
<path fill="none" stroke="midnightblue" d="M77.64,-56.32C86.51,-48.34 99.87,-36.31 110.61,-26.65"/>
<polygon fill="midnightblue" stroke="midnightblue" points="113.09,-29.13 118.18,-19.83 108.41,-23.92 113.09,-29.13"/>
</g>
<!-- Node11&#45;&gt;Node10 -->
<g id="edge14" class="edge">
<title>Node11&#45;&gt;Node10</title>
<path fill="none" stroke="midnightblue" d="M25.42,-112.08C32.85,-104.22 43.85,-92.57 52.81,-83.08"/>
<polygon fill="midnightblue" stroke="midnightblue" points="55.41,-85.42 59.74,-75.75 50.32,-80.62 55.41,-85.42"/>
</g>
<!-- Node12&#45;&gt;Node2 -->
<g id="edge17" class="edge">
<title>Node12&#45;&gt;Node2</title>
<path fill="none" stroke="midnightblue" d="M162.91,-56.32C178.64,-47.74 202.94,-34.49 221.21,-24.52"/>
<polygon fill="midnightblue" stroke="midnightblue" points="223.03,-27.52 230.13,-19.65 219.68,-21.37 223.03,-27.52"/>
</g>
<!-- Node14 -->
<g id="node14" class="node">
<title>Node14</title>
<g id="a_node14"><a xlink:href="libmc-common_8h.html" target="_top" xlink:title=" ">
<polygon fill="white" stroke="black" points="274,-56.5 274,-75.5 362,-75.5 362,-56.5 274,-56.5"/>
<text text-anchor="middle" x="318" y="-63.5" font-family="Helvetica,sans-Serif" font-size="10.00">libmc&#45;common.h</text>
</a>
</g>
</g>
<!-- Node13&#45;&gt;Node14 -->
<g id="edge19" class="edge">
<title>Node13&#45;&gt;Node14</title>
<path fill="none" stroke="midnightblue" d="M320.84,-224.08C320.37,-197.95 318.98,-121.21 318.34,-85.58"/>
<polygon fill="midnightblue" stroke="midnightblue" points="321.84,-85.5 318.15,-75.57 314.84,-85.63 321.84,-85.5"/>
</g>
<!-- Node14&#45;&gt;Node2 -->
<g id="edge20" class="edge">
<title>Node14&#45;&gt;Node2</title>
<path fill="none" stroke="midnightblue" d="M306.43,-56.32C295.58,-48.18 279.12,-35.84 266.12,-26.09"/>
<polygon fill="midnightblue" stroke="midnightblue" points="267.88,-23.03 257.78,-19.83 263.68,-28.63 267.88,-23.03"/>
</g>
</g>
</svg>
