<?xml version="1.0" encoding="UTF-8" standalone="no"?>
<!DOCTYPE svg PUBLIC "-//W3C//DTD SVG 1.1//EN"
 "http://www.w3.org/Graphics/SVG/1.1/DTD/svg11.dtd">
<!-- Generated by graphviz version 2.46.1 (20210215.1649)
 -->
<!-- Title: ee/rpc/remote/src/librm.c Pages: 1 -->
<svg width="429pt" height="308pt"
 viewBox="0.00 0.00 429.00 308.00" xmlns="http://www.w3.org/2000/svg" xmlns:xlink="http://www.w3.org/1999/xlink">
<g id="graph0" class="graph" transform="scale(1 1) rotate(0) translate(4 304)">
<title>ee/rpc/remote/src/librm.c</title>
<polygon fill="white" stroke="transparent" points="-4,4 -4,-304 425,-304 425,4 -4,4"/>
<!-- Node1 -->
<g id="node1" class="node">
<title>Node1</title>
<g id="a_node1"><a xlink:title=" ">
<polygon fill="#bfbfbf" stroke="black" points="186.5,-280.5 186.5,-299.5 311.5,-299.5 311.5,-280.5 186.5,-280.5"/>
<text text-anchor="middle" x="249" y="-287.5" font-family="Helvetica,sans-Serif" font-size="10.00">ee/rpc/remote/src/librm.c</text>
</a>
</g>
</g>
<!-- Node2 -->
<g id="node2" class="node">
<title>Node2</title>
<g id="a_node2"><a xlink:href="stdio_8h.html" target="_top" xlink:title=" ">
<polygon fill="white" stroke="black" points="92.5,-168.5 92.5,-187.5 137.5,-187.5 137.5,-168.5 92.5,-168.5"/>
<text text-anchor="middle" x="115" y="-175.5" font-family="Helvetica,sans-Serif" font-size="10.00">stdio.h</text>
</a>
</g>
</g>
<!-- Node1&#45;&gt;Node2 -->
<g id="edge1" class="edge">
<title>Node1&#45;&gt;Node2</title>
<path fill="none" stroke="midnightblue" d="M231.1,-280.41C215.03,-272.24 191.24,-259 173,-244 155.56,-229.65 138.74,-209.93 127.74,-195.99"/>
<polygon fill="midnightblue" stroke="midnightblue" points="130.29,-193.55 121.41,-187.77 124.74,-197.83 130.29,-193.55"/>
</g>
<!-- Node7 -->
<g id="node7" class="node">
<title>Node7</title>
<g id="a_node7"><a xlink:href="tamtypes_8h.html" target="_top" xlink:title=" ">
<polygon fill="white" stroke="black" points="194,-0.5 194,-19.5 258,-19.5 258,-0.5 194,-0.5"/>
<text text-anchor="middle" x="226" y="-7.5" font-family="Helvetica,sans-Serif" font-size="10.00">tamtypes.h</text>
</a>
</g>
</g>
<!-- Node1&#45;&gt;Node7 -->
<g id="edge7" class="edge">
<title>Node1&#45;&gt;Node7</title>
<path fill="none" stroke="midnightblue" d="M253.32,-280.41C262.05,-262.2 281,-218.18 281,-179 281,-179 281,-179 281,-121 281,-84.57 256.57,-47.84 240.27,-27.39"/>
<polygon fill="midnightblue" stroke="midnightblue" points="242.95,-25.14 233.88,-19.67 237.56,-29.6 242.95,-25.14"/>
</g>
<!-- Node8 -->
<g id="node8" class="node">
<title>Node8</title>
<g id="a_node8"><a xlink:title=" ">
<polygon fill="white" stroke="#bfbfbf" points="373,-224.5 373,-243.5 421,-243.5 421,-224.5 373,-224.5"/>
<text text-anchor="middle" x="397" y="-231.5" font-family="Helvetica,sans-Serif" font-size="10.00">sifrpc.h</text>
</a>
</g>
</g>
<!-- Node1&#45;&gt;Node8 -->
<g id="edge8" class="edge">
<title>Node1&#45;&gt;Node8</title>
<path fill="none" stroke="midnightblue" d="M272.45,-280.44C297.13,-271.44 336.19,-257.19 363.98,-247.05"/>
<polygon fill="midnightblue" stroke="midnightblue" points="365.46,-250.23 373.66,-243.52 363.06,-243.66 365.46,-250.23"/>
</g>
<!-- Node9 -->
<g id="node9" class="node">
<title>Node9</title>
<g id="a_node9"><a xlink:href="kernel_8h.html" target="_top" xlink:title=" ">
<polygon fill="white" stroke="black" points="0,-168.5 0,-187.5 50,-187.5 50,-168.5 0,-168.5"/>
<text text-anchor="middle" x="25" y="-175.5" font-family="Helvetica,sans-Serif" font-size="10.00">kernel.h</text>
</a>
</g>
</g>
<!-- Node1&#45;&gt;Node9 -->
<g id="edge9" class="edge">
<title>Node1&#45;&gt;Node9</title>
<path fill="none" stroke="midnightblue" d="M228.91,-280.38C208.61,-271.57 176.39,-257.33 149,-244 114.08,-227.01 74.44,-205.9 49.58,-192.44"/>
<polygon fill="midnightblue" stroke="midnightblue" points="50.96,-189.21 40.51,-187.51 47.62,-195.36 50.96,-189.21"/>
</g>
<!-- Node11 -->
<g id="node11" class="node">
<title>Node11</title>
<g id="a_node11"><a xlink:href="string_8h_source.html" target="_top" xlink:title=" ">
<polygon fill="white" stroke="black" points="182,-224.5 182,-243.5 230,-243.5 230,-224.5 182,-224.5"/>
<text text-anchor="middle" x="206" y="-231.5" font-family="Helvetica,sans-Serif" font-size="10.00">string.h</text>
</a>
</g>
</g>
<!-- Node1&#45;&gt;Node11 -->
<g id="edge14" class="edge">
<title>Node1&#45;&gt;Node11</title>
<path fill="none" stroke="midnightblue" d="M241.9,-280.08C235.76,-272.38 226.73,-261.03 219.26,-251.65"/>
<polygon fill="midnightblue" stroke="midnightblue" points="221.94,-249.39 212.97,-243.75 216.46,-253.75 221.94,-249.39"/>
</g>
<!-- Node14 -->
<g id="node14" class="node">
<title>Node14</title>
<g id="a_node14"><a xlink:href="librm_8h.html" target="_top" xlink:title="RPC Interface for PS2 Remote Control Driver (RMMAN)">
<polygon fill="white" stroke="black" points="309.5,-224.5 309.5,-243.5 354.5,-243.5 354.5,-224.5 309.5,-224.5"/>
<text text-anchor="middle" x="332" y="-231.5" font-family="Helvetica,sans-Serif" font-size="10.00">librm.h</text>
</a>
</g>
</g>
<!-- Node1&#45;&gt;Node14 -->
<g id="edge21" class="edge">
<title>Node1&#45;&gt;Node14</title>
<path fill="none" stroke="midnightblue" d="M262.34,-280.32C275.16,-271.98 294.78,-259.21 309.94,-249.35"/>
<polygon fill="midnightblue" stroke="midnightblue" points="312.22,-252.04 318.7,-243.65 308.41,-246.17 312.22,-252.04"/>
</g>
<!-- Node3 -->
<g id="node3" class="node">
<title>Node3</title>
<g id="a_node3"><a xlink:title=" ">
<polygon fill="white" stroke="#bfbfbf" points="39.5,-112.5 39.5,-131.5 90.5,-131.5 90.5,-112.5 39.5,-112.5"/>
<text text-anchor="middle" x="65" y="-119.5" font-family="Helvetica,sans-Serif" font-size="10.00">stdarg.h</text>
</a>
</g>
</g>
<!-- Node2&#45;&gt;Node3 -->
<g id="edge2" class="edge">
<title>Node2&#45;&gt;Node3</title>
<path fill="none" stroke="midnightblue" d="M106.74,-168.08C99.54,-160.3 88.89,-148.8 80.15,-139.37"/>
<polygon fill="midnightblue" stroke="midnightblue" points="82.47,-136.71 73.1,-131.75 77.33,-141.47 82.47,-136.71"/>
</g>
<!-- Node4 -->
<g id="node4" class="node">
<title>Node4</title>
<g id="a_node4"><a xlink:href="irx_8h.html" target="_top" xlink:title=" ">
<polygon fill="white" stroke="black" points="109,-112.5 109,-131.5 143,-131.5 143,-112.5 109,-112.5"/>
<text text-anchor="middle" x="126" y="-119.5" font-family="Helvetica,sans-Serif" font-size="10.00">irx.h</text>
</a>
</g>
</g>
<!-- Node2&#45;&gt;Node4 -->
<g id="edge3" class="edge">
<title>Node2&#45;&gt;Node4</title>
<path fill="none" stroke="midnightblue" d="M116.82,-168.08C118.27,-160.93 120.37,-150.64 122.19,-141.69"/>
<polygon fill="midnightblue" stroke="midnightblue" points="125.65,-142.25 124.22,-131.75 118.79,-140.85 125.65,-142.25"/>
</g>
<!-- Node5 -->
<g id="node5" class="node">
<title>Node5</title>
<g id="a_node5"><a xlink:href="types_8h_source.html" target="_top" xlink:title=" ">
<polygon fill="white" stroke="black" points="128.5,-56.5 128.5,-75.5 175.5,-75.5 175.5,-56.5 128.5,-56.5"/>
<text text-anchor="middle" x="152" y="-63.5" font-family="Helvetica,sans-Serif" font-size="10.00">types.h</text>
</a>
</g>
</g>
<!-- Node4&#45;&gt;Node5 -->
<g id="edge4" class="edge">
<title>Node4&#45;&gt;Node5</title>
<path fill="none" stroke="midnightblue" d="M130.29,-112.08C133.85,-104.69 139.02,-93.95 143.42,-84.81"/>
<polygon fill="midnightblue" stroke="midnightblue" points="146.6,-86.28 147.79,-75.75 140.29,-83.24 146.6,-86.28"/>
</g>
<!-- Node6 -->
<g id="node6" class="node">
<title>Node6</title>
<g id="a_node6"><a xlink:title=" ">
<polygon fill="white" stroke="#bfbfbf" points="36.5,-0.5 36.5,-19.5 87.5,-19.5 87.5,-0.5 36.5,-0.5"/>
<text text-anchor="middle" x="62" y="-7.5" font-family="Helvetica,sans-Serif" font-size="10.00">stddef.h</text>
</a>
</g>
</g>
<!-- Node5&#45;&gt;Node6 -->
<g id="edge5" class="edge">
<title>Node5&#45;&gt;Node6</title>
<path fill="none" stroke="midnightblue" d="M137.54,-56.32C123.5,-47.9 101.95,-34.97 85.46,-25.07"/>
<polygon fill="midnightblue" stroke="midnightblue" points="86.8,-21.8 76.42,-19.65 83.2,-27.8 86.8,-21.8"/>
</g>
<!-- Node5&#45;&gt;Node7 -->
<g id="edge6" class="edge">
<title>Node5&#45;&gt;Node7</title>
<path fill="none" stroke="midnightblue" d="M163.89,-56.32C175.15,-48.11 192.29,-35.6 205.71,-25.81"/>
<polygon fill="midnightblue" stroke="midnightblue" points="207.88,-28.56 213.89,-19.83 203.75,-22.9 207.88,-28.56"/>
</g>
<!-- Node9&#45;&gt;Node3 -->
<g id="edge11" class="edge">
<title>Node9&#45;&gt;Node3</title>
<path fill="none" stroke="midnightblue" d="M31.61,-168.08C37.26,-160.46 45.54,-149.26 52.45,-139.94"/>
<polygon fill="midnightblue" stroke="midnightblue" points="55.38,-141.87 58.52,-131.75 49.75,-137.7 55.38,-141.87"/>
</g>
<!-- Node9&#45;&gt;Node6 -->
<g id="edge10" class="edge">
<title>Node9&#45;&gt;Node6</title>
<path fill="none" stroke="midnightblue" d="M21.05,-168.32C12.3,-147.76 -6.57,-94.94 11,-56 16.62,-43.56 27.56,-33.17 37.88,-25.53"/>
<polygon fill="midnightblue" stroke="midnightblue" points="40.01,-28.31 46.27,-19.76 36.04,-22.54 40.01,-28.31"/>
</g>
<!-- Node10 -->
<g id="node10" class="node">
<title>Node10</title>
<g id="a_node10"><a xlink:href="sifdma_8h.html" target="_top" xlink:title=" ">
<polygon fill="white" stroke="black" points="20.5,-56.5 20.5,-75.5 73.5,-75.5 73.5,-56.5 20.5,-56.5"/>
<text text-anchor="middle" x="47" y="-63.5" font-family="Helvetica,sans-Serif" font-size="10.00">sifdma.h</text>
</a>
</g>
</g>
<!-- Node9&#45;&gt;Node10 -->
<g id="edge12" class="edge">
<title>Node9&#45;&gt;Node10</title>
<path fill="none" stroke="midnightblue" d="M24.89,-168.47C24.9,-155.94 25.57,-131.89 30,-112 32.04,-102.83 35.57,-93.03 38.89,-84.92"/>
<polygon fill="midnightblue" stroke="midnightblue" points="42.1,-86.3 42.85,-75.74 35.67,-83.53 42.1,-86.3"/>
</g>
<!-- Node10&#45;&gt;Node7 -->
<g id="edge13" class="edge">
<title>Node10&#45;&gt;Node7</title>
<path fill="none" stroke="midnightblue" d="M73.8,-56.92C104.07,-47.78 153.57,-32.85 187.86,-22.51"/>
<polygon fill="midnightblue" stroke="midnightblue" points="188.97,-25.83 197.54,-19.59 186.95,-19.12 188.97,-25.83"/>
</g>
<!-- Node12 -->
<g id="node12" class="node">
<title>Node12</title>
<g id="a_node12"><a xlink:href="sysclib_8h.html" target="_top" xlink:title=" ">
<polygon fill="white" stroke="black" points="156,-168.5 156,-187.5 210,-187.5 210,-168.5 156,-168.5"/>
<text text-anchor="middle" x="183" y="-175.5" font-family="Helvetica,sans-Serif" font-size="10.00">sysclib.h</text>
</a>
</g>
</g>
<!-- Node11&#45;&gt;Node12 -->
<g id="edge15" class="edge">
<title>Node11&#45;&gt;Node12</title>
<path fill="none" stroke="midnightblue" d="M202.2,-224.08C199.09,-216.77 194.58,-206.18 190.71,-197.1"/>
<polygon fill="midnightblue" stroke="midnightblue" points="193.87,-195.58 186.73,-187.75 187.43,-198.32 193.87,-195.58"/>
</g>
<!-- Node12&#45;&gt;Node3 -->
<g id="edge18" class="edge">
<title>Node12&#45;&gt;Node3</title>
<path fill="none" stroke="midnightblue" d="M164.3,-168.44C145.06,-159.64 114.85,-145.81 92.8,-135.72"/>
<polygon fill="midnightblue" stroke="midnightblue" points="94.16,-132.5 83.61,-131.52 91.25,-138.86 94.16,-132.5"/>
</g>
<!-- Node12&#45;&gt;Node4 -->
<g id="edge17" class="edge">
<title>Node12&#45;&gt;Node4</title>
<path fill="none" stroke="midnightblue" d="M173.84,-168.32C165.5,-160.42 152.97,-148.55 142.82,-138.94"/>
<polygon fill="midnightblue" stroke="midnightblue" points="144.99,-136.17 135.32,-131.83 140.18,-141.25 144.99,-136.17"/>
</g>
<!-- Node12&#45;&gt;Node5 -->
<g id="edge16" class="edge">
<title>Node12&#45;&gt;Node5</title>
<path fill="none" stroke="midnightblue" d="M180.57,-168.37C175.54,-150.54 163.92,-109.3 157.15,-85.27"/>
<polygon fill="midnightblue" stroke="midnightblue" points="160.5,-84.27 154.42,-75.59 153.77,-86.17 160.5,-84.27"/>
</g>
<!-- Node13 -->
<g id="node13" class="node">
<title>Node13</title>
<g id="a_node13"><a xlink:href="setjmp_8h.html" target="_top" xlink:title=" ">
<polygon fill="white" stroke="black" points="199.5,-112.5 199.5,-131.5 252.5,-131.5 252.5,-112.5 199.5,-112.5"/>
<text text-anchor="middle" x="226" y="-119.5" font-family="Helvetica,sans-Serif" font-size="10.00">setjmp.h</text>
</a>
</g>
</g>
<!-- Node12&#45;&gt;Node13 -->
<g id="edge19" class="edge">
<title>Node12&#45;&gt;Node13</title>
<path fill="none" stroke="midnightblue" d="M190.1,-168.08C196.24,-160.38 205.27,-149.03 212.74,-139.65"/>
<polygon fill="midnightblue" stroke="midnightblue" points="215.54,-141.75 219.03,-131.75 210.06,-137.39 215.54,-141.75"/>
</g>
<!-- Node13&#45;&gt;Node7 -->
<g id="edge20" class="edge">
<title>Node13&#45;&gt;Node7</title>
<path fill="none" stroke="midnightblue" d="M226,-112.37C226,-94.62 226,-53.67 226,-29.6"/>
<polygon fill="midnightblue" stroke="midnightblue" points="229.5,-29.59 226,-19.59 222.5,-29.59 229.5,-29.59"/>
</g>
<!-- Node15 -->
<g id="node15" class="node">
<title>Node15</title>
<g id="a_node15"><a xlink:href="librm-common_8h.html" target="_top" xlink:title=" ">
<polygon fill="white" stroke="black" points="309,-56.5 309,-75.5 395,-75.5 395,-56.5 309,-56.5"/>
<text text-anchor="middle" x="352" y="-63.5" font-family="Helvetica,sans-Serif" font-size="10.00">librm&#45;common.h</text>
</a>
</g>
</g>
<!-- Node14&#45;&gt;Node15 -->
<g id="edge22" class="edge">
<title>Node14&#45;&gt;Node15</title>
<path fill="none" stroke="midnightblue" d="M333.08,-224.08C336.22,-197.95 345.47,-121.21 349.76,-85.58"/>
<polygon fill="midnightblue" stroke="midnightblue" points="353.25,-85.92 350.97,-75.57 346.3,-85.08 353.25,-85.92"/>
</g>
<!-- Node15&#45;&gt;Node7 -->
<g id="edge23" class="edge">
<title>Node15&#45;&gt;Node7</title>
<path fill="none" stroke="midnightblue" d="M332.03,-56.44C311.39,-47.6 278.94,-33.69 255.37,-23.59"/>
<polygon fill="midnightblue" stroke="midnightblue" points="256.44,-20.24 245.87,-19.52 253.68,-26.67 256.44,-20.24"/>
</g>
</g>
</svg>
