<?xml version="1.0" encoding="UTF-8" standalone="no"?>
<!DOCTYPE svg PUBLIC "-//W3C//DTD SVG 1.1//EN"
 "http://www.w3.org/Graphics/SVG/1.1/DTD/svg11.dtd">
<!-- Generated by graphviz version 2.46.1 (20210215.1649)
 -->
<!-- Title: ee/kernel/src/loadfile.c Pages: 1 -->
<svg width="627pt" height="308pt"
 viewBox="0.00 0.00 627.00 308.00" xmlns="http://www.w3.org/2000/svg" xmlns:xlink="http://www.w3.org/1999/xlink">
<g id="graph0" class="graph" transform="scale(1 1) rotate(0) translate(4 304)">
<title>ee/kernel/src/loadfile.c</title>
<polygon fill="white" stroke="transparent" points="-4,4 -4,-304 623,-304 623,4 -4,4"/>
<!-- Node1 -->
<g id="node1" class="node">
<title>Node1</title>
<g id="a_node1"><a xlink:title=" ">
<polygon fill="#bfbfbf" stroke="black" points="308.5,-280.5 308.5,-299.5 421.5,-299.5 421.5,-280.5 308.5,-280.5"/>
<text text-anchor="middle" x="365" y="-287.5" font-family="Helvetica,sans-Serif" font-size="10.00">ee/kernel/src/loadfile.c</text>
</a>
</g>
</g>
<!-- Node2 -->
<g id="node2" class="node">
<title>Node2</title>
<g id="a_node2"><a xlink:href="tamtypes_8h.html" target="_top" xlink:title=" ">
<polygon fill="white" stroke="black" points="244,-0.5 244,-19.5 308,-19.5 308,-0.5 244,-0.5"/>
<text text-anchor="middle" x="276" y="-7.5" font-family="Helvetica,sans-Serif" font-size="10.00">tamtypes.h</text>
</a>
</g>
</g>
<!-- Node1&#45;&gt;Node2 -->
<g id="edge1" class="edge">
<title>Node1&#45;&gt;Node2</title>
<path fill="none" stroke="midnightblue" d="M370.28,-280.23C380.73,-262.04 403,-218.6 403,-179 403,-179 403,-179 403,-121 403,-90.9 404.08,-78.42 384,-56 366.89,-36.88 340.37,-25.68 317.89,-19.23"/>
<polygon fill="midnightblue" stroke="midnightblue" points="318.79,-15.84 308.23,-16.67 317,-22.61 318.79,-15.84"/>
</g>
<!-- Node3 -->
<g id="node3" class="node">
<title>Node3</title>
<g id="a_node3"><a xlink:href="ps2lib__err_8h.html" target="_top" xlink:title=" ">
<polygon fill="white" stroke="black" points="167,-224.5 167,-243.5 233,-243.5 233,-224.5 167,-224.5"/>
<text text-anchor="middle" x="200" y="-231.5" font-family="Helvetica,sans-Serif" font-size="10.00">ps2lib_err.h</text>
</a>
</g>
</g>
<!-- Node1&#45;&gt;Node3 -->
<g id="edge2" class="edge">
<title>Node1&#45;&gt;Node3</title>
<path fill="none" stroke="midnightblue" d="M338.86,-280.44C310.98,-271.32 266.65,-256.81 235.6,-246.65"/>
<polygon fill="midnightblue" stroke="midnightblue" points="236.62,-243.3 226.02,-243.52 234.44,-249.95 236.62,-243.3"/>
</g>
<!-- Node4 -->
<g id="node4" class="node">
<title>Node4</title>
<g id="a_node4"><a xlink:href="kernel_8h.html" target="_top" xlink:title=" ">
<polygon fill="white" stroke="black" points="226,-168.5 226,-187.5 276,-187.5 276,-168.5 226,-168.5"/>
<text text-anchor="middle" x="251" y="-175.5" font-family="Helvetica,sans-Serif" font-size="10.00">kernel.h</text>
</a>
</g>
</g>
<!-- Node1&#45;&gt;Node4 -->
<g id="edge3" class="edge">
<title>Node1&#45;&gt;Node4</title>
<path fill="none" stroke="midnightblue" d="M339.08,-280.48C320.57,-273.27 296.19,-261.32 280,-244 267.75,-230.89 260.07,-211.75 255.71,-197.63"/>
<polygon fill="midnightblue" stroke="midnightblue" points="258.97,-196.28 252.91,-187.59 252.23,-198.16 258.97,-196.28"/>
</g>
<!-- Node8 -->
<g id="node8" class="node">
<title>Node8</title>
<g id="a_node8"><a xlink:title=" ">
<polygon fill="white" stroke="#bfbfbf" points="289,-224.5 289,-243.5 337,-243.5 337,-224.5 289,-224.5"/>
<text text-anchor="middle" x="313" y="-231.5" font-family="Helvetica,sans-Serif" font-size="10.00">sifrpc.h</text>
</a>
</g>
</g>
<!-- Node1&#45;&gt;Node8 -->
<g id="edge8" class="edge">
<title>Node1&#45;&gt;Node8</title>
<path fill="none" stroke="midnightblue" d="M356.41,-280.08C348.84,-272.22 337.62,-260.57 328.49,-251.08"/>
<polygon fill="midnightblue" stroke="midnightblue" points="330.88,-248.53 321.43,-243.75 325.84,-253.38 330.88,-248.53"/>
</g>
<!-- Node9 -->
<g id="node9" class="node">
<title>Node9</title>
<g id="a_node9"><a xlink:href="string_8h_source.html" target="_top" xlink:title=" ">
<polygon fill="white" stroke="black" points="98,-224.5 98,-243.5 146,-243.5 146,-224.5 98,-224.5"/>
<text text-anchor="middle" x="122" y="-231.5" font-family="Helvetica,sans-Serif" font-size="10.00">string.h</text>
</a>
</g>
</g>
<!-- Node1&#45;&gt;Node9 -->
<g id="edge9" class="edge">
<title>Node1&#45;&gt;Node9</title>
<path fill="none" stroke="midnightblue" d="M324.07,-280.49C282.25,-271.71 215.48,-257.43 158,-244 157.41,-243.86 156.82,-243.72 156.22,-243.58"/>
<polygon fill="midnightblue" stroke="midnightblue" points="156.92,-240.15 146.38,-241.2 155.27,-246.95 156.92,-240.15"/>
</g>
<!-- Node14 -->
<g id="node14" class="node">
<title>Node14</title>
<g id="a_node14"><a xlink:href="loadfile_8h.html" target="_top" xlink:title=" ">
<polygon fill="white" stroke="black" points="321,-56.5 321,-75.5 375,-75.5 375,-56.5 321,-56.5"/>
<text text-anchor="middle" x="348" y="-63.5" font-family="Helvetica,sans-Serif" font-size="10.00">loadfile.h</text>
</a>
</g>
</g>
<!-- Node1&#45;&gt;Node14 -->
<g id="edge19" class="edge">
<title>Node1&#45;&gt;Node14</title>
<path fill="none" stroke="midnightblue" d="M364.33,-280.3C361.83,-247.63 352.97,-131.87 349.45,-85.96"/>
<polygon fill="midnightblue" stroke="midnightblue" points="352.93,-85.59 348.68,-75.88 345.95,-86.12 352.93,-85.59"/>
</g>
<!-- Node15 -->
<g id="node15" class="node">
<title>Node15</title>
<g id="a_node15"><a xlink:href="iopheap_8h.html" target="_top" xlink:title=" ">
<polygon fill="white" stroke="black" points="431,-224.5 431,-243.5 489,-243.5 489,-224.5 431,-224.5"/>
<text text-anchor="middle" x="460" y="-231.5" font-family="Helvetica,sans-Serif" font-size="10.00">iopheap.h</text>
</a>
</g>
</g>
<!-- Node1&#45;&gt;Node15 -->
<g id="edge21" class="edge">
<title>Node1&#45;&gt;Node15</title>
<path fill="none" stroke="midnightblue" d="M380.26,-280.32C395.22,-271.82 418.25,-258.73 435.73,-248.8"/>
<polygon fill="midnightblue" stroke="midnightblue" points="437.81,-251.64 444.77,-243.65 434.35,-245.55 437.81,-251.64"/>
</g>
<!-- Node16 -->
<g id="node16" class="node">
<title>Node16</title>
<g id="a_node16"><a xlink:href="fcntl_8h_source.html" target="_top" xlink:title=" ">
<polygon fill="white" stroke="black" points="507.5,-224.5 507.5,-243.5 550.5,-243.5 550.5,-224.5 507.5,-224.5"/>
<text text-anchor="middle" x="529" y="-231.5" font-family="Helvetica,sans-Serif" font-size="10.00">fcntl.h</text>
</a>
</g>
</g>
<!-- Node1&#45;&gt;Node16 -->
<g id="edge22" class="edge">
<title>Node1&#45;&gt;Node16</title>
<path fill="none" stroke="midnightblue" d="M390.99,-280.44C419.87,-270.93 466.53,-255.57 497.48,-245.38"/>
<polygon fill="midnightblue" stroke="midnightblue" points="498.92,-248.59 507.33,-242.14 496.73,-241.94 498.92,-248.59"/>
</g>
<!-- Node17 -->
<g id="node17" class="node">
<title>Node17</title>
<g id="a_node17"><a xlink:href="unistd_8h_source.html" target="_top" xlink:title=" ">
<polygon fill="white" stroke="black" points="569,-224.5 569,-243.5 619,-243.5 619,-224.5 569,-224.5"/>
<text text-anchor="middle" x="594" y="-231.5" font-family="Helvetica,sans-Serif" font-size="10.00">unistd.h</text>
</a>
</g>
</g>
<!-- Node1&#45;&gt;Node17 -->
<g id="edge23" class="edge">
<title>Node1&#45;&gt;Node17</title>
<path fill="none" stroke="midnightblue" d="M403.57,-280.48C440.89,-272.15 499.3,-258.9 558.82,-244.24"/>
<polygon fill="midnightblue" stroke="midnightblue" points="559.91,-247.57 568.77,-241.77 558.22,-240.78 559.91,-247.57"/>
</g>
<!-- Node5 -->
<g id="node5" class="node">
<title>Node5</title>
<g id="a_node5"><a xlink:title=" ">
<polygon fill="white" stroke="#bfbfbf" points="140.5,-0.5 140.5,-19.5 191.5,-19.5 191.5,-0.5 140.5,-0.5"/>
<text text-anchor="middle" x="166" y="-7.5" font-family="Helvetica,sans-Serif" font-size="10.00">stddef.h</text>
</a>
</g>
</g>
<!-- Node4&#45;&gt;Node5 -->
<g id="edge4" class="edge">
<title>Node4&#45;&gt;Node5</title>
<path fill="none" stroke="midnightblue" d="M247.11,-168.08C241.56,-155.47 230.93,-131.77 221,-112 206.05,-82.24 187.23,-48.38 175.93,-28.4"/>
<polygon fill="midnightblue" stroke="midnightblue" points="178.89,-26.51 170.9,-19.54 172.8,-29.97 178.89,-26.51"/>
</g>
<!-- Node6 -->
<g id="node6" class="node">
<title>Node6</title>
<g id="a_node6"><a xlink:title=" ">
<polygon fill="white" stroke="#bfbfbf" points="161.5,-112.5 161.5,-131.5 212.5,-131.5 212.5,-112.5 161.5,-112.5"/>
<text text-anchor="middle" x="187" y="-119.5" font-family="Helvetica,sans-Serif" font-size="10.00">stdarg.h</text>
</a>
</g>
</g>
<!-- Node4&#45;&gt;Node6 -->
<g id="edge5" class="edge">
<title>Node4&#45;&gt;Node6</title>
<path fill="none" stroke="midnightblue" d="M240.72,-168.32C231.16,-160.26 216.72,-148.08 205.22,-138.37"/>
<polygon fill="midnightblue" stroke="midnightblue" points="207.37,-135.61 197.47,-131.83 202.86,-140.96 207.37,-135.61"/>
</g>
<!-- Node7 -->
<g id="node7" class="node">
<title>Node7</title>
<g id="a_node7"><a xlink:href="sifdma_8h.html" target="_top" xlink:title=" ">
<polygon fill="white" stroke="black" points="249.5,-56.5 249.5,-75.5 302.5,-75.5 302.5,-56.5 249.5,-56.5"/>
<text text-anchor="middle" x="276" y="-63.5" font-family="Helvetica,sans-Serif" font-size="10.00">sifdma.h</text>
</a>
</g>
</g>
<!-- Node4&#45;&gt;Node7 -->
<g id="edge6" class="edge">
<title>Node4&#45;&gt;Node7</title>
<path fill="none" stroke="midnightblue" d="M252.96,-168.37C257,-150.62 266.3,-109.67 271.77,-85.6"/>
<polygon fill="midnightblue" stroke="midnightblue" points="275.24,-86.12 274.05,-75.59 268.42,-84.57 275.24,-86.12"/>
</g>
<!-- Node7&#45;&gt;Node2 -->
<g id="edge7" class="edge">
<title>Node7&#45;&gt;Node2</title>
<path fill="none" stroke="midnightblue" d="M276,-56.08C276,-49.01 276,-38.86 276,-29.99"/>
<polygon fill="midnightblue" stroke="midnightblue" points="279.5,-29.75 276,-19.75 272.5,-29.75 279.5,-29.75"/>
</g>
<!-- Node10 -->
<g id="node10" class="node">
<title>Node10</title>
<g id="a_node10"><a xlink:href="sysclib_8h.html" target="_top" xlink:title=" ">
<polygon fill="white" stroke="black" points="90,-168.5 90,-187.5 144,-187.5 144,-168.5 90,-168.5"/>
<text text-anchor="middle" x="117" y="-175.5" font-family="Helvetica,sans-Serif" font-size="10.00">sysclib.h</text>
</a>
</g>
</g>
<!-- Node9&#45;&gt;Node10 -->
<g id="edge10" class="edge">
<title>Node9&#45;&gt;Node10</title>
<path fill="none" stroke="midnightblue" d="M121.17,-224.08C120.52,-217.01 119.58,-206.86 118.76,-197.99"/>
<polygon fill="midnightblue" stroke="midnightblue" points="122.22,-197.39 117.81,-187.75 115.25,-198.03 122.22,-197.39"/>
</g>
<!-- Node10&#45;&gt;Node6 -->
<g id="edge16" class="edge">
<title>Node10&#45;&gt;Node6</title>
<path fill="none" stroke="midnightblue" d="M128.25,-168.32C138.8,-160.18 154.8,-147.84 167.44,-138.09"/>
<polygon fill="midnightblue" stroke="midnightblue" points="169.77,-140.71 175.55,-131.83 165.49,-135.17 169.77,-140.71"/>
</g>
<!-- Node11 -->
<g id="node11" class="node">
<title>Node11</title>
<g id="a_node11"><a xlink:href="types_8h_source.html" target="_top" xlink:title=" ">
<polygon fill="white" stroke="black" points="56.5,-56.5 56.5,-75.5 103.5,-75.5 103.5,-56.5 56.5,-56.5"/>
<text text-anchor="middle" x="80" y="-63.5" font-family="Helvetica,sans-Serif" font-size="10.00">types.h</text>
</a>
</g>
</g>
<!-- Node10&#45;&gt;Node11 -->
<g id="edge11" class="edge">
<title>Node10&#45;&gt;Node11</title>
<path fill="none" stroke="midnightblue" d="M107.23,-168.49C98.49,-160.18 86.28,-146.69 81,-132 75.69,-117.21 75.86,-99.29 77.12,-86.01"/>
<polygon fill="midnightblue" stroke="midnightblue" points="80.63,-86.09 78.4,-75.73 73.69,-85.22 80.63,-86.09"/>
</g>
<!-- Node12 -->
<g id="node12" class="node">
<title>Node12</title>
<g id="a_node12"><a xlink:href="irx_8h.html" target="_top" xlink:title=" ">
<polygon fill="white" stroke="black" points="0,-112.5 0,-131.5 34,-131.5 34,-112.5 0,-112.5"/>
<text text-anchor="middle" x="17" y="-119.5" font-family="Helvetica,sans-Serif" font-size="10.00">irx.h</text>
</a>
</g>
</g>
<!-- Node10&#45;&gt;Node12 -->
<g id="edge14" class="edge">
<title>Node10&#45;&gt;Node12</title>
<path fill="none" stroke="midnightblue" d="M100.93,-168.32C85.04,-159.74 60.49,-146.49 42.04,-136.52"/>
<polygon fill="midnightblue" stroke="midnightblue" points="43.49,-133.33 33.03,-131.65 40.16,-139.49 43.49,-133.33"/>
</g>
<!-- Node13 -->
<g id="node13" class="node">
<title>Node13</title>
<g id="a_node13"><a xlink:href="setjmp_8h.html" target="_top" xlink:title=" ">
<polygon fill="white" stroke="black" points="90.5,-112.5 90.5,-131.5 143.5,-131.5 143.5,-112.5 90.5,-112.5"/>
<text text-anchor="middle" x="117" y="-119.5" font-family="Helvetica,sans-Serif" font-size="10.00">setjmp.h</text>
</a>
</g>
</g>
<!-- Node10&#45;&gt;Node13 -->
<g id="edge17" class="edge">
<title>Node10&#45;&gt;Node13</title>
<path fill="none" stroke="midnightblue" d="M117,-168.08C117,-161.01 117,-150.86 117,-141.99"/>
<polygon fill="midnightblue" stroke="midnightblue" points="120.5,-141.75 117,-131.75 113.5,-141.75 120.5,-141.75"/>
</g>
<!-- Node11&#45;&gt;Node2 -->
<g id="edge13" class="edge">
<title>Node11&#45;&gt;Node2</title>
<path fill="none" stroke="midnightblue" d="M103.64,-58.49C136.21,-49.51 195.36,-33.22 235.17,-22.25"/>
<polygon fill="midnightblue" stroke="midnightblue" points="236.13,-25.61 244.84,-19.58 234.27,-18.87 236.13,-25.61"/>
</g>
<!-- Node11&#45;&gt;Node5 -->
<g id="edge12" class="edge">
<title>Node11&#45;&gt;Node5</title>
<path fill="none" stroke="midnightblue" d="M93.82,-56.32C107.23,-47.9 127.82,-34.97 143.59,-25.07"/>
<polygon fill="midnightblue" stroke="midnightblue" points="145.61,-27.94 152.22,-19.65 141.89,-22.01 145.61,-27.94"/>
</g>
<!-- Node12&#45;&gt;Node11 -->
<g id="edge15" class="edge">
<title>Node12&#45;&gt;Node11</title>
<path fill="none" stroke="midnightblue" d="M27.12,-112.32C36.53,-104.26 50.74,-92.08 62.07,-82.37"/>
<polygon fill="midnightblue" stroke="midnightblue" points="64.38,-85 69.69,-75.83 59.82,-79.68 64.38,-85"/>
</g>
<!-- Node13&#45;&gt;Node2 -->
<g id="edge18" class="edge">
<title>Node13&#45;&gt;Node2</title>
<path fill="none" stroke="midnightblue" d="M129.48,-112.37C156.64,-93.57 221.41,-48.77 254.99,-25.53"/>
<polygon fill="midnightblue" stroke="midnightblue" points="257.35,-28.16 263.58,-19.59 253.37,-22.4 257.35,-28.16"/>
</g>
<!-- Node14&#45;&gt;Node2 -->
<g id="edge20" class="edge">
<title>Node14&#45;&gt;Node2</title>
<path fill="none" stroke="midnightblue" d="M336.43,-56.32C325.58,-48.18 309.12,-35.84 296.12,-26.09"/>
<polygon fill="midnightblue" stroke="midnightblue" points="297.88,-23.03 287.78,-19.83 293.68,-28.63 297.88,-23.03"/>
</g>
</g>
</svg>
