<?xml version="1.0" encoding="UTF-8" standalone="no"?>
<!DOCTYPE svg PUBLIC "-//W3C//DTD SVG 1.1//EN"
 "http://www.w3.org/Graphics/SVG/1.1/DTD/svg11.dtd">
<!-- Generated by graphviz version 2.46.1 (20210215.1649)
 -->
<!-- Title: ee/rpc/cdvd/src/ncmd.c Pages: 1 -->
<svg width="447pt" height="308pt"
 viewBox="0.00 0.00 447.00 308.00" xmlns="http://www.w3.org/2000/svg" xmlns:xlink="http://www.w3.org/1999/xlink">
<g id="graph0" class="graph" transform="scale(1 1) rotate(0) translate(4 304)">
<title>ee/rpc/cdvd/src/ncmd.c</title>
<polygon fill="white" stroke="transparent" points="-4,4 -4,-304 443,-304 443,4 -4,4"/>
<!-- Node1 -->
<g id="node1" class="node">
<title>Node1</title>
<g id="a_node1"><a xlink:title=" ">
<polygon fill="#bfbfbf" stroke="black" points="168.5,-280.5 168.5,-299.5 287.5,-299.5 287.5,-280.5 168.5,-280.5"/>
<text text-anchor="middle" x="228" y="-287.5" font-family="Helvetica,sans-Serif" font-size="10.00">ee/rpc/cdvd/src/ncmd.c</text>
</a>
</g>
</g>
<!-- Node2 -->
<g id="node2" class="node">
<title>Node2</title>
<g id="a_node2"><a xlink:href="stdio_8h.html" target="_top" xlink:title=" ">
<polygon fill="white" stroke="black" points="81.5,-168.5 81.5,-187.5 126.5,-187.5 126.5,-168.5 81.5,-168.5"/>
<text text-anchor="middle" x="104" y="-175.5" font-family="Helvetica,sans-Serif" font-size="10.00">stdio.h</text>
</a>
</g>
</g>
<!-- Node1&#45;&gt;Node2 -->
<g id="edge1" class="edge">
<title>Node1&#45;&gt;Node2</title>
<path fill="none" stroke="midnightblue" d="M193.32,-280.47C172.27,-273.71 146.22,-262.28 129,-244 116.96,-231.22 110.54,-212.03 107.23,-197.81"/>
<polygon fill="midnightblue" stroke="midnightblue" points="110.6,-196.81 105.2,-187.69 103.74,-198.18 110.6,-196.81"/>
</g>
<!-- Node8 -->
<g id="node8" class="node">
<title>Node8</title>
<g id="a_node8"><a xlink:href="kernel_8h.html" target="_top" xlink:title=" ">
<polygon fill="white" stroke="black" points="0,-168.5 0,-187.5 50,-187.5 50,-168.5 0,-168.5"/>
<text text-anchor="middle" x="25" y="-175.5" font-family="Helvetica,sans-Serif" font-size="10.00">kernel.h</text>
</a>
</g>
</g>
<!-- Node1&#45;&gt;Node8 -->
<g id="edge7" class="edge">
<title>Node1&#45;&gt;Node8</title>
<path fill="none" stroke="midnightblue" d="M200.13,-280.4C176.26,-272.49 141.34,-259.65 113,-244 86.95,-229.61 59.82,-208.49 42.69,-194.26"/>
<polygon fill="midnightblue" stroke="midnightblue" points="44.61,-191.3 34.71,-187.52 40.09,-196.65 44.61,-191.3"/>
</g>
<!-- Node10 -->
<g id="node10" class="node">
<title>Node10</title>
<g id="a_node10"><a xlink:title=" ">
<polygon fill="white" stroke="#bfbfbf" points="138,-224.5 138,-243.5 186,-243.5 186,-224.5 138,-224.5"/>
<text text-anchor="middle" x="162" y="-231.5" font-family="Helvetica,sans-Serif" font-size="10.00">sifrpc.h</text>
</a>
</g>
</g>
<!-- Node1&#45;&gt;Node10 -->
<g id="edge12" class="edge">
<title>Node1&#45;&gt;Node10</title>
<path fill="none" stroke="midnightblue" d="M217.4,-280.32C207.54,-272.26 192.65,-260.08 180.78,-250.37"/>
<polygon fill="midnightblue" stroke="midnightblue" points="182.75,-247.46 172.8,-243.83 178.32,-252.88 182.75,-247.46"/>
</g>
<!-- Node11 -->
<g id="node11" class="node">
<title>Node11</title>
<g id="a_node11"><a xlink:href="libcdvd_8h.html" target="_top" xlink:title=" ">
<polygon fill="white" stroke="black" points="309.5,-224.5 309.5,-243.5 364.5,-243.5 364.5,-224.5 309.5,-224.5"/>
<text text-anchor="middle" x="337" y="-231.5" font-family="Helvetica,sans-Serif" font-size="10.00">libcdvd.h</text>
</a>
</g>
</g>
<!-- Node1&#45;&gt;Node11 -->
<g id="edge13" class="edge">
<title>Node1&#45;&gt;Node11</title>
<path fill="none" stroke="midnightblue" d="M245.51,-280.32C263.07,-271.62 290.33,-258.12 310.53,-248.11"/>
<polygon fill="midnightblue" stroke="midnightblue" points="312.12,-251.23 319.53,-243.65 309.02,-244.96 312.12,-251.23"/>
</g>
<!-- Node13 -->
<g id="node13" class="node">
<title>Node13</title>
<g id="a_node13"><a xlink:href="libcdvd-rpc_8h.html" target="_top" xlink:title=" ">
<polygon fill="white" stroke="black" points="206.5,-56.5 206.5,-75.5 277.5,-75.5 277.5,-56.5 206.5,-56.5"/>
<text text-anchor="middle" x="242" y="-63.5" font-family="Helvetica,sans-Serif" font-size="10.00">libcdvd&#45;rpc.h</text>
</a>
</g>
</g>
<!-- Node1&#45;&gt;Node13 -->
<g id="edge16" class="edge">
<title>Node1&#45;&gt;Node13</title>
<path fill="none" stroke="midnightblue" d="M236.99,-280.33C245.02,-271.92 256.23,-258.34 261,-244 279.5,-188.33 274.18,-169.39 262,-112 260,-102.59 255.9,-92.76 251.93,-84.7"/>
<polygon fill="midnightblue" stroke="midnightblue" points="254.89,-82.81 247.13,-75.59 248.69,-86.07 254.89,-82.81"/>
</g>
<!-- Node14 -->
<g id="node14" class="node">
<title>Node14</title>
<g id="a_node14"><a xlink:href="string_8h_source.html" target="_top" xlink:title=" ">
<polygon fill="white" stroke="black" points="204,-224.5 204,-243.5 252,-243.5 252,-224.5 204,-224.5"/>
<text text-anchor="middle" x="228" y="-231.5" font-family="Helvetica,sans-Serif" font-size="10.00">string.h</text>
</a>
</g>
</g>
<!-- Node1&#45;&gt;Node14 -->
<g id="edge18" class="edge">
<title>Node1&#45;&gt;Node14</title>
<path fill="none" stroke="midnightblue" d="M228,-280.08C228,-273.01 228,-262.86 228,-253.99"/>
<polygon fill="midnightblue" stroke="midnightblue" points="231.5,-253.75 228,-243.75 224.5,-253.75 231.5,-253.75"/>
</g>
<!-- Node17 -->
<g id="node17" class="node">
<title>Node17</title>
<g id="a_node17"><a xlink:href="ee_2rpc_2cdvd_2src_2internal_8h.html" target="_top" xlink:title=" ">
<polygon fill="white" stroke="black" points="383,-224.5 383,-243.5 439,-243.5 439,-224.5 383,-224.5"/>
<text text-anchor="middle" x="411" y="-231.5" font-family="Helvetica,sans-Serif" font-size="10.00">internal.h</text>
</a>
</g>
</g>
<!-- Node1&#45;&gt;Node17 -->
<g id="edge25" class="edge">
<title>Node1&#45;&gt;Node17</title>
<path fill="none" stroke="midnightblue" d="M257,-280.44C288.37,-271.19 338.52,-256.39 373.01,-246.21"/>
<polygon fill="midnightblue" stroke="midnightblue" points="374.14,-249.53 382.74,-243.34 372.16,-242.81 374.14,-249.53"/>
</g>
<!-- Node3 -->
<g id="node3" class="node">
<title>Node3</title>
<g id="a_node3"><a xlink:title=" ">
<polygon fill="white" stroke="#bfbfbf" points="39.5,-112.5 39.5,-131.5 90.5,-131.5 90.5,-112.5 39.5,-112.5"/>
<text text-anchor="middle" x="65" y="-119.5" font-family="Helvetica,sans-Serif" font-size="10.00">stdarg.h</text>
</a>
</g>
</g>
<!-- Node2&#45;&gt;Node3 -->
<g id="edge2" class="edge">
<title>Node2&#45;&gt;Node3</title>
<path fill="none" stroke="midnightblue" d="M97.56,-168.08C92.05,-160.46 83.97,-149.26 77.24,-139.94"/>
<polygon fill="midnightblue" stroke="midnightblue" points="80.01,-137.81 71.32,-131.75 74.34,-141.91 80.01,-137.81"/>
</g>
<!-- Node4 -->
<g id="node4" class="node">
<title>Node4</title>
<g id="a_node4"><a xlink:href="irx_8h.html" target="_top" xlink:title=" ">
<polygon fill="white" stroke="black" points="109,-112.5 109,-131.5 143,-131.5 143,-112.5 109,-112.5"/>
<text text-anchor="middle" x="126" y="-119.5" font-family="Helvetica,sans-Serif" font-size="10.00">irx.h</text>
</a>
</g>
</g>
<!-- Node2&#45;&gt;Node4 -->
<g id="edge3" class="edge">
<title>Node2&#45;&gt;Node4</title>
<path fill="none" stroke="midnightblue" d="M107.63,-168.08C110.61,-160.77 114.93,-150.18 118.62,-141.1"/>
<polygon fill="midnightblue" stroke="midnightblue" points="121.9,-142.33 122.43,-131.75 115.42,-139.69 121.9,-142.33"/>
</g>
<!-- Node5 -->
<g id="node5" class="node">
<title>Node5</title>
<g id="a_node5"><a xlink:href="types_8h_source.html" target="_top" xlink:title=" ">
<polygon fill="white" stroke="black" points="102.5,-56.5 102.5,-75.5 149.5,-75.5 149.5,-56.5 102.5,-56.5"/>
<text text-anchor="middle" x="126" y="-63.5" font-family="Helvetica,sans-Serif" font-size="10.00">types.h</text>
</a>
</g>
</g>
<!-- Node4&#45;&gt;Node5 -->
<g id="edge4" class="edge">
<title>Node4&#45;&gt;Node5</title>
<path fill="none" stroke="midnightblue" d="M126,-112.08C126,-105.01 126,-94.86 126,-85.99"/>
<polygon fill="midnightblue" stroke="midnightblue" points="129.5,-85.75 126,-75.75 122.5,-85.75 129.5,-85.75"/>
</g>
<!-- Node6 -->
<g id="node6" class="node">
<title>Node6</title>
<g id="a_node6"><a xlink:title=" ">
<polygon fill="white" stroke="#bfbfbf" points="12.5,-0.5 12.5,-19.5 63.5,-19.5 63.5,-0.5 12.5,-0.5"/>
<text text-anchor="middle" x="38" y="-7.5" font-family="Helvetica,sans-Serif" font-size="10.00">stddef.h</text>
</a>
</g>
</g>
<!-- Node5&#45;&gt;Node6 -->
<g id="edge5" class="edge">
<title>Node5&#45;&gt;Node6</title>
<path fill="none" stroke="midnightblue" d="M111.86,-56.32C98.13,-47.9 77.06,-34.97 60.94,-25.07"/>
<polygon fill="midnightblue" stroke="midnightblue" points="62.46,-21.9 52.1,-19.65 58.8,-27.87 62.46,-21.9"/>
</g>
<!-- Node7 -->
<g id="node7" class="node">
<title>Node7</title>
<g id="a_node7"><a xlink:href="tamtypes_8h.html" target="_top" xlink:title=" ">
<polygon fill="white" stroke="black" points="146,-0.5 146,-19.5 210,-19.5 210,-0.5 146,-0.5"/>
<text text-anchor="middle" x="178" y="-7.5" font-family="Helvetica,sans-Serif" font-size="10.00">tamtypes.h</text>
</a>
</g>
</g>
<!-- Node5&#45;&gt;Node7 -->
<g id="edge6" class="edge">
<title>Node5&#45;&gt;Node7</title>
<path fill="none" stroke="midnightblue" d="M134.59,-56.08C142.16,-48.22 153.38,-36.57 162.51,-27.08"/>
<polygon fill="midnightblue" stroke="midnightblue" points="165.16,-29.38 169.57,-19.75 160.12,-24.53 165.16,-29.38"/>
</g>
<!-- Node8&#45;&gt;Node3 -->
<g id="edge9" class="edge">
<title>Node8&#45;&gt;Node3</title>
<path fill="none" stroke="midnightblue" d="M31.61,-168.08C37.26,-160.46 45.54,-149.26 52.45,-139.94"/>
<polygon fill="midnightblue" stroke="midnightblue" points="55.38,-141.87 58.52,-131.75 49.75,-137.7 55.38,-141.87"/>
</g>
<!-- Node8&#45;&gt;Node6 -->
<g id="edge8" class="edge">
<title>Node8&#45;&gt;Node6</title>
<path fill="none" stroke="midnightblue" d="M21.11,-168.29C12.65,-148.11 -5.68,-96.76 7,-56 10.23,-45.62 16.78,-35.52 23.02,-27.53"/>
<polygon fill="midnightblue" stroke="midnightblue" points="25.79,-29.68 29.52,-19.77 20.42,-25.19 25.79,-29.68"/>
</g>
<!-- Node9 -->
<g id="node9" class="node">
<title>Node9</title>
<g id="a_node9"><a xlink:href="sifdma_8h.html" target="_top" xlink:title=" ">
<polygon fill="white" stroke="black" points="16.5,-56.5 16.5,-75.5 69.5,-75.5 69.5,-56.5 16.5,-56.5"/>
<text text-anchor="middle" x="43" y="-63.5" font-family="Helvetica,sans-Serif" font-size="10.00">sifdma.h</text>
</a>
</g>
</g>
<!-- Node8&#45;&gt;Node9 -->
<g id="edge10" class="edge">
<title>Node8&#45;&gt;Node9</title>
<path fill="none" stroke="midnightblue" d="M25.11,-168.1C25.4,-155.51 26.41,-131.82 30,-112 31.63,-102.99 34.34,-93.19 36.87,-85.05"/>
<polygon fill="midnightblue" stroke="midnightblue" points="40.21,-86.09 39.98,-75.5 33.55,-83.93 40.21,-86.09"/>
</g>
<!-- Node9&#45;&gt;Node7 -->
<g id="edge11" class="edge">
<title>Node9&#45;&gt;Node7</title>
<path fill="none" stroke="midnightblue" d="M64.39,-56.44C86.71,-47.52 121.9,-33.44 147.21,-23.32"/>
<polygon fill="midnightblue" stroke="midnightblue" points="148.72,-26.48 156.71,-19.52 146.12,-19.98 148.72,-26.48"/>
</g>
<!-- Node12 -->
<g id="node12" class="node">
<title>Node12</title>
<g id="a_node12"><a xlink:href="libcdvd-common_8h.html" target="_top" xlink:title=" ">
<polygon fill="white" stroke="black" points="295.5,-56.5 295.5,-75.5 390.5,-75.5 390.5,-56.5 295.5,-56.5"/>
<text text-anchor="middle" x="343" y="-63.5" font-family="Helvetica,sans-Serif" font-size="10.00">libcdvd&#45;common.h</text>
</a>
</g>
</g>
<!-- Node11&#45;&gt;Node12 -->
<g id="edge14" class="edge">
<title>Node11&#45;&gt;Node12</title>
<path fill="none" stroke="midnightblue" d="M337.32,-224.08C338.27,-197.95 341.04,-121.21 342.33,-85.58"/>
<polygon fill="midnightblue" stroke="midnightblue" points="345.83,-85.69 342.69,-75.57 338.83,-85.44 345.83,-85.69"/>
</g>
<!-- Node12&#45;&gt;Node7 -->
<g id="edge15" class="edge">
<title>Node12&#45;&gt;Node7</title>
<path fill="none" stroke="midnightblue" d="M316.86,-56.44C288.98,-47.32 244.65,-32.81 213.6,-22.65"/>
<polygon fill="midnightblue" stroke="midnightblue" points="214.62,-19.3 204.02,-19.52 212.44,-25.95 214.62,-19.3"/>
</g>
<!-- Node13&#45;&gt;Node7 -->
<g id="edge17" class="edge">
<title>Node13&#45;&gt;Node7</title>
<path fill="none" stroke="midnightblue" d="M231.72,-56.32C222.16,-48.26 207.72,-36.08 196.22,-26.37"/>
<polygon fill="midnightblue" stroke="midnightblue" points="198.37,-23.61 188.47,-19.83 193.86,-28.96 198.37,-23.61"/>
</g>
<!-- Node15 -->
<g id="node15" class="node">
<title>Node15</title>
<g id="a_node15"><a xlink:href="sysclib_8h.html" target="_top" xlink:title=" ">
<polygon fill="white" stroke="black" points="145,-168.5 145,-187.5 199,-187.5 199,-168.5 145,-168.5"/>
<text text-anchor="middle" x="172" y="-175.5" font-family="Helvetica,sans-Serif" font-size="10.00">sysclib.h</text>
</a>
</g>
</g>
<!-- Node14&#45;&gt;Node15 -->
<g id="edge19" class="edge">
<title>Node14&#45;&gt;Node15</title>
<path fill="none" stroke="midnightblue" d="M219,-224.32C210.81,-216.42 198.49,-204.55 188.53,-194.94"/>
<polygon fill="midnightblue" stroke="midnightblue" points="190.79,-192.26 181.16,-187.83 185.93,-197.29 190.79,-192.26"/>
</g>
<!-- Node15&#45;&gt;Node3 -->
<g id="edge22" class="edge">
<title>Node15&#45;&gt;Node3</title>
<path fill="none" stroke="midnightblue" d="M154.81,-168.32C137.65,-159.66 111.05,-146.24 91.25,-136.25"/>
<polygon fill="midnightblue" stroke="midnightblue" points="92.65,-133.04 82.15,-131.65 89.5,-139.28 92.65,-133.04"/>
</g>
<!-- Node15&#45;&gt;Node4 -->
<g id="edge21" class="edge">
<title>Node15&#45;&gt;Node4</title>
<path fill="none" stroke="midnightblue" d="M164.4,-168.08C157.77,-160.3 147.98,-148.8 139.94,-139.37"/>
<polygon fill="midnightblue" stroke="midnightblue" points="142.6,-137.09 133.45,-131.75 137.27,-141.63 142.6,-137.09"/>
</g>
<!-- Node15&#45;&gt;Node5 -->
<g id="edge20" class="edge">
<title>Node15&#45;&gt;Node5</title>
<path fill="none" stroke="midnightblue" d="M170,-168.37C166.93,-155.7 160.49,-131.48 152,-112 147.85,-102.49 142.18,-92.44 137.2,-84.26"/>
<polygon fill="midnightblue" stroke="midnightblue" points="140.08,-82.26 131.79,-75.66 134.15,-85.98 140.08,-82.26"/>
</g>
<!-- Node16 -->
<g id="node16" class="node">
<title>Node16</title>
<g id="a_node16"><a xlink:href="setjmp_8h.html" target="_top" xlink:title=" ">
<polygon fill="white" stroke="black" points="199.5,-112.5 199.5,-131.5 252.5,-131.5 252.5,-112.5 199.5,-112.5"/>
<text text-anchor="middle" x="226" y="-119.5" font-family="Helvetica,sans-Serif" font-size="10.00">setjmp.h</text>
</a>
</g>
</g>
<!-- Node15&#45;&gt;Node16 -->
<g id="edge23" class="edge">
<title>Node15&#45;&gt;Node16</title>
<path fill="none" stroke="midnightblue" d="M180.92,-168.08C188.78,-160.22 200.43,-148.57 209.92,-139.08"/>
<polygon fill="midnightblue" stroke="midnightblue" points="212.65,-141.3 217.25,-131.75 207.7,-136.35 212.65,-141.3"/>
</g>
<!-- Node16&#45;&gt;Node7 -->
<g id="edge24" class="edge">
<title>Node16&#45;&gt;Node7</title>
<path fill="none" stroke="midnightblue" d="M219.72,-112.41C213.52,-103.63 204.1,-89.4 198,-76 191.12,-60.89 185.76,-42.77 182.33,-29.5"/>
<polygon fill="midnightblue" stroke="midnightblue" points="185.7,-28.55 179.91,-19.67 178.9,-30.22 185.7,-28.55"/>
</g>
</g>
</svg>
