<?xml version="1.0" encoding="UTF-8" standalone="no"?>
<!DOCTYPE svg PUBLIC "-//W3C//DTD SVG 1.1//EN"
 "http://www.w3.org/Graphics/SVG/1.1/DTD/svg11.dtd">
<!-- Generated by graphviz version 2.46.1 (20210215.1649)
 -->
<!-- Title: iop/fs/fakehost/src/nprintf.c Pages: 1 -->
<svg width="558pt" height="263pt"
 viewBox="0.00 0.00 558.00 263.00" xmlns="http://www.w3.org/2000/svg" xmlns:xlink="http://www.w3.org/1999/xlink">
<g id="graph0" class="graph" transform="scale(1 1) rotate(0) translate(4 259)">
<title>iop/fs/fakehost/src/nprintf.c</title>
<polygon fill="white" stroke="transparent" points="-4,4 -4,-259 554,-259 554,4 -4,4"/>
<!-- Node1 -->
<g id="node1" class="node">
<title>Node1</title>
<g id="a_node1"><a xlink:title=" ">
<polygon fill="#bfbfbf" stroke="black" points="224.5,-224.5 224.5,-254.5 322.5,-254.5 322.5,-224.5 224.5,-224.5"/>
<text text-anchor="start" x="232.5" y="-242.5" font-family="Helvetica,sans-Serif" font-size="10.00">iop/fs/fakehost/src</text>
<text text-anchor="middle" x="273.5" y="-231.5" font-family="Helvetica,sans-Serif" font-size="10.00">/nprintf.c</text>
</a>
</g>
</g>
<!-- Node2 -->
<g id="node2" class="node">
<title>Node2</title>
<g id="a_node2"><a xlink:title=" ">
<polygon fill="white" stroke="#bfbfbf" points="0,-168.5 0,-187.5 47,-187.5 47,-168.5 0,-168.5"/>
<text text-anchor="middle" x="23.5" y="-175.5" font-family="Helvetica,sans-Serif" font-size="10.00">types.h</text>
</a>
</g>
</g>
<!-- Node1&#45;&gt;Node2 -->
<g id="edge1" class="edge">
<title>Node1&#45;&gt;Node2</title>
<path fill="none" stroke="midnightblue" d="M224.25,-227.59C182.33,-218.19 120.3,-203.97 57.02,-188.06"/>
<polygon fill="midnightblue" stroke="midnightblue" points="57.82,-184.65 47.26,-185.6 56.1,-191.44 57.82,-184.65"/>
</g>
<!-- Node3 -->
<g id="node3" class="node">
<title>Node3</title>
<g id="a_node3"><a xlink:href="stdio_8h.html" target="_top" xlink:title=" ">
<polygon fill="white" stroke="black" points="217,-168.5 217,-187.5 262,-187.5 262,-168.5 217,-168.5"/>
<text text-anchor="middle" x="239.5" y="-175.5" font-family="Helvetica,sans-Serif" font-size="10.00">stdio.h</text>
</a>
</g>
</g>
<!-- Node1&#45;&gt;Node3 -->
<g id="edge2" class="edge">
<title>Node1&#45;&gt;Node3</title>
<path fill="none" stroke="midnightblue" d="M265.44,-224.4C260.65,-216.02 254.54,-205.33 249.46,-196.42"/>
<polygon fill="midnightblue" stroke="midnightblue" points="252.45,-194.6 244.45,-187.66 246.37,-198.08 252.45,-194.6"/>
</g>
<!-- Node9 -->
<g id="node9" class="node">
<title>Node9</title>
<g id="a_node9"><a xlink:href="sysclib_8h.html" target="_top" xlink:title=" ">
<polygon fill="white" stroke="black" points="65.5,-168.5 65.5,-187.5 119.5,-187.5 119.5,-168.5 65.5,-168.5"/>
<text text-anchor="middle" x="92.5" y="-175.5" font-family="Helvetica,sans-Serif" font-size="10.00">sysclib.h</text>
</a>
</g>
</g>
<!-- Node1&#45;&gt;Node9 -->
<g id="edge8" class="edge">
<title>Node1&#45;&gt;Node9</title>
<path fill="none" stroke="midnightblue" d="M230.61,-224.4C199.47,-214.16 157.81,-200.47 128.42,-190.81"/>
<polygon fill="midnightblue" stroke="midnightblue" points="129.17,-187.37 118.57,-187.57 126.98,-194.02 129.17,-187.37"/>
</g>
<!-- Node11 -->
<g id="node11" class="node">
<title>Node11</title>
<g id="a_node11"><a xlink:href="thbase_8h.html" target="_top" xlink:title=" ">
<polygon fill="white" stroke="black" points="426,-168.5 426,-187.5 479,-187.5 479,-168.5 426,-168.5"/>
<text text-anchor="middle" x="452.5" y="-175.5" font-family="Helvetica,sans-Serif" font-size="10.00">thbase.h</text>
</a>
</g>
</g>
<!-- Node1&#45;&gt;Node11 -->
<g id="edge14" class="edge">
<title>Node1&#45;&gt;Node11</title>
<path fill="none" stroke="midnightblue" d="M315.92,-224.4C346.72,-214.16 387.91,-200.47 416.98,-190.81"/>
<polygon fill="midnightblue" stroke="midnightblue" points="418.33,-194.05 426.72,-187.57 416.12,-187.4 418.33,-194.05"/>
</g>
<!-- Node12 -->
<g id="node12" class="node">
<title>Node12</title>
<g id="a_node12"><a xlink:href="intrman_8h.html" target="_top" xlink:title=" ">
<polygon fill="white" stroke="black" points="280.5,-168.5 280.5,-187.5 336.5,-187.5 336.5,-168.5 280.5,-168.5"/>
<text text-anchor="middle" x="308.5" y="-175.5" font-family="Helvetica,sans-Serif" font-size="10.00">intrman.h</text>
</a>
</g>
</g>
<!-- Node1&#45;&gt;Node12 -->
<g id="edge17" class="edge">
<title>Node1&#45;&gt;Node12</title>
<path fill="none" stroke="midnightblue" d="M281.79,-224.4C286.72,-216.02 293.01,-205.33 298.25,-196.42"/>
<polygon fill="midnightblue" stroke="midnightblue" points="301.35,-198.05 303.41,-187.66 295.32,-194.5 301.35,-198.05"/>
</g>
<!-- Node13 -->
<g id="node13" class="node">
<title>Node13</title>
<g id="a_node13"><a xlink:href="sysmem_8h.html" target="_top" xlink:title=" ">
<polygon fill="white" stroke="black" points="138,-168.5 138,-187.5 199,-187.5 199,-168.5 138,-168.5"/>
<text text-anchor="middle" x="168.5" y="-175.5" font-family="Helvetica,sans-Serif" font-size="10.00">sysmem.h</text>
</a>
</g>
</g>
<!-- Node1&#45;&gt;Node13 -->
<g id="edge20" class="edge">
<title>Node1&#45;&gt;Node13</title>
<path fill="none" stroke="midnightblue" d="M248.62,-224.4C231.79,-214.86 209.66,-202.32 192.93,-192.84"/>
<polygon fill="midnightblue" stroke="midnightblue" points="194.2,-189.54 183.78,-187.66 190.75,-195.63 194.2,-189.54"/>
</g>
<!-- Node14 -->
<g id="node14" class="node">
<title>Node14</title>
<g id="a_node14"><a xlink:href="sifman_8h.html" target="_top" xlink:title=" ">
<polygon fill="white" stroke="black" points="355,-168.5 355,-187.5 408,-187.5 408,-168.5 355,-168.5"/>
<text text-anchor="middle" x="381.5" y="-175.5" font-family="Helvetica,sans-Serif" font-size="10.00">sifman.h</text>
</a>
</g>
</g>
<!-- Node1&#45;&gt;Node14 -->
<g id="edge24" class="edge">
<title>Node1&#45;&gt;Node14</title>
<path fill="none" stroke="midnightblue" d="M299.09,-224.4C316.57,-214.77 339.59,-202.09 356.86,-192.58"/>
<polygon fill="midnightblue" stroke="midnightblue" points="358.72,-195.55 365.79,-187.66 355.34,-189.42 358.72,-195.55"/>
</g>
<!-- Node15 -->
<g id="node15" class="node">
<title>Node15</title>
<g id="a_node15"><a xlink:title=" ">
<polygon fill="white" stroke="#bfbfbf" points="497,-168.5 497,-187.5 550,-187.5 550,-168.5 497,-168.5"/>
<text text-anchor="middle" x="523.5" y="-175.5" font-family="Helvetica,sans-Serif" font-size="10.00">sifcmd.h</text>
</a>
</g>
</g>
<!-- Node1&#45;&gt;Node15 -->
<g id="edge27" class="edge">
<title>Node1&#45;&gt;Node15</title>
<path fill="none" stroke="midnightblue" d="M322.67,-227.26C364.08,-217.72 425.13,-203.5 486.85,-188.37"/>
<polygon fill="midnightblue" stroke="midnightblue" points="487.89,-191.72 496.76,-185.94 486.22,-184.93 487.89,-191.72"/>
</g>
<!-- Node4 -->
<g id="node4" class="node">
<title>Node4</title>
<g id="a_node4"><a xlink:title=" ">
<polygon fill="white" stroke="#bfbfbf" points="143,-112.5 143,-131.5 194,-131.5 194,-112.5 143,-112.5"/>
<text text-anchor="middle" x="168.5" y="-119.5" font-family="Helvetica,sans-Serif" font-size="10.00">stdarg.h</text>
</a>
</g>
</g>
<!-- Node3&#45;&gt;Node4 -->
<g id="edge3" class="edge">
<title>Node3&#45;&gt;Node4</title>
<path fill="none" stroke="midnightblue" d="M228.09,-168.32C217.39,-160.18 201.16,-147.84 188.34,-138.09"/>
<polygon fill="midnightblue" stroke="midnightblue" points="190.19,-135.1 180.11,-131.83 185.96,-140.67 190.19,-135.1"/>
</g>
<!-- Node5 -->
<g id="node5" class="node">
<title>Node5</title>
<g id="a_node5"><a xlink:href="irx_8h.html" target="_top" xlink:title=" ">
<polygon fill="white" stroke="black" points="250.5,-112.5 250.5,-131.5 284.5,-131.5 284.5,-112.5 250.5,-112.5"/>
<text text-anchor="middle" x="267.5" y="-119.5" font-family="Helvetica,sans-Serif" font-size="10.00">irx.h</text>
</a>
</g>
</g>
<!-- Node3&#45;&gt;Node5 -->
<g id="edge4" class="edge">
<title>Node3&#45;&gt;Node5</title>
<path fill="none" stroke="midnightblue" d="M244.12,-168.08C247.96,-160.69 253.52,-149.95 258.26,-140.81"/>
<polygon fill="midnightblue" stroke="midnightblue" points="261.47,-142.24 262.96,-131.75 255.25,-139.02 261.47,-142.24"/>
</g>
<!-- Node6 -->
<g id="node6" class="node">
<title>Node6</title>
<g id="a_node6"><a xlink:href="types_8h_source.html" target="_top" xlink:title=" ">
<polygon fill="white" stroke="black" points="244,-56.5 244,-75.5 291,-75.5 291,-56.5 244,-56.5"/>
<text text-anchor="middle" x="267.5" y="-63.5" font-family="Helvetica,sans-Serif" font-size="10.00">types.h</text>
</a>
</g>
</g>
<!-- Node5&#45;&gt;Node6 -->
<g id="edge5" class="edge">
<title>Node5&#45;&gt;Node6</title>
<path fill="none" stroke="midnightblue" d="M267.5,-112.08C267.5,-105.01 267.5,-94.86 267.5,-85.99"/>
<polygon fill="midnightblue" stroke="midnightblue" points="271,-85.75 267.5,-75.75 264,-85.75 271,-85.75"/>
</g>
<!-- Node7 -->
<g id="node7" class="node">
<title>Node7</title>
<g id="a_node7"><a xlink:title=" ">
<polygon fill="white" stroke="#bfbfbf" points="242,-0.5 242,-19.5 293,-19.5 293,-0.5 242,-0.5"/>
<text text-anchor="middle" x="267.5" y="-7.5" font-family="Helvetica,sans-Serif" font-size="10.00">stddef.h</text>
</a>
</g>
</g>
<!-- Node6&#45;&gt;Node7 -->
<g id="edge6" class="edge">
<title>Node6&#45;&gt;Node7</title>
<path fill="none" stroke="midnightblue" d="M267.5,-56.08C267.5,-49.01 267.5,-38.86 267.5,-29.99"/>
<polygon fill="midnightblue" stroke="midnightblue" points="271,-29.75 267.5,-19.75 264,-29.75 271,-29.75"/>
</g>
<!-- Node8 -->
<g id="node8" class="node">
<title>Node8</title>
<g id="a_node8"><a xlink:href="tamtypes_8h.html" target="_top" xlink:title=" ">
<polygon fill="white" stroke="black" points="130.5,-0.5 130.5,-19.5 194.5,-19.5 194.5,-0.5 130.5,-0.5"/>
<text text-anchor="middle" x="162.5" y="-7.5" font-family="Helvetica,sans-Serif" font-size="10.00">tamtypes.h</text>
</a>
</g>
</g>
<!-- Node6&#45;&gt;Node8 -->
<g id="edge7" class="edge">
<title>Node6&#45;&gt;Node8</title>
<path fill="none" stroke="midnightblue" d="M250.63,-56.32C233.79,-47.66 207.69,-34.24 188.26,-24.25"/>
<polygon fill="midnightblue" stroke="midnightblue" points="189.82,-21.12 179.33,-19.65 186.62,-27.34 189.82,-21.12"/>
</g>
<!-- Node9&#45;&gt;Node4 -->
<g id="edge11" class="edge">
<title>Node9&#45;&gt;Node4</title>
<path fill="none" stroke="midnightblue" d="M104.71,-168.32C116.28,-160.11 133.88,-147.6 147.66,-137.81"/>
<polygon fill="midnightblue" stroke="midnightblue" points="149.94,-140.48 156.07,-131.83 145.89,-134.77 149.94,-140.48"/>
</g>
<!-- Node9&#45;&gt;Node5 -->
<g id="edge10" class="edge">
<title>Node9&#45;&gt;Node5</title>
<path fill="none" stroke="midnightblue" d="M119.84,-168.56C152.81,-158.39 207.84,-141.41 240.6,-131.3"/>
<polygon fill="midnightblue" stroke="midnightblue" points="241.88,-134.57 250.4,-128.28 239.81,-127.88 241.88,-134.57"/>
</g>
<!-- Node9&#45;&gt;Node6 -->
<g id="edge9" class="edge">
<title>Node9&#45;&gt;Node6</title>
<path fill="none" stroke="midnightblue" d="M95.82,-168.07C101.46,-154.11 114.2,-127.17 133.5,-112 162.89,-88.91 204.73,-77.36 233.81,-71.8"/>
<polygon fill="midnightblue" stroke="midnightblue" points="234.67,-75.21 243.9,-70.01 233.45,-68.31 234.67,-75.21"/>
</g>
<!-- Node10 -->
<g id="node10" class="node">
<title>Node10</title>
<g id="a_node10"><a xlink:href="setjmp_8h.html" target="_top" xlink:title=" ">
<polygon fill="white" stroke="black" points="79,-56.5 79,-75.5 132,-75.5 132,-56.5 79,-56.5"/>
<text text-anchor="middle" x="105.5" y="-63.5" font-family="Helvetica,sans-Serif" font-size="10.00">setjmp.h</text>
</a>
</g>
</g>
<!-- Node9&#45;&gt;Node10 -->
<g id="edge12" class="edge">
<title>Node9&#45;&gt;Node10</title>
<path fill="none" stroke="midnightblue" d="M93.52,-168.37C95.62,-150.62 100.46,-109.67 103.3,-85.6"/>
<polygon fill="midnightblue" stroke="midnightblue" points="106.79,-85.93 104.48,-75.59 99.84,-85.11 106.79,-85.93"/>
</g>
<!-- Node10&#45;&gt;Node8 -->
<g id="edge13" class="edge">
<title>Node10&#45;&gt;Node8</title>
<path fill="none" stroke="midnightblue" d="M114.66,-56.32C123,-48.42 135.53,-36.55 145.68,-26.94"/>
<polygon fill="midnightblue" stroke="midnightblue" points="148.32,-29.25 153.18,-19.83 143.51,-24.17 148.32,-29.25"/>
</g>
<!-- Node11&#45;&gt;Node5 -->
<g id="edge16" class="edge">
<title>Node11&#45;&gt;Node5</title>
<path fill="none" stroke="midnightblue" d="M425.99,-169.26C391.04,-159.06 329.87,-141.2 294.62,-130.91"/>
<polygon fill="midnightblue" stroke="midnightblue" points="295.15,-127.42 284.57,-127.98 293.18,-134.14 295.15,-127.42"/>
</g>
<!-- Node11&#45;&gt;Node6 -->
<g id="edge15" class="edge">
<title>Node11&#45;&gt;Node6</title>
<path fill="none" stroke="midnightblue" d="M437.98,-168.37C406.1,-149.41 329.73,-104 290.95,-80.94"/>
<polygon fill="midnightblue" stroke="midnightblue" points="292.33,-77.69 281.95,-75.59 288.76,-83.71 292.33,-77.69"/>
</g>
<!-- Node12&#45;&gt;Node5 -->
<g id="edge19" class="edge">
<title>Node12&#45;&gt;Node5</title>
<path fill="none" stroke="midnightblue" d="M301.73,-168.08C295.94,-160.46 287.44,-149.26 280.36,-139.94"/>
<polygon fill="midnightblue" stroke="midnightblue" points="282.98,-137.6 274.14,-131.75 277.4,-141.83 282.98,-137.6"/>
</g>
<!-- Node12&#45;&gt;Node6 -->
<g id="edge18" class="edge">
<title>Node12&#45;&gt;Node6</title>
<path fill="none" stroke="midnightblue" d="M307.34,-168.34C305.45,-155.65 301.14,-131.39 293.5,-112 289.7,-102.35 284.06,-92.28 279.01,-84.13"/>
<polygon fill="midnightblue" stroke="midnightblue" points="281.85,-82.08 273.49,-75.57 275.97,-85.87 281.85,-82.08"/>
</g>
<!-- Node13&#45;&gt;Node4 -->
<g id="edge23" class="edge">
<title>Node13&#45;&gt;Node4</title>
<path fill="none" stroke="midnightblue" d="M168.5,-168.08C168.5,-161.01 168.5,-150.86 168.5,-141.99"/>
<polygon fill="midnightblue" stroke="midnightblue" points="172,-141.75 168.5,-131.75 165,-141.75 172,-141.75"/>
</g>
<!-- Node13&#45;&gt;Node5 -->
<g id="edge22" class="edge">
<title>Node13&#45;&gt;Node5</title>
<path fill="none" stroke="midnightblue" d="M184.41,-168.32C200.14,-159.74 224.44,-146.49 242.71,-136.52"/>
<polygon fill="midnightblue" stroke="midnightblue" points="244.53,-139.52 251.63,-131.65 241.18,-133.37 244.53,-139.52"/>
</g>
<!-- Node13&#45;&gt;Node6 -->
<g id="edge21" class="edge">
<title>Node13&#45;&gt;Node6</title>
<path fill="none" stroke="midnightblue" d="M176.27,-168.37C192.82,-149.97 231.8,-106.67 253.05,-83.05"/>
<polygon fill="midnightblue" stroke="midnightblue" points="255.68,-85.37 259.77,-75.59 250.48,-80.68 255.68,-85.37"/>
</g>
<!-- Node14&#45;&gt;Node5 -->
<g id="edge26" class="edge">
<title>Node14&#45;&gt;Node5</title>
<path fill="none" stroke="midnightblue" d="M363.44,-168.44C344.71,-159.57 315.24,-145.61 293.9,-135.5"/>
<polygon fill="midnightblue" stroke="midnightblue" points="295.27,-132.28 284.73,-131.16 292.27,-138.61 295.27,-132.28"/>
</g>
<!-- Node14&#45;&gt;Node6 -->
<g id="edge25" class="edge">
<title>Node14&#45;&gt;Node6</title>
<path fill="none" stroke="midnightblue" d="M372.55,-168.37C353.41,-149.89 308.22,-106.29 283.82,-82.74"/>
<polygon fill="midnightblue" stroke="midnightblue" points="286.03,-80.02 276.4,-75.59 281.17,-85.05 286.03,-80.02"/>
</g>
</g>
</svg>
