<?xml version="1.0" encoding="UTF-8" standalone="no"?>
<!DOCTYPE svg PUBLIC "-//W3C//DTD SVG 1.1//EN"
 "http://www.w3.org/Graphics/SVG/1.1/DTD/svg11.dtd">
<!-- Generated by graphviz version 2.46.1 (20210215.1649)
 -->
<!-- Title: ee/kernel/src/osd_config.c Pages: 1 -->
<!--zoomable 308 -->
<svg id="main" version="1.1" xmlns="http://www.w3.org/2000/svg" xmlns:xlink="http://www.w3.org/1999/xlink" xml:space="preserve" onload="init(evt)">
<style type="text/css"><![CDATA[
.edge:hover path { stroke: red; }
.edge:hover polygon { stroke: red; fill: red; }
]]></style>
<script type="text/javascript"><![CDATA[
var edges = document.getElementsByTagName('g');
if (edges && edges.length) {
  for (var i=0;i<edges.length;i++) {
    if (edges[i].id.substr(0,4)=='edge') {
      edges[i].setAttribute('class','edge');
    }
  }
}
]]></script>
        <defs>
                <circle id="rim" cx="0" cy="0" r="7"/>
                <circle id="rim2" cx="0" cy="0" r="3.5"/>
                <g id="zoomPlus">
                        <use xlink:href="#rim" fill="#404040">
                                <set attributeName="fill" to="#808080" begin="zoomplus.mouseover" end="zoomplus.mouseout"/>
                        </use>
                        <path d="M-4,0h8M0,-4v8" fill="none" stroke="white" stroke-width="1.5" pointer-events="none"/>
                </g>
                <g id="zoomMin">
                        <use xlink:href="#rim" fill="#404040">
                                <set attributeName="fill" to="#808080" begin="zoomminus.mouseover" end="zoomminus.mouseout"/>
                        </use>
                        <path d="M-4,0h8" fill="none" stroke="white" stroke-width="1.5" pointer-events="none"/>
                </g>
                <g id="dirArrow">
                        <path fill="none" stroke="white" stroke-width="1.5" d="M0,-3.0v7 M-2.5,-0.5L0,-3.0L2.5,-0.5"/>
                </g>
               <g id="resetDef">
                       <use xlink:href="#rim2" fill="#404040">
                               <set attributeName="fill" to="#808080" begin="reset.mouseover" end="reset.mouseout"/>
                       </use>
               </g>
        </defs>

<script type="text/javascript">
var viewWidth = 560;
var viewHeight = 308;
var sectionId = 'dynsection-0';
</script>
<script xlink:href="svgpan.js"/>
<svg id="graph" class="graph">
<g id="viewport">
<title>ee/kernel/src/osd_config.c</title>
<polygon fill="white" stroke="transparent" points="-4,4 -4,-304 555.6,-304 555.6,4 -4,4"/>
<!-- Node1 -->
<g id="node1" class="node">
<title>Node1</title>
<g id="a_node1"><a xlink:title=" ">
<polygon fill="#bfbfbf" stroke="black" points="247,-280.5 247,-299.5 377,-299.5 377,-280.5 247,-280.5"/>
<text text-anchor="middle" x="312" y="-287.5" font-family="Helvetica,sans-Serif" font-size="10.00">ee/kernel/src/osd_config.c</text>
</a>
</g>
</g>
<!-- Node2 -->
<g id="node2" class="node">
<title>Node2</title>
<g id="a_node2"><a xlink:href="tamtypes_8h.html" target="_top" xlink:title=" ">
<polygon fill="white" stroke="black" points="339,-0.5 339,-19.5 403,-19.5 403,-0.5 339,-0.5"/>
<text text-anchor="middle" x="371" y="-7.5" font-family="Helvetica,sans-Serif" font-size="10.00">tamtypes.h</text>
</a>
</g>
</g>
<!-- Node1&#45;&gt;Node2 -->
<g id="edge1" class="edge">
<title>Node1&#45;&gt;Node2</title>
<path fill="none" stroke="midnightblue" d="M377.31,-286.14C448.07,-279.13 551,-255.74 551,-179 551,-179 551,-179 551,-121 551,-90.9 553.41,-77.16 532,-56 500.53,-24.9 449.44,-14.88 413.27,-11.87"/>
<polygon fill="midnightblue" stroke="midnightblue" points="413.24,-8.36 403.02,-11.16 412.76,-15.34 413.24,-8.36"/>
</g>
<!-- Node3 -->
<g id="node3" class="node">
<title>Node3</title>
<g id="a_node3"><a xlink:href="kernel_8h.html" target="_top" xlink:title=" ">
<polygon fill="white" stroke="black" points="0,-168.5 0,-187.5 50,-187.5 50,-168.5 0,-168.5"/>
<text text-anchor="middle" x="25" y="-175.5" font-family="Helvetica,sans-Serif" font-size="10.00">kernel.h</text>
</a>
</g>
</g>
<!-- Node1&#45;&gt;Node3 -->
<g id="edge2" class="edge">
<title>Node1&#45;&gt;Node3</title>
<path fill="none" stroke="midnightblue" d="M256.65,-280.46C219.08,-273.48 168.81,-261.82 127,-244 96.01,-230.79 63.8,-208.61 44.08,-193.89"/>
<polygon fill="midnightblue" stroke="midnightblue" points="46.02,-190.97 35.94,-187.71 41.79,-196.55 46.02,-190.97"/>
</g>
<!-- Node7 -->
<g id="node7" class="node">
<title>Node7</title>
<g id="a_node7"><a xlink:href="ps2sdkapi_8h_source.html" target="_top" xlink:title=" ">
<polygon fill="white" stroke="black" points="166,-224.5 166,-243.5 234,-243.5 234,-224.5 166,-224.5"/>
<text text-anchor="middle" x="200" y="-231.5" font-family="Helvetica,sans-Serif" font-size="10.00">ps2sdkapi.h</text>
</a>
</g>
</g>
<!-- Node1&#45;&gt;Node7 -->
<g id="edge7" class="edge">
<title>Node1&#45;&gt;Node7</title>
<path fill="none" stroke="midnightblue" d="M294.01,-280.32C275.96,-271.62 247.95,-258.12 227.2,-248.11"/>
<polygon fill="midnightblue" stroke="midnightblue" points="228.48,-244.84 217.95,-243.65 225.44,-251.15 228.48,-244.84"/>
</g>
<!-- Node11 -->
<g id="node11" class="node">
<title>Node11</title>
<g id="a_node11"><a xlink:href="stdio_8h.html" target="_top" xlink:title=" ">
<polygon fill="white" stroke="black" points="68.5,-168.5 68.5,-187.5 113.5,-187.5 113.5,-168.5 68.5,-168.5"/>
<text text-anchor="middle" x="91" y="-175.5" font-family="Helvetica,sans-Serif" font-size="10.00">stdio.h</text>
</a>
</g>
</g>
<!-- Node1&#45;&gt;Node11 -->
<g id="edge11" class="edge">
<title>Node1&#45;&gt;Node11</title>
<path fill="none" stroke="midnightblue" d="M259.52,-280.49C228.21,-273.82 188.55,-262.49 157,-244 135.43,-231.36 115.71,-210.09 103.56,-195.35"/>
<polygon fill="midnightblue" stroke="midnightblue" points="106.29,-193.16 97.32,-187.53 100.82,-197.53 106.29,-193.16"/>
</g>
<!-- Node14 -->
<g id="node14" class="node">
<title>Node14</title>
<g id="a_node14"><a xlink:href="fcntl_8h_source.html" target="_top" xlink:title=" ">
<polygon fill="white" stroke="black" points="318.5,-224.5 318.5,-243.5 379.5,-243.5 379.5,-224.5 318.5,-224.5"/>
<text text-anchor="middle" x="349" y="-231.5" font-family="Helvetica,sans-Serif" font-size="10.00">sys/fcntl.h</text>
</a>
</g>
</g>
<!-- Node1&#45;&gt;Node14 -->
<g id="edge17" class="edge">
<title>Node1&#45;&gt;Node14</title>
<path fill="none" stroke="midnightblue" d="M318.11,-280.08C323.28,-272.53 330.85,-261.49 337.19,-252.23"/>
<polygon fill="midnightblue" stroke="midnightblue" points="340.24,-253.98 343,-243.75 334.46,-250.02 340.24,-253.98"/>
</g>
<!-- Node15 -->
<g id="node15" class="node">
<title>Node15</title>
<g id="a_node15"><a xlink:href="unistd_8h_source.html" target="_top" xlink:title=" ">
<polygon fill="white" stroke="black" points="398,-224.5 398,-243.5 466,-243.5 466,-224.5 398,-224.5"/>
<text text-anchor="middle" x="432" y="-231.5" font-family="Helvetica,sans-Serif" font-size="10.00">sys/unistd.h</text>
</a>
</g>
</g>
<!-- Node1&#45;&gt;Node15 -->
<g id="edge18" class="edge">
<title>Node1&#45;&gt;Node15</title>
<path fill="none" stroke="midnightblue" d="M331.01,-280.44C350.59,-271.64 381.31,-257.81 403.73,-247.72"/>
<polygon fill="midnightblue" stroke="midnightblue" points="405.39,-250.81 413.07,-243.52 402.52,-244.43 405.39,-250.81"/>
</g>
<!-- Node16 -->
<g id="node16" class="node">
<title>Node16</title>
<g id="a_node16"><a xlink:href="string_8h_source.html" target="_top" xlink:title=" ">
<polygon fill="white" stroke="black" points="252,-224.5 252,-243.5 300,-243.5 300,-224.5 252,-224.5"/>
<text text-anchor="middle" x="276" y="-231.5" font-family="Helvetica,sans-Serif" font-size="10.00">string.h</text>
</a>
</g>
</g>
<!-- Node1&#45;&gt;Node16 -->
<g id="edge19" class="edge">
<title>Node1&#45;&gt;Node16</title>
<path fill="none" stroke="midnightblue" d="M306.06,-280.08C301.02,-272.53 293.66,-261.49 287.49,-252.23"/>
<polygon fill="midnightblue" stroke="midnightblue" points="290.29,-250.13 281.83,-243.75 284.47,-254.01 290.29,-250.13"/>
</g>
<!-- Node19 -->
<g id="node19" class="node">
<title>Node19</title>
<g id="a_node19"><a xlink:href="osd__config_8h.html" target="_top" xlink:title=" ">
<polygon fill="white" stroke="black" points="439.5,-168.5 439.5,-187.5 510.5,-187.5 510.5,-168.5 439.5,-168.5"/>
<text text-anchor="middle" x="475" y="-175.5" font-family="Helvetica,sans-Serif" font-size="10.00">osd_config.h</text>
</a>
</g>
</g>
<!-- Node1&#45;&gt;Node19 -->
<g id="edge26" class="edge">
<title>Node1&#45;&gt;Node19</title>
<path fill="none" stroke="midnightblue" d="M370.52,-280.43C411.87,-273.04 462.15,-260.88 475,-244 484.92,-230.96 483.59,-211.81 480.58,-197.67"/>
<polygon fill="midnightblue" stroke="midnightblue" points="483.87,-196.42 477.98,-187.61 477.09,-198.17 483.87,-196.42"/>
</g>
<!-- Node4 -->
<g id="node4" class="node">
<title>Node4</title>
<g id="a_node4"><a xlink:title=" ">
<polygon fill="white" stroke="#bfbfbf" points="156.5,-0.5 156.5,-19.5 207.5,-19.5 207.5,-0.5 156.5,-0.5"/>
<text text-anchor="middle" x="182" y="-7.5" font-family="Helvetica,sans-Serif" font-size="10.00">stddef.h</text>
</a>
</g>
</g>
<!-- Node3&#45;&gt;Node4 -->
<g id="edge3" class="edge">
<title>Node3&#45;&gt;Node4</title>
<path fill="none" stroke="midnightblue" d="M28.25,-168.49C33.41,-155.56 44.31,-130.52 58,-112 85.87,-74.28 130.94,-42.37 158.39,-25.02"/>
<polygon fill="midnightblue" stroke="midnightblue" points="160.31,-27.95 166.97,-19.71 156.62,-22 160.31,-27.95"/>
</g>
<!-- Node5 -->
<g id="node5" class="node">
<title>Node5</title>
<g id="a_node5"><a xlink:title=" ">
<polygon fill="white" stroke="#bfbfbf" points="91.5,-112.5 91.5,-131.5 142.5,-131.5 142.5,-112.5 91.5,-112.5"/>
<text text-anchor="middle" x="117" y="-119.5" font-family="Helvetica,sans-Serif" font-size="10.00">stdarg.h</text>
</a>
</g>
</g>
<!-- Node3&#45;&gt;Node5 -->
<g id="edge4" class="edge">
<title>Node3&#45;&gt;Node5</title>
<path fill="none" stroke="midnightblue" d="M39.78,-168.32C54.27,-159.82 76.57,-146.73 93.49,-136.8"/>
<polygon fill="midnightblue" stroke="midnightblue" points="95.4,-139.74 102.26,-131.65 91.86,-133.7 95.4,-139.74"/>
</g>
<!-- Node6 -->
<g id="node6" class="node">
<title>Node6</title>
<g id="a_node6"><a xlink:href="sifdma_8h.html" target="_top" xlink:title=" ">
<polygon fill="white" stroke="black" points="125.5,-56.5 125.5,-75.5 178.5,-75.5 178.5,-56.5 125.5,-56.5"/>
<text text-anchor="middle" x="152" y="-63.5" font-family="Helvetica,sans-Serif" font-size="10.00">sifdma.h</text>
</a>
</g>
</g>
<!-- Node3&#45;&gt;Node6 -->
<g id="edge5" class="edge">
<title>Node3&#45;&gt;Node6</title>
<path fill="none" stroke="midnightblue" d="M31.35,-168.32C41.23,-155.16 61.3,-129.83 82,-112 95.87,-100.05 113.17,-88.9 127.1,-80.69"/>
<polygon fill="midnightblue" stroke="midnightblue" points="129.19,-83.52 136.12,-75.5 125.7,-77.45 129.19,-83.52"/>
</g>
<!-- Node6&#45;&gt;Node2 -->
<g id="edge6" class="edge">
<title>Node6&#45;&gt;Node2</title>
<path fill="none" stroke="midnightblue" d="M178.85,-58.38C216.36,-49.13 284.81,-32.25 329.07,-21.34"/>
<polygon fill="midnightblue" stroke="midnightblue" points="330.08,-24.7 338.95,-18.9 328.4,-17.9 330.08,-24.7"/>
</g>
<!-- Node8 -->
<g id="node8" class="node">
<title>Node8</title>
<g id="a_node8"><a xlink:title=" ">
<polygon fill="white" stroke="#bfbfbf" points="209,-168.5 209,-187.5 257,-187.5 257,-168.5 209,-168.5"/>
<text text-anchor="middle" x="233" y="-175.5" font-family="Helvetica,sans-Serif" font-size="10.00">dirent.h</text>
</a>
</g>
</g>
<!-- Node7&#45;&gt;Node8 -->
<g id="edge8" class="edge">
<title>Node7&#45;&gt;Node8</title>
<path fill="none" stroke="midnightblue" d="M205.45,-224.08C210.01,-216.61 216.67,-205.72 222.29,-196.52"/>
<polygon fill="midnightblue" stroke="midnightblue" points="225.42,-198.11 227.65,-187.75 219.45,-194.46 225.42,-198.11"/>
</g>
<!-- Node9 -->
<g id="node9" class="node">
<title>Node9</title>
<g id="a_node9"><a xlink:title=" ">
<polygon fill="white" stroke="#bfbfbf" points="275,-168.5 275,-187.5 333,-187.5 333,-168.5 275,-168.5"/>
<text text-anchor="middle" x="304" y="-175.5" font-family="Helvetica,sans-Serif" font-size="10.00">inttypes.h</text>
</a>
</g>
</g>
<!-- Node7&#45;&gt;Node9 -->
<g id="edge9" class="edge">
<title>Node7&#45;&gt;Node9</title>
<path fill="none" stroke="midnightblue" d="M216.71,-224.32C233.31,-215.7 259,-202.36 278.22,-192.39"/>
<polygon fill="midnightblue" stroke="midnightblue" points="280.07,-195.37 287.33,-187.65 276.84,-189.16 280.07,-195.37"/>
</g>
<!-- Node10 -->
<g id="node10" class="node">
<title>Node10</title>
<g id="a_node10"><a xlink:title=" ">
<polygon fill="white" stroke="#bfbfbf" points="131.5,-168.5 131.5,-187.5 190.5,-187.5 190.5,-168.5 131.5,-168.5"/>
<text text-anchor="middle" x="161" y="-175.5" font-family="Helvetica,sans-Serif" font-size="10.00">sys/stat.h</text>
</a>
</g>
</g>
<!-- Node7&#45;&gt;Node10 -->
<g id="edge10" class="edge">
<title>Node7&#45;&gt;Node10</title>
<path fill="none" stroke="midnightblue" d="M193.56,-224.08C188.05,-216.46 179.97,-205.26 173.24,-195.94"/>
<polygon fill="midnightblue" stroke="midnightblue" points="176.01,-193.81 167.32,-187.75 170.34,-197.91 176.01,-193.81"/>
</g>
<!-- Node11&#45;&gt;Node5 -->
<g id="edge12" class="edge">
<title>Node11&#45;&gt;Node5</title>
<path fill="none" stroke="midnightblue" d="M95.29,-168.08C98.85,-160.69 104.02,-149.95 108.42,-140.81"/>
<polygon fill="midnightblue" stroke="midnightblue" points="111.6,-142.28 112.79,-131.75 105.29,-139.24 111.6,-142.28"/>
</g>
<!-- Node12 -->
<g id="node12" class="node">
<title>Node12</title>
<g id="a_node12"><a xlink:href="irx_8h.html" target="_top" xlink:title=" ">
<polygon fill="white" stroke="black" points="259,-112.5 259,-131.5 293,-131.5 293,-112.5 259,-112.5"/>
<text text-anchor="middle" x="276" y="-119.5" font-family="Helvetica,sans-Serif" font-size="10.00">irx.h</text>
</a>
</g>
</g>
<!-- Node11&#45;&gt;Node12 -->
<g id="edge13" class="edge">
<title>Node11&#45;&gt;Node12</title>
<path fill="none" stroke="midnightblue" d="M113.68,-170.38C147.85,-160.41 212.38,-141.57 248.94,-130.9"/>
<polygon fill="midnightblue" stroke="midnightblue" points="250.28,-134.15 258.9,-127.99 248.32,-127.43 250.28,-134.15"/>
</g>
<!-- Node13 -->
<g id="node13" class="node">
<title>Node13</title>
<g id="a_node13"><a xlink:href="types_8h_source.html" target="_top" xlink:title=" ">
<polygon fill="white" stroke="black" points="252.5,-56.5 252.5,-75.5 299.5,-75.5 299.5,-56.5 252.5,-56.5"/>
<text text-anchor="middle" x="276" y="-63.5" font-family="Helvetica,sans-Serif" font-size="10.00">types.h</text>
</a>
</g>
</g>
<!-- Node12&#45;&gt;Node13 -->
<g id="edge14" class="edge">
<title>Node12&#45;&gt;Node13</title>
<path fill="none" stroke="midnightblue" d="M276,-112.08C276,-105.01 276,-94.86 276,-85.99"/>
<polygon fill="midnightblue" stroke="midnightblue" points="279.5,-85.75 276,-75.75 272.5,-85.75 279.5,-85.75"/>
</g>
<!-- Node13&#45;&gt;Node2 -->
<g id="edge16" class="edge">
<title>Node13&#45;&gt;Node2</title>
<path fill="none" stroke="midnightblue" d="M291.26,-56.32C306.22,-47.82 329.25,-34.73 346.73,-24.8"/>
<polygon fill="midnightblue" stroke="midnightblue" points="348.81,-27.64 355.77,-19.65 345.35,-21.55 348.81,-27.64"/>
</g>
<!-- Node13&#45;&gt;Node4 -->
<g id="edge15" class="edge">
<title>Node13&#45;&gt;Node4</title>
<path fill="none" stroke="midnightblue" d="M260.9,-56.32C246.1,-47.82 223.31,-34.73 206.02,-24.8"/>
<polygon fill="midnightblue" stroke="midnightblue" points="207.48,-21.6 197.07,-19.65 203.99,-27.67 207.48,-21.6"/>
</g>
<!-- Node17 -->
<g id="node17" class="node">
<title>Node17</title>
<g id="a_node17"><a xlink:href="sysclib_8h.html" target="_top" xlink:title=" ">
<polygon fill="white" stroke="black" points="351,-168.5 351,-187.5 405,-187.5 405,-168.5 351,-168.5"/>
<text text-anchor="middle" x="378" y="-175.5" font-family="Helvetica,sans-Serif" font-size="10.00">sysclib.h</text>
</a>
</g>
</g>
<!-- Node16&#45;&gt;Node17 -->
<g id="edge20" class="edge">
<title>Node16&#45;&gt;Node17</title>
<path fill="none" stroke="midnightblue" d="M292.39,-224.32C308.67,-215.7 333.87,-202.36 352.72,-192.39"/>
<polygon fill="midnightblue" stroke="midnightblue" points="354.45,-195.43 361.65,-187.65 351.18,-189.24 354.45,-195.43"/>
</g>
<!-- Node17&#45;&gt;Node5 -->
<g id="edge23" class="edge">
<title>Node17&#45;&gt;Node5</title>
<path fill="none" stroke="midnightblue" d="M350.91,-170.08C347.91,-169.36 344.89,-168.65 342,-168 275.44,-153.03 197.23,-137.95 152.75,-129.61"/>
<polygon fill="midnightblue" stroke="midnightblue" points="153.2,-126.13 142.73,-127.73 151.92,-133.01 153.2,-126.13"/>
</g>
<!-- Node17&#45;&gt;Node12 -->
<g id="edge22" class="edge">
<title>Node17&#45;&gt;Node12</title>
<path fill="none" stroke="midnightblue" d="M361.61,-168.32C345.33,-159.7 320.13,-146.36 301.28,-136.39"/>
<polygon fill="midnightblue" stroke="midnightblue" points="302.82,-133.24 292.35,-131.65 299.55,-139.43 302.82,-133.24"/>
</g>
<!-- Node17&#45;&gt;Node13 -->
<g id="edge21" class="edge">
<title>Node17&#45;&gt;Node13</title>
<path fill="none" stroke="midnightblue" d="M370,-168.37C352.94,-149.97 312.79,-106.67 290.88,-83.05"/>
<polygon fill="midnightblue" stroke="midnightblue" points="293.33,-80.54 283.97,-75.59 288.2,-85.3 293.33,-80.54"/>
</g>
<!-- Node18 -->
<g id="node18" class="node">
<title>Node18</title>
<g id="a_node18"><a xlink:href="setjmp_8h.html" target="_top" xlink:title=" ">
<polygon fill="white" stroke="black" points="317.5,-56.5 317.5,-75.5 370.5,-75.5 370.5,-56.5 317.5,-56.5"/>
<text text-anchor="middle" x="344" y="-63.5" font-family="Helvetica,sans-Serif" font-size="10.00">setjmp.h</text>
</a>
</g>
</g>
<!-- Node17&#45;&gt;Node18 -->
<g id="edge24" class="edge">
<title>Node17&#45;&gt;Node18</title>
<path fill="none" stroke="midnightblue" d="M375.33,-168.37C369.82,-150.54 357.07,-109.3 349.65,-85.27"/>
<polygon fill="midnightblue" stroke="midnightblue" points="352.95,-84.11 346.66,-75.59 346.26,-86.18 352.95,-84.11"/>
</g>
<!-- Node18&#45;&gt;Node2 -->
<g id="edge25" class="edge">
<title>Node18&#45;&gt;Node2</title>
<path fill="none" stroke="midnightblue" d="M348.46,-56.08C352.15,-48.69 357.52,-37.95 362.09,-28.81"/>
<polygon fill="midnightblue" stroke="midnightblue" points="365.28,-30.26 366.62,-19.75 359.02,-27.13 365.28,-30.26"/>
</g>
<!-- Node19&#45;&gt;Node2 -->
<g id="edge27" class="edge">
<title>Node19&#45;&gt;Node2</title>
<path fill="none" stroke="midnightblue" d="M467.39,-168.36C459.78,-159.53 447.95,-145.27 439,-132 415.3,-96.86 392.07,-52.9 379.85,-28.81"/>
<polygon fill="midnightblue" stroke="midnightblue" points="382.94,-27.16 375.32,-19.79 376.68,-30.3 382.94,-27.16"/>
</g>
<!-- Node20 -->
<g id="node20" class="node">
<title>Node20</title>
<g id="a_node20"><a xlink:href="libcdvd_8h.html" target="_top" xlink:title=" ">
<polygon fill="white" stroke="black" points="447.5,-112.5 447.5,-131.5 502.5,-131.5 502.5,-112.5 447.5,-112.5"/>
<text text-anchor="middle" x="475" y="-119.5" font-family="Helvetica,sans-Serif" font-size="10.00">libcdvd.h</text>
</a>
</g>
</g>
<!-- Node19&#45;&gt;Node20 -->
<g id="edge28" class="edge">
<title>Node19&#45;&gt;Node20</title>
<path fill="none" stroke="midnightblue" d="M475,-168.08C475,-161.01 475,-150.86 475,-141.99"/>
<polygon fill="midnightblue" stroke="midnightblue" points="478.5,-141.75 475,-131.75 471.5,-141.75 478.5,-141.75"/>
</g>
<!-- Node21 -->
<g id="node21" class="node">
<title>Node21</title>
<g id="a_node21"><a xlink:href="libcdvd-common_8h.html" target="_top" xlink:title=" ">
<polygon fill="white" stroke="black" points="427.5,-56.5 427.5,-75.5 522.5,-75.5 522.5,-56.5 427.5,-56.5"/>
<text text-anchor="middle" x="475" y="-63.5" font-family="Helvetica,sans-Serif" font-size="10.00">libcdvd&#45;common.h</text>
</a>
</g>
</g>
<!-- Node20&#45;&gt;Node21 -->
<g id="edge29" class="edge">
<title>Node20&#45;&gt;Node21</title>
<path fill="none" stroke="midnightblue" d="M475,-112.08C475,-105.01 475,-94.86 475,-85.99"/>
<polygon fill="midnightblue" stroke="midnightblue" points="478.5,-85.75 475,-75.75 471.5,-85.75 478.5,-85.75"/>
</g>
<!-- Node21&#45;&gt;Node2 -->
<g id="edge30" class="edge">
<title>Node21&#45;&gt;Node2</title>
<path fill="none" stroke="midnightblue" d="M458.29,-56.32C441.69,-47.7 416,-34.36 396.78,-24.39"/>
<polygon fill="midnightblue" stroke="midnightblue" points="398.16,-21.16 387.67,-19.65 394.93,-27.37 398.16,-21.16"/>
</g>
</g>
</svg>
        <g id="navigator" transform="translate(0 0)" fill="#404254">
                <rect fill="#f2f5e9" fill-opacity="0.5" stroke="#606060" stroke-width=".5" x="0" y="0" width="60" height="60"/>
                <use id="zoomplus" xlink:href="#zoomPlus" x="17" y="9" onmousedown="handleZoom(evt,'in')"/>
                <use id="zoomminus" xlink:href="#zoomMin" x="42" y="9" onmousedown="handleZoom(evt,'out')"/>
                <use id="reset" xlink:href="#resetDef" x="30" y="36" onmousedown="handleReset()"/>
                <g id="arrowUp" xlink:href="#dirArrow" transform="translate(30 24)" onmousedown="handlePan(0,-1)">
                  <use xlink:href="#rim" fill="#404040">
                        <set attributeName="fill" to="#808080" begin="arrowUp.mouseover" end="arrowUp.mouseout"/>
                  </use>
                  <path fill="none" stroke="white" stroke-width="1.5" d="M0,-3.0v7 M-2.5,-0.5L0,-3.0L2.5,-0.5"/>
                </g>
                <g id="arrowRight" xlink:href="#dirArrow" transform="rotate(90) translate(36 -43)" onmousedown="handlePan(1,0)">
                  <use xlink:href="#rim" fill="#404040">
                        <set attributeName="fill" to="#808080" begin="arrowRight.mouseover" end="arrowRight.mouseout"/>
                  </use>
                  <path fill="none" stroke="white" stroke-width="1.5" d="M0,-3.0v7 M-2.5,-0.5L0,-3.0L2.5,-0.5"/>
                </g>
                <g id="arrowDown" xlink:href="#dirArrow" transform="rotate(180) translate(-30 -48)" onmousedown="handlePan(0,1)">
                  <use xlink:href="#rim" fill="#404040">
                        <set attributeName="fill" to="#808080" begin="arrowDown.mouseover" end="arrowDown.mouseout"/>
                  </use>
                  <path fill="none" stroke="white" stroke-width="1.5" d="M0,-3.0v7 M-2.5,-0.5L0,-3.0L2.5,-0.5"/>
                </g>
                <g id="arrowLeft" xlink:href="#dirArrow" transform="rotate(270) translate(-36 17)" onmousedown="handlePan(-1,0)">
                  <use xlink:href="#rim" fill="#404040">
                        <set attributeName="fill" to="#808080" begin="arrowLeft.mouseover" end="arrowLeft.mouseout"/>
                  </use>
                  <path fill="none" stroke="white" stroke-width="1.5" d="M0,-3.0v7 M-2.5,-0.5L0,-3.0L2.5,-0.5"/>
                </g>
        </g>
        <svg viewBox="0 0 15 15" width="100%" height="30px" preserveAspectRatio="xMaxYMin meet">
         <g id="arrow_out" transform="scale(0.3 0.3)">
          <a xlink:href="osd__config_8c__incl_org.svg" target="_base">
           <rect id="button" ry="5" rx="5" y="6" x="6" height="38" width="38"
                fill="#f2f5e9" fill-opacity="0.5" stroke="#606060" stroke-width="1.0"/>
           <path id="arrow"
             d="M 11.500037,31.436501 C 11.940474,20.09759 22.043105,11.32322 32.158766,21.979434 L 37.068811,17.246167 C 37.068811,17.246167 37.088388,32 37.088388,32 L 22.160133,31.978069 C 22.160133,31.978069 26.997745,27.140456 26.997745,27.140456 C 18.528582,18.264221 13.291696,25.230495 11.500037,31.436501 z"
             style="fill:#404040;"/>
          </a>
         </g>
        </svg>
</svg>
