<?xml version="1.0" encoding="UTF-8" standalone="no"?>
<!DOCTYPE svg PUBLIC "-//W3C//DTD SVG 1.1//EN"
 "http://www.w3.org/Graphics/SVG/1.1/DTD/svg11.dtd">
<!-- Generated by graphviz version 2.46.1 (20210215.1649)
 -->
<!-- Title: ee/sbv/src/patch_disable_prefix_check.c Pages: 1 -->
<svg width="392pt" height="319pt"
 viewBox="0.00 0.00 392.11 319.00" xmlns="http://www.w3.org/2000/svg" xmlns:xlink="http://www.w3.org/1999/xlink">
<g id="graph0" class="graph" transform="scale(1 1) rotate(0) translate(4 315)">
<title>ee/sbv/src/patch_disable_prefix_check.c</title>
<polygon fill="white" stroke="transparent" points="-4,4 -4,-315 388.11,-315 388.11,4 -4,4"/>
<!-- Node1 -->
<g id="node1" class="node">
<title>Node1</title>
<g id="a_node1"><a xlink:title=" ">
<polygon fill="#bfbfbf" stroke="black" points="250.5,-280.5 250.5,-310.5 375.5,-310.5 375.5,-280.5 250.5,-280.5"/>
<text text-anchor="start" x="258.5" y="-298.5" font-family="Helvetica,sans-Serif" font-size="10.00">ee/sbv/src/patch_disable</text>
<text text-anchor="middle" x="313" y="-287.5" font-family="Helvetica,sans-Serif" font-size="10.00">_prefix_check.c</text>
</a>
</g>
</g>
<!-- Node2 -->
<g id="node2" class="node">
<title>Node2</title>
<g id="a_node2"><a xlink:href="tamtypes_8h.html" target="_top" xlink:title=" ">
<polygon fill="white" stroke="black" points="240,-0.5 240,-19.5 304,-19.5 304,-0.5 240,-0.5"/>
<text text-anchor="middle" x="272" y="-7.5" font-family="Helvetica,sans-Serif" font-size="10.00">tamtypes.h</text>
</a>
</g>
</g>
<!-- Node1&#45;&gt;Node2 -->
<g id="edge1" class="edge">
<title>Node1&#45;&gt;Node2</title>
<path fill="none" stroke="midnightblue" d="M329.11,-280.19C350.06,-259.93 384,-220.66 384,-179 384,-179 384,-179 384,-121 384,-90.9 384.44,-78.98 365,-56 351.8,-40.4 331.94,-29.78 313.95,-22.79"/>
<polygon fill="midnightblue" stroke="midnightblue" points="314.8,-19.37 304.21,-19.27 312.42,-25.96 314.8,-19.37"/>
</g>
<!-- Node3 -->
<g id="node3" class="node">
<title>Node3</title>
<g id="a_node3"><a xlink:href="kernel_8h.html" target="_top" xlink:title=" ">
<polygon fill="white" stroke="black" points="234,-168.5 234,-187.5 284,-187.5 284,-168.5 234,-168.5"/>
<text text-anchor="middle" x="259" y="-175.5" font-family="Helvetica,sans-Serif" font-size="10.00">kernel.h</text>
</a>
</g>
</g>
<!-- Node1&#45;&gt;Node3 -->
<g id="edge2" class="edge">
<title>Node1&#45;&gt;Node3</title>
<path fill="none" stroke="midnightblue" d="M306.38,-280.34C296.56,-259.34 278.15,-219.96 267.4,-196.96"/>
<polygon fill="midnightblue" stroke="midnightblue" points="270.46,-195.25 263.05,-187.67 264.12,-198.21 270.46,-195.25"/>
</g>
<!-- Node7 -->
<g id="node7" class="node">
<title>Node7</title>
<g id="a_node7"><a xlink:href="string_8h_source.html" target="_top" xlink:title=" ">
<polygon fill="white" stroke="black" points="163,-224.5 163,-243.5 211,-243.5 211,-224.5 163,-224.5"/>
<text text-anchor="middle" x="187" y="-231.5" font-family="Helvetica,sans-Serif" font-size="10.00">string.h</text>
</a>
</g>
</g>
<!-- Node1&#45;&gt;Node7 -->
<g id="edge7" class="edge">
<title>Node1&#45;&gt;Node7</title>
<path fill="none" stroke="midnightblue" d="M283.14,-280.4C262.38,-270.59 234.9,-257.62 214.64,-248.05"/>
<polygon fill="midnightblue" stroke="midnightblue" points="215.87,-244.76 205.33,-243.66 212.88,-251.09 215.87,-244.76"/>
</g>
<!-- Node12 -->
<g id="node12" class="node">
<title>Node12</title>
<g id="a_node12"><a xlink:href="slib_8h.html" target="_top" xlink:title=" ">
<polygon fill="white" stroke="black" points="316.5,-56.5 316.5,-75.5 355.5,-75.5 355.5,-56.5 316.5,-56.5"/>
<text text-anchor="middle" x="336" y="-63.5" font-family="Helvetica,sans-Serif" font-size="10.00">slib.h</text>
</a>
</g>
</g>
<!-- Node1&#45;&gt;Node12 -->
<g id="edge17" class="edge">
<title>Node1&#45;&gt;Node12</title>
<path fill="none" stroke="midnightblue" d="M314.44,-280.27C318.42,-240.89 329.58,-130.49 334.08,-85.97"/>
<polygon fill="midnightblue" stroke="midnightblue" points="337.57,-86.23 335.1,-75.93 330.61,-85.52 337.57,-86.23"/>
</g>
<!-- Node4 -->
<g id="node4" class="node">
<title>Node4</title>
<g id="a_node4"><a xlink:title=" ">
<polygon fill="white" stroke="#bfbfbf" points="136.5,-0.5 136.5,-19.5 187.5,-19.5 187.5,-0.5 136.5,-0.5"/>
<text text-anchor="middle" x="162" y="-7.5" font-family="Helvetica,sans-Serif" font-size="10.00">stddef.h</text>
</a>
</g>
</g>
<!-- Node3&#45;&gt;Node4 -->
<g id="edge3" class="edge">
<title>Node3&#45;&gt;Node4</title>
<path fill="none" stroke="midnightblue" d="M253.78,-168.08C238.32,-141.61 192.51,-63.21 172.06,-28.21"/>
<polygon fill="midnightblue" stroke="midnightblue" points="175.07,-26.44 167.01,-19.57 169.03,-29.97 175.07,-26.44"/>
</g>
<!-- Node5 -->
<g id="node5" class="node">
<title>Node5</title>
<g id="a_node5"><a xlink:title=" ">
<polygon fill="white" stroke="#bfbfbf" points="161.5,-112.5 161.5,-131.5 212.5,-131.5 212.5,-112.5 161.5,-112.5"/>
<text text-anchor="middle" x="187" y="-119.5" font-family="Helvetica,sans-Serif" font-size="10.00">stdarg.h</text>
</a>
</g>
</g>
<!-- Node3&#45;&gt;Node5 -->
<g id="edge4" class="edge">
<title>Node3&#45;&gt;Node5</title>
<path fill="none" stroke="midnightblue" d="M247.43,-168.32C236.58,-160.18 220.12,-147.84 207.12,-138.09"/>
<polygon fill="midnightblue" stroke="midnightblue" points="208.88,-135.03 198.78,-131.83 204.68,-140.63 208.88,-135.03"/>
</g>
<!-- Node6 -->
<g id="node6" class="node">
<title>Node6</title>
<g id="a_node6"><a xlink:href="sifdma_8h.html" target="_top" xlink:title=" ">
<polygon fill="white" stroke="black" points="245.5,-56.5 245.5,-75.5 298.5,-75.5 298.5,-56.5 245.5,-56.5"/>
<text text-anchor="middle" x="272" y="-63.5" font-family="Helvetica,sans-Serif" font-size="10.00">sifdma.h</text>
</a>
</g>
</g>
<!-- Node3&#45;&gt;Node6 -->
<g id="edge5" class="edge">
<title>Node3&#45;&gt;Node6</title>
<path fill="none" stroke="midnightblue" d="M260.02,-168.37C262.12,-150.62 266.96,-109.67 269.8,-85.6"/>
<polygon fill="midnightblue" stroke="midnightblue" points="273.29,-85.93 270.98,-75.59 266.34,-85.11 273.29,-85.93"/>
</g>
<!-- Node6&#45;&gt;Node2 -->
<g id="edge6" class="edge">
<title>Node6&#45;&gt;Node2</title>
<path fill="none" stroke="midnightblue" d="M272,-56.08C272,-49.01 272,-38.86 272,-29.99"/>
<polygon fill="midnightblue" stroke="midnightblue" points="275.5,-29.75 272,-19.75 268.5,-29.75 275.5,-29.75"/>
</g>
<!-- Node8 -->
<g id="node8" class="node">
<title>Node8</title>
<g id="a_node8"><a xlink:href="sysclib_8h.html" target="_top" xlink:title=" ">
<polygon fill="white" stroke="black" points="90,-168.5 90,-187.5 144,-187.5 144,-168.5 90,-168.5"/>
<text text-anchor="middle" x="117" y="-175.5" font-family="Helvetica,sans-Serif" font-size="10.00">sysclib.h</text>
</a>
</g>
</g>
<!-- Node7&#45;&gt;Node8 -->
<g id="edge8" class="edge">
<title>Node7&#45;&gt;Node8</title>
<path fill="none" stroke="midnightblue" d="M175.75,-224.32C165.2,-216.18 149.2,-203.84 136.56,-194.09"/>
<polygon fill="midnightblue" stroke="midnightblue" points="138.51,-191.17 128.45,-187.83 134.23,-196.71 138.51,-191.17"/>
</g>
<!-- Node8&#45;&gt;Node5 -->
<g id="edge14" class="edge">
<title>Node8&#45;&gt;Node5</title>
<path fill="none" stroke="midnightblue" d="M128.25,-168.32C138.8,-160.18 154.8,-147.84 167.44,-138.09"/>
<polygon fill="midnightblue" stroke="midnightblue" points="169.77,-140.71 175.55,-131.83 165.49,-135.17 169.77,-140.71"/>
</g>
<!-- Node9 -->
<g id="node9" class="node">
<title>Node9</title>
<g id="a_node9"><a xlink:href="types_8h_source.html" target="_top" xlink:title=" ">
<polygon fill="white" stroke="black" points="69.5,-56.5 69.5,-75.5 116.5,-75.5 116.5,-56.5 69.5,-56.5"/>
<text text-anchor="middle" x="93" y="-63.5" font-family="Helvetica,sans-Serif" font-size="10.00">types.h</text>
</a>
</g>
</g>
<!-- Node8&#45;&gt;Node9 -->
<g id="edge9" class="edge">
<title>Node8&#45;&gt;Node9</title>
<path fill="none" stroke="midnightblue" d="M106.84,-168.19C98.09,-159.87 86.1,-146.54 81,-132 75.61,-116.62 79.89,-98.3 84.77,-85.03"/>
<polygon fill="midnightblue" stroke="midnightblue" points="88.07,-86.21 88.65,-75.63 81.6,-83.54 88.07,-86.21"/>
</g>
<!-- Node10 -->
<g id="node10" class="node">
<title>Node10</title>
<g id="a_node10"><a xlink:href="irx_8h.html" target="_top" xlink:title=" ">
<polygon fill="white" stroke="black" points="0,-112.5 0,-131.5 34,-131.5 34,-112.5 0,-112.5"/>
<text text-anchor="middle" x="17" y="-119.5" font-family="Helvetica,sans-Serif" font-size="10.00">irx.h</text>
</a>
</g>
</g>
<!-- Node8&#45;&gt;Node10 -->
<g id="edge12" class="edge">
<title>Node8&#45;&gt;Node10</title>
<path fill="none" stroke="midnightblue" d="M100.93,-168.32C85.04,-159.74 60.49,-146.49 42.04,-136.52"/>
<polygon fill="midnightblue" stroke="midnightblue" points="43.49,-133.33 33.03,-131.65 40.16,-139.49 43.49,-133.33"/>
</g>
<!-- Node11 -->
<g id="node11" class="node">
<title>Node11</title>
<g id="a_node11"><a xlink:href="setjmp_8h.html" target="_top" xlink:title=" ">
<polygon fill="white" stroke="black" points="90.5,-112.5 90.5,-131.5 143.5,-131.5 143.5,-112.5 90.5,-112.5"/>
<text text-anchor="middle" x="117" y="-119.5" font-family="Helvetica,sans-Serif" font-size="10.00">setjmp.h</text>
</a>
</g>
</g>
<!-- Node8&#45;&gt;Node11 -->
<g id="edge15" class="edge">
<title>Node8&#45;&gt;Node11</title>
<path fill="none" stroke="midnightblue" d="M117,-168.08C117,-161.01 117,-150.86 117,-141.99"/>
<polygon fill="midnightblue" stroke="midnightblue" points="120.5,-141.75 117,-131.75 113.5,-141.75 120.5,-141.75"/>
</g>
<!-- Node9&#45;&gt;Node2 -->
<g id="edge11" class="edge">
<title>Node9&#45;&gt;Node2</title>
<path fill="none" stroke="midnightblue" d="M116.77,-57.83C146.63,-48.82 198.25,-33.25 233.71,-22.55"/>
<polygon fill="midnightblue" stroke="midnightblue" points="235.14,-25.78 243.7,-19.54 233.12,-19.07 235.14,-25.78"/>
</g>
<!-- Node9&#45;&gt;Node4 -->
<g id="edge10" class="edge">
<title>Node9&#45;&gt;Node4</title>
<path fill="none" stroke="midnightblue" d="M104.09,-56.32C114.49,-48.18 130.26,-35.84 142.72,-26.09"/>
<polygon fill="midnightblue" stroke="midnightblue" points="144.99,-28.75 150.71,-19.83 140.68,-23.24 144.99,-28.75"/>
</g>
<!-- Node10&#45;&gt;Node9 -->
<g id="edge13" class="edge">
<title>Node10&#45;&gt;Node9</title>
<path fill="none" stroke="midnightblue" d="M29.21,-112.32C40.78,-104.11 58.38,-91.6 72.16,-81.81"/>
<polygon fill="midnightblue" stroke="midnightblue" points="74.44,-84.48 80.57,-75.83 70.39,-78.77 74.44,-84.48"/>
</g>
<!-- Node11&#45;&gt;Node2 -->
<g id="edge16" class="edge">
<title>Node11&#45;&gt;Node2</title>
<path fill="none" stroke="midnightblue" d="M129.16,-112.37C155.65,-93.57 218.78,-48.77 251.52,-25.53"/>
<polygon fill="midnightblue" stroke="midnightblue" points="253.76,-28.23 259.89,-19.59 249.71,-22.52 253.76,-28.23"/>
</g>
<!-- Node12&#45;&gt;Node2 -->
<g id="edge18" class="edge">
<title>Node12&#45;&gt;Node2</title>
<path fill="none" stroke="midnightblue" d="M325.72,-56.32C316.16,-48.26 301.72,-36.08 290.22,-26.37"/>
<polygon fill="midnightblue" stroke="midnightblue" points="292.37,-23.61 282.47,-19.83 287.86,-28.96 292.37,-23.61"/>
</g>
</g>
</svg>
