<?xml version="1.0" encoding="UTF-8" standalone="no"?>
<!DOCTYPE svg PUBLIC "-//W3C//DTD SVG 1.1//EN"
 "http://www.w3.org/Graphics/SVG/1.1/DTD/svg11.dtd">
<!-- Generated by graphviz version 2.46.1 (20210215.1649)
 -->
<!-- Title: ee/sbv/src/patch_enable_lmb.c Pages: 1 -->
<!--zoomable 319 -->
<svg id="main" version="1.1" xmlns="http://www.w3.org/2000/svg" xmlns:xlink="http://www.w3.org/1999/xlink" xml:space="preserve" onload="init(evt)">
<style type="text/css"><![CDATA[
.edge:hover path { stroke: red; }
.edge:hover polygon { stroke: red; fill: red; }
]]></style>
<script type="text/javascript"><![CDATA[
var edges = document.getElementsByTagName('g');
if (edges && edges.length) {
  for (var i=0;i<edges.length;i++) {
    if (edges[i].id.substr(0,4)=='edge') {
      edges[i].setAttribute('class','edge');
    }
  }
}
]]></script>
        <defs>
                <circle id="rim" cx="0" cy="0" r="7"/>
                <circle id="rim2" cx="0" cy="0" r="3.5"/>
                <g id="zoomPlus">
                        <use xlink:href="#rim" fill="#404040">
                                <set attributeName="fill" to="#808080" begin="zoomplus.mouseover" end="zoomplus.mouseout"/>
                        </use>
                        <path d="M-4,0h8M0,-4v8" fill="none" stroke="white" stroke-width="1.5" pointer-events="none"/>
                </g>
                <g id="zoomMin">
                        <use xlink:href="#rim" fill="#404040">
                                <set attributeName="fill" to="#808080" begin="zoomminus.mouseover" end="zoomminus.mouseout"/>
                        </use>
                        <path d="M-4,0h8" fill="none" stroke="white" stroke-width="1.5" pointer-events="none"/>
                </g>
                <g id="dirArrow">
                        <path fill="none" stroke="white" stroke-width="1.5" d="M0,-3.0v7 M-2.5,-0.5L0,-3.0L2.5,-0.5"/>
                </g>
               <g id="resetDef">
                       <use xlink:href="#rim2" fill="#404040">
                               <set attributeName="fill" to="#808080" begin="reset.mouseover" end="reset.mouseout"/>
                       </use>
               </g>
        </defs>

<script type="text/javascript">
var viewWidth = 717;
var viewHeight = 319;
var sectionId = 'dynsection-0';
</script>
<script xlink:href="svgpan.js"/>
<svg id="graph" class="graph">
<g id="viewport">
<title>ee/sbv/src/patch_enable_lmb.c</title>
<polygon fill="white" stroke="transparent" points="-4,4 -4,-315 713,-315 713,4 -4,4"/>
<!-- Node1 -->
<g id="node1" class="node">
<title>Node1</title>
<g id="a_node1"><a xlink:title=" ">
<polygon fill="#bfbfbf" stroke="black" points="377.5,-280.5 377.5,-310.5 500.5,-310.5 500.5,-280.5 377.5,-280.5"/>
<text text-anchor="start" x="385.5" y="-298.5" font-family="Helvetica,sans-Serif" font-size="10.00">ee/sbv/src/patch_enable</text>
<text text-anchor="middle" x="439" y="-287.5" font-family="Helvetica,sans-Serif" font-size="10.00">_lmb.c</text>
</a>
</g>
</g>
<!-- Node2 -->
<g id="node2" class="node">
<title>Node2</title>
<g id="a_node2"><a xlink:href="tamtypes_8h.html" target="_top" xlink:title=" ">
<polygon fill="white" stroke="black" points="293,-0.5 293,-19.5 357,-19.5 357,-0.5 293,-0.5"/>
<text text-anchor="middle" x="325" y="-7.5" font-family="Helvetica,sans-Serif" font-size="10.00">tamtypes.h</text>
</a>
</g>
</g>
<!-- Node1&#45;&gt;Node2 -->
<g id="edge1" class="edge">
<title>Node1&#45;&gt;Node2</title>
<path fill="none" stroke="midnightblue" d="M446.69,-280.44C467.24,-240.78 518.47,-126.31 467,-56 444.39,-25.12 400.47,-14.9 367.43,-11.78"/>
<polygon fill="midnightblue" stroke="midnightblue" points="367.37,-8.27 357.13,-11 366.84,-15.25 367.37,-8.27"/>
</g>
<!-- Node3 -->
<g id="node3" class="node">
<title>Node3</title>
<g id="a_node3"><a xlink:href="kernel_8h.html" target="_top" xlink:title=" ">
<polygon fill="white" stroke="black" points="223,-168.5 223,-187.5 273,-187.5 273,-168.5 223,-168.5"/>
<text text-anchor="middle" x="248" y="-175.5" font-family="Helvetica,sans-Serif" font-size="10.00">kernel.h</text>
</a>
</g>
</g>
<!-- Node1&#45;&gt;Node3 -->
<g id="edge2" class="edge">
<title>Node1&#45;&gt;Node3</title>
<path fill="none" stroke="midnightblue" d="M415.58,-280.34C378.82,-258.11 308,-215.28 271.31,-193.09"/>
<polygon fill="midnightblue" stroke="midnightblue" points="272.7,-189.85 262.34,-187.67 269.08,-195.84 272.7,-189.85"/>
</g>
<!-- Node7 -->
<g id="node7" class="node">
<title>Node7</title>
<g id="a_node7"><a xlink:href="iopheap_8h.html" target="_top" xlink:title=" ">
<polygon fill="white" stroke="black" points="505,-224.5 505,-243.5 563,-243.5 563,-224.5 505,-224.5"/>
<text text-anchor="middle" x="534" y="-231.5" font-family="Helvetica,sans-Serif" font-size="10.00">iopheap.h</text>
</a>
</g>
</g>
<!-- Node1&#45;&gt;Node7 -->
<g id="edge7" class="edge">
<title>Node1&#45;&gt;Node7</title>
<path fill="none" stroke="midnightblue" d="M461.51,-280.4C476.6,-270.95 496.39,-258.56 511.47,-249.11"/>
<polygon fill="midnightblue" stroke="midnightblue" points="513.56,-251.93 520.18,-243.66 509.84,-246 513.56,-251.93"/>
</g>
<!-- Node8 -->
<g id="node8" class="node">
<title>Node8</title>
<g id="a_node8"><a xlink:title=" ">
<polygon fill="white" stroke="#bfbfbf" points="581,-224.5 581,-243.5 629,-243.5 629,-224.5 581,-224.5"/>
<text text-anchor="middle" x="605" y="-231.5" font-family="Helvetica,sans-Serif" font-size="10.00">sifrpc.h</text>
</a>
</g>
</g>
<!-- Node1&#45;&gt;Node8 -->
<g id="edge8" class="edge">
<title>Node1&#45;&gt;Node8</title>
<path fill="none" stroke="midnightblue" d="M478.34,-280.4C506.56,-270.28 544.21,-256.79 571.1,-247.15"/>
<polygon fill="midnightblue" stroke="midnightblue" points="572.61,-250.33 580.85,-243.66 570.25,-243.74 572.61,-250.33"/>
</g>
<!-- Node9 -->
<g id="node9" class="node">
<title>Node9</title>
<g id="a_node9"><a xlink:href="string_8h_source.html" target="_top" xlink:title=" ">
<polygon fill="white" stroke="black" points="110,-224.5 110,-243.5 158,-243.5 158,-224.5 110,-224.5"/>
<text text-anchor="middle" x="134" y="-231.5" font-family="Helvetica,sans-Serif" font-size="10.00">string.h</text>
</a>
</g>
</g>
<!-- Node1&#45;&gt;Node9 -->
<g id="edge9" class="edge">
<title>Node1&#45;&gt;Node9</title>
<path fill="none" stroke="midnightblue" d="M377.28,-282.46C314.23,-270.16 218.62,-251.51 168.08,-241.65"/>
<polygon fill="midnightblue" stroke="midnightblue" points="168.5,-238.16 158.01,-239.68 167.16,-245.03 168.5,-238.16"/>
</g>
<!-- Node14 -->
<g id="node14" class="node">
<title>Node14</title>
<g id="a_node14"><a xlink:href="smem_8h.html" target="_top" xlink:title=" ">
<polygon fill="white" stroke="black" points="304.5,-168.5 304.5,-187.5 355.5,-187.5 355.5,-168.5 304.5,-168.5"/>
<text text-anchor="middle" x="330" y="-175.5" font-family="Helvetica,sans-Serif" font-size="10.00">smem.h</text>
</a>
</g>
</g>
<!-- Node1&#45;&gt;Node14 -->
<g id="edge19" class="edge">
<title>Node1&#45;&gt;Node14</title>
<path fill="none" stroke="midnightblue" d="M419.16,-280.45C406.4,-270.93 389.87,-257.63 377,-244 363,-229.17 349.64,-210.04 340.76,-196.37"/>
<polygon fill="midnightblue" stroke="midnightblue" points="343.46,-194.1 335.15,-187.53 337.55,-197.85 343.46,-194.1"/>
</g>
<!-- Node15 -->
<g id="node15" class="node">
<title>Node15</title>
<g id="a_node15"><a xlink:href="smod_8h.html" target="_top" xlink:title=" ">
<polygon fill="white" stroke="black" points="353,-56.5 353,-75.5 401,-75.5 401,-56.5 353,-56.5"/>
<text text-anchor="middle" x="377" y="-63.5" font-family="Helvetica,sans-Serif" font-size="10.00">smod.h</text>
</a>
</g>
</g>
<!-- Node1&#45;&gt;Node15 -->
<g id="edge21" class="edge">
<title>Node1&#45;&gt;Node15</title>
<path fill="none" stroke="midnightblue" d="M435.12,-280.27C424.37,-240.81 394.17,-130.02 382.09,-85.68"/>
<polygon fill="midnightblue" stroke="midnightblue" points="385.44,-84.65 379.43,-75.93 378.69,-86.5 385.44,-84.65"/>
</g>
<!-- Node16 -->
<g id="node16" class="node">
<title>Node16</title>
<g id="a_node16"><a xlink:href="slib_8h.html" target="_top" xlink:title=" ">
<polygon fill="white" stroke="black" points="419.5,-56.5 419.5,-75.5 458.5,-75.5 458.5,-56.5 419.5,-56.5"/>
<text text-anchor="middle" x="439" y="-63.5" font-family="Helvetica,sans-Serif" font-size="10.00">slib.h</text>
</a>
</g>
</g>
<!-- Node1&#45;&gt;Node16 -->
<g id="edge23" class="edge">
<title>Node1&#45;&gt;Node16</title>
<path fill="none" stroke="midnightblue" d="M439,-280.27C439,-240.89 439,-130.49 439,-85.97"/>
<polygon fill="midnightblue" stroke="midnightblue" points="442.5,-85.93 439,-75.93 435.5,-85.93 442.5,-85.93"/>
</g>
<!-- Node17 -->
<g id="node17" class="node">
<title>Node17</title>
<g id="a_node17"><a xlink:href="ee_2sbv_2src_2common_8h_source.html" target="_top" xlink:title=" ">
<polygon fill="white" stroke="black" points="647,-224.5 647,-243.5 709,-243.5 709,-224.5 647,-224.5"/>
<text text-anchor="middle" x="678" y="-231.5" font-family="Helvetica,sans-Serif" font-size="10.00">common.h</text>
</a>
</g>
</g>
<!-- Node1&#45;&gt;Node17 -->
<g id="edge25" class="edge">
<title>Node1&#45;&gt;Node17</title>
<path fill="none" stroke="midnightblue" d="M495.34,-280.47C538.79,-269.66 597.88,-254.95 636.94,-245.22"/>
<polygon fill="midnightblue" stroke="midnightblue" points="638.05,-248.55 646.91,-242.74 636.36,-241.76 638.05,-248.55"/>
</g>
<!-- Node4 -->
<g id="node4" class="node">
<title>Node4</title>
<g id="a_node4"><a xlink:title=" ">
<polygon fill="white" stroke="#bfbfbf" points="124.5,-0.5 124.5,-19.5 175.5,-19.5 175.5,-0.5 124.5,-0.5"/>
<text text-anchor="middle" x="150" y="-7.5" font-family="Helvetica,sans-Serif" font-size="10.00">stddef.h</text>
</a>
</g>
</g>
<!-- Node3&#45;&gt;Node4 -->
<g id="edge3" class="edge">
<title>Node3&#45;&gt;Node4</title>
<path fill="none" stroke="midnightblue" d="M245.08,-168.31C240.65,-155.58 231.61,-131.27 221,-112 203.7,-80.57 178.67,-47.07 163.42,-27.64"/>
<polygon fill="midnightblue" stroke="midnightblue" points="166.12,-25.41 157.16,-19.76 160.64,-29.76 166.12,-25.41"/>
</g>
<!-- Node5 -->
<g id="node5" class="node">
<title>Node5</title>
<g id="a_node5"><a xlink:title=" ">
<polygon fill="white" stroke="#bfbfbf" points="161.5,-112.5 161.5,-131.5 212.5,-131.5 212.5,-112.5 161.5,-112.5"/>
<text text-anchor="middle" x="187" y="-119.5" font-family="Helvetica,sans-Serif" font-size="10.00">stdarg.h</text>
</a>
</g>
</g>
<!-- Node3&#45;&gt;Node5 -->
<g id="edge4" class="edge">
<title>Node3&#45;&gt;Node5</title>
<path fill="none" stroke="midnightblue" d="M238.2,-168.32C229.18,-160.34 215.59,-148.31 204.68,-138.65"/>
<polygon fill="midnightblue" stroke="midnightblue" points="206.79,-135.84 196.98,-131.83 202.15,-141.08 206.79,-135.84"/>
</g>
<!-- Node6 -->
<g id="node6" class="node">
<title>Node6</title>
<g id="a_node6"><a xlink:href="sifdma_8h.html" target="_top" xlink:title=" ">
<polygon fill="white" stroke="black" points="243.5,-56.5 243.5,-75.5 296.5,-75.5 296.5,-56.5 243.5,-56.5"/>
<text text-anchor="middle" x="270" y="-63.5" font-family="Helvetica,sans-Serif" font-size="10.00">sifdma.h</text>
</a>
</g>
</g>
<!-- Node3&#45;&gt;Node6 -->
<g id="edge5" class="edge">
<title>Node3&#45;&gt;Node6</title>
<path fill="none" stroke="midnightblue" d="M249.73,-168.37C253.28,-150.62 261.47,-109.67 266.28,-85.6"/>
<polygon fill="midnightblue" stroke="midnightblue" points="269.75,-86.08 268.28,-75.59 262.89,-84.71 269.75,-86.08"/>
</g>
<!-- Node6&#45;&gt;Node2 -->
<g id="edge6" class="edge">
<title>Node6&#45;&gt;Node2</title>
<path fill="none" stroke="midnightblue" d="M279.08,-56.08C287.17,-48.14 299.2,-36.34 308.91,-26.8"/>
<polygon fill="midnightblue" stroke="midnightblue" points="311.4,-29.25 316.09,-19.75 306.5,-24.26 311.4,-29.25"/>
</g>
<!-- Node10 -->
<g id="node10" class="node">
<title>Node10</title>
<g id="a_node10"><a xlink:href="sysclib_8h.html" target="_top" xlink:title=" ">
<polygon fill="white" stroke="black" points="90,-168.5 90,-187.5 144,-187.5 144,-168.5 90,-168.5"/>
<text text-anchor="middle" x="117" y="-175.5" font-family="Helvetica,sans-Serif" font-size="10.00">sysclib.h</text>
</a>
</g>
</g>
<!-- Node9&#45;&gt;Node10 -->
<g id="edge10" class="edge">
<title>Node9&#45;&gt;Node10</title>
<path fill="none" stroke="midnightblue" d="M131.19,-224.08C128.92,-216.85 125.63,-206.41 122.79,-197.4"/>
<polygon fill="midnightblue" stroke="midnightblue" points="126.1,-196.24 119.75,-187.75 119.42,-198.34 126.1,-196.24"/>
</g>
<!-- Node10&#45;&gt;Node5 -->
<g id="edge16" class="edge">
<title>Node10&#45;&gt;Node5</title>
<path fill="none" stroke="midnightblue" d="M128.25,-168.32C138.8,-160.18 154.8,-147.84 167.44,-138.09"/>
<polygon fill="midnightblue" stroke="midnightblue" points="169.77,-140.71 175.55,-131.83 165.49,-135.17 169.77,-140.71"/>
</g>
<!-- Node11 -->
<g id="node11" class="node">
<title>Node11</title>
<g id="a_node11"><a xlink:href="types_8h_source.html" target="_top" xlink:title=" ">
<polygon fill="white" stroke="black" points="60.5,-56.5 60.5,-75.5 107.5,-75.5 107.5,-56.5 60.5,-56.5"/>
<text text-anchor="middle" x="84" y="-63.5" font-family="Helvetica,sans-Serif" font-size="10.00">types.h</text>
</a>
</g>
</g>
<!-- Node10&#45;&gt;Node11 -->
<g id="edge11" class="edge">
<title>Node10&#45;&gt;Node11</title>
<path fill="none" stroke="midnightblue" d="M106.84,-168.19C98.09,-159.87 86.1,-146.54 81,-132 75.74,-117.01 77.17,-98.87 79.52,-85.57"/>
<polygon fill="midnightblue" stroke="midnightblue" points="82.96,-86.22 81.58,-75.71 76.11,-84.78 82.96,-86.22"/>
</g>
<!-- Node12 -->
<g id="node12" class="node">
<title>Node12</title>
<g id="a_node12"><a xlink:href="irx_8h.html" target="_top" xlink:title=" ">
<polygon fill="white" stroke="black" points="0,-112.5 0,-131.5 34,-131.5 34,-112.5 0,-112.5"/>
<text text-anchor="middle" x="17" y="-119.5" font-family="Helvetica,sans-Serif" font-size="10.00">irx.h</text>
</a>
</g>
</g>
<!-- Node10&#45;&gt;Node12 -->
<g id="edge14" class="edge">
<title>Node10&#45;&gt;Node12</title>
<path fill="none" stroke="midnightblue" d="M100.93,-168.32C85.04,-159.74 60.49,-146.49 42.04,-136.52"/>
<polygon fill="midnightblue" stroke="midnightblue" points="43.49,-133.33 33.03,-131.65 40.16,-139.49 43.49,-133.33"/>
</g>
<!-- Node13 -->
<g id="node13" class="node">
<title>Node13</title>
<g id="a_node13"><a xlink:href="setjmp_8h.html" target="_top" xlink:title=" ">
<polygon fill="white" stroke="black" points="90.5,-112.5 90.5,-131.5 143.5,-131.5 143.5,-112.5 90.5,-112.5"/>
<text text-anchor="middle" x="117" y="-119.5" font-family="Helvetica,sans-Serif" font-size="10.00">setjmp.h</text>
</a>
</g>
</g>
<!-- Node10&#45;&gt;Node13 -->
<g id="edge17" class="edge">
<title>Node10&#45;&gt;Node13</title>
<path fill="none" stroke="midnightblue" d="M117,-168.08C117,-161.01 117,-150.86 117,-141.99"/>
<polygon fill="midnightblue" stroke="midnightblue" points="120.5,-141.75 117,-131.75 113.5,-141.75 120.5,-141.75"/>
</g>
<!-- Node11&#45;&gt;Node2 -->
<g id="edge13" class="edge">
<title>Node11&#45;&gt;Node2</title>
<path fill="none" stroke="midnightblue" d="M107.55,-59.72C148.1,-50.64 231.67,-31.91 282.58,-20.5"/>
<polygon fill="midnightblue" stroke="midnightblue" points="283.62,-23.86 292.61,-18.26 282.09,-17.03 283.62,-23.86"/>
</g>
<!-- Node11&#45;&gt;Node4 -->
<g id="edge12" class="edge">
<title>Node11&#45;&gt;Node4</title>
<path fill="none" stroke="midnightblue" d="M94.6,-56.32C104.46,-48.26 119.35,-36.08 131.22,-26.37"/>
<polygon fill="midnightblue" stroke="midnightblue" points="133.68,-28.88 139.2,-19.83 129.25,-23.46 133.68,-28.88"/>
</g>
<!-- Node12&#45;&gt;Node11 -->
<g id="edge15" class="edge">
<title>Node12&#45;&gt;Node11</title>
<path fill="none" stroke="midnightblue" d="M27.76,-112.32C37.77,-104.26 52.89,-92.08 64.93,-82.37"/>
<polygon fill="midnightblue" stroke="midnightblue" points="67.45,-84.83 73.04,-75.83 63.06,-79.38 67.45,-84.83"/>
</g>
<!-- Node13&#45;&gt;Node2 -->
<g id="edge18" class="edge">
<title>Node13&#45;&gt;Node2</title>
<path fill="none" stroke="midnightblue" d="M132.02,-112.35C154.17,-99.67 196.96,-75.43 234,-56 255.2,-44.88 279.53,-32.89 297.69,-24.08"/>
<polygon fill="midnightblue" stroke="midnightblue" points="299.6,-27.05 307.09,-19.55 296.56,-20.74 299.6,-27.05"/>
</g>
<!-- Node14&#45;&gt;Node2 -->
<g id="edge20" class="edge">
<title>Node14&#45;&gt;Node2</title>
<path fill="none" stroke="midnightblue" d="M329.73,-168.08C328.94,-141.95 326.63,-65.21 325.56,-29.58"/>
<polygon fill="midnightblue" stroke="midnightblue" points="329.06,-29.46 325.26,-19.57 322.06,-29.67 329.06,-29.46"/>
</g>
<!-- Node15&#45;&gt;Node2 -->
<g id="edge22" class="edge">
<title>Node15&#45;&gt;Node2</title>
<path fill="none" stroke="midnightblue" d="M368.41,-56.08C360.84,-48.22 349.62,-36.57 340.49,-27.08"/>
<polygon fill="midnightblue" stroke="midnightblue" points="342.88,-24.53 333.43,-19.75 337.84,-29.38 342.88,-24.53"/>
</g>
<!-- Node16&#45;&gt;Node2 -->
<g id="edge24" class="edge">
<title>Node16&#45;&gt;Node2</title>
<path fill="none" stroke="midnightblue" d="M420.94,-56.44C402.43,-47.68 373.42,-33.94 352.14,-23.86"/>
<polygon fill="midnightblue" stroke="midnightblue" points="353.51,-20.63 342.98,-19.52 350.52,-26.96 353.51,-20.63"/>
</g>
</g>
</svg>
        <g id="navigator" transform="translate(0 0)" fill="#404254">
                <rect fill="#f2f5e9" fill-opacity="0.5" stroke="#606060" stroke-width=".5" x="0" y="0" width="60" height="60"/>
                <use id="zoomplus" xlink:href="#zoomPlus" x="17" y="9" onmousedown="handleZoom(evt,'in')"/>
                <use id="zoomminus" xlink:href="#zoomMin" x="42" y="9" onmousedown="handleZoom(evt,'out')"/>
                <use id="reset" xlink:href="#resetDef" x="30" y="36" onmousedown="handleReset()"/>
                <g id="arrowUp" xlink:href="#dirArrow" transform="translate(30 24)" onmousedown="handlePan(0,-1)">
                  <use xlink:href="#rim" fill="#404040">
                        <set attributeName="fill" to="#808080" begin="arrowUp.mouseover" end="arrowUp.mouseout"/>
                  </use>
                  <path fill="none" stroke="white" stroke-width="1.5" d="M0,-3.0v7 M-2.5,-0.5L0,-3.0L2.5,-0.5"/>
                </g>
                <g id="arrowRight" xlink:href="#dirArrow" transform="rotate(90) translate(36 -43)" onmousedown="handlePan(1,0)">
                  <use xlink:href="#rim" fill="#404040">
                        <set attributeName="fill" to="#808080" begin="arrowRight.mouseover" end="arrowRight.mouseout"/>
                  </use>
                  <path fill="none" stroke="white" stroke-width="1.5" d="M0,-3.0v7 M-2.5,-0.5L0,-3.0L2.5,-0.5"/>
                </g>
                <g id="arrowDown" xlink:href="#dirArrow" transform="rotate(180) translate(-30 -48)" onmousedown="handlePan(0,1)">
                  <use xlink:href="#rim" fill="#404040">
                        <set attributeName="fill" to="#808080" begin="arrowDown.mouseover" end="arrowDown.mouseout"/>
                  </use>
                  <path fill="none" stroke="white" stroke-width="1.5" d="M0,-3.0v7 M-2.5,-0.5L0,-3.0L2.5,-0.5"/>
                </g>
                <g id="arrowLeft" xlink:href="#dirArrow" transform="rotate(270) translate(-36 17)" onmousedown="handlePan(-1,0)">
                  <use xlink:href="#rim" fill="#404040">
                        <set attributeName="fill" to="#808080" begin="arrowLeft.mouseover" end="arrowLeft.mouseout"/>
                  </use>
                  <path fill="none" stroke="white" stroke-width="1.5" d="M0,-3.0v7 M-2.5,-0.5L0,-3.0L2.5,-0.5"/>
                </g>
        </g>
        <svg viewBox="0 0 15 15" width="100%" height="30px" preserveAspectRatio="xMaxYMin meet">
         <g id="arrow_out" transform="scale(0.3 0.3)">
          <a xlink:href="patch__enable__lmb_8c__incl_org.svg" target="_base">
           <rect id="button" ry="5" rx="5" y="6" x="6" height="38" width="38"
                fill="#f2f5e9" fill-opacity="0.5" stroke="#606060" stroke-width="1.0"/>
           <path id="arrow"
             d="M 11.500037,31.436501 C 11.940474,20.09759 22.043105,11.32322 32.158766,21.979434 L 37.068811,17.246167 C 37.068811,17.246167 37.088388,32 37.088388,32 L 22.160133,31.978069 C 22.160133,31.978069 26.997745,27.140456 26.997745,27.140456 C 18.528582,18.264221 13.291696,25.230495 11.500037,31.436501 z"
             style="fill:#404040;"/>
          </a>
         </g>
        </svg>
</svg>
