<?xml version="1.0" encoding="UTF-8" standalone="no"?>
<!DOCTYPE svg PUBLIC "-//W3C//DTD SVG 1.1//EN"
 "http://www.w3.org/Graphics/SVG/1.1/DTD/svg11.dtd">
<!-- Generated by graphviz version 2.46.1 (20210215.1649)
 -->
<!-- Title: iop/fs/netfs/src/ps2_fio.c Pages: 1 -->
<svg width="1074pt" height="319pt"
 viewBox="0.00 0.00 1073.50 319.00" xmlns="http://www.w3.org/2000/svg" xmlns:xlink="http://www.w3.org/1999/xlink">
<g id="graph0" class="graph" transform="scale(1 1) rotate(0) translate(4 315)">
<title>iop/fs/netfs/src/ps2_fio.c</title>
<polygon fill="white" stroke="transparent" points="-4,4 -4,-315 1069.5,-315 1069.5,4 -4,4"/>
<!-- Node1 -->
<g id="node1" class="node">
<title>Node1</title>
<g id="a_node1"><a xlink:title=" ">
<polygon fill="#bfbfbf" stroke="black" points="497.5,-280.5 497.5,-310.5 598.5,-310.5 598.5,-280.5 497.5,-280.5"/>
<text text-anchor="start" x="505.5" y="-298.5" font-family="Helvetica,sans-Serif" font-size="10.00">iop/fs/netfs/src/ps2</text>
<text text-anchor="middle" x="548" y="-287.5" font-family="Helvetica,sans-Serif" font-size="10.00">_fio.c</text>
</a>
</g>
</g>
<!-- Node2 -->
<g id="node2" class="node">
<title>Node2</title>
<g id="a_node2"><a xlink:title=" ">
<polygon fill="white" stroke="#bfbfbf" points="246.5,-168.5 246.5,-187.5 293.5,-187.5 293.5,-168.5 246.5,-168.5"/>
<text text-anchor="middle" x="270" y="-175.5" font-family="Helvetica,sans-Serif" font-size="10.00">types.h</text>
</a>
</g>
</g>
<!-- Node1&#45;&gt;Node2 -->
<g id="edge1" class="edge">
<title>Node1&#45;&gt;Node2</title>
<path fill="none" stroke="midnightblue" d="M497.44,-289.5C434.32,-282.36 330.99,-267.46 301,-244 286.4,-232.58 278.32,-212.6 274.1,-197.79"/>
<polygon fill="midnightblue" stroke="midnightblue" points="277.4,-196.56 271.58,-187.71 270.6,-198.26 277.4,-196.56"/>
</g>
<!-- Node3 -->
<g id="node3" class="node">
<title>Node3</title>
<g id="a_node3"><a xlink:href="defs_8h.html" target="_top" xlink:title=" ">
<polygon fill="white" stroke="black" points="730.5,-112.5 730.5,-131.5 773.5,-131.5 773.5,-112.5 730.5,-112.5"/>
<text text-anchor="middle" x="752" y="-119.5" font-family="Helvetica,sans-Serif" font-size="10.00">defs.h</text>
</a>
</g>
</g>
<!-- Node1&#45;&gt;Node3 -->
<g id="edge2" class="edge">
<title>Node1&#45;&gt;Node3</title>
<path fill="none" stroke="midnightblue" d="M598.74,-287.18C647.74,-279.03 717.08,-264.29 735,-244 760.07,-215.6 758.44,-167.95 755.16,-141.72"/>
<polygon fill="midnightblue" stroke="midnightblue" points="758.59,-141 753.67,-131.61 751.66,-142.01 758.59,-141"/>
</g>
<!-- Node7 -->
<g id="node7" class="node">
<title>Node7</title>
<g id="a_node7"><a xlink:href="irx_8h.html" target="_top" xlink:title=" ">
<polygon fill="white" stroke="black" points="411,-112.5 411,-131.5 445,-131.5 445,-112.5 411,-112.5"/>
<text text-anchor="middle" x="428" y="-119.5" font-family="Helvetica,sans-Serif" font-size="10.00">irx.h</text>
</a>
</g>
</g>
<!-- Node1&#45;&gt;Node7 -->
<g id="edge6" class="edge">
<title>Node1&#45;&gt;Node7</title>
<path fill="none" stroke="midnightblue" d="M529.96,-280.23C507.37,-261.42 468.97,-226.22 447,-188 438.67,-173.51 433.73,-155.06 430.99,-141.52"/>
<polygon fill="midnightblue" stroke="midnightblue" points="434.4,-140.72 429.17,-131.5 427.51,-141.97 434.4,-140.72"/>
</g>
<!-- Node8 -->
<g id="node8" class="node">
<title>Node8</title>
<g id="a_node8"><a xlink:href="loadcore_8h.html" target="_top" xlink:title=" ">
<polygon fill="white" stroke="black" points="167.5,-168.5 167.5,-187.5 228.5,-187.5 228.5,-168.5 167.5,-168.5"/>
<text text-anchor="middle" x="198" y="-175.5" font-family="Helvetica,sans-Serif" font-size="10.00">loadcore.h</text>
</a>
</g>
</g>
<!-- Node1&#45;&gt;Node8 -->
<g id="edge8" class="edge">
<title>Node1&#45;&gt;Node8</title>
<path fill="none" stroke="midnightblue" d="M497.37,-291.92C442.23,-287.55 352.51,-275.75 282,-244 255.37,-232.01 229.54,-209.97 213.71,-194.91"/>
<polygon fill="midnightblue" stroke="midnightblue" points="215.99,-192.25 206.39,-187.76 211.1,-197.26 215.99,-192.25"/>
</g>
<!-- Node9 -->
<g id="node9" class="node">
<title>Node9</title>
<g id="a_node9"><a xlink:href="ioman__mod_8h.html" target="_top" xlink:title=" ">
<polygon fill="white" stroke="black" points="0,-168.5 0,-187.5 74,-187.5 74,-168.5 0,-168.5"/>
<text text-anchor="middle" x="37" y="-175.5" font-family="Helvetica,sans-Serif" font-size="10.00">ioman_mod.h</text>
</a>
</g>
</g>
<!-- Node1&#45;&gt;Node9 -->
<g id="edge11" class="edge">
<title>Node1&#45;&gt;Node9</title>
<path fill="none" stroke="midnightblue" d="M497.37,-291.16C428.27,-285.71 301,-272.53 196,-244 147.7,-230.88 94.39,-207.02 63.4,-192.15"/>
<polygon fill="midnightblue" stroke="midnightblue" points="64.68,-188.88 54.16,-187.66 61.62,-195.18 64.68,-188.88"/>
</g>
<!-- Node15 -->
<g id="node15" class="node">
<title>Node15</title>
<g id="a_node15"><a xlink:href="ioman_x_8h.html" target="_top" xlink:title=" ">
<polygon fill="white" stroke="black" points="92.5,-168.5 92.5,-187.5 149.5,-187.5 149.5,-168.5 92.5,-168.5"/>
<text text-anchor="middle" x="121" y="-175.5" font-family="Helvetica,sans-Serif" font-size="10.00">iomanX.h</text>
</a>
</g>
</g>
<!-- Node1&#45;&gt;Node15 -->
<g id="edge19" class="edge">
<title>Node1&#45;&gt;Node15</title>
<path fill="none" stroke="midnightblue" d="M497.4,-290.91C436.45,-285.48 331.58,-272.61 246,-244 207.91,-231.27 167.25,-208.13 143,-193.17"/>
<polygon fill="midnightblue" stroke="midnightblue" points="144.58,-190.03 134.25,-187.69 140.86,-195.96 144.58,-190.03"/>
</g>
<!-- Node16 -->
<g id="node16" class="node">
<title>Node16</title>
<g id="a_node16"><a xlink:href="thbase_8h.html" target="_top" xlink:title=" ">
<polygon fill="white" stroke="black" points="456.5,-168.5 456.5,-187.5 509.5,-187.5 509.5,-168.5 456.5,-168.5"/>
<text text-anchor="middle" x="483" y="-175.5" font-family="Helvetica,sans-Serif" font-size="10.00">thbase.h</text>
</a>
</g>
</g>
<!-- Node1&#45;&gt;Node16 -->
<g id="edge24" class="edge">
<title>Node1&#45;&gt;Node16</title>
<path fill="none" stroke="midnightblue" d="M540.03,-280.34C528.16,-259.24 505.85,-219.6 492.93,-196.65"/>
<polygon fill="midnightblue" stroke="midnightblue" points="495.83,-194.67 487.88,-187.67 489.73,-198.1 495.83,-194.67"/>
</g>
<!-- Node17 -->
<g id="node17" class="node">
<title>Node17</title>
<g id="a_node17"><a xlink:href="thsemap_8h.html" target="_top" xlink:title=" ">
<polygon fill="white" stroke="black" points="528,-168.5 528,-187.5 590,-187.5 590,-168.5 528,-168.5"/>
<text text-anchor="middle" x="559" y="-175.5" font-family="Helvetica,sans-Serif" font-size="10.00">thsemap.h</text>
</a>
</g>
</g>
<!-- Node1&#45;&gt;Node17 -->
<g id="edge27" class="edge">
<title>Node1&#45;&gt;Node17</title>
<path fill="none" stroke="midnightblue" d="M541.46,-280.35C535.71,-266.03 528.99,-243.33 534,-224 536.55,-214.18 541.75,-204.21 546.76,-196.17"/>
<polygon fill="midnightblue" stroke="midnightblue" points="549.75,-197.99 552.37,-187.73 543.92,-194.11 549.75,-197.99"/>
</g>
<!-- Node18 -->
<g id="node18" class="node">
<title>Node18</title>
<g id="a_node18"><a xlink:href="stdio_8h.html" target="_top" xlink:title=" ">
<polygon fill="white" stroke="black" points="608.5,-168.5 608.5,-187.5 653.5,-187.5 653.5,-168.5 608.5,-168.5"/>
<text text-anchor="middle" x="631" y="-175.5" font-family="Helvetica,sans-Serif" font-size="10.00">stdio.h</text>
</a>
</g>
</g>
<!-- Node1&#45;&gt;Node18 -->
<g id="edge30" class="edge">
<title>Node1&#45;&gt;Node18</title>
<path fill="none" stroke="midnightblue" d="M550.27,-280.4C553.25,-265.3 559.62,-241.21 572,-224 581.05,-211.42 594.63,-200.72 606.48,-192.92"/>
<polygon fill="midnightblue" stroke="midnightblue" points="608.47,-195.8 615.1,-187.53 604.76,-189.86 608.47,-195.8"/>
</g>
<!-- Node20 -->
<g id="node20" class="node">
<title>Node20</title>
<g id="a_node20"><a xlink:href="sysclib_8h.html" target="_top" xlink:title=" ">
<polygon fill="white" stroke="black" points="672,-168.5 672,-187.5 726,-187.5 726,-168.5 672,-168.5"/>
<text text-anchor="middle" x="699" y="-175.5" font-family="Helvetica,sans-Serif" font-size="10.00">sysclib.h</text>
</a>
</g>
</g>
<!-- Node1&#45;&gt;Node20 -->
<g id="edge33" class="edge">
<title>Node1&#45;&gt;Node20</title>
<path fill="none" stroke="midnightblue" d="M556.58,-280.49C566.62,-265.03 584.5,-240.2 605,-224 622.77,-209.96 645.64,-198.89 664.37,-191.24"/>
<polygon fill="midnightblue" stroke="midnightblue" points="665.71,-194.48 673.74,-187.56 663.15,-187.96 665.71,-194.48"/>
</g>
<!-- Node22 -->
<g id="node22" class="node">
<title>Node22</title>
<g id="a_node22"><a xlink:href="errno_8h.html" target="_top" xlink:title=" ">
<polygon fill="white" stroke="black" points="614,-224.5 614,-243.5 660,-243.5 660,-224.5 614,-224.5"/>
<text text-anchor="middle" x="637" y="-231.5" font-family="Helvetica,sans-Serif" font-size="10.00">errno.h</text>
</a>
</g>
</g>
<!-- Node1&#45;&gt;Node22 -->
<g id="edge39" class="edge">
<title>Node1&#45;&gt;Node22</title>
<path fill="none" stroke="midnightblue" d="M569.09,-280.4C583.09,-271.04 601.41,-258.79 615.49,-249.38"/>
<polygon fill="midnightblue" stroke="midnightblue" points="617.68,-252.13 624.05,-243.66 613.79,-246.31 617.68,-252.13"/>
</g>
<!-- Node23 -->
<g id="node23" class="node">
<title>Node23</title>
<g id="a_node23"><a xlink:title=" ">
<polygon fill="white" stroke="#bfbfbf" points="678.5,-224.5 678.5,-243.5 725.5,-243.5 725.5,-224.5 678.5,-224.5"/>
<text text-anchor="middle" x="702" y="-231.5" font-family="Helvetica,sans-Serif" font-size="10.00">ps2ip.h</text>
</a>
</g>
</g>
<!-- Node1&#45;&gt;Node23 -->
<g id="edge40" class="edge">
<title>Node1&#45;&gt;Node23</title>
<path fill="none" stroke="midnightblue" d="M584.5,-280.4C610.57,-270.33 645.29,-256.91 670.22,-247.28"/>
<polygon fill="midnightblue" stroke="midnightblue" points="671.53,-250.53 679.59,-243.66 669,-244 671.53,-250.53"/>
</g>
<!-- Node24 -->
<g id="node24" class="node">
<title>Node24</title>
<g id="a_node24"><a xlink:href="iopmgr_8h.html" target="_top" xlink:title=" ">
<polygon fill="white" stroke="black" points="310.5,-224.5 310.5,-243.5 363.5,-243.5 363.5,-224.5 310.5,-224.5"/>
<text text-anchor="middle" x="337" y="-231.5" font-family="Helvetica,sans-Serif" font-size="10.00">iopmgr.h</text>
</a>
</g>
</g>
<!-- Node1&#45;&gt;Node24 -->
<g id="edge41" class="edge">
<title>Node1&#45;&gt;Node24</title>
<path fill="none" stroke="midnightblue" d="M498.26,-280.47C459.89,-269.66 407.72,-254.94 373.23,-245.22"/>
<polygon fill="midnightblue" stroke="midnightblue" points="374.14,-241.84 363.57,-242.49 372.24,-248.57 374.14,-241.84"/>
</g>
<!-- Node26 -->
<g id="node26" class="node">
<title>Node26</title>
<g id="a_node26"><a xlink:href="ps2__fio_8h.html" target="_top" xlink:title=" ">
<polygon fill="white" stroke="black" points="782.5,-224.5 782.5,-243.5 837.5,-243.5 837.5,-224.5 782.5,-224.5"/>
<text text-anchor="middle" x="810" y="-231.5" font-family="Helvetica,sans-Serif" font-size="10.00">ps2_fio.h</text>
</a>
</g>
</g>
<!-- Node1&#45;&gt;Node26 -->
<g id="edge49" class="edge">
<title>Node1&#45;&gt;Node26</title>
<path fill="none" stroke="midnightblue" d="M598.52,-283.03C649.39,-271.47 726.7,-253.92 772.41,-243.54"/>
<polygon fill="midnightblue" stroke="midnightblue" points="773.23,-246.94 782.21,-241.31 771.68,-240.11 773.23,-246.94"/>
</g>
<!-- Node27 -->
<g id="node27" class="node">
<title>Node27</title>
<g id="a_node27"><a xlink:href="ps2fs_8h.html" target="_top" xlink:title=" ">
<polygon fill="white" stroke="black" points="856,-224.5 856,-243.5 904,-243.5 904,-224.5 856,-224.5"/>
<text text-anchor="middle" x="880" y="-231.5" font-family="Helvetica,sans-Serif" font-size="10.00">ps2fs.h</text>
</a>
</g>
</g>
<!-- Node1&#45;&gt;Node27 -->
<g id="edge50" class="edge">
<title>Node1&#45;&gt;Node27</title>
<path fill="none" stroke="midnightblue" d="M598.55,-287.52C656.2,-279.22 753.44,-264.15 846.1,-244.02"/>
<polygon fill="midnightblue" stroke="midnightblue" points="846.9,-247.43 855.92,-241.86 845.4,-240.59 846.9,-247.43"/>
</g>
<!-- Node28 -->
<g id="node28" class="node">
<title>Node28</title>
<g id="a_node28"><a xlink:href="byteorder_8h.html" target="_top" xlink:title=" ">
<polygon fill="white" stroke="black" points="922,-224.5 922,-243.5 986,-243.5 986,-224.5 922,-224.5"/>
<text text-anchor="middle" x="954" y="-231.5" font-family="Helvetica,sans-Serif" font-size="10.00">byteorder.h</text>
</a>
</g>
</g>
<!-- Node1&#45;&gt;Node28 -->
<g id="edge51" class="edge">
<title>Node1&#45;&gt;Node28</title>
<path fill="none" stroke="midnightblue" d="M598.68,-288.76C667.41,-280.7 794.2,-264.84 911.91,-244.08"/>
<polygon fill="midnightblue" stroke="midnightblue" points="912.59,-247.51 921.82,-242.31 911.36,-240.62 912.59,-247.51"/>
</g>
<!-- Node29 -->
<g id="node29" class="node">
<title>Node29</title>
<g id="a_node29"><a xlink:href="devscan_8h.html" target="_top" xlink:title=" ">
<polygon fill="white" stroke="black" points="1004.5,-224.5 1004.5,-243.5 1065.5,-243.5 1065.5,-224.5 1004.5,-224.5"/>
<text text-anchor="middle" x="1035" y="-231.5" font-family="Helvetica,sans-Serif" font-size="10.00">devscan.h</text>
</a>
</g>
</g>
<!-- Node1&#45;&gt;Node29 -->
<g id="edge52" class="edge">
<title>Node1&#45;&gt;Node29</title>
<path fill="none" stroke="midnightblue" d="M598.53,-290.6C679.75,-283.92 844.53,-268.77 994.2,-243.95"/>
<polygon fill="midnightblue" stroke="midnightblue" points="995.21,-247.33 1004.49,-242.22 994.05,-240.43 995.21,-247.33"/>
</g>
<!-- Node4 -->
<g id="node4" class="node">
<title>Node4</title>
<g id="a_node4"><a xlink:href="types_8h_source.html" target="_top" xlink:title=" ">
<polygon fill="white" stroke="black" points="429.5,-56.5 429.5,-75.5 476.5,-75.5 476.5,-56.5 429.5,-56.5"/>
<text text-anchor="middle" x="453" y="-63.5" font-family="Helvetica,sans-Serif" font-size="10.00">types.h</text>
</a>
</g>
</g>
<!-- Node3&#45;&gt;Node4 -->
<g id="edge3" class="edge">
<title>Node3&#45;&gt;Node4</title>
<path fill="none" stroke="midnightblue" d="M730.5,-117.12C679.11,-107.84 548.83,-84.31 486.82,-73.11"/>
<polygon fill="midnightblue" stroke="midnightblue" points="487.23,-69.63 476.77,-71.29 485.99,-76.51 487.23,-69.63"/>
</g>
<!-- Node5 -->
<g id="node5" class="node">
<title>Node5</title>
<g id="a_node5"><a xlink:title=" ">
<polygon fill="white" stroke="#bfbfbf" points="427.5,-0.5 427.5,-19.5 478.5,-19.5 478.5,-0.5 427.5,-0.5"/>
<text text-anchor="middle" x="453" y="-7.5" font-family="Helvetica,sans-Serif" font-size="10.00">stddef.h</text>
</a>
</g>
</g>
<!-- Node4&#45;&gt;Node5 -->
<g id="edge4" class="edge">
<title>Node4&#45;&gt;Node5</title>
<path fill="none" stroke="midnightblue" d="M453,-56.08C453,-49.01 453,-38.86 453,-29.99"/>
<polygon fill="midnightblue" stroke="midnightblue" points="456.5,-29.75 453,-19.75 449.5,-29.75 456.5,-29.75"/>
</g>
<!-- Node6 -->
<g id="node6" class="node">
<title>Node6</title>
<g id="a_node6"><a xlink:href="tamtypes_8h.html" target="_top" xlink:title=" ">
<polygon fill="white" stroke="black" points="594,-0.5 594,-19.5 658,-19.5 658,-0.5 594,-0.5"/>
<text text-anchor="middle" x="626" y="-7.5" font-family="Helvetica,sans-Serif" font-size="10.00">tamtypes.h</text>
</a>
</g>
</g>
<!-- Node4&#45;&gt;Node6 -->
<g id="edge5" class="edge">
<title>Node4&#45;&gt;Node6</title>
<path fill="none" stroke="midnightblue" d="M476.69,-57.6C505.67,-48.56 555.04,-33.15 589.02,-22.54"/>
<polygon fill="midnightblue" stroke="midnightblue" points="590.1,-25.87 598.61,-19.55 588.02,-19.19 590.1,-25.87"/>
</g>
<!-- Node7&#45;&gt;Node4 -->
<g id="edge7" class="edge">
<title>Node7&#45;&gt;Node4</title>
<path fill="none" stroke="midnightblue" d="M432.13,-112.08C435.51,-104.77 440.42,-94.18 444.62,-85.1"/>
<polygon fill="midnightblue" stroke="midnightblue" points="447.92,-86.3 448.95,-75.75 441.57,-83.36 447.92,-86.3"/>
</g>
<!-- Node8&#45;&gt;Node4 -->
<g id="edge9" class="edge">
<title>Node8&#45;&gt;Node4</title>
<path fill="none" stroke="midnightblue" d="M218.01,-168.37C262.79,-149.05 371.26,-102.26 423.68,-79.65"/>
<polygon fill="midnightblue" stroke="midnightblue" points="425.29,-82.77 433.08,-75.59 422.52,-76.34 425.29,-82.77"/>
</g>
<!-- Node8&#45;&gt;Node7 -->
<g id="edge10" class="edge">
<title>Node8&#45;&gt;Node7</title>
<path fill="none" stroke="midnightblue" d="M228.54,-169.83C273.81,-159.2 357.99,-139.44 401.08,-129.32"/>
<polygon fill="midnightblue" stroke="midnightblue" points="401.91,-132.72 410.85,-127.03 400.31,-125.9 401.91,-132.72"/>
</g>
<!-- Node9&#45;&gt;Node4 -->
<g id="edge12" class="edge">
<title>Node9&#45;&gt;Node4</title>
<path fill="none" stroke="midnightblue" d="M43.93,-168.49C56.18,-154.12 83.19,-125.3 113,-112 167.29,-87.78 343.74,-73.97 418.76,-69.06"/>
<polygon fill="midnightblue" stroke="midnightblue" points="419.3,-72.53 429.06,-68.4 418.86,-65.55 419.3,-72.53"/>
</g>
<!-- Node9&#45;&gt;Node7 -->
<g id="edge13" class="edge">
<title>Node9&#45;&gt;Node7</title>
<path fill="none" stroke="midnightblue" d="M74.12,-169.53C77.12,-168.99 80.11,-168.47 83,-168 200.62,-148.84 341.85,-132.49 400.44,-125.99"/>
<polygon fill="midnightblue" stroke="midnightblue" points="401.16,-129.44 410.71,-124.86 400.39,-122.48 401.16,-129.44"/>
</g>
<!-- Node10 -->
<g id="node10" class="node">
<title>Node10</title>
<g id="a_node10"><a xlink:href="io__common_8h.html" target="_top" xlink:title=" ">
<polygon fill="white" stroke="black" points="122,-112.5 122,-131.5 196,-131.5 196,-112.5 122,-112.5"/>
<text text-anchor="middle" x="159" y="-119.5" font-family="Helvetica,sans-Serif" font-size="10.00">io_common.h</text>
</a>
</g>
</g>
<!-- Node9&#45;&gt;Node10 -->
<g id="edge14" class="edge">
<title>Node9&#45;&gt;Node10</title>
<path fill="none" stroke="midnightblue" d="M56.33,-168.44C76.32,-159.6 107.74,-145.69 130.56,-135.59"/>
<polygon fill="midnightblue" stroke="midnightblue" points="132.03,-138.76 139.76,-131.52 129.2,-132.36 132.03,-138.76"/>
</g>
<!-- Node13 -->
<g id="node13" class="node">
<title>Node13</title>
<g id="a_node13"><a xlink:href="iox__stat_8h.html" target="_top" xlink:title=" ">
<polygon fill="white" stroke="black" points="8,-112.5 8,-131.5 66,-131.5 66,-112.5 8,-112.5"/>
<text text-anchor="middle" x="37" y="-119.5" font-family="Helvetica,sans-Serif" font-size="10.00">iox_stat.h</text>
</a>
</g>
</g>
<!-- Node9&#45;&gt;Node13 -->
<g id="edge17" class="edge">
<title>Node9&#45;&gt;Node13</title>
<path fill="none" stroke="midnightblue" d="M37,-168.08C37,-161.01 37,-150.86 37,-141.99"/>
<polygon fill="midnightblue" stroke="midnightblue" points="40.5,-141.75 37,-131.75 33.5,-141.75 40.5,-141.75"/>
</g>
<!-- Node11 -->
<g id="node11" class="node">
<title>Node11</title>
<g id="a_node11"><a xlink:href="fcntl_8h_source.html" target="_top" xlink:title=" ">
<polygon fill="white" stroke="black" points="107.5,-56.5 107.5,-75.5 168.5,-75.5 168.5,-56.5 107.5,-56.5"/>
<text text-anchor="middle" x="138" y="-63.5" font-family="Helvetica,sans-Serif" font-size="10.00">sys/fcntl.h</text>
</a>
</g>
</g>
<!-- Node10&#45;&gt;Node11 -->
<g id="edge15" class="edge">
<title>Node10&#45;&gt;Node11</title>
<path fill="none" stroke="midnightblue" d="M155.53,-112.08C152.69,-104.77 148.57,-94.18 145.04,-85.1"/>
<polygon fill="midnightblue" stroke="midnightblue" points="148.29,-83.8 141.4,-75.75 141.77,-86.34 148.29,-83.8"/>
</g>
<!-- Node12 -->
<g id="node12" class="node">
<title>Node12</title>
<g id="a_node12"><a xlink:href="unistd_8h_source.html" target="_top" xlink:title=" ">
<polygon fill="white" stroke="black" points="187,-56.5 187,-75.5 255,-75.5 255,-56.5 187,-56.5"/>
<text text-anchor="middle" x="221" y="-63.5" font-family="Helvetica,sans-Serif" font-size="10.00">sys/unistd.h</text>
</a>
</g>
</g>
<!-- Node10&#45;&gt;Node12 -->
<g id="edge16" class="edge">
<title>Node10&#45;&gt;Node12</title>
<path fill="none" stroke="midnightblue" d="M168.96,-112.32C178.13,-104.34 191.94,-92.31 203.03,-82.65"/>
<polygon fill="midnightblue" stroke="midnightblue" points="205.62,-85.04 210.86,-75.83 201.02,-79.76 205.62,-85.04"/>
</g>
<!-- Node14 -->
<g id="node14" class="node">
<title>Node14</title>
<g id="a_node14"><a xlink:href="time_8h.html" target="_top" xlink:title=" ">
<polygon fill="white" stroke="black" points="6.5,-56.5 6.5,-75.5 67.5,-75.5 67.5,-56.5 6.5,-56.5"/>
<text text-anchor="middle" x="37" y="-63.5" font-family="Helvetica,sans-Serif" font-size="10.00">sys/time.h</text>
</a>
</g>
</g>
<!-- Node13&#45;&gt;Node14 -->
<g id="edge18" class="edge">
<title>Node13&#45;&gt;Node14</title>
<path fill="none" stroke="midnightblue" d="M37,-112.08C37,-105.01 37,-94.86 37,-85.99"/>
<polygon fill="midnightblue" stroke="midnightblue" points="40.5,-85.75 37,-75.75 33.5,-85.75 40.5,-85.75"/>
</g>
<!-- Node15&#45;&gt;Node4 -->
<g id="edge20" class="edge">
<title>Node15&#45;&gt;Node4</title>
<path fill="none" stroke="midnightblue" d="M143.04,-168.42C176.51,-155.51 242.27,-130.62 299,-112 340.13,-98.5 388.09,-84.8 419.42,-76.13"/>
<polygon fill="midnightblue" stroke="midnightblue" points="420.66,-79.41 429.37,-73.38 418.8,-72.67 420.66,-79.41"/>
</g>
<!-- Node15&#45;&gt;Node7 -->
<g id="edge21" class="edge">
<title>Node15&#45;&gt;Node7</title>
<path fill="none" stroke="midnightblue" d="M149.64,-169.81C152.46,-169.17 155.28,-168.56 158,-168 246.3,-149.93 351.96,-133.94 400.79,-126.86"/>
<polygon fill="midnightblue" stroke="midnightblue" points="401.46,-130.3 410.86,-125.41 400.46,-123.37 401.46,-130.3"/>
</g>
<!-- Node15&#45;&gt;Node10 -->
<g id="edge22" class="edge">
<title>Node15&#45;&gt;Node10</title>
<path fill="none" stroke="midnightblue" d="M127.27,-168.08C132.64,-160.46 140.52,-149.26 147.08,-139.94"/>
<polygon fill="midnightblue" stroke="midnightblue" points="149.95,-141.94 152.84,-131.75 144.22,-137.91 149.95,-141.94"/>
</g>
<!-- Node15&#45;&gt;Node13 -->
<g id="edge23" class="edge">
<title>Node15&#45;&gt;Node13</title>
<path fill="none" stroke="midnightblue" d="M107.5,-168.32C94.4,-159.9 74.29,-146.97 58.89,-137.07"/>
<polygon fill="midnightblue" stroke="midnightblue" points="60.77,-134.12 50.46,-131.65 56.98,-140.01 60.77,-134.12"/>
</g>
<!-- Node16&#45;&gt;Node4 -->
<g id="edge25" class="edge">
<title>Node16&#45;&gt;Node4</title>
<path fill="none" stroke="midnightblue" d="M480.65,-168.37C475.78,-150.54 464.54,-109.3 457.98,-85.27"/>
<polygon fill="midnightblue" stroke="midnightblue" points="461.35,-84.32 455.34,-75.59 454.6,-86.16 461.35,-84.32"/>
</g>
<!-- Node16&#45;&gt;Node7 -->
<g id="edge26" class="edge">
<title>Node16&#45;&gt;Node7</title>
<path fill="none" stroke="midnightblue" d="M473.92,-168.08C465.83,-160.14 453.8,-148.34 444.09,-138.8"/>
<polygon fill="midnightblue" stroke="midnightblue" points="446.5,-136.26 436.91,-131.75 441.6,-141.25 446.5,-136.26"/>
</g>
<!-- Node17&#45;&gt;Node4 -->
<g id="edge28" class="edge">
<title>Node17&#45;&gt;Node4</title>
<path fill="none" stroke="midnightblue" d="M550.68,-168.37C532.96,-149.97 491.23,-106.67 468.47,-83.05"/>
<polygon fill="midnightblue" stroke="midnightblue" points="470.74,-80.36 461.28,-75.59 465.7,-85.22 470.74,-80.36"/>
</g>
<!-- Node17&#45;&gt;Node7 -->
<g id="edge29" class="edge">
<title>Node17&#45;&gt;Node7</title>
<path fill="none" stroke="midnightblue" d="M538.24,-168.44C515.67,-159.14 479.51,-144.23 454.81,-134.05"/>
<polygon fill="midnightblue" stroke="midnightblue" points="455.89,-130.71 445.31,-130.14 453.22,-137.18 455.89,-130.71"/>
</g>
<!-- Node18&#45;&gt;Node7 -->
<g id="edge32" class="edge">
<title>Node18&#45;&gt;Node7</title>
<path fill="none" stroke="midnightblue" d="M608.29,-170.56C605.17,-169.69 602.01,-168.82 599,-168 548.22,-154.18 488.76,-138.69 455.02,-129.96"/>
<polygon fill="midnightblue" stroke="midnightblue" points="455.57,-126.49 445.01,-127.38 453.82,-133.27 455.57,-126.49"/>
</g>
<!-- Node19 -->
<g id="node19" class="node">
<title>Node19</title>
<g id="a_node19"><a xlink:title=" ">
<polygon fill="white" stroke="#bfbfbf" points="582.5,-112.5 582.5,-131.5 633.5,-131.5 633.5,-112.5 582.5,-112.5"/>
<text text-anchor="middle" x="608" y="-119.5" font-family="Helvetica,sans-Serif" font-size="10.00">stdarg.h</text>
</a>
</g>
</g>
<!-- Node18&#45;&gt;Node19 -->
<g id="edge31" class="edge">
<title>Node18&#45;&gt;Node19</title>
<path fill="none" stroke="midnightblue" d="M627.2,-168.08C624.09,-160.77 619.58,-150.18 615.71,-141.1"/>
<polygon fill="midnightblue" stroke="midnightblue" points="618.87,-139.58 611.73,-131.75 612.43,-142.32 618.87,-139.58"/>
</g>
<!-- Node20&#45;&gt;Node4 -->
<g id="edge34" class="edge">
<title>Node20&#45;&gt;Node4</title>
<path fill="none" stroke="midnightblue" d="M694.04,-168.31C685.51,-154.18 666.68,-126.39 643,-112 593.94,-82.18 526.63,-72.12 486.7,-68.73"/>
<polygon fill="midnightblue" stroke="midnightblue" points="486.91,-65.23 476.68,-67.97 486.38,-72.21 486.91,-65.23"/>
</g>
<!-- Node20&#45;&gt;Node7 -->
<g id="edge35" class="edge">
<title>Node20&#45;&gt;Node7</title>
<path fill="none" stroke="midnightblue" d="M671.91,-170.06C668.91,-169.34 665.89,-168.64 663,-168 588.05,-151.47 498.88,-135.36 455.05,-127.67"/>
<polygon fill="midnightblue" stroke="midnightblue" points="455.62,-124.22 445.17,-125.95 454.42,-131.12 455.62,-124.22"/>
</g>
<!-- Node20&#45;&gt;Node19 -->
<g id="edge36" class="edge">
<title>Node20&#45;&gt;Node19</title>
<path fill="none" stroke="midnightblue" d="M684.38,-168.32C670.05,-159.82 647.99,-146.73 631.25,-136.8"/>
<polygon fill="midnightblue" stroke="midnightblue" points="632.97,-133.75 622.58,-131.65 629.4,-139.77 632.97,-133.75"/>
</g>
<!-- Node21 -->
<g id="node21" class="node">
<title>Node21</title>
<g id="a_node21"><a xlink:href="setjmp_8h.html" target="_top" xlink:title=" ">
<polygon fill="white" stroke="black" points="635.5,-56.5 635.5,-75.5 688.5,-75.5 688.5,-56.5 635.5,-56.5"/>
<text text-anchor="middle" x="662" y="-63.5" font-family="Helvetica,sans-Serif" font-size="10.00">setjmp.h</text>
</a>
</g>
</g>
<!-- Node20&#45;&gt;Node21 -->
<g id="edge37" class="edge">
<title>Node20&#45;&gt;Node21</title>
<path fill="none" stroke="midnightblue" d="M696.1,-168.37C690.1,-150.54 676.23,-109.3 668.15,-85.27"/>
<polygon fill="midnightblue" stroke="midnightblue" points="671.4,-83.95 664.89,-75.59 664.76,-86.19 671.4,-83.95"/>
</g>
<!-- Node21&#45;&gt;Node6 -->
<g id="edge38" class="edge">
<title>Node21&#45;&gt;Node6</title>
<path fill="none" stroke="midnightblue" d="M656.06,-56.08C651.02,-48.53 643.66,-37.49 637.49,-28.23"/>
<polygon fill="midnightblue" stroke="midnightblue" points="640.29,-26.13 631.83,-19.75 634.47,-30.01 640.29,-26.13"/>
</g>
<!-- Node24&#45;&gt;Node2 -->
<g id="edge42" class="edge">
<title>Node24&#45;&gt;Node2</title>
<path fill="none" stroke="midnightblue" d="M326.24,-224.32C316.23,-216.26 301.11,-204.08 289.07,-194.37"/>
<polygon fill="midnightblue" stroke="midnightblue" points="290.94,-191.38 280.96,-187.83 286.55,-196.83 290.94,-191.38"/>
</g>
<!-- Node24&#45;&gt;Node7 -->
<g id="edge43" class="edge">
<title>Node24&#45;&gt;Node7</title>
<path fill="none" stroke="midnightblue" d="M344.14,-224.37C359.29,-206.05 394.87,-163.05 414.46,-139.36"/>
<polygon fill="midnightblue" stroke="midnightblue" points="417.22,-141.53 420.89,-131.59 411.82,-137.07 417.22,-141.53"/>
</g>
<!-- Node24&#45;&gt;Node8 -->
<g id="edge48" class="edge">
<title>Node24&#45;&gt;Node8</title>
<path fill="none" stroke="midnightblue" d="M314.98,-224.44C291.9,-215.48 255.44,-201.31 229.36,-191.18"/>
<polygon fill="midnightblue" stroke="midnightblue" points="230.51,-187.88 219.92,-187.52 227.98,-194.4 230.51,-187.88"/>
</g>
<!-- Node25 -->
<g id="node25" class="node">
<title>Node25</title>
<g id="a_node25"><a xlink:href="ioman_8h.html" target="_top" xlink:title=" ">
<polygon fill="white" stroke="black" points="312,-168.5 312,-187.5 362,-187.5 362,-168.5 312,-168.5"/>
<text text-anchor="middle" x="337" y="-175.5" font-family="Helvetica,sans-Serif" font-size="10.00">ioman.h</text>
</a>
</g>
</g>
<!-- Node24&#45;&gt;Node25 -->
<g id="edge44" class="edge">
<title>Node24&#45;&gt;Node25</title>
<path fill="none" stroke="midnightblue" d="M337,-224.08C337,-217.01 337,-206.86 337,-197.99"/>
<polygon fill="midnightblue" stroke="midnightblue" points="340.5,-197.75 337,-187.75 333.5,-197.75 340.5,-197.75"/>
</g>
<!-- Node25&#45;&gt;Node4 -->
<g id="edge45" class="edge">
<title>Node25&#45;&gt;Node4</title>
<path fill="none" stroke="midnightblue" d="M345.25,-168.42C357.43,-155.81 381.06,-131.67 402,-112 412.76,-101.89 425.17,-90.93 435.05,-82.35"/>
<polygon fill="midnightblue" stroke="midnightblue" points="437.39,-84.96 442.67,-75.78 432.81,-79.66 437.39,-84.96"/>
</g>
<!-- Node25&#45;&gt;Node7 -->
<g id="edge46" class="edge">
<title>Node25&#45;&gt;Node7</title>
<path fill="none" stroke="midnightblue" d="M351.62,-168.32C365.95,-159.82 388.01,-146.73 404.75,-136.8"/>
<polygon fill="midnightblue" stroke="midnightblue" points="406.6,-139.77 413.42,-131.65 403.03,-133.75 406.6,-139.77"/>
</g>
<!-- Node25&#45;&gt;Node10 -->
<g id="edge47" class="edge">
<title>Node25&#45;&gt;Node10</title>
<path fill="none" stroke="midnightblue" d="M311.87,-169.38C281.96,-160.3 231.69,-145.05 197.01,-134.53"/>
<polygon fill="midnightblue" stroke="midnightblue" points="197.81,-131.12 187.23,-131.56 195.78,-137.82 197.81,-131.12"/>
</g>
</g>
</svg>
