<?xml version="1.0" encoding="UTF-8" standalone="no"?>
<!DOCTYPE svg PUBLIC "-//W3C//DTD SVG 1.1//EN"
 "http://www.w3.org/Graphics/SVG/1.1/DTD/svg11.dtd">
<!-- Generated by graphviz version 2.46.1 (20210215.1649)
 -->
<!-- Title: iop/dev9/atad/src/ps2atad.c Pages: 1 -->
<svg width="744pt" height="252pt"
 viewBox="0.00 0.00 744.00 252.00" xmlns="http://www.w3.org/2000/svg" xmlns:xlink="http://www.w3.org/1999/xlink">
<g id="graph0" class="graph" transform="scale(1 1) rotate(0) translate(4 248)">
<title>iop/dev9/atad/src/ps2atad.c</title>
<polygon fill="white" stroke="transparent" points="-4,4 -4,-248 740,-248 740,4 -4,4"/>
<!-- Node1 -->
<g id="node1" class="node">
<title>Node1</title>
<g id="a_node1"><a xlink:title=" ">
<polygon fill="#bfbfbf" stroke="black" points="240,-224.5 240,-243.5 377,-243.5 377,-224.5 240,-224.5"/>
<text text-anchor="middle" x="308.5" y="-231.5" font-family="Helvetica,sans-Serif" font-size="10.00">iop/dev9/atad/src/ps2atad.c</text>
</a>
</g>
</g>
<!-- Node2 -->
<g id="node2" class="node">
<title>Node2</title>
<g id="a_node2"><a xlink:title=" ">
<polygon fill="white" stroke="#bfbfbf" points="119,-112.5 119,-131.5 166,-131.5 166,-112.5 119,-112.5"/>
<text text-anchor="middle" x="142.5" y="-119.5" font-family="Helvetica,sans-Serif" font-size="10.00">types.h</text>
</a>
</g>
</g>
<!-- Node1&#45;&gt;Node2 -->
<g id="edge1" class="edge">
<title>Node1&#45;&gt;Node2</title>
<path fill="none" stroke="midnightblue" d="M239.87,-230.24C173.99,-225.98 81.24,-215.19 58.5,-188 39.34,-165.09 78.05,-145.15 109.07,-133.59"/>
<polygon fill="midnightblue" stroke="midnightblue" points="110.54,-136.79 118.79,-130.14 108.2,-130.19 110.54,-136.79"/>
</g>
<!-- Node3 -->
<g id="node3" class="node">
<title>Node3</title>
<g id="a_node3"><a xlink:href="defs_8h.html" target="_top" xlink:title=" ">
<polygon fill="white" stroke="black" points="0,-112.5 0,-131.5 43,-131.5 43,-112.5 0,-112.5"/>
<text text-anchor="middle" x="21.5" y="-119.5" font-family="Helvetica,sans-Serif" font-size="10.00">defs.h</text>
</a>
</g>
</g>
<!-- Node1&#45;&gt;Node3 -->
<g id="edge2" class="edge">
<title>Node1&#45;&gt;Node3</title>
<path fill="none" stroke="midnightblue" d="M239.89,-228.41C173.35,-222.69 78.34,-210.76 49.5,-188 35.2,-176.72 28.08,-156.71 24.61,-141.86"/>
<polygon fill="midnightblue" stroke="midnightblue" points="27.98,-140.88 22.61,-131.75 21.11,-142.23 27.98,-140.88"/>
</g>
<!-- Node7 -->
<g id="node7" class="node">
<title>Node7</title>
<g id="a_node7"><a xlink:href="irx_8h.html" target="_top" xlink:title=" ">
<polygon fill="white" stroke="black" points="283.5,-112.5 283.5,-131.5 317.5,-131.5 317.5,-112.5 283.5,-112.5"/>
<text text-anchor="middle" x="300.5" y="-119.5" font-family="Helvetica,sans-Serif" font-size="10.00">irx.h</text>
</a>
</g>
</g>
<!-- Node1&#45;&gt;Node7 -->
<g id="edge6" class="edge">
<title>Node1&#45;&gt;Node7</title>
<path fill="none" stroke="midnightblue" d="M306.8,-224.42C305.1,-215.39 302.59,-200.76 301.5,-188 300.18,-172.52 299.99,-154.89 300.1,-141.9"/>
<polygon fill="midnightblue" stroke="midnightblue" points="303.6,-141.9 300.25,-131.85 296.6,-141.8 303.6,-141.9"/>
</g>
<!-- Node8 -->
<g id="node8" class="node">
<title>Node8</title>
<g id="a_node8"><a xlink:href="loadcore_8h.html" target="_top" xlink:title=" ">
<polygon fill="white" stroke="black" points="192,-168.5 192,-187.5 253,-187.5 253,-168.5 192,-168.5"/>
<text text-anchor="middle" x="222.5" y="-175.5" font-family="Helvetica,sans-Serif" font-size="10.00">loadcore.h</text>
</a>
</g>
</g>
<!-- Node1&#45;&gt;Node8 -->
<g id="edge8" class="edge">
<title>Node1&#45;&gt;Node8</title>
<path fill="none" stroke="midnightblue" d="M294.68,-224.32C281.27,-215.9 260.68,-202.97 244.91,-193.07"/>
<polygon fill="midnightblue" stroke="midnightblue" points="246.61,-190.01 236.28,-187.65 242.89,-195.94 246.61,-190.01"/>
</g>
<!-- Node9 -->
<g id="node9" class="node">
<title>Node9</title>
<g id="a_node9"><a xlink:href="thbase_8h.html" target="_top" xlink:title=" ">
<polygon fill="white" stroke="black" points="310,-168.5 310,-187.5 363,-187.5 363,-168.5 310,-168.5"/>
<text text-anchor="middle" x="336.5" y="-175.5" font-family="Helvetica,sans-Serif" font-size="10.00">thbase.h</text>
</a>
</g>
</g>
<!-- Node1&#45;&gt;Node9 -->
<g id="edge11" class="edge">
<title>Node1&#45;&gt;Node9</title>
<path fill="none" stroke="midnightblue" d="M313.12,-224.08C316.96,-216.69 322.52,-205.95 327.26,-196.81"/>
<polygon fill="midnightblue" stroke="midnightblue" points="330.47,-198.24 331.96,-187.75 324.25,-195.02 330.47,-198.24"/>
</g>
<!-- Node10 -->
<g id="node10" class="node">
<title>Node10</title>
<g id="a_node10"><a xlink:href="thevent_8h.html" target="_top" xlink:title=" ">
<polygon fill="white" stroke="black" points="381.5,-168.5 381.5,-187.5 437.5,-187.5 437.5,-168.5 381.5,-168.5"/>
<text text-anchor="middle" x="409.5" y="-175.5" font-family="Helvetica,sans-Serif" font-size="10.00">thevent.h</text>
</a>
</g>
</g>
<!-- Node1&#45;&gt;Node10 -->
<g id="edge14" class="edge">
<title>Node1&#45;&gt;Node10</title>
<path fill="none" stroke="midnightblue" d="M324.73,-224.32C340.85,-215.7 365.8,-202.36 384.46,-192.39"/>
<polygon fill="midnightblue" stroke="midnightblue" points="386.14,-195.46 393.31,-187.65 382.84,-189.28 386.14,-195.46"/>
</g>
<!-- Node11 -->
<g id="node11" class="node">
<title>Node11</title>
<g id="a_node11"><a xlink:href="stdio_8h.html" target="_top" xlink:title=" ">
<polygon fill="white" stroke="black" points="456,-168.5 456,-187.5 501,-187.5 501,-168.5 456,-168.5"/>
<text text-anchor="middle" x="478.5" y="-175.5" font-family="Helvetica,sans-Serif" font-size="10.00">stdio.h</text>
</a>
</g>
</g>
<!-- Node1&#45;&gt;Node11 -->
<g id="edge17" class="edge">
<title>Node1&#45;&gt;Node11</title>
<path fill="none" stroke="midnightblue" d="M335.44,-224.44C365.43,-214.92 413.89,-199.52 445.97,-189.33"/>
<polygon fill="midnightblue" stroke="midnightblue" points="447.3,-192.58 455.77,-186.22 445.18,-185.91 447.3,-192.58"/>
</g>
<!-- Node13 -->
<g id="node13" class="node">
<title>Node13</title>
<g id="a_node13"><a xlink:href="sysclib_8h.html" target="_top" xlink:title=" ">
<polygon fill="white" stroke="black" points="519.5,-168.5 519.5,-187.5 573.5,-187.5 573.5,-168.5 519.5,-168.5"/>
<text text-anchor="middle" x="546.5" y="-175.5" font-family="Helvetica,sans-Serif" font-size="10.00">sysclib.h</text>
</a>
</g>
</g>
<!-- Node1&#45;&gt;Node13 -->
<g id="edge20" class="edge">
<title>Node1&#45;&gt;Node13</title>
<path fill="none" stroke="midnightblue" d="M348.43,-224.42C387.16,-216.03 447.83,-202.7 509.49,-188.19"/>
<polygon fill="midnightblue" stroke="midnightblue" points="510.46,-191.56 519.39,-185.86 508.85,-184.75 510.46,-191.56"/>
</g>
<!-- Node15 -->
<g id="node15" class="node">
<title>Node15</title>
<g id="a_node15"><a xlink:href="dev9_8h.html" target="_top" xlink:title=" ">
<polygon fill="white" stroke="black" points="68,-168.5 68,-187.5 113,-187.5 113,-168.5 68,-168.5"/>
<text text-anchor="middle" x="90.5" y="-175.5" font-family="Helvetica,sans-Serif" font-size="10.00">dev9.h</text>
</a>
</g>
</g>
<!-- Node1&#45;&gt;Node15 -->
<g id="edge26" class="edge">
<title>Node1&#45;&gt;Node15</title>
<path fill="none" stroke="midnightblue" d="M271.34,-224.44C235.78,-216.14 180.4,-202.99 123.15,-188.1"/>
<polygon fill="midnightblue" stroke="midnightblue" points="123.76,-184.64 113.2,-185.49 121.99,-191.41 123.76,-184.64"/>
</g>
<!-- Node17 -->
<g id="node17" class="node">
<title>Node17</title>
<g id="a_node17"><a xlink:href="atad_8h.html" target="_top" xlink:title=" ">
<polygon fill="white" stroke="black" points="131,-168.5 131,-187.5 174,-187.5 174,-168.5 131,-168.5"/>
<text text-anchor="middle" x="152.5" y="-175.5" font-family="Helvetica,sans-Serif" font-size="10.00">atad.h</text>
</a>
</g>
</g>
<!-- Node1&#45;&gt;Node17 -->
<g id="edge31" class="edge">
<title>Node1&#45;&gt;Node17</title>
<path fill="none" stroke="midnightblue" d="M283.78,-224.44C256.73,-215.08 213.3,-200.05 183.87,-189.86"/>
<polygon fill="midnightblue" stroke="midnightblue" points="184.68,-186.44 174.09,-186.47 182.39,-193.05 184.68,-186.44"/>
</g>
<!-- Node18 -->
<g id="node18" class="node">
<title>Node18</title>
<g id="a_node18"><a xlink:href="speedregs_8h.html" target="_top" xlink:title=" ">
<polygon fill="white" stroke="black" points="557,-56.5 557,-75.5 626,-75.5 626,-56.5 557,-56.5"/>
<text text-anchor="middle" x="591.5" y="-63.5" font-family="Helvetica,sans-Serif" font-size="10.00">speedregs.h</text>
</a>
</g>
</g>
<!-- Node1&#45;&gt;Node18 -->
<g id="edge34" class="edge">
<title>Node1&#45;&gt;Node18</title>
<path fill="none" stroke="midnightblue" d="M377.25,-231.12C449.26,-227.58 555.61,-217.38 582.5,-188 608.01,-160.13 602.19,-111.91 596.42,-85.54"/>
<polygon fill="midnightblue" stroke="midnightblue" points="599.79,-84.6 594.04,-75.7 592.99,-86.24 599.79,-84.6"/>
</g>
<!-- Node19 -->
<g id="node19" class="node">
<title>Node19</title>
<g id="a_node19"><a xlink:href="atahw_8h.html" target="_top" xlink:title=" ">
<polygon fill="white" stroke="black" points="629.5,-112.5 629.5,-131.5 679.5,-131.5 679.5,-112.5 629.5,-112.5"/>
<text text-anchor="middle" x="654.5" y="-119.5" font-family="Helvetica,sans-Serif" font-size="10.00">atahw.h</text>
</a>
</g>
</g>
<!-- Node1&#45;&gt;Node19 -->
<g id="edge36" class="edge">
<title>Node1&#45;&gt;Node19</title>
<path fill="none" stroke="midnightblue" d="M377.3,-229.71C455.6,-224.81 577.57,-213.28 615.5,-188 631.89,-177.07 642.45,-156.71 648.39,-141.67"/>
<polygon fill="midnightblue" stroke="midnightblue" points="651.82,-142.47 651.92,-131.88 645.23,-140.1 651.82,-142.47"/>
</g>
<!-- Node4 -->
<g id="node4" class="node">
<title>Node4</title>
<g id="a_node4"><a xlink:href="types_8h_source.html" target="_top" xlink:title=" ">
<polygon fill="white" stroke="black" points="322,-56.5 322,-75.5 369,-75.5 369,-56.5 322,-56.5"/>
<text text-anchor="middle" x="345.5" y="-63.5" font-family="Helvetica,sans-Serif" font-size="10.00">types.h</text>
</a>
</g>
</g>
<!-- Node3&#45;&gt;Node4 -->
<g id="edge3" class="edge">
<title>Node3&#45;&gt;Node4</title>
<path fill="none" stroke="midnightblue" d="M43.01,-117.42C98.15,-108.23 244.88,-83.77 311.62,-72.65"/>
<polygon fill="midnightblue" stroke="midnightblue" points="312.32,-76.08 321.61,-70.98 311.17,-69.17 312.32,-76.08"/>
</g>
<!-- Node5 -->
<g id="node5" class="node">
<title>Node5</title>
<g id="a_node5"><a xlink:title=" ">
<polygon fill="white" stroke="#bfbfbf" points="320,-0.5 320,-19.5 371,-19.5 371,-0.5 320,-0.5"/>
<text text-anchor="middle" x="345.5" y="-7.5" font-family="Helvetica,sans-Serif" font-size="10.00">stddef.h</text>
</a>
</g>
</g>
<!-- Node4&#45;&gt;Node5 -->
<g id="edge4" class="edge">
<title>Node4&#45;&gt;Node5</title>
<path fill="none" stroke="midnightblue" d="M345.5,-56.08C345.5,-49.01 345.5,-38.86 345.5,-29.99"/>
<polygon fill="midnightblue" stroke="midnightblue" points="349,-29.75 345.5,-19.75 342,-29.75 349,-29.75"/>
</g>
<!-- Node6 -->
<g id="node6" class="node">
<title>Node6</title>
<g id="a_node6"><a xlink:href="tamtypes_8h.html" target="_top" xlink:title=" ">
<polygon fill="white" stroke="black" points="519.5,-0.5 519.5,-19.5 583.5,-19.5 583.5,-0.5 519.5,-0.5"/>
<text text-anchor="middle" x="551.5" y="-7.5" font-family="Helvetica,sans-Serif" font-size="10.00">tamtypes.h</text>
</a>
</g>
</g>
<!-- Node4&#45;&gt;Node6 -->
<g id="edge5" class="edge">
<title>Node4&#45;&gt;Node6</title>
<path fill="none" stroke="midnightblue" d="M369.13,-58.81C403.37,-49.83 467.32,-33.07 509.65,-21.97"/>
<polygon fill="midnightblue" stroke="midnightblue" points="510.6,-25.34 519.39,-19.42 508.83,-18.57 510.6,-25.34"/>
</g>
<!-- Node7&#45;&gt;Node4 -->
<g id="edge7" class="edge">
<title>Node7&#45;&gt;Node4</title>
<path fill="none" stroke="midnightblue" d="M307.93,-112.08C314.35,-104.38 323.81,-93.03 331.62,-83.65"/>
<polygon fill="midnightblue" stroke="midnightblue" points="334.49,-85.67 338.21,-75.75 329.12,-81.19 334.49,-85.67"/>
</g>
<!-- Node8&#45;&gt;Node4 -->
<g id="edge9" class="edge">
<title>Node8&#45;&gt;Node4</title>
<path fill="none" stroke="midnightblue" d="M228.11,-168.25C236.89,-155 254.91,-129.55 274.5,-112 288.23,-99.7 305.7,-88.58 319.87,-80.47"/>
<polygon fill="midnightblue" stroke="midnightblue" points="321.6,-83.52 328.64,-75.6 318.2,-77.4 321.6,-83.52"/>
</g>
<!-- Node8&#45;&gt;Node7 -->
<g id="edge10" class="edge">
<title>Node8&#45;&gt;Node7</title>
<path fill="none" stroke="midnightblue" d="M235.03,-168.32C247.09,-159.98 265.53,-147.21 279.77,-137.35"/>
<polygon fill="midnightblue" stroke="midnightblue" points="281.77,-140.22 288,-131.65 277.78,-134.47 281.77,-140.22"/>
</g>
<!-- Node9&#45;&gt;Node4 -->
<g id="edge12" class="edge">
<title>Node9&#45;&gt;Node4</title>
<path fill="none" stroke="midnightblue" d="M337.21,-168.37C338.66,-150.62 342.01,-109.67 343.98,-85.6"/>
<polygon fill="midnightblue" stroke="midnightblue" points="347.47,-85.84 344.8,-75.59 340.49,-85.27 347.47,-85.84"/>
</g>
<!-- Node9&#45;&gt;Node7 -->
<g id="edge13" class="edge">
<title>Node9&#45;&gt;Node7</title>
<path fill="none" stroke="midnightblue" d="M330.56,-168.08C325.52,-160.53 318.16,-149.49 311.99,-140.23"/>
<polygon fill="midnightblue" stroke="midnightblue" points="314.79,-138.13 306.33,-131.75 308.97,-142.01 314.79,-138.13"/>
</g>
<!-- Node10&#45;&gt;Node4 -->
<g id="edge15" class="edge">
<title>Node10&#45;&gt;Node4</title>
<path fill="none" stroke="midnightblue" d="M404.48,-168.37C393.96,-150.3 369.46,-108.18 355.57,-84.31"/>
<polygon fill="midnightblue" stroke="midnightblue" points="358.55,-82.47 350.5,-75.59 352.5,-86 358.55,-82.47"/>
</g>
<!-- Node10&#45;&gt;Node7 -->
<g id="edge16" class="edge">
<title>Node10&#45;&gt;Node7</title>
<path fill="none" stroke="midnightblue" d="M391.99,-168.32C374.32,-159.57 346.85,-145.96 326.61,-135.94"/>
<polygon fill="midnightblue" stroke="midnightblue" points="328.12,-132.78 317.61,-131.48 325.02,-139.05 328.12,-132.78"/>
</g>
<!-- Node11&#45;&gt;Node7 -->
<g id="edge19" class="edge">
<title>Node11&#45;&gt;Node7</title>
<path fill="none" stroke="midnightblue" d="M455.96,-170.16C423.23,-160.23 362.66,-141.86 327.56,-131.21"/>
<polygon fill="midnightblue" stroke="midnightblue" points="328.14,-127.73 317.55,-128.17 326.1,-134.42 328.14,-127.73"/>
</g>
<!-- Node12 -->
<g id="node12" class="node">
<title>Node12</title>
<g id="a_node12"><a xlink:title=" ">
<polygon fill="white" stroke="#bfbfbf" points="438,-112.5 438,-131.5 489,-131.5 489,-112.5 438,-112.5"/>
<text text-anchor="middle" x="463.5" y="-119.5" font-family="Helvetica,sans-Serif" font-size="10.00">stdarg.h</text>
</a>
</g>
</g>
<!-- Node11&#45;&gt;Node12 -->
<g id="edge18" class="edge">
<title>Node11&#45;&gt;Node12</title>
<path fill="none" stroke="midnightblue" d="M476.02,-168.08C474.01,-160.85 471.11,-150.41 468.61,-141.4"/>
<polygon fill="midnightblue" stroke="midnightblue" points="471.98,-140.45 465.93,-131.75 465.24,-142.32 471.98,-140.45"/>
</g>
<!-- Node13&#45;&gt;Node4 -->
<g id="edge21" class="edge">
<title>Node13&#45;&gt;Node4</title>
<path fill="none" stroke="midnightblue" d="M542.49,-168.43C535.53,-154.49 519.88,-126.96 498.5,-112 462.37,-86.72 411.98,-75.48 379.05,-70.59"/>
<polygon fill="midnightblue" stroke="midnightblue" points="379.4,-67.11 369.02,-69.22 378.45,-74.04 379.4,-67.11"/>
</g>
<!-- Node13&#45;&gt;Node7 -->
<g id="edge22" class="edge">
<title>Node13&#45;&gt;Node7</title>
<path fill="none" stroke="midnightblue" d="M519.4,-170.12C516.4,-169.39 513.39,-168.67 510.5,-168 444.98,-152.8 367.53,-136.68 327.5,-128.48"/>
<polygon fill="midnightblue" stroke="midnightblue" points="328.19,-125.05 317.69,-126.48 326.79,-131.91 328.19,-125.05"/>
</g>
<!-- Node13&#45;&gt;Node12 -->
<g id="edge23" class="edge">
<title>Node13&#45;&gt;Node12</title>
<path fill="none" stroke="midnightblue" d="M533.16,-168.32C520.34,-159.98 500.72,-147.21 485.56,-137.35"/>
<polygon fill="midnightblue" stroke="midnightblue" points="487.09,-134.17 476.8,-131.65 483.28,-140.04 487.09,-134.17"/>
</g>
<!-- Node14 -->
<g id="node14" class="node">
<title>Node14</title>
<g id="a_node14"><a xlink:href="setjmp_8h.html" target="_top" xlink:title=" ">
<polygon fill="white" stroke="black" points="486,-56.5 486,-75.5 539,-75.5 539,-56.5 486,-56.5"/>
<text text-anchor="middle" x="512.5" y="-63.5" font-family="Helvetica,sans-Serif" font-size="10.00">setjmp.h</text>
</a>
</g>
</g>
<!-- Node13&#45;&gt;Node14 -->
<g id="edge24" class="edge">
<title>Node13&#45;&gt;Node14</title>
<path fill="none" stroke="midnightblue" d="M545.02,-168.46C542.73,-155.91 537.92,-131.83 531.5,-112 528.56,-102.92 524.54,-93.13 520.95,-85.01"/>
<polygon fill="midnightblue" stroke="midnightblue" points="524.08,-83.44 516.75,-75.79 517.71,-86.34 524.08,-83.44"/>
</g>
<!-- Node14&#45;&gt;Node6 -->
<g id="edge25" class="edge">
<title>Node14&#45;&gt;Node6</title>
<path fill="none" stroke="midnightblue" d="M518.94,-56.08C524.45,-48.46 532.53,-37.26 539.26,-27.94"/>
<polygon fill="midnightblue" stroke="midnightblue" points="542.16,-29.91 545.18,-19.75 536.49,-25.81 542.16,-29.91"/>
</g>
<!-- Node15&#45;&gt;Node2 -->
<g id="edge27" class="edge">
<title>Node15&#45;&gt;Node2</title>
<path fill="none" stroke="midnightblue" d="M99.09,-168.08C106.66,-160.22 117.88,-148.57 127.01,-139.08"/>
<polygon fill="midnightblue" stroke="midnightblue" points="129.66,-141.38 134.07,-131.75 124.62,-136.53 129.66,-141.38"/>
</g>
<!-- Node15&#45;&gt;Node7 -->
<g id="edge28" class="edge">
<title>Node15&#45;&gt;Node7</title>
<path fill="none" stroke="midnightblue" d="M113.21,-170.53C116.32,-169.67 119.49,-168.8 122.5,-168 175.81,-153.77 238.4,-138.21 273.36,-129.62"/>
<polygon fill="midnightblue" stroke="midnightblue" points="274.4,-132.97 283.28,-127.19 272.73,-126.17 274.4,-132.97"/>
</g>
<!-- Node16 -->
<g id="node16" class="node">
<title>Node16</title>
<g id="a_node16"><a xlink:href="hdd-ioctl_8h.html" target="_top" xlink:title=" ">
<polygon fill="white" stroke="black" points="152,-56.5 152,-75.5 213,-75.5 213,-56.5 152,-56.5"/>
<text text-anchor="middle" x="182.5" y="-63.5" font-family="Helvetica,sans-Serif" font-size="10.00">hdd&#45;ioctl.h</text>
</a>
</g>
</g>
<!-- Node15&#45;&gt;Node16 -->
<g id="edge29" class="edge">
<title>Node15&#45;&gt;Node16</title>
<path fill="none" stroke="midnightblue" d="M91.26,-168.12C92.82,-154.7 97.4,-129.04 110.5,-112 121.11,-98.19 137.26,-87.55 151.58,-80.09"/>
<polygon fill="midnightblue" stroke="midnightblue" points="153.21,-83.18 160.64,-75.64 150.12,-76.9 153.21,-83.18"/>
</g>
<!-- Node16&#45;&gt;Node6 -->
<g id="edge30" class="edge">
<title>Node16&#45;&gt;Node6</title>
<path fill="none" stroke="midnightblue" d="M213.01,-60.54C278.81,-50.91 434.17,-28.17 509.33,-17.17"/>
<polygon fill="midnightblue" stroke="midnightblue" points="509.99,-20.61 519.38,-15.7 508.98,-13.69 509.99,-20.61"/>
</g>
<!-- Node17&#45;&gt;Node2 -->
<g id="edge32" class="edge">
<title>Node17&#45;&gt;Node2</title>
<path fill="none" stroke="midnightblue" d="M150.85,-168.08C149.52,-160.93 147.62,-150.64 145.96,-141.69"/>
<polygon fill="midnightblue" stroke="midnightblue" points="149.38,-140.95 144.12,-131.75 142.5,-142.22 149.38,-140.95"/>
</g>
<!-- Node17&#45;&gt;Node7 -->
<g id="edge33" class="edge">
<title>Node17&#45;&gt;Node7</title>
<path fill="none" stroke="midnightblue" d="M174.02,-169.15C200.3,-159.56 244.76,-143.34 273.36,-132.9"/>
<polygon fill="midnightblue" stroke="midnightblue" points="274.92,-136.06 283.11,-129.34 272.52,-129.48 274.92,-136.06"/>
</g>
<!-- Node18&#45;&gt;Node6 -->
<g id="edge35" class="edge">
<title>Node18&#45;&gt;Node6</title>
<path fill="none" stroke="midnightblue" d="M584.89,-56.08C579.24,-48.46 570.96,-37.26 564.05,-27.94"/>
<polygon fill="midnightblue" stroke="midnightblue" points="566.75,-25.7 557.98,-19.75 561.12,-29.87 566.75,-25.7"/>
</g>
<!-- Node19&#45;&gt;Node6 -->
<g id="edge37" class="edge">
<title>Node19&#45;&gt;Node6</title>
<path fill="none" stroke="midnightblue" d="M654.07,-112.45C652.98,-99.03 649.13,-72.8 635.5,-56 623.47,-41.18 605.23,-30.58 588.81,-23.4"/>
<polygon fill="midnightblue" stroke="midnightblue" points="590,-20.11 579.42,-19.57 587.35,-26.59 590,-20.11"/>
</g>
<!-- Node19&#45;&gt;Node18 -->
<g id="edge40" class="edge">
<title>Node19&#45;&gt;Node18</title>
<path fill="none" stroke="midnightblue" d="M644.38,-112.32C634.97,-104.26 620.76,-92.08 609.43,-82.37"/>
<polygon fill="midnightblue" stroke="midnightblue" points="611.68,-79.68 601.81,-75.83 607.12,-85 611.68,-79.68"/>
</g>
<!-- Node20 -->
<g id="node20" class="node">
<title>Node20</title>
<g id="a_node20"><a xlink:href="aifregs_8h.html" target="_top" xlink:title=" ">
<polygon fill="white" stroke="black" points="683,-56.5 683,-75.5 736,-75.5 736,-56.5 683,-56.5"/>
<text text-anchor="middle" x="709.5" y="-63.5" font-family="Helvetica,sans-Serif" font-size="10.00">aifregs.h</text>
</a>
</g>
</g>
<!-- Node19&#45;&gt;Node20 -->
<g id="edge38" class="edge">
<title>Node19&#45;&gt;Node20</title>
<path fill="none" stroke="midnightblue" d="M663.58,-112.08C671.67,-104.14 683.7,-92.34 693.41,-82.8"/>
<polygon fill="midnightblue" stroke="midnightblue" points="695.9,-85.25 700.59,-75.75 691,-80.26 695.9,-85.25"/>
</g>
<!-- Node20&#45;&gt;Node6 -->
<g id="edge39" class="edge">
<title>Node20&#45;&gt;Node6</title>
<path fill="none" stroke="midnightblue" d="M684.46,-56.44C657.88,-47.36 615.69,-32.94 585.98,-22.78"/>
<polygon fill="midnightblue" stroke="midnightblue" points="587.01,-19.44 576.42,-19.52 584.75,-26.06 587.01,-19.44"/>
</g>
</g>
</svg>
