<?xml version="1.0" encoding="UTF-8" standalone="no"?>
<!DOCTYPE svg PUBLIC "-//W3C//DTD SVG 1.1//EN"
 "http://www.w3.org/Graphics/SVG/1.1/DTD/svg11.dtd">
<!-- Generated by graphviz version 2.46.1 (20210215.1649)
 -->
<!-- Title: iop/usb/camera/src/ps2cam.c Pages: 1 -->
<!--zoomable 319 -->
<svg id="main" version="1.1" xmlns="http://www.w3.org/2000/svg" xmlns:xlink="http://www.w3.org/1999/xlink" xml:space="preserve" onload="init(evt)">
<style type="text/css"><![CDATA[
.edge:hover path { stroke: red; }
.edge:hover polygon { stroke: red; fill: red; }
]]></style>
<script type="text/javascript"><![CDATA[
var edges = document.getElementsByTagName('g');
if (edges && edges.length) {
  for (var i=0;i<edges.length;i++) {
    if (edges[i].id.substr(0,4)=='edge') {
      edges[i].setAttribute('class','edge');
    }
  }
}
]]></script>
        <defs>
                <circle id="rim" cx="0" cy="0" r="7"/>
                <circle id="rim2" cx="0" cy="0" r="3.5"/>
                <g id="zoomPlus">
                        <use xlink:href="#rim" fill="#404040">
                                <set attributeName="fill" to="#808080" begin="zoomplus.mouseover" end="zoomplus.mouseout"/>
                        </use>
                        <path d="M-4,0h8M0,-4v8" fill="none" stroke="white" stroke-width="1.5" pointer-events="none"/>
                </g>
                <g id="zoomMin">
                        <use xlink:href="#rim" fill="#404040">
                                <set attributeName="fill" to="#808080" begin="zoomminus.mouseover" end="zoomminus.mouseout"/>
                        </use>
                        <path d="M-4,0h8" fill="none" stroke="white" stroke-width="1.5" pointer-events="none"/>
                </g>
                <g id="dirArrow">
                        <path fill="none" stroke="white" stroke-width="1.5" d="M0,-3.0v7 M-2.5,-0.5L0,-3.0L2.5,-0.5"/>
                </g>
               <g id="resetDef">
                       <use xlink:href="#rim2" fill="#404040">
                               <set attributeName="fill" to="#808080" begin="reset.mouseover" end="reset.mouseout"/>
                       </use>
               </g>
        </defs>

<script type="text/javascript">
var viewWidth = 661;
var viewHeight = 319;
var sectionId = 'dynsection-0';
</script>
<script xlink:href="svgpan.js"/>
<svg id="graph" class="graph">
<g id="viewport">
<title>iop/usb/camera/src/ps2cam.c</title>
<polygon fill="white" stroke="transparent" points="-4,4 -4,-315 656.5,-315 656.5,4 -4,4"/>
<!-- Node1 -->
<g id="node1" class="node">
<title>Node1</title>
<g id="a_node1"><a xlink:title=" ">
<polygon fill="#bfbfbf" stroke="black" points="267,-280.5 267,-310.5 367,-310.5 367,-280.5 267,-280.5"/>
<text text-anchor="start" x="275" y="-298.5" font-family="Helvetica,sans-Serif" font-size="10.00">iop/usb/camera/src</text>
<text text-anchor="middle" x="317" y="-287.5" font-family="Helvetica,sans-Serif" font-size="10.00">/ps2cam.c</text>
</a>
</g>
</g>
<!-- Node2 -->
<g id="node2" class="node">
<title>Node2</title>
<g id="a_node2"><a xlink:href="stdio_8h.html" target="_top" xlink:title=" ">
<polygon fill="white" stroke="black" points="100.5,-168.5 100.5,-187.5 145.5,-187.5 145.5,-168.5 100.5,-168.5"/>
<text text-anchor="middle" x="123" y="-175.5" font-family="Helvetica,sans-Serif" font-size="10.00">stdio.h</text>
</a>
</g>
</g>
<!-- Node1&#45;&gt;Node2 -->
<g id="edge1" class="edge">
<title>Node1&#45;&gt;Node2</title>
<path fill="none" stroke="midnightblue" d="M266.94,-290.14C231.15,-284.64 183.87,-272.18 152,-244 138.28,-231.87 130.73,-211.99 126.8,-197.41"/>
<polygon fill="midnightblue" stroke="midnightblue" points="130.16,-196.43 124.46,-187.51 123.35,-198.04 130.16,-196.43"/>
</g>
<!-- Node7 -->
<g id="node7" class="node">
<title>Node7</title>
<g id="a_node7"><a xlink:href="tamtypes_8h.html" target="_top" xlink:title=" ">
<polygon fill="white" stroke="black" points="23,-0.5 23,-19.5 87,-19.5 87,-0.5 23,-0.5"/>
<text text-anchor="middle" x="55" y="-7.5" font-family="Helvetica,sans-Serif" font-size="10.00">tamtypes.h</text>
</a>
</g>
</g>
<!-- Node1&#45;&gt;Node7 -->
<g id="edge13" class="edge">
<title>Node1&#45;&gt;Node7</title>
<path fill="none" stroke="midnightblue" d="M266.77,-286.88C177.38,-271.89 0,-235.08 0,-179 0,-179 0,-179 0,-121 0,-90.9 5.11,-82.7 19,-56 24.41,-45.59 32.42,-35.28 39.51,-27.15"/>
<polygon fill="midnightblue" stroke="midnightblue" points="42.27,-29.32 46.42,-19.57 37.1,-24.6 42.27,-29.32"/>
</g>
<!-- Node8 -->
<g id="node8" class="node">
<title>Node8</title>
<g id="a_node8"><a xlink:href="sysclib_8h.html" target="_top" xlink:title=" ">
<polygon fill="white" stroke="black" points="28,-168.5 28,-187.5 82,-187.5 82,-168.5 28,-168.5"/>
<text text-anchor="middle" x="55" y="-175.5" font-family="Helvetica,sans-Serif" font-size="10.00">sysclib.h</text>
</a>
</g>
</g>
<!-- Node1&#45;&gt;Node8 -->
<g id="edge7" class="edge">
<title>Node1&#45;&gt;Node8</title>
<path fill="none" stroke="midnightblue" d="M266.75,-286.52C228.76,-279.11 176.12,-265.87 134,-244 109.26,-231.16 85.16,-209.63 70.22,-194.9"/>
<polygon fill="midnightblue" stroke="midnightblue" points="72.43,-192.16 62.91,-187.51 67.46,-197.08 72.43,-192.16"/>
</g>
<!-- Node10 -->
<g id="node10" class="node">
<title>Node10</title>
<g id="a_node10"><a xlink:href="thbase_8h.html" target="_top" xlink:title=" ">
<polygon fill="white" stroke="black" points="323.5,-168.5 323.5,-187.5 376.5,-187.5 376.5,-168.5 323.5,-168.5"/>
<text text-anchor="middle" x="350" y="-175.5" font-family="Helvetica,sans-Serif" font-size="10.00">thbase.h</text>
</a>
</g>
</g>
<!-- Node1&#45;&gt;Node10 -->
<g id="edge14" class="edge">
<title>Node1&#45;&gt;Node10</title>
<path fill="none" stroke="midnightblue" d="M321.05,-280.34C326.99,-259.53 338.1,-220.66 344.69,-197.58"/>
<polygon fill="midnightblue" stroke="midnightblue" points="348.14,-198.25 347.52,-187.67 341.41,-196.32 348.14,-198.25"/>
</g>
<!-- Node11 -->
<g id="node11" class="node">
<title>Node11</title>
<g id="a_node11"><a xlink:title=" ">
<polygon fill="white" stroke="#bfbfbf" points="169.5,-224.5 169.5,-243.5 222.5,-243.5 222.5,-224.5 169.5,-224.5"/>
<text text-anchor="middle" x="196" y="-231.5" font-family="Helvetica,sans-Serif" font-size="10.00">sifcmd.h</text>
</a>
</g>
</g>
<!-- Node1&#45;&gt;Node11 -->
<g id="edge17" class="edge">
<title>Node1&#45;&gt;Node11</title>
<path fill="none" stroke="midnightblue" d="M288.32,-280.4C268.48,-270.64 242.24,-257.74 222.81,-248.18"/>
<polygon fill="midnightblue" stroke="midnightblue" points="224.12,-244.93 213.61,-243.66 221.04,-251.21 224.12,-244.93"/>
</g>
<!-- Node12 -->
<g id="node12" class="node">
<title>Node12</title>
<g id="a_node12"><a xlink:title=" ">
<polygon fill="white" stroke="#bfbfbf" points="241,-224.5 241,-243.5 289,-243.5 289,-224.5 241,-224.5"/>
<text text-anchor="middle" x="265" y="-231.5" font-family="Helvetica,sans-Serif" font-size="10.00">sifrpc.h</text>
</a>
</g>
</g>
<!-- Node1&#45;&gt;Node12 -->
<g id="edge18" class="edge">
<title>Node1&#45;&gt;Node12</title>
<path fill="none" stroke="midnightblue" d="M304.68,-280.4C297.04,-271.66 287.21,-260.41 279.24,-251.3"/>
<polygon fill="midnightblue" stroke="midnightblue" points="281.78,-248.88 272.57,-243.66 276.51,-253.49 281.78,-248.88"/>
</g>
<!-- Node13 -->
<g id="node13" class="node">
<title>Node13</title>
<g id="a_node13"><a xlink:href="loadcore_8h.html" target="_top" xlink:title=" ">
<polygon fill="white" stroke="black" points="394.5,-168.5 394.5,-187.5 455.5,-187.5 455.5,-168.5 394.5,-168.5"/>
<text text-anchor="middle" x="425" y="-175.5" font-family="Helvetica,sans-Serif" font-size="10.00">loadcore.h</text>
</a>
</g>
</g>
<!-- Node1&#45;&gt;Node13 -->
<g id="edge19" class="edge">
<title>Node1&#45;&gt;Node13</title>
<path fill="none" stroke="midnightblue" d="M330.24,-280.34C350.41,-258.77 388.71,-217.81 409.92,-195.13"/>
<polygon fill="midnightblue" stroke="midnightblue" points="412.62,-197.36 416.89,-187.67 407.51,-192.58 412.62,-197.36"/>
</g>
<!-- Node14 -->
<g id="node14" class="node">
<title>Node14</title>
<g id="a_node14"><a xlink:href="ioman_8h.html" target="_top" xlink:title=" ">
<polygon fill="white" stroke="black" points="474,-168.5 474,-187.5 524,-187.5 524,-168.5 474,-168.5"/>
<text text-anchor="middle" x="499" y="-175.5" font-family="Helvetica,sans-Serif" font-size="10.00">ioman.h</text>
</a>
</g>
</g>
<!-- Node1&#45;&gt;Node14 -->
<g id="edge22" class="edge">
<title>Node1&#45;&gt;Node14</title>
<path fill="none" stroke="midnightblue" d="M339.32,-280.34C374.34,-258.11 441.83,-215.28 476.79,-193.09"/>
<polygon fill="midnightblue" stroke="midnightblue" points="478.77,-195.98 485.34,-187.67 475.02,-190.07 478.77,-195.98"/>
</g>
<!-- Node18 -->
<g id="node18" class="node">
<title>Node18</title>
<g id="a_node18"><a xlink:href="usbd_8h.html" target="_top" xlink:title=" ">
<polygon fill="white" stroke="black" points="542.5,-168.5 542.5,-187.5 587.5,-187.5 587.5,-168.5 542.5,-168.5"/>
<text text-anchor="middle" x="565" y="-175.5" font-family="Helvetica,sans-Serif" font-size="10.00">usbd.h</text>
</a>
</g>
</g>
<!-- Node1&#45;&gt;Node18 -->
<g id="edge28" class="edge">
<title>Node1&#45;&gt;Node18</title>
<path fill="none" stroke="midnightblue" d="M367.04,-289.42C426.39,-282.4 520.5,-267.84 546,-244 558.61,-232.22 563,-212.58 564.46,-197.97"/>
<polygon fill="midnightblue" stroke="midnightblue" points="567.98,-197.77 565.1,-187.57 560.99,-197.34 567.98,-197.77"/>
</g>
<!-- Node20 -->
<g id="node20" class="node">
<title>Node20</title>
<g id="a_node20"><a xlink:href="usbd__macro_8h.html" target="_top" xlink:title=" ">
<polygon fill="white" stroke="black" points="459.5,-224.5 459.5,-243.5 536.5,-243.5 536.5,-224.5 459.5,-224.5"/>
<text text-anchor="middle" x="498" y="-231.5" font-family="Helvetica,sans-Serif" font-size="10.00">usbd_macro.h</text>
</a>
</g>
</g>
<!-- Node1&#45;&gt;Node20 -->
<g id="edge31" class="edge">
<title>Node1&#45;&gt;Node20</title>
<path fill="none" stroke="midnightblue" d="M359.89,-280.4C391.03,-270.16 432.69,-256.47 462.08,-246.81"/>
<polygon fill="midnightblue" stroke="midnightblue" points="463.52,-250.02 471.93,-243.57 461.33,-243.37 463.52,-250.02"/>
</g>
<!-- Node21 -->
<g id="node21" class="node">
<title>Node21</title>
<g id="a_node21"><a xlink:href="thsemap_8h.html" target="_top" xlink:title=" ">
<polygon fill="white" stroke="black" points="243,-168.5 243,-187.5 305,-187.5 305,-168.5 243,-168.5"/>
<text text-anchor="middle" x="274" y="-175.5" font-family="Helvetica,sans-Serif" font-size="10.00">thsemap.h</text>
</a>
</g>
</g>
<!-- Node1&#45;&gt;Node21 -->
<g id="edge33" class="edge">
<title>Node1&#45;&gt;Node21</title>
<path fill="none" stroke="midnightblue" d="M314.19,-280.42C311.09,-265.97 305.51,-242.98 298,-224 294.3,-214.63 289.15,-204.71 284.56,-196.57"/>
<polygon fill="midnightblue" stroke="midnightblue" points="287.45,-194.56 279.4,-187.68 281.4,-198.08 287.45,-194.56"/>
</g>
<!-- Node22 -->
<g id="node22" class="node">
<title>Node22</title>
<g id="a_node22"><a xlink:href="sysmem_8h.html" target="_top" xlink:title=" ">
<polygon fill="white" stroke="black" points="163.5,-168.5 163.5,-187.5 224.5,-187.5 224.5,-168.5 163.5,-168.5"/>
<text text-anchor="middle" x="194" y="-175.5" font-family="Helvetica,sans-Serif" font-size="10.00">sysmem.h</text>
</a>
</g>
</g>
<!-- Node1&#45;&gt;Node22 -->
<g id="edge36" class="edge">
<title>Node1&#45;&gt;Node22</title>
<path fill="none" stroke="midnightblue" d="M266.71,-293.05C230.6,-289.05 184.2,-277.2 160,-244 148.71,-228.51 162.44,-208.78 175.68,-195.14"/>
<polygon fill="midnightblue" stroke="midnightblue" points="178.43,-197.34 183.22,-187.89 173.58,-192.29 178.43,-197.34"/>
</g>
<!-- Node23 -->
<g id="node23" class="node">
<title>Node23</title>
<g id="a_node23"><a xlink:href="ps2cam_8h.html" target="_top" xlink:title=" ">
<polygon fill="white" stroke="black" points="593.5,-224.5 593.5,-243.5 652.5,-243.5 652.5,-224.5 593.5,-224.5"/>
<text text-anchor="middle" x="623" y="-231.5" font-family="Helvetica,sans-Serif" font-size="10.00">ps2cam.h</text>
</a>
</g>
</g>
<!-- Node1&#45;&gt;Node23 -->
<g id="edge40" class="edge">
<title>Node1&#45;&gt;Node23</title>
<path fill="none" stroke="midnightblue" d="M367.26,-284.99C420.03,-274.96 505.39,-258.62 579,-244 580.43,-243.72 581.89,-243.42 583.37,-243.13"/>
<polygon fill="midnightblue" stroke="midnightblue" points="584.08,-246.56 593.19,-241.15 582.69,-239.69 584.08,-246.56"/>
</g>
<!-- Node3 -->
<g id="node3" class="node">
<title>Node3</title>
<g id="a_node3"><a xlink:title=" ">
<polygon fill="white" stroke="#bfbfbf" points="121.5,-112.5 121.5,-131.5 172.5,-131.5 172.5,-112.5 121.5,-112.5"/>
<text text-anchor="middle" x="147" y="-119.5" font-family="Helvetica,sans-Serif" font-size="10.00">stdarg.h</text>
</a>
</g>
</g>
<!-- Node2&#45;&gt;Node3 -->
<g id="edge2" class="edge">
<title>Node2&#45;&gt;Node3</title>
<path fill="none" stroke="midnightblue" d="M126.96,-168.08C130.21,-160.77 134.92,-150.18 138.95,-141.1"/>
<polygon fill="midnightblue" stroke="midnightblue" points="142.25,-142.31 143.11,-131.75 135.85,-139.47 142.25,-142.31"/>
</g>
<!-- Node4 -->
<g id="node4" class="node">
<title>Node4</title>
<g id="a_node4"><a xlink:href="irx_8h.html" target="_top" xlink:title=" ">
<polygon fill="white" stroke="black" points="288,-112.5 288,-131.5 322,-131.5 322,-112.5 288,-112.5"/>
<text text-anchor="middle" x="305" y="-119.5" font-family="Helvetica,sans-Serif" font-size="10.00">irx.h</text>
</a>
</g>
</g>
<!-- Node2&#45;&gt;Node4 -->
<g id="edge3" class="edge">
<title>Node2&#45;&gt;Node4</title>
<path fill="none" stroke="midnightblue" d="M145.68,-170.27C179.33,-160.29 242.36,-141.59 278.22,-130.94"/>
<polygon fill="midnightblue" stroke="midnightblue" points="279.41,-134.24 288,-128.04 277.42,-127.53 279.41,-134.24"/>
</g>
<!-- Node5 -->
<g id="node5" class="node">
<title>Node5</title>
<g id="a_node5"><a xlink:href="types_8h_source.html" target="_top" xlink:title=" ">
<polygon fill="white" stroke="black" points="258.5,-56.5 258.5,-75.5 305.5,-75.5 305.5,-56.5 258.5,-56.5"/>
<text text-anchor="middle" x="282" y="-63.5" font-family="Helvetica,sans-Serif" font-size="10.00">types.h</text>
</a>
</g>
</g>
<!-- Node4&#45;&gt;Node5 -->
<g id="edge4" class="edge">
<title>Node4&#45;&gt;Node5</title>
<path fill="none" stroke="midnightblue" d="M301.2,-112.08C298.09,-104.77 293.58,-94.18 289.71,-85.1"/>
<polygon fill="midnightblue" stroke="midnightblue" points="292.87,-83.58 285.73,-75.75 286.43,-86.32 292.87,-83.58"/>
</g>
<!-- Node6 -->
<g id="node6" class="node">
<title>Node6</title>
<g id="a_node6"><a xlink:title=" ">
<polygon fill="white" stroke="#bfbfbf" points="256.5,-0.5 256.5,-19.5 307.5,-19.5 307.5,-0.5 256.5,-0.5"/>
<text text-anchor="middle" x="282" y="-7.5" font-family="Helvetica,sans-Serif" font-size="10.00">stddef.h</text>
</a>
</g>
</g>
<!-- Node5&#45;&gt;Node6 -->
<g id="edge5" class="edge">
<title>Node5&#45;&gt;Node6</title>
<path fill="none" stroke="midnightblue" d="M282,-56.08C282,-49.01 282,-38.86 282,-29.99"/>
<polygon fill="midnightblue" stroke="midnightblue" points="285.5,-29.75 282,-19.75 278.5,-29.75 285.5,-29.75"/>
</g>
<!-- Node5&#45;&gt;Node7 -->
<g id="edge6" class="edge">
<title>Node5&#45;&gt;Node7</title>
<path fill="none" stroke="midnightblue" d="M258.14,-59.32C219.96,-50.24 144.63,-32.32 97.21,-21.04"/>
<polygon fill="midnightblue" stroke="midnightblue" points="97.78,-17.58 87.24,-18.67 96.16,-24.39 97.78,-17.58"/>
</g>
<!-- Node8&#45;&gt;Node3 -->
<g id="edge10" class="edge">
<title>Node8&#45;&gt;Node3</title>
<path fill="none" stroke="midnightblue" d="M69.78,-168.32C84.27,-159.82 106.57,-146.73 123.49,-136.8"/>
<polygon fill="midnightblue" stroke="midnightblue" points="125.4,-139.74 132.26,-131.65 121.86,-133.7 125.4,-139.74"/>
</g>
<!-- Node8&#45;&gt;Node4 -->
<g id="edge9" class="edge">
<title>Node8&#45;&gt;Node4</title>
<path fill="none" stroke="midnightblue" d="M82.1,-170.11C85.1,-169.38 88.11,-168.66 91,-168 157.91,-152.61 237.08,-136.51 277.79,-128.38"/>
<polygon fill="midnightblue" stroke="midnightblue" points="278.63,-131.78 287.75,-126.4 277.26,-124.92 278.63,-131.78"/>
</g>
<!-- Node8&#45;&gt;Node5 -->
<g id="edge8" class="edge">
<title>Node8&#45;&gt;Node5</title>
<path fill="none" stroke="midnightblue" d="M60.13,-168.38C68.93,-154.36 88.27,-126.71 112,-112 154.51,-85.65 212.24,-74.6 248.29,-70.05"/>
<polygon fill="midnightblue" stroke="midnightblue" points="248.77,-73.52 258.3,-68.89 247.96,-66.57 248.77,-73.52"/>
</g>
<!-- Node9 -->
<g id="node9" class="node">
<title>Node9</title>
<g id="a_node9"><a xlink:href="setjmp_8h.html" target="_top" xlink:title=" ">
<polygon fill="white" stroke="black" points="28.5,-56.5 28.5,-75.5 81.5,-75.5 81.5,-56.5 28.5,-56.5"/>
<text text-anchor="middle" x="55" y="-63.5" font-family="Helvetica,sans-Serif" font-size="10.00">setjmp.h</text>
</a>
</g>
</g>
<!-- Node8&#45;&gt;Node9 -->
<g id="edge11" class="edge">
<title>Node8&#45;&gt;Node9</title>
<path fill="none" stroke="midnightblue" d="M55,-168.37C55,-150.62 55,-109.67 55,-85.6"/>
<polygon fill="midnightblue" stroke="midnightblue" points="58.5,-85.59 55,-75.59 51.5,-85.59 58.5,-85.59"/>
</g>
<!-- Node9&#45;&gt;Node7 -->
<g id="edge12" class="edge">
<title>Node9&#45;&gt;Node7</title>
<path fill="none" stroke="midnightblue" d="M55,-56.08C55,-49.01 55,-38.86 55,-29.99"/>
<polygon fill="midnightblue" stroke="midnightblue" points="58.5,-29.75 55,-19.75 51.5,-29.75 58.5,-29.75"/>
</g>
<!-- Node10&#45;&gt;Node4 -->
<g id="edge16" class="edge">
<title>Node10&#45;&gt;Node4</title>
<path fill="none" stroke="midnightblue" d="M342.57,-168.08C336.15,-160.38 326.69,-149.03 318.88,-139.65"/>
<polygon fill="midnightblue" stroke="midnightblue" points="321.38,-137.19 312.29,-131.75 316.01,-141.67 321.38,-137.19"/>
</g>
<!-- Node10&#45;&gt;Node5 -->
<g id="edge15" class="edge">
<title>Node10&#45;&gt;Node5</title>
<path fill="none" stroke="midnightblue" d="M348.99,-168.4C347.13,-155.36 342.3,-130.17 331,-112 323.74,-100.32 312.63,-89.76 302.82,-81.82"/>
<polygon fill="midnightblue" stroke="midnightblue" points="304.73,-78.87 294.67,-75.54 300.46,-84.42 304.73,-78.87"/>
</g>
<!-- Node13&#45;&gt;Node4 -->
<g id="edge21" class="edge">
<title>Node13&#45;&gt;Node4</title>
<path fill="none" stroke="midnightblue" d="M405.99,-168.44C385.95,-159.43 354.24,-145.16 331.7,-135.02"/>
<polygon fill="midnightblue" stroke="midnightblue" points="332.92,-131.73 322.37,-130.82 330.05,-138.11 332.92,-131.73"/>
</g>
<!-- Node13&#45;&gt;Node5 -->
<g id="edge20" class="edge">
<title>Node13&#45;&gt;Node5</title>
<path fill="none" stroke="midnightblue" d="M415.63,-168.17C401.75,-155.27 374.7,-130.75 350,-112 335.43,-100.94 318.25,-89.58 304.8,-81.05"/>
<polygon fill="midnightblue" stroke="midnightblue" points="306.5,-77.98 296.17,-75.62 302.78,-83.91 306.5,-77.98"/>
</g>
<!-- Node14&#45;&gt;Node4 -->
<g id="edge24" class="edge">
<title>Node14&#45;&gt;Node4</title>
<path fill="none" stroke="midnightblue" d="M473.64,-169.94C436.93,-159.72 369.3,-140.9 331.8,-130.46"/>
<polygon fill="midnightblue" stroke="midnightblue" points="332.65,-127.06 322.08,-127.75 330.77,-133.81 332.65,-127.06"/>
</g>
<!-- Node14&#45;&gt;Node5 -->
<g id="edge23" class="edge">
<title>Node14&#45;&gt;Node5</title>
<path fill="none" stroke="midnightblue" d="M483.18,-168.38C459.87,-155.74 414.83,-131.55 376,-112 353.84,-100.85 328.46,-88.73 309.66,-79.89"/>
<polygon fill="midnightblue" stroke="midnightblue" points="311.02,-76.66 300.48,-75.58 308.04,-83 311.02,-76.66"/>
</g>
<!-- Node15 -->
<g id="node15" class="node">
<title>Node15</title>
<g id="a_node15"><a xlink:href="io__common_8h.html" target="_top" xlink:title=" ">
<polygon fill="white" stroke="black" points="462,-112.5 462,-131.5 536,-131.5 536,-112.5 462,-112.5"/>
<text text-anchor="middle" x="499" y="-119.5" font-family="Helvetica,sans-Serif" font-size="10.00">io_common.h</text>
</a>
</g>
</g>
<!-- Node14&#45;&gt;Node15 -->
<g id="edge25" class="edge">
<title>Node14&#45;&gt;Node15</title>
<path fill="none" stroke="midnightblue" d="M499,-168.08C499,-161.01 499,-150.86 499,-141.99"/>
<polygon fill="midnightblue" stroke="midnightblue" points="502.5,-141.75 499,-131.75 495.5,-141.75 502.5,-141.75"/>
</g>
<!-- Node16 -->
<g id="node16" class="node">
<title>Node16</title>
<g id="a_node16"><a xlink:href="fcntl_8h_source.html" target="_top" xlink:title=" ">
<polygon fill="white" stroke="black" points="426.5,-56.5 426.5,-75.5 487.5,-75.5 487.5,-56.5 426.5,-56.5"/>
<text text-anchor="middle" x="457" y="-63.5" font-family="Helvetica,sans-Serif" font-size="10.00">sys/fcntl.h</text>
</a>
</g>
</g>
<!-- Node15&#45;&gt;Node16 -->
<g id="edge26" class="edge">
<title>Node15&#45;&gt;Node16</title>
<path fill="none" stroke="midnightblue" d="M492.06,-112.08C486.07,-104.38 477.25,-93.03 469.95,-83.65"/>
<polygon fill="midnightblue" stroke="midnightblue" points="472.71,-81.5 463.81,-75.75 467.18,-85.79 472.71,-81.5"/>
</g>
<!-- Node17 -->
<g id="node17" class="node">
<title>Node17</title>
<g id="a_node17"><a xlink:href="unistd_8h_source.html" target="_top" xlink:title=" ">
<polygon fill="white" stroke="black" points="506,-56.5 506,-75.5 574,-75.5 574,-56.5 506,-56.5"/>
<text text-anchor="middle" x="540" y="-63.5" font-family="Helvetica,sans-Serif" font-size="10.00">sys/unistd.h</text>
</a>
</g>
</g>
<!-- Node15&#45;&gt;Node17 -->
<g id="edge27" class="edge">
<title>Node15&#45;&gt;Node17</title>
<path fill="none" stroke="midnightblue" d="M505.77,-112.08C511.56,-104.46 520.06,-93.26 527.14,-83.94"/>
<polygon fill="midnightblue" stroke="midnightblue" points="530.1,-85.83 533.36,-75.75 524.52,-81.6 530.1,-85.83"/>
</g>
<!-- Node18&#45;&gt;Node4 -->
<g id="edge30" class="edge">
<title>Node18&#45;&gt;Node4</title>
<path fill="none" stroke="midnightblue" d="M542.33,-170.39C539.21,-169.54 536.03,-168.72 533,-168 461.01,-150.8 375.11,-135.14 332.21,-127.65"/>
<polygon fill="midnightblue" stroke="midnightblue" points="332.71,-124.18 322.26,-125.92 331.52,-131.08 332.71,-124.18"/>
</g>
<!-- Node19 -->
<g id="node19" class="node">
<title>Node19</title>
<g id="a_node19"><a xlink:title=" ">
<polygon fill="white" stroke="#bfbfbf" points="576.5,-112.5 576.5,-131.5 623.5,-131.5 623.5,-112.5 576.5,-112.5"/>
<text text-anchor="middle" x="600" y="-119.5" font-family="Helvetica,sans-Serif" font-size="10.00">types.h</text>
</a>
</g>
</g>
<!-- Node18&#45;&gt;Node19 -->
<g id="edge29" class="edge">
<title>Node18&#45;&gt;Node19</title>
<path fill="none" stroke="midnightblue" d="M570.78,-168.08C575.67,-160.53 582.83,-149.49 588.83,-140.23"/>
<polygon fill="midnightblue" stroke="midnightblue" points="591.83,-142.05 594.33,-131.75 585.95,-138.24 591.83,-142.05"/>
</g>
<!-- Node20&#45;&gt;Node18 -->
<g id="edge32" class="edge">
<title>Node20&#45;&gt;Node18</title>
<path fill="none" stroke="midnightblue" d="M508.76,-224.32C518.77,-216.26 533.89,-204.08 545.93,-194.37"/>
<polygon fill="midnightblue" stroke="midnightblue" points="548.45,-196.83 554.04,-187.83 544.06,-191.38 548.45,-196.83"/>
</g>
<!-- Node21&#45;&gt;Node4 -->
<g id="edge35" class="edge">
<title>Node21&#45;&gt;Node4</title>
<path fill="none" stroke="midnightblue" d="M279.12,-168.08C283.41,-160.61 289.66,-149.72 294.94,-140.52"/>
<polygon fill="midnightblue" stroke="midnightblue" points="298.03,-142.17 299.98,-131.75 291.96,-138.68 298.03,-142.17"/>
</g>
<!-- Node21&#45;&gt;Node5 -->
<g id="edge34" class="edge">
<title>Node21&#45;&gt;Node5</title>
<path fill="none" stroke="midnightblue" d="M274.63,-168.37C275.92,-150.62 278.9,-109.67 280.65,-85.6"/>
<polygon fill="midnightblue" stroke="midnightblue" points="284.14,-85.82 281.38,-75.59 277.16,-85.31 284.14,-85.82"/>
</g>
<!-- Node22&#45;&gt;Node3 -->
<g id="edge39" class="edge">
<title>Node22&#45;&gt;Node3</title>
<path fill="none" stroke="midnightblue" d="M186.24,-168.08C179.46,-160.3 169.46,-148.8 161.24,-139.37"/>
<polygon fill="midnightblue" stroke="midnightblue" points="163.82,-137 154.62,-131.75 158.54,-141.59 163.82,-137"/>
</g>
<!-- Node22&#45;&gt;Node4 -->
<g id="edge38" class="edge">
<title>Node22&#45;&gt;Node4</title>
<path fill="none" stroke="midnightblue" d="M211.83,-168.32C229.93,-159.52 258.13,-145.8 278.77,-135.76"/>
<polygon fill="midnightblue" stroke="midnightblue" points="280.48,-138.82 287.94,-131.3 277.42,-132.53 280.48,-138.82"/>
</g>
<!-- Node22&#45;&gt;Node5 -->
<g id="edge37" class="edge">
<title>Node22&#45;&gt;Node5</title>
<path fill="none" stroke="midnightblue" d="M200.91,-168.37C215.49,-150.14 249.66,-107.43 268.66,-83.68"/>
<polygon fill="midnightblue" stroke="midnightblue" points="271.61,-85.59 275.13,-75.59 266.15,-81.21 271.61,-85.59"/>
</g>
<!-- Node23&#45;&gt;Node19 -->
<g id="edge41" class="edge">
<title>Node23&#45;&gt;Node19</title>
<path fill="none" stroke="midnightblue" d="M621.2,-224.37C617.48,-206.62 608.92,-165.67 603.89,-141.6"/>
<polygon fill="midnightblue" stroke="midnightblue" points="607.27,-140.66 601.8,-131.59 600.42,-142.1 607.27,-140.66"/>
</g>
</g>
</svg>
        <g id="navigator" transform="translate(0 0)" fill="#404254">
                <rect fill="#f2f5e9" fill-opacity="0.5" stroke="#606060" stroke-width=".5" x="0" y="0" width="60" height="60"/>
                <use id="zoomplus" xlink:href="#zoomPlus" x="17" y="9" onmousedown="handleZoom(evt,'in')"/>
                <use id="zoomminus" xlink:href="#zoomMin" x="42" y="9" onmousedown="handleZoom(evt,'out')"/>
                <use id="reset" xlink:href="#resetDef" x="30" y="36" onmousedown="handleReset()"/>
                <g id="arrowUp" xlink:href="#dirArrow" transform="translate(30 24)" onmousedown="handlePan(0,-1)">
                  <use xlink:href="#rim" fill="#404040">
                        <set attributeName="fill" to="#808080" begin="arrowUp.mouseover" end="arrowUp.mouseout"/>
                  </use>
                  <path fill="none" stroke="white" stroke-width="1.5" d="M0,-3.0v7 M-2.5,-0.5L0,-3.0L2.5,-0.5"/>
                </g>
                <g id="arrowRight" xlink:href="#dirArrow" transform="rotate(90) translate(36 -43)" onmousedown="handlePan(1,0)">
                  <use xlink:href="#rim" fill="#404040">
                        <set attributeName="fill" to="#808080" begin="arrowRight.mouseover" end="arrowRight.mouseout"/>
                  </use>
                  <path fill="none" stroke="white" stroke-width="1.5" d="M0,-3.0v7 M-2.5,-0.5L0,-3.0L2.5,-0.5"/>
                </g>
                <g id="arrowDown" xlink:href="#dirArrow" transform="rotate(180) translate(-30 -48)" onmousedown="handlePan(0,1)">
                  <use xlink:href="#rim" fill="#404040">
                        <set attributeName="fill" to="#808080" begin="arrowDown.mouseover" end="arrowDown.mouseout"/>
                  </use>
                  <path fill="none" stroke="white" stroke-width="1.5" d="M0,-3.0v7 M-2.5,-0.5L0,-3.0L2.5,-0.5"/>
                </g>
                <g id="arrowLeft" xlink:href="#dirArrow" transform="rotate(270) translate(-36 17)" onmousedown="handlePan(-1,0)">
                  <use xlink:href="#rim" fill="#404040">
                        <set attributeName="fill" to="#808080" begin="arrowLeft.mouseover" end="arrowLeft.mouseout"/>
                  </use>
                  <path fill="none" stroke="white" stroke-width="1.5" d="M0,-3.0v7 M-2.5,-0.5L0,-3.0L2.5,-0.5"/>
                </g>
        </g>
        <svg viewBox="0 0 15 15" width="100%" height="30px" preserveAspectRatio="xMaxYMin meet">
         <g id="arrow_out" transform="scale(0.3 0.3)">
          <a xlink:href="ps2cam_8c__incl_org.svg" target="_base">
           <rect id="button" ry="5" rx="5" y="6" x="6" height="38" width="38"
                fill="#f2f5e9" fill-opacity="0.5" stroke="#606060" stroke-width="1.0"/>
           <path id="arrow"
             d="M 11.500037,31.436501 C 11.940474,20.09759 22.043105,11.32322 32.158766,21.979434 L 37.068811,17.246167 C 37.068811,17.246167 37.088388,32 37.088388,32 L 22.160133,31.978069 C 22.160133,31.978069 26.997745,27.140456 26.997745,27.140456 C 18.528582,18.264221 13.291696,25.230495 11.500037,31.436501 z"
             style="fill:#404040;"/>
          </a>
         </g>
        </svg>
</svg>
