<?xml version="1.0" encoding="UTF-8" standalone="no"?>
<!DOCTYPE svg PUBLIC "-//W3C//DTD SVG 1.1//EN"
 "http://www.w3.org/Graphics/SVG/1.1/DTD/svg11.dtd">
<!-- Generated by graphviz version 2.46.1 (20210215.1649)
 -->
<!-- Title: ee/rpc/tcpips/src/ps2ipc.c Pages: 1 -->
<svg width="499pt" height="308pt"
 viewBox="0.00 0.00 498.83 308.00" xmlns="http://www.w3.org/2000/svg" xmlns:xlink="http://www.w3.org/1999/xlink">
<g id="graph0" class="graph" transform="scale(1 1) rotate(0) translate(4 304)">
<title>ee/rpc/tcpips/src/ps2ipc.c</title>
<polygon fill="white" stroke="transparent" points="-4,4 -4,-304 494.83,-304 494.83,4 -4,4"/>
<!-- Node1 -->
<g id="node1" class="node">
<title>Node1</title>
<g id="a_node1"><a xlink:title=" ">
<polygon fill="#bfbfbf" stroke="black" points="256.83,-280.5 256.83,-299.5 384.83,-299.5 384.83,-280.5 256.83,-280.5"/>
<text text-anchor="middle" x="320.83" y="-287.5" font-family="Helvetica,sans-Serif" font-size="10.00">ee/rpc/tcpips/src/ps2ipc.c</text>
</a>
</g>
</g>
<!-- Node2 -->
<g id="node2" class="node">
<title>Node2</title>
<g id="a_node2"><a xlink:href="tamtypes_8h.html" target="_top" xlink:title=" ">
<polygon fill="white" stroke="black" points="187.83,-0.5 187.83,-19.5 251.83,-19.5 251.83,-0.5 187.83,-0.5"/>
<text text-anchor="middle" x="219.83" y="-7.5" font-family="Helvetica,sans-Serif" font-size="10.00">tamtypes.h</text>
</a>
</g>
</g>
<!-- Node1&#45;&gt;Node2 -->
<g id="edge1" class="edge">
<title>Node1&#45;&gt;Node2</title>
<path fill="none" stroke="midnightblue" d="M343.63,-280.35C360.08,-273.02 381.62,-260.97 394.83,-244 413.39,-220.15 414.83,-209.23 414.83,-179 414.83,-179 414.83,-179 414.83,-121 414.83,-51.48 319.63,-25.4 262.27,-16.01"/>
<polygon fill="midnightblue" stroke="midnightblue" points="262.44,-12.49 252.03,-14.44 261.38,-19.41 262.44,-12.49"/>
</g>
<!-- Node3 -->
<g id="node3" class="node">
<title>Node3</title>
<g id="a_node3"><a xlink:href="string_8h_source.html" target="_top" xlink:title=" ">
<polygon fill="white" stroke="black" points="168.83,-224.5 168.83,-243.5 216.83,-243.5 216.83,-224.5 168.83,-224.5"/>
<text text-anchor="middle" x="192.83" y="-231.5" font-family="Helvetica,sans-Serif" font-size="10.00">string.h</text>
</a>
</g>
</g>
<!-- Node1&#45;&gt;Node3 -->
<g id="edge2" class="edge">
<title>Node1&#45;&gt;Node3</title>
<path fill="none" stroke="midnightblue" d="M300.55,-280.44C279.48,-271.56 246.31,-257.56 222.34,-247.45"/>
<polygon fill="midnightblue" stroke="midnightblue" points="223.59,-244.18 213.01,-243.52 220.87,-250.63 223.59,-244.18"/>
</g>
<!-- Node10 -->
<g id="node10" class="node">
<title>Node10</title>
<g id="a_node10"><a xlink:href="kernel_8h.html" target="_top" xlink:title=" ">
<polygon fill="white" stroke="black" points="13.83,-168.5 13.83,-187.5 63.83,-187.5 63.83,-168.5 13.83,-168.5"/>
<text text-anchor="middle" x="38.83" y="-175.5" font-family="Helvetica,sans-Serif" font-size="10.00">kernel.h</text>
</a>
</g>
</g>
<!-- Node1&#45;&gt;Node10 -->
<g id="edge12" class="edge">
<title>Node1&#45;&gt;Node10</title>
<path fill="none" stroke="midnightblue" d="M280.98,-280.45C247.9,-272.74 199.94,-260.15 159.83,-244 123.89,-229.53 84.85,-207.26 61.1,-192.9"/>
<polygon fill="midnightblue" stroke="midnightblue" points="62.86,-189.87 52.5,-187.64 59.2,-195.85 62.86,-189.87"/>
</g>
<!-- Node12 -->
<g id="node12" class="node">
<title>Node12</title>
<g id="a_node12"><a xlink:title=" ">
<polygon fill="white" stroke="#bfbfbf" points="442.83,-224.5 442.83,-243.5 490.83,-243.5 490.83,-224.5 442.83,-224.5"/>
<text text-anchor="middle" x="466.83" y="-231.5" font-family="Helvetica,sans-Serif" font-size="10.00">sifrpc.h</text>
</a>
</g>
</g>
<!-- Node1&#45;&gt;Node12 -->
<g id="edge17" class="edge">
<title>Node1&#45;&gt;Node12</title>
<path fill="none" stroke="midnightblue" d="M343.96,-280.44C368.31,-271.44 406.83,-257.19 434.25,-247.05"/>
<polygon fill="midnightblue" stroke="midnightblue" points="435.64,-250.27 443.8,-243.52 433.21,-243.7 435.64,-250.27"/>
</g>
<!-- Node13 -->
<g id="node13" class="node">
<title>Node13</title>
<g id="a_node13"><a xlink:href="ps2ips_8h.html" target="_top" xlink:title=" ">
<polygon fill="white" stroke="black" points="333.33,-224.5 333.33,-243.5 386.33,-243.5 386.33,-224.5 333.33,-224.5"/>
<text text-anchor="middle" x="359.83" y="-231.5" font-family="Helvetica,sans-Serif" font-size="10.00">ps2ips.h</text>
</a>
</g>
</g>
<!-- Node1&#45;&gt;Node13 -->
<g id="edge18" class="edge">
<title>Node1&#45;&gt;Node13</title>
<path fill="none" stroke="midnightblue" d="M327.27,-280.08C332.78,-272.46 340.86,-261.26 347.59,-251.94"/>
<polygon fill="midnightblue" stroke="midnightblue" points="350.49,-253.91 353.51,-243.75 344.81,-249.81 350.49,-253.91"/>
</g>
<!-- Node16 -->
<g id="node16" class="node">
<title>Node16</title>
<g id="a_node16"><a xlink:href="ps2ip__rpc_8h.html" target="_top" xlink:title=" ">
<polygon fill="white" stroke="black" points="248.83,-224.5 248.83,-243.5 314.83,-243.5 314.83,-224.5 248.83,-224.5"/>
<text text-anchor="middle" x="281.83" y="-231.5" font-family="Helvetica,sans-Serif" font-size="10.00">ps2ip_rpc.h</text>
</a>
</g>
</g>
<!-- Node1&#45;&gt;Node16 -->
<g id="edge22" class="edge">
<title>Node1&#45;&gt;Node16</title>
<path fill="none" stroke="midnightblue" d="M314.39,-280.08C308.88,-272.46 300.8,-261.26 294.06,-251.94"/>
<polygon fill="midnightblue" stroke="midnightblue" points="296.84,-249.81 288.15,-243.75 291.16,-253.91 296.84,-249.81"/>
</g>
<!-- Node4 -->
<g id="node4" class="node">
<title>Node4</title>
<g id="a_node4"><a xlink:href="sysclib_8h.html" target="_top" xlink:title=" ">
<polygon fill="white" stroke="black" points="137.83,-168.5 137.83,-187.5 191.83,-187.5 191.83,-168.5 137.83,-168.5"/>
<text text-anchor="middle" x="164.83" y="-175.5" font-family="Helvetica,sans-Serif" font-size="10.00">sysclib.h</text>
</a>
</g>
</g>
<!-- Node3&#45;&gt;Node4 -->
<g id="edge3" class="edge">
<title>Node3&#45;&gt;Node4</title>
<path fill="none" stroke="midnightblue" d="M188.2,-224.08C184.37,-216.69 178.8,-205.95 174.06,-196.81"/>
<polygon fill="midnightblue" stroke="midnightblue" points="177.07,-195.02 169.36,-187.75 170.86,-198.24 177.07,-195.02"/>
</g>
<!-- Node5 -->
<g id="node5" class="node">
<title>Node5</title>
<g id="a_node5"><a xlink:href="types_8h_source.html" target="_top" xlink:title=" ">
<polygon fill="white" stroke="black" points="98.33,-56.5 98.33,-75.5 145.33,-75.5 145.33,-56.5 98.33,-56.5"/>
<text text-anchor="middle" x="121.83" y="-63.5" font-family="Helvetica,sans-Serif" font-size="10.00">types.h</text>
</a>
</g>
</g>
<!-- Node4&#45;&gt;Node5 -->
<g id="edge4" class="edge">
<title>Node4&#45;&gt;Node5</title>
<path fill="none" stroke="midnightblue" d="M158.92,-168.4C153.1,-159.59 144.31,-145.35 138.83,-132 132.59,-116.83 128.08,-98.71 125.27,-85.46"/>
<polygon fill="midnightblue" stroke="midnightblue" points="128.71,-84.77 123.32,-75.65 121.84,-86.14 128.71,-84.77"/>
</g>
<!-- Node7 -->
<g id="node7" class="node">
<title>Node7</title>
<g id="a_node7"><a xlink:href="irx_8h.html" target="_top" xlink:title=" ">
<polygon fill="white" stroke="black" points="147.83,-112.5 147.83,-131.5 181.83,-131.5 181.83,-112.5 147.83,-112.5"/>
<text text-anchor="middle" x="164.83" y="-119.5" font-family="Helvetica,sans-Serif" font-size="10.00">irx.h</text>
</a>
</g>
</g>
<!-- Node4&#45;&gt;Node7 -->
<g id="edge7" class="edge">
<title>Node4&#45;&gt;Node7</title>
<path fill="none" stroke="midnightblue" d="M164.83,-168.08C164.83,-161.01 164.83,-150.86 164.83,-141.99"/>
<polygon fill="midnightblue" stroke="midnightblue" points="168.33,-141.75 164.83,-131.75 161.33,-141.75 168.33,-141.75"/>
</g>
<!-- Node8 -->
<g id="node8" class="node">
<title>Node8</title>
<g id="a_node8"><a xlink:title=" ">
<polygon fill="white" stroke="#bfbfbf" points="40.33,-112.5 40.33,-131.5 91.33,-131.5 91.33,-112.5 40.33,-112.5"/>
<text text-anchor="middle" x="65.83" y="-119.5" font-family="Helvetica,sans-Serif" font-size="10.00">stdarg.h</text>
</a>
</g>
</g>
<!-- Node4&#45;&gt;Node8 -->
<g id="edge9" class="edge">
<title>Node4&#45;&gt;Node8</title>
<path fill="none" stroke="midnightblue" d="M148.92,-168.32C133.19,-159.74 108.88,-146.49 90.62,-136.52"/>
<polygon fill="midnightblue" stroke="midnightblue" points="92.15,-133.37 81.69,-131.65 88.8,-139.52 92.15,-133.37"/>
</g>
<!-- Node9 -->
<g id="node9" class="node">
<title>Node9</title>
<g id="a_node9"><a xlink:href="setjmp_8h.html" target="_top" xlink:title=" ">
<polygon fill="white" stroke="black" points="166.33,-56.5 166.33,-75.5 219.33,-75.5 219.33,-56.5 166.33,-56.5"/>
<text text-anchor="middle" x="192.83" y="-63.5" font-family="Helvetica,sans-Serif" font-size="10.00">setjmp.h</text>
</a>
</g>
</g>
<!-- Node4&#45;&gt;Node9 -->
<g id="edge10" class="edge">
<title>Node4&#45;&gt;Node9</title>
<path fill="none" stroke="midnightblue" d="M171.62,-168.29C177.93,-159.64 186.92,-145.71 190.83,-132 195.13,-116.88 195.34,-98.98 194.64,-85.8"/>
<polygon fill="midnightblue" stroke="midnightblue" points="198.12,-85.32 193.87,-75.62 191.14,-85.85 198.12,-85.32"/>
</g>
<!-- Node5&#45;&gt;Node2 -->
<g id="edge6" class="edge">
<title>Node5&#45;&gt;Node2</title>
<path fill="none" stroke="midnightblue" d="M137.57,-56.32C153.15,-47.74 177.2,-34.49 195.29,-24.52"/>
<polygon fill="midnightblue" stroke="midnightblue" points="197.05,-27.55 204.12,-19.65 193.67,-21.42 197.05,-27.55"/>
</g>
<!-- Node6 -->
<g id="node6" class="node">
<title>Node6</title>
<g id="a_node6"><a xlink:title=" ">
<polygon fill="white" stroke="#bfbfbf" points="47.33,-0.5 47.33,-19.5 98.33,-19.5 98.33,-0.5 47.33,-0.5"/>
<text text-anchor="middle" x="72.83" y="-7.5" font-family="Helvetica,sans-Serif" font-size="10.00">stddef.h</text>
</a>
</g>
</g>
<!-- Node5&#45;&gt;Node6 -->
<g id="edge5" class="edge">
<title>Node5&#45;&gt;Node6</title>
<path fill="none" stroke="midnightblue" d="M113.74,-56.08C106.67,-48.3 96.24,-36.8 87.68,-27.37"/>
<polygon fill="midnightblue" stroke="midnightblue" points="90.08,-24.8 80.77,-19.75 84.9,-29.51 90.08,-24.8"/>
</g>
<!-- Node7&#45;&gt;Node5 -->
<g id="edge8" class="edge">
<title>Node7&#45;&gt;Node5</title>
<path fill="none" stroke="midnightblue" d="M157.73,-112.08C151.59,-104.38 142.56,-93.03 135.09,-83.65"/>
<polygon fill="midnightblue" stroke="midnightblue" points="137.76,-81.39 128.8,-75.75 132.29,-85.75 137.76,-81.39"/>
</g>
<!-- Node9&#45;&gt;Node2 -->
<g id="edge11" class="edge">
<title>Node9&#45;&gt;Node2</title>
<path fill="none" stroke="midnightblue" d="M197.29,-56.08C200.98,-48.69 206.35,-37.95 210.92,-28.81"/>
<polygon fill="midnightblue" stroke="midnightblue" points="214.11,-30.26 215.45,-19.75 207.85,-27.13 214.11,-30.26"/>
</g>
<!-- Node10&#45;&gt;Node6 -->
<g id="edge13" class="edge">
<title>Node10&#45;&gt;Node6</title>
<path fill="none" stroke="midnightblue" d="M32.42,-168.3C18.1,-147.71 -13.68,-94.81 6.83,-56 14.25,-41.95 28.25,-31.47 41.45,-24.17"/>
<polygon fill="midnightblue" stroke="midnightblue" points="43.05,-27.28 50.37,-19.62 39.87,-21.04 43.05,-27.28"/>
</g>
<!-- Node10&#45;&gt;Node8 -->
<g id="edge14" class="edge">
<title>Node10&#45;&gt;Node8</title>
<path fill="none" stroke="midnightblue" d="M43.29,-168.08C46.98,-160.69 52.35,-149.95 56.92,-140.81"/>
<polygon fill="midnightblue" stroke="midnightblue" points="60.11,-142.26 61.45,-131.75 53.85,-139.13 60.11,-142.26"/>
</g>
<!-- Node11 -->
<g id="node11" class="node">
<title>Node11</title>
<g id="a_node11"><a xlink:href="sifdma_8h.html" target="_top" xlink:title=" ">
<polygon fill="white" stroke="black" points="16.33,-56.5 16.33,-75.5 69.33,-75.5 69.33,-56.5 16.33,-56.5"/>
<text text-anchor="middle" x="42.83" y="-63.5" font-family="Helvetica,sans-Serif" font-size="10.00">sifdma.h</text>
</a>
</g>
</g>
<!-- Node10&#45;&gt;Node11 -->
<g id="edge15" class="edge">
<title>Node10&#45;&gt;Node11</title>
<path fill="none" stroke="midnightblue" d="M36.32,-168.16C33.09,-155.65 28.2,-132.07 30.83,-112 31.98,-103.18 34.36,-93.63 36.7,-85.61"/>
<polygon fill="midnightblue" stroke="midnightblue" points="40.11,-86.42 39.74,-75.83 33.43,-84.34 40.11,-86.42"/>
</g>
<!-- Node11&#45;&gt;Node2 -->
<g id="edge16" class="edge">
<title>Node11&#45;&gt;Node2</title>
<path fill="none" stroke="midnightblue" d="M69.71,-56.8C99.6,-47.68 148.09,-32.88 181.85,-22.59"/>
<polygon fill="midnightblue" stroke="midnightblue" points="183.27,-25.81 191.81,-19.55 181.23,-19.12 183.27,-25.81"/>
</g>
<!-- Node14 -->
<g id="node14" class="node">
<title>Node14</title>
<g id="a_node14"><a xlink:href="tcpip_8h.html" target="_top" xlink:title=" ">
<polygon fill="white" stroke="black" points="341.33,-168.5 341.33,-187.5 386.33,-187.5 386.33,-168.5 341.33,-168.5"/>
<text text-anchor="middle" x="363.83" y="-175.5" font-family="Helvetica,sans-Serif" font-size="10.00">tcpip.h</text>
</a>
</g>
</g>
<!-- Node13&#45;&gt;Node14 -->
<g id="edge19" class="edge">
<title>Node13&#45;&gt;Node14</title>
<path fill="none" stroke="midnightblue" d="M360.49,-224.08C361.01,-217.01 361.76,-206.86 362.42,-197.99"/>
<polygon fill="midnightblue" stroke="midnightblue" points="365.93,-197.98 363.18,-187.75 358.95,-197.47 365.93,-197.98"/>
</g>
<!-- Node15 -->
<g id="node15" class="node">
<title>Node15</title>
<g id="a_node15"><a xlink:href="time_8h.html" target="_top" xlink:title=" ">
<polygon fill="white" stroke="black" points="262.33,-168.5 262.33,-187.5 323.33,-187.5 323.33,-168.5 262.33,-168.5"/>
<text text-anchor="middle" x="292.83" y="-175.5" font-family="Helvetica,sans-Serif" font-size="10.00">sys/time.h</text>
</a>
</g>
</g>
<!-- Node13&#45;&gt;Node15 -->
<g id="edge21" class="edge">
<title>Node13&#45;&gt;Node15</title>
<path fill="none" stroke="midnightblue" d="M349.06,-224.32C339.06,-216.26 323.94,-204.08 311.9,-194.37"/>
<polygon fill="midnightblue" stroke="midnightblue" points="313.77,-191.38 303.79,-187.83 309.38,-196.83 313.77,-191.38"/>
</g>
<!-- Node14&#45;&gt;Node2 -->
<g id="edge20" class="edge">
<title>Node14&#45;&gt;Node2</title>
<path fill="none" stroke="midnightblue" d="M356.8,-168.37C340.45,-148.34 298.48,-97.31 261.83,-56 253.12,-46.19 243.11,-35.44 235.04,-26.9"/>
<polygon fill="midnightblue" stroke="midnightblue" points="237.44,-24.35 228.01,-19.51 232.36,-29.17 237.44,-24.35"/>
</g>
<!-- Node16&#45;&gt;Node2 -->
<g id="edge23" class="edge">
<title>Node16&#45;&gt;Node2</title>
<path fill="none" stroke="midnightblue" d="M274.72,-224.26C268.03,-215.59 258.25,-201.65 252.83,-188 251.36,-184.3 231.33,-74.39 223.21,-29.66"/>
<polygon fill="midnightblue" stroke="midnightblue" points="226.65,-29.01 221.42,-19.8 219.76,-30.26 226.65,-29.01"/>
</g>
<!-- Node16&#45;&gt;Node14 -->
<g id="edge24" class="edge">
<title>Node16&#45;&gt;Node14</title>
<path fill="none" stroke="midnightblue" d="M295,-224.32C307.67,-215.98 327.06,-203.21 342.03,-193.35"/>
<polygon fill="midnightblue" stroke="midnightblue" points="344.26,-196.08 350.68,-187.65 340.41,-190.23 344.26,-196.08"/>
</g>
<!-- Node16&#45;&gt;Node15 -->
<g id="edge25" class="edge">
<title>Node16&#45;&gt;Node15</title>
<path fill="none" stroke="midnightblue" d="M283.64,-224.08C285.1,-216.93 287.2,-206.64 289.02,-197.69"/>
<polygon fill="midnightblue" stroke="midnightblue" points="292.48,-198.25 291.04,-187.75 285.62,-196.85 292.48,-198.25"/>
</g>
</g>
</svg>
