<?xml version="1.0" encoding="UTF-8" standalone="no"?>
<!DOCTYPE svg PUBLIC "-//W3C//DTD SVG 1.1//EN"
 "http://www.w3.org/Graphics/SVG/1.1/DTD/svg11.dtd">
<!-- Generated by graphviz version 2.46.1 (20210215.1649)
 -->
<!-- Title: iop/tcpip/tcpips/src/ps2ips.c Pages: 1 -->
<svg width="661pt" height="263pt"
 viewBox="0.00 0.00 661.00 263.00" xmlns="http://www.w3.org/2000/svg" xmlns:xlink="http://www.w3.org/1999/xlink">
<g id="graph0" class="graph" transform="scale(1 1) rotate(0) translate(4 259)">
<title>iop/tcpip/tcpips/src/ps2ips.c</title>
<polygon fill="white" stroke="transparent" points="-4,4 -4,-259 657,-259 657,4 -4,4"/>
<!-- Node1 -->
<g id="node1" class="node">
<title>Node1</title>
<g id="a_node1"><a xlink:title=" ">
<polygon fill="#bfbfbf" stroke="black" points="298,-224.5 298,-254.5 397,-254.5 397,-224.5 298,-224.5"/>
<text text-anchor="start" x="306" y="-242.5" font-family="Helvetica,sans-Serif" font-size="10.00">iop/tcpip/tcpips/src</text>
<text text-anchor="middle" x="347.5" y="-231.5" font-family="Helvetica,sans-Serif" font-size="10.00">/ps2ips.c</text>
</a>
</g>
</g>
<!-- Node2 -->
<g id="node2" class="node">
<title>Node2</title>
<g id="a_node2"><a xlink:title=" ">
<polygon fill="white" stroke="#bfbfbf" points="0,-168.5 0,-187.5 47,-187.5 47,-168.5 0,-168.5"/>
<text text-anchor="middle" x="23.5" y="-175.5" font-family="Helvetica,sans-Serif" font-size="10.00">types.h</text>
</a>
</g>
</g>
<!-- Node1&#45;&gt;Node2 -->
<g id="edge1" class="edge">
<title>Node1&#45;&gt;Node2</title>
<path fill="none" stroke="midnightblue" d="M297.85,-231.51C241.55,-223.22 146.87,-208.22 57,-188.17"/>
<polygon fill="midnightblue" stroke="midnightblue" points="57.72,-184.74 47.2,-185.96 56.18,-191.57 57.72,-184.74"/>
</g>
<!-- Node3 -->
<g id="node3" class="node">
<title>Node3</title>
<g id="a_node3"><a xlink:href="loadcore_8h.html" target="_top" xlink:title=" ">
<polygon fill="white" stroke="black" points="282,-168.5 282,-187.5 343,-187.5 343,-168.5 282,-168.5"/>
<text text-anchor="middle" x="312.5" y="-175.5" font-family="Helvetica,sans-Serif" font-size="10.00">loadcore.h</text>
</a>
</g>
</g>
<!-- Node1&#45;&gt;Node3 -->
<g id="edge2" class="edge">
<title>Node1&#45;&gt;Node3</title>
<path fill="none" stroke="midnightblue" d="M339.21,-224.4C334.28,-216.02 327.99,-205.33 322.75,-196.42"/>
<polygon fill="midnightblue" stroke="midnightblue" points="325.68,-194.5 317.59,-187.66 319.65,-198.05 325.68,-194.5"/>
</g>
<!-- Node8 -->
<g id="node8" class="node">
<title>Node8</title>
<g id="a_node8"><a xlink:href="stdio_8h.html" target="_top" xlink:title=" ">
<polygon fill="white" stroke="black" points="361,-168.5 361,-187.5 406,-187.5 406,-168.5 361,-168.5"/>
<text text-anchor="middle" x="383.5" y="-175.5" font-family="Helvetica,sans-Serif" font-size="10.00">stdio.h</text>
</a>
</g>
</g>
<!-- Node1&#45;&gt;Node8 -->
<g id="edge8" class="edge">
<title>Node1&#45;&gt;Node8</title>
<path fill="none" stroke="midnightblue" d="M356.03,-224.4C361.1,-216.02 367.57,-205.33 372.96,-196.42"/>
<polygon fill="midnightblue" stroke="midnightblue" points="376.08,-198.03 378.26,-187.66 370.09,-194.4 376.08,-198.03"/>
</g>
<!-- Node10 -->
<g id="node10" class="node">
<title>Node10</title>
<g id="a_node10"><a xlink:href="sifman_8h.html" target="_top" xlink:title=" ">
<polygon fill="white" stroke="black" points="65,-168.5 65,-187.5 118,-187.5 118,-168.5 65,-168.5"/>
<text text-anchor="middle" x="91.5" y="-175.5" font-family="Helvetica,sans-Serif" font-size="10.00">sifman.h</text>
</a>
</g>
</g>
<!-- Node1&#45;&gt;Node10 -->
<g id="edge11" class="edge">
<title>Node1&#45;&gt;Node10</title>
<path fill="none" stroke="midnightblue" d="M297.82,-227.55C255.16,-218.06 191.77,-203.74 128.05,-188.33"/>
<polygon fill="midnightblue" stroke="midnightblue" points="128.78,-184.91 118.23,-185.95 127.13,-191.71 128.78,-184.91"/>
</g>
<!-- Node11 -->
<g id="node11" class="node">
<title>Node11</title>
<g id="a_node11"><a xlink:title=" ">
<polygon fill="white" stroke="#bfbfbf" points="535,-168.5 535,-187.5 588,-187.5 588,-168.5 535,-168.5"/>
<text text-anchor="middle" x="561.5" y="-175.5" font-family="Helvetica,sans-Serif" font-size="10.00">sifcmd.h</text>
</a>
</g>
</g>
<!-- Node1&#45;&gt;Node11 -->
<g id="edge14" class="edge">
<title>Node1&#45;&gt;Node11</title>
<path fill="none" stroke="midnightblue" d="M397.13,-224.7C436.24,-213.83 489.87,-198.92 525.08,-189.13"/>
<polygon fill="midnightblue" stroke="midnightblue" points="526.24,-192.44 534.94,-186.39 524.37,-185.69 526.24,-192.44"/>
</g>
<!-- Node12 -->
<g id="node12" class="node">
<title>Node12</title>
<g id="a_node12"><a xlink:href="sysclib_8h.html" target="_top" xlink:title=" ">
<polygon fill="white" stroke="black" points="424.5,-168.5 424.5,-187.5 478.5,-187.5 478.5,-168.5 424.5,-168.5"/>
<text text-anchor="middle" x="451.5" y="-175.5" font-family="Helvetica,sans-Serif" font-size="10.00">sysclib.h</text>
</a>
</g>
</g>
<!-- Node1&#45;&gt;Node12 -->
<g id="edge15" class="edge">
<title>Node1&#45;&gt;Node12</title>
<path fill="none" stroke="midnightblue" d="M372.15,-224.4C388.82,-214.86 410.73,-202.32 427.31,-192.84"/>
<polygon fill="midnightblue" stroke="midnightblue" points="429.43,-195.66 436.37,-187.66 425.95,-189.59 429.43,-195.66"/>
</g>
<!-- Node14 -->
<g id="node14" class="node">
<title>Node14</title>
<g id="a_node14"><a xlink:href="thbase_8h.html" target="_top" xlink:title=" ">
<polygon fill="white" stroke="black" points="136,-168.5 136,-187.5 189,-187.5 189,-168.5 136,-168.5"/>
<text text-anchor="middle" x="162.5" y="-175.5" font-family="Helvetica,sans-Serif" font-size="10.00">thbase.h</text>
</a>
</g>
</g>
<!-- Node1&#45;&gt;Node14 -->
<g id="edge21" class="edge">
<title>Node1&#45;&gt;Node14</title>
<path fill="none" stroke="midnightblue" d="M303.66,-224.4C271.69,-214.12 228.88,-200.35 198.82,-190.68"/>
<polygon fill="midnightblue" stroke="midnightblue" points="199.74,-187.3 189.15,-187.57 197.6,-193.96 199.74,-187.3"/>
</g>
<!-- Node15 -->
<g id="node15" class="node">
<title>Node15</title>
<g id="a_node15"><a xlink:href="intrman_8h.html" target="_top" xlink:title=" ">
<polygon fill="white" stroke="black" points="207.5,-168.5 207.5,-187.5 263.5,-187.5 263.5,-168.5 207.5,-168.5"/>
<text text-anchor="middle" x="235.5" y="-175.5" font-family="Helvetica,sans-Serif" font-size="10.00">intrman.h</text>
</a>
</g>
</g>
<!-- Node1&#45;&gt;Node15 -->
<g id="edge24" class="edge">
<title>Node1&#45;&gt;Node15</title>
<path fill="none" stroke="midnightblue" d="M320.96,-224.4C302.84,-214.77 278.96,-202.09 261.06,-192.58"/>
<polygon fill="midnightblue" stroke="midnightblue" points="262.27,-189.26 251.8,-187.66 258.99,-195.44 262.27,-189.26"/>
</g>
<!-- Node16 -->
<g id="node16" class="node">
<title>Node16</title>
<g id="a_node16"><a xlink:title=" ">
<polygon fill="white" stroke="#bfbfbf" points="606,-168.5 606,-187.5 653,-187.5 653,-168.5 606,-168.5"/>
<text text-anchor="middle" x="629.5" y="-175.5" font-family="Helvetica,sans-Serif" font-size="10.00">ps2ip.h</text>
</a>
</g>
</g>
<!-- Node1&#45;&gt;Node16 -->
<g id="edge27" class="edge">
<title>Node1&#45;&gt;Node16</title>
<path fill="none" stroke="midnightblue" d="M397.07,-229.62C445.51,-220.69 521.53,-206 595.8,-188.29"/>
<polygon fill="midnightblue" stroke="midnightblue" points="596.88,-191.63 605.79,-185.88 595.24,-184.82 596.88,-191.63"/>
</g>
<!-- Node17 -->
<g id="node17" class="node">
<title>Node17</title>
<g id="a_node17"><a xlink:href="ps2ip__rpc_8h.html" target="_top" xlink:title=" ">
<polygon fill="white" stroke="black" points="486.5,-112.5 486.5,-131.5 552.5,-131.5 552.5,-112.5 486.5,-112.5"/>
<text text-anchor="middle" x="519.5" y="-119.5" font-family="Helvetica,sans-Serif" font-size="10.00">ps2ip_rpc.h</text>
</a>
</g>
</g>
<!-- Node1&#45;&gt;Node17 -->
<g id="edge28" class="edge">
<title>Node1&#45;&gt;Node17</title>
<path fill="none" stroke="midnightblue" d="M397.33,-230.2C426.48,-223.16 462.37,-210.48 487.5,-188 501.25,-175.7 509.74,-156.17 514.5,-141.72"/>
<polygon fill="midnightblue" stroke="midnightblue" points="517.93,-142.45 517.42,-131.87 511.22,-140.46 517.93,-142.45"/>
</g>
<!-- Node4 -->
<g id="node4" class="node">
<title>Node4</title>
<g id="a_node4"><a xlink:href="types_8h_source.html" target="_top" xlink:title=" ">
<polygon fill="white" stroke="black" points="244,-56.5 244,-75.5 291,-75.5 291,-56.5 244,-56.5"/>
<text text-anchor="middle" x="267.5" y="-63.5" font-family="Helvetica,sans-Serif" font-size="10.00">types.h</text>
</a>
</g>
</g>
<!-- Node3&#45;&gt;Node4 -->
<g id="edge3" class="edge">
<title>Node3&#45;&gt;Node4</title>
<path fill="none" stroke="midnightblue" d="M310.67,-168.36C307.83,-155.69 301.82,-131.46 293.5,-112 289.42,-102.46 283.76,-92.41 278.76,-84.23"/>
<polygon fill="midnightblue" stroke="midnightblue" points="281.63,-82.22 273.33,-75.64 275.71,-85.96 281.63,-82.22"/>
</g>
<!-- Node7 -->
<g id="node7" class="node">
<title>Node7</title>
<g id="a_node7"><a xlink:href="irx_8h.html" target="_top" xlink:title=" ">
<polygon fill="white" stroke="black" points="250.5,-112.5 250.5,-131.5 284.5,-131.5 284.5,-112.5 250.5,-112.5"/>
<text text-anchor="middle" x="267.5" y="-119.5" font-family="Helvetica,sans-Serif" font-size="10.00">irx.h</text>
</a>
</g>
</g>
<!-- Node3&#45;&gt;Node7 -->
<g id="edge6" class="edge">
<title>Node3&#45;&gt;Node7</title>
<path fill="none" stroke="midnightblue" d="M305.07,-168.08C298.65,-160.38 289.19,-149.03 281.38,-139.65"/>
<polygon fill="midnightblue" stroke="midnightblue" points="283.88,-137.19 274.79,-131.75 278.51,-141.67 283.88,-137.19"/>
</g>
<!-- Node5 -->
<g id="node5" class="node">
<title>Node5</title>
<g id="a_node5"><a xlink:title=" ">
<polygon fill="white" stroke="#bfbfbf" points="242,-0.5 242,-19.5 293,-19.5 293,-0.5 242,-0.5"/>
<text text-anchor="middle" x="267.5" y="-7.5" font-family="Helvetica,sans-Serif" font-size="10.00">stddef.h</text>
</a>
</g>
</g>
<!-- Node4&#45;&gt;Node5 -->
<g id="edge4" class="edge">
<title>Node4&#45;&gt;Node5</title>
<path fill="none" stroke="midnightblue" d="M267.5,-56.08C267.5,-49.01 267.5,-38.86 267.5,-29.99"/>
<polygon fill="midnightblue" stroke="midnightblue" points="271,-29.75 267.5,-19.75 264,-29.75 271,-29.75"/>
</g>
<!-- Node6 -->
<g id="node6" class="node">
<title>Node6</title>
<g id="a_node6"><a xlink:href="tamtypes_8h.html" target="_top" xlink:title=" ">
<polygon fill="white" stroke="black" points="400.5,-0.5 400.5,-19.5 464.5,-19.5 464.5,-0.5 400.5,-0.5"/>
<text text-anchor="middle" x="432.5" y="-7.5" font-family="Helvetica,sans-Serif" font-size="10.00">tamtypes.h</text>
</a>
</g>
</g>
<!-- Node4&#45;&gt;Node6 -->
<g id="edge5" class="edge">
<title>Node4&#45;&gt;Node6</title>
<path fill="none" stroke="midnightblue" d="M291.14,-57.26C318.72,-48.24 364.61,-33.22 396.6,-22.75"/>
<polygon fill="midnightblue" stroke="midnightblue" points="398.04,-25.96 406.45,-19.52 395.86,-19.31 398.04,-25.96"/>
</g>
<!-- Node7&#45;&gt;Node4 -->
<g id="edge7" class="edge">
<title>Node7&#45;&gt;Node4</title>
<path fill="none" stroke="midnightblue" d="M267.5,-112.08C267.5,-105.01 267.5,-94.86 267.5,-85.99"/>
<polygon fill="midnightblue" stroke="midnightblue" points="271,-85.75 267.5,-75.75 264,-85.75 271,-85.75"/>
</g>
<!-- Node8&#45;&gt;Node7 -->
<g id="edge10" class="edge">
<title>Node8&#45;&gt;Node7</title>
<path fill="none" stroke="midnightblue" d="M365.12,-168.44C345.95,-159.52 315.72,-145.45 293.98,-135.33"/>
<polygon fill="midnightblue" stroke="midnightblue" points="295.2,-132.04 284.66,-130.99 292.25,-138.38 295.2,-132.04"/>
</g>
<!-- Node9 -->
<g id="node9" class="node">
<title>Node9</title>
<g id="a_node9"><a xlink:title=" ">
<polygon fill="white" stroke="#bfbfbf" points="341,-112.5 341,-131.5 392,-131.5 392,-112.5 341,-112.5"/>
<text text-anchor="middle" x="366.5" y="-119.5" font-family="Helvetica,sans-Serif" font-size="10.00">stdarg.h</text>
</a>
</g>
</g>
<!-- Node8&#45;&gt;Node9 -->
<g id="edge9" class="edge">
<title>Node8&#45;&gt;Node9</title>
<path fill="none" stroke="midnightblue" d="M380.69,-168.08C378.42,-160.85 375.13,-150.41 372.29,-141.4"/>
<polygon fill="midnightblue" stroke="midnightblue" points="375.6,-140.24 369.25,-131.75 368.92,-142.34 375.6,-140.24"/>
</g>
<!-- Node10&#45;&gt;Node4 -->
<g id="edge12" class="edge">
<title>Node10&#45;&gt;Node4</title>
<path fill="none" stroke="midnightblue" d="M105.31,-168.37C135.64,-149.41 208.3,-104 245.19,-80.94"/>
<polygon fill="midnightblue" stroke="midnightblue" points="247.13,-83.86 253.75,-75.59 243.42,-77.92 247.13,-83.86"/>
</g>
<!-- Node10&#45;&gt;Node7 -->
<g id="edge13" class="edge">
<title>Node10&#45;&gt;Node7</title>
<path fill="none" stroke="midnightblue" d="M118.23,-168.8C151.2,-158.68 206.96,-141.57 240.2,-131.38"/>
<polygon fill="midnightblue" stroke="midnightblue" points="241.6,-134.61 250.14,-128.33 239.55,-127.91 241.6,-134.61"/>
</g>
<!-- Node12&#45;&gt;Node4 -->
<g id="edge16" class="edge">
<title>Node12&#45;&gt;Node4</title>
<path fill="none" stroke="midnightblue" d="M446.92,-168.08C439.33,-154.14 422.83,-127.21 401.5,-112 371.25,-90.42 329.91,-78.63 301.18,-72.59"/>
<polygon fill="midnightblue" stroke="midnightblue" points="301.7,-69.13 291.21,-70.62 300.34,-75.99 301.7,-69.13"/>
</g>
<!-- Node12&#45;&gt;Node7 -->
<g id="edge17" class="edge">
<title>Node12&#45;&gt;Node7</title>
<path fill="none" stroke="midnightblue" d="M424.35,-169.03C389.56,-158.82 329.6,-141.23 294.76,-131"/>
<polygon fill="midnightblue" stroke="midnightblue" points="295.39,-127.54 284.81,-128.08 293.42,-134.25 295.39,-127.54"/>
</g>
<!-- Node12&#45;&gt;Node9 -->
<g id="edge18" class="edge">
<title>Node12&#45;&gt;Node9</title>
<path fill="none" stroke="midnightblue" d="M437.84,-168.32C424.58,-159.9 404.23,-146.97 388.65,-137.07"/>
<polygon fill="midnightblue" stroke="midnightblue" points="390.44,-134.06 380.12,-131.65 386.69,-139.97 390.44,-134.06"/>
</g>
<!-- Node13 -->
<g id="node13" class="node">
<title>Node13</title>
<g id="a_node13"><a xlink:href="setjmp_8h.html" target="_top" xlink:title=" ">
<polygon fill="white" stroke="black" points="379,-56.5 379,-75.5 432,-75.5 432,-56.5 379,-56.5"/>
<text text-anchor="middle" x="405.5" y="-63.5" font-family="Helvetica,sans-Serif" font-size="10.00">setjmp.h</text>
</a>
</g>
</g>
<!-- Node12&#45;&gt;Node13 -->
<g id="edge19" class="edge">
<title>Node12&#45;&gt;Node13</title>
<path fill="none" stroke="midnightblue" d="M450.13,-168.3C447.92,-155.55 442.95,-131.22 434.5,-112 430.21,-102.23 423.93,-92.18 418.32,-84.05"/>
<polygon fill="midnightblue" stroke="midnightblue" points="421.08,-81.9 412.4,-75.82 415.4,-85.99 421.08,-81.9"/>
</g>
<!-- Node13&#45;&gt;Node6 -->
<g id="edge20" class="edge">
<title>Node13&#45;&gt;Node6</title>
<path fill="none" stroke="midnightblue" d="M409.96,-56.08C413.65,-48.69 419.02,-37.95 423.59,-28.81"/>
<polygon fill="midnightblue" stroke="midnightblue" points="426.78,-30.26 428.12,-19.75 420.52,-27.13 426.78,-30.26"/>
</g>
<!-- Node14&#45;&gt;Node4 -->
<g id="edge22" class="edge">
<title>Node14&#45;&gt;Node4</title>
<path fill="none" stroke="midnightblue" d="M170.74,-168.37C188.3,-149.97 229.63,-106.67 252.18,-83.05"/>
<polygon fill="midnightblue" stroke="midnightblue" points="254.93,-85.24 259.3,-75.59 249.86,-80.41 254.93,-85.24"/>
</g>
<!-- Node14&#45;&gt;Node7 -->
<g id="edge23" class="edge">
<title>Node14&#45;&gt;Node7</title>
<path fill="none" stroke="midnightblue" d="M179.37,-168.32C196.21,-159.66 222.31,-146.24 241.74,-136.25"/>
<polygon fill="midnightblue" stroke="midnightblue" points="243.38,-139.34 250.67,-131.65 240.18,-133.12 243.38,-139.34"/>
</g>
<!-- Node15&#45;&gt;Node4 -->
<g id="edge25" class="edge">
<title>Node15&#45;&gt;Node4</title>
<path fill="none" stroke="midnightblue" d="M235.14,-168.35C234.86,-155.68 235.32,-131.44 241.5,-112 244.61,-102.24 250.07,-92.28 255.19,-84.22"/>
<polygon fill="midnightblue" stroke="midnightblue" points="258.21,-86.01 260.89,-75.76 252.4,-82.11 258.21,-86.01"/>
</g>
<!-- Node15&#45;&gt;Node7 -->
<g id="edge26" class="edge">
<title>Node15&#45;&gt;Node7</title>
<path fill="none" stroke="midnightblue" d="M240.78,-168.08C245.21,-160.61 251.66,-149.72 257.12,-140.52"/>
<polygon fill="midnightblue" stroke="midnightblue" points="260.23,-142.14 262.31,-131.75 254.21,-138.57 260.23,-142.14"/>
</g>
<!-- Node17&#45;&gt;Node6 -->
<g id="edge29" class="edge">
<title>Node17&#45;&gt;Node6</title>
<path fill="none" stroke="midnightblue" d="M511.52,-112.21C503.49,-103.26 490.84,-88.91 480.5,-76 467.68,-59.98 453.84,-41.05 444.33,-27.77"/>
<polygon fill="midnightblue" stroke="midnightblue" points="447.15,-25.69 438.51,-19.57 441.45,-29.75 447.15,-25.69"/>
</g>
<!-- Node18 -->
<g id="node18" class="node">
<title>Node18</title>
<g id="a_node18"><a xlink:href="tcpip_8h.html" target="_top" xlink:title=" ">
<polygon fill="white" stroke="black" points="568,-56.5 568,-75.5 613,-75.5 613,-56.5 568,-56.5"/>
<text text-anchor="middle" x="590.5" y="-63.5" font-family="Helvetica,sans-Serif" font-size="10.00">tcpip.h</text>
</a>
</g>
</g>
<!-- Node17&#45;&gt;Node18 -->
<g id="edge30" class="edge">
<title>Node17&#45;&gt;Node18</title>
<path fill="none" stroke="midnightblue" d="M530.91,-112.32C541.61,-104.18 557.84,-91.84 570.66,-82.09"/>
<polygon fill="midnightblue" stroke="midnightblue" points="573.04,-84.67 578.89,-75.83 568.81,-79.1 573.04,-84.67"/>
</g>
<!-- Node19 -->
<g id="node19" class="node">
<title>Node19</title>
<g id="a_node19"><a xlink:href="time_8h.html" target="_top" xlink:title=" ">
<polygon fill="white" stroke="black" points="489,-56.5 489,-75.5 550,-75.5 550,-56.5 489,-56.5"/>
<text text-anchor="middle" x="519.5" y="-63.5" font-family="Helvetica,sans-Serif" font-size="10.00">sys/time.h</text>
</a>
</g>
</g>
<!-- Node17&#45;&gt;Node19 -->
<g id="edge32" class="edge">
<title>Node17&#45;&gt;Node19</title>
<path fill="none" stroke="midnightblue" d="M519.5,-112.08C519.5,-105.01 519.5,-94.86 519.5,-85.99"/>
<polygon fill="midnightblue" stroke="midnightblue" points="523,-85.75 519.5,-75.75 516,-85.75 523,-85.75"/>
</g>
<!-- Node18&#45;&gt;Node6 -->
<g id="edge31" class="edge">
<title>Node18&#45;&gt;Node6</title>
<path fill="none" stroke="midnightblue" d="M567.86,-57.26C541.57,-48.28 497.89,-33.35 467.28,-22.89"/>
<polygon fill="midnightblue" stroke="midnightblue" points="468.04,-19.45 457.44,-19.52 465.77,-26.07 468.04,-19.45"/>
</g>
</g>
</svg>
