<?xml version="1.0" encoding="UTF-8" standalone="no"?>
<!DOCTYPE svg PUBLIC "-//W3C//DTD SVG 1.1//EN"
 "http://www.w3.org/Graphics/SVG/1.1/DTD/svg11.dtd">
<!-- Generated by graphviz version 2.46.1 (20210215.1649)
 -->
<!-- Title: iop/usb/keyboard/src/ps2kbd.c Pages: 1 -->
<!--zoomable 319 -->
<svg id="main" version="1.1" xmlns="http://www.w3.org/2000/svg" xmlns:xlink="http://www.w3.org/1999/xlink" xml:space="preserve" onload="init(evt)">
<style type="text/css"><![CDATA[
.edge:hover path { stroke: red; }
.edge:hover polygon { stroke: red; fill: red; }
]]></style>
<script type="text/javascript"><![CDATA[
var edges = document.getElementsByTagName('g');
if (edges && edges.length) {
  for (var i=0;i<edges.length;i++) {
    if (edges[i].id.substr(0,4)=='edge') {
      edges[i].setAttribute('class','edge');
    }
  }
}
]]></script>
        <defs>
                <circle id="rim" cx="0" cy="0" r="7"/>
                <circle id="rim2" cx="0" cy="0" r="3.5"/>
                <g id="zoomPlus">
                        <use xlink:href="#rim" fill="#404040">
                                <set attributeName="fill" to="#808080" begin="zoomplus.mouseover" end="zoomplus.mouseout"/>
                        </use>
                        <path d="M-4,0h8M0,-4v8" fill="none" stroke="white" stroke-width="1.5" pointer-events="none"/>
                </g>
                <g id="zoomMin">
                        <use xlink:href="#rim" fill="#404040">
                                <set attributeName="fill" to="#808080" begin="zoomminus.mouseover" end="zoomminus.mouseout"/>
                        </use>
                        <path d="M-4,0h8" fill="none" stroke="white" stroke-width="1.5" pointer-events="none"/>
                </g>
                <g id="dirArrow">
                        <path fill="none" stroke="white" stroke-width="1.5" d="M0,-3.0v7 M-2.5,-0.5L0,-3.0L2.5,-0.5"/>
                </g>
               <g id="resetDef">
                       <use xlink:href="#rim2" fill="#404040">
                               <set attributeName="fill" to="#808080" begin="reset.mouseover" end="reset.mouseout"/>
                       </use>
               </g>
        </defs>

<script type="text/javascript">
var viewWidth = 873;
var viewHeight = 319;
var sectionId = 'dynsection-0';
</script>
<script xlink:href="svgpan.js"/>
<svg id="graph" class="graph">
<g id="viewport">
<title>iop/usb/keyboard/src/ps2kbd.c</title>
<polygon fill="white" stroke="transparent" points="-4,4 -4,-315 868.5,-315 868.5,4 -4,4"/>
<!-- Node1 -->
<g id="node1" class="node">
<title>Node1</title>
<g id="a_node1"><a xlink:title=" ">
<polygon fill="#bfbfbf" stroke="black" points="383,-280.5 383,-310.5 490,-310.5 490,-280.5 383,-280.5"/>
<text text-anchor="start" x="391" y="-298.5" font-family="Helvetica,sans-Serif" font-size="10.00">iop/usb/keyboard/src</text>
<text text-anchor="middle" x="436.5" y="-287.5" font-family="Helvetica,sans-Serif" font-size="10.00">/ps2kbd.c</text>
</a>
</g>
</g>
<!-- Node2 -->
<g id="node2" class="node">
<title>Node2</title>
<g id="a_node2"><a xlink:title=" ">
<polygon fill="white" stroke="#bfbfbf" points="165,-112.5 165,-131.5 212,-131.5 212,-112.5 165,-112.5"/>
<text text-anchor="middle" x="188.5" y="-119.5" font-family="Helvetica,sans-Serif" font-size="10.00">types.h</text>
</a>
</g>
</g>
<!-- Node1&#45;&gt;Node2 -->
<g id="edge1" class="edge">
<title>Node1&#45;&gt;Node2</title>
<path fill="none" stroke="midnightblue" d="M382.94,-288.44C320.48,-280.52 221.89,-265.14 191.5,-244 160.97,-222.77 145.19,-203.43 156.5,-168 159.84,-157.54 166.6,-147.43 173.05,-139.45"/>
<polygon fill="midnightblue" stroke="midnightblue" points="175.85,-141.56 179.75,-131.71 170.56,-136.98 175.85,-141.56"/>
</g>
<!-- Node3 -->
<g id="node3" class="node">
<title>Node3</title>
<g id="a_node3"><a xlink:href="ioman_8h.html" target="_top" xlink:title=" ">
<polygon fill="white" stroke="black" points="59.5,-168.5 59.5,-187.5 109.5,-187.5 109.5,-168.5 59.5,-168.5"/>
<text text-anchor="middle" x="84.5" y="-175.5" font-family="Helvetica,sans-Serif" font-size="10.00">ioman.h</text>
</a>
</g>
</g>
<!-- Node1&#45;&gt;Node3 -->
<g id="edge2" class="edge">
<title>Node1&#45;&gt;Node3</title>
<path fill="none" stroke="midnightblue" d="M382.91,-291.27C304.91,-285.68 164.86,-272.01 123.5,-244 107.19,-232.96 96.62,-212.61 90.65,-197.61"/>
<polygon fill="midnightblue" stroke="midnightblue" points="93.81,-196.05 87.11,-187.84 87.23,-198.44 93.81,-196.05"/>
</g>
<!-- Node11 -->
<g id="node11" class="node">
<title>Node11</title>
<g id="a_node11"><a xlink:href="loadcore_8h.html" target="_top" xlink:title=" ">
<polygon fill="white" stroke="black" points="310,-168.5 310,-187.5 371,-187.5 371,-168.5 310,-168.5"/>
<text text-anchor="middle" x="340.5" y="-175.5" font-family="Helvetica,sans-Serif" font-size="10.00">loadcore.h</text>
</a>
</g>
</g>
<!-- Node1&#45;&gt;Node11 -->
<g id="edge11" class="edge">
<title>Node1&#45;&gt;Node11</title>
<path fill="none" stroke="midnightblue" d="M424.73,-280.34C406.88,-258.86 373.06,-218.17 354.16,-195.43"/>
<polygon fill="midnightblue" stroke="midnightblue" points="356.79,-193.12 347.71,-187.67 351.41,-197.6 356.79,-193.12"/>
</g>
<!-- Node12 -->
<g id="node12" class="node">
<title>Node12</title>
<g id="a_node12"><a xlink:href="stdio_8h.html" target="_top" xlink:title=" ">
<polygon fill="white" stroke="black" points="539,-168.5 539,-187.5 584,-187.5 584,-168.5 539,-168.5"/>
<text text-anchor="middle" x="561.5" y="-175.5" font-family="Helvetica,sans-Serif" font-size="10.00">stdio.h</text>
</a>
</g>
</g>
<!-- Node1&#45;&gt;Node12 -->
<g id="edge14" class="edge">
<title>Node1&#45;&gt;Node12</title>
<path fill="none" stroke="midnightblue" d="M447.3,-280.4C459.04,-265.52 478.79,-241.81 498.5,-224 511.1,-212.61 526.61,-201.51 539.08,-193.18"/>
<polygon fill="midnightblue" stroke="midnightblue" points="541.1,-196.04 547.55,-187.64 537.26,-190.18 541.1,-196.04"/>
</g>
<!-- Node14 -->
<g id="node14" class="node">
<title>Node14</title>
<g id="a_node14"><a xlink:title=" ">
<polygon fill="white" stroke="#bfbfbf" points="579,-224.5 579,-243.5 632,-243.5 632,-224.5 579,-224.5"/>
<text text-anchor="middle" x="605.5" y="-231.5" font-family="Helvetica,sans-Serif" font-size="10.00">sifcmd.h</text>
</a>
</g>
</g>
<!-- Node1&#45;&gt;Node14 -->
<g id="edge17" class="edge">
<title>Node1&#45;&gt;Node14</title>
<path fill="none" stroke="midnightblue" d="M476.55,-280.4C505.41,-270.24 543.95,-256.67 571.35,-247.02"/>
<polygon fill="midnightblue" stroke="midnightblue" points="572.64,-250.28 580.91,-243.66 570.31,-243.68 572.64,-250.28"/>
</g>
<!-- Node15 -->
<g id="node15" class="node">
<title>Node15</title>
<g id="a_node15"><a xlink:title=" ">
<polygon fill="white" stroke="#bfbfbf" points="650.5,-224.5 650.5,-243.5 698.5,-243.5 698.5,-224.5 650.5,-224.5"/>
<text text-anchor="middle" x="674.5" y="-231.5" font-family="Helvetica,sans-Serif" font-size="10.00">sifrpc.h</text>
</a>
</g>
</g>
<!-- Node1&#45;&gt;Node15 -->
<g id="edge18" class="edge">
<title>Node1&#45;&gt;Node15</title>
<path fill="none" stroke="midnightblue" d="M490.11,-281.68C529.26,-272.23 583.86,-258.86 640.52,-244.21"/>
<polygon fill="midnightblue" stroke="midnightblue" points="641.57,-247.55 650.37,-241.66 639.81,-240.78 641.57,-247.55"/>
</g>
<!-- Node16 -->
<g id="node16" class="node">
<title>Node16</title>
<g id="a_node16"><a xlink:href="sysclib_8h.html" target="_top" xlink:title=" ">
<polygon fill="white" stroke="black" points="676.5,-168.5 676.5,-187.5 730.5,-187.5 730.5,-168.5 676.5,-168.5"/>
<text text-anchor="middle" x="703.5" y="-175.5" font-family="Helvetica,sans-Serif" font-size="10.00">sysclib.h</text>
</a>
</g>
</g>
<!-- Node1&#45;&gt;Node16 -->
<g id="edge19" class="edge">
<title>Node1&#45;&gt;Node16</title>
<path fill="none" stroke="midnightblue" d="M464.5,-280.36C484.17,-270.36 511.04,-256.56 534.5,-244 550.64,-235.36 553.76,-231.41 570.5,-224 602.12,-210 639.55,-197.7 666.63,-189.51"/>
<polygon fill="midnightblue" stroke="midnightblue" points="667.88,-192.79 676.46,-186.58 665.88,-186.08 667.88,-192.79"/>
</g>
<!-- Node18 -->
<g id="node18" class="node">
<title>Node18</title>
<g id="a_node18"><a xlink:href="sysmem_8h.html" target="_top" xlink:title=" ">
<polygon fill="white" stroke="black" points="460,-168.5 460,-187.5 521,-187.5 521,-168.5 460,-168.5"/>
<text text-anchor="middle" x="490.5" y="-175.5" font-family="Helvetica,sans-Serif" font-size="10.00">sysmem.h</text>
</a>
</g>
</g>
<!-- Node1&#45;&gt;Node18 -->
<g id="edge25" class="edge">
<title>Node1&#45;&gt;Node18</title>
<path fill="none" stroke="midnightblue" d="M440.16,-280.29C444.18,-265.74 451.29,-242.67 460.5,-224 465.33,-214.21 471.96,-204.03 477.76,-195.84"/>
<polygon fill="midnightblue" stroke="midnightblue" points="480.73,-197.69 483.81,-187.55 475.08,-193.56 480.73,-197.69"/>
</g>
<!-- Node19 -->
<g id="node19" class="node">
<title>Node19</title>
<g id="a_node19"><a xlink:href="usbd_8h.html" target="_top" xlink:title=" ">
<polygon fill="white" stroke="black" points="166,-168.5 166,-187.5 211,-187.5 211,-168.5 166,-168.5"/>
<text text-anchor="middle" x="188.5" y="-175.5" font-family="Helvetica,sans-Serif" font-size="10.00">usbd.h</text>
</a>
</g>
</g>
<!-- Node1&#45;&gt;Node19 -->
<g id="edge29" class="edge">
<title>Node1&#45;&gt;Node19</title>
<path fill="none" stroke="midnightblue" d="M382.81,-288.85C323.63,-281.58 233.49,-267.06 208.5,-244 195.64,-232.13 190.96,-212.22 189.31,-197.55"/>
<polygon fill="midnightblue" stroke="midnightblue" points="192.8,-197.29 188.55,-187.58 185.82,-197.82 192.8,-197.29"/>
</g>
<!-- Node20 -->
<g id="node20" class="node">
<title>Node20</title>
<g id="a_node20"><a xlink:href="usbd__macro_8h.html" target="_top" xlink:title=" ">
<polygon fill="white" stroke="black" points="217,-224.5 217,-243.5 294,-243.5 294,-224.5 217,-224.5"/>
<text text-anchor="middle" x="255.5" y="-231.5" font-family="Helvetica,sans-Serif" font-size="10.00">usbd_macro.h</text>
</a>
</g>
</g>
<!-- Node1&#45;&gt;Node20 -->
<g id="edge32" class="edge">
<title>Node1&#45;&gt;Node20</title>
<path fill="none" stroke="midnightblue" d="M393.61,-280.4C362.47,-270.16 320.81,-256.47 291.42,-246.81"/>
<polygon fill="midnightblue" stroke="midnightblue" points="292.17,-243.37 281.57,-243.57 289.98,-250.02 292.17,-243.37"/>
</g>
<!-- Node21 -->
<g id="node21" class="node">
<title>Node21</title>
<g id="a_node21"><a xlink:href="thbase_8h.html" target="_top" xlink:title=" ">
<polygon fill="white" stroke="black" points="389,-168.5 389,-187.5 442,-187.5 442,-168.5 389,-168.5"/>
<text text-anchor="middle" x="415.5" y="-175.5" font-family="Helvetica,sans-Serif" font-size="10.00">thbase.h</text>
</a>
</g>
</g>
<!-- Node1&#45;&gt;Node21 -->
<g id="edge34" class="edge">
<title>Node1&#45;&gt;Node21</title>
<path fill="none" stroke="midnightblue" d="M431.95,-280.5C428.85,-270.44 424.89,-256.51 422.5,-244 419.57,-228.65 417.76,-211.01 416.72,-197.99"/>
<polygon fill="midnightblue" stroke="midnightblue" points="420.21,-197.62 416,-187.9 413.22,-198.12 420.21,-197.62"/>
</g>
<!-- Node22 -->
<g id="node22" class="node">
<title>Node22</title>
<g id="a_node22"><a xlink:href="thevent_8h.html" target="_top" xlink:title=" ">
<polygon fill="white" stroke="black" points="602.5,-168.5 602.5,-187.5 658.5,-187.5 658.5,-168.5 602.5,-168.5"/>
<text text-anchor="middle" x="630.5" y="-175.5" font-family="Helvetica,sans-Serif" font-size="10.00">thevent.h</text>
</a>
</g>
</g>
<!-- Node1&#45;&gt;Node22 -->
<g id="edge37" class="edge">
<title>Node1&#45;&gt;Node22</title>
<path fill="none" stroke="midnightblue" d="M454.68,-280.28C474.26,-265.31 506.63,-241.51 536.5,-224 557.37,-211.77 582.08,-200.04 600.92,-191.62"/>
<polygon fill="midnightblue" stroke="midnightblue" points="602.45,-194.77 610.19,-187.54 599.63,-188.37 602.45,-194.77"/>
</g>
<!-- Node23 -->
<g id="node23" class="node">
<title>Node23</title>
<g id="a_node23"><a xlink:href="thsemap_8h.html" target="_top" xlink:title=" ">
<polygon fill="white" stroke="black" points="229.5,-168.5 229.5,-187.5 291.5,-187.5 291.5,-168.5 229.5,-168.5"/>
<text text-anchor="middle" x="260.5" y="-175.5" font-family="Helvetica,sans-Serif" font-size="10.00">thsemap.h</text>
</a>
</g>
</g>
<!-- Node1&#45;&gt;Node23 -->
<g id="edge40" class="edge">
<title>Node1&#45;&gt;Node23</title>
<path fill="none" stroke="midnightblue" d="M414.92,-280.34C381.19,-258.2 316.34,-215.64 282.41,-193.38"/>
<polygon fill="midnightblue" stroke="midnightblue" points="283.99,-190.23 273.71,-187.67 280.15,-196.08 283.99,-190.23"/>
</g>
<!-- Node24 -->
<g id="node24" class="node">
<title>Node24</title>
<g id="a_node24"><a xlink:title=" ">
<polygon fill="white" stroke="#bfbfbf" points="716.5,-224.5 716.5,-243.5 772.5,-243.5 772.5,-224.5 716.5,-224.5"/>
<text text-anchor="middle" x="744.5" y="-231.5" font-family="Helvetica,sans-Serif" font-size="10.00">ps2kbd.h</text>
</a>
</g>
</g>
<!-- Node1&#45;&gt;Node24 -->
<g id="edge43" class="edge">
<title>Node1&#45;&gt;Node24</title>
<path fill="none" stroke="midnightblue" d="M490.15,-285.39C542.8,-276.25 625.61,-261.34 706.41,-244.15"/>
<polygon fill="midnightblue" stroke="midnightblue" points="707.21,-247.55 716.25,-242.04 705.74,-240.71 707.21,-247.55"/>
</g>
<!-- Node25 -->
<g id="node25" class="node">
<title>Node25</title>
<g id="a_node25"><a xlink:href="us__keymap_8h.html" target="_top" xlink:title=" ">
<polygon fill="white" stroke="black" points="790.5,-224.5 790.5,-243.5 864.5,-243.5 864.5,-224.5 790.5,-224.5"/>
<text text-anchor="middle" x="827.5" y="-231.5" font-family="Helvetica,sans-Serif" font-size="10.00">us_keymap.h</text>
</a>
</g>
</g>
<!-- Node1&#45;&gt;Node25 -->
<g id="edge44" class="edge">
<title>Node1&#45;&gt;Node25</title>
<path fill="none" stroke="midnightblue" d="M490.11,-287.46C556,-278.63 671.46,-262.58 780.21,-244.15"/>
<polygon fill="midnightblue" stroke="midnightblue" points="781.1,-247.55 790.37,-242.42 779.93,-240.65 781.1,-247.55"/>
</g>
<!-- Node4 -->
<g id="node4" class="node">
<title>Node4</title>
<g id="a_node4"><a xlink:href="types_8h_source.html" target="_top" xlink:title=" ">
<polygon fill="white" stroke="black" points="422,-56.5 422,-75.5 469,-75.5 469,-56.5 422,-56.5"/>
<text text-anchor="middle" x="445.5" y="-63.5" font-family="Helvetica,sans-Serif" font-size="10.00">types.h</text>
</a>
</g>
</g>
<!-- Node3&#45;&gt;Node4 -->
<g id="edge3" class="edge">
<title>Node3&#45;&gt;Node4</title>
<path fill="none" stroke="midnightblue" d="M91.24,-168.1C102.7,-153.67 127.48,-125.45 155.5,-112 241.15,-70.88 355.9,-65.79 411.91,-66.06"/>
<polygon fill="midnightblue" stroke="midnightblue" points="411.94,-69.56 421.98,-66.17 412.02,-62.56 411.94,-69.56"/>
</g>
<!-- Node7 -->
<g id="node7" class="node">
<title>Node7</title>
<g id="a_node7"><a xlink:href="irx_8h.html" target="_top" xlink:title=" ">
<polygon fill="white" stroke="black" points="428.5,-112.5 428.5,-131.5 462.5,-131.5 462.5,-112.5 428.5,-112.5"/>
<text text-anchor="middle" x="445.5" y="-119.5" font-family="Helvetica,sans-Serif" font-size="10.00">irx.h</text>
</a>
</g>
</g>
<!-- Node3&#45;&gt;Node7 -->
<g id="edge6" class="edge">
<title>Node3&#45;&gt;Node7</title>
<path fill="none" stroke="midnightblue" d="M109.6,-173.25C175.01,-163.46 350.36,-137.23 418.18,-127.09"/>
<polygon fill="midnightblue" stroke="midnightblue" points="418.74,-130.54 428.11,-125.6 417.71,-123.62 418.74,-130.54"/>
</g>
<!-- Node8 -->
<g id="node8" class="node">
<title>Node8</title>
<g id="a_node8"><a xlink:href="io__common_8h.html" target="_top" xlink:title=" ">
<polygon fill="white" stroke="black" points="34.5,-112.5 34.5,-131.5 108.5,-131.5 108.5,-112.5 34.5,-112.5"/>
<text text-anchor="middle" x="71.5" y="-119.5" font-family="Helvetica,sans-Serif" font-size="10.00">io_common.h</text>
</a>
</g>
</g>
<!-- Node3&#45;&gt;Node8 -->
<g id="edge8" class="edge">
<title>Node3&#45;&gt;Node8</title>
<path fill="none" stroke="midnightblue" d="M82.35,-168.08C80.63,-160.93 78.15,-150.64 76,-141.69"/>
<polygon fill="midnightblue" stroke="midnightblue" points="79.35,-140.65 73.61,-131.75 72.54,-142.29 79.35,-140.65"/>
</g>
<!-- Node5 -->
<g id="node5" class="node">
<title>Node5</title>
<g id="a_node5"><a xlink:title=" ">
<polygon fill="white" stroke="#bfbfbf" points="420,-0.5 420,-19.5 471,-19.5 471,-0.5 420,-0.5"/>
<text text-anchor="middle" x="445.5" y="-7.5" font-family="Helvetica,sans-Serif" font-size="10.00">stddef.h</text>
</a>
</g>
</g>
<!-- Node4&#45;&gt;Node5 -->
<g id="edge4" class="edge">
<title>Node4&#45;&gt;Node5</title>
<path fill="none" stroke="midnightblue" d="M445.5,-56.08C445.5,-49.01 445.5,-38.86 445.5,-29.99"/>
<polygon fill="midnightblue" stroke="midnightblue" points="449,-29.75 445.5,-19.75 442,-29.75 449,-29.75"/>
</g>
<!-- Node6 -->
<g id="node6" class="node">
<title>Node6</title>
<g id="a_node6"><a xlink:href="tamtypes_8h.html" target="_top" xlink:title=" ">
<polygon fill="white" stroke="black" points="579.5,-0.5 579.5,-19.5 643.5,-19.5 643.5,-0.5 579.5,-0.5"/>
<text text-anchor="middle" x="611.5" y="-7.5" font-family="Helvetica,sans-Serif" font-size="10.00">tamtypes.h</text>
</a>
</g>
</g>
<!-- Node4&#45;&gt;Node6 -->
<g id="edge5" class="edge">
<title>Node4&#45;&gt;Node6</title>
<path fill="none" stroke="midnightblue" d="M469.28,-57.26C497.03,-48.24 543.2,-33.22 575.38,-22.75"/>
<polygon fill="midnightblue" stroke="midnightblue" points="576.87,-25.95 585.3,-19.52 574.7,-19.29 576.87,-25.95"/>
</g>
<!-- Node7&#45;&gt;Node4 -->
<g id="edge7" class="edge">
<title>Node7&#45;&gt;Node4</title>
<path fill="none" stroke="midnightblue" d="M445.5,-112.08C445.5,-105.01 445.5,-94.86 445.5,-85.99"/>
<polygon fill="midnightblue" stroke="midnightblue" points="449,-85.75 445.5,-75.75 442,-85.75 449,-85.75"/>
</g>
<!-- Node9 -->
<g id="node9" class="node">
<title>Node9</title>
<g id="a_node9"><a xlink:href="fcntl_8h_source.html" target="_top" xlink:title=" ">
<polygon fill="white" stroke="black" points="0,-56.5 0,-75.5 61,-75.5 61,-56.5 0,-56.5"/>
<text text-anchor="middle" x="30.5" y="-63.5" font-family="Helvetica,sans-Serif" font-size="10.00">sys/fcntl.h</text>
</a>
</g>
</g>
<!-- Node8&#45;&gt;Node9 -->
<g id="edge9" class="edge">
<title>Node8&#45;&gt;Node9</title>
<path fill="none" stroke="midnightblue" d="M64.73,-112.08C58.94,-104.46 50.44,-93.26 43.36,-83.94"/>
<polygon fill="midnightblue" stroke="midnightblue" points="45.98,-81.6 37.14,-75.75 40.4,-85.83 45.98,-81.6"/>
</g>
<!-- Node10 -->
<g id="node10" class="node">
<title>Node10</title>
<g id="a_node10"><a xlink:href="unistd_8h_source.html" target="_top" xlink:title=" ">
<polygon fill="white" stroke="black" points="79.5,-56.5 79.5,-75.5 147.5,-75.5 147.5,-56.5 79.5,-56.5"/>
<text text-anchor="middle" x="113.5" y="-63.5" font-family="Helvetica,sans-Serif" font-size="10.00">sys/unistd.h</text>
</a>
</g>
</g>
<!-- Node8&#45;&gt;Node10 -->
<g id="edge10" class="edge">
<title>Node8&#45;&gt;Node10</title>
<path fill="none" stroke="midnightblue" d="M78.44,-112.08C84.43,-104.38 93.25,-93.03 100.55,-83.65"/>
<polygon fill="midnightblue" stroke="midnightblue" points="103.32,-85.79 106.69,-75.75 97.79,-81.5 103.32,-85.79"/>
</g>
<!-- Node11&#45;&gt;Node4 -->
<g id="edge12" class="edge">
<title>Node11&#45;&gt;Node4</title>
<path fill="none" stroke="midnightblue" d="M348.74,-168.37C366.3,-149.97 407.63,-106.67 430.18,-83.05"/>
<polygon fill="midnightblue" stroke="midnightblue" points="432.93,-85.24 437.3,-75.59 427.86,-80.41 432.93,-85.24"/>
</g>
<!-- Node11&#45;&gt;Node7 -->
<g id="edge13" class="edge">
<title>Node11&#45;&gt;Node7</title>
<path fill="none" stroke="midnightblue" d="M357.37,-168.32C374.21,-159.66 400.31,-146.24 419.74,-136.25"/>
<polygon fill="midnightblue" stroke="midnightblue" points="421.38,-139.34 428.67,-131.65 418.18,-133.12 421.38,-139.34"/>
</g>
<!-- Node12&#45;&gt;Node7 -->
<g id="edge16" class="edge">
<title>Node12&#45;&gt;Node7</title>
<path fill="none" stroke="midnightblue" d="M543.12,-168.44C523.95,-159.52 493.72,-145.45 471.98,-135.33"/>
<polygon fill="midnightblue" stroke="midnightblue" points="473.2,-132.04 462.66,-130.99 470.25,-138.38 473.2,-132.04"/>
</g>
<!-- Node13 -->
<g id="node13" class="node">
<title>Node13</title>
<g id="a_node13"><a xlink:title=" ">
<polygon fill="white" stroke="#bfbfbf" points="536,-112.5 536,-131.5 587,-131.5 587,-112.5 536,-112.5"/>
<text text-anchor="middle" x="561.5" y="-119.5" font-family="Helvetica,sans-Serif" font-size="10.00">stdarg.h</text>
</a>
</g>
</g>
<!-- Node12&#45;&gt;Node13 -->
<g id="edge15" class="edge">
<title>Node12&#45;&gt;Node13</title>
<path fill="none" stroke="midnightblue" d="M561.5,-168.08C561.5,-161.01 561.5,-150.86 561.5,-141.99"/>
<polygon fill="midnightblue" stroke="midnightblue" points="565,-141.75 561.5,-131.75 558,-141.75 565,-141.75"/>
</g>
<!-- Node16&#45;&gt;Node4 -->
<g id="edge20" class="edge">
<title>Node16&#45;&gt;Node4</title>
<path fill="none" stroke="midnightblue" d="M694.88,-168.47C680.36,-154.59 649.56,-127.14 618.5,-112 572.93,-89.78 515.06,-77.59 479.16,-71.68"/>
<polygon fill="midnightblue" stroke="midnightblue" points="479.62,-68.21 469.2,-70.11 478.53,-75.13 479.62,-68.21"/>
</g>
<!-- Node16&#45;&gt;Node7 -->
<g id="edge21" class="edge">
<title>Node16&#45;&gt;Node7</title>
<path fill="none" stroke="midnightblue" d="M676.4,-170.09C673.4,-169.36 670.39,-168.65 667.5,-168 597.46,-152.15 514.39,-136.02 472.51,-128.07"/>
<polygon fill="midnightblue" stroke="midnightblue" points="473.02,-124.6 462.54,-126.18 471.72,-131.48 473.02,-124.6"/>
</g>
<!-- Node16&#45;&gt;Node13 -->
<g id="edge22" class="edge">
<title>Node16&#45;&gt;Node13</title>
<path fill="none" stroke="midnightblue" d="M681,-168.44C657.42,-159.48 620.18,-145.31 593.54,-135.18"/>
<polygon fill="midnightblue" stroke="midnightblue" points="594.49,-131.8 583.9,-131.52 592,-138.34 594.49,-131.8"/>
</g>
<!-- Node17 -->
<g id="node17" class="node">
<title>Node17</title>
<g id="a_node17"><a xlink:href="setjmp_8h.html" target="_top" xlink:title=" ">
<polygon fill="white" stroke="black" points="630,-56.5 630,-75.5 683,-75.5 683,-56.5 630,-56.5"/>
<text text-anchor="middle" x="656.5" y="-63.5" font-family="Helvetica,sans-Serif" font-size="10.00">setjmp.h</text>
</a>
</g>
</g>
<!-- Node16&#45;&gt;Node17 -->
<g id="edge23" class="edge">
<title>Node16&#45;&gt;Node17</title>
<path fill="none" stroke="midnightblue" d="M699.9,-168.14C694.79,-155.6 685.09,-131.98 676.5,-112 672.65,-103.05 668.27,-93.16 664.59,-84.93"/>
<polygon fill="midnightblue" stroke="midnightblue" points="667.69,-83.29 660.4,-75.6 661.3,-86.16 667.69,-83.29"/>
</g>
<!-- Node17&#45;&gt;Node6 -->
<g id="edge24" class="edge">
<title>Node17&#45;&gt;Node6</title>
<path fill="none" stroke="midnightblue" d="M649.07,-56.08C642.65,-48.38 633.19,-37.03 625.38,-27.65"/>
<polygon fill="midnightblue" stroke="midnightblue" points="627.88,-25.19 618.79,-19.75 622.51,-29.67 627.88,-25.19"/>
</g>
<!-- Node18&#45;&gt;Node4 -->
<g id="edge26" class="edge">
<title>Node18&#45;&gt;Node4</title>
<path fill="none" stroke="midnightblue" d="M488.67,-168.36C485.83,-155.69 479.82,-131.46 471.5,-112 467.42,-102.46 461.76,-92.41 456.76,-84.23"/>
<polygon fill="midnightblue" stroke="midnightblue" points="459.63,-82.22 451.33,-75.64 453.71,-85.96 459.63,-82.22"/>
</g>
<!-- Node18&#45;&gt;Node7 -->
<g id="edge27" class="edge">
<title>Node18&#45;&gt;Node7</title>
<path fill="none" stroke="midnightblue" d="M483.07,-168.08C476.65,-160.38 467.19,-149.03 459.38,-139.65"/>
<polygon fill="midnightblue" stroke="midnightblue" points="461.88,-137.19 452.79,-131.75 456.51,-141.67 461.88,-137.19"/>
</g>
<!-- Node18&#45;&gt;Node13 -->
<g id="edge28" class="edge">
<title>Node18&#45;&gt;Node13</title>
<path fill="none" stroke="midnightblue" d="M501.91,-168.32C512.61,-160.18 528.84,-147.84 541.66,-138.09"/>
<polygon fill="midnightblue" stroke="midnightblue" points="544.04,-140.67 549.89,-131.83 539.81,-135.1 544.04,-140.67"/>
</g>
<!-- Node19&#45;&gt;Node2 -->
<g id="edge30" class="edge">
<title>Node19&#45;&gt;Node2</title>
<path fill="none" stroke="midnightblue" d="M188.5,-168.08C188.5,-161.01 188.5,-150.86 188.5,-141.99"/>
<polygon fill="midnightblue" stroke="midnightblue" points="192,-141.75 188.5,-131.75 185,-141.75 192,-141.75"/>
</g>
<!-- Node19&#45;&gt;Node7 -->
<g id="edge31" class="edge">
<title>Node19&#45;&gt;Node7</title>
<path fill="none" stroke="midnightblue" d="M211.17,-170.39C214.29,-169.55 217.47,-168.73 220.5,-168 291.41,-150.96 375.96,-135.28 418.38,-127.73"/>
<polygon fill="midnightblue" stroke="midnightblue" points="419.23,-131.13 428.47,-125.95 418.01,-124.24 419.23,-131.13"/>
</g>
<!-- Node20&#45;&gt;Node19 -->
<g id="edge33" class="edge">
<title>Node20&#45;&gt;Node19</title>
<path fill="none" stroke="midnightblue" d="M244.74,-224.32C234.73,-216.26 219.61,-204.08 207.57,-194.37"/>
<polygon fill="midnightblue" stroke="midnightblue" points="209.44,-191.38 199.46,-187.83 205.05,-196.83 209.44,-191.38"/>
</g>
<!-- Node21&#45;&gt;Node4 -->
<g id="edge35" class="edge">
<title>Node21&#45;&gt;Node4</title>
<path fill="none" stroke="midnightblue" d="M414.8,-168.37C414.04,-155.7 413.63,-131.49 419.5,-112 422.46,-102.19 427.91,-92.23 433.06,-84.18"/>
<polygon fill="midnightblue" stroke="midnightblue" points="436.07,-85.97 438.79,-75.73 430.28,-82.04 436.07,-85.97"/>
</g>
<!-- Node21&#45;&gt;Node7 -->
<g id="edge36" class="edge">
<title>Node21&#45;&gt;Node7</title>
<path fill="none" stroke="midnightblue" d="M420.45,-168.08C424.6,-160.61 430.65,-149.72 435.77,-140.52"/>
<polygon fill="midnightblue" stroke="midnightblue" points="438.84,-142.19 440.64,-131.75 432.72,-138.79 438.84,-142.19"/>
</g>
<!-- Node22&#45;&gt;Node4 -->
<g id="edge38" class="edge">
<title>Node22&#45;&gt;Node4</title>
<path fill="none" stroke="midnightblue" d="M628.36,-168.46C624.45,-154.55 614.78,-127.06 596.5,-112 562.78,-84.22 512.36,-73.58 479.21,-69.52"/>
<polygon fill="midnightblue" stroke="midnightblue" points="479.41,-66.02 469.09,-68.41 478.65,-72.98 479.41,-66.02"/>
</g>
<!-- Node22&#45;&gt;Node7 -->
<g id="edge39" class="edge">
<title>Node22&#45;&gt;Node7</title>
<path fill="none" stroke="midnightblue" d="M602.4,-168.8C567.23,-158.53 507.38,-141.06 472.65,-130.93"/>
<polygon fill="midnightblue" stroke="midnightblue" points="473.32,-127.47 462.74,-128.03 471.36,-134.19 473.32,-127.47"/>
</g>
<!-- Node23&#45;&gt;Node4 -->
<g id="edge41" class="edge">
<title>Node23&#45;&gt;Node4</title>
<path fill="none" stroke="midnightblue" d="M275.02,-168.37C306.9,-149.41 383.27,-104 422.05,-80.94"/>
<polygon fill="midnightblue" stroke="midnightblue" points="424.24,-83.71 431.05,-75.59 420.67,-77.69 424.24,-83.71"/>
</g>
<!-- Node23&#45;&gt;Node7 -->
<g id="edge42" class="edge">
<title>Node23&#45;&gt;Node7</title>
<path fill="none" stroke="midnightblue" d="M289.81,-168.44C325.18,-158.12 384.14,-140.91 418.46,-130.89"/>
<polygon fill="midnightblue" stroke="midnightblue" points="419.64,-134.19 428.26,-128.03 417.68,-127.47 419.64,-134.19"/>
</g>
</g>
</svg>
        <g id="navigator" transform="translate(0 0)" fill="#404254">
                <rect fill="#f2f5e9" fill-opacity="0.5" stroke="#606060" stroke-width=".5" x="0" y="0" width="60" height="60"/>
                <use id="zoomplus" xlink:href="#zoomPlus" x="17" y="9" onmousedown="handleZoom(evt,'in')"/>
                <use id="zoomminus" xlink:href="#zoomMin" x="42" y="9" onmousedown="handleZoom(evt,'out')"/>
                <use id="reset" xlink:href="#resetDef" x="30" y="36" onmousedown="handleReset()"/>
                <g id="arrowUp" xlink:href="#dirArrow" transform="translate(30 24)" onmousedown="handlePan(0,-1)">
                  <use xlink:href="#rim" fill="#404040">
                        <set attributeName="fill" to="#808080" begin="arrowUp.mouseover" end="arrowUp.mouseout"/>
                  </use>
                  <path fill="none" stroke="white" stroke-width="1.5" d="M0,-3.0v7 M-2.5,-0.5L0,-3.0L2.5,-0.5"/>
                </g>
                <g id="arrowRight" xlink:href="#dirArrow" transform="rotate(90) translate(36 -43)" onmousedown="handlePan(1,0)">
                  <use xlink:href="#rim" fill="#404040">
                        <set attributeName="fill" to="#808080" begin="arrowRight.mouseover" end="arrowRight.mouseout"/>
                  </use>
                  <path fill="none" stroke="white" stroke-width="1.5" d="M0,-3.0v7 M-2.5,-0.5L0,-3.0L2.5,-0.5"/>
                </g>
                <g id="arrowDown" xlink:href="#dirArrow" transform="rotate(180) translate(-30 -48)" onmousedown="handlePan(0,1)">
                  <use xlink:href="#rim" fill="#404040">
                        <set attributeName="fill" to="#808080" begin="arrowDown.mouseover" end="arrowDown.mouseout"/>
                  </use>
                  <path fill="none" stroke="white" stroke-width="1.5" d="M0,-3.0v7 M-2.5,-0.5L0,-3.0L2.5,-0.5"/>
                </g>
                <g id="arrowLeft" xlink:href="#dirArrow" transform="rotate(270) translate(-36 17)" onmousedown="handlePan(-1,0)">
                  <use xlink:href="#rim" fill="#404040">
                        <set attributeName="fill" to="#808080" begin="arrowLeft.mouseover" end="arrowLeft.mouseout"/>
                  </use>
                  <path fill="none" stroke="white" stroke-width="1.5" d="M0,-3.0v7 M-2.5,-0.5L0,-3.0L2.5,-0.5"/>
                </g>
        </g>
        <svg viewBox="0 0 15 15" width="100%" height="30px" preserveAspectRatio="xMaxYMin meet">
         <g id="arrow_out" transform="scale(0.3 0.3)">
          <a xlink:href="ps2kbd_8c__incl_org.svg" target="_base">
           <rect id="button" ry="5" rx="5" y="6" x="6" height="38" width="38"
                fill="#f2f5e9" fill-opacity="0.5" stroke="#606060" stroke-width="1.0"/>
           <path id="arrow"
             d="M 11.500037,31.436501 C 11.940474,20.09759 22.043105,11.32322 32.158766,21.979434 L 37.068811,17.246167 C 37.068811,17.246167 37.088388,32 37.088388,32 L 22.160133,31.978069 C 22.160133,31.978069 26.997745,27.140456 26.997745,27.140456 C 18.528582,18.264221 13.291696,25.230495 11.500037,31.436501 z"
             style="fill:#404040;"/>
          </a>
         </g>
        </svg>
</svg>
