<?xml version="1.0" encoding="UTF-8" standalone="no"?>
<!DOCTYPE svg PUBLIC "-//W3C//DTD SVG 1.1//EN"
 "http://www.w3.org/Graphics/SVG/1.1/DTD/svg11.dtd">
<!-- Generated by graphviz version 2.46.1 (20210215.1649)
 -->
<!-- Title: iop/usb/mouse/src/ps2mouse.c Pages: 1 -->
<!--zoomable 308 -->
<svg id="main" version="1.1" xmlns="http://www.w3.org/2000/svg" xmlns:xlink="http://www.w3.org/1999/xlink" xml:space="preserve" onload="init(evt)">
<style type="text/css"><![CDATA[
.edge:hover path { stroke: red; }
.edge:hover polygon { stroke: red; fill: red; }
]]></style>
<script type="text/javascript"><![CDATA[
var edges = document.getElementsByTagName('g');
if (edges && edges.length) {
  for (var i=0;i<edges.length;i++) {
    if (edges[i].id.substr(0,4)=='edge') {
      edges[i].setAttribute('class','edge');
    }
  }
}
]]></script>
        <defs>
                <circle id="rim" cx="0" cy="0" r="7"/>
                <circle id="rim2" cx="0" cy="0" r="3.5"/>
                <g id="zoomPlus">
                        <use xlink:href="#rim" fill="#404040">
                                <set attributeName="fill" to="#808080" begin="zoomplus.mouseover" end="zoomplus.mouseout"/>
                        </use>
                        <path d="M-4,0h8M0,-4v8" fill="none" stroke="white" stroke-width="1.5" pointer-events="none"/>
                </g>
                <g id="zoomMin">
                        <use xlink:href="#rim" fill="#404040">
                                <set attributeName="fill" to="#808080" begin="zoomminus.mouseover" end="zoomminus.mouseout"/>
                        </use>
                        <path d="M-4,0h8" fill="none" stroke="white" stroke-width="1.5" pointer-events="none"/>
                </g>
                <g id="dirArrow">
                        <path fill="none" stroke="white" stroke-width="1.5" d="M0,-3.0v7 M-2.5,-0.5L0,-3.0L2.5,-0.5"/>
                </g>
               <g id="resetDef">
                       <use xlink:href="#rim2" fill="#404040">
                               <set attributeName="fill" to="#808080" begin="reset.mouseover" end="reset.mouseout"/>
                       </use>
               </g>
        </defs>

<script type="text/javascript">
var viewWidth = 912;
var viewHeight = 308;
var sectionId = 'dynsection-0';
</script>
<script xlink:href="svgpan.js"/>
<svg id="graph" class="graph">
<g id="viewport">
<title>iop/usb/mouse/src/ps2mouse.c</title>
<polygon fill="white" stroke="transparent" points="-4,4 -4,-304 907.5,-304 907.5,4 -4,4"/>
<!-- Node1 -->
<g id="node1" class="node">
<title>Node1</title>
<g id="a_node1"><a xlink:title=" ">
<polygon fill="#bfbfbf" stroke="black" points="459,-280.5 459,-299.5 611,-299.5 611,-280.5 459,-280.5"/>
<text text-anchor="middle" x="535" y="-287.5" font-family="Helvetica,sans-Serif" font-size="10.00">iop/usb/mouse/src/ps2mouse.c</text>
</a>
</g>
</g>
<!-- Node2 -->
<g id="node2" class="node">
<title>Node2</title>
<g id="a_node2"><a xlink:title=" ">
<polygon fill="white" stroke="#bfbfbf" points="283.5,-112.5 283.5,-131.5 330.5,-131.5 330.5,-112.5 283.5,-112.5"/>
<text text-anchor="middle" x="307" y="-119.5" font-family="Helvetica,sans-Serif" font-size="10.00">types.h</text>
</a>
</g>
</g>
<!-- Node1&#45;&gt;Node2 -->
<g id="edge1" class="edge">
<title>Node1&#45;&gt;Node2</title>
<path fill="none" stroke="midnightblue" d="M458.93,-280.49C403.07,-273.03 332.92,-260.75 309,-244 278.69,-222.78 263.74,-203.25 275,-168 278.34,-157.54 285.1,-147.43 291.55,-139.45"/>
<polygon fill="midnightblue" stroke="midnightblue" points="294.35,-141.56 298.25,-131.71 289.06,-136.98 294.35,-141.56"/>
</g>
<!-- Node3 -->
<g id="node3" class="node">
<title>Node3</title>
<g id="a_node3"><a xlink:href="ioman_x_8h.html" target="_top" xlink:title=" ">
<polygon fill="white" stroke="black" points="169.5,-168.5 169.5,-187.5 226.5,-187.5 226.5,-168.5 169.5,-168.5"/>
<text text-anchor="middle" x="198" y="-175.5" font-family="Helvetica,sans-Serif" font-size="10.00">iomanX.h</text>
</a>
</g>
</g>
<!-- Node1&#45;&gt;Node3 -->
<g id="edge2" class="edge">
<title>Node1&#45;&gt;Node3</title>
<path fill="none" stroke="midnightblue" d="M458.75,-284.32C383.94,-278.5 276.12,-266.47 241,-244 223.78,-232.98 211.9,-212.32 205.06,-197.24"/>
<polygon fill="midnightblue" stroke="midnightblue" points="208.23,-195.74 201.13,-187.88 201.78,-198.46 208.23,-195.74"/>
</g>
<!-- Node13 -->
<g id="node13" class="node">
<title>Node13</title>
<g id="a_node13"><a xlink:href="loadcore_8h.html" target="_top" xlink:title=" ">
<polygon fill="white" stroke="black" points="572.5,-168.5 572.5,-187.5 633.5,-187.5 633.5,-168.5 572.5,-168.5"/>
<text text-anchor="middle" x="603" y="-175.5" font-family="Helvetica,sans-Serif" font-size="10.00">loadcore.h</text>
</a>
</g>
</g>
<!-- Node1&#45;&gt;Node13 -->
<g id="edge13" class="edge">
<title>Node1&#45;&gt;Node13</title>
<path fill="none" stroke="midnightblue" d="M540.34,-280.37C551.51,-262.3 577.55,-220.18 592.3,-196.31"/>
<polygon fill="midnightblue" stroke="midnightblue" points="595.41,-197.94 597.69,-187.59 589.45,-194.26 595.41,-197.94"/>
</g>
<!-- Node14 -->
<g id="node14" class="node">
<title>Node14</title>
<g id="a_node14"><a xlink:href="stdio_8h.html" target="_top" xlink:title=" ">
<polygon fill="white" stroke="black" points="651.5,-168.5 651.5,-187.5 696.5,-187.5 696.5,-168.5 651.5,-168.5"/>
<text text-anchor="middle" x="674" y="-175.5" font-family="Helvetica,sans-Serif" font-size="10.00">stdio.h</text>
</a>
</g>
</g>
<!-- Node1&#45;&gt;Node14 -->
<g id="edge16" class="edge">
<title>Node1&#45;&gt;Node14</title>
<path fill="none" stroke="midnightblue" d="M545.7,-280.32C561.16,-267.81 590.66,-243.99 616,-224 628.92,-213.81 643.55,-202.45 654.89,-193.7"/>
<polygon fill="midnightblue" stroke="midnightblue" points="657.06,-196.45 662.84,-187.57 652.78,-190.91 657.06,-196.45"/>
</g>
<!-- Node16 -->
<g id="node16" class="node">
<title>Node16</title>
<g id="a_node16"><a xlink:title=" ">
<polygon fill="white" stroke="#bfbfbf" points="696.5,-224.5 696.5,-243.5 749.5,-243.5 749.5,-224.5 696.5,-224.5"/>
<text text-anchor="middle" x="723" y="-231.5" font-family="Helvetica,sans-Serif" font-size="10.00">sifcmd.h</text>
</a>
</g>
</g>
<!-- Node1&#45;&gt;Node16 -->
<g id="edge19" class="edge">
<title>Node1&#45;&gt;Node16</title>
<path fill="none" stroke="midnightblue" d="M564.79,-280.44C597.77,-270.97 650.96,-255.69 686.44,-245.5"/>
<polygon fill="midnightblue" stroke="midnightblue" points="687.74,-248.77 696.39,-242.64 685.81,-242.04 687.74,-248.77"/>
</g>
<!-- Node17 -->
<g id="node17" class="node">
<title>Node17</title>
<g id="a_node17"><a xlink:title=" ">
<polygon fill="white" stroke="#bfbfbf" points="768,-224.5 768,-243.5 816,-243.5 816,-224.5 768,-224.5"/>
<text text-anchor="middle" x="792" y="-231.5" font-family="Helvetica,sans-Serif" font-size="10.00">sifrpc.h</text>
</a>
</g>
</g>
<!-- Node1&#45;&gt;Node17 -->
<g id="edge20" class="edge">
<title>Node1&#45;&gt;Node17</title>
<path fill="none" stroke="midnightblue" d="M582.4,-280.45C625.75,-272.41 691.84,-259.6 758.12,-244.09"/>
<polygon fill="midnightblue" stroke="midnightblue" points="758.97,-247.48 767.9,-241.78 757.36,-240.67 758.97,-247.48"/>
</g>
<!-- Node18 -->
<g id="node18" class="node">
<title>Node18</title>
<g id="a_node18"><a xlink:href="sysclib_8h.html" target="_top" xlink:title=" ">
<polygon fill="white" stroke="black" points="794,-168.5 794,-187.5 848,-187.5 848,-168.5 794,-168.5"/>
<text text-anchor="middle" x="821" y="-175.5" font-family="Helvetica,sans-Serif" font-size="10.00">sysclib.h</text>
</a>
</g>
</g>
<!-- Node1&#45;&gt;Node18 -->
<g id="edge21" class="edge">
<title>Node1&#45;&gt;Node18</title>
<path fill="none" stroke="midnightblue" d="M558.86,-280.36C582.12,-271.75 618.37,-257.86 649,-244 666.75,-235.97 670.06,-231.59 688,-224 719.75,-210.57 757.02,-198.25 784.01,-189.9"/>
<polygon fill="midnightblue" stroke="midnightblue" points="785.28,-193.18 793.82,-186.91 783.23,-186.48 785.28,-193.18"/>
</g>
<!-- Node20 -->
<g id="node20" class="node">
<title>Node20</title>
<g id="a_node20"><a xlink:href="sysmem_8h.html" target="_top" xlink:title=" ">
<polygon fill="white" stroke="black" points="714.5,-168.5 714.5,-187.5 775.5,-187.5 775.5,-168.5 714.5,-168.5"/>
<text text-anchor="middle" x="745" y="-175.5" font-family="Helvetica,sans-Serif" font-size="10.00">sysmem.h</text>
</a>
</g>
</g>
<!-- Node1&#45;&gt;Node20 -->
<g id="edge27" class="edge">
<title>Node1&#45;&gt;Node20</title>
<path fill="none" stroke="midnightblue" d="M550.3,-280.38C572.85,-267.74 616.41,-243.55 654,-224 675.24,-212.95 699.56,-200.96 717.72,-192.13"/>
<polygon fill="midnightblue" stroke="midnightblue" points="719.63,-195.09 727.11,-187.58 716.58,-188.79 719.63,-195.09"/>
</g>
<!-- Node21 -->
<g id="node21" class="node">
<title>Node21</title>
<g id="a_node21"><a xlink:href="usbd_8h.html" target="_top" xlink:title=" ">
<polygon fill="white" stroke="black" points="283.5,-168.5 283.5,-187.5 328.5,-187.5 328.5,-168.5 283.5,-168.5"/>
<text text-anchor="middle" x="306" y="-175.5" font-family="Helvetica,sans-Serif" font-size="10.00">usbd.h</text>
</a>
</g>
</g>
<!-- Node1&#45;&gt;Node21 -->
<g id="edge31" class="edge">
<title>Node1&#45;&gt;Node21</title>
<path fill="none" stroke="midnightblue" d="M458.86,-280.74C407.38,-273.67 345.39,-261.78 326,-244 313.1,-232.17 308.44,-212.25 306.79,-197.57"/>
<polygon fill="midnightblue" stroke="midnightblue" points="310.28,-197.3 306.04,-187.59 303.3,-197.83 310.28,-197.3"/>
</g>
<!-- Node22 -->
<g id="node22" class="node">
<title>Node22</title>
<g id="a_node22"><a xlink:href="usbd__macro_8h.html" target="_top" xlink:title=" ">
<polygon fill="white" stroke="black" points="334.5,-224.5 334.5,-243.5 411.5,-243.5 411.5,-224.5 334.5,-224.5"/>
<text text-anchor="middle" x="373" y="-231.5" font-family="Helvetica,sans-Serif" font-size="10.00">usbd_macro.h</text>
</a>
</g>
</g>
<!-- Node1&#45;&gt;Node22 -->
<g id="edge34" class="edge">
<title>Node1&#45;&gt;Node22</title>
<path fill="none" stroke="midnightblue" d="M509.33,-280.44C482.08,-271.36 438.82,-256.94 408.35,-246.78"/>
<polygon fill="midnightblue" stroke="midnightblue" points="409.14,-243.36 398.55,-243.52 406.93,-250 409.14,-243.36"/>
</g>
<!-- Node23 -->
<g id="node23" class="node">
<title>Node23</title>
<g id="a_node23"><a xlink:href="thbase_8h.html" target="_top" xlink:title=" ">
<polygon fill="white" stroke="black" points="346.5,-168.5 346.5,-187.5 399.5,-187.5 399.5,-168.5 346.5,-168.5"/>
<text text-anchor="middle" x="373" y="-175.5" font-family="Helvetica,sans-Serif" font-size="10.00">thbase.h</text>
</a>
</g>
</g>
<!-- Node1&#45;&gt;Node23 -->
<g id="edge36" class="edge">
<title>Node1&#45;&gt;Node23</title>
<path fill="none" stroke="midnightblue" d="M522.29,-280.37C494.49,-261.49 428.06,-216.38 393.97,-193.24"/>
<polygon fill="midnightblue" stroke="midnightblue" points="395.89,-190.31 385.65,-187.59 391.96,-196.1 395.89,-190.31"/>
</g>
<!-- Node24 -->
<g id="node24" class="node">
<title>Node24</title>
<g id="a_node24"><a xlink:href="thevent_8h.html" target="_top" xlink:title=" ">
<polygon fill="white" stroke="black" points="418,-168.5 418,-187.5 474,-187.5 474,-168.5 418,-168.5"/>
<text text-anchor="middle" x="446" y="-175.5" font-family="Helvetica,sans-Serif" font-size="10.00">thevent.h</text>
</a>
</g>
</g>
<!-- Node1&#45;&gt;Node24 -->
<g id="edge39" class="edge">
<title>Node1&#45;&gt;Node24</title>
<path fill="none" stroke="midnightblue" d="M528.02,-280.37C513.26,-262.14 478.71,-219.43 459.49,-195.68"/>
<polygon fill="midnightblue" stroke="midnightblue" points="461.96,-193.16 452.95,-187.59 456.52,-197.57 461.96,-193.16"/>
</g>
<!-- Node25 -->
<g id="node25" class="node">
<title>Node25</title>
<g id="a_node25"><a xlink:href="thsemap_8h.html" target="_top" xlink:title=" ">
<polygon fill="white" stroke="black" points="492,-168.5 492,-187.5 554,-187.5 554,-168.5 492,-168.5"/>
<text text-anchor="middle" x="523" y="-175.5" font-family="Helvetica,sans-Serif" font-size="10.00">thsemap.h</text>
</a>
</g>
</g>
<!-- Node1&#45;&gt;Node25 -->
<g id="edge42" class="edge">
<title>Node1&#45;&gt;Node25</title>
<path fill="none" stroke="midnightblue" d="M534.06,-280.37C532.12,-262.62 527.65,-221.67 525.03,-197.6"/>
<polygon fill="midnightblue" stroke="midnightblue" points="528.5,-197.15 523.94,-187.59 521.54,-197.91 528.5,-197.15"/>
</g>
<!-- Node26 -->
<g id="node26" class="node">
<title>Node26</title>
<g id="a_node26"><a xlink:title=" ">
<polygon fill="white" stroke="#bfbfbf" points="834.5,-224.5 834.5,-243.5 903.5,-243.5 903.5,-224.5 834.5,-224.5"/>
<text text-anchor="middle" x="869" y="-231.5" font-family="Helvetica,sans-Serif" font-size="10.00">ps2mouse.h</text>
</a>
</g>
</g>
<!-- Node1&#45;&gt;Node26 -->
<g id="edge45" class="edge">
<title>Node1&#45;&gt;Node26</title>
<path fill="none" stroke="midnightblue" d="M595.4,-280.49C651.98,-272.32 739.13,-259.24 824.57,-244"/>
<polygon fill="midnightblue" stroke="midnightblue" points="825.22,-247.44 834.44,-242.23 823.98,-240.55 825.22,-247.44"/>
</g>
<!-- Node4 -->
<g id="node4" class="node">
<title>Node4</title>
<g id="a_node4"><a xlink:href="types_8h_source.html" target="_top" xlink:title=" ">
<polygon fill="white" stroke="black" points="541.5,-56.5 541.5,-75.5 588.5,-75.5 588.5,-56.5 541.5,-56.5"/>
<text text-anchor="middle" x="565" y="-63.5" font-family="Helvetica,sans-Serif" font-size="10.00">types.h</text>
</a>
</g>
</g>
<!-- Node3&#45;&gt;Node4 -->
<g id="edge3" class="edge">
<title>Node3&#45;&gt;Node4</title>
<path fill="none" stroke="midnightblue" d="M205.48,-168.1C218.16,-153.69 245.39,-125.49 275,-112 361.24,-72.71 475.26,-66.76 531.16,-66.44"/>
<polygon fill="midnightblue" stroke="midnightblue" points="531.22,-69.94 541.22,-66.44 531.22,-62.94 531.22,-69.94"/>
</g>
<!-- Node7 -->
<g id="node7" class="node">
<title>Node7</title>
<g id="a_node7"><a xlink:href="irx_8h.html" target="_top" xlink:title=" ">
<polygon fill="white" stroke="black" points="503,-112.5 503,-131.5 537,-131.5 537,-112.5 503,-112.5"/>
<text text-anchor="middle" x="520" y="-119.5" font-family="Helvetica,sans-Serif" font-size="10.00">irx.h</text>
</a>
</g>
</g>
<!-- Node3&#45;&gt;Node7 -->
<g id="edge6" class="edge">
<title>Node3&#45;&gt;Node7</title>
<path fill="none" stroke="midnightblue" d="M226.58,-172.21C288.14,-161.88 432.59,-137.66 492.85,-127.55"/>
<polygon fill="midnightblue" stroke="midnightblue" points="493.48,-131 502.76,-125.89 492.32,-124.09 493.48,-131"/>
</g>
<!-- Node8 -->
<g id="node8" class="node">
<title>Node8</title>
<g id="a_node8"><a xlink:href="io__common_8h.html" target="_top" xlink:title=" ">
<polygon fill="white" stroke="black" points="77,-112.5 77,-131.5 151,-131.5 151,-112.5 77,-112.5"/>
<text text-anchor="middle" x="114" y="-119.5" font-family="Helvetica,sans-Serif" font-size="10.00">io_common.h</text>
</a>
</g>
</g>
<!-- Node3&#45;&gt;Node8 -->
<g id="edge8" class="edge">
<title>Node3&#45;&gt;Node8</title>
<path fill="none" stroke="midnightblue" d="M184.5,-168.32C171.4,-159.9 151.29,-146.97 135.89,-137.07"/>
<polygon fill="midnightblue" stroke="midnightblue" points="137.77,-134.12 127.46,-131.65 133.98,-140.01 137.77,-134.12"/>
</g>
<!-- Node11 -->
<g id="node11" class="node">
<title>Node11</title>
<g id="a_node11"><a xlink:href="iox__stat_8h.html" target="_top" xlink:title=" ">
<polygon fill="white" stroke="black" points="169,-112.5 169,-131.5 227,-131.5 227,-112.5 169,-112.5"/>
<text text-anchor="middle" x="198" y="-119.5" font-family="Helvetica,sans-Serif" font-size="10.00">iox_stat.h</text>
</a>
</g>
</g>
<!-- Node3&#45;&gt;Node11 -->
<g id="edge11" class="edge">
<title>Node3&#45;&gt;Node11</title>
<path fill="none" stroke="midnightblue" d="M198,-168.08C198,-161.01 198,-150.86 198,-141.99"/>
<polygon fill="midnightblue" stroke="midnightblue" points="201.5,-141.75 198,-131.75 194.5,-141.75 201.5,-141.75"/>
</g>
<!-- Node5 -->
<g id="node5" class="node">
<title>Node5</title>
<g id="a_node5"><a xlink:title=" ">
<polygon fill="white" stroke="#bfbfbf" points="539.5,-0.5 539.5,-19.5 590.5,-19.5 590.5,-0.5 539.5,-0.5"/>
<text text-anchor="middle" x="565" y="-7.5" font-family="Helvetica,sans-Serif" font-size="10.00">stddef.h</text>
</a>
</g>
</g>
<!-- Node4&#45;&gt;Node5 -->
<g id="edge4" class="edge">
<title>Node4&#45;&gt;Node5</title>
<path fill="none" stroke="midnightblue" d="M565,-56.08C565,-49.01 565,-38.86 565,-29.99"/>
<polygon fill="midnightblue" stroke="midnightblue" points="568.5,-29.75 565,-19.75 561.5,-29.75 568.5,-29.75"/>
</g>
<!-- Node6 -->
<g id="node6" class="node">
<title>Node6</title>
<g id="a_node6"><a xlink:href="tamtypes_8h.html" target="_top" xlink:title=" ">
<polygon fill="white" stroke="black" points="699,-0.5 699,-19.5 763,-19.5 763,-0.5 699,-0.5"/>
<text text-anchor="middle" x="731" y="-7.5" font-family="Helvetica,sans-Serif" font-size="10.00">tamtypes.h</text>
</a>
</g>
</g>
<!-- Node4&#45;&gt;Node6 -->
<g id="edge5" class="edge">
<title>Node4&#45;&gt;Node6</title>
<path fill="none" stroke="midnightblue" d="M588.78,-57.26C616.53,-48.24 662.7,-33.22 694.88,-22.75"/>
<polygon fill="midnightblue" stroke="midnightblue" points="696.37,-25.95 704.8,-19.52 694.2,-19.29 696.37,-25.95"/>
</g>
<!-- Node7&#45;&gt;Node4 -->
<g id="edge7" class="edge">
<title>Node7&#45;&gt;Node4</title>
<path fill="none" stroke="midnightblue" d="M527.43,-112.08C533.85,-104.38 543.31,-93.03 551.12,-83.65"/>
<polygon fill="midnightblue" stroke="midnightblue" points="553.99,-85.67 557.71,-75.75 548.62,-81.19 553.99,-85.67"/>
</g>
<!-- Node9 -->
<g id="node9" class="node">
<title>Node9</title>
<g id="a_node9"><a xlink:href="fcntl_8h_source.html" target="_top" xlink:title=" ">
<polygon fill="white" stroke="black" points="86.5,-56.5 86.5,-75.5 147.5,-75.5 147.5,-56.5 86.5,-56.5"/>
<text text-anchor="middle" x="117" y="-63.5" font-family="Helvetica,sans-Serif" font-size="10.00">sys/fcntl.h</text>
</a>
</g>
</g>
<!-- Node8&#45;&gt;Node9 -->
<g id="edge9" class="edge">
<title>Node8&#45;&gt;Node9</title>
<path fill="none" stroke="midnightblue" d="M114.5,-112.08C114.89,-105.01 115.45,-94.86 115.95,-85.99"/>
<polygon fill="midnightblue" stroke="midnightblue" points="119.45,-85.93 116.51,-75.75 112.46,-85.54 119.45,-85.93"/>
</g>
<!-- Node10 -->
<g id="node10" class="node">
<title>Node10</title>
<g id="a_node10"><a xlink:href="unistd_8h_source.html" target="_top" xlink:title=" ">
<polygon fill="white" stroke="black" points="0,-56.5 0,-75.5 68,-75.5 68,-56.5 0,-56.5"/>
<text text-anchor="middle" x="34" y="-63.5" font-family="Helvetica,sans-Serif" font-size="10.00">sys/unistd.h</text>
</a>
</g>
</g>
<!-- Node8&#45;&gt;Node10 -->
<g id="edge10" class="edge">
<title>Node8&#45;&gt;Node10</title>
<path fill="none" stroke="midnightblue" d="M101.15,-112.32C88.78,-103.98 69.87,-91.21 55.26,-81.35"/>
<polygon fill="midnightblue" stroke="midnightblue" points="57.07,-78.35 46.82,-75.65 53.15,-84.15 57.07,-78.35"/>
</g>
<!-- Node12 -->
<g id="node12" class="node">
<title>Node12</title>
<g id="a_node12"><a xlink:href="time_8h.html" target="_top" xlink:title=" ">
<polygon fill="white" stroke="black" points="167.5,-56.5 167.5,-75.5 228.5,-75.5 228.5,-56.5 167.5,-56.5"/>
<text text-anchor="middle" x="198" y="-63.5" font-family="Helvetica,sans-Serif" font-size="10.00">sys/time.h</text>
</a>
</g>
</g>
<!-- Node11&#45;&gt;Node12 -->
<g id="edge12" class="edge">
<title>Node11&#45;&gt;Node12</title>
<path fill="none" stroke="midnightblue" d="M198,-112.08C198,-105.01 198,-94.86 198,-85.99"/>
<polygon fill="midnightblue" stroke="midnightblue" points="201.5,-85.75 198,-75.75 194.5,-85.75 201.5,-85.75"/>
</g>
<!-- Node13&#45;&gt;Node4 -->
<g id="edge14" class="edge">
<title>Node13&#45;&gt;Node4</title>
<path fill="none" stroke="midnightblue" d="M600.02,-168.37C593.86,-150.54 579.61,-109.3 571.31,-85.27"/>
<polygon fill="midnightblue" stroke="midnightblue" points="574.54,-83.9 567.97,-75.59 567.93,-86.19 574.54,-83.9"/>
</g>
<!-- Node13&#45;&gt;Node7 -->
<g id="edge15" class="edge">
<title>Node13&#45;&gt;Node7</title>
<path fill="none" stroke="midnightblue" d="M589.66,-168.32C576.84,-159.98 557.22,-147.21 542.06,-137.35"/>
<polygon fill="midnightblue" stroke="midnightblue" points="543.59,-134.17 533.3,-131.65 539.78,-140.04 543.59,-134.17"/>
</g>
<!-- Node14&#45;&gt;Node7 -->
<g id="edge18" class="edge">
<title>Node14&#45;&gt;Node7</title>
<path fill="none" stroke="midnightblue" d="M651.28,-169.03C623.44,-159.27 576.33,-142.75 546.76,-132.38"/>
<polygon fill="midnightblue" stroke="midnightblue" points="547.69,-129 537.1,-129 545.38,-135.61 547.69,-129"/>
</g>
<!-- Node15 -->
<g id="node15" class="node">
<title>Node15</title>
<g id="a_node15"><a xlink:title=" ">
<polygon fill="white" stroke="#bfbfbf" points="703.5,-112.5 703.5,-131.5 754.5,-131.5 754.5,-112.5 703.5,-112.5"/>
<text text-anchor="middle" x="729" y="-119.5" font-family="Helvetica,sans-Serif" font-size="10.00">stdarg.h</text>
</a>
</g>
</g>
<!-- Node14&#45;&gt;Node15 -->
<g id="edge17" class="edge">
<title>Node14&#45;&gt;Node15</title>
<path fill="none" stroke="midnightblue" d="M683.08,-168.08C691.17,-160.14 703.2,-148.34 712.91,-138.8"/>
<polygon fill="midnightblue" stroke="midnightblue" points="715.4,-141.25 720.09,-131.75 710.5,-136.26 715.4,-141.25"/>
</g>
<!-- Node18&#45;&gt;Node4 -->
<g id="edge22" class="edge">
<title>Node18&#45;&gt;Node4</title>
<path fill="none" stroke="midnightblue" d="M815.93,-168.28C807.21,-154.12 787.99,-126.27 764,-112 711.91,-81.01 640.55,-71.35 598.95,-68.34"/>
<polygon fill="midnightblue" stroke="midnightblue" points="599,-64.84 588.8,-67.7 598.56,-71.82 599,-64.84"/>
</g>
<!-- Node18&#45;&gt;Node7 -->
<g id="edge23" class="edge">
<title>Node18&#45;&gt;Node7</title>
<path fill="none" stroke="midnightblue" d="M793.92,-169.99C790.92,-169.29 787.9,-168.61 785,-168 698.59,-149.89 595.17,-133.97 547.07,-126.89"/>
<polygon fill="midnightblue" stroke="midnightblue" points="547.54,-123.43 537.14,-125.44 546.53,-130.35 547.54,-123.43"/>
</g>
<!-- Node18&#45;&gt;Node15 -->
<g id="edge24" class="edge">
<title>Node18&#45;&gt;Node15</title>
<path fill="none" stroke="midnightblue" d="M806.22,-168.32C791.73,-159.82 769.43,-146.73 752.51,-136.8"/>
<polygon fill="midnightblue" stroke="midnightblue" points="754.14,-133.7 743.74,-131.65 750.6,-139.74 754.14,-133.7"/>
</g>
<!-- Node19 -->
<g id="node19" class="node">
<title>Node19</title>
<g id="a_node19"><a xlink:href="setjmp_8h.html" target="_top" xlink:title=" ">
<polygon fill="white" stroke="black" points="749.5,-56.5 749.5,-75.5 802.5,-75.5 802.5,-56.5 749.5,-56.5"/>
<text text-anchor="middle" x="776" y="-63.5" font-family="Helvetica,sans-Serif" font-size="10.00">setjmp.h</text>
</a>
</g>
</g>
<!-- Node18&#45;&gt;Node19 -->
<g id="edge25" class="edge">
<title>Node18&#45;&gt;Node19</title>
<path fill="none" stroke="midnightblue" d="M818.11,-168.5C813.81,-156 805.34,-131.98 797,-112 793.18,-102.84 788.54,-92.81 784.6,-84.55"/>
<polygon fill="midnightblue" stroke="midnightblue" points="787.75,-83.01 780.24,-75.53 781.44,-86.06 787.75,-83.01"/>
</g>
<!-- Node19&#45;&gt;Node6 -->
<g id="edge26" class="edge">
<title>Node19&#45;&gt;Node6</title>
<path fill="none" stroke="midnightblue" d="M768.57,-56.08C762.15,-48.38 752.69,-37.03 744.88,-27.65"/>
<polygon fill="midnightblue" stroke="midnightblue" points="747.38,-25.19 738.29,-19.75 742.01,-29.67 747.38,-25.19"/>
</g>
<!-- Node20&#45;&gt;Node4 -->
<g id="edge28" class="edge">
<title>Node20&#45;&gt;Node4</title>
<path fill="none" stroke="midnightblue" d="M730.88,-168.37C699.86,-149.41 625.55,-104 587.81,-80.94"/>
<polygon fill="midnightblue" stroke="midnightblue" points="589.42,-77.82 579.06,-75.59 585.77,-83.79 589.42,-77.82"/>
</g>
<!-- Node20&#45;&gt;Node7 -->
<g id="edge29" class="edge">
<title>Node20&#45;&gt;Node7</title>
<path fill="none" stroke="midnightblue" d="M714.19,-169.6C669.92,-158.98 589.03,-139.57 546.99,-129.48"/>
<polygon fill="midnightblue" stroke="midnightblue" points="547.72,-126.05 537.18,-127.12 546.09,-132.86 547.72,-126.05"/>
</g>
<!-- Node20&#45;&gt;Node15 -->
<g id="edge30" class="edge">
<title>Node20&#45;&gt;Node15</title>
<path fill="none" stroke="midnightblue" d="M742.36,-168.08C740.21,-160.85 737.12,-150.41 734.45,-141.4"/>
<polygon fill="midnightblue" stroke="midnightblue" points="737.79,-140.34 731.59,-131.75 731.08,-142.33 737.79,-140.34"/>
</g>
<!-- Node21&#45;&gt;Node2 -->
<g id="edge32" class="edge">
<title>Node21&#45;&gt;Node2</title>
<path fill="none" stroke="midnightblue" d="M306.17,-168.08C306.3,-161.01 306.48,-150.86 306.65,-141.99"/>
<polygon fill="midnightblue" stroke="midnightblue" points="310.15,-141.81 306.84,-131.75 303.15,-141.68 310.15,-141.81"/>
</g>
<!-- Node21&#45;&gt;Node7 -->
<g id="edge33" class="edge">
<title>Node21&#45;&gt;Node7</title>
<path fill="none" stroke="midnightblue" d="M328.7,-170.52C331.82,-169.66 334.99,-168.8 338,-168 392.76,-153.53 457.16,-137.94 492.8,-129.44"/>
<polygon fill="midnightblue" stroke="midnightblue" points="493.97,-132.76 502.89,-127.04 492.35,-125.95 493.97,-132.76"/>
</g>
<!-- Node22&#45;&gt;Node21 -->
<g id="edge35" class="edge">
<title>Node22&#45;&gt;Node21</title>
<path fill="none" stroke="midnightblue" d="M362.24,-224.32C352.23,-216.26 337.11,-204.08 325.07,-194.37"/>
<polygon fill="midnightblue" stroke="midnightblue" points="326.94,-191.38 316.96,-187.83 322.55,-196.83 326.94,-191.38"/>
</g>
<!-- Node23&#45;&gt;Node4 -->
<g id="edge37" class="edge">
<title>Node23&#45;&gt;Node4</title>
<path fill="none" stroke="midnightblue" d="M384.87,-168.47C403.14,-155.52 439.45,-130.46 472,-112 492.99,-100.1 517.61,-88.27 536.24,-79.74"/>
<polygon fill="midnightblue" stroke="midnightblue" points="537.72,-82.91 545.39,-75.59 534.83,-76.53 537.72,-82.91"/>
</g>
<!-- Node23&#45;&gt;Node7 -->
<g id="edge38" class="edge">
<title>Node23&#45;&gt;Node7</title>
<path fill="none" stroke="midnightblue" d="M396.29,-168.44C422.68,-158.75 465.61,-142.98 493.32,-132.8"/>
<polygon fill="midnightblue" stroke="midnightblue" points="494.61,-136.06 502.79,-129.32 492.19,-129.49 494.61,-136.06"/>
</g>
<!-- Node24&#45;&gt;Node4 -->
<g id="edge40" class="edge">
<title>Node24&#45;&gt;Node4</title>
<path fill="none" stroke="midnightblue" d="M451.03,-168.21C458.94,-154.91 475.32,-129.4 494,-112 507.4,-99.52 524.73,-88.46 538.91,-80.43"/>
<polygon fill="midnightblue" stroke="midnightblue" points="540.62,-83.48 547.7,-75.6 537.25,-77.34 540.62,-83.48"/>
</g>
<!-- Node24&#45;&gt;Node7 -->
<g id="edge41" class="edge">
<title>Node24&#45;&gt;Node7</title>
<path fill="none" stroke="midnightblue" d="M457.89,-168.32C469.15,-160.11 486.29,-147.6 499.71,-137.81"/>
<polygon fill="midnightblue" stroke="midnightblue" points="501.88,-140.56 507.89,-131.83 497.75,-134.9 501.88,-140.56"/>
</g>
<!-- Node25&#45;&gt;Node4 -->
<g id="edge43" class="edge">
<title>Node25&#45;&gt;Node4</title>
<path fill="none" stroke="midnightblue" d="M528.09,-168.26C533.13,-159.36 540.81,-145.04 546,-132 552.11,-116.64 557.24,-98.54 560.62,-85.35"/>
<polygon fill="midnightblue" stroke="midnightblue" points="564.03,-86.13 563.04,-75.59 557.24,-84.45 564.03,-86.13"/>
</g>
<!-- Node25&#45;&gt;Node7 -->
<g id="edge44" class="edge">
<title>Node25&#45;&gt;Node7</title>
<path fill="none" stroke="midnightblue" d="M522.5,-168.08C522.11,-161.01 521.55,-150.86 521.05,-141.99"/>
<polygon fill="midnightblue" stroke="midnightblue" points="524.54,-141.54 520.49,-131.75 517.55,-141.93 524.54,-141.54"/>
</g>
</g>
</svg>
        <g id="navigator" transform="translate(0 0)" fill="#404254">
                <rect fill="#f2f5e9" fill-opacity="0.5" stroke="#606060" stroke-width=".5" x="0" y="0" width="60" height="60"/>
                <use id="zoomplus" xlink:href="#zoomPlus" x="17" y="9" onmousedown="handleZoom(evt,'in')"/>
                <use id="zoomminus" xlink:href="#zoomMin" x="42" y="9" onmousedown="handleZoom(evt,'out')"/>
                <use id="reset" xlink:href="#resetDef" x="30" y="36" onmousedown="handleReset()"/>
                <g id="arrowUp" xlink:href="#dirArrow" transform="translate(30 24)" onmousedown="handlePan(0,-1)">
                  <use xlink:href="#rim" fill="#404040">
                        <set attributeName="fill" to="#808080" begin="arrowUp.mouseover" end="arrowUp.mouseout"/>
                  </use>
                  <path fill="none" stroke="white" stroke-width="1.5" d="M0,-3.0v7 M-2.5,-0.5L0,-3.0L2.5,-0.5"/>
                </g>
                <g id="arrowRight" xlink:href="#dirArrow" transform="rotate(90) translate(36 -43)" onmousedown="handlePan(1,0)">
                  <use xlink:href="#rim" fill="#404040">
                        <set attributeName="fill" to="#808080" begin="arrowRight.mouseover" end="arrowRight.mouseout"/>
                  </use>
                  <path fill="none" stroke="white" stroke-width="1.5" d="M0,-3.0v7 M-2.5,-0.5L0,-3.0L2.5,-0.5"/>
                </g>
                <g id="arrowDown" xlink:href="#dirArrow" transform="rotate(180) translate(-30 -48)" onmousedown="handlePan(0,1)">
                  <use xlink:href="#rim" fill="#404040">
                        <set attributeName="fill" to="#808080" begin="arrowDown.mouseover" end="arrowDown.mouseout"/>
                  </use>
                  <path fill="none" stroke="white" stroke-width="1.5" d="M0,-3.0v7 M-2.5,-0.5L0,-3.0L2.5,-0.5"/>
                </g>
                <g id="arrowLeft" xlink:href="#dirArrow" transform="rotate(270) translate(-36 17)" onmousedown="handlePan(-1,0)">
                  <use xlink:href="#rim" fill="#404040">
                        <set attributeName="fill" to="#808080" begin="arrowLeft.mouseover" end="arrowLeft.mouseout"/>
                  </use>
                  <path fill="none" stroke="white" stroke-width="1.5" d="M0,-3.0v7 M-2.5,-0.5L0,-3.0L2.5,-0.5"/>
                </g>
        </g>
        <svg viewBox="0 0 15 15" width="100%" height="30px" preserveAspectRatio="xMaxYMin meet">
         <g id="arrow_out" transform="scale(0.3 0.3)">
          <a xlink:href="ps2mouse_8c__incl_org.svg" target="_base">
           <rect id="button" ry="5" rx="5" y="6" x="6" height="38" width="38"
                fill="#f2f5e9" fill-opacity="0.5" stroke="#606060" stroke-width="1.0"/>
           <path id="arrow"
             d="M 11.500037,31.436501 C 11.940474,20.09759 22.043105,11.32322 32.158766,21.979434 L 37.068811,17.246167 C 37.068811,17.246167 37.088388,32 37.088388,32 L 22.160133,31.978069 C 22.160133,31.978069 26.997745,27.140456 26.997745,27.140456 C 18.528582,18.264221 13.291696,25.230495 11.500037,31.436501 z"
             style="fill:#404040;"/>
          </a>
         </g>
        </svg>
</svg>
