<?xml version="1.0" encoding="UTF-8" standalone="no"?>
<!DOCTYPE svg PUBLIC "-//W3C//DTD SVG 1.1//EN"
 "http://www.w3.org/Graphics/SVG/1.1/DTD/svg11.dtd">
<!-- Generated by graphviz version 2.46.1 (20210215.1649)
 -->
<!-- Title: ee/rpc/cdvd/src/scmd.c Pages: 1 -->
<!--zoomable 308 -->
<svg id="main" version="1.1" xmlns="http://www.w3.org/2000/svg" xmlns:xlink="http://www.w3.org/1999/xlink" xml:space="preserve" onload="init(evt)">
<style type="text/css"><![CDATA[
.edge:hover path { stroke: red; }
.edge:hover polygon { stroke: red; fill: red; }
]]></style>
<script type="text/javascript"><![CDATA[
var edges = document.getElementsByTagName('g');
if (edges && edges.length) {
  for (var i=0;i<edges.length;i++) {
    if (edges[i].id.substr(0,4)=='edge') {
      edges[i].setAttribute('class','edge');
    }
  }
}
]]></script>
        <defs>
                <circle id="rim" cx="0" cy="0" r="7"/>
                <circle id="rim2" cx="0" cy="0" r="3.5"/>
                <g id="zoomPlus">
                        <use xlink:href="#rim" fill="#404040">
                                <set attributeName="fill" to="#808080" begin="zoomplus.mouseover" end="zoomplus.mouseout"/>
                        </use>
                        <path d="M-4,0h8M0,-4v8" fill="none" stroke="white" stroke-width="1.5" pointer-events="none"/>
                </g>
                <g id="zoomMin">
                        <use xlink:href="#rim" fill="#404040">
                                <set attributeName="fill" to="#808080" begin="zoomminus.mouseover" end="zoomminus.mouseout"/>
                        </use>
                        <path d="M-4,0h8" fill="none" stroke="white" stroke-width="1.5" pointer-events="none"/>
                </g>
                <g id="dirArrow">
                        <path fill="none" stroke="white" stroke-width="1.5" d="M0,-3.0v7 M-2.5,-0.5L0,-3.0L2.5,-0.5"/>
                </g>
               <g id="resetDef">
                       <use xlink:href="#rim2" fill="#404040">
                               <set attributeName="fill" to="#808080" begin="reset.mouseover" end="reset.mouseout"/>
                       </use>
               </g>
        </defs>

<script type="text/javascript">
var viewWidth = 615;
var viewHeight = 308;
var sectionId = 'dynsection-0';
</script>
<script xlink:href="svgpan.js"/>
<svg id="graph" class="graph">
<g id="viewport">
<title>ee/rpc/cdvd/src/scmd.c</title>
<polygon fill="white" stroke="transparent" points="-4,4 -4,-304 610.57,-304 610.57,4 -4,4"/>
<!-- Node1 -->
<g id="node1" class="node">
<title>Node1</title>
<g id="a_node1"><a xlink:title=" ">
<polygon fill="#bfbfbf" stroke="black" points="271.07,-280.5 271.07,-299.5 390.07,-299.5 390.07,-280.5 271.07,-280.5"/>
<text text-anchor="middle" x="330.57" y="-287.5" font-family="Helvetica,sans-Serif" font-size="10.00">ee/rpc/cdvd/src/scmd.c</text>
</a>
</g>
</g>
<!-- Node2 -->
<g id="node2" class="node">
<title>Node2</title>
<g id="a_node2"><a xlink:href="stdio_8h.html" target="_top" xlink:title=" ">
<polygon fill="white" stroke="black" points="87.07,-168.5 87.07,-187.5 132.07,-187.5 132.07,-168.5 87.07,-168.5"/>
<text text-anchor="middle" x="109.57" y="-175.5" font-family="Helvetica,sans-Serif" font-size="10.00">stdio.h</text>
</a>
</g>
</g>
<!-- Node1&#45;&gt;Node2 -->
<g id="edge1" class="edge">
<title>Node1&#45;&gt;Node2</title>
<path fill="none" stroke="midnightblue" d="M272.36,-280.49C240.59,-273.98 201.53,-262.79 170.57,-244 150.2,-231.63 132.26,-210.61 121.2,-195.83"/>
<polygon fill="midnightblue" stroke="midnightblue" points="123.93,-193.64 115.24,-187.57 118.25,-197.73 123.93,-193.64"/>
</g>
<!-- Node8 -->
<g id="node8" class="node">
<title>Node8</title>
<g id="a_node8"><a xlink:href="kernel_8h.html" target="_top" xlink:title=" ">
<polygon fill="white" stroke="black" points="5.57,-168.5 5.57,-187.5 55.57,-187.5 55.57,-168.5 5.57,-168.5"/>
<text text-anchor="middle" x="30.57" y="-175.5" font-family="Helvetica,sans-Serif" font-size="10.00">kernel.h</text>
</a>
</g>
</g>
<!-- Node1&#45;&gt;Node8 -->
<g id="edge7" class="edge">
<title>Node1&#45;&gt;Node8</title>
<path fill="none" stroke="midnightblue" d="M276.32,-280.49C237.81,-273.4 185.4,-261.59 141.57,-244 108.03,-230.53 72.52,-208.11 50.95,-193.44"/>
<polygon fill="midnightblue" stroke="midnightblue" points="52.82,-190.48 42.61,-187.67 48.85,-196.24 52.82,-190.48"/>
</g>
<!-- Node10 -->
<g id="node10" class="node">
<title>Node10</title>
<g id="a_node10"><a xlink:title=" ">
<polygon fill="white" stroke="#bfbfbf" points="422.57,-224.5 422.57,-243.5 470.57,-243.5 470.57,-224.5 422.57,-224.5"/>
<text text-anchor="middle" x="446.57" y="-231.5" font-family="Helvetica,sans-Serif" font-size="10.00">sifrpc.h</text>
</a>
</g>
</g>
<!-- Node1&#45;&gt;Node10 -->
<g id="edge12" class="edge">
<title>Node1&#45;&gt;Node10</title>
<path fill="none" stroke="midnightblue" d="M348.96,-280.44C367.79,-271.68 397.31,-257.94 418.95,-247.86"/>
<polygon fill="midnightblue" stroke="midnightblue" points="420.69,-250.91 428.28,-243.52 417.74,-244.56 420.69,-250.91"/>
</g>
<!-- Node11 -->
<g id="node11" class="node">
<title>Node11</title>
<g id="a_node11"><a xlink:href="libcdvd_8h.html" target="_top" xlink:title=" ">
<polygon fill="white" stroke="black" points="253.07,-168.5 253.07,-187.5 308.07,-187.5 308.07,-168.5 253.07,-168.5"/>
<text text-anchor="middle" x="280.57" y="-175.5" font-family="Helvetica,sans-Serif" font-size="10.00">libcdvd.h</text>
</a>
</g>
</g>
<!-- Node1&#45;&gt;Node11 -->
<g id="edge13" class="edge">
<title>Node1&#45;&gt;Node11</title>
<path fill="none" stroke="midnightblue" d="M318.14,-280.22C307.75,-272.11 293.54,-259.07 286.57,-244 279.89,-229.53 278.74,-211.35 279.06,-197.89"/>
<polygon fill="midnightblue" stroke="midnightblue" points="282.55,-198.06 279.58,-187.89 275.56,-197.69 282.55,-198.06"/>
</g>
<!-- Node13 -->
<g id="node13" class="node">
<title>Node13</title>
<g id="a_node13"><a xlink:href="libcdvd-rpc_8h.html" target="_top" xlink:title=" ">
<polygon fill="white" stroke="black" points="385.07,-56.5 385.07,-75.5 456.07,-75.5 456.07,-56.5 385.07,-56.5"/>
<text text-anchor="middle" x="420.57" y="-63.5" font-family="Helvetica,sans-Serif" font-size="10.00">libcdvd&#45;rpc.h</text>
</a>
</g>
</g>
<!-- Node1&#45;&gt;Node13 -->
<g id="edge16" class="edge">
<title>Node1&#45;&gt;Node13</title>
<path fill="none" stroke="midnightblue" d="M342.31,-280.3C352.59,-272.07 367.16,-258.79 375.57,-244 405.3,-191.74 415.68,-119.77 419.06,-85.98"/>
<polygon fill="midnightblue" stroke="midnightblue" points="422.58,-85.98 419.99,-75.71 415.61,-85.36 422.58,-85.98"/>
</g>
<!-- Node14 -->
<g id="node14" class="node">
<title>Node14</title>
<g id="a_node14"><a xlink:href="string_8h_source.html" target="_top" xlink:title=" ">
<polygon fill="white" stroke="black" points="179.57,-224.5 179.57,-243.5 227.57,-243.5 227.57,-224.5 179.57,-224.5"/>
<text text-anchor="middle" x="203.57" y="-231.5" font-family="Helvetica,sans-Serif" font-size="10.00">string.h</text>
</a>
</g>
</g>
<!-- Node1&#45;&gt;Node14 -->
<g id="edge18" class="edge">
<title>Node1&#45;&gt;Node14</title>
<path fill="none" stroke="midnightblue" d="M310.45,-280.44C289.55,-271.56 256.64,-257.56 232.86,-247.45"/>
<polygon fill="midnightblue" stroke="midnightblue" points="234.18,-244.21 223.6,-243.52 231.44,-250.65 234.18,-244.21"/>
</g>
<!-- Node17 -->
<g id="node17" class="node">
<title>Node17</title>
<g id="a_node17"><a xlink:href="time_8h.html" target="_top" xlink:title=" ">
<polygon fill="white" stroke="black" points="489.07,-224.5 489.07,-243.5 532.07,-243.5 532.07,-224.5 489.07,-224.5"/>
<text text-anchor="middle" x="510.57" y="-231.5" font-family="Helvetica,sans-Serif" font-size="10.00">time.h</text>
</a>
</g>
</g>
<!-- Node1&#45;&gt;Node17 -->
<g id="edge25" class="edge">
<title>Node1&#45;&gt;Node17</title>
<path fill="none" stroke="midnightblue" d="M359.1,-280.44C391.8,-270.63 445.24,-254.6 479.12,-244.44"/>
<polygon fill="midnightblue" stroke="midnightblue" points="480.39,-247.71 488.97,-241.48 478.38,-241 480.39,-247.71"/>
</g>
<!-- Node18 -->
<g id="node18" class="node">
<title>Node18</title>
<g id="a_node18"><a xlink:href="osd__config_8h.html" target="_top" xlink:title=" ">
<polygon fill="white" stroke="black" points="295.07,-224.5 295.07,-243.5 366.07,-243.5 366.07,-224.5 295.07,-224.5"/>
<text text-anchor="middle" x="330.57" y="-231.5" font-family="Helvetica,sans-Serif" font-size="10.00">osd_config.h</text>
</a>
</g>
</g>
<!-- Node1&#45;&gt;Node18 -->
<g id="edge26" class="edge">
<title>Node1&#45;&gt;Node18</title>
<path fill="none" stroke="midnightblue" d="M330.57,-280.08C330.57,-273.01 330.57,-262.86 330.57,-253.99"/>
<polygon fill="midnightblue" stroke="midnightblue" points="334.07,-253.75 330.57,-243.75 327.07,-253.75 334.07,-253.75"/>
</g>
<!-- Node19 -->
<g id="node19" class="node">
<title>Node19</title>
<g id="a_node19"><a xlink:href="ee_2rpc_2cdvd_2src_2internal_8h.html" target="_top" xlink:title=" ">
<polygon fill="white" stroke="black" points="550.57,-224.5 550.57,-243.5 606.57,-243.5 606.57,-224.5 550.57,-224.5"/>
<text text-anchor="middle" x="578.57" y="-231.5" font-family="Helvetica,sans-Serif" font-size="10.00">internal.h</text>
</a>
</g>
</g>
<!-- Node1&#45;&gt;Node19 -->
<g id="edge29" class="edge">
<title>Node1&#45;&gt;Node19</title>
<path fill="none" stroke="midnightblue" d="M372.29,-280.47C412.83,-272.1 476.38,-258.76 540.45,-244.21"/>
<polygon fill="midnightblue" stroke="midnightblue" points="541.34,-247.6 550.31,-241.96 539.78,-240.77 541.34,-247.6"/>
</g>
<!-- Node3 -->
<g id="node3" class="node">
<title>Node3</title>
<g id="a_node3"><a xlink:title=" ">
<polygon fill="white" stroke="#bfbfbf" points="35.07,-112.5 35.07,-131.5 86.07,-131.5 86.07,-112.5 35.07,-112.5"/>
<text text-anchor="middle" x="60.57" y="-119.5" font-family="Helvetica,sans-Serif" font-size="10.00">stdarg.h</text>
</a>
</g>
</g>
<!-- Node2&#45;&gt;Node3 -->
<g id="edge2" class="edge">
<title>Node2&#45;&gt;Node3</title>
<path fill="none" stroke="midnightblue" d="M101.48,-168.08C94.42,-160.3 83.99,-148.8 75.43,-139.37"/>
<polygon fill="midnightblue" stroke="midnightblue" points="77.83,-136.8 68.52,-131.75 72.64,-141.51 77.83,-136.8"/>
</g>
<!-- Node4 -->
<g id="node4" class="node">
<title>Node4</title>
<g id="a_node4"><a xlink:href="irx_8h.html" target="_top" xlink:title=" ">
<polygon fill="white" stroke="black" points="104.57,-112.5 104.57,-131.5 138.57,-131.5 138.57,-112.5 104.57,-112.5"/>
<text text-anchor="middle" x="121.57" y="-119.5" font-family="Helvetica,sans-Serif" font-size="10.00">irx.h</text>
</a>
</g>
</g>
<!-- Node2&#45;&gt;Node4 -->
<g id="edge3" class="edge">
<title>Node2&#45;&gt;Node4</title>
<path fill="none" stroke="midnightblue" d="M111.56,-168.08C113.15,-160.93 115.43,-150.64 117.42,-141.69"/>
<polygon fill="midnightblue" stroke="midnightblue" points="120.88,-142.27 119.63,-131.75 114.04,-140.75 120.88,-142.27"/>
</g>
<!-- Node5 -->
<g id="node5" class="node">
<title>Node5</title>
<g id="a_node5"><a xlink:href="types_8h_source.html" target="_top" xlink:title=" ">
<polygon fill="white" stroke="black" points="111.07,-56.5 111.07,-75.5 158.07,-75.5 158.07,-56.5 111.07,-56.5"/>
<text text-anchor="middle" x="134.57" y="-63.5" font-family="Helvetica,sans-Serif" font-size="10.00">types.h</text>
</a>
</g>
</g>
<!-- Node4&#45;&gt;Node5 -->
<g id="edge4" class="edge">
<title>Node4&#45;&gt;Node5</title>
<path fill="none" stroke="midnightblue" d="M123.72,-112.08C125.44,-104.93 127.92,-94.64 130.07,-85.69"/>
<polygon fill="midnightblue" stroke="midnightblue" points="133.53,-86.29 132.47,-75.75 126.72,-84.65 133.53,-86.29"/>
</g>
<!-- Node6 -->
<g id="node6" class="node">
<title>Node6</title>
<g id="a_node6"><a xlink:title=" ">
<polygon fill="white" stroke="#bfbfbf" points="61.07,-0.5 61.07,-19.5 112.07,-19.5 112.07,-0.5 61.07,-0.5"/>
<text text-anchor="middle" x="86.57" y="-7.5" font-family="Helvetica,sans-Serif" font-size="10.00">stddef.h</text>
</a>
</g>
</g>
<!-- Node5&#45;&gt;Node6 -->
<g id="edge5" class="edge">
<title>Node5&#45;&gt;Node6</title>
<path fill="none" stroke="midnightblue" d="M126.65,-56.08C119.73,-48.3 109.51,-36.8 101.12,-27.37"/>
<polygon fill="midnightblue" stroke="midnightblue" points="103.61,-24.9 94.35,-19.75 98.38,-29.55 103.61,-24.9"/>
</g>
<!-- Node7 -->
<g id="node7" class="node">
<title>Node7</title>
<g id="a_node7"><a xlink:href="tamtypes_8h.html" target="_top" xlink:title=" ">
<polygon fill="white" stroke="black" points="210.57,-0.5 210.57,-19.5 274.57,-19.5 274.57,-0.5 210.57,-0.5"/>
<text text-anchor="middle" x="242.57" y="-7.5" font-family="Helvetica,sans-Serif" font-size="10.00">tamtypes.h</text>
</a>
</g>
</g>
<!-- Node5&#45;&gt;Node7 -->
<g id="edge6" class="edge">
<title>Node5&#45;&gt;Node7</title>
<path fill="none" stroke="midnightblue" d="M151.93,-56.32C169.25,-47.66 196.09,-34.24 216.08,-24.25"/>
<polygon fill="midnightblue" stroke="midnightblue" points="217.89,-27.26 225.27,-19.65 214.76,-21 217.89,-27.26"/>
</g>
<!-- Node8&#45;&gt;Node3 -->
<g id="edge9" class="edge">
<title>Node8&#45;&gt;Node3</title>
<path fill="none" stroke="midnightblue" d="M35.53,-168.08C39.68,-160.61 45.73,-149.72 50.84,-140.52"/>
<polygon fill="midnightblue" stroke="midnightblue" points="53.92,-142.19 55.71,-131.75 47.8,-138.79 53.92,-142.19"/>
</g>
<!-- Node8&#45;&gt;Node6 -->
<g id="edge8" class="edge">
<title>Node8&#45;&gt;Node6</title>
<path fill="none" stroke="midnightblue" d="M25.35,-168.41C13.43,-147.63 -13.1,-93.53 8.57,-56 17.83,-39.97 35.22,-29.14 51.23,-22.13"/>
<polygon fill="midnightblue" stroke="midnightblue" points="52.95,-25.21 60.93,-18.25 50.35,-18.71 52.95,-25.21"/>
</g>
<!-- Node9 -->
<g id="node9" class="node">
<title>Node9</title>
<g id="a_node9"><a xlink:href="sifdma_8h.html" target="_top" xlink:title=" ">
<polygon fill="white" stroke="black" points="18.07,-56.5 18.07,-75.5 71.07,-75.5 71.07,-56.5 18.07,-56.5"/>
<text text-anchor="middle" x="44.57" y="-63.5" font-family="Helvetica,sans-Serif" font-size="10.00">sifdma.h</text>
</a>
</g>
</g>
<!-- Node8&#45;&gt;Node9 -->
<g id="edge10" class="edge">
<title>Node8&#45;&gt;Node9</title>
<path fill="none" stroke="midnightblue" d="M28.45,-168.49C25.65,-155.99 21.53,-131.97 25.57,-112 27.47,-102.65 31.37,-92.83 35.14,-84.75"/>
<polygon fill="midnightblue" stroke="midnightblue" points="38.36,-86.14 39.7,-75.63 32.1,-83.01 38.36,-86.14"/>
</g>
<!-- Node9&#45;&gt;Node7 -->
<g id="edge11" class="edge">
<title>Node9&#45;&gt;Node7</title>
<path fill="none" stroke="midnightblue" d="M71.28,-57.72C104.61,-48.63 161.99,-32.98 201.07,-22.32"/>
<polygon fill="midnightblue" stroke="midnightblue" points="202.35,-25.6 211.08,-19.59 200.51,-18.84 202.35,-25.6"/>
</g>
<!-- Node12 -->
<g id="node12" class="node">
<title>Node12</title>
<g id="a_node12"><a xlink:href="libcdvd-common_8h.html" target="_top" xlink:title=" ">
<polygon fill="white" stroke="black" points="233.07,-112.5 233.07,-131.5 328.07,-131.5 328.07,-112.5 233.07,-112.5"/>
<text text-anchor="middle" x="280.57" y="-119.5" font-family="Helvetica,sans-Serif" font-size="10.00">libcdvd&#45;common.h</text>
</a>
</g>
</g>
<!-- Node11&#45;&gt;Node12 -->
<g id="edge14" class="edge">
<title>Node11&#45;&gt;Node12</title>
<path fill="none" stroke="midnightblue" d="M280.57,-168.08C280.57,-161.01 280.57,-150.86 280.57,-141.99"/>
<polygon fill="midnightblue" stroke="midnightblue" points="284.07,-141.75 280.57,-131.75 277.07,-141.75 284.07,-141.75"/>
</g>
<!-- Node12&#45;&gt;Node7 -->
<g id="edge15" class="edge">
<title>Node12&#45;&gt;Node7</title>
<path fill="none" stroke="midnightblue" d="M277.59,-112.37C271.43,-94.54 257.19,-53.3 248.89,-29.27"/>
<polygon fill="midnightblue" stroke="midnightblue" points="252.12,-27.9 245.54,-19.59 245.5,-30.19 252.12,-27.9"/>
</g>
<!-- Node13&#45;&gt;Node7 -->
<g id="edge17" class="edge">
<title>Node13&#45;&gt;Node7</title>
<path fill="none" stroke="midnightblue" d="M392.37,-56.44C362.16,-47.28 314.06,-32.69 280.55,-22.52"/>
<polygon fill="midnightblue" stroke="midnightblue" points="281.23,-19.07 270.65,-19.52 279.2,-25.77 281.23,-19.07"/>
</g>
<!-- Node15 -->
<g id="node15" class="node">
<title>Node15</title>
<g id="a_node15"><a xlink:href="sysclib_8h.html" target="_top" xlink:title=" ">
<polygon fill="white" stroke="black" points="150.57,-168.5 150.57,-187.5 204.57,-187.5 204.57,-168.5 150.57,-168.5"/>
<text text-anchor="middle" x="177.57" y="-175.5" font-family="Helvetica,sans-Serif" font-size="10.00">sysclib.h</text>
</a>
</g>
</g>
<!-- Node14&#45;&gt;Node15 -->
<g id="edge19" class="edge">
<title>Node14&#45;&gt;Node15</title>
<path fill="none" stroke="midnightblue" d="M199.28,-224.08C195.72,-216.69 190.55,-205.95 186.15,-196.81"/>
<polygon fill="midnightblue" stroke="midnightblue" points="189.28,-195.24 181.79,-187.75 182.97,-198.28 189.28,-195.24"/>
</g>
<!-- Node15&#45;&gt;Node3 -->
<g id="edge22" class="edge">
<title>Node15&#45;&gt;Node3</title>
<path fill="none" stroke="midnightblue" d="M159.04,-168.44C139.95,-159.64 110,-145.81 88.14,-135.72"/>
<polygon fill="midnightblue" stroke="midnightblue" points="89.57,-132.53 79.03,-131.52 86.64,-138.88 89.57,-132.53"/>
</g>
<!-- Node15&#45;&gt;Node4 -->
<g id="edge21" class="edge">
<title>Node15&#45;&gt;Node4</title>
<path fill="none" stroke="midnightblue" d="M168.58,-168.32C160.38,-160.42 148.07,-148.55 138.1,-138.94"/>
<polygon fill="midnightblue" stroke="midnightblue" points="140.36,-136.26 130.74,-131.83 135.5,-141.29 140.36,-136.26"/>
</g>
<!-- Node15&#45;&gt;Node5 -->
<g id="edge20" class="edge">
<title>Node15&#45;&gt;Node5</title>
<path fill="none" stroke="midnightblue" d="M174.2,-168.37C167.2,-150.46 150.96,-108.92 141.59,-84.95"/>
<polygon fill="midnightblue" stroke="midnightblue" points="144.83,-83.63 137.93,-75.59 138.31,-86.18 144.83,-83.63"/>
</g>
<!-- Node16 -->
<g id="node16" class="node">
<title>Node16</title>
<g id="a_node16"><a xlink:href="setjmp_8h.html" target="_top" xlink:title=" ">
<polygon fill="white" stroke="black" points="183.07,-56.5 183.07,-75.5 236.07,-75.5 236.07,-56.5 183.07,-56.5"/>
<text text-anchor="middle" x="209.57" y="-63.5" font-family="Helvetica,sans-Serif" font-size="10.00">setjmp.h</text>
</a>
</g>
</g>
<!-- Node15&#45;&gt;Node16 -->
<g id="edge23" class="edge">
<title>Node15&#45;&gt;Node16</title>
<path fill="none" stroke="midnightblue" d="M180.09,-168.37C185.27,-150.54 197.27,-109.3 204.26,-85.27"/>
<polygon fill="midnightblue" stroke="midnightblue" points="207.64,-86.17 207.08,-75.59 200.92,-84.22 207.64,-86.17"/>
</g>
<!-- Node16&#45;&gt;Node7 -->
<g id="edge24" class="edge">
<title>Node16&#45;&gt;Node7</title>
<path fill="none" stroke="midnightblue" d="M215.02,-56.08C219.59,-48.61 226.24,-37.72 231.87,-28.52"/>
<polygon fill="midnightblue" stroke="midnightblue" points="235,-30.11 237.23,-19.75 229.03,-26.46 235,-30.11"/>
</g>
<!-- Node18&#45;&gt;Node7 -->
<g id="edge27" class="edge">
<title>Node18&#45;&gt;Node7</title>
<path fill="none" stroke="midnightblue" d="M333.47,-224.39C339.82,-204.01 353.24,-151.51 337.57,-112 322.79,-74.69 286.97,-43.15 263.79,-25.68"/>
<polygon fill="midnightblue" stroke="midnightblue" points="265.73,-22.76 255.59,-19.69 261.6,-28.41 265.73,-22.76"/>
</g>
<!-- Node18&#45;&gt;Node11 -->
<g id="edge28" class="edge">
<title>Node18&#45;&gt;Node11</title>
<path fill="none" stroke="midnightblue" d="M322.32,-224.08C315.11,-216.3 304.46,-204.8 295.73,-195.37"/>
<polygon fill="midnightblue" stroke="midnightblue" points="298.04,-192.71 288.68,-187.75 292.9,-197.47 298.04,-192.71"/>
</g>
</g>
</svg>
        <g id="navigator" transform="translate(0 0)" fill="#404254">
                <rect fill="#f2f5e9" fill-opacity="0.5" stroke="#606060" stroke-width=".5" x="0" y="0" width="60" height="60"/>
                <use id="zoomplus" xlink:href="#zoomPlus" x="17" y="9" onmousedown="handleZoom(evt,'in')"/>
                <use id="zoomminus" xlink:href="#zoomMin" x="42" y="9" onmousedown="handleZoom(evt,'out')"/>
                <use id="reset" xlink:href="#resetDef" x="30" y="36" onmousedown="handleReset()"/>
                <g id="arrowUp" xlink:href="#dirArrow" transform="translate(30 24)" onmousedown="handlePan(0,-1)">
                  <use xlink:href="#rim" fill="#404040">
                        <set attributeName="fill" to="#808080" begin="arrowUp.mouseover" end="arrowUp.mouseout"/>
                  </use>
                  <path fill="none" stroke="white" stroke-width="1.5" d="M0,-3.0v7 M-2.5,-0.5L0,-3.0L2.5,-0.5"/>
                </g>
                <g id="arrowRight" xlink:href="#dirArrow" transform="rotate(90) translate(36 -43)" onmousedown="handlePan(1,0)">
                  <use xlink:href="#rim" fill="#404040">
                        <set attributeName="fill" to="#808080" begin="arrowRight.mouseover" end="arrowRight.mouseout"/>
                  </use>
                  <path fill="none" stroke="white" stroke-width="1.5" d="M0,-3.0v7 M-2.5,-0.5L0,-3.0L2.5,-0.5"/>
                </g>
                <g id="arrowDown" xlink:href="#dirArrow" transform="rotate(180) translate(-30 -48)" onmousedown="handlePan(0,1)">
                  <use xlink:href="#rim" fill="#404040">
                        <set attributeName="fill" to="#808080" begin="arrowDown.mouseover" end="arrowDown.mouseout"/>
                  </use>
                  <path fill="none" stroke="white" stroke-width="1.5" d="M0,-3.0v7 M-2.5,-0.5L0,-3.0L2.5,-0.5"/>
                </g>
                <g id="arrowLeft" xlink:href="#dirArrow" transform="rotate(270) translate(-36 17)" onmousedown="handlePan(-1,0)">
                  <use xlink:href="#rim" fill="#404040">
                        <set attributeName="fill" to="#808080" begin="arrowLeft.mouseover" end="arrowLeft.mouseout"/>
                  </use>
                  <path fill="none" stroke="white" stroke-width="1.5" d="M0,-3.0v7 M-2.5,-0.5L0,-3.0L2.5,-0.5"/>
                </g>
        </g>
        <svg viewBox="0 0 15 15" width="100%" height="30px" preserveAspectRatio="xMaxYMin meet">
         <g id="arrow_out" transform="scale(0.3 0.3)">
          <a xlink:href="scmd_8c__incl_org.svg" target="_base">
           <rect id="button" ry="5" rx="5" y="6" x="6" height="38" width="38"
                fill="#f2f5e9" fill-opacity="0.5" stroke="#606060" stroke-width="1.0"/>
           <path id="arrow"
             d="M 11.500037,31.436501 C 11.940474,20.09759 22.043105,11.32322 32.158766,21.979434 L 37.068811,17.246167 C 37.068811,17.246167 37.088388,32 37.088388,32 L 22.160133,31.978069 C 22.160133,31.978069 26.997745,27.140456 26.997745,27.140456 C 18.528582,18.264221 13.291696,25.230495 11.500037,31.436501 z"
             style="fill:#404040;"/>
          </a>
         </g>
        </svg>
</svg>
