<?xml version="1.0" encoding="UTF-8" standalone="no"?>
<!DOCTYPE svg PUBLIC "-//W3C//DTD SVG 1.1//EN"
 "http://www.w3.org/Graphics/SVG/1.1/DTD/svg11.dtd">
<!-- Generated by graphviz version 2.46.1 (20210215.1649)
 -->
<!-- Title: iop/system/sio2man/include/sio2man.h Pages: 1 -->
<!--zoomable 240 -->
<svg id="main" version="1.1" xmlns="http://www.w3.org/2000/svg" xmlns:xlink="http://www.w3.org/1999/xlink" xml:space="preserve" onload="init(evt)">
<style type="text/css"><![CDATA[
.edge:hover path { stroke: red; }
.edge:hover polygon { stroke: red; fill: red; }
]]></style>
<script type="text/javascript"><![CDATA[
var edges = document.getElementsByTagName('g');
if (edges && edges.length) {
  for (var i=0;i<edges.length;i++) {
    if (edges[i].id.substr(0,4)=='edge') {
      edges[i].setAttribute('class','edge');
    }
  }
}
]]></script>
        <defs>
                <circle id="rim" cx="0" cy="0" r="7"/>
                <circle id="rim2" cx="0" cy="0" r="3.5"/>
                <g id="zoomPlus">
                        <use xlink:href="#rim" fill="#404040">
                                <set attributeName="fill" to="#808080" begin="zoomplus.mouseover" end="zoomplus.mouseout"/>
                        </use>
                        <path d="M-4,0h8M0,-4v8" fill="none" stroke="white" stroke-width="1.5" pointer-events="none"/>
                </g>
                <g id="zoomMin">
                        <use xlink:href="#rim" fill="#404040">
                                <set attributeName="fill" to="#808080" begin="zoomminus.mouseover" end="zoomminus.mouseout"/>
                        </use>
                        <path d="M-4,0h8" fill="none" stroke="white" stroke-width="1.5" pointer-events="none"/>
                </g>
                <g id="dirArrow">
                        <path fill="none" stroke="white" stroke-width="1.5" d="M0,-3.0v7 M-2.5,-0.5L0,-3.0L2.5,-0.5"/>
                </g>
               <g id="resetDef">
                       <use xlink:href="#rim2" fill="#404040">
                               <set attributeName="fill" to="#808080" begin="reset.mouseover" end="reset.mouseout"/>
                       </use>
               </g>
        </defs>

<script type="text/javascript">
var viewWidth = 1573;
var viewHeight = 240;
var sectionId = 'dynsection-1';
</script>
<script xlink:href="svgpan.js"/>
<svg id="graph" class="graph">
<g id="viewport">
<title>iop/system/sio2man/include/sio2man.h</title>
<polygon fill="white" stroke="transparent" points="-4,4 -4,-236 1568.5,-236 1568.5,4 -4,4"/>
<!-- Node1 -->
<g id="node1" class="node">
<title>Node1</title>
<g id="a_node1"><a xlink:title=" ">
<polygon fill="#bfbfbf" stroke="black" points="462.5,-201.5 462.5,-231.5 566.5,-231.5 566.5,-201.5 462.5,-201.5"/>
<text text-anchor="start" x="470.5" y="-219.5" font-family="Helvetica,sans-Serif" font-size="10.00">iop/system/sio2man</text>
<text text-anchor="middle" x="514.5" y="-208.5" font-family="Helvetica,sans-Serif" font-size="10.00">/include/sio2man.h</text>
</a>
</g>
</g>
<!-- Node2 -->
<g id="node2" class="node">
<title>Node2</title>
<g id="a_node2"><a xlink:href="secrman_8h.html" target="_top" xlink:title=" ">
<polygon fill="white" stroke="black" points="254.5,-134.5 254.5,-164.5 346.5,-164.5 346.5,-134.5 254.5,-134.5"/>
<text text-anchor="start" x="262.5" y="-152.5" font-family="Helvetica,sans-Serif" font-size="10.00">iop/kernel/include</text>
<text text-anchor="middle" x="300.5" y="-141.5" font-family="Helvetica,sans-Serif" font-size="10.00">/secrman.h</text>
</a>
</g>
</g>
<!-- Node1&#45;&gt;Node2 -->
<g id="edge1" class="edge">
<title>Node1&#45;&gt;Node2</title>
<path fill="none" stroke="midnightblue" d="M458.76,-198.57C423.88,-187.97 379.48,-174.49 346.59,-164.5"/>
<polygon fill="midnightblue" stroke="midnightblue" points="457.74,-201.92 468.33,-201.48 459.78,-195.22 457.74,-201.92"/>
</g>
<!-- Node10 -->
<g id="node10" class="node">
<title>Node10</title>
<g id="a_node10"><a xlink:href="xsio2man_8h.html" target="_top" xlink:title=" ">
<polygon fill="white" stroke="black" points="817.5,-134.5 817.5,-164.5 909.5,-164.5 909.5,-134.5 817.5,-134.5"/>
<text text-anchor="start" x="825.5" y="-152.5" font-family="Helvetica,sans-Serif" font-size="10.00">iop/kernel/include</text>
<text text-anchor="middle" x="863.5" y="-141.5" font-family="Helvetica,sans-Serif" font-size="10.00">/xsio2man.h</text>
</a>
</g>
</g>
<!-- Node1&#45;&gt;Node10 -->
<g id="edge9" class="edge">
<title>Node1&#45;&gt;Node10</title>
<path fill="none" stroke="midnightblue" d="M576.63,-203.93C645.65,-191.07 755.5,-170.62 817.31,-159.1"/>
<polygon fill="midnightblue" stroke="midnightblue" points="575.94,-200.5 566.75,-205.77 577.22,-207.38 575.94,-200.5"/>
</g>
<!-- Node14 -->
<g id="node14" class="node">
<title>Node14</title>
<g id="a_node14"><a xlink:href="pad_data_8c.html" target="_top" xlink:title=" ">
<polygon fill="white" stroke="black" points="417.5,-67.5 417.5,-97.5 535.5,-97.5 535.5,-67.5 417.5,-67.5"/>
<text text-anchor="start" x="425.5" y="-85.5" font-family="Helvetica,sans-Serif" font-size="10.00">iop/system/padman/src</text>
<text text-anchor="middle" x="476.5" y="-74.5" font-family="Helvetica,sans-Serif" font-size="10.00">/padData.c</text>
</a>
</g>
</g>
<!-- Node1&#45;&gt;Node14 -->
<g id="edge23" class="edge">
<title>Node1&#45;&gt;Node14</title>
<path fill="none" stroke="midnightblue" d="M509.27,-191.43C505.56,-175.11 500.24,-153.12 494.5,-134 490.75,-121.52 485.72,-107.59 481.93,-97.52"/>
<polygon fill="midnightblue" stroke="midnightblue" points="505.87,-192.25 511.46,-201.25 512.7,-190.72 505.87,-192.25"/>
</g>
<!-- Node22 -->
<g id="node22" class="node">
<title>Node22</title>
<g id="a_node22"><a xlink:href="sio2man__imports_8h_source.html" target="_top" xlink:title=" ">
<polygon fill="white" stroke="black" points="365,-134.5 365,-164.5 486,-164.5 486,-134.5 365,-134.5"/>
<text text-anchor="start" x="373" y="-152.5" font-family="Helvetica,sans-Serif" font-size="10.00">iop/memorycard/mcman</text>
<text text-anchor="middle" x="425.5" y="-141.5" font-family="Helvetica,sans-Serif" font-size="10.00">/src/sio2man_imports.h</text>
</a>
</g>
</g>
<!-- Node1&#45;&gt;Node22 -->
<g id="edge21" class="edge">
<title>Node1&#45;&gt;Node22</title>
<path fill="none" stroke="midnightblue" d="M487.05,-195.45C473.36,-185.45 457.13,-173.6 444.77,-164.58"/>
<polygon fill="midnightblue" stroke="midnightblue" points="485.05,-198.32 495.19,-201.4 489.18,-192.67 485.05,-198.32"/>
</g>
<!-- Node23 -->
<g id="node23" class="node">
<title>Node23</title>
<g id="a_node23"><a xlink:href="log_8h.html" target="_top" xlink:title=" ">
<polygon fill="white" stroke="black" points="927.5,-134.5 927.5,-164.5 1031.5,-164.5 1031.5,-134.5 927.5,-134.5"/>
<text text-anchor="start" x="935.5" y="-152.5" font-family="Helvetica,sans-Serif" font-size="10.00">iop/system/sio2man</text>
<text text-anchor="middle" x="979.5" y="-141.5" font-family="Helvetica,sans-Serif" font-size="10.00">/include/log.h</text>
</a>
</g>
</g>
<!-- Node1&#45;&gt;Node23 -->
<g id="edge24" class="edge">
<title>Node1&#45;&gt;Node23</title>
<path fill="none" stroke="midnightblue" d="M577.1,-209.81C656.79,-202.08 798.51,-186.69 918.5,-165 921.39,-164.48 924.35,-163.9 927.34,-163.29"/>
<polygon fill="midnightblue" stroke="midnightblue" points="576.37,-206.37 566.75,-210.81 577.04,-213.33 576.37,-206.37"/>
</g>
<!-- Node3 -->
<g id="node3" class="node">
<title>Node3</title>
<g id="a_node3"><a xlink:href="iop_2memorycard_2mcman_2src_2irx__imports_8h_source.html" target="_top" xlink:title=" ">
<polygon fill="white" stroke="black" points="139,-67.5 139,-97.5 260,-97.5 260,-67.5 139,-67.5"/>
<text text-anchor="start" x="147" y="-85.5" font-family="Helvetica,sans-Serif" font-size="10.00">iop/memorycard/mcman</text>
<text text-anchor="middle" x="199.5" y="-74.5" font-family="Helvetica,sans-Serif" font-size="10.00">/src/irx_imports.h</text>
</a>
</g>
</g>
<!-- Node2&#45;&gt;Node3 -->
<g id="edge2" class="edge">
<title>Node2&#45;&gt;Node3</title>
<path fill="none" stroke="midnightblue" d="M269.79,-128.73C254.16,-118.68 235.53,-106.68 221.37,-97.58"/>
<polygon fill="midnightblue" stroke="midnightblue" points="268.28,-131.93 278.58,-134.4 272.07,-126.04 268.28,-131.93"/>
</g>
<!-- Node4 -->
<g id="node4" class="node">
<title>Node4</title>
<g id="a_node4"><a xlink:href="mcman-internal_8h_source.html" target="_top" xlink:title=" ">
<polygon fill="white" stroke="black" points="278,-67.5 278,-97.5 399,-97.5 399,-67.5 278,-67.5"/>
<text text-anchor="start" x="286" y="-85.5" font-family="Helvetica,sans-Serif" font-size="10.00">iop/memorycard/mcman</text>
<text text-anchor="middle" x="338.5" y="-74.5" font-family="Helvetica,sans-Serif" font-size="10.00">/src/mcman&#45;internal.h</text>
</a>
</g>
</g>
<!-- Node2&#45;&gt;Node4 -->
<g id="edge3" class="edge">
<title>Node2&#45;&gt;Node4</title>
<path fill="none" stroke="midnightblue" d="M313.9,-125.58C319.36,-116.24 325.49,-105.75 330.27,-97.58"/>
<polygon fill="midnightblue" stroke="midnightblue" points="310.77,-124 308.75,-134.4 316.81,-127.53 310.77,-124"/>
</g>
<!-- Node5 -->
<g id="node5" class="node">
<title>Node5</title>
<g id="a_node5"><a xlink:href="iop_2memorycard_2mcman_2src_2main_8c_source.html" target="_top" xlink:title=" ">
<polygon fill="white" stroke="black" points="0,-0.5 0,-30.5 121,-30.5 121,-0.5 0,-0.5"/>
<text text-anchor="start" x="8" y="-18.5" font-family="Helvetica,sans-Serif" font-size="10.00">iop/memorycard/mcman</text>
<text text-anchor="middle" x="60.5" y="-7.5" font-family="Helvetica,sans-Serif" font-size="10.00">/src/main.c</text>
</a>
</g>
</g>
<!-- Node4&#45;&gt;Node5 -->
<g id="edge4" class="edge">
<title>Node4&#45;&gt;Node5</title>
<path fill="none" stroke="midnightblue" d="M268.72,-65.19C223.2,-54.54 164.36,-40.78 120.85,-30.61"/>
<polygon fill="midnightblue" stroke="midnightblue" points="267.99,-68.61 278.52,-67.48 269.58,-61.79 267.99,-68.61"/>
</g>
<!-- Node6 -->
<g id="node6" class="node">
<title>Node6</title>
<g id="a_node6"><a xlink:href="mcdev_8c_source.html" target="_top" xlink:title=" ">
<polygon fill="white" stroke="black" points="139,-0.5 139,-30.5 260,-30.5 260,-0.5 139,-0.5"/>
<text text-anchor="start" x="147" y="-18.5" font-family="Helvetica,sans-Serif" font-size="10.00">iop/memorycard/mcman</text>
<text text-anchor="middle" x="199.5" y="-7.5" font-family="Helvetica,sans-Serif" font-size="10.00">/src/mcdev.c</text>
</a>
</g>
</g>
<!-- Node4&#45;&gt;Node6 -->
<g id="edge5" class="edge">
<title>Node4&#45;&gt;Node6</title>
<path fill="none" stroke="midnightblue" d="M299.22,-63.13C277.13,-52.8 249.99,-40.11 229.6,-30.58"/>
<polygon fill="midnightblue" stroke="midnightblue" points="297.8,-66.33 308.34,-67.4 300.76,-59.99 297.8,-66.33"/>
</g>
<!-- Node7 -->
<g id="node7" class="node">
<title>Node7</title>
<g id="a_node7"><a xlink:href="mcsio2_8c_source.html" target="_top" xlink:title=" ">
<polygon fill="white" stroke="black" points="278,-0.5 278,-30.5 399,-30.5 399,-0.5 278,-0.5"/>
<text text-anchor="start" x="286" y="-18.5" font-family="Helvetica,sans-Serif" font-size="10.00">iop/memorycard/mcman</text>
<text text-anchor="middle" x="338.5" y="-7.5" font-family="Helvetica,sans-Serif" font-size="10.00">/src/mcsio2.c</text>
</a>
</g>
</g>
<!-- Node4&#45;&gt;Node7 -->
<g id="edge6" class="edge">
<title>Node4&#45;&gt;Node7</title>
<path fill="none" stroke="midnightblue" d="M338.5,-57.11C338.5,-48.15 338.5,-38.32 338.5,-30.58"/>
<polygon fill="midnightblue" stroke="midnightblue" points="335,-57.4 338.5,-67.4 342,-57.4 335,-57.4"/>
</g>
<!-- Node8 -->
<g id="node8" class="node">
<title>Node8</title>
<g id="a_node8"><a xlink:href="ps1mc__fio_8c_source.html" target="_top" xlink:title=" ">
<polygon fill="white" stroke="black" points="417,-0.5 417,-30.5 538,-30.5 538,-0.5 417,-0.5"/>
<text text-anchor="start" x="425" y="-18.5" font-family="Helvetica,sans-Serif" font-size="10.00">iop/memorycard/mcman</text>
<text text-anchor="middle" x="477.5" y="-7.5" font-family="Helvetica,sans-Serif" font-size="10.00">/src/ps1mc_fio.c</text>
</a>
</g>
</g>
<!-- Node4&#45;&gt;Node8 -->
<g id="edge7" class="edge">
<title>Node4&#45;&gt;Node8</title>
<path fill="none" stroke="midnightblue" d="M377.78,-63.13C399.87,-52.8 427.01,-40.11 447.4,-30.58"/>
<polygon fill="midnightblue" stroke="midnightblue" points="376.24,-59.99 368.66,-67.4 379.2,-66.33 376.24,-59.99"/>
</g>
<!-- Node9 -->
<g id="node9" class="node">
<title>Node9</title>
<g id="a_node9"><a xlink:href="ps2mc__fio_8c_source.html" target="_top" xlink:title=" ">
<polygon fill="white" stroke="black" points="556,-0.5 556,-30.5 677,-30.5 677,-0.5 556,-0.5"/>
<text text-anchor="start" x="564" y="-18.5" font-family="Helvetica,sans-Serif" font-size="10.00">iop/memorycard/mcman</text>
<text text-anchor="middle" x="616.5" y="-7.5" font-family="Helvetica,sans-Serif" font-size="10.00">/src/ps2mc_fio.c</text>
</a>
</g>
</g>
<!-- Node4&#45;&gt;Node9 -->
<g id="edge8" class="edge">
<title>Node4&#45;&gt;Node9</title>
<path fill="none" stroke="midnightblue" d="M408.28,-65.19C453.8,-54.54 512.64,-40.78 556.15,-30.61"/>
<polygon fill="midnightblue" stroke="midnightblue" points="407.42,-61.79 398.48,-67.48 409.01,-68.61 407.42,-61.79"/>
</g>
<!-- Node11 -->
<g id="node11" class="node">
<title>Node11</title>
<g id="a_node11"><a xlink:href="freemtap_8c.html" target="_top" xlink:title=" ">
<polygon fill="white" stroke="black" points="554,-67.5 554,-97.5 661,-97.5 661,-67.5 554,-67.5"/>
<text text-anchor="start" x="562" y="-85.5" font-family="Helvetica,sans-Serif" font-size="10.00">iop/system/mtapman</text>
<text text-anchor="middle" x="607.5" y="-74.5" font-family="Helvetica,sans-Serif" font-size="10.00">/src/freemtap.c</text>
</a>
</g>
</g>
<!-- Node10&#45;&gt;Node11 -->
<g id="edge10" class="edge">
<title>Node10&#45;&gt;Node11</title>
<path fill="none" stroke="midnightblue" d="M807.59,-134.3C764.08,-123.26 704.09,-108.03 661.17,-97.13"/>
<polygon fill="midnightblue" stroke="midnightblue" points="806.88,-137.74 817.44,-136.8 808.61,-130.95 806.88,-137.74"/>
</g>
<!-- Node12 -->
<g id="node12" class="node">
<title>Node12</title>
<g id="a_node12"><a xlink:href="iop_2system_2mtapman_2src_2irx__imports_8h_source.html" target="_top" xlink:title=" ">
<polygon fill="white" stroke="black" points="679,-67.5 679,-97.5 786,-97.5 786,-67.5 679,-67.5"/>
<text text-anchor="start" x="687" y="-85.5" font-family="Helvetica,sans-Serif" font-size="10.00">iop/system/mtapman</text>
<text text-anchor="middle" x="732.5" y="-74.5" font-family="Helvetica,sans-Serif" font-size="10.00">/src/irx_imports.h</text>
</a>
</g>
</g>
<!-- Node10&#45;&gt;Node12 -->
<g id="edge11" class="edge">
<title>Node10&#45;&gt;Node12</title>
<path fill="none" stroke="midnightblue" d="M825.92,-129.85C805.21,-119.58 779.91,-107.03 760.87,-97.58"/>
<polygon fill="midnightblue" stroke="midnightblue" points="824.56,-133.09 835.07,-134.4 827.67,-126.82 824.56,-133.09"/>
</g>
<!-- Node13 -->
<g id="node13" class="node">
<title>Node13</title>
<g id="a_node13"><a xlink:href="iop_2system_2padman_2src_2irx__imports_8h_source.html" target="_top" xlink:title=" ">
<polygon fill="white" stroke="black" points="804.5,-67.5 804.5,-97.5 922.5,-97.5 922.5,-67.5 804.5,-67.5"/>
<text text-anchor="start" x="812.5" y="-85.5" font-family="Helvetica,sans-Serif" font-size="10.00">iop/system/padman/src</text>
<text text-anchor="middle" x="863.5" y="-74.5" font-family="Helvetica,sans-Serif" font-size="10.00">/irx_imports.h</text>
</a>
</g>
</g>
<!-- Node10&#45;&gt;Node13 -->
<g id="edge12" class="edge">
<title>Node10&#45;&gt;Node13</title>
<path fill="none" stroke="midnightblue" d="M863.5,-124.11C863.5,-115.15 863.5,-105.32 863.5,-97.58"/>
<polygon fill="midnightblue" stroke="midnightblue" points="860,-124.4 863.5,-134.4 867,-124.4 860,-124.4"/>
</g>
<!-- Node10&#45;&gt;Node14 -->
<g id="edge13" class="edge">
<title>Node10&#45;&gt;Node14</title>
<path fill="none" stroke="midnightblue" d="M807.16,-140.5C743.29,-131.23 636.15,-115.01 544.5,-98 541.65,-97.47 538.74,-96.91 535.8,-96.34"/>
<polygon fill="midnightblue" stroke="midnightblue" points="807.01,-144.02 817.41,-141.99 808.01,-137.09 807.01,-144.02"/>
</g>
<!-- Node15 -->
<g id="node15" class="node">
<title>Node15</title>
<g id="a_node15"><a xlink:href="pad_init_8c.html" target="_top" xlink:title=" ">
<polygon fill="white" stroke="black" points="940.5,-67.5 940.5,-97.5 1058.5,-97.5 1058.5,-67.5 940.5,-67.5"/>
<text text-anchor="start" x="948.5" y="-85.5" font-family="Helvetica,sans-Serif" font-size="10.00">iop/system/padman/src</text>
<text text-anchor="middle" x="999.5" y="-74.5" font-family="Helvetica,sans-Serif" font-size="10.00">/padInit.c</text>
</a>
</g>
</g>
<!-- Node10&#45;&gt;Node15 -->
<g id="edge14" class="edge">
<title>Node10&#45;&gt;Node15</title>
<path fill="none" stroke="midnightblue" d="M902.22,-129.99C923.78,-119.69 950.19,-107.07 970.05,-97.58"/>
<polygon fill="midnightblue" stroke="midnightblue" points="900.52,-126.93 893.01,-134.4 903.54,-133.24 900.52,-126.93"/>
</g>
<!-- Node16 -->
<g id="node16" class="node">
<title>Node16</title>
<g id="a_node16"><a xlink:href="pad_misc_funcs_8c.html" target="_top" xlink:title=" ">
<polygon fill="white" stroke="black" points="1076.5,-67.5 1076.5,-97.5 1194.5,-97.5 1194.5,-67.5 1076.5,-67.5"/>
<text text-anchor="start" x="1084.5" y="-85.5" font-family="Helvetica,sans-Serif" font-size="10.00">iop/system/padman/src</text>
<text text-anchor="middle" x="1135.5" y="-74.5" font-family="Helvetica,sans-Serif" font-size="10.00">/padMiscFuncs.c</text>
</a>
</g>
</g>
<!-- Node10&#45;&gt;Node16 -->
<g id="edge15" class="edge">
<title>Node10&#45;&gt;Node16</title>
<path fill="none" stroke="midnightblue" d="M919.5,-133.79C978.19,-119.3 1035.05,-106.16 1076.44,-96.75"/>
<polygon fill="midnightblue" stroke="midnightblue" points="918.55,-130.42 909.69,-136.22 920.24,-137.21 918.55,-130.42"/>
</g>
<!-- Node17 -->
<g id="node17" class="node">
<title>Node17</title>
<g id="a_node17"><a xlink:href="rsio2man_8h.html" target="_top" xlink:title=" ">
<polygon fill="white" stroke="black" points="1213,-67.5 1213,-97.5 1320,-97.5 1320,-67.5 1213,-67.5"/>
<text text-anchor="start" x="1221" y="-85.5" font-family="Helvetica,sans-Serif" font-size="10.00">iop/system/rsio2man</text>
<text text-anchor="middle" x="1266.5" y="-74.5" font-family="Helvetica,sans-Serif" font-size="10.00">/include/rsio2man.h</text>
</a>
</g>
</g>
<!-- Node10&#45;&gt;Node17 -->
<g id="edge16" class="edge">
<title>Node10&#45;&gt;Node17</title>
<path fill="none" stroke="midnightblue" d="M919.64,-133.95C1045.62,-110.19 1080.99,-119.78 1203.5,-98 1206.59,-97.45 1209.76,-96.85 1212.96,-96.21"/>
<polygon fill="midnightblue" stroke="midnightblue" points="918.77,-130.55 909.61,-135.87 920.09,-137.42 918.77,-130.55"/>
</g>
<!-- Node20 -->
<g id="node20" class="node">
<title>Node20</title>
<g id="a_node20"><a xlink:href="iop_2system_2sio2man_2src_2irx__imports_8h_source.html" target="_top" xlink:title=" ">
<polygon fill="white" stroke="black" points="1338.5,-67.5 1338.5,-97.5 1442.5,-97.5 1442.5,-67.5 1338.5,-67.5"/>
<text text-anchor="start" x="1346.5" y="-85.5" font-family="Helvetica,sans-Serif" font-size="10.00">iop/system/sio2man</text>
<text text-anchor="middle" x="1390.5" y="-74.5" font-family="Helvetica,sans-Serif" font-size="10.00">/src/irx_imports.h</text>
</a>
</g>
</g>
<!-- Node10&#45;&gt;Node20 -->
<g id="edge19" class="edge">
<title>Node10&#45;&gt;Node20</title>
<path fill="none" stroke="midnightblue" d="M919.46,-134.04C1100.92,-103.37 1151.67,-126.77 1329.5,-98 1332.4,-97.53 1335.37,-97 1338.36,-96.42"/>
<polygon fill="midnightblue" stroke="midnightblue" points="918.85,-130.59 909.59,-135.74 920.04,-137.49 918.85,-130.59"/>
</g>
<!-- Node21 -->
<g id="node21" class="node">
<title>Node21</title>
<g id="a_node21"><a xlink:href="sio2man_8c.html" target="_top" xlink:title=" ">
<polygon fill="white" stroke="black" points="1460.5,-67.5 1460.5,-97.5 1564.5,-97.5 1564.5,-67.5 1460.5,-67.5"/>
<text text-anchor="start" x="1468.5" y="-85.5" font-family="Helvetica,sans-Serif" font-size="10.00">iop/system/sio2man</text>
<text text-anchor="middle" x="1512.5" y="-74.5" font-family="Helvetica,sans-Serif" font-size="10.00">/src/sio2man.c</text>
</a>
</g>
</g>
<!-- Node10&#45;&gt;Node21 -->
<g id="edge20" class="edge">
<title>Node10&#45;&gt;Node21</title>
<path fill="none" stroke="midnightblue" d="M919.45,-134.07C1154.58,-96.59 1219.96,-133.09 1451.5,-98 1454.41,-97.56 1457.38,-97.05 1460.37,-96.49"/>
<polygon fill="midnightblue" stroke="midnightblue" points="918.89,-130.62 909.58,-135.67 920.01,-137.53 918.89,-130.62"/>
</g>
<!-- Node18 -->
<g id="node18" class="node">
<title>Node18</title>
<g id="a_node18"><a xlink:href="iop_2system_2rmman_2src_2irx__imports_8h_source.html" target="_top" xlink:title=" ">
<polygon fill="white" stroke="black" points="1144,-0.5 1144,-30.5 1257,-30.5 1257,-0.5 1144,-0.5"/>
<text text-anchor="start" x="1152" y="-18.5" font-family="Helvetica,sans-Serif" font-size="10.00">iop/system/rmman/src</text>
<text text-anchor="middle" x="1200.5" y="-7.5" font-family="Helvetica,sans-Serif" font-size="10.00">/irx_imports.h</text>
</a>
</g>
</g>
<!-- Node17&#45;&gt;Node18 -->
<g id="edge17" class="edge">
<title>Node17&#45;&gt;Node18</title>
<path fill="none" stroke="midnightblue" d="M1244.99,-60.31C1235.09,-50.56 1223.61,-39.26 1214.79,-30.58"/>
<polygon fill="midnightblue" stroke="midnightblue" points="1242.6,-62.87 1252.18,-67.4 1247.51,-57.89 1242.6,-62.87"/>
</g>
<!-- Node19 -->
<g id="node19" class="node">
<title>Node19</title>
<g id="a_node19"><a xlink:href="rmman_8c_source.html" target="_top" xlink:title=" ">
<polygon fill="white" stroke="black" points="1275,-0.5 1275,-30.5 1388,-30.5 1388,-0.5 1275,-0.5"/>
<text text-anchor="start" x="1283" y="-18.5" font-family="Helvetica,sans-Serif" font-size="10.00">iop/system/rmman/src</text>
<text text-anchor="middle" x="1331.5" y="-7.5" font-family="Helvetica,sans-Serif" font-size="10.00">/rmman.c</text>
</a>
</g>
</g>
<!-- Node17&#45;&gt;Node19 -->
<g id="edge18" class="edge">
<title>Node17&#45;&gt;Node19</title>
<path fill="none" stroke="midnightblue" d="M1287.69,-60.31C1297.44,-50.56 1308.74,-39.26 1317.42,-30.58"/>
<polygon fill="midnightblue" stroke="midnightblue" points="1285.2,-57.85 1280.6,-67.4 1290.15,-62.8 1285.2,-57.85"/>
</g>
<!-- Node22&#45;&gt;Node4 -->
<g id="edge22" class="edge">
<title>Node22&#45;&gt;Node4</title>
<path fill="none" stroke="midnightblue" d="M398.29,-128.17C384.98,-118.23 369.3,-106.51 357.34,-97.58"/>
<polygon fill="midnightblue" stroke="midnightblue" points="396.52,-131.21 406.62,-134.4 400.71,-125.61 396.52,-131.21"/>
</g>
</g>
</svg>
        <g id="navigator" transform="translate(0 0)" fill="#404254">
                <rect fill="#f2f5e9" fill-opacity="0.5" stroke="#606060" stroke-width=".5" x="0" y="0" width="60" height="60"/>
                <use id="zoomplus" xlink:href="#zoomPlus" x="17" y="9" onmousedown="handleZoom(evt,'in')"/>
                <use id="zoomminus" xlink:href="#zoomMin" x="42" y="9" onmousedown="handleZoom(evt,'out')"/>
                <use id="reset" xlink:href="#resetDef" x="30" y="36" onmousedown="handleReset()"/>
                <g id="arrowUp" xlink:href="#dirArrow" transform="translate(30 24)" onmousedown="handlePan(0,-1)">
                  <use xlink:href="#rim" fill="#404040">
                        <set attributeName="fill" to="#808080" begin="arrowUp.mouseover" end="arrowUp.mouseout"/>
                  </use>
                  <path fill="none" stroke="white" stroke-width="1.5" d="M0,-3.0v7 M-2.5,-0.5L0,-3.0L2.5,-0.5"/>
                </g>
                <g id="arrowRight" xlink:href="#dirArrow" transform="rotate(90) translate(36 -43)" onmousedown="handlePan(1,0)">
                  <use xlink:href="#rim" fill="#404040">
                        <set attributeName="fill" to="#808080" begin="arrowRight.mouseover" end="arrowRight.mouseout"/>
                  </use>
                  <path fill="none" stroke="white" stroke-width="1.5" d="M0,-3.0v7 M-2.5,-0.5L0,-3.0L2.5,-0.5"/>
                </g>
                <g id="arrowDown" xlink:href="#dirArrow" transform="rotate(180) translate(-30 -48)" onmousedown="handlePan(0,1)">
                  <use xlink:href="#rim" fill="#404040">
                        <set attributeName="fill" to="#808080" begin="arrowDown.mouseover" end="arrowDown.mouseout"/>
                  </use>
                  <path fill="none" stroke="white" stroke-width="1.5" d="M0,-3.0v7 M-2.5,-0.5L0,-3.0L2.5,-0.5"/>
                </g>
                <g id="arrowLeft" xlink:href="#dirArrow" transform="rotate(270) translate(-36 17)" onmousedown="handlePan(-1,0)">
                  <use xlink:href="#rim" fill="#404040">
                        <set attributeName="fill" to="#808080" begin="arrowLeft.mouseover" end="arrowLeft.mouseout"/>
                  </use>
                  <path fill="none" stroke="white" stroke-width="1.5" d="M0,-3.0v7 M-2.5,-0.5L0,-3.0L2.5,-0.5"/>
                </g>
        </g>
        <svg viewBox="0 0 15 15" width="100%" height="30px" preserveAspectRatio="xMaxYMin meet">
         <g id="arrow_out" transform="scale(0.3 0.3)">
          <a xlink:href="sio2man_8h__dep__incl_org.svg" target="_base">
           <rect id="button" ry="5" rx="5" y="6" x="6" height="38" width="38"
                fill="#f2f5e9" fill-opacity="0.5" stroke="#606060" stroke-width="1.0"/>
           <path id="arrow"
             d="M 11.500037,31.436501 C 11.940474,20.09759 22.043105,11.32322 32.158766,21.979434 L 37.068811,17.246167 C 37.068811,17.246167 37.088388,32 37.088388,32 L 22.160133,31.978069 C 22.160133,31.978069 26.997745,27.140456 26.997745,27.140456 C 18.528582,18.264221 13.291696,25.230495 11.500037,31.436501 z"
             style="fill:#404040;"/>
          </a>
         </g>
        </svg>
</svg>
