<?xml version="1.0" encoding="UTF-8" standalone="no"?>
<!DOCTYPE svg PUBLIC "-//W3C//DTD SVG 1.1//EN"
 "http://www.w3.org/Graphics/SVG/1.1/DTD/svg11.dtd">
<!-- Generated by graphviz version 2.46.1 (20210215.1649)
 -->
<!-- Title: ee/kernel/src/sio.c Pages: 1 -->
<svg width="406pt" height="308pt"
 viewBox="0.00 0.00 406.23 308.00" xmlns="http://www.w3.org/2000/svg" xmlns:xlink="http://www.w3.org/1999/xlink">
<g id="graph0" class="graph" transform="scale(1 1) rotate(0) translate(4 304)">
<title>ee/kernel/src/sio.c</title>
<polygon fill="white" stroke="transparent" points="-4,4 -4,-304 402.23,-304 402.23,4 -4,4"/>
<!-- Node1 -->
<g id="node1" class="node">
<title>Node1</title>
<g id="a_node1"><a xlink:title=" ">
<polygon fill="#bfbfbf" stroke="black" points="151,-280.5 151,-299.5 247,-299.5 247,-280.5 151,-280.5"/>
<text text-anchor="middle" x="199" y="-287.5" font-family="Helvetica,sans-Serif" font-size="10.00">ee/kernel/src/sio.c</text>
</a>
</g>
</g>
<!-- Node2 -->
<g id="node2" class="node">
<title>Node2</title>
<g id="a_node2"><a xlink:href="stdio_8h.html" target="_top" xlink:title=" ">
<polygon fill="white" stroke="black" points="227.5,-168.5 227.5,-187.5 272.5,-187.5 272.5,-168.5 227.5,-168.5"/>
<text text-anchor="middle" x="250" y="-175.5" font-family="Helvetica,sans-Serif" font-size="10.00">stdio.h</text>
</a>
</g>
</g>
<!-- Node1&#45;&gt;Node2 -->
<g id="edge1" class="edge">
<title>Node1&#45;&gt;Node2</title>
<path fill="none" stroke="midnightblue" d="M203,-280.37C211.31,-262.46 230.56,-220.92 241.68,-196.95"/>
<polygon fill="midnightblue" stroke="midnightblue" points="244.99,-198.14 246.02,-187.59 238.64,-195.19 244.99,-198.14"/>
</g>
<!-- Node3 -->
<g id="node3" class="node">
<title>Node3</title>
<g id="a_node3"><a xlink:title=" ">
<polygon fill="white" stroke="#bfbfbf" points="190.5,-112.5 190.5,-131.5 241.5,-131.5 241.5,-112.5 190.5,-112.5"/>
<text text-anchor="middle" x="216" y="-119.5" font-family="Helvetica,sans-Serif" font-size="10.00">stdarg.h</text>
</a>
</g>
</g>
<!-- Node1&#45;&gt;Node3 -->
<g id="edge8" class="edge">
<title>Node1&#45;&gt;Node3</title>
<path fill="none" stroke="midnightblue" d="M199.91,-280.08C202.59,-253.95 210.45,-177.21 214.1,-141.58"/>
<polygon fill="midnightblue" stroke="midnightblue" points="217.59,-141.87 215.12,-131.57 210.62,-141.16 217.59,-141.87"/>
</g>
<!-- Node6 -->
<g id="node6" class="node">
<title>Node6</title>
<g id="a_node6"><a xlink:title=" ">
<polygon fill="white" stroke="#bfbfbf" points="45.5,-0.5 45.5,-19.5 96.5,-19.5 96.5,-0.5 45.5,-0.5"/>
<text text-anchor="middle" x="71" y="-7.5" font-family="Helvetica,sans-Serif" font-size="10.00">stddef.h</text>
</a>
</g>
</g>
<!-- Node1&#45;&gt;Node6 -->
<g id="edge7" class="edge">
<title>Node1&#45;&gt;Node6</title>
<path fill="none" stroke="midnightblue" d="M150.83,-283.51C91.93,-273.82 0,-247.69 0,-179 0,-179 0,-179 0,-121 0,-90.9 2.74,-81.32 19,-56 26.66,-44.07 38.4,-33.53 48.79,-25.65"/>
<polygon fill="midnightblue" stroke="midnightblue" points="51.01,-28.37 57.08,-19.69 46.92,-22.68 51.01,-28.37"/>
</g>
<!-- Node7 -->
<g id="node7" class="node">
<title>Node7</title>
<g id="a_node7"><a xlink:href="tamtypes_8h.html" target="_top" xlink:title=" ">
<polygon fill="white" stroke="black" points="243,-0.5 243,-19.5 307,-19.5 307,-0.5 243,-0.5"/>
<text text-anchor="middle" x="275" y="-7.5" font-family="Helvetica,sans-Serif" font-size="10.00">tamtypes.h</text>
</a>
</g>
</g>
<!-- Node1&#45;&gt;Node7 -->
<g id="edge9" class="edge">
<title>Node1&#45;&gt;Node7</title>
<path fill="none" stroke="midnightblue" d="M247.17,-283.51C306.07,-273.82 398,-247.69 398,-179 398,-179 398,-179 398,-121 398,-90.9 398.92,-78.56 379,-56 362.92,-37.8 338.17,-26.68 316.84,-20.06"/>
<polygon fill="midnightblue" stroke="midnightblue" points="317.59,-16.63 307.02,-17.24 315.66,-23.36 317.59,-16.63"/>
</g>
<!-- Node8 -->
<g id="node8" class="node">
<title>Node8</title>
<g id="a_node8"><a xlink:href="kernel_8h.html" target="_top" xlink:title=" ">
<polygon fill="white" stroke="black" points="121,-168.5 121,-187.5 171,-187.5 171,-168.5 121,-168.5"/>
<text text-anchor="middle" x="146" y="-175.5" font-family="Helvetica,sans-Serif" font-size="10.00">kernel.h</text>
</a>
</g>
</g>
<!-- Node1&#45;&gt;Node8 -->
<g id="edge10" class="edge">
<title>Node1&#45;&gt;Node8</title>
<path fill="none" stroke="midnightblue" d="M194.84,-280.37C186.17,-262.38 166.02,-220.55 154.49,-196.63"/>
<polygon fill="midnightblue" stroke="midnightblue" points="157.63,-195.08 150.14,-187.59 151.33,-198.12 157.63,-195.08"/>
</g>
<!-- Node10 -->
<g id="node10" class="node">
<title>Node10</title>
<g id="a_node10"><a xlink:href="string_8h_source.html" target="_top" xlink:title=" ">
<polygon fill="white" stroke="black" points="283,-224.5 283,-243.5 331,-243.5 331,-224.5 283,-224.5"/>
<text text-anchor="middle" x="307" y="-231.5" font-family="Helvetica,sans-Serif" font-size="10.00">string.h</text>
</a>
</g>
</g>
<!-- Node1&#45;&gt;Node10 -->
<g id="edge15" class="edge">
<title>Node1&#45;&gt;Node10</title>
<path fill="none" stroke="midnightblue" d="M216.35,-280.32C233.67,-271.66 260.52,-258.24 280.5,-248.25"/>
<polygon fill="midnightblue" stroke="midnightblue" points="282.31,-251.26 289.69,-243.65 279.18,-245 282.31,-251.26"/>
</g>
<!-- Node13 -->
<g id="node13" class="node">
<title>Node13</title>
<g id="a_node13"><a xlink:href="sio_8h.html" target="_top" xlink:title=" ">
<polygon fill="white" stroke="black" points="28.5,-56.5 28.5,-75.5 65.5,-75.5 65.5,-56.5 28.5,-56.5"/>
<text text-anchor="middle" x="47" y="-63.5" font-family="Helvetica,sans-Serif" font-size="10.00">sio.h</text>
</a>
</g>
</g>
<!-- Node1&#45;&gt;Node13 -->
<g id="edge22" class="edge">
<title>Node1&#45;&gt;Node13</title>
<path fill="none" stroke="midnightblue" d="M190.38,-280.35C173.9,-263.53 137.29,-224.81 112,-188 88.24,-153.42 66.43,-109.21 55.12,-84.95"/>
<polygon fill="midnightblue" stroke="midnightblue" points="58.17,-83.2 50.82,-75.58 51.81,-86.13 58.17,-83.2"/>
</g>
<!-- Node2&#45;&gt;Node3 -->
<g id="edge2" class="edge">
<title>Node2&#45;&gt;Node3</title>
<path fill="none" stroke="midnightblue" d="M244.39,-168.08C239.63,-160.53 232.68,-149.49 226.85,-140.23"/>
<polygon fill="midnightblue" stroke="midnightblue" points="229.8,-138.35 221.51,-131.75 223.88,-142.08 229.8,-138.35"/>
</g>
<!-- Node4 -->
<g id="node4" class="node">
<title>Node4</title>
<g id="a_node4"><a xlink:href="irx_8h.html" target="_top" xlink:title=" ">
<polygon fill="white" stroke="black" points="260,-112.5 260,-131.5 294,-131.5 294,-112.5 260,-112.5"/>
<text text-anchor="middle" x="277" y="-119.5" font-family="Helvetica,sans-Serif" font-size="10.00">irx.h</text>
</a>
</g>
</g>
<!-- Node2&#45;&gt;Node4 -->
<g id="edge3" class="edge">
<title>Node2&#45;&gt;Node4</title>
<path fill="none" stroke="midnightblue" d="M254.46,-168.08C258.15,-160.69 263.52,-149.95 268.09,-140.81"/>
<polygon fill="midnightblue" stroke="midnightblue" points="271.28,-142.26 272.62,-131.75 265.02,-139.13 271.28,-142.26"/>
</g>
<!-- Node5 -->
<g id="node5" class="node">
<title>Node5</title>
<g id="a_node5"><a xlink:href="types_8h_source.html" target="_top" xlink:title=" ">
<polygon fill="white" stroke="black" points="251.5,-56.5 251.5,-75.5 298.5,-75.5 298.5,-56.5 251.5,-56.5"/>
<text text-anchor="middle" x="275" y="-63.5" font-family="Helvetica,sans-Serif" font-size="10.00">types.h</text>
</a>
</g>
</g>
<!-- Node4&#45;&gt;Node5 -->
<g id="edge4" class="edge">
<title>Node4&#45;&gt;Node5</title>
<path fill="none" stroke="midnightblue" d="M276.67,-112.08C276.41,-105.01 276.03,-94.86 275.7,-85.99"/>
<polygon fill="midnightblue" stroke="midnightblue" points="279.19,-85.61 275.32,-75.75 272.2,-85.87 279.19,-85.61"/>
</g>
<!-- Node5&#45;&gt;Node6 -->
<g id="edge5" class="edge">
<title>Node5&#45;&gt;Node6</title>
<path fill="none" stroke="midnightblue" d="M251.2,-58.7C215.47,-49.24 147.74,-31.31 106.26,-20.33"/>
<polygon fill="midnightblue" stroke="midnightblue" points="107.13,-16.94 96.57,-17.77 105.34,-23.71 107.13,-16.94"/>
</g>
<!-- Node5&#45;&gt;Node7 -->
<g id="edge6" class="edge">
<title>Node5&#45;&gt;Node7</title>
<path fill="none" stroke="midnightblue" d="M275,-56.08C275,-49.01 275,-38.86 275,-29.99"/>
<polygon fill="midnightblue" stroke="midnightblue" points="278.5,-29.75 275,-19.75 271.5,-29.75 278.5,-29.75"/>
</g>
<!-- Node8&#45;&gt;Node3 -->
<g id="edge12" class="edge">
<title>Node8&#45;&gt;Node3</title>
<path fill="none" stroke="midnightblue" d="M157.25,-168.32C167.8,-160.18 183.8,-147.84 196.44,-138.09"/>
<polygon fill="midnightblue" stroke="midnightblue" points="198.77,-140.71 204.55,-131.83 194.49,-135.17 198.77,-140.71"/>
</g>
<!-- Node8&#45;&gt;Node6 -->
<g id="edge11" class="edge">
<title>Node8&#45;&gt;Node6</title>
<path fill="none" stroke="midnightblue" d="M137.78,-168.33C129.97,-159.7 118.36,-145.8 111,-132 92.84,-97.96 80.86,-54.15 75.07,-29.67"/>
<polygon fill="midnightblue" stroke="midnightblue" points="78.41,-28.59 72.78,-19.62 71.58,-30.14 78.41,-28.59"/>
</g>
<!-- Node9 -->
<g id="node9" class="node">
<title>Node9</title>
<g id="a_node9"><a xlink:href="sifdma_8h.html" target="_top" xlink:title=" ">
<polygon fill="white" stroke="black" points="119.5,-112.5 119.5,-131.5 172.5,-131.5 172.5,-112.5 119.5,-112.5"/>
<text text-anchor="middle" x="146" y="-119.5" font-family="Helvetica,sans-Serif" font-size="10.00">sifdma.h</text>
</a>
</g>
</g>
<!-- Node8&#45;&gt;Node9 -->
<g id="edge13" class="edge">
<title>Node8&#45;&gt;Node9</title>
<path fill="none" stroke="midnightblue" d="M146,-168.08C146,-161.01 146,-150.86 146,-141.99"/>
<polygon fill="midnightblue" stroke="midnightblue" points="149.5,-141.75 146,-131.75 142.5,-141.75 149.5,-141.75"/>
</g>
<!-- Node9&#45;&gt;Node7 -->
<g id="edge14" class="edge">
<title>Node9&#45;&gt;Node7</title>
<path fill="none" stroke="midnightblue" d="M156.12,-112.37C177.98,-93.73 229.81,-49.53 257.25,-26.13"/>
<polygon fill="midnightblue" stroke="midnightblue" points="259.59,-28.74 264.92,-19.59 255.04,-23.42 259.59,-28.74"/>
</g>
<!-- Node11 -->
<g id="node11" class="node">
<title>Node11</title>
<g id="a_node11"><a xlink:href="sysclib_8h.html" target="_top" xlink:title=" ">
<polygon fill="white" stroke="black" points="291,-168.5 291,-187.5 345,-187.5 345,-168.5 291,-168.5"/>
<text text-anchor="middle" x="318" y="-175.5" font-family="Helvetica,sans-Serif" font-size="10.00">sysclib.h</text>
</a>
</g>
</g>
<!-- Node10&#45;&gt;Node11 -->
<g id="edge16" class="edge">
<title>Node10&#45;&gt;Node11</title>
<path fill="none" stroke="midnightblue" d="M308.82,-224.08C310.27,-216.93 312.37,-206.64 314.19,-197.69"/>
<polygon fill="midnightblue" stroke="midnightblue" points="317.65,-198.25 316.22,-187.75 310.79,-196.85 317.65,-198.25"/>
</g>
<!-- Node11&#45;&gt;Node3 -->
<g id="edge19" class="edge">
<title>Node11&#45;&gt;Node3</title>
<path fill="none" stroke="midnightblue" d="M301.61,-168.32C285.33,-159.7 260.13,-146.36 241.28,-136.39"/>
<polygon fill="midnightblue" stroke="midnightblue" points="242.82,-133.24 232.35,-131.65 239.55,-139.43 242.82,-133.24"/>
</g>
<!-- Node11&#45;&gt;Node4 -->
<g id="edge18" class="edge">
<title>Node11&#45;&gt;Node4</title>
<path fill="none" stroke="midnightblue" d="M311.23,-168.08C305.44,-160.46 296.94,-149.26 289.86,-139.94"/>
<polygon fill="midnightblue" stroke="midnightblue" points="292.48,-137.6 283.64,-131.75 286.9,-141.83 292.48,-137.6"/>
</g>
<!-- Node11&#45;&gt;Node5 -->
<g id="edge17" class="edge">
<title>Node11&#45;&gt;Node5</title>
<path fill="none" stroke="midnightblue" d="M316.92,-168.31C315.14,-155.58 310.96,-131.27 303,-112 298.97,-102.24 292.92,-92.18 287.48,-84.06"/>
<polygon fill="midnightblue" stroke="midnightblue" points="290.32,-82.02 281.73,-75.83 284.59,-86.03 290.32,-82.02"/>
</g>
<!-- Node12 -->
<g id="node12" class="node">
<title>Node12</title>
<g id="a_node12"><a xlink:href="setjmp_8h.html" target="_top" xlink:title=" ">
<polygon fill="white" stroke="black" points="316.5,-56.5 316.5,-75.5 369.5,-75.5 369.5,-56.5 316.5,-56.5"/>
<text text-anchor="middle" x="343" y="-63.5" font-family="Helvetica,sans-Serif" font-size="10.00">setjmp.h</text>
</a>
</g>
</g>
<!-- Node11&#45;&gt;Node12 -->
<g id="edge20" class="edge">
<title>Node11&#45;&gt;Node12</title>
<path fill="none" stroke="midnightblue" d="M322.32,-168.27C326.53,-159.38 332.75,-145.06 336,-132 339.82,-116.67 341.55,-98.79 342.34,-85.67"/>
<polygon fill="midnightblue" stroke="midnightblue" points="345.84,-85.7 342.82,-75.54 338.85,-85.37 345.84,-85.7"/>
</g>
<!-- Node12&#45;&gt;Node7 -->
<g id="edge21" class="edge">
<title>Node12&#45;&gt;Node7</title>
<path fill="none" stroke="midnightblue" d="M332.07,-56.32C321.83,-48.18 306.28,-35.84 294,-26.09"/>
<polygon fill="midnightblue" stroke="midnightblue" points="296.13,-23.31 286.12,-19.83 291.78,-28.79 296.13,-23.31"/>
</g>
<!-- Node13&#45;&gt;Node6 -->
<g id="edge24" class="edge">
<title>Node13&#45;&gt;Node6</title>
<path fill="none" stroke="midnightblue" d="M50.96,-56.08C54.21,-48.77 58.92,-38.18 62.95,-29.1"/>
<polygon fill="midnightblue" stroke="midnightblue" points="66.25,-30.31 67.11,-19.75 59.85,-27.47 66.25,-30.31"/>
</g>
<!-- Node13&#45;&gt;Node7 -->
<g id="edge23" class="edge">
<title>Node13&#45;&gt;Node7</title>
<path fill="none" stroke="midnightblue" d="M65.66,-60.58C101.98,-51.98 182.97,-32.8 232.89,-20.97"/>
<polygon fill="midnightblue" stroke="midnightblue" points="233.82,-24.35 242.74,-18.64 232.2,-17.54 233.82,-24.35"/>
</g>
</g>
</svg>
