<?xml version="1.0" encoding="UTF-8" standalone="no"?>
<!DOCTYPE svg PUBLIC "-//W3C//DTD SVG 1.1//EN"
 "http://www.w3.org/Graphics/SVG/1.1/DTD/svg11.dtd">
<!-- Generated by graphviz version 2.46.1 (20210215.1649)
 -->
<!-- Title: ee/rpc/sior/src/sior_rpc.c Pages: 1 -->
<svg width="586pt" height="319pt"
 viewBox="0.00 0.00 585.50 319.00" xmlns="http://www.w3.org/2000/svg" xmlns:xlink="http://www.w3.org/1999/xlink">
<g id="graph0" class="graph" transform="scale(1 1) rotate(0) translate(4 315)">
<title>ee/rpc/sior/src/sior_rpc.c</title>
<polygon fill="white" stroke="transparent" points="-4,4 -4,-315 581.5,-315 581.5,4 -4,4"/>
<!-- Node1 -->
<g id="node1" class="node">
<title>Node1</title>
<g id="a_node1"><a xlink:title=" ">
<polygon fill="#bfbfbf" stroke="black" points="224,-280.5 224,-310.5 322,-310.5 322,-280.5 224,-280.5"/>
<text text-anchor="start" x="232" y="-298.5" font-family="Helvetica,sans-Serif" font-size="10.00">ee/rpc/sior/src/sior</text>
<text text-anchor="middle" x="273" y="-287.5" font-family="Helvetica,sans-Serif" font-size="10.00">_rpc.c</text>
</a>
</g>
</g>
<!-- Node2 -->
<g id="node2" class="node">
<title>Node2</title>
<g id="a_node2"><a xlink:href="tamtypes_8h.html" target="_top" xlink:title=" ">
<polygon fill="white" stroke="black" points="56,-0.5 56,-19.5 120,-19.5 120,-0.5 56,-0.5"/>
<text text-anchor="middle" x="88" y="-7.5" font-family="Helvetica,sans-Serif" font-size="10.00">tamtypes.h</text>
</a>
</g>
</g>
<!-- Node1&#45;&gt;Node2 -->
<g id="edge1" class="edge">
<title>Node1&#45;&gt;Node2</title>
<path fill="none" stroke="midnightblue" d="M223.88,-294.82C145.28,-292.46 0,-275.11 0,-179 0,-179 0,-179 0,-121 0,-90.9 1.06,-80.17 19,-56 29.04,-42.47 44.46,-31.86 58.17,-24.35"/>
<polygon fill="midnightblue" stroke="midnightblue" points="60.02,-27.34 67.3,-19.65 56.81,-21.12 60.02,-27.34"/>
</g>
<!-- Node3 -->
<g id="node3" class="node">
<title>Node3</title>
<g id="a_node3"><a xlink:href="kernel_8h.html" target="_top" xlink:title=" ">
<polygon fill="white" stroke="black" points="282,-168.5 282,-187.5 332,-187.5 332,-168.5 282,-168.5"/>
<text text-anchor="middle" x="307" y="-175.5" font-family="Helvetica,sans-Serif" font-size="10.00">kernel.h</text>
</a>
</g>
</g>
<!-- Node1&#45;&gt;Node3 -->
<g id="edge2" class="edge">
<title>Node1&#45;&gt;Node3</title>
<path fill="none" stroke="midnightblue" d="M277.17,-280.34C283.32,-259.43 294.84,-220.31 301.62,-197.27"/>
<polygon fill="midnightblue" stroke="midnightblue" points="304.98,-198.25 304.45,-187.67 298.27,-196.27 304.98,-198.25"/>
</g>
<!-- Node5 -->
<g id="node5" class="node">
<title>Node5</title>
<g id="a_node5"><a xlink:title=" ">
<polygon fill="white" stroke="#bfbfbf" points="228.5,-112.5 228.5,-131.5 279.5,-131.5 279.5,-112.5 228.5,-112.5"/>
<text text-anchor="middle" x="254" y="-119.5" font-family="Helvetica,sans-Serif" font-size="10.00">stdarg.h</text>
</a>
</g>
</g>
<!-- Node1&#45;&gt;Node5 -->
<g id="edge8" class="edge">
<title>Node1&#45;&gt;Node5</title>
<path fill="none" stroke="midnightblue" d="M271.45,-280.47C268.04,-249.7 259.91,-176.33 256.07,-141.7"/>
<polygon fill="midnightblue" stroke="midnightblue" points="259.53,-141.11 254.95,-131.56 252.57,-141.88 259.53,-141.11"/>
</g>
<!-- Node7 -->
<g id="node7" class="node">
<title>Node7</title>
<g id="a_node7"><a xlink:title=" ">
<polygon fill="white" stroke="#bfbfbf" points="320,-224.5 320,-243.5 368,-243.5 368,-224.5 320,-224.5"/>
<text text-anchor="middle" x="344" y="-231.5" font-family="Helvetica,sans-Serif" font-size="10.00">sifrpc.h</text>
</a>
</g>
</g>
<!-- Node1&#45;&gt;Node7 -->
<g id="edge7" class="edge">
<title>Node1&#45;&gt;Node7</title>
<path fill="none" stroke="midnightblue" d="M289.83,-280.4C300.67,-271.31 314.78,-259.49 325.87,-250.19"/>
<polygon fill="midnightblue" stroke="midnightblue" points="328.25,-252.76 333.67,-243.66 323.76,-247.4 328.25,-252.76"/>
</g>
<!-- Node8 -->
<g id="node8" class="node">
<title>Node8</title>
<g id="a_node8"><a xlink:href="string_8h_source.html" target="_top" xlink:title=" ">
<polygon fill="white" stroke="black" points="122,-224.5 122,-243.5 170,-243.5 170,-224.5 122,-224.5"/>
<text text-anchor="middle" x="146" y="-231.5" font-family="Helvetica,sans-Serif" font-size="10.00">string.h</text>
</a>
</g>
</g>
<!-- Node1&#45;&gt;Node8 -->
<g id="edge9" class="edge">
<title>Node1&#45;&gt;Node8</title>
<path fill="none" stroke="midnightblue" d="M242.9,-280.4C221.88,-270.55 194.03,-257.5 173.58,-247.92"/>
<polygon fill="midnightblue" stroke="midnightblue" points="175.02,-244.73 164.48,-243.66 172.05,-251.07 175.02,-244.73"/>
</g>
<!-- Node13 -->
<g id="node13" class="node">
<title>Node13</title>
<g id="a_node13"><a xlink:title=" ">
<polygon fill="white" stroke="#bfbfbf" points="386.5,-224.5 386.5,-243.5 439.5,-243.5 439.5,-224.5 386.5,-224.5"/>
<text text-anchor="middle" x="413" y="-231.5" font-family="Helvetica,sans-Serif" font-size="10.00">malloc.h</text>
</a>
</g>
</g>
<!-- Node1&#45;&gt;Node13 -->
<g id="edge19" class="edge">
<title>Node1&#45;&gt;Node13</title>
<path fill="none" stroke="midnightblue" d="M306.18,-280.4C329.56,-270.46 360.61,-257.26 383.21,-247.66"/>
<polygon fill="midnightblue" stroke="midnightblue" points="384.79,-250.79 392.63,-243.66 382.06,-244.35 384.79,-250.79"/>
</g>
<!-- Node14 -->
<g id="node14" class="node">
<title>Node14</title>
<g id="a_node14"><a xlink:href="fcntl_8h_source.html" target="_top" xlink:title=" ">
<polygon fill="white" stroke="black" points="457.5,-224.5 457.5,-243.5 500.5,-243.5 500.5,-224.5 457.5,-224.5"/>
<text text-anchor="middle" x="479" y="-231.5" font-family="Helvetica,sans-Serif" font-size="10.00">fcntl.h</text>
</a>
</g>
</g>
<!-- Node1&#45;&gt;Node14 -->
<g id="edge20" class="edge">
<title>Node1&#45;&gt;Node14</title>
<path fill="none" stroke="midnightblue" d="M322.36,-280.51C355.39,-271.11 400.08,-258.31 447.54,-244.41"/>
<polygon fill="midnightblue" stroke="midnightblue" points="448.77,-247.69 457.38,-241.52 446.8,-240.98 448.77,-247.69"/>
</g>
<!-- Node15 -->
<g id="node15" class="node">
<title>Node15</title>
<g id="a_node15"><a xlink:href="stdio_8h.html" target="_top" xlink:title=" ">
<polygon fill="white" stroke="black" points="180.5,-168.5 180.5,-187.5 225.5,-187.5 225.5,-168.5 180.5,-168.5"/>
<text text-anchor="middle" x="203" y="-175.5" font-family="Helvetica,sans-Serif" font-size="10.00">stdio.h</text>
</a>
</g>
</g>
<!-- Node1&#45;&gt;Node15 -->
<g id="edge21" class="edge">
<title>Node1&#45;&gt;Node15</title>
<path fill="none" stroke="midnightblue" d="M263.52,-280.5C256.79,-270.44 247.64,-256.51 240,-244 230.29,-228.1 219.85,-209.61 212.54,-196.43"/>
<polygon fill="midnightblue" stroke="midnightblue" points="215.52,-194.58 207.63,-187.51 209.39,-197.96 215.52,-194.58"/>
</g>
<!-- Node16 -->
<g id="node16" class="node">
<title>Node16</title>
<g id="a_node16"><a xlink:href="sio_8h.html" target="_top" xlink:title=" ">
<polygon fill="white" stroke="black" points="28.5,-56.5 28.5,-75.5 65.5,-75.5 65.5,-56.5 28.5,-56.5"/>
<text text-anchor="middle" x="47" y="-63.5" font-family="Helvetica,sans-Serif" font-size="10.00">sio.h</text>
</a>
</g>
</g>
<!-- Node1&#45;&gt;Node16 -->
<g id="edge24" class="edge">
<title>Node1&#45;&gt;Node16</title>
<path fill="none" stroke="midnightblue" d="M223.69,-289.16C189.29,-283.18 144.13,-270.57 113,-244 64.6,-202.7 51.65,-122.34 48.22,-85.85"/>
<polygon fill="midnightblue" stroke="midnightblue" points="51.69,-85.33 47.41,-75.64 44.71,-85.89 51.69,-85.33"/>
</g>
<!-- Node17 -->
<g id="node17" class="node">
<title>Node17</title>
<g id="a_node17"><a xlink:href="sior__rpc_8h.html" target="_top" xlink:title=" ">
<polygon fill="white" stroke="black" points="518.5,-224.5 518.5,-243.5 577.5,-243.5 577.5,-224.5 518.5,-224.5"/>
<text text-anchor="middle" x="548" y="-231.5" font-family="Helvetica,sans-Serif" font-size="10.00">sior_rpc.h</text>
</a>
</g>
</g>
<!-- Node1&#45;&gt;Node17 -->
<g id="edge27" class="edge">
<title>Node1&#45;&gt;Node17</title>
<path fill="none" stroke="midnightblue" d="M322.09,-284.38C367.92,-274.85 438.46,-260 508.3,-244.35"/>
<polygon fill="midnightblue" stroke="midnightblue" points="509.15,-247.75 518.14,-242.14 507.62,-240.92 509.15,-247.75"/>
</g>
<!-- Node4 -->
<g id="node4" class="node">
<title>Node4</title>
<g id="a_node4"><a xlink:title=" ">
<polygon fill="white" stroke="#bfbfbf" points="138.5,-0.5 138.5,-19.5 189.5,-19.5 189.5,-0.5 138.5,-0.5"/>
<text text-anchor="middle" x="164" y="-7.5" font-family="Helvetica,sans-Serif" font-size="10.00">stddef.h</text>
</a>
</g>
</g>
<!-- Node3&#45;&gt;Node4 -->
<g id="edge3" class="edge">
<title>Node3&#45;&gt;Node4</title>
<path fill="none" stroke="midnightblue" d="M308.79,-168.28C312.75,-146.23 319.74,-87.73 290,-56 266.44,-30.87 227.9,-19.75 199.64,-14.85"/>
<polygon fill="midnightblue" stroke="midnightblue" points="200.15,-11.39 189.74,-13.31 199.08,-18.3 200.15,-11.39"/>
</g>
<!-- Node3&#45;&gt;Node5 -->
<g id="edge4" class="edge">
<title>Node3&#45;&gt;Node5</title>
<path fill="none" stroke="midnightblue" d="M298.25,-168.08C290.53,-160.22 279.1,-148.57 269.78,-139.08"/>
<polygon fill="midnightblue" stroke="midnightblue" points="272.09,-136.44 262.59,-131.75 267.1,-141.34 272.09,-136.44"/>
</g>
<!-- Node6 -->
<g id="node6" class="node">
<title>Node6</title>
<g id="a_node6"><a xlink:href="sifdma_8h.html" target="_top" xlink:title=" ">
<polygon fill="white" stroke="black" points="227.5,-56.5 227.5,-75.5 280.5,-75.5 280.5,-56.5 227.5,-56.5"/>
<text text-anchor="middle" x="254" y="-63.5" font-family="Helvetica,sans-Serif" font-size="10.00">sifdma.h</text>
</a>
</g>
</g>
<!-- Node3&#45;&gt;Node6 -->
<g id="edge5" class="edge">
<title>Node3&#45;&gt;Node6</title>
<path fill="none" stroke="midnightblue" d="M305.68,-168.19C303.52,-155.32 298.46,-130.83 289,-112 283.79,-101.63 276.01,-91.32 269.11,-83.19"/>
<polygon fill="midnightblue" stroke="midnightblue" points="271.63,-80.75 262.37,-75.59 266.39,-85.4 271.63,-80.75"/>
</g>
<!-- Node6&#45;&gt;Node2 -->
<g id="edge6" class="edge">
<title>Node6&#45;&gt;Node2</title>
<path fill="none" stroke="midnightblue" d="M227.7,-56.44C199.65,-47.32 155.06,-32.81 123.82,-22.65"/>
<polygon fill="midnightblue" stroke="midnightblue" points="124.77,-19.28 114.18,-19.52 122.61,-25.94 124.77,-19.28"/>
</g>
<!-- Node9 -->
<g id="node9" class="node">
<title>Node9</title>
<g id="a_node9"><a xlink:href="sysclib_8h.html" target="_top" xlink:title=" ">
<polygon fill="white" stroke="black" points="108,-168.5 108,-187.5 162,-187.5 162,-168.5 108,-168.5"/>
<text text-anchor="middle" x="135" y="-175.5" font-family="Helvetica,sans-Serif" font-size="10.00">sysclib.h</text>
</a>
</g>
</g>
<!-- Node8&#45;&gt;Node9 -->
<g id="edge10" class="edge">
<title>Node8&#45;&gt;Node9</title>
<path fill="none" stroke="midnightblue" d="M144.18,-224.08C142.73,-216.93 140.63,-206.64 138.81,-197.69"/>
<polygon fill="midnightblue" stroke="midnightblue" points="142.21,-196.85 136.78,-187.75 135.35,-198.25 142.21,-196.85"/>
</g>
<!-- Node9&#45;&gt;Node5 -->
<g id="edge16" class="edge">
<title>Node9&#45;&gt;Node5</title>
<path fill="none" stroke="midnightblue" d="M153.86,-168.44C173.27,-159.64 203.73,-145.81 225.96,-135.72"/>
<polygon fill="midnightblue" stroke="midnightblue" points="227.57,-138.84 235.23,-131.52 224.68,-132.46 227.57,-138.84"/>
</g>
<!-- Node10 -->
<g id="node10" class="node">
<title>Node10</title>
<g id="a_node10"><a xlink:href="types_8h_source.html" target="_top" xlink:title=" ">
<polygon fill="white" stroke="black" points="129.5,-56.5 129.5,-75.5 176.5,-75.5 176.5,-56.5 129.5,-56.5"/>
<text text-anchor="middle" x="153" y="-63.5" font-family="Helvetica,sans-Serif" font-size="10.00">types.h</text>
</a>
</g>
</g>
<!-- Node9&#45;&gt;Node10 -->
<g id="edge11" class="edge">
<title>Node9&#45;&gt;Node10</title>
<path fill="none" stroke="midnightblue" d="M136.41,-168.37C139.32,-150.62 146.02,-109.67 149.96,-85.6"/>
<polygon fill="midnightblue" stroke="midnightblue" points="153.43,-86.03 151.59,-75.59 146.53,-84.89 153.43,-86.03"/>
</g>
<!-- Node11 -->
<g id="node11" class="node">
<title>Node11</title>
<g id="a_node11"><a xlink:href="irx_8h.html" target="_top" xlink:title=" ">
<polygon fill="white" stroke="black" points="176,-112.5 176,-131.5 210,-131.5 210,-112.5 176,-112.5"/>
<text text-anchor="middle" x="193" y="-119.5" font-family="Helvetica,sans-Serif" font-size="10.00">irx.h</text>
</a>
</g>
</g>
<!-- Node9&#45;&gt;Node11 -->
<g id="edge14" class="edge">
<title>Node9&#45;&gt;Node11</title>
<path fill="none" stroke="midnightblue" d="M144.32,-168.32C152.89,-160.34 165.81,-148.31 176.19,-138.65"/>
<polygon fill="midnightblue" stroke="midnightblue" points="178.58,-141.21 183.51,-131.83 173.81,-136.09 178.58,-141.21"/>
</g>
<!-- Node12 -->
<g id="node12" class="node">
<title>Node12</title>
<g id="a_node12"><a xlink:href="setjmp_8h.html" target="_top" xlink:title=" ">
<polygon fill="white" stroke="black" points="66.5,-112.5 66.5,-131.5 119.5,-131.5 119.5,-112.5 66.5,-112.5"/>
<text text-anchor="middle" x="93" y="-119.5" font-family="Helvetica,sans-Serif" font-size="10.00">setjmp.h</text>
</a>
</g>
</g>
<!-- Node9&#45;&gt;Node12 -->
<g id="edge17" class="edge">
<title>Node9&#45;&gt;Node12</title>
<path fill="none" stroke="midnightblue" d="M128.06,-168.08C122.07,-160.38 113.25,-149.03 105.95,-139.65"/>
<polygon fill="midnightblue" stroke="midnightblue" points="108.71,-137.5 99.81,-131.75 103.18,-141.79 108.71,-137.5"/>
</g>
<!-- Node10&#45;&gt;Node2 -->
<g id="edge13" class="edge">
<title>Node10&#45;&gt;Node2</title>
<path fill="none" stroke="midnightblue" d="M142.56,-56.32C132.85,-48.26 118.18,-36.08 106.5,-26.37"/>
<polygon fill="midnightblue" stroke="midnightblue" points="108.56,-23.53 98.63,-19.83 104.09,-28.92 108.56,-23.53"/>
</g>
<!-- Node10&#45;&gt;Node4 -->
<g id="edge12" class="edge">
<title>Node10&#45;&gt;Node4</title>
<path fill="none" stroke="midnightblue" d="M154.82,-56.08C156.27,-48.93 158.37,-38.64 160.19,-29.69"/>
<polygon fill="midnightblue" stroke="midnightblue" points="163.65,-30.25 162.22,-19.75 156.79,-28.85 163.65,-30.25"/>
</g>
<!-- Node11&#45;&gt;Node10 -->
<g id="edge15" class="edge">
<title>Node11&#45;&gt;Node10</title>
<path fill="none" stroke="midnightblue" d="M186.39,-112.08C180.74,-104.46 172.46,-93.26 165.55,-83.94"/>
<polygon fill="midnightblue" stroke="midnightblue" points="168.25,-81.7 159.48,-75.75 162.62,-85.87 168.25,-81.7"/>
</g>
<!-- Node12&#45;&gt;Node2 -->
<g id="edge18" class="edge">
<title>Node12&#45;&gt;Node2</title>
<path fill="none" stroke="midnightblue" d="M92.61,-112.37C91.8,-94.62 89.94,-53.67 88.85,-29.6"/>
<polygon fill="midnightblue" stroke="midnightblue" points="92.34,-29.42 88.39,-19.59 85.35,-29.74 92.34,-29.42"/>
</g>
<!-- Node15&#45;&gt;Node5 -->
<g id="edge22" class="edge">
<title>Node15&#45;&gt;Node5</title>
<path fill="none" stroke="midnightblue" d="M211.42,-168.08C218.85,-160.22 229.85,-148.57 238.81,-139.08"/>
<polygon fill="midnightblue" stroke="midnightblue" points="241.41,-141.42 245.74,-131.75 236.32,-136.62 241.41,-141.42"/>
</g>
<!-- Node15&#45;&gt;Node11 -->
<g id="edge23" class="edge">
<title>Node15&#45;&gt;Node11</title>
<path fill="none" stroke="midnightblue" d="M201.35,-168.08C200.02,-160.93 198.12,-150.64 196.46,-141.69"/>
<polygon fill="midnightblue" stroke="midnightblue" points="199.88,-140.95 194.62,-131.75 193,-142.22 199.88,-140.95"/>
</g>
<!-- Node16&#45;&gt;Node2 -->
<g id="edge25" class="edge">
<title>Node16&#45;&gt;Node2</title>
<path fill="none" stroke="midnightblue" d="M53.77,-56.08C59.56,-48.46 68.06,-37.26 75.14,-27.94"/>
<polygon fill="midnightblue" stroke="midnightblue" points="78.1,-29.83 81.36,-19.75 72.52,-25.6 78.1,-29.83"/>
</g>
<!-- Node16&#45;&gt;Node4 -->
<g id="edge26" class="edge">
<title>Node16&#45;&gt;Node4</title>
<path fill="none" stroke="midnightblue" d="M65.54,-56.44C84.62,-47.64 114.57,-33.81 136.44,-23.72"/>
<polygon fill="midnightblue" stroke="midnightblue" points="137.93,-26.88 145.55,-19.52 135,-20.53 137.93,-26.88"/>
</g>
</g>
</svg>
