<?xml version="1.0" encoding="UTF-8" standalone="no"?>
<!DOCTYPE svg PUBLIC "-//W3C//DTD SVG 1.1//EN"
 "http://www.w3.org/Graphics/SVG/1.1/DTD/svg11.dtd">
<!-- Generated by graphviz version 2.46.1 (20210215.1649)
 -->
<!-- Title: ee/libc/src/sjis.c Pages: 1 -->
<svg width="168pt" height="308pt"
 viewBox="0.00 0.00 168.33 308.00" xmlns="http://www.w3.org/2000/svg" xmlns:xlink="http://www.w3.org/1999/xlink">
<g id="graph0" class="graph" transform="scale(1 1) rotate(0) translate(4 304)">
<title>ee/libc/src/sjis.c</title>
<polygon fill="white" stroke="transparent" points="-4,4 -4,-304 164.33,-304 164.33,4 -4,4"/>
<!-- Node1 -->
<g id="node1" class="node">
<title>Node1</title>
<g id="a_node1"><a xlink:title=" ">
<polygon fill="#bfbfbf" stroke="black" points="46.33,-280.5 46.33,-299.5 133.33,-299.5 133.33,-280.5 46.33,-280.5"/>
<text text-anchor="middle" x="89.83" y="-287.5" font-family="Helvetica,sans-Serif" font-size="10.00">ee/libc/src/sjis.c</text>
</a>
</g>
</g>
<!-- Node2 -->
<g id="node2" class="node">
<title>Node2</title>
<g id="a_node2"><a xlink:href="string_8h_source.html" target="_top" xlink:title=" ">
<polygon fill="white" stroke="black" points="34.83,-224.5 34.83,-243.5 82.83,-243.5 82.83,-224.5 34.83,-224.5"/>
<text text-anchor="middle" x="58.83" y="-231.5" font-family="Helvetica,sans-Serif" font-size="10.00">string.h</text>
</a>
</g>
</g>
<!-- Node1&#45;&gt;Node2 -->
<g id="edge1" class="edge">
<title>Node1&#45;&gt;Node2</title>
<path fill="none" stroke="midnightblue" d="M84.71,-280.08C80.42,-272.61 74.17,-261.72 68.88,-252.52"/>
<polygon fill="midnightblue" stroke="midnightblue" points="71.86,-250.68 63.85,-243.75 65.79,-254.17 71.86,-250.68"/>
</g>
<!-- Node10 -->
<g id="node10" class="node">
<title>Node10</title>
<g id="a_node10"><a xlink:href="sjis_8h.html" target="_top" xlink:title=" ">
<polygon fill="white" stroke="black" points="101.33,-224.5 101.33,-243.5 140.33,-243.5 140.33,-224.5 101.33,-224.5"/>
<text text-anchor="middle" x="120.83" y="-231.5" font-family="Helvetica,sans-Serif" font-size="10.00">sjis.h</text>
</a>
</g>
</g>
<!-- Node1&#45;&gt;Node10 -->
<g id="edge11" class="edge">
<title>Node1&#45;&gt;Node10</title>
<path fill="none" stroke="midnightblue" d="M94.94,-280.08C99.23,-272.61 105.48,-261.72 110.77,-252.52"/>
<polygon fill="midnightblue" stroke="midnightblue" points="113.86,-254.17 115.8,-243.75 107.79,-250.68 113.86,-254.17"/>
</g>
<!-- Node3 -->
<g id="node3" class="node">
<title>Node3</title>
<g id="a_node3"><a xlink:href="sysclib_8h.html" target="_top" xlink:title=" ">
<polygon fill="white" stroke="black" points="31.83,-168.5 31.83,-187.5 85.83,-187.5 85.83,-168.5 31.83,-168.5"/>
<text text-anchor="middle" x="58.83" y="-175.5" font-family="Helvetica,sans-Serif" font-size="10.00">sysclib.h</text>
</a>
</g>
</g>
<!-- Node2&#45;&gt;Node3 -->
<g id="edge2" class="edge">
<title>Node2&#45;&gt;Node3</title>
<path fill="none" stroke="midnightblue" d="M58.83,-224.08C58.83,-217.01 58.83,-206.86 58.83,-197.99"/>
<polygon fill="midnightblue" stroke="midnightblue" points="62.33,-197.75 58.83,-187.75 55.33,-197.75 62.33,-197.75"/>
</g>
<!-- Node4 -->
<g id="node4" class="node">
<title>Node4</title>
<g id="a_node4"><a xlink:href="types_8h_source.html" target="_top" xlink:title=" ">
<polygon fill="white" stroke="black" points="5.33,-56.5 5.33,-75.5 52.33,-75.5 52.33,-56.5 5.33,-56.5"/>
<text text-anchor="middle" x="28.83" y="-63.5" font-family="Helvetica,sans-Serif" font-size="10.00">types.h</text>
</a>
</g>
</g>
<!-- Node3&#45;&gt;Node4 -->
<g id="edge3" class="edge">
<title>Node3&#45;&gt;Node4</title>
<path fill="none" stroke="midnightblue" d="M41.32,-168.46C28.04,-160.92 10.75,-148.53 2.83,-132 -4.86,-115.97 4.72,-97.04 14.35,-83.76"/>
<polygon fill="midnightblue" stroke="midnightblue" points="17.37,-85.59 20.81,-75.57 11.87,-81.25 17.37,-85.59"/>
</g>
<!-- Node7 -->
<g id="node7" class="node">
<title>Node7</title>
<g id="a_node7"><a xlink:href="irx_8h.html" target="_top" xlink:title=" ">
<polygon fill="white" stroke="black" points="11.83,-112.5 11.83,-131.5 45.83,-131.5 45.83,-112.5 11.83,-112.5"/>
<text text-anchor="middle" x="28.83" y="-119.5" font-family="Helvetica,sans-Serif" font-size="10.00">irx.h</text>
</a>
</g>
</g>
<!-- Node3&#45;&gt;Node7 -->
<g id="edge6" class="edge">
<title>Node3&#45;&gt;Node7</title>
<path fill="none" stroke="midnightblue" d="M53.87,-168.08C49.72,-160.61 43.67,-149.72 38.56,-140.52"/>
<polygon fill="midnightblue" stroke="midnightblue" points="41.6,-138.79 33.69,-131.75 35.48,-142.19 41.6,-138.79"/>
</g>
<!-- Node8 -->
<g id="node8" class="node">
<title>Node8</title>
<g id="a_node8"><a xlink:title=" ">
<polygon fill="white" stroke="#bfbfbf" points="64.33,-112.5 64.33,-131.5 115.33,-131.5 115.33,-112.5 64.33,-112.5"/>
<text text-anchor="middle" x="89.83" y="-119.5" font-family="Helvetica,sans-Serif" font-size="10.00">stdarg.h</text>
</a>
</g>
</g>
<!-- Node3&#45;&gt;Node8 -->
<g id="edge8" class="edge">
<title>Node3&#45;&gt;Node8</title>
<path fill="none" stroke="midnightblue" d="M63.94,-168.08C68.23,-160.61 74.48,-149.72 79.77,-140.52"/>
<polygon fill="midnightblue" stroke="midnightblue" points="82.86,-142.17 84.8,-131.75 76.79,-138.68 82.86,-142.17"/>
</g>
<!-- Node9 -->
<g id="node9" class="node">
<title>Node9</title>
<g id="a_node9"><a xlink:href="setjmp_8h.html" target="_top" xlink:title=" ">
<polygon fill="white" stroke="black" points="107.33,-56.5 107.33,-75.5 160.33,-75.5 160.33,-56.5 107.33,-56.5"/>
<text text-anchor="middle" x="133.83" y="-63.5" font-family="Helvetica,sans-Serif" font-size="10.00">setjmp.h</text>
</a>
</g>
</g>
<!-- Node3&#45;&gt;Node9 -->
<g id="edge9" class="edge">
<title>Node3&#45;&gt;Node9</title>
<path fill="none" stroke="midnightblue" d="M78.94,-168.47C93.82,-161.07 113.27,-148.87 123.83,-132 132.43,-118.24 134.57,-99.71 134.76,-85.96"/>
<polygon fill="midnightblue" stroke="midnightblue" points="138.25,-85.67 134.56,-75.74 131.25,-85.8 138.25,-85.67"/>
</g>
<!-- Node5 -->
<g id="node5" class="node">
<title>Node5</title>
<g id="a_node5"><a xlink:title=" ">
<polygon fill="white" stroke="#bfbfbf" points="3.33,-0.5 3.33,-19.5 54.33,-19.5 54.33,-0.5 3.33,-0.5"/>
<text text-anchor="middle" x="28.83" y="-7.5" font-family="Helvetica,sans-Serif" font-size="10.00">stddef.h</text>
</a>
</g>
</g>
<!-- Node4&#45;&gt;Node5 -->
<g id="edge4" class="edge">
<title>Node4&#45;&gt;Node5</title>
<path fill="none" stroke="midnightblue" d="M28.83,-56.08C28.83,-49.01 28.83,-38.86 28.83,-29.99"/>
<polygon fill="midnightblue" stroke="midnightblue" points="32.33,-29.75 28.83,-19.75 25.33,-29.75 32.33,-29.75"/>
</g>
<!-- Node6 -->
<g id="node6" class="node">
<title>Node6</title>
<g id="a_node6"><a xlink:href="tamtypes_8h.html" target="_top" xlink:title=" ">
<polygon fill="white" stroke="black" points="91.83,-0.5 91.83,-19.5 155.83,-19.5 155.83,-0.5 91.83,-0.5"/>
<text text-anchor="middle" x="123.83" y="-7.5" font-family="Helvetica,sans-Serif" font-size="10.00">tamtypes.h</text>
</a>
</g>
</g>
<!-- Node4&#45;&gt;Node6 -->
<g id="edge5" class="edge">
<title>Node4&#45;&gt;Node6</title>
<path fill="none" stroke="midnightblue" d="M44.09,-56.32C59.05,-47.82 82.08,-34.73 99.55,-24.8"/>
<polygon fill="midnightblue" stroke="midnightblue" points="101.64,-27.64 108.6,-19.65 98.18,-21.55 101.64,-27.64"/>
</g>
<!-- Node7&#45;&gt;Node4 -->
<g id="edge7" class="edge">
<title>Node7&#45;&gt;Node4</title>
<path fill="none" stroke="midnightblue" d="M28.83,-112.08C28.83,-105.01 28.83,-94.86 28.83,-85.99"/>
<polygon fill="midnightblue" stroke="midnightblue" points="32.33,-85.75 28.83,-75.75 25.33,-85.75 32.33,-85.75"/>
</g>
<!-- Node9&#45;&gt;Node6 -->
<g id="edge10" class="edge">
<title>Node9&#45;&gt;Node6</title>
<path fill="none" stroke="midnightblue" d="M132.17,-56.08C130.85,-48.93 128.94,-38.64 127.29,-29.69"/>
<polygon fill="midnightblue" stroke="midnightblue" points="130.71,-28.95 125.45,-19.75 123.83,-30.22 130.71,-28.95"/>
</g>
</g>
</svg>
