<?xml version="1.0" encoding="UTF-8" standalone="no"?>
<!DOCTYPE svg PUBLIC "-//W3C//DTD SVG 1.1//EN"
 "http://www.w3.org/Graphics/SVG/1.1/DTD/svg11.dtd">
<!-- Generated by graphviz version 2.46.1 (20210215.1649)
 -->
<!-- Title: ee/sbv/src/smem.c Pages: 1 -->
<svg width="335pt" height="308pt"
 viewBox="0.00 0.00 334.97 308.00" xmlns="http://www.w3.org/2000/svg" xmlns:xlink="http://www.w3.org/1999/xlink">
<g id="graph0" class="graph" transform="scale(1 1) rotate(0) translate(4 304)">
<title>ee/sbv/src/smem.c</title>
<polygon fill="white" stroke="transparent" points="-4,4 -4,-304 330.97,-304 330.97,4 -4,4"/>
<!-- Node1 -->
<g id="node1" class="node">
<title>Node1</title>
<g id="a_node1"><a xlink:title=" ">
<polygon fill="#bfbfbf" stroke="black" points="137.47,-280.5 137.47,-299.5 237.47,-299.5 237.47,-280.5 137.47,-280.5"/>
<text text-anchor="middle" x="187.47" y="-287.5" font-family="Helvetica,sans-Serif" font-size="10.00">ee/sbv/src/smem.c</text>
</a>
</g>
</g>
<!-- Node2 -->
<g id="node2" class="node">
<title>Node2</title>
<g id="a_node2"><a xlink:href="kernel_8h.html" target="_top" xlink:title=" ">
<polygon fill="white" stroke="black" points="65.47,-168.5 65.47,-187.5 115.47,-187.5 115.47,-168.5 65.47,-168.5"/>
<text text-anchor="middle" x="90.47" y="-175.5" font-family="Helvetica,sans-Serif" font-size="10.00">kernel.h</text>
</a>
</g>
</g>
<!-- Node1&#45;&gt;Node2 -->
<g id="edge1" class="edge">
<title>Node1&#45;&gt;Node2</title>
<path fill="none" stroke="midnightblue" d="M179.86,-280.37C163.71,-262.05 125.79,-219.05 104.9,-195.36"/>
<polygon fill="midnightblue" stroke="midnightblue" points="107.29,-192.78 98.05,-187.59 102.04,-197.41 107.29,-192.78"/>
</g>
<!-- Node7 -->
<g id="node7" class="node">
<title>Node7</title>
<g id="a_node7"><a xlink:href="string_8h_source.html" target="_top" xlink:title=" ">
<polygon fill="white" stroke="black" points="163.47,-224.5 163.47,-243.5 211.47,-243.5 211.47,-224.5 163.47,-224.5"/>
<text text-anchor="middle" x="187.47" y="-231.5" font-family="Helvetica,sans-Serif" font-size="10.00">string.h</text>
</a>
</g>
</g>
<!-- Node1&#45;&gt;Node7 -->
<g id="edge6" class="edge">
<title>Node1&#45;&gt;Node7</title>
<path fill="none" stroke="midnightblue" d="M187.47,-280.08C187.47,-273.01 187.47,-262.86 187.47,-253.99"/>
<polygon fill="midnightblue" stroke="midnightblue" points="190.97,-253.75 187.47,-243.75 183.97,-253.75 190.97,-253.75"/>
</g>
<!-- Node12 -->
<g id="node12" class="node">
<title>Node12</title>
<g id="a_node12"><a xlink:href="smem_8h.html" target="_top" xlink:title=" ">
<polygon fill="white" stroke="black" points="275.97,-56.5 275.97,-75.5 326.97,-75.5 326.97,-56.5 275.97,-56.5"/>
<text text-anchor="middle" x="301.47" y="-63.5" font-family="Helvetica,sans-Serif" font-size="10.00">smem.h</text>
</a>
</g>
</g>
<!-- Node1&#45;&gt;Node12 -->
<g id="edge16" class="edge">
<title>Node1&#45;&gt;Node12</title>
<path fill="none" stroke="midnightblue" d="M194.6,-280.4C201.7,-271.6 212.62,-257.37 220.47,-244 252.91,-188.76 281.73,-118.27 294.49,-85.41"/>
<polygon fill="midnightblue" stroke="midnightblue" points="297.87,-86.37 298.19,-75.78 291.34,-83.86 297.87,-86.37"/>
</g>
<!-- Node3 -->
<g id="node3" class="node">
<title>Node3</title>
<g id="a_node3"><a xlink:title=" ">
<polygon fill="white" stroke="#bfbfbf" points="46.97,-0.5 46.97,-19.5 97.97,-19.5 97.97,-0.5 46.97,-0.5"/>
<text text-anchor="middle" x="72.47" y="-7.5" font-family="Helvetica,sans-Serif" font-size="10.00">stddef.h</text>
</a>
</g>
</g>
<!-- Node2&#45;&gt;Node3 -->
<g id="edge2" class="edge">
<title>Node2&#45;&gt;Node3</title>
<path fill="none" stroke="midnightblue" d="M65.35,-171.07C45.51,-164.92 19.14,-153.15 6.47,-132 -15.82,-94.76 26.6,-49.55 53.23,-26.36"/>
<polygon fill="midnightblue" stroke="midnightblue" points="55.82,-28.76 61.22,-19.64 51.32,-23.4 55.82,-28.76"/>
</g>
<!-- Node4 -->
<g id="node4" class="node">
<title>Node4</title>
<g id="a_node4"><a xlink:title=" ">
<polygon fill="white" stroke="#bfbfbf" points="86.97,-112.5 86.97,-131.5 137.97,-131.5 137.97,-112.5 86.97,-112.5"/>
<text text-anchor="middle" x="112.47" y="-119.5" font-family="Helvetica,sans-Serif" font-size="10.00">stdarg.h</text>
</a>
</g>
</g>
<!-- Node2&#45;&gt;Node4 -->
<g id="edge3" class="edge">
<title>Node2&#45;&gt;Node4</title>
<path fill="none" stroke="midnightblue" d="M94.11,-168.08C97.09,-160.77 101.4,-150.18 105.1,-141.1"/>
<polygon fill="midnightblue" stroke="midnightblue" points="108.38,-142.33 108.91,-131.75 101.89,-139.69 108.38,-142.33"/>
</g>
<!-- Node5 -->
<g id="node5" class="node">
<title>Node5</title>
<g id="a_node5"><a xlink:href="sifdma_8h.html" target="_top" xlink:title=" ">
<polygon fill="white" stroke="black" points="15.97,-112.5 15.97,-131.5 68.97,-131.5 68.97,-112.5 15.97,-112.5"/>
<text text-anchor="middle" x="42.47" y="-119.5" font-family="Helvetica,sans-Serif" font-size="10.00">sifdma.h</text>
</a>
</g>
</g>
<!-- Node2&#45;&gt;Node5 -->
<g id="edge4" class="edge">
<title>Node2&#45;&gt;Node5</title>
<path fill="none" stroke="midnightblue" d="M82.55,-168.08C75.63,-160.3 65.41,-148.8 57.02,-139.37"/>
<polygon fill="midnightblue" stroke="midnightblue" points="59.51,-136.9 50.25,-131.75 54.28,-141.55 59.51,-136.9"/>
</g>
<!-- Node6 -->
<g id="node6" class="node">
<title>Node6</title>
<g id="a_node6"><a xlink:href="tamtypes_8h.html" target="_top" xlink:title=" ">
<polygon fill="white" stroke="black" points="165.47,-0.5 165.47,-19.5 229.47,-19.5 229.47,-0.5 165.47,-0.5"/>
<text text-anchor="middle" x="197.47" y="-7.5" font-family="Helvetica,sans-Serif" font-size="10.00">tamtypes.h</text>
</a>
</g>
</g>
<!-- Node5&#45;&gt;Node6 -->
<g id="edge5" class="edge">
<title>Node5&#45;&gt;Node6</title>
<path fill="none" stroke="midnightblue" d="M53.75,-112.42C70.37,-99.83 102.53,-75.69 130.47,-56 145.36,-45.51 162.41,-34.07 175.58,-25.35"/>
<polygon fill="midnightblue" stroke="midnightblue" points="177.58,-28.22 184.01,-19.79 173.73,-22.37 177.58,-28.22"/>
</g>
<!-- Node8 -->
<g id="node8" class="node">
<title>Node8</title>
<g id="a_node8"><a xlink:href="sysclib_8h.html" target="_top" xlink:title=" ">
<polygon fill="white" stroke="black" points="160.47,-168.5 160.47,-187.5 214.47,-187.5 214.47,-168.5 160.47,-168.5"/>
<text text-anchor="middle" x="187.47" y="-175.5" font-family="Helvetica,sans-Serif" font-size="10.00">sysclib.h</text>
</a>
</g>
</g>
<!-- Node7&#45;&gt;Node8 -->
<g id="edge7" class="edge">
<title>Node7&#45;&gt;Node8</title>
<path fill="none" stroke="midnightblue" d="M187.47,-224.08C187.47,-217.01 187.47,-206.86 187.47,-197.99"/>
<polygon fill="midnightblue" stroke="midnightblue" points="190.97,-197.75 187.47,-187.75 183.97,-197.75 190.97,-197.75"/>
</g>
<!-- Node8&#45;&gt;Node4 -->
<g id="edge13" class="edge">
<title>Node8&#45;&gt;Node4</title>
<path fill="none" stroke="midnightblue" d="M175.42,-168.32C164.01,-160.11 146.64,-147.6 133.04,-137.81"/>
<polygon fill="midnightblue" stroke="midnightblue" points="134.9,-134.84 124.74,-131.83 130.81,-140.52 134.9,-134.84"/>
</g>
<!-- Node9 -->
<g id="node9" class="node">
<title>Node9</title>
<g id="a_node9"><a xlink:href="types_8h_source.html" target="_top" xlink:title=" ">
<polygon fill="white" stroke="black" points="139.97,-56.5 139.97,-75.5 186.97,-75.5 186.97,-56.5 139.97,-56.5"/>
<text text-anchor="middle" x="163.47" y="-63.5" font-family="Helvetica,sans-Serif" font-size="10.00">types.h</text>
</a>
</g>
</g>
<!-- Node8&#45;&gt;Node9 -->
<g id="edge8" class="edge">
<title>Node8&#45;&gt;Node9</title>
<path fill="none" stroke="midnightblue" d="M185.59,-168.37C181.72,-150.62 172.78,-109.67 167.53,-85.6"/>
<polygon fill="midnightblue" stroke="midnightblue" points="170.9,-84.62 165.35,-75.59 164.06,-86.11 170.9,-84.62"/>
</g>
<!-- Node10 -->
<g id="node10" class="node">
<title>Node10</title>
<g id="a_node10"><a xlink:href="irx_8h.html" target="_top" xlink:title=" ">
<polygon fill="white" stroke="black" points="194.47,-112.5 194.47,-131.5 228.47,-131.5 228.47,-112.5 194.47,-112.5"/>
<text text-anchor="middle" x="211.47" y="-119.5" font-family="Helvetica,sans-Serif" font-size="10.00">irx.h</text>
</a>
</g>
</g>
<!-- Node8&#45;&gt;Node10 -->
<g id="edge11" class="edge">
<title>Node8&#45;&gt;Node10</title>
<path fill="none" stroke="midnightblue" d="M191.44,-168.08C194.69,-160.77 199.39,-150.18 203.43,-141.1"/>
<polygon fill="midnightblue" stroke="midnightblue" points="206.72,-142.31 207.58,-131.75 200.32,-139.47 206.72,-142.31"/>
</g>
<!-- Node11 -->
<g id="node11" class="node">
<title>Node11</title>
<g id="a_node11"><a xlink:href="setjmp_8h.html" target="_top" xlink:title=" ">
<polygon fill="white" stroke="black" points="204.97,-56.5 204.97,-75.5 257.97,-75.5 257.97,-56.5 204.97,-56.5"/>
<text text-anchor="middle" x="231.47" y="-63.5" font-family="Helvetica,sans-Serif" font-size="10.00">setjmp.h</text>
</a>
</g>
</g>
<!-- Node8&#45;&gt;Node11 -->
<g id="edge14" class="edge">
<title>Node8&#45;&gt;Node11</title>
<path fill="none" stroke="midnightblue" d="M202.43,-168.47C214.41,-160.7 230.35,-148 237.47,-132 244.02,-117.3 241.46,-98.9 237.88,-85.43"/>
<polygon fill="midnightblue" stroke="midnightblue" points="241.22,-84.39 234.94,-75.86 234.52,-86.44 241.22,-84.39"/>
</g>
<!-- Node9&#45;&gt;Node3 -->
<g id="edge9" class="edge">
<title>Node9&#45;&gt;Node3</title>
<path fill="none" stroke="midnightblue" d="M148.85,-56.32C134.52,-47.82 112.46,-34.73 95.72,-24.8"/>
<polygon fill="midnightblue" stroke="midnightblue" points="97.44,-21.75 87.06,-19.65 93.87,-27.77 97.44,-21.75"/>
</g>
<!-- Node9&#45;&gt;Node6 -->
<g id="edge10" class="edge">
<title>Node9&#45;&gt;Node6</title>
<path fill="none" stroke="midnightblue" d="M169.09,-56.08C173.84,-48.53 180.79,-37.49 186.62,-28.23"/>
<polygon fill="midnightblue" stroke="midnightblue" points="189.6,-30.08 191.96,-19.75 183.67,-26.35 189.6,-30.08"/>
</g>
<!-- Node10&#45;&gt;Node9 -->
<g id="edge12" class="edge">
<title>Node10&#45;&gt;Node9</title>
<path fill="none" stroke="midnightblue" d="M203.55,-112.08C196.63,-104.3 186.41,-92.8 178.02,-83.37"/>
<polygon fill="midnightblue" stroke="midnightblue" points="180.51,-80.9 171.25,-75.75 175.28,-85.55 180.51,-80.9"/>
</g>
<!-- Node11&#45;&gt;Node6 -->
<g id="edge15" class="edge">
<title>Node11&#45;&gt;Node6</title>
<path fill="none" stroke="midnightblue" d="M225.86,-56.08C221.11,-48.53 214.16,-37.49 208.32,-28.23"/>
<polygon fill="midnightblue" stroke="midnightblue" points="211.27,-26.35 202.98,-19.75 205.35,-30.08 211.27,-26.35"/>
</g>
<!-- Node12&#45;&gt;Node6 -->
<g id="edge17" class="edge">
<title>Node12&#45;&gt;Node6</title>
<path fill="none" stroke="midnightblue" d="M284.76,-56.32C268.16,-47.7 242.47,-34.36 223.25,-24.39"/>
<polygon fill="midnightblue" stroke="midnightblue" points="224.63,-21.16 214.14,-19.65 221.4,-27.37 224.63,-21.16"/>
</g>
</g>
</svg>
