<?xml version="1.0" encoding="UTF-8" standalone="no"?>
<!DOCTYPE svg PUBLIC "-//W3C//DTD SVG 1.1//EN"
 "http://www.w3.org/Graphics/SVG/1.1/DTD/svg11.dtd">
<!-- Generated by graphviz version 2.46.1 (20210215.1649)
 -->
<!-- Title: iop/kernel/include/sysclib.h Pages: 1 -->
<svg width="168pt" height="207pt"
 viewBox="0.00 0.00 168.05 207.00" xmlns="http://www.w3.org/2000/svg" xmlns:xlink="http://www.w3.org/1999/xlink">
<g id="graph0" class="graph" transform="scale(1 1) rotate(0) translate(4 203)">
<title>iop/kernel/include/sysclib.h</title>
<polygon fill="white" stroke="transparent" points="-4,4 -4,-203 164.05,-203 164.05,4 -4,4"/>
<!-- Node1 -->
<g id="node1" class="node">
<title>Node1</title>
<g id="a_node1"><a xlink:title=" ">
<polygon fill="#bfbfbf" stroke="black" points="12.55,-168.5 12.55,-198.5 104.55,-198.5 104.55,-168.5 12.55,-168.5"/>
<text text-anchor="start" x="20.55" y="-186.5" font-family="Helvetica,sans-Serif" font-size="10.00">iop/kernel/include</text>
<text text-anchor="middle" x="58.55" y="-175.5" font-family="Helvetica,sans-Serif" font-size="10.00">/sysclib.h</text>
</a>
</g>
</g>
<!-- Node2 -->
<g id="node2" class="node">
<title>Node2</title>
<g id="a_node2"><a xlink:href="types_8h_source.html" target="_top" xlink:title=" ">
<polygon fill="white" stroke="black" points="5.05,-56.5 5.05,-75.5 52.05,-75.5 52.05,-56.5 5.05,-56.5"/>
<text text-anchor="middle" x="28.55" y="-63.5" font-family="Helvetica,sans-Serif" font-size="10.00">types.h</text>
</a>
</g>
</g>
<!-- Node1&#45;&gt;Node2 -->
<g id="edge1" class="edge">
<title>Node1&#45;&gt;Node2</title>
<path fill="none" stroke="midnightblue" d="M35.08,-168.32C22.92,-159.54 9.25,-147.07 2.55,-132 -4.59,-115.94 4.63,-97.28 14.01,-84.08"/>
<polygon fill="midnightblue" stroke="midnightblue" points="16.98,-85.97 20.33,-75.92 11.44,-81.69 16.98,-85.97"/>
</g>
<!-- Node5 -->
<g id="node5" class="node">
<title>Node5</title>
<g id="a_node5"><a xlink:href="irx_8h.html" target="_top" xlink:title=" ">
<polygon fill="white" stroke="black" points="11.55,-112.5 11.55,-131.5 45.55,-131.5 45.55,-112.5 11.55,-112.5"/>
<text text-anchor="middle" x="28.55" y="-119.5" font-family="Helvetica,sans-Serif" font-size="10.00">irx.h</text>
</a>
</g>
</g>
<!-- Node1&#45;&gt;Node5 -->
<g id="edge4" class="edge">
<title>Node1&#45;&gt;Node5</title>
<path fill="none" stroke="midnightblue" d="M51.44,-168.4C47.26,-160.11 41.94,-149.55 37.48,-140.71"/>
<polygon fill="midnightblue" stroke="midnightblue" points="40.54,-139.01 32.91,-131.66 34.29,-142.16 40.54,-139.01"/>
</g>
<!-- Node6 -->
<g id="node6" class="node">
<title>Node6</title>
<g id="a_node6"><a xlink:title=" ">
<polygon fill="white" stroke="#bfbfbf" points="64.05,-112.5 64.05,-131.5 115.05,-131.5 115.05,-112.5 64.05,-112.5"/>
<text text-anchor="middle" x="89.55" y="-119.5" font-family="Helvetica,sans-Serif" font-size="10.00">stdarg.h</text>
</a>
</g>
</g>
<!-- Node1&#45;&gt;Node6 -->
<g id="edge6" class="edge">
<title>Node1&#45;&gt;Node6</title>
<path fill="none" stroke="midnightblue" d="M65.9,-168.4C70.21,-160.11 75.71,-149.55 80.32,-140.71"/>
<polygon fill="midnightblue" stroke="midnightblue" points="83.52,-142.14 85.04,-131.66 77.31,-138.91 83.52,-142.14"/>
</g>
<!-- Node7 -->
<g id="node7" class="node">
<title>Node7</title>
<g id="a_node7"><a xlink:href="setjmp_8h.html" target="_top" xlink:title=" ">
<polygon fill="white" stroke="black" points="107.05,-56.5 107.05,-75.5 160.05,-75.5 160.05,-56.5 107.05,-56.5"/>
<text text-anchor="middle" x="133.55" y="-63.5" font-family="Helvetica,sans-Serif" font-size="10.00">setjmp.h</text>
</a>
</g>
</g>
<!-- Node1&#45;&gt;Node7 -->
<g id="edge7" class="edge">
<title>Node1&#45;&gt;Node7</title>
<path fill="none" stroke="midnightblue" d="M85.08,-168.46C98.79,-159.8 114.5,-147.4 123.55,-132 131.78,-118.01 133.95,-99.5 134.26,-85.82"/>
<polygon fill="midnightblue" stroke="midnightblue" points="137.75,-85.63 134.16,-75.66 130.75,-85.69 137.75,-85.63"/>
</g>
<!-- Node3 -->
<g id="node3" class="node">
<title>Node3</title>
<g id="a_node3"><a xlink:title=" ">
<polygon fill="white" stroke="#bfbfbf" points="3.05,-0.5 3.05,-19.5 54.05,-19.5 54.05,-0.5 3.05,-0.5"/>
<text text-anchor="middle" x="28.55" y="-7.5" font-family="Helvetica,sans-Serif" font-size="10.00">stddef.h</text>
</a>
</g>
</g>
<!-- Node2&#45;&gt;Node3 -->
<g id="edge2" class="edge">
<title>Node2&#45;&gt;Node3</title>
<path fill="none" stroke="midnightblue" d="M28.55,-56.08C28.55,-49.01 28.55,-38.86 28.55,-29.99"/>
<polygon fill="midnightblue" stroke="midnightblue" points="32.05,-29.75 28.55,-19.75 25.05,-29.75 32.05,-29.75"/>
</g>
<!-- Node4 -->
<g id="node4" class="node">
<title>Node4</title>
<g id="a_node4"><a xlink:href="tamtypes_8h.html" target="_top" xlink:title=" ">
<polygon fill="white" stroke="black" points="91.55,-0.5 91.55,-19.5 155.55,-19.5 155.55,-0.5 91.55,-0.5"/>
<text text-anchor="middle" x="123.55" y="-7.5" font-family="Helvetica,sans-Serif" font-size="10.00">tamtypes.h</text>
</a>
</g>
</g>
<!-- Node2&#45;&gt;Node4 -->
<g id="edge3" class="edge">
<title>Node2&#45;&gt;Node4</title>
<path fill="none" stroke="midnightblue" d="M43.81,-56.32C58.77,-47.82 81.8,-34.73 99.28,-24.8"/>
<polygon fill="midnightblue" stroke="midnightblue" points="101.36,-27.64 108.32,-19.65 97.9,-21.55 101.36,-27.64"/>
</g>
<!-- Node5&#45;&gt;Node2 -->
<g id="edge5" class="edge">
<title>Node5&#45;&gt;Node2</title>
<path fill="none" stroke="midnightblue" d="M28.55,-112.08C28.55,-105.01 28.55,-94.86 28.55,-85.99"/>
<polygon fill="midnightblue" stroke="midnightblue" points="32.05,-85.75 28.55,-75.75 25.05,-85.75 32.05,-85.75"/>
</g>
<!-- Node7&#45;&gt;Node4 -->
<g id="edge8" class="edge">
<title>Node7&#45;&gt;Node4</title>
<path fill="none" stroke="midnightblue" d="M131.9,-56.08C130.57,-48.93 128.67,-38.64 127.01,-29.69"/>
<polygon fill="midnightblue" stroke="midnightblue" points="130.43,-28.95 125.17,-19.75 123.55,-30.22 130.43,-28.95"/>
</g>
</g>
</svg>
